<svg class="yuho-mermaid-svg" id="my-svg" width="100%" xmlns="http://www.w3.org/2000/svg" xmlns:xlink="http://www.w3.org/1999/xlink" class="flowchart" style="max-width: 252.705px; background-color: transparent;" viewBox="0 0 252.70530700683594 103" role="graphics-document document" aria-roledescription="flowchart-v2"><style>#my-svg{font-family:"trebuchet ms",verdana,arial,sans-serif;font-size:16px;fill:#333;}@keyframes edge-animation-frame{from{stroke-dashoffset:0;}}@keyframes dash{to{stroke-dashoffset:0;}}#my-svg .edge-animation-slow{stroke-dasharray:9,5!important;stroke-dashoffset:900;animation:dash 50s linear infinite;stroke-linecap:round;}#my-svg .edge-animation-fast{stroke-dasharray:9,5!important;stroke-dashoffset:900;animation:dash 20s linear infinite;stroke-linecap:round;}#my-svg .error-icon{fill:#552222;}#my-svg .error-text{fill:#552222;stroke:#552222;}#my-svg .edge-thickness-normal{stroke-width:1px;}#my-svg .edge-thickness-thick{stroke-width:3.5px;}#my-svg .edge-pattern-solid{stroke-dasharray:0;}#my-svg .edge-thickness-invisible{stroke-width:0;fill:none;}#my-svg .edge-pattern-dashed{stroke-dasharray:3;}#my-svg .edge-pattern-dotted{stroke-dasharray:2;}#my-svg .marker{fill:#333333;stroke:#333333;}#my-svg .marker.cross{stroke:#333333;}#my-svg svg{font-family:"trebuchet ms",verdana,arial,sans-serif;font-size:16px;}#my-svg p{margin:0;}#my-svg .label{font-family:"trebuchet ms",verdana,arial,sans-serif;color:#333;}#my-svg .cluster-label text{fill:#333;}#my-svg .cluster-label span{color:#333;}#my-svg .cluster-label span p{background-color:transparent;}#my-svg .label text,#my-svg span{fill:#333;color:#333;}#my-svg .node rect,#my-svg .node circle,#my-svg .node ellipse,#my-svg .node polygon,#my-svg .node path{fill:#ECECFF;stroke:#9370DB;stroke-width:1px;}#my-svg .rough-node .label text,#my-svg .node .label text,#my-svg .image-shape .label,#my-svg .icon-shape .label{text-anchor:middle;}#my-svg .node .katex path{fill:#000;stroke:#000;stroke-width:1px;}#my-svg .rough-node .label,#my-svg .node .label,#my-svg .image-shape .label,#my-svg .icon-shape .label{text-align:center;}#my-svg .node.clickable{cursor:pointer;}#my-svg .root .anchor path{fill:#333333!important;stroke-width:0;stroke:#333333;}#my-svg .arrowheadPath{fill:#333333;}#my-svg .edgePath .path{stroke:#333333;stroke-width:1px;}#my-svg .flowchart-link{stroke:#333333;fill:none;}#my-svg .edgeLabel{background-color:rgba(232,232,232, 0.8);text-align:center;}#my-svg .edgeLabel p{background-color:rgba(232,232,232, 0.8);}#my-svg .edgeLabel rect{opacity:0.5;background-color:rgba(232,232,232, 0.8);fill:rgba(232,232,232, 0.8);}#my-svg .labelBkg{background-color:rgba(232, 232, 232, 0.5);}#my-svg .cluster rect{fill:#ffffde;stroke:#aaaa33;stroke-width:1px;}#my-svg .cluster text{fill:#333;}#my-svg .cluster span{color:#333;}#my-svg div.mermaidTooltip{position:absolute;text-align:center;max-width:200px;padding:2px;font-family:"trebuchet ms",verdana,arial,sans-serif;font-size:12px;background:hsl(80, 100%, 96.2745098039%);border:1px solid #aaaa33;border-radius:2px;pointer-events:none;z-index:100;}#my-svg .flowchartTitleText{text-anchor:middle;font-size:18px;fill:#333;}#my-svg rect.text{fill:none;stroke-width:0;}#my-svg .icon-shape,#my-svg .image-shape{background-color:rgba(232,232,232, 0.8);text-align:center;}#my-svg .icon-shape p,#my-svg .image-shape p{background-color:rgba(232,232,232, 0.8);padding:2px;}#my-svg .icon-shape .label rect,#my-svg .image-shape .label rect{opacity:0.5;background-color:rgba(232,232,232, 0.8);fill:rgba(232,232,232, 0.8);}#my-svg .label-icon{display:inline-block;height:1em;overflow:visible;vertical-align:-0.125em;}#my-svg .node .label-icon path{fill:currentColor;stroke:revert;stroke-width:revert;}#my-svg .node .neo-node{stroke:#9370DB;}#my-svg [data-look="neo"].node rect,#my-svg [data-look="neo"].cluster rect,#my-svg [data-look="neo"].node polygon{stroke:#9370DB;filter:drop-shadow(1px 2px 2px rgba(185, 185, 185, 1));}#my-svg [data-look="neo"].node path{stroke:#9370DB;stroke-width:1px;}#my-svg [data-look="neo"].node .outer-path{filter:drop-shadow(1px 2px 2px rgba(185, 185, 185, 1));}#my-svg [data-look="neo"].node .neo-line path{stroke:#9370DB;filter:none;}#my-svg [data-look="neo"].node circle{stroke:#9370DB;filter:drop-shadow(1px 2px 2px rgba(185, 185, 185, 1));}#my-svg [data-look="neo"].node circle .state-start{fill:#000000;}#my-svg [data-look="neo"].icon-shape .icon{fill:#9370DB;filter:drop-shadow(1px 2px 2px rgba(185, 185, 185, 1));}#my-svg [data-look="neo"].icon-shape .icon-neo path{stroke:#9370DB;filter:drop-shadow(1px 2px 2px rgba(185, 185, 185, 1));}#my-svg :root{--mermaid-font-family:"trebuchet ms",verdana,arial,sans-serif;}</style><g><marker id="my-svg_flowchart-v2-pointEnd" class="marker flowchart-v2" viewBox="0 0 10 10" refX="5" refY="5" markerUnits="userSpaceOnUse" markerWidth="8" markerHeight="8" orient="auto"><path d="M 0 0 L 10 5 L 0 10 z" class="arrowMarkerPath" style="stroke-width: 1; stroke-dasharray: 1, 0;"/></marker><marker id="my-svg_flowchart-v2-pointStart" class="marker flowchart-v2" viewBox="0 0 10 10" refX="4.5" refY="5" markerUnits="userSpaceOnUse" markerWidth="8" markerHeight="8" orient="auto"><path d="M 0 5 L 10 10 L 10 0 z" class="arrowMarkerPath" style="stroke-width: 1; stroke-dasharray: 1, 0;"/></marker><marker id="my-svg_flowchart-v2-pointEnd-margin" class="marker flowchart-v2" viewBox="0 0 11.5 14" refX="11.5" refY="7" markerUnits="userSpaceOnUse" markerWidth="10.5" markerHeight="14" orient="auto"><path d="M 0 0 L 11.5 7 L 0 14 z" class="arrowMarkerPath" style="stroke-width: 0; stroke-dasharray: 1, 0;"/></marker><marker id="my-svg_flowchart-v2-pointStart-margin" class="marker flowchart-v2" viewBox="0 0 11.5 14" refX="1" refY="7" markerUnits="userSpaceOnUse" markerWidth="11.5" markerHeight="14" orient="auto"><polygon points="0,7 11.5,14 11.5,0" class="arrowMarkerPath" style="stroke-width: 0; stroke-dasharray: 1, 0;"/></marker><marker id="my-svg_flowchart-v2-circleEnd" class="marker flowchart-v2" viewBox="0 0 10 10" refX="11" refY="5" markerUnits="userSpaceOnUse" markerWidth="11" markerHeight="11" orient="auto"><circle cx="5" cy="5" r="5" class="arrowMarkerPath" style="stroke-width: 1; stroke-dasharray: 1, 0;"/></marker><marker id="my-svg_flowchart-v2-circleStart" class="marker flowchart-v2" viewBox="0 0 10 10" refX="-1" refY="5" markerUnits="userSpaceOnUse" markerWidth="11" markerHeight="11" orient="auto"><circle cx="5" cy="5" r="5" class="arrowMarkerPath" style="stroke-width: 1; stroke-dasharray: 1, 0;"/></marker><marker id="my-svg_flowchart-v2-circleEnd-margin" class="marker flowchart-v2" viewBox="0 0 10 10" refY="5" refX="12.25" markerUnits="userSpaceOnUse" markerWidth="14" markerHeight="14" orient="auto"><circle cx="5" cy="5" r="5" class="arrowMarkerPath" style="stroke-width: 0; stroke-dasharray: 1, 0;"/></marker><marker id="my-svg_flowchart-v2-circleStart-margin" class="marker flowchart-v2" viewBox="0 0 10 10" refX="-2" refY="5" markerUnits="userSpaceOnUse" markerWidth="14" markerHeight="14" orient="auto"><circle cx="5" cy="5" r="5" class="arrowMarkerPath" style="stroke-width: 0; stroke-dasharray: 1, 0;"/></marker><marker id="my-svg_flowchart-v2-crossEnd" class="marker cross flowchart-v2" viewBox="0 0 11 11" refX="12" refY="5.2" markerUnits="userSpaceOnUse" markerWidth="11" markerHeight="11" orient="auto"><path d="M 1,1 l 9,9 M 10,1 l -9,9" class="arrowMarkerPath" style="stroke-width: 2; stroke-dasharray: 1, 0;"/></marker><marker id="my-svg_flowchart-v2-crossStart" class="marker cross flowchart-v2" viewBox="0 0 11 11" refX="-1" refY="5.2" markerUnits="userSpaceOnUse" markerWidth="11" markerHeight="11" orient="auto"><path d="M 1,1 l 9,9 M 10,1 l -9,9" class="arrowMarkerPath" style="stroke-width: 2; stroke-dasharray: 1, 0;"/></marker><marker id="my-svg_flowchart-v2-crossEnd-margin" class="marker cross flowchart-v2" viewBox="0 0 15 15" refX="17.7" refY="7.5" markerUnits="userSpaceOnUse" markerWidth="12" markerHeight="12" orient="auto"><path d="M 1,1 L 14,14 M 1,14 L 14,1" class="arrowMarkerPath" style="stroke-width: 2.5;"/></marker><marker id="my-svg_flowchart-v2-crossStart-margin" class="marker cross flowchart-v2" viewBox="0 0 15 15" refX="-3.5" refY="7.5" markerUnits="userSpaceOnUse" markerWidth="12" markerHeight="12" orient="auto"><path d="M 1,1 L 14,14 M 1,14 L 14,1" class="arrowMarkerPath" style="stroke-width: 2.5; stroke-dasharray: 1, 0;"/></marker><g class="root"><g class="clusters"/><g class="edgePaths"/><g class="edgeLabels"/><g class="nodes"><g class="node default" id="my-svg-flowchart-START1-0" data-look="classic" transform="translate(126.35265350341797, 51.5)"><g class="basic label-container outer-path"><path d="M-74.875 -43.5 C-42.160758577689634 -43.5, -9.446517155379269 -43.5, 74.875 -43.5 C74.875 -43.5, 74.875 -43.5, 74.875 -43.5 C75.97732861794495 -43.464650466775, 77.07965723588991 -43.429300933549996, 77.66205456916101 -43.41062458463963 C78.35910706181865 -43.34338076900122, 79.05615955447628 -43.276136953362816, 80.43765653327601 -43.14286560131121 C81.19090549309055 -43.02108615102132, 81.9441544529051 -42.89930670073143, 83.19040034850968 -42.697823329111344 C83.93702553778635 -42.52741100184363, 84.68365072706302 -42.35699867457593, 85.90897440006356 -42.07732654219778 C86.91918194931523 -41.77750224426752, 87.92938949856692 -41.47767794633725, 88.58220748402749 -41.28392499496409 C89.25228214386733 -41.03733132604077, 89.92235680370717 -40.790737657117454, 91.19911471225277 -40.32087894455194 C91.82417836672899 -40.04418180656984, 92.44924202120521 -39.767484668587734, 93.74894265161377 -39.192145753755234 C94.60275653977543 -38.746711595195194, 95.45657042793708 -38.30127743663516, 96.22121351217129 -37.90236362936744 C97.00416288048575 -37.42773512117401, 97.78711224880021 -36.953106612980584, 98.60576820265887 -36.45683256279507 C99.28264278084349 -35.98467415848171, 99.95951735902813 -35.51251575416835, 100.8928080763679 -34.86149255125611 C101.51332347816292 -34.366648030932915, 102.13383887995792 -33.871803510609716, 103.07293519588879 -33.12289918905735 C103.87129833567238 -32.397846909037035, 104.66966147545598 -31.672794629016714, 105.13719095125165 -31.248196729251152 C105.84411253894521 -30.518242150615816, 106.55103412663878 -29.78828757198048, 107.07709287277622 -29.24508872636729 C107.71234124024159 -28.498889847286378, 108.34758960770695 -27.752690968205464, 108.8846694873593 -27.12180638085491 C109.27762670770582 -26.595279504729795, 109.67058392805235 -26.068752628604685, 110.55249307496757 -24.88707471531439 C110.90261408723175 -24.349194819820678, 111.25273509949595 -23.81131492432696, 112.07371019073256 -22.550076721507846 C112.61365596112836 -21.591348330732053, 113.15360173152416 -20.63261993995626, 113.44206982722551 -20.120415625476333 C113.91304273556965 -19.14243030409382, 114.38401564391378 -18.16444498271131, 114.65194910118784 -17.60807542582414 C114.89792732217255 -17.000504464326514, 115.14390554315727 -16.392933502828893, 115.69837635916457 -15.023379867326902 C115.999427938275 -14.116660477101492, 116.30047951738544 -13.209941086876082, 116.57705160709475 -12.376950018449923 C116.79441785099799 -11.54803832332078, 117.01178409490124 -10.719126628191638, 117.28436417990932 -9.67966062709968 C117.46982711618682 -8.727347646920192, 117.65529005246432 -7.7750346667407015, 117.81740757852859 -6.942595433952013 C117.89830789152228 -6.315148581946744, 117.97920820451596 -5.687701729941476, 118.17399141329012 -4.177001626984165 C118.21415766542471 -3.551379828372906, 118.25432391755929 -2.9257580297616474, 118.35265040472993 -1.3942436243669998 C118.35265040472993 -0.8355741410839655, 118.35265040472993 -0.2769046578009313, 118.35265040472993 1.3942436243669891 C118.31102754874276 2.042553203731753, 118.26940469275559 2.6908627830965175, 118.17399141329012 4.177001626984135 C118.07291086935922 4.960962365101186, 117.9718303254283 5.7449231032182375, 117.81740757852859 6.942595433951983 C117.70700935545433 7.509466976765538, 117.59661113238009 8.076338519579094, 117.28436417990932 9.679660627099672 C117.05919227971364 10.538338672664644, 116.83402037951798 11.397016718229615, 116.57705160709475 12.376950018449895 C116.37275714194357 12.99225239758256, 116.1684626767924 13.607554776715224, 115.69837635916457 15.023379867326874 C115.47879423223077 15.565751966184976, 115.25921210529698 16.10812406504308, 114.65194910118785 17.60807542582413 C114.30718899310598 18.323977166940733, 113.9624288850241 19.039878908057336, 113.44206982722551 20.120415625476323 C112.92289012083192 21.042271766824186, 112.40371041443834 21.964127908172053, 112.07371019073256 22.550076721507835 C111.58156497041978 23.30614393940399, 111.08941975010701 24.06221115730015, 110.5524930749676 24.887074715314366 C109.96503341597774 25.67421713968485, 109.3775737569879 26.46135956405533, 108.8846694873593 27.121806380854903 C108.20782843604086 27.916862393080404, 107.53098738472241 28.7119184053059, 107.07709287277623 29.245088726367264 C106.37672880637136 29.968272125889523, 105.67636473996649 30.691455525411786, 105.13719095125167 31.24819672925114 C104.61680555187552 31.720796980321385, 104.09642015249938 32.19339723139163, 103.07293519588882 33.12289918905732 C102.41830768166623 33.644947211280076, 101.76368016744365 34.166995233502824, 100.89280807636791 34.861492551256106 C100.10421251862893 35.41158267458333, 99.31561696088995 35.961672797910545, 98.60576820265888 36.45683256279506 C97.97254110064094 36.84069855329384, 97.339313998623 37.22456454379262, 96.22121351217129 37.90236362936744 C95.3344308857261 38.364997557572515, 94.44764825928092 38.82763148577758, 93.74894265161379 39.19214575375523 C93.03413153819982 39.50857142954529, 92.31932042478586 39.82499710533536, 91.1991147122528 40.32087894455194 C90.64783116107986 40.523756387392865, 90.09654760990693 40.72663383023378, 88.58220748402752 41.283924994964075 C87.74824435802321 41.531440873200374, 86.91428123201892 41.77895675143668, 85.90897440006361 42.077326542197774 C85.10444707146146 42.26095465491976, 84.29991974285932 42.444582767641734, 83.19040034850971 42.697823329111344 C82.2457031816789 42.8505546408086, 81.30100601484808 43.00328595250586, 80.43765653327604 43.1428656013112 C79.40259308415904 43.242716927401595, 78.36752963504203 43.34256825349199, 77.66205456916101 43.41062458463963 C76.82903991039151 43.4373377433817, 75.99602525162202 43.464050902123766, 74.87500000000001 43.5 C74.87500000000001 43.5, 74.87500000000001 43.5, 74.875 43.5 C34.332976392723545 43.5, -6.2090472145529105 43.5, -74.87499999999999 43.5 C-75.77171162896146 43.471244203402506, -76.66842325792292 43.44248840680501, -77.66205456916099 43.41062458463963 C-78.43068847721307 43.33647539594737, -79.19932238526515 43.2623262072551, -80.43765653327603 43.1428656013112 C-81.343696858909 42.99638402791053, -82.24973718454197 42.84990245450986, -83.1904003485097 42.697823329111344 C-83.80441931856231 42.557677506045074, -84.41843828861492 42.417531682978804, -85.90897440006356 42.07732654219778 C-86.82207027186493 41.80632448038517, -87.7351661436663 41.53532241857256, -88.58220748402748 41.283924994964096 C-89.20481727355099 41.05479883707764, -89.82742706307448 40.825672679191186, -91.19911471225278 40.32087894455194 C-91.88158155665788 40.01877111719345, -92.56404840106298 39.71666328983496, -93.74894265161377 39.192145753755234 C-94.6751631423872 38.70893711699127, -95.60138363316065 38.22572848022731, -96.22121351217127 37.90236362936745 C-97.1331138907425 37.349564260956114, -98.04501426931373 36.796764892544786, -98.60576820265884 36.456832562795086 C-99.15480907530157 36.07384541763583, -99.70384994794429 35.69085827247657, -100.89280807636788 34.86149255125612 C-101.71744604968255 34.20386571207575, -102.54208402299723 33.54623887289539, -103.07293519588879 33.12289918905736 C-103.74195347973857 32.51531448491878, -104.41097176358834 31.907729780780205, -105.13719095125164 31.24819672925117 C-105.60514317545675 30.76499763816728, -106.07309539966187 30.28179854708339, -107.07709287277623 29.245088726367282 C-107.45609847400249 28.799887181137272, -107.83510407522874 28.354685635907263, -108.88466948735929 27.121806380854917 C-109.28586376061675 26.584242604240114, -109.68705803387421 26.046678827625314, -110.55249307496757 24.887074715314395 C-110.85701568541495 24.419246209896638, -111.16153829586231 23.95141770447888, -112.07371019073254 22.550076721507864 C-112.55345036825899 21.69824945734895, -113.03319054578546 20.846422193190037, -113.44206982722551 20.120415625476337 C-113.92537119142631 19.116830001720764, -114.40867255562712 18.113244377965188, -114.65194910118784 17.608075425824147 C-115.07020093659143 16.574985306028147, -115.48845277199503 15.541895186232146, -115.69837635916457 15.023379867326907 C-116.04386296119783 13.98282926781738, -116.38934956323111 12.94227866830785, -116.57705160709475 12.37695001844991 C-116.72569999942179 11.810089273886122, -116.87434839174882 11.243228529322334, -117.28436417990932 9.679660627099686 C-117.4737624384699 8.70714059872725, -117.66316069703048 7.734620570354812, -117.81740757852859 6.942595433952017 C-117.94841299182924 5.926543318336993, -118.0794184051299 4.9104912027219685, -118.17399141329011 4.17700162698419 C-118.22091216795233 3.4461729993685477, -118.26783292261457 2.7153443717529058, -118.35265040472993 1.394243624367005 C-118.35265040472993 0.43247283180938734, -118.35265040472993 -0.5292979607482304, -118.35265040472993 -1.394243624366984 C-118.30289744811694 -2.169186083478011, -118.25314449150395 -2.9441285425890387, -118.17399141329012 -4.177001626984129 C-118.06872950318909 -4.993392215412591, -117.96346759308804 -5.809782803841053, -117.81740757852859 -6.942595433951997 C-117.67617893629732 -7.667774663125458, -117.53495029406604 -8.39295389229892, -117.28436417990932 -9.679660627099667 C-117.00801603110428 -10.733495888538652, -116.73166788229922 -11.787331149977636, -116.57705160709475 -12.37695001844989 C-116.28017476228433 -13.271095774117251, -115.9832979174739 -14.165241529784613, -115.6983763591646 -15.023379867326852 C-115.48789643884642 -15.543269339865176, -115.27741651852824 -16.0631588124035, -114.65194910118785 -17.608075425824126 C-114.2081139621934 -18.529708588496757, -113.76427882319895 -19.451341751169387, -113.44206982722551 -20.12041562547632 C-112.91526569919043 -21.05580969950508, -112.38846157115533 -21.991203773533844, -112.07371019073256 -22.55007672150785 C-111.6068879950954 -23.267240973317993, -111.14006579945826 -23.98440522512814, -110.55249307496757 -24.88707471531438 C-109.997657704862 -25.630503564713806, -109.44282233475641 -26.37393241411323, -108.8846694873593 -27.121806380854903 C-108.2870528184683 -27.82380092548606, -107.68943614957729 -28.525795470117224, -107.07709287277623 -29.245088726367264 C-106.43789683818623 -29.905111111051863, -105.79870080359622 -30.56513349573646, -105.13719095125168 -31.248196729251127 C-104.34025034548166 -31.971957101518502, -103.54330973971165 -32.69571747378588, -103.07293519588883 -33.12289918905732 C-102.285865441848 -33.750566373099105, -101.49879568780716 -34.37823355714089, -100.89280807636791 -34.861492551256106 C-100.43287754222948 -35.182320181799156, -99.97294700809103 -35.5031478123422, -98.6057682026589 -36.45683256279505 C-97.98041452962659 -36.83592563437333, -97.35506085659428 -37.21501870595162, -96.2212135121713 -37.902363629367436 C-95.23552862637939 -38.416594802923775, -94.24984374058748 -38.93082597648011, -93.74894265161379 -39.19214575375523 C-93.00951927409142 -39.51946654876921, -92.27009589656906 -39.84678734378319, -91.1991147122528 -40.320878944551936 C-90.61204608285213 -40.5369256269743, -90.02497745345147 -40.75297230939667, -88.58220748402753 -41.283924994964075 C-87.54494698013262 -41.59177846782859, -86.50768647623772 -41.89963194069311, -85.90897440006361 -42.07732654219777 C-85.09240058896106 -42.26370418593982, -84.2758267778585 -42.45008182968188, -83.19040034850971 -42.69782332911134 C-82.25572611087041 -42.84893421134589, -81.32105187323113 -43.00004509358044, -80.43765653327604 -43.1428656013112 C-79.78416166620427 -43.20590746519505, -79.13066679913248 -43.2689493290789, -77.66205456916101 -43.41062458463963 C-77.0762648957722 -43.42940971929478, -76.49047522238338 -43.44819485394993, -74.87500000000001 -43.5 C-74.87500000000001 -43.5, -74.875 -43.5, -74.875 -43.5" stroke="none" stroke-width="0" fill="#ECECFF" style=""/><path d="M-74.875 -43.5 C-43.41690850356855 -43.5, -11.9588170071371 -43.5, 74.875 -43.5 M-74.875 -43.5 C-17.29697422464887 -43.5, 40.28105155070226 -43.5, 74.875 -43.5 M74.875 -43.5 C74.875 -43.5, 74.875 -43.5, 74.875 -43.5 M74.875 -43.5 C74.875 -43.5, 74.875 -43.5, 74.875 -43.5 M74.875 -43.5 C75.83919033872816 -43.46908029251963, 76.80338067745633 -43.438160585039256, 77.66205456916101 -43.41062458463963 M74.875 -43.5 C75.83726053607117 -43.46914217753471, 76.79952107214233 -43.43828435506941, 77.66205456916101 -43.41062458463963 M77.66205456916101 -43.41062458463963 C78.7599235499115 -43.30471448444726, 79.857792530662 -43.198804384254885, 80.43765653327601 -43.14286560131121 M77.66205456916101 -43.41062458463963 C78.25827436400262 -43.35310797809047, 78.85449415884422 -43.29559137154131, 80.43765653327601 -43.14286560131121 M80.43765653327601 -43.14286560131121 C81.14662748551649 -43.028244675904816, 81.85559843775698 -42.913623750498424, 83.19040034850968 -42.697823329111344 M80.43765653327601 -43.14286560131121 C81.11053955910057 -43.03407909198169, 81.78342258492515 -42.925292582652176, 83.19040034850968 -42.697823329111344 M83.19040034850968 -42.697823329111344 C84.21038846480569 -42.46501769761128, 85.23037658110168 -42.23221206611122, 85.90897440006356 -42.07732654219778 M83.19040034850968 -42.697823329111344 C83.73537624271896 -42.57343613755814, 84.28035213692824 -42.449048946004936, 85.90897440006356 -42.07732654219778 M85.90897440006356 -42.07732654219778 C86.57222719454664 -41.88047659428017, 87.23547998902971 -41.68362664636255, 88.58220748402749 -41.28392499496409 M85.90897440006356 -42.07732654219778 C86.79114137671144 -41.81550401411764, 87.67330835335933 -41.553681486037505, 88.58220748402749 -41.28392499496409 M88.58220748402749 -41.28392499496409 C89.38338687449816 -40.98908357324978, 90.18456626496884 -40.69424215153547, 91.19911471225277 -40.32087894455194 M88.58220748402749 -41.28392499496409 C89.38544315806114 -40.988326841890526, 90.1886788320948 -40.69272868881696, 91.19911471225277 -40.32087894455194 M91.19911471225277 -40.32087894455194 C92.05565675775574 -39.941713189424796, 92.91219880325872 -39.56254743429765, 93.74894265161377 -39.192145753755234 M91.19911471225277 -40.32087894455194 C91.74891339085244 -40.0774993787342, 92.29871206945211 -39.83411981291647, 93.74894265161377 -39.192145753755234 M93.74894265161377 -39.192145753755234 C94.55234535369318 -38.7730110786844, 95.35574805577261 -38.353876403613555, 96.22121351217129 -37.90236362936744 M93.74894265161377 -39.192145753755234 C94.29635083018658 -38.90656325762547, 94.84375900875939 -38.620980761495716, 96.22121351217129 -37.90236362936744 M96.22121351217129 -37.90236362936744 C97.03490395110673 -37.40909970350899, 97.84859439004217 -36.91583577765054, 98.60576820265887 -36.45683256279507 M96.22121351217129 -37.90236362936744 C97.05060344829839 -37.39958257605092, 97.8799933844255 -36.89680152273439, 98.60576820265887 -36.45683256279507 M98.60576820265887 -36.45683256279507 C99.42897464917885 -35.882599381735446, 100.25218109569884 -35.30836620067581, 100.8928080763679 -34.86149255125611 M98.60576820265887 -36.45683256279507 C99.47330967169805 -35.85167318925825, 100.34085114073723 -35.24651381572143, 100.8928080763679 -34.86149255125611 M100.8928080763679 -34.86149255125611 C101.74110477798055 -34.184998505843296, 102.58940147959322 -33.50850446043049, 103.07293519588879 -33.12289918905735 M100.8928080763679 -34.86149255125611 C101.42961942818324 -34.43339978333338, 101.96643077999859 -34.00530701541065, 103.07293519588879 -33.12289918905735 M103.07293519588879 -33.12289918905735 C103.67594848167072 -32.57525847776744, 104.27896176745266 -32.02761776647753, 105.13719095125165 -31.248196729251152 M103.07293519588879 -33.12289918905735 C103.63020867553355 -32.61679815949226, 104.18748215517832 -32.110697129927175, 105.13719095125165 -31.248196729251152 M105.13719095125165 -31.248196729251152 C105.57069911072911 -30.800563962908868, 106.00420727020656 -30.352931196566587, 107.07709287277622 -29.24508872636729 M105.13719095125165 -31.248196729251152 C105.60666051037643 -30.763430865287194, 106.0761300695012 -30.27866500132324, 107.07709287277622 -29.24508872636729 M107.07709287277622 -29.24508872636729 C107.67518763139462 -28.542532590338247, 108.27328239001302 -27.839976454309205, 108.8846694873593 -27.12180638085491 M107.07709287277622 -29.24508872636729 C107.79199071498189 -28.40532904207291, 108.50688855718755 -27.565569357778532, 108.8846694873593 -27.12180638085491 M108.8846694873593 -27.12180638085491 C109.2664343469688 -26.61027624847239, 109.64819920657827 -26.098746116089867, 110.55249307496757 -24.88707471531439 M108.8846694873593 -27.12180638085491 C109.27666864662365 -26.59656321929876, 109.66866780588799 -26.071320057742607, 110.55249307496757 -24.88707471531439 M110.55249307496757 -24.88707471531439 C111.1265437221793 -24.005178767014762, 111.70059436939106 -23.123282818715133, 112.07371019073256 -22.550076721507846 M110.55249307496757 -24.88707471531439 C110.98190950234473 -24.227375768406773, 111.4113259297219 -23.567676821499155, 112.07371019073256 -22.550076721507846 M112.07371019073256 -22.550076721507846 C112.49470691381728 -21.80255440913, 112.91570363690202 -21.055032096752154, 113.44206982722551 -20.120415625476333 M112.07371019073256 -22.550076721507846 C112.42361752914385 -21.928780810198464, 112.77352486755515 -21.307484898889083, 113.44206982722551 -20.120415625476333 M113.44206982722551 -20.120415625476333 C113.73918989645777 -19.503439444364478, 114.03630996569004 -18.886463263252622, 114.65194910118784 -17.60807542582414 M113.44206982722551 -20.120415625476333 C113.87812936532232 -19.214928664438858, 114.31418890341912 -18.309441703401383, 114.65194910118784 -17.60807542582414 M114.65194910118784 -17.60807542582414 C115.0365991805955 -16.657982292983856, 115.42124926000315 -15.707889160143575, 115.69837635916457 -15.023379867326902 M114.65194910118784 -17.60807542582414 C114.8980710729057 -17.000149397236438, 115.14419304462353 -16.39222336864874, 115.69837635916457 -15.023379867326902 M115.69837635916457 -15.023379867326902 C115.91721631802791 -14.364268778642899, 116.13605627689124 -13.705157689958897, 116.57705160709475 -12.376950018449923 M115.69837635916457 -15.023379867326902 C115.97992995534963 -14.175385295091042, 116.26148355153468 -13.327390722855181, 116.57705160709475 -12.376950018449923 M116.57705160709475 -12.376950018449923 C116.76274522804142 -11.668819761655831, 116.94843884898809 -10.96068950486174, 117.28436417990932 -9.67966062709968 M116.57705160709475 -12.376950018449923 C116.84694259130094 -11.347738724179191, 117.11683357550713 -10.318527429908459, 117.28436417990932 -9.67966062709968 M117.28436417990932 -9.67966062709968 C117.49402011256463 -8.60312172371177, 117.70367604521994 -7.526582820323858, 117.81740757852859 -6.942595433952013 M117.28436417990932 -9.67966062709968 C117.40714183768729 -9.04922330347697, 117.52991949546526 -8.41878597985426, 117.81740757852859 -6.942595433952013 M117.81740757852859 -6.942595433952013 C117.93487906710284 -6.031509765939256, 118.05235055567711 -5.120424097926498, 118.17399141329012 -4.177001626984165 M117.81740757852859 -6.942595433952013 C117.91322963388004 -6.199418494851275, 118.00905168923147 -5.4562415557505375, 118.17399141329012 -4.177001626984165 M118.17399141329012 -4.177001626984165 C118.21622073543156 -3.5192458477360016, 118.258450057573 -2.8614900684878384, 118.35265040472993 -1.3942436243669998 M118.17399141329012 -4.177001626984165 C118.23931273140207 -3.1595693709716612, 118.30463404951402 -2.1421371149591577, 118.35265040472993 -1.3942436243669998 M118.35265040472993 -1.3942436243669998 C118.35265040472993 -0.3077125878604159, 118.35265040472993 0.778818448646168, 118.35265040472993 1.3942436243669891 M118.35265040472993 -1.3942436243669998 C118.35265040472993 -0.8082976020023885, 118.35265040472993 -0.2223515796377773, 118.35265040472993 1.3942436243669891 M118.35265040472993 1.3942436243669891 C118.29103617729434 2.3539349507854315, 118.22942194985876 3.3136262772038734, 118.17399141329012 4.177001626984135 M118.35265040472993 1.3942436243669891 C118.30514154904405 2.134232400132614, 118.25763269335818 2.8742211758982386, 118.17399141329012 4.177001626984135 M118.17399141329012 4.177001626984135 C118.07415080278602 4.951345686295475, 117.9743101922819 5.7256897456068145, 117.81740757852859 6.942595433951983 M118.17399141329012 4.177001626984135 C118.08781011375747 4.845406767736951, 118.0016288142248 5.513811908489767, 117.81740757852859 6.942595433951983 M117.81740757852859 6.942595433951983 C117.70751991334728 7.506845369891701, 117.59763224816598 8.071095305831419, 117.28436417990932 9.679660627099672 M117.81740757852859 6.942595433951983 C117.68582203163942 7.618259406612681, 117.55423648475025 8.29392337927338, 117.28436417990932 9.679660627099672 M117.28436417990932 9.679660627099672 C117.10442025860623 10.36586478721722, 116.92447633730312 11.052068947334767, 116.57705160709475 12.376950018449895 M117.28436417990932 9.679660627099672 C117.0401434574799 10.610980087653726, 116.79592273505047 11.542299548207778, 116.57705160709475 12.376950018449895 M116.57705160709475 12.376950018449895 C116.35453480553772 13.047135171501953, 116.1320180039807 13.717320324554013, 115.69837635916457 15.023379867326874 M116.57705160709475 12.376950018449895 C116.31134359065992 13.177220229128338, 116.0456355742251 13.977490439806779, 115.69837635916457 15.023379867326874 M115.69837635916457 15.023379867326874 C115.3910369732698 15.782514092489762, 115.08369758737503 16.54164831765265, 114.65194910118785 17.60807542582413 M115.69837635916457 15.023379867326874 C115.32629199482167 15.942435441015641, 114.95420763047878 16.86149101470441, 114.65194910118785 17.60807542582413 M114.65194910118785 17.60807542582413 C114.35155136519343 18.23185775209842, 114.05115362919902 18.85564007837271, 113.44206982722551 20.120415625476323 M114.65194910118785 17.60807542582413 C114.18880518321058 18.569803681196273, 113.72566126523331 19.531531936568417, 113.44206982722551 20.120415625476323 M113.44206982722551 20.120415625476323 C113.12566966034616 20.682216160761683, 112.80926949346681 21.244016696047048, 112.07371019073256 22.550076721507835 M113.44206982722551 20.120415625476323 C112.98140335378618 20.93837559660657, 112.52073688034686 21.756335567736812, 112.07371019073256 22.550076721507835 M112.07371019073256 22.550076721507835 C111.70181573262012 23.121406476813327, 111.3299212745077 23.692736232118822, 110.5524930749676 24.887074715314366 M112.07371019073256 22.550076721507835 C111.72281410800765 23.089147333364767, 111.37191802528277 23.628217945221696, 110.5524930749676 24.887074715314366 M110.5524930749676 24.887074715314366 C110.207373019494 25.349504148565124, 109.86225296402041 25.811933581815886, 108.8846694873593 27.121806380854903 M110.5524930749676 24.887074715314366 C110.05663383779992 25.551480919413233, 109.56077460063224 26.215887123512104, 108.8846694873593 27.121806380854903 M108.8846694873593 27.121806380854903 C108.51919129486738 27.551117862054195, 108.15371310237546 27.980429343253487, 107.07709287277623 29.245088726367264 M108.8846694873593 27.121806380854903 C108.4362289296575 27.648570176922032, 107.9877883719557 28.17533397298916, 107.07709287277623 29.245088726367264 M107.07709287277623 29.245088726367264 C106.32766182993082 30.018937807538066, 105.5782307870854 30.792786888708868, 105.13719095125167 31.24819672925114 M107.07709287277623 29.245088726367264 C106.56206308314385 29.77689926889482, 106.04703329351146 30.308709811422375, 105.13719095125167 31.24819672925114 M105.13719095125167 31.24819672925114 C104.33452180771461 31.97715960794974, 103.53185266417753 32.70612248664834, 103.07293519588882 33.12289918905732 M105.13719095125167 31.24819672925114 C104.45111650476674 31.871271389013618, 103.76504205828184 32.494346048776094, 103.07293519588882 33.12289918905732 M103.07293519588882 33.12289918905732 C102.61145133838697 33.490920284813846, 102.14996748088512 33.85894138057038, 100.89280807636791 34.861492551256106 M103.07293519588882 33.12289918905732 C102.46944600440429 33.6041657597444, 101.86595681291976 34.085432330431466, 100.89280807636791 34.861492551256106 M100.89280807636791 34.861492551256106 C100.14627919620746 35.38223878134167, 99.39975031604699 35.90298501142723, 98.60576820265888 36.45683256279506 M100.89280807636791 34.861492551256106 C100.25969952956673 35.303121666677335, 99.62659098276556 35.74475078209856, 98.60576820265888 36.45683256279506 M98.60576820265888 36.45683256279506 C97.80125570532292 36.94453276652034, 96.99674320798694 37.43223297024562, 96.22121351217129 37.90236362936744 M98.60576820265888 36.45683256279506 C97.71189688378863 36.998702609265145, 96.81802556491837 37.54057265573524, 96.22121351217129 37.90236362936744 M96.22121351217129 37.90236362936744 C95.36985538370439 38.34651661966772, 94.5184972552375 38.790669609967985, 93.74894265161379 39.19214575375523 M96.22121351217129 37.90236362936744 C95.29376747574949 38.386211632511156, 94.36632143932768 38.870059635654876, 93.74894265161379 39.19214575375523 M93.74894265161379 39.19214575375523 C92.91520784880723 39.56121541909349, 92.08147304600067 39.93028508443176, 91.1991147122528 40.32087894455194 M93.74894265161379 39.19214575375523 C93.11756265528707 39.47163894890692, 92.48618265896037 39.751132144058616, 91.1991147122528 40.32087894455194 M91.1991147122528 40.32087894455194 C90.1729110785318 40.69853136788367, 89.1467074448108 41.07618379121539, 88.58220748402752 41.283924994964075 M91.1991147122528 40.32087894455194 C90.34478471515038 40.63528028082555, 89.49045471804797 40.94968161709915, 88.58220748402752 41.283924994964075 M88.58220748402752 41.283924994964075 C88.0446947282461 41.443455959417975, 87.50718197246468 41.602986923871875, 85.90897440006361 42.077326542197774 M88.58220748402752 41.283924994964075 C87.56962378269344 41.58445452235972, 86.55704008135936 41.88498404975537, 85.90897440006361 42.077326542197774 M85.90897440006361 42.077326542197774 C85.30617274877974 42.21491208545493, 84.70337109749588 42.35249762871207, 83.19040034850971 42.697823329111344 M85.90897440006361 42.077326542197774 C85.3632976810428 42.201873692440905, 84.81762096202198 42.32642084268403, 83.19040034850971 42.697823329111344 M83.19040034850971 42.697823329111344 C82.52245231796705 42.80581198667514, 81.85450428742439 42.91380064423893, 80.43765653327604 43.1428656013112 M83.19040034850971 42.697823329111344 C82.17301785700043 42.8623058404195, 81.15563536549116 43.02678835172766, 80.43765653327604 43.1428656013112 M80.43765653327604 43.1428656013112 C79.76310701596792 43.20793858198143, 79.08855749865981 43.273011562651654, 77.66205456916101 43.41062458463963 M80.43765653327604 43.1428656013112 C79.69165761716884 43.2148312195531, 78.94565870106165 43.286796837795, 77.66205456916101 43.41062458463963 M77.66205456916101 43.41062458463963 C76.6574193672554 43.44284128016095, 75.65278416534977 43.47505797568227, 74.87500000000001 43.5 M77.66205456916101 43.41062458463963 C76.83294718764743 43.43721244460515, 76.00383980613385 43.463800304570675, 74.87500000000001 43.5 M74.87500000000001 43.5 C74.87500000000001 43.5, 74.87500000000001 43.5, 74.875 43.5 M74.87500000000001 43.5 C74.87500000000001 43.5, 74.87500000000001 43.5, 74.875 43.5 M74.875 43.5 C22.711036210359033 43.5, -29.452927579281933 43.5, -74.87499999999999 43.5 M74.875 43.5 C37.559415392445565 43.5, 0.24383078489113075 43.5, -74.87499999999999 43.5 M-74.87499999999999 43.5 C-75.65115212779321 43.47511031195014, -76.42730425558645 43.45022062390028, -77.66205456916099 43.41062458463963 M-74.87499999999999 43.5 C-75.43533411797034 43.48203117546089, -75.9956682359407 43.46406235092177, -77.66205456916099 43.41062458463963 M-77.66205456916099 43.41062458463963 C-78.28148175367096 43.35086918912013, -78.90090893818093 43.29111379360064, -80.43765653327603 43.1428656013112 M-77.66205456916099 43.41062458463963 C-78.3300840037729 43.346180588505554, -78.99811343838482 43.28173659237149, -80.43765653327603 43.1428656013112 M-80.43765653327603 43.1428656013112 C-81.48490768277281 42.97355415701452, -82.53215883226962 42.804242712717844, -83.1904003485097 42.697823329111344 M-80.43765653327603 43.1428656013112 C-81.01923113357518 43.048841130113225, -81.60080573387431 42.95481665891524, -83.1904003485097 42.697823329111344 M-83.1904003485097 42.697823329111344 C-83.8995908672492 42.53595522110969, -84.6087813859887 42.374087113108025, -85.90897440006356 42.07732654219778 M-83.1904003485097 42.697823329111344 C-83.847377993481 42.547872468826434, -84.50435563845231 42.39792160854152, -85.90897440006356 42.07732654219778 M-85.90897440006356 42.07732654219778 C-86.5637922833497 41.88298003164766, -87.21861016663586 41.68863352109755, -88.58220748402748 41.283924994964096 M-85.90897440006356 42.07732654219778 C-86.73505162946604 41.83215115667899, -87.56112885886851 41.5869757711602, -88.58220748402748 41.283924994964096 M-88.58220748402748 41.283924994964096 C-89.38237400424802 40.989456318864704, -90.18254052446856 40.69498764276531, -91.19911471225278 40.32087894455194 M-88.58220748402748 41.283924994964096 C-89.21342493718797 41.05163113729086, -89.84464239034844 40.819337279617635, -91.19911471225278 40.32087894455194 M-91.19911471225278 40.32087894455194 C-91.83628299330827 40.038823447454185, -92.47345127436375 39.756767950356426, -93.74894265161377 39.192145753755234 M-91.19911471225278 40.32087894455194 C-91.80406648552977 40.05308473977898, -92.40901825880677 39.78529053500601, -93.74894265161377 39.192145753755234 M-93.74894265161377 39.192145753755234 C-94.25051866577793 38.93047386844056, -94.7520946799421 38.66880198312589, -96.22121351217127 37.90236362936745 M-93.74894265161377 39.192145753755234 C-94.3487595157152 38.879221679954554, -94.94857637981663 38.56629760615388, -96.22121351217127 37.90236362936745 M-96.22121351217127 37.90236362936745 C-97.12918338425352 37.351946957087954, -98.03715325633577 36.80153028480846, -98.60576820265884 36.456832562795086 M-96.22121351217127 37.90236362936745 C-97.01667207558178 37.420151973594606, -97.8121306389923 36.937940317821756, -98.60576820265884 36.456832562795086 M-98.60576820265884 36.456832562795086 C-99.22648318485388 36.02384866153433, -99.84719816704893 35.59086476027357, -100.89280807636788 34.86149255125612 M-98.60576820265884 36.456832562795086 C-99.3916649660719 35.9086250015607, -100.17756172948496 35.360417440326316, -100.89280807636788 34.86149255125612 M-100.89280807636788 34.86149255125612 C-101.61716553411294 34.28383675466593, -102.341522991858 33.706180958075734, -103.07293519588879 33.12289918905736 M-100.89280807636788 34.86149255125612 C-101.47844042754625 34.39446633552275, -102.0640727787246 33.927440119789374, -103.07293519588879 33.12289918905736 M-103.07293519588879 33.12289918905736 C-103.79155284809833 32.47026965090181, -104.51017050030788 31.81764011274627, -105.13719095125164 31.24819672925117 M-103.07293519588879 33.12289918905736 C-103.79637347102454 32.465891688706925, -104.51981174616029 31.8088841883565, -105.13719095125164 31.24819672925117 M-105.13719095125164 31.24819672925117 C-105.68780780892708 30.679639617216537, -106.23842466660253 30.111082505181905, -107.07709287277623 29.245088726367282 M-105.13719095125164 31.24819672925117 C-105.86145408534335 30.500335580192314, -106.58571721943505 29.752474431133457, -107.07709287277623 29.245088726367282 M-107.07709287277623 29.245088726367282 C-107.74788608136186 28.457136854347752, -108.41867928994748 27.669184982328222, -108.88466948735929 27.121806380854917 M-107.07709287277623 29.245088726367282 C-107.61484094580916 28.613419241050615, -108.15258901884211 27.981749755733947, -108.88466948735929 27.121806380854917 M-108.88466948735929 27.121806380854917 C-109.41525967418644 26.410863868266958, -109.9458498610136 25.699921355678995, -110.55249307496757 24.887074715314395 M-108.88466948735929 27.121806380854917 C-109.54896712905524 26.231708059742495, -110.21326477075118 25.341609738630073, -110.55249307496757 24.887074715314395 M-110.55249307496757 24.887074715314395 C-111.08896743569562 24.06290603369945, -111.62544179642369 23.238737352084502, -112.07371019073254 22.550076721507864 M-110.55249307496757 24.887074715314395 C-110.91118180331574 24.33603250716178, -111.26987053166391 23.784990299009163, -112.07371019073254 22.550076721507864 M-112.07371019073254 22.550076721507864 C-112.48777326786586 21.814865799624545, -112.90183634499917 21.079654877741227, -113.44206982722551 20.120415625476337 M-112.07371019073254 22.550076721507864 C-112.59850434044073 21.618251567530894, -113.12329849014891 20.686426413553928, -113.44206982722551 20.120415625476337 M-113.44206982722551 20.120415625476337 C-113.7672375842405 19.44519782055926, -114.0924053412555 18.76998001564219, -114.65194910118784 17.608075425824147 M-113.44206982722551 20.120415625476337 C-113.71775463855268 19.54795021604547, -113.99343944987984 18.975484806614606, -114.65194910118784 17.608075425824147 M-114.65194910118784 17.608075425824147 C-115.05935337690846 16.60177898816838, -115.46675765262908 15.595482550512614, -115.69837635916457 15.023379867326907 M-114.65194910118784 17.608075425824147 C-115.04727125763922 16.63162205635528, -115.44259341409061 15.655168686886412, -115.69837635916457 15.023379867326907 M-115.69837635916457 15.023379867326907 C-115.87687557193533 14.485768678448705, -116.05537478470609 13.948157489570505, -116.57705160709475 12.37695001844991 M-115.69837635916457 15.023379867326907 C-116.02113239109723 14.05129012333589, -116.3438884230299 13.079200379344874, -116.57705160709475 12.37695001844991 M-116.57705160709475 12.37695001844991 C-116.80917476826994 11.49176380207444, -117.04129792944514 10.606577585698968, -117.28436417990932 9.679660627099686 M-116.57705160709475 12.37695001844991 C-116.80100831227634 11.522906038142468, -117.02496501745793 10.668862057835023, -117.28436417990932 9.679660627099686 M-117.28436417990932 9.679660627099686 C-117.40208519179834 9.075188111394294, -117.51980620368735 8.4707155956889, -117.81740757852859 6.942595433952017 M-117.28436417990932 9.679660627099686 C-117.46006323233968 8.77748312687769, -117.63576228477004 7.875305626655694, -117.81740757852859 6.942595433952017 M-117.81740757852859 6.942595433952017 C-117.92491535557899 6.1087863449608495, -118.0324231326294 5.274977255969682, -118.17399141329011 4.17700162698419 M-117.81740757852859 6.942595433952017 C-117.9312309218752 6.05980405991707, -118.04505426522182 5.177012685882124, -118.17399141329011 4.17700162698419 M-118.17399141329011 4.17700162698419 C-118.23791635934336 3.1813189929171903, -118.30184130539661 2.185636358850191, -118.35265040472993 1.394243624367005 M-118.17399141329011 4.17700162698419 C-118.23563905840334 3.216789793262387, -118.29728670351655 2.256577959540584, -118.35265040472993 1.394243624367005 M-118.35265040472993 1.394243624367005 C-118.35265040472993 0.6254650190597392, -118.35265040472993 -0.14331358624752677, -118.35265040472993 -1.394243624366984 M-118.35265040472993 1.394243624367005 C-118.35265040472993 0.7328422212612824, -118.35265040472993 0.0714408181555597, -118.35265040472993 -1.394243624366984 M-118.35265040472993 -1.394243624366984 C-118.28324438950476 -2.475298335026023, -118.2138383742796 -3.5563530456850616, -118.17399141329012 -4.177001626984129 M-118.35265040472993 -1.394243624366984 C-118.2857305938575 -2.4365736954042916, -118.21881078298505 -3.478903766441599, -118.17399141329012 -4.177001626984129 M-118.17399141329012 -4.177001626984129 C-118.09074712418524 -4.822627894837428, -118.00750283508036 -5.4682541626907275, -117.81740757852859 -6.942595433951997 M-118.17399141329012 -4.177001626984129 C-118.09515305687054 -4.788456350980038, -118.01631470045096 -5.399911074975947, -117.81740757852859 -6.942595433951997 M-117.81740757852859 -6.942595433951997 C-117.6097104165155 -8.009076464078476, -117.40201325450239 -9.075557494204954, -117.28436417990932 -9.679660627099667 M-117.81740757852859 -6.942595433951997 C-117.66719455820177 -7.713907545797051, -117.51698153787497 -8.485219657642105, -117.28436417990932 -9.679660627099667 M-117.28436417990932 -9.679660627099667 C-117.11612284539278 -10.321237751866867, -116.94788151087624 -10.96281487663407, -116.57705160709475 -12.37695001844989 M-117.28436417990932 -9.679660627099667 C-117.05170281388243 -10.566899251834112, -116.81904144785554 -11.454137876568558, -116.57705160709475 -12.37695001844989 M-116.57705160709475 -12.37695001844989 C-116.3534053625522 -13.050536873822088, -116.12975911800963 -13.724123729194286, -115.6983763591646 -15.023379867326852 M-116.57705160709475 -12.37695001844989 C-116.37662929470933 -12.980590090395852, -116.17620698232393 -13.584230162341814, -115.6983763591646 -15.023379867326852 M-115.6983763591646 -15.023379867326852 C-115.41644459622108 -15.719756772577162, -115.13451283327757 -16.41613367782747, -114.65194910118785 -17.608075425824126 M-115.6983763591646 -15.023379867326852 C-115.39927776741843 -15.762159171617775, -115.10017917567225 -16.500938475908697, -114.65194910118785 -17.608075425824126 M-114.65194910118785 -17.608075425824126 C-114.21325659312663 -18.519029805329236, -113.7745640850654 -19.42998418483435, -113.44206982722551 -20.12041562547632 M-114.65194910118785 -17.608075425824126 C-114.34742682347672 -18.24042245122423, -114.0429045457656 -18.872769476624335, -113.44206982722551 -20.12041562547632 M-113.44206982722551 -20.12041562547632 C-112.91752751279004 -21.051793620425492, -112.39298519835458 -21.983171615374665, -112.07371019073256 -22.55007672150785 M-113.44206982722551 -20.12041562547632 C-113.13094532985264 -20.67284867533348, -112.81982083247976 -21.22528172519064, -112.07371019073256 -22.55007672150785 M-112.07371019073256 -22.55007672150785 C-111.50221195072966 -23.428051486917393, -110.93071371072675 -24.306026252326937, -110.55249307496757 -24.88707471531438 M-112.07371019073256 -22.55007672150785 C-111.58864967455668 -23.29525993134029, -111.10358915838079 -24.04044314117273, -110.55249307496757 -24.88707471531438 M-110.55249307496757 -24.88707471531438 C-109.90387226931331 -25.75616750432009, -109.25525146365905 -26.625260293325795, -108.8846694873593 -27.121806380854903 M-110.55249307496757 -24.88707471531438 C-110.06415542409093 -25.54140267901389, -109.57581777321427 -26.195730642713393, -108.8846694873593 -27.121806380854903 M-108.8846694873593 -27.121806380854903 C-108.4143949678646 -27.674217590831596, -107.9441204483699 -28.22662880080829, -107.07709287277623 -29.245088726367264 M-108.8846694873593 -27.121806380854903 C-108.3048936214695 -27.8028441031104, -107.7251177555797 -28.4838818253659, -107.07709287277623 -29.245088726367264 M-107.07709287277623 -29.245088726367264 C-106.42097134562975 -29.922588071725208, -105.76484981848327 -30.600087417083152, -105.13719095125168 -31.248196729251127 M-107.07709287277623 -29.245088726367264 C-106.6007243802542 -29.736978305476853, -106.12435588773218 -30.228867884586446, -105.13719095125168 -31.248196729251127 M-105.13719095125168 -31.248196729251127 C-104.55362533735833 -31.778175579489037, -103.97005972346497 -32.30815442972695, -103.07293519588883 -33.12289918905732 M-105.13719095125168 -31.248196729251127 C-104.6534982553637 -31.68747363784916, -104.16980555947572 -32.12675054644719, -103.07293519588883 -33.12289918905732 M-103.07293519588883 -33.12289918905732 C-102.49279014034376 -33.58554943254622, -101.91264508479868 -34.04819967603513, -100.89280807636791 -34.861492551256106 M-103.07293519588883 -33.12289918905732 C-102.51963080082267 -33.56414472007427, -101.9663264057565 -34.00539025109121, -100.89280807636791 -34.861492551256106 M-100.89280807636791 -34.861492551256106 C-100.09400896098677 -35.41870023468961, -99.29520984560561 -35.97590791812311, -98.6057682026589 -36.45683256279505 M-100.89280807636791 -34.861492551256106 C-100.23778312713101 -35.31840960027073, -99.58275817789409 -35.775326649285354, -98.6057682026589 -36.45683256279505 M-98.6057682026589 -36.45683256279505 C-97.77242956127186 -36.96200734444531, -96.93909091988482 -37.46718212609558, -96.2212135121713 -37.902363629367436 M-98.6057682026589 -36.45683256279505 C-97.92765543501648 -36.867908507572835, -97.24954266737407 -37.27898445235063, -96.2212135121713 -37.902363629367436 M-96.2212135121713 -37.902363629367436 C-95.35447020465354 -38.354543057723866, -94.48772689713579 -38.8067224860803, -93.74894265161379 -39.19214575375523 M-96.2212135121713 -37.902363629367436 C-95.32282913808409 -38.37105018188608, -94.42444476399686 -38.83973673440473, -93.74894265161379 -39.19214575375523 M-93.74894265161379 -39.19214575375523 C-92.85080915995798 -39.58972280832782, -91.95267566830216 -39.987299862900414, -91.1991147122528 -40.320878944551936 M-93.74894265161379 -39.19214575375523 C-92.97739564213916 -39.533686727720784, -92.20584863266454 -39.87522770168635, -91.1991147122528 -40.320878944551936 M-91.1991147122528 -40.320878944551936 C-90.18083049792139 -40.695616948341986, -89.16254628358999 -41.070354952132035, -88.58220748402753 -41.283924994964075 M-91.1991147122528 -40.320878944551936 C-90.31650480300246 -40.64568754991262, -89.43389489375213 -40.97049615527331, -88.58220748402753 -41.283924994964075 M-88.58220748402753 -41.283924994964075 C-87.62656885739278 -41.567553523099754, -86.67093023075802 -41.85118205123544, -85.90897440006361 -42.07732654219777 M-88.58220748402753 -41.283924994964075 C-87.85126825974345 -41.50086391995331, -87.12032903545935 -41.71780284494255, -85.90897440006361 -42.07732654219777 M-85.90897440006361 -42.07732654219777 C-85.31823555020243 -42.212158829747324, -84.72749670034125 -42.34699111729688, -83.19040034850971 -42.69782332911134 M-85.90897440006361 -42.07732654219777 C-84.8276028373787 -42.324142544771675, -83.74623127469381 -42.57095854734558, -83.19040034850971 -42.69782332911134 M-83.19040034850971 -42.69782332911134 C-82.1054135224818 -42.87323558494503, -81.0204266964539 -43.04864784077872, -80.43765653327604 -43.1428656013112 M-83.19040034850971 -42.69782332911134 C-82.58573329860822 -42.795581208476406, -81.98106624870674 -42.89333908784147, -80.43765653327604 -43.1428656013112 M-80.43765653327604 -43.1428656013112 C-79.5843216450052 -43.225185791697335, -78.73098675673435 -43.30750598208347, -77.66205456916101 -43.41062458463963 M-80.43765653327604 -43.1428656013112 C-79.56054943707507 -43.22747906800609, -78.68344234087408 -43.31209253470099, -77.66205456916101 -43.41062458463963 M-77.66205456916101 -43.41062458463963 C-76.58669470424469 -43.445109282446495, -75.51133483932837 -43.47959398025336, -74.87500000000001 -43.5 M-77.66205456916101 -43.41062458463963 C-76.7087308419104 -43.44119582104049, -75.75540711465977 -43.47176705744135, -74.87500000000001 -43.5 M-74.87500000000001 -43.5 C-74.87500000000001 -43.5, -74.875 -43.5, -74.875 -43.5 M-74.87500000000001 -43.5 C-74.87500000000001 -43.5, -74.875 -43.5, -74.875 -43.5" stroke="#9370DB" stroke-width="1.3" fill="none" stroke-dasharray="0 0" style=""/></g><g class="label" style="" transform="translate(-100, -36)"><rect/><foreignObject width="200" height="72"><div xmlns="http://www.w3.org/1999/xhtml" style="display: table; white-space: break-spaces; line-height: 1.5; max-width: 200px; text-align: center; width: 200px;"><span class="nodeLabel"><p>Section 142: Being a member of an unlawful assembly (eff: 1872-01-01)</p></span></div></foreignObject></g></g></g></g></g><defs><filter id="my-svg-drop-shadow" height="130%" width="130%"><feDropShadow dx="4" dy="4" stdDeviation="0" flood-opacity="0.06" flood-color="#000000"/></filter></defs><defs><filter id="my-svg-drop-shadow-small" height="150%" width="150%"><feDropShadow dx="2" dy="2" stdDeviation="0" flood-opacity="0.06" flood-color="#000000"/></filter></defs></svg>