<svg class="yuho-mermaid-svg" id="my-svg" width="100%" xmlns="http://www.w3.org/2000/svg" xmlns:xlink="http://www.w3.org/1999/xlink" class="flowchart" style="max-width: 246.718px; background-color: transparent;" viewBox="0 0 246.71763610839844 168" role="graphics-document document" aria-roledescription="flowchart-v2"><style>#my-svg{font-family:"trebuchet ms",verdana,arial,sans-serif;font-size:16px;fill:#333;}@keyframes edge-animation-frame{from{stroke-dashoffset:0;}}@keyframes dash{to{stroke-dashoffset:0;}}#my-svg .edge-animation-slow{stroke-dasharray:9,5!important;stroke-dashoffset:900;animation:dash 50s linear infinite;stroke-linecap:round;}#my-svg .edge-animation-fast{stroke-dasharray:9,5!important;stroke-dashoffset:900;animation:dash 20s linear infinite;stroke-linecap:round;}#my-svg .error-icon{fill:#552222;}#my-svg .error-text{fill:#552222;stroke:#552222;}#my-svg .edge-thickness-normal{stroke-width:1px;}#my-svg .edge-thickness-thick{stroke-width:3.5px;}#my-svg .edge-pattern-solid{stroke-dasharray:0;}#my-svg .edge-thickness-invisible{stroke-width:0;fill:none;}#my-svg .edge-pattern-dashed{stroke-dasharray:3;}#my-svg .edge-pattern-dotted{stroke-dasharray:2;}#my-svg .marker{fill:#333333;stroke:#333333;}#my-svg .marker.cross{stroke:#333333;}#my-svg svg{font-family:"trebuchet ms",verdana,arial,sans-serif;font-size:16px;}#my-svg p{margin:0;}#my-svg .label{font-family:"trebuchet ms",verdana,arial,sans-serif;color:#333;}#my-svg .cluster-label text{fill:#333;}#my-svg .cluster-label span{color:#333;}#my-svg .cluster-label span p{background-color:transparent;}#my-svg .label text,#my-svg span{fill:#333;color:#333;}#my-svg .node rect,#my-svg .node circle,#my-svg .node ellipse,#my-svg .node polygon,#my-svg .node path{fill:#ECECFF;stroke:#9370DB;stroke-width:1px;}#my-svg .rough-node .label text,#my-svg .node .label text,#my-svg .image-shape .label,#my-svg .icon-shape .label{text-anchor:middle;}#my-svg .node .katex path{fill:#000;stroke:#000;stroke-width:1px;}#my-svg .rough-node .label,#my-svg .node .label,#my-svg .image-shape .label,#my-svg .icon-shape .label{text-align:center;}#my-svg .node.clickable{cursor:pointer;}#my-svg .root .anchor path{fill:#333333!important;stroke-width:0;stroke:#333333;}#my-svg .arrowheadPath{fill:#333333;}#my-svg .edgePath .path{stroke:#333333;stroke-width:1px;}#my-svg .flowchart-link{stroke:#333333;fill:none;}#my-svg .edgeLabel{background-color:rgba(232,232,232, 0.8);text-align:center;}#my-svg .edgeLabel p{background-color:rgba(232,232,232, 0.8);}#my-svg .edgeLabel rect{opacity:0.5;background-color:rgba(232,232,232, 0.8);fill:rgba(232,232,232, 0.8);}#my-svg .labelBkg{background-color:rgba(232, 232, 232, 0.5);}#my-svg .cluster rect{fill:#ffffde;stroke:#aaaa33;stroke-width:1px;}#my-svg .cluster text{fill:#333;}#my-svg .cluster span{color:#333;}#my-svg div.mermaidTooltip{position:absolute;text-align:center;max-width:200px;padding:2px;font-family:"trebuchet ms",verdana,arial,sans-serif;font-size:12px;background:hsl(80, 100%, 96.2745098039%);border:1px solid #aaaa33;border-radius:2px;pointer-events:none;z-index:100;}#my-svg .flowchartTitleText{text-anchor:middle;font-size:18px;fill:#333;}#my-svg rect.text{fill:none;stroke-width:0;}#my-svg .icon-shape,#my-svg .image-shape{background-color:rgba(232,232,232, 0.8);text-align:center;}#my-svg .icon-shape p,#my-svg .image-shape p{background-color:rgba(232,232,232, 0.8);padding:2px;}#my-svg .icon-shape .label rect,#my-svg .image-shape .label rect{opacity:0.5;background-color:rgba(232,232,232, 0.8);fill:rgba(232,232,232, 0.8);}#my-svg .label-icon{display:inline-block;height:1em;overflow:visible;vertical-align:-0.125em;}#my-svg .node .label-icon path{fill:currentColor;stroke:revert;stroke-width:revert;}#my-svg .node .neo-node{stroke:#9370DB;}#my-svg [data-look="neo"].node rect,#my-svg [data-look="neo"].cluster rect,#my-svg [data-look="neo"].node polygon{stroke:#9370DB;filter:drop-shadow(1px 2px 2px rgba(185, 185, 185, 1));}#my-svg [data-look="neo"].node path{stroke:#9370DB;stroke-width:1px;}#my-svg [data-look="neo"].node .outer-path{filter:drop-shadow(1px 2px 2px rgba(185, 185, 185, 1));}#my-svg [data-look="neo"].node .neo-line path{stroke:#9370DB;filter:none;}#my-svg [data-look="neo"].node circle{stroke:#9370DB;filter:drop-shadow(1px 2px 2px rgba(185, 185, 185, 1));}#my-svg [data-look="neo"].node circle .state-start{fill:#000000;}#my-svg [data-look="neo"].icon-shape .icon{fill:#9370DB;filter:drop-shadow(1px 2px 2px rgba(185, 185, 185, 1));}#my-svg [data-look="neo"].icon-shape .icon-neo path{stroke:#9370DB;filter:drop-shadow(1px 2px 2px rgba(185, 185, 185, 1));}#my-svg :root{--mermaid-font-family:"trebuchet ms",verdana,arial,sans-serif;}</style><g><marker id="my-svg_flowchart-v2-pointEnd" class="marker flowchart-v2" viewBox="0 0 10 10" refX="5" refY="5" markerUnits="userSpaceOnUse" markerWidth="8" markerHeight="8" orient="auto"><path d="M 0 0 L 10 5 L 0 10 z" class="arrowMarkerPath" style="stroke-width: 1; stroke-dasharray: 1, 0;"/></marker><marker id="my-svg_flowchart-v2-pointStart" class="marker flowchart-v2" viewBox="0 0 10 10" refX="4.5" refY="5" markerUnits="userSpaceOnUse" markerWidth="8" markerHeight="8" orient="auto"><path d="M 0 5 L 10 10 L 10 0 z" class="arrowMarkerPath" style="stroke-width: 1; stroke-dasharray: 1, 0;"/></marker><marker id="my-svg_flowchart-v2-pointEnd-margin" class="marker flowchart-v2" viewBox="0 0 11.5 14" refX="11.5" refY="7" markerUnits="userSpaceOnUse" markerWidth="10.5" markerHeight="14" orient="auto"><path d="M 0 0 L 11.5 7 L 0 14 z" class="arrowMarkerPath" style="stroke-width: 0; stroke-dasharray: 1, 0;"/></marker><marker id="my-svg_flowchart-v2-pointStart-margin" class="marker flowchart-v2" viewBox="0 0 11.5 14" refX="1" refY="7" markerUnits="userSpaceOnUse" markerWidth="11.5" markerHeight="14" orient="auto"><polygon points="0,7 11.5,14 11.5,0" class="arrowMarkerPath" style="stroke-width: 0; stroke-dasharray: 1, 0;"/></marker><marker id="my-svg_flowchart-v2-circleEnd" class="marker flowchart-v2" viewBox="0 0 10 10" refX="11" refY="5" markerUnits="userSpaceOnUse" markerWidth="11" markerHeight="11" orient="auto"><circle cx="5" cy="5" r="5" class="arrowMarkerPath" style="stroke-width: 1; stroke-dasharray: 1, 0;"/></marker><marker id="my-svg_flowchart-v2-circleStart" class="marker flowchart-v2" viewBox="0 0 10 10" refX="-1" refY="5" markerUnits="userSpaceOnUse" markerWidth="11" markerHeight="11" orient="auto"><circle cx="5" cy="5" r="5" class="arrowMarkerPath" style="stroke-width: 1; stroke-dasharray: 1, 0;"/></marker><marker id="my-svg_flowchart-v2-circleEnd-margin" class="marker flowchart-v2" viewBox="0 0 10 10" refY="5" refX="12.25" markerUnits="userSpaceOnUse" markerWidth="14" markerHeight="14" orient="auto"><circle cx="5" cy="5" r="5" class="arrowMarkerPath" style="stroke-width: 0; stroke-dasharray: 1, 0;"/></marker><marker id="my-svg_flowchart-v2-circleStart-margin" class="marker flowchart-v2" viewBox="0 0 10 10" refX="-2" refY="5" markerUnits="userSpaceOnUse" markerWidth="14" markerHeight="14" orient="auto"><circle cx="5" cy="5" r="5" class="arrowMarkerPath" style="stroke-width: 0; stroke-dasharray: 1, 0;"/></marker><marker id="my-svg_flowchart-v2-crossEnd" class="marker cross flowchart-v2" viewBox="0 0 11 11" refX="12" refY="5.2" markerUnits="userSpaceOnUse" markerWidth="11" markerHeight="11" orient="auto"><path d="M 1,1 l 9,9 M 10,1 l -9,9" class="arrowMarkerPath" style="stroke-width: 2; stroke-dasharray: 1, 0;"/></marker><marker id="my-svg_flowchart-v2-crossStart" class="marker cross flowchart-v2" viewBox="0 0 11 11" refX="-1" refY="5.2" markerUnits="userSpaceOnUse" markerWidth="11" markerHeight="11" orient="auto"><path d="M 1,1 l 9,9 M 10,1 l -9,9" class="arrowMarkerPath" style="stroke-width: 2; stroke-dasharray: 1, 0;"/></marker><marker id="my-svg_flowchart-v2-crossEnd-margin" class="marker cross flowchart-v2" viewBox="0 0 15 15" refX="17.7" refY="7.5" markerUnits="userSpaceOnUse" markerWidth="12" markerHeight="12" orient="auto"><path d="M 1,1 L 14,14 M 1,14 L 14,1" class="arrowMarkerPath" style="stroke-width: 2.5;"/></marker><marker id="my-svg_flowchart-v2-crossStart-margin" class="marker cross flowchart-v2" viewBox="0 0 15 15" refX="-3.5" refY="7.5" markerUnits="userSpaceOnUse" markerWidth="12" markerHeight="12" orient="auto"><path d="M 1,1 L 14,14 M 1,14 L 14,1" class="arrowMarkerPath" style="stroke-width: 2.5; stroke-dasharray: 1, 0;"/></marker><g class="root"><g class="clusters"/><g class="edgePaths"><path d="M123.859,71.5L123.775,75.583C123.692,79.667,123.525,87.833,123.512,95.5C123.499,103.167,123.64,110.334,123.71,113.917L123.78,117.501" id="my-svg-L_START1_PENALTY2_0" class="edge-thickness-normal edge-pattern-solid edge-thickness-normal edge-pattern-solid flowchart-link" style=";" data-edge="true" data-et="edge" data-id="L_START1_PENALTY2_0" data-points="W3sieCI6MTIzLjg1ODgxODA1NDE5OTIyLCJ5Ijo3MS41fSx7IngiOjEyMy4zNTg4MTgwNTQxOTkyMiwieSI6OTZ9LHsieCI6MTIzLjg1ODgxODA1NDE5OTIyLCJ5IjoxMjEuNX1d" data-look="classic" marker-end="url(#my-svg_flowchart-v2-pointEnd)"/></g><g class="edgeLabels"><g class="edgeLabel"><g class="label" data-id="L_START1_PENALTY2_0" transform="translate(0, 0)"><foreignObject width="0" height="0"><div xmlns="http://www.w3.org/1999/xhtml" class="labelBkg" style="display: table-cell; white-space: nowrap; line-height: 1.5; max-width: 200px; text-align: center;"><span class="edgeLabel"></span></div></foreignObject></g></g></g><g class="nodes"><g class="node default" id="my-svg-flowchart-START1-0" data-look="classic" transform="translate(123.35881805419922, 39.5)"><g class="basic label-container outer-path"><path d="M-83.875 -31.5 C-23.758127673044385 -31.5, 36.35874465391123 -31.5, 83.875 -31.5 C83.875 -31.5, 83.875 -31.5, 83.875 -31.5 C84.30645991362991 -31.486163920355665, 84.7379198272598 -31.472327840711326, 85.89321192939245 -31.435279871635593 C86.50615528656898 -31.37614996314101, 87.11909864374553 -31.31702005464643, 87.90313059306193 -31.241385435432253 C88.67107764199383 -31.117229712079254, 89.43902469092572 -30.993073988726255, 89.89649680409322 -30.91911344521856 C90.32768930620459 -30.82069657040568, 90.75888180831596 -30.722279695592796, 91.86511939314947 -30.469788185729428 C92.51808220778858 -30.275992249816294, 93.1710450224277 -30.08219631390316, 93.80090886774406 -29.895256030836062 C94.42951187006636 -29.663924315238997, 95.05811487238867 -29.432592599641932, 95.69591065370028 -29.197877856399685 C96.21012080406308 -28.970252276336225, 96.72433095442588 -28.74262669627277, 97.54233778220308 -28.380519338926202 C98.16667623345404 -28.05480236881644, 98.791014684705 -27.729085398706673, 99.33260288812403 -27.44653917988677 C99.80349220299922 -27.161083309956652, 100.27438151787443 -26.87562744002653, 101.05934938813228 -26.399775304092984 C101.3912892199896 -26.168228446833037, 101.72322905184693 -25.936681589573094, 102.7154817104733 -25.244529088840633 C103.32411957364656 -24.75915658949371, 103.93275743681981 -24.273784090146787, 104.29419445219533 -23.985547688627737 C104.65519654111837 -23.657695143059698, 105.0161986300414 -23.329842597491655, 105.78900034400982 -22.62800452807842 C106.19450168496401 -22.209291101263968, 106.60000302591821 -21.790577674449516, 107.19375690787243 -21.177478043231485 C107.53719034386495 -20.77406158739856, 107.88062377985747 -20.370645131565638, 108.50269169774293 -19.63992875855011 C108.85474771577526 -19.16820576734983, 109.2068037338076 -18.696482776149544, 109.7104260198041 -18.02167479384835 C109.98388413727224 -17.60156969163106, 110.25734225474037 -17.181464589413768, 110.8119970346684 -16.329365901781543 C111.01299090918148 -15.972480924746783, 111.21398478369457 -15.615595947712023, 111.8028781507495 -14.56995614258631 C112.01919949745735 -14.120760237612128, 112.2355208441652 -13.671564332637947, 112.67899762499809 -12.750675308355413 C112.85212411077055 -12.32304954132456, 113.02525059654299 -11.895423774293706, 113.43675529456745 -10.878999214271206 C113.67144467919086 -10.172152180460914, 113.90613406381428 -9.465305146650625, 114.07303737065482 -8.962618978877531 C114.182455623992 -8.5453597567319, 114.29187387732917 -8.128100534586268, 114.58522923372745 -7.009409419623907 C114.70663861935394 -6.3859978843145715, 114.82804800498045 -5.762586349005237, 114.97122617755518 -5.027396693551458 C115.05326732737021 -4.391101736443596, 115.13530847718523 -3.7548067793357345, 115.22944205789975 -3.024725316091981 C115.27166007054808 -2.3671456913276305, 115.31387808319643 -1.7095660665632797, 115.35881581032167 -1.0096246935071378 C115.35881581032167 -0.5954567194111128, 115.35881581032167 -0.18128874531508776, 115.35881581032167 1.00962469350713 C115.30961638638917 1.7759454343160344, 115.26041696245667 2.5422661751249382, 115.22944205789975 3.02472531609196 C115.17425296512751 3.452761021314427, 115.11906387235526 3.880796726536894, 114.97122617755518 5.027396693551435 C114.82116292009839 5.79793980471141, 114.67109966264158 6.568482915871385, 114.58522923372745 7.0094094196239 C114.43335733404224 7.5885627948212715, 114.28148543435704 8.167716170018643, 114.07303737065482 8.96261897887751 C113.85332970114487 9.624343473778211, 113.63362203163491 10.28606796867891, 113.43675529456746 10.878999214271184 C113.16064573485924 11.56099516496565, 112.88453617515103 12.242991115660116, 112.67899762499809 12.750675308355405 C112.45173212841664 13.222596974709443, 112.22446663183517 13.694518641063484, 111.8028781507495 14.569956142586303 C111.60293318410943 14.924978677479105, 111.40298821746934 15.280001212371907, 110.81199703466841 16.329365901781536 C110.43623808086753 16.90663256022688, 110.06047912706664 17.48389921867222, 109.71042601980412 18.021674793848334 C109.35904609349883 18.492491883727592, 109.00766616719355 18.96330897360685, 108.50269169774295 19.639928758550102 C108.11325981348995 20.09737760909563, 107.72382792923696 20.554826459641156, 107.19375690787246 21.177478043231467 C106.78290058768731 21.60172092575385, 106.37204426750215 22.025963808276227, 105.78900034400982 22.628004528078414 C105.48450810179452 22.904536326035103, 105.18001585957921 23.18106812399179, 104.29419445219536 23.985547688627715 C103.69904112819567 24.460166626822367, 103.103887804196 24.934785565017016, 102.71548171047331 25.24452908884063 C102.27345241596946 25.552869589546766, 101.83142312146559 25.8612100902529, 101.05934938813229 26.399775304092973 C100.4681996085202 26.758133774475535, 99.8770498289081 27.1164922448581, 99.33260288812404 27.446539179886766 C98.77479468055886 27.73754736448032, 98.21698647299365 28.02855554907387, 97.54233778220309 28.3805193389262 C96.96783569571886 28.634834370613873, 96.39333360923463 28.889149402301552, 95.6959106537003 29.197877856399682 C95.19270062766459 29.383063797603306, 94.6894906016289 29.56824973880693, 93.80090886774407 29.895256030836055 C93.05390029824984 30.116964253133947, 92.30689172875562 30.33867247543184, 91.86511939314951 30.46978818572942 C91.45082130281047 30.564349021301606, 91.03652321247144 30.658909856873795, 89.89649680409323 30.919113445218557 C89.30723569357761 31.01438061177856, 88.717974583062 31.109647778338562, 87.90313059306196 31.24138543543225 C87.29233773642714 31.300307887725925, 86.68154487979233 31.359230340019604, 85.89321192939245 31.435279871635593 C85.13200140799636 31.45969041145037, 84.37079088660026 31.484100951265148, 83.875 31.5 C83.875 31.5, 83.875 31.5, 83.875 31.5 C20.392703031739224 31.5, -43.08959393652155 31.5, -83.875 31.5 C-84.29271213747215 31.48660478477862, -84.71042427494429 31.47320956955724, -85.89321192939244 31.435279871635593 C-86.68986066195068 31.358428126515978, -87.4865093945089 31.281576381396363, -87.90313059306195 31.24138543543225 C-88.60856939079001 31.12733556137516, -89.31400818851807 31.013285687318067, -89.89649680409323 30.919113445218557 C-90.66455901945957 30.74380825663555, -91.4326212348259 30.56850306805254, -91.86511939314947 30.469788185729428 C-92.63097645669846 30.242485829333848, -93.39683352024745 30.01518347293827, -93.80090886774403 29.89525603083607 C-94.25726002837176 29.727314585261176, -94.71361118899951 29.559373139686283, -95.69591065370028 29.197877856399685 C-96.33960487198952 28.912933520473597, -96.98329909027876 28.627989184547506, -97.54233778220308 28.380519338926206 C-98.00640039603 28.138418170538987, -98.47046300985693 27.896317002151772, -99.33260288812403 27.446539179886773 C-99.84143320692091 27.13808325041324, -100.3502635257178 26.829627320939704, -101.05934938813226 26.399775304092994 C-101.72130119487396 25.938026379141853, -102.38325300161566 25.47627745419071, -102.7154817104733 25.244529088840636 C-103.05459880540384 24.97409222991842, -103.39371590033439 24.703655370996206, -104.29419445219533 23.98554768862774 C-104.70117556880945 23.61593820664907, -105.10815668542357 23.2463287246704, -105.7890003440098 22.628004528078435 C-106.1206892072189 22.28550854465293, -106.45237807042798 21.943012561227427, -107.19375690787244 21.177478043231478 C-107.56981823009049 20.73573501565873, -107.94587955230854 20.293991988085985, -108.50269169774293 19.639928758550113 C-108.8645189456181 19.155113209537777, -109.22634619349328 18.67029766052544, -109.7104260198041 18.021674793848355 C-110.14267838307384 17.357619087854317, -110.5749307463436 16.693563381860283, -110.8119970346684 16.329365901781557 C-111.17425155299527 15.686146322244522, -111.53650607132215 15.042926742707486, -111.8028781507495 14.569956142586314 C-112.03152824546609 14.095159328579024, -112.26017834018269 13.620362514571735, -112.67899762499809 12.750675308355417 C-112.91997972881096 12.155444852865621, -113.16096183262381 11.560214397375827, -113.43675529456745 10.878999214271209 C-113.57222996732459 10.470971084884518, -113.70770464008173 10.062942955497824, -114.07303737065482 8.962618978877522 C-114.20629924839878 8.454433682976639, -114.33956112614273 7.946248387075755, -114.58522923372743 7.009409419623911 C-114.69894489560775 6.425503529682161, -114.81266055748806 5.841597639740411, -114.97122617755518 5.027396693551461 C-115.06301564871448 4.3154956811211775, -115.15480511987379 3.603594668690893, -115.22944205789975 3.024725316091999 C-115.27328615686673 2.34181808436148, -115.31713025583372 1.6589108526309608, -115.35881581032167 1.0096246935071416 C-115.35881581032167 0.4181387442193407, -115.35881581032167 -0.17334720506846013, -115.35881581032167 -1.0096246935071262 C-115.32140049326121 -1.5923984578241641, -115.28398517620074 -2.175172222141202, -115.22944205789975 -3.024725316091956 C-115.16567993743426 -3.5192517311673623, -115.1019178169688 -4.013778146242769, -114.97122617755518 -5.027396693551446 C-114.87199411762552 -5.536932348586947, -114.77276205769587 -6.046468003622447, -114.58522923372745 -7.009409419623896 C-114.43996601204118 -7.563361041392136, -114.29470279035493 -8.117312663160376, -114.07303737065482 -8.962618978877506 C-113.82336481961997 -9.71459292267567, -113.57369226858513 -10.466566866473835, -113.43675529456746 -10.878999214271168 C-113.14948113167345 -11.588571950687477, -112.86220696877943 -12.298144687103786, -112.67899762499809 -12.750675308355401 C-112.48605874538106 -13.151317020110858, -112.29311986576403 -13.551958731866314, -111.8028781507495 -14.5699561425863 C-111.41621746816367 -15.256511338157255, -111.02955678557781 -15.94306653372821, -110.8119970346684 -16.329365901781546 C-110.40925473087785 -16.94808623185503, -110.0065124270873 -17.56680656192851, -109.71042601980412 -18.021674793848344 C-109.43088852730932 -18.396229567401917, -109.15135103481451 -18.770784340955494, -108.50269169774295 -19.639928758550102 C-108.10209165522285 -20.11049636328238, -107.70149161270274 -20.581063968014657, -107.19375690787246 -21.177478043231467 C-106.74091722834366 -21.645072191174062, -106.28807754881487 -22.11266633911666, -105.78900034400984 -22.628004528078403 C-105.30100168407623 -23.071191999293102, -104.81300302414262 -23.514379470507805, -104.29419445219536 -23.98554768862771 C-103.7876574730463 -24.389497449983974, -103.28112049389723 -24.793447211340233, -102.71548171047331 -25.244529088840626 C-102.32287114699824 -25.518397222083475, -101.93026058352315 -25.792265355326325, -101.0593493881323 -26.39977530409297 C-100.71030055867884 -26.611370755746265, -100.36125172922537 -26.82296620739956, -99.33260288812404 -27.446539179886763 C-98.69607964493987 -27.778612948143348, -98.05955640175571 -28.110686716399933, -97.54233778220309 -28.3805193389262 C-96.91618717328342 -28.65769763939706, -96.29003656436375 -28.934875939867922, -95.6959106537003 -29.19787785639968 C-95.21687749401107 -29.374166487299302, -94.73784433432185 -29.550455118198922, -93.80090886774407 -29.895256030836055 C-93.3342388959056 -30.033761228877044, -92.86756892406711 -30.172266426918036, -91.86511939314951 -30.469788185729417 C-91.15816277387478 -30.631146420755798, -90.45120615460003 -30.79250465578218, -89.89649680409325 -30.919113445218553 C-89.29255465105194 -31.016754128880923, -88.68861249801064 -31.114394812543296, -87.90313059306196 -31.24138543543225 C-87.44375336145687 -31.28570100448324, -86.9843761298518 -31.33001657353423, -85.89321192939246 -31.435279871635593 C-85.24464870676151 -31.456078031833638, -84.59608548413057 -31.476876192031682, -83.87500000000001 -31.5 C-83.87500000000001 -31.5, -83.875 -31.5, -83.875 -31.5" stroke="none" stroke-width="0" fill="#ECECFF" style=""/><path d="M-83.875 -31.5 C-25.036423655150465 -31.5, 33.80215268969907 -31.5, 83.875 -31.5 M-83.875 -31.5 C-23.872722788924428 -31.5, 36.129554422151145 -31.5, 83.875 -31.5 M83.875 -31.5 C83.875 -31.5, 83.875 -31.5, 83.875 -31.5 M83.875 -31.5 C83.875 -31.5, 83.875 -31.5, 83.875 -31.5 M83.875 -31.5 C84.62941400165288 -31.475807411344764, 85.38382800330574 -31.451614822689532, 85.89321192939245 -31.435279871635593 M83.875 -31.5 C84.3531540690571 -31.484666529675774, 84.83130813811421 -31.46933305935155, 85.89321192939245 -31.435279871635593 M85.89321192939245 -31.435279871635593 C86.32603668162268 -31.393525788335868, 86.7588614338529 -31.35177170503614, 87.90313059306193 -31.241385435432253 M85.89321192939245 -31.435279871635593 C86.56480719152582 -31.370491884409063, 87.23640245365918 -31.305703897182532, 87.90313059306193 -31.241385435432253 M87.90313059306193 -31.241385435432253 C88.63881099947426 -31.12244633261027, 89.37449140588659 -31.003507229788287, 89.89649680409322 -30.91911344521856 M87.90313059306193 -31.241385435432253 C88.34019873307024 -31.17072364806976, 88.77726687307855 -31.100061860707264, 89.89649680409322 -30.91911344521856 M89.89649680409322 -30.91911344521856 C90.30883774775484 -30.82499931560392, 90.72117869141644 -30.73088518598928, 91.86511939314947 -30.469788185729428 M89.89649680409322 -30.91911344521856 C90.67675500889881 -30.741024601632308, 91.45701321370441 -30.56293575804606, 91.86511939314947 -30.469788185729428 M91.86511939314947 -30.469788185729428 C92.4667509973942 -30.291227083618327, 93.06838260163893 -30.112665981507227, 93.80090886774406 -29.895256030836062 M91.86511939314947 -30.469788185729428 C92.63384118548741 -30.241635592866558, 93.40256297782534 -30.013483000003692, 93.80090886774406 -29.895256030836062 M93.80090886774406 -29.895256030836062 C94.43804507056801 -29.660784018574354, 95.07518127339195 -29.426312006312642, 95.69591065370028 -29.197877856399685 M93.80090886774406 -29.895256030836062 C94.38355134949414 -29.680838211663968, 94.96619383124424 -29.466420392491873, 95.69591065370028 -29.197877856399685 M95.69591065370028 -29.197877856399685 C96.21601005911744 -28.967645277822204, 96.73610946453461 -28.737412699244725, 97.54233778220308 -28.380519338926202 M95.69591065370028 -29.197877856399685 C96.25238645322479 -28.95154252721828, 96.80886225274928 -28.70520719803687, 97.54233778220308 -28.380519338926202 M97.54233778220308 -28.380519338926202 C98.09064010465781 -28.09447036850597, 98.63894242711254 -27.808421398085734, 99.33260288812403 -27.44653917988677 M97.54233778220308 -28.380519338926202 C98.0796791679718 -28.100188682154243, 98.61702055374052 -27.81985802538229, 99.33260288812403 -27.44653917988677 M99.33260288812403 -27.44653917988677 C99.92035974614083 -27.090237518514297, 100.50811660415762 -26.733935857141823, 101.05934938813228 -26.399775304092984 M99.33260288812403 -27.44653917988677 C99.92493968517793 -27.08746113255529, 100.51727648223185 -26.72838308522381, 101.05934938813228 -26.399775304092984 M101.05934938813228 -26.399775304092984 C101.61941085345802 -26.009100670551817, 102.17947231878378 -25.61842603701065, 102.7154817104733 -25.244529088840633 M101.05934938813228 -26.399775304092984 C101.64122698140335 -25.99388268410212, 102.22310457467441 -25.58799006411126, 102.7154817104733 -25.244529088840633 M102.7154817104733 -25.244529088840633 C103.07684485897114 -24.956351594190846, 103.43820800746897 -24.668174099541062, 104.29419445219533 -23.985547688627737 M102.7154817104733 -25.244529088840633 C103.24488291570245 -24.82234571562811, 103.77428412093161 -24.400162342415587, 104.29419445219533 -23.985547688627737 M104.29419445219533 -23.985547688627737 C104.67751940606321 -23.63742210774743, 105.0608443599311 -23.28929652686712, 105.78900034400982 -22.62800452807842 M104.29419445219533 -23.985547688627737 C104.81908073732197 -23.5088598522058, 105.34396702244862 -23.032172015783864, 105.78900034400982 -22.62800452807842 M105.78900034400982 -22.62800452807842 C106.24223609710813 -22.160001401657045, 106.69547185020645 -21.69199827523567, 107.19375690787243 -21.177478043231485 M105.78900034400982 -22.62800452807842 C106.11949912349205 -22.28673740380859, 106.44999790297427 -21.945470279538757, 107.19375690787243 -21.177478043231485 M107.19375690787243 -21.177478043231485 C107.71107181682065 -20.569810515128708, 108.22838672576886 -19.962142987025928, 108.50269169774293 -19.63992875855011 M107.19375690787243 -21.177478043231485 C107.62445608987673 -20.671554276571502, 108.05515527188105 -20.16563050991152, 108.50269169774293 -19.63992875855011 M108.50269169774293 -19.63992875855011 C108.82456449448748 -19.208648534127438, 109.14643729123203 -18.777368309704762, 109.7104260198041 -18.02167479384835 M108.50269169774293 -19.63992875855011 C108.78276083689654 -19.264661626907746, 109.06282997605014 -18.889394495265382, 109.7104260198041 -18.02167479384835 M109.7104260198041 -18.02167479384835 C109.94382722856946 -17.66310786018459, 110.17722843733483 -17.304540926520826, 110.8119970346684 -16.329365901781543 M109.7104260198041 -18.02167479384835 C110.09711347886235 -17.42761901661314, 110.48380093792059 -16.833563239377924, 110.8119970346684 -16.329365901781543 M110.8119970346684 -16.329365901781543 C111.1049667485445 -15.809168508394093, 111.39793646242059 -15.288971115006643, 111.8028781507495 -14.56995614258631 M110.8119970346684 -16.329365901781543 C111.03849756441932 -15.9271912755431, 111.26499809417022 -15.525016649304659, 111.8028781507495 -14.56995614258631 M111.8028781507495 -14.56995614258631 C112.06993246036006 -14.015412154633138, 112.33698676997062 -13.460868166679967, 112.67899762499809 -12.750675308355413 M111.8028781507495 -14.56995614258631 C112.1037352603554 -13.945219917178752, 112.4045923699613 -13.320483691771196, 112.67899762499809 -12.750675308355413 M112.67899762499809 -12.750675308355413 C112.85627685988068 -12.31279217073459, 113.03355609476326 -11.874909033113767, 113.43675529456745 -10.878999214271206 M112.67899762499809 -12.750675308355413 C112.93544680518788 -12.11724087517903, 113.19189598537767 -11.483806442002647, 113.43675529456745 -10.878999214271206 M113.43675529456745 -10.878999214271206 C113.6667093252577 -10.186414312031397, 113.89666335594795 -9.493829409791589, 114.07303737065482 -8.962618978877531 M113.43675529456745 -10.878999214271206 C113.63764818645336 -10.273941831846379, 113.83854107833929 -9.668884449421554, 114.07303737065482 -8.962618978877531 M114.07303737065482 -8.962618978877531 C114.2051719216848 -8.458732668323558, 114.33730647271477 -7.954846357769585, 114.58522923372745 -7.009409419623907 M114.07303737065482 -8.962618978877531 C114.23553594463384 -8.342941488968034, 114.39803451861287 -7.723263999058537, 114.58522923372745 -7.009409419623907 M114.58522923372745 -7.009409419623907 C114.70045454509403 -6.417751798634661, 114.81567985646062 -5.826094177645413, 114.97122617755518 -5.027396693551458 M114.58522923372745 -7.009409419623907 C114.69094836664797 -6.466564015823692, 114.79666749956849 -5.923718612023476, 114.97122617755518 -5.027396693551458 M114.97122617755518 -5.027396693551458 C115.0369520055489 -4.517640150664922, 115.10267783354263 -4.007883607778387, 115.22944205789975 -3.024725316091981 M114.97122617755518 -5.027396693551458 C115.0491728901932 -4.422857382650361, 115.12711960283123 -3.818318071749264, 115.22944205789975 -3.024725316091981 M115.22944205789975 -3.024725316091981 C115.2684228691078 -2.4175677167821537, 115.30740368031584 -1.8104101174723264, 115.35881581032167 -1.0096246935071378 M115.22944205789975 -3.024725316091981 C115.27913398742413 -2.2507334031461967, 115.3288259169485 -1.476741490200412, 115.35881581032167 -1.0096246935071378 M115.35881581032167 -1.0096246935071378 C115.35881581032167 -0.2843928154491181, 115.35881581032167 0.4408390626089016, 115.35881581032167 1.00962469350713 M115.35881581032167 -1.0096246935071378 C115.35881581032167 -0.4344418372302259, 115.35881581032167 0.140741019046686, 115.35881581032167 1.00962469350713 M115.35881581032167 1.00962469350713 C115.3170294609544 1.660480814236479, 115.27524311158713 2.311336934965828, 115.22944205789975 3.02472531609196 M115.35881581032167 1.00962469350713 C115.32332757353454 1.5623826270559207, 115.2878393367474 2.1151405606047113, 115.22944205789975 3.02472531609196 M115.22944205789975 3.02472531609196 C115.16962133332338 3.48868304296807, 115.10980060874701 3.95264076984418, 114.97122617755518 5.027396693551435 M115.22944205789975 3.02472531609196 C115.13151357283768 3.784239308066758, 115.03358508777559 4.543753300041556, 114.97122617755518 5.027396693551435 M114.97122617755518 5.027396693551435 C114.83865785759737 5.708106998210474, 114.70608953763956 6.388817302869513, 114.58522923372745 7.0094094196239 M114.97122617755518 5.027396693551435 C114.88476699504159 5.47134632260401, 114.79830781252801 5.915295951656584, 114.58522923372745 7.0094094196239 M114.58522923372745 7.0094094196239 C114.45656080503906 7.50007790346248, 114.32789237635066 7.990746387301061, 114.07303737065482 8.96261897887751 M114.58522923372745 7.0094094196239 C114.41156586891617 7.671663095827741, 114.23790250410488 8.333916772031582, 114.07303737065482 8.96261897887751 M114.07303737065482 8.96261897887751 C113.90844773940518 9.458336724404958, 113.74385810815554 9.954054469932405, 113.43675529456746 10.878999214271184 M114.07303737065482 8.96261897887751 C113.92427819174397 9.410657924200555, 113.77551901283313 9.8586968695236, 113.43675529456746 10.878999214271184 M113.43675529456746 10.878999214271184 C113.14347723940787 11.603401680660838, 112.85019918424827 12.32780414705049, 112.67899762499809 12.750675308355405 M113.43675529456746 10.878999214271184 C113.26710474757165 11.298039345321016, 113.09745420057584 11.717079476370849, 112.67899762499809 12.750675308355405 M112.67899762499809 12.750675308355405 C112.4503839220233 13.225396554132164, 112.22177021904854 13.700117799908924, 111.8028781507495 14.569956142586303 M112.67899762499809 12.750675308355405 C112.42349266162253 13.281236831735194, 112.16798769824696 13.811798355114982, 111.8028781507495 14.569956142586303 M111.8028781507495 14.569956142586303 C111.50737494731808 15.094652003222881, 111.21187174388665 15.619347863859462, 110.81199703466841 16.329365901781536 M111.8028781507495 14.569956142586303 C111.41447495270265 15.259605350807103, 111.0260717546558 15.949254559027903, 110.81199703466841 16.329365901781536 M110.81199703466841 16.329365901781536 C110.5731396321754 16.696315014204128, 110.33428222968239 17.06326412662672, 109.71042601980412 18.021674793848334 M110.81199703466841 16.329365901781536 C110.40218915680514 16.95894085100301, 109.99238127894186 17.58851580022449, 109.71042601980412 18.021674793848334 M109.71042601980412 18.021674793848334 C109.39138924569104 18.449155006311813, 109.07235247157797 18.876635218775295, 108.50269169774295 19.639928758550102 M109.71042601980412 18.021674793848334 C109.2507011844934 18.63766419137061, 108.79097634918269 19.253653588892888, 108.50269169774295 19.639928758550102 M108.50269169774295 19.639928758550102 C108.2109180970281 19.98266263233797, 107.91914449631325 20.325396506125838, 107.19375690787246 21.177478043231467 M108.50269169774295 19.639928758550102 C108.07646977514983 20.140593281542426, 107.6502478525567 20.64125780453475, 107.19375690787246 21.177478043231467 M107.19375690787246 21.177478043231467 C106.73947202039435 21.64656448703552, 106.28518713291622 22.11565093083957, 105.78900034400982 22.628004528078414 M107.19375690787246 21.177478043231467 C106.75236915831147 21.633247133261378, 106.31098140875046 22.089016223291285, 105.78900034400982 22.628004528078414 M105.78900034400982 22.628004528078414 C105.21598608017719 23.148400921364598, 104.64297181634456 23.668797314650785, 104.29419445219536 23.985547688627715 M105.78900034400982 22.628004528078414 C105.21669975279785 23.147752782773253, 104.64439916158588 23.66750103746809, 104.29419445219536 23.985547688627715 M104.29419445219536 23.985547688627715 C103.93924082587418 24.268613759906163, 103.584287199553 24.55167983118461, 102.71548171047331 25.24452908884063 M104.29419445219536 23.985547688627715 C103.85512485594009 24.33569400750863, 103.41605525968482 24.685840326389545, 102.71548171047331 25.24452908884063 M102.71548171047331 25.24452908884063 C102.37764885831444 25.48018666195819, 102.03981600615558 25.715844235075753, 101.05934938813229 26.399775304092973 M102.71548171047331 25.24452908884063 C102.26947736280017 25.55564241456037, 101.82347301512705 25.866755740280112, 101.05934938813229 26.399775304092973 M101.05934938813229 26.399775304092973 C100.39230202422941 26.804143336096324, 99.72525466032654 27.208511368099675, 99.33260288812404 27.446539179886766 M101.05934938813229 26.399775304092973 C100.45456726829714 26.766397779231276, 99.84978514846199 27.133020254369583, 99.33260288812404 27.446539179886766 M99.33260288812404 27.446539179886766 C98.92204449813191 27.660727228970465, 98.51148610813976 27.874915278054164, 97.54233778220309 28.3805193389262 M99.33260288812404 27.446539179886766 C98.87811494458751 27.683645248916356, 98.42362700105097 27.920751317945943, 97.54233778220309 28.3805193389262 M97.54233778220309 28.3805193389262 C96.89870885893245 28.66543477068446, 96.25507993566181 28.950350202442724, 95.6959106537003 29.197877856399682 M97.54233778220309 28.3805193389262 C97.00917010182731 28.61653685517126, 96.47600242145153 28.852554371416318, 95.6959106537003 29.197877856399682 M95.6959106537003 29.197877856399682 C95.23078851715556 29.369047102190045, 94.76566638061081 29.540216347980408, 93.80090886774407 29.895256030836055 M95.6959106537003 29.197877856399682 C95.23450823774735 29.367678210627545, 94.77310582179439 29.53747856485541, 93.80090886774407 29.895256030836055 M93.80090886774407 29.895256030836055 C93.37947934307103 30.0203341016303, 92.95804981839798 30.145412172424543, 91.86511939314951 30.46978818572942 M93.80090886774407 29.895256030836055 C93.30745762581867 30.04170976926109, 92.81400638389329 30.18816350768612, 91.86511939314951 30.46978818572942 M91.86511939314951 30.46978818572942 C91.22182522720483 30.61661588121955, 90.57853106126014 30.763443576709676, 89.89649680409323 30.919113445218557 M91.86511939314951 30.46978818572942 C91.36478990514027 30.583985126412497, 90.86446041713103 30.69818206709557, 89.89649680409323 30.919113445218557 M89.89649680409323 30.919113445218557 C89.21057532913262 31.030007909889704, 88.524653854172 31.140902374560856, 87.90313059306196 31.24138543543225 M89.89649680409323 30.919113445218557 C89.35029482018089 31.007419146117854, 88.80409283626857 31.095724847017152, 87.90313059306196 31.24138543543225 M87.90313059306196 31.24138543543225 C87.42865568726675 31.287157458954752, 86.95418078147156 31.33292948247725, 85.89321192939245 31.435279871635593 M87.90313059306196 31.24138543543225 C87.38735176446725 31.291141998711986, 86.87157293587255 31.340898561991718, 85.89321192939245 31.435279871635593 M85.89321192939245 31.435279871635593 C85.0996612956365 31.46072749590754, 84.30611066188054 31.48617512017949, 83.875 31.5 M85.89321192939245 31.435279871635593 C85.12724103016832 31.4598430675018, 84.36127013094419 31.48440626336801, 83.875 31.5 M83.875 31.5 C83.875 31.5, 83.875 31.5, 83.875 31.5 M83.875 31.5 C83.875 31.5, 83.875 31.5, 83.875 31.5 M83.875 31.5 C32.45155015010498 31.5, -18.971899699790043 31.5, -83.875 31.5 M83.875 31.5 C40.66109499668983 31.5, -2.5528100066203336 31.5, -83.875 31.5 M-83.875 31.5 C-84.57717938674205 31.477482473776444, -85.27935877348408 31.45496494755289, -85.89321192939244 31.435279871635593 M-83.875 31.5 C-84.5354324482933 31.47882121683701, -85.19586489658663 31.45764243367402, -85.89321192939244 31.435279871635593 M-85.89321192939244 31.435279871635593 C-86.54903915861392 31.372013007580236, -87.20486638783542 31.308746143524882, -87.90313059306195 31.24138543543225 M-85.89321192939244 31.435279871635593 C-86.40360382858505 31.38604297895655, -86.91399572777765 31.336806086277505, -87.90313059306195 31.24138543543225 M-87.90313059306195 31.24138543543225 C-88.4327209525658 31.155765373142245, -88.96231131206964 31.070145310852237, -89.89649680409323 30.919113445218557 M-87.90313059306195 31.24138543543225 C-88.4627138813312 31.150916349018093, -89.02229716960044 31.060447262603933, -89.89649680409323 30.919113445218557 M-89.89649680409323 30.919113445218557 C-90.67678108682091 30.741018649516764, -91.45706536954857 30.562923853814976, -91.86511939314947 30.469788185729428 M-89.89649680409323 30.919113445218557 C-90.57872334948448 30.76339968817727, -91.26094989487572 30.607685931135983, -91.86511939314947 30.469788185729428 M-91.86511939314947 30.469788185729428 C-92.45487180339212 30.294752766042983, -93.04462421363476 30.119717346356538, -93.80090886774403 29.89525603083607 M-91.86511939314947 30.469788185729428 C-92.2804653771642 30.346515677869416, -92.69581136117893 30.223243170009408, -93.80090886774403 29.89525603083607 M-93.80090886774403 29.89525603083607 C-94.37512975792501 29.683937435209746, -94.949350648106 29.472618839583422, -95.69591065370028 29.197877856399685 M-93.80090886774403 29.89525603083607 C-94.43770715886309 29.66090837320538, -95.07450544998215 29.426560715574688, -95.69591065370028 29.197877856399685 M-95.69591065370028 29.197877856399685 C-96.29909008961137 28.930868212804086, -96.90226952552246 28.663858569208486, -97.54233778220308 28.380519338926206 M-95.69591065370028 29.197877856399685 C-96.26089323795878 28.947776825961338, -96.8258758222173 28.69767579552299, -97.54233778220308 28.380519338926206 M-97.54233778220308 28.380519338926206 C-97.98793154421266 28.14805335870224, -98.43352530622222 27.91558737847827, -99.33260288812403 27.446539179886773 M-97.54233778220308 28.380519338926206 C-98.12178451314173 28.078222350548856, -98.70123124408039 27.775925362171503, -99.33260288812403 27.446539179886773 M-99.33260288812403 27.446539179886773 C-99.74299647104473 27.197756178179855, -100.15339005396542 26.948973176472933, -101.05934938813226 26.399775304092994 M-99.33260288812403 27.446539179886773 C-99.94302714214196 27.07649640985001, -100.55345139615989 26.706453639813247, -101.05934938813226 26.399775304092994 M-101.05934938813226 26.399775304092994 C-101.64174715824629 25.993519831254574, -102.22414492836033 25.587264358416153, -102.7154817104733 25.244529088840636 M-101.05934938813226 26.399775304092994 C-101.60940799810692 26.01607822942813, -102.15946660808156 25.632381154763262, -102.7154817104733 25.244529088840636 M-102.7154817104733 25.244529088840636 C-103.2905518189956 24.78592598055239, -103.86562192751789 24.327322872264137, -104.29419445219533 23.98554768862774 M-102.7154817104733 25.244529088840636 C-103.04057317141081 24.985277299790063, -103.36566463234833 24.72602551073949, -104.29419445219533 23.98554768862774 M-104.29419445219533 23.98554768862774 C-104.70253001007482 23.614708138928407, -105.11086556795432 23.243868589229074, -105.7890003440098 22.628004528078435 M-104.29419445219533 23.98554768862774 C-104.60715241903866 23.701327543554683, -104.92011038588197 23.41710739848163, -105.7890003440098 22.628004528078435 M-105.7890003440098 22.628004528078435 C-106.216030579658 22.187060749937313, -106.64306081530619 21.74611697179619, -107.19375690787244 21.177478043231478 M-105.7890003440098 22.628004528078435 C-106.0919627523502 22.315170967790667, -106.39492516069059 22.002337407502896, -107.19375690787244 21.177478043231478 M-107.19375690787244 21.177478043231478 C-107.64401112227299 20.648583822806014, -108.09426533667352 20.119689602380554, -108.50269169774293 19.639928758550113 M-107.19375690787244 21.177478043231478 C-107.68740520232768 20.59761066718066, -108.18105349678292 20.01774329112984, -108.50269169774293 19.639928758550113 M-108.50269169774293 19.639928758550113 C-108.80592841514175 19.23361918266896, -109.10916513254057 18.827309606787804, -109.7104260198041 18.021674793848355 M-108.50269169774293 19.639928758550113 C-108.796041031601 19.246867375854393, -109.08939036545907 18.853805993158673, -109.7104260198041 18.021674793848355 M-109.7104260198041 18.021674793848355 C-109.9472056175944 17.65791774741781, -110.18398521538471 17.294160700987263, -110.8119970346684 16.329365901781557 M-109.7104260198041 18.021674793848355 C-110.05161381547238 17.497518717950484, -110.39280161114067 16.973362642052617, -110.8119970346684 16.329365901781557 M-110.8119970346684 16.329365901781557 C-111.16778476801544 15.697628753809202, -111.52357250136248 15.065891605836844, -111.8028781507495 14.569956142586314 M-110.8119970346684 16.329365901781557 C-111.04228531200522 15.92046574615329, -111.27257358934206 15.511565590525022, -111.8028781507495 14.569956142586314 M-111.8028781507495 14.569956142586314 C-112.14120675139209 13.867409564279598, -112.47953535203469 13.16486298597288, -112.67899762499809 12.750675308355417 M-111.8028781507495 14.569956142586314 C-112.0736431708602 14.007706784883144, -112.34440819097087 13.445457427179974, -112.67899762499809 12.750675308355417 M-112.67899762499809 12.750675308355417 C-112.84095679170731 12.350633035316156, -113.00291595841654 11.950590762276894, -113.43675529456745 10.878999214271209 M-112.67899762499809 12.750675308355417 C-112.84712653079556 12.335393660484382, -113.01525543659305 11.920112012613346, -113.43675529456745 10.878999214271209 M-113.43675529456745 10.878999214271209 C-113.56928998702911 10.479825837112253, -113.70182467949077 10.080652459953297, -114.07303737065482 8.962618978877522 M-113.43675529456745 10.878999214271209 C-113.66298437770891 10.197633260558577, -113.88921346085036 9.516267306845945, -114.07303737065482 8.962618978877522 M-114.07303737065482 8.962618978877522 C-114.22980199118142 8.364807538593245, -114.38656661170802 7.766996098308967, -114.58522923372743 7.009409419623911 M-114.07303737065482 8.962618978877522 C-114.17593138279389 8.570239516044273, -114.27882539493297 8.177860053211024, -114.58522923372743 7.009409419623911 M-114.58522923372743 7.009409419623911 C-114.71598586157172 6.338001771066593, -114.84674248941602 5.666594122509274, -114.97122617755518 5.027396693551461 M-114.58522923372743 7.009409419623911 C-114.72557932609283 6.288741358330162, -114.86592941845822 5.568073297036412, -114.97122617755518 5.027396693551461 M-114.97122617755518 5.027396693551461 C-115.03555115341511 4.5285048831850965, -115.09987612927503 4.029613072818733, -115.22944205789975 3.024725316091999 M-114.97122617755518 5.027396693551461 C-115.04892699487955 4.424764498145521, -115.12662781220392 3.82213230273958, -115.22944205789975 3.024725316091999 M-115.22944205789975 3.024725316091999 C-115.27944445727829 2.245897584560974, -115.32944685665682 1.4670698530299489, -115.35881581032167 1.0096246935071416 M-115.22944205789975 3.024725316091999 C-115.26750076148605 2.431930287302714, -115.30555946507235 1.8391352585134288, -115.35881581032167 1.0096246935071416 M-115.35881581032167 1.0096246935071416 C-115.35881581032167 0.266072041588876, -115.35881581032167 -0.4774806103293896, -115.35881581032167 -1.0096246935071262 M-115.35881581032167 1.0096246935071416 C-115.35881581032167 0.2355748897930241, -115.35881581032167 -0.5384749139210934, -115.35881581032167 -1.0096246935071262 M-115.35881581032167 -1.0096246935071262 C-115.31823680727899 -1.641675420678561, -115.27765780423631 -2.2737261478499957, -115.22944205789975 -3.024725316091956 M-115.35881581032167 -1.0096246935071262 C-115.32508131362053 -1.5350667096229493, -115.2913468169194 -2.060508725738772, -115.22944205789975 -3.024725316091956 M-115.22944205789975 -3.024725316091956 C-115.1464847932702 -3.6681254787939177, -115.06352752864065 -4.31152564149588, -114.97122617755518 -5.027396693551446 M-115.22944205789975 -3.024725316091956 C-115.15943410714328 -3.567693157525493, -115.08942615638684 -4.11066099895903, -114.97122617755518 -5.027396693551446 M-114.97122617755518 -5.027396693551446 C-114.83973220531446 -5.70259044974663, -114.70823823307376 -6.377784205941814, -114.58522923372745 -7.009409419623896 M-114.97122617755518 -5.027396693551446 C-114.8505373724715 -5.647108200068089, -114.72984856738785 -6.266819706584732, -114.58522923372745 -7.009409419623896 M-114.58522923372745 -7.009409419623896 C-114.46818540302137 -7.45574827322328, -114.3511415723153 -7.902087126822665, -114.07303737065482 -8.962618978877506 M-114.58522923372745 -7.009409419623896 C-114.43589376194815 -7.578890295921216, -114.28655829016887 -8.148371172218535, -114.07303737065482 -8.962618978877506 M-114.07303737065482 -8.962618978877506 C-113.85499432437626 -9.619329893826931, -113.63695127809771 -10.276040808776358, -113.43675529456746 -10.878999214271168 M-114.07303737065482 -8.962618978877506 C-113.88121065966887 -9.540370468931377, -113.68938394868293 -10.118121958985247, -113.43675529456746 -10.878999214271168 M-113.43675529456746 -10.878999214271168 C-113.2760711307718 -11.27589220546341, -113.11538696697615 -11.672785196655653, -112.67899762499809 -12.750675308355401 M-113.43675529456746 -10.878999214271168 C-113.25189088075858 -11.335617890489408, -113.0670264669497 -11.792236566707647, -112.67899762499809 -12.750675308355401 M-112.67899762499809 -12.750675308355401 C-112.35619223772511 -13.42098760195656, -112.03338685045213 -14.091299895557718, -111.8028781507495 -14.5699561425863 M-112.67899762499809 -12.750675308355401 C-112.36136503712815 -13.410246173315963, -112.04373244925823 -14.069817038276527, -111.8028781507495 -14.5699561425863 M-111.8028781507495 -14.5699561425863 C-111.48870932443836 -15.1277947067451, -111.1745404981272 -15.685633270903901, -110.8119970346684 -16.329365901781546 M-111.8028781507495 -14.5699561425863 C-111.57410121076825 -14.976172765700255, -111.34532427078699 -15.382389388814211, -110.8119970346684 -16.329365901781546 M-110.8119970346684 -16.329365901781546 C-110.3876867679717 -16.981220414687854, -109.963376501275 -17.633074927594162, -109.71042601980412 -18.021674793848344 M-110.8119970346684 -16.329365901781546 C-110.42587915682627 -16.92254664931483, -110.03976127898414 -17.51572739684812, -109.71042601980412 -18.021674793848344 M-109.71042601980412 -18.021674793848344 C-109.41230579867818 -18.421128730846245, -109.11418557755222 -18.82058266784415, -108.50269169774295 -19.639928758550102 M-109.71042601980412 -18.021674793848344 C-109.45371447632714 -18.365644875204765, -109.19700293285017 -18.70961495656119, -108.50269169774295 -19.639928758550102 M-108.50269169774295 -19.639928758550102 C-107.99440078012519 -20.236996192956468, -107.48610986250743 -20.834063627362834, -107.19375690787246 -21.177478043231467 M-108.50269169774295 -19.639928758550102 C-108.13915701428658 -20.066957283447444, -107.7756223308302 -20.49398580834478, -107.19375690787246 -21.177478043231467 M-107.19375690787246 -21.177478043231467 C-106.74197332435395 -21.643981685336353, -106.29018974083543 -22.11048532744124, -105.78900034400984 -22.628004528078403 M-107.19375690787246 -21.177478043231467 C-106.82947876946403 -21.553625128929532, -106.46520063105561 -21.929772214627597, -105.78900034400984 -22.628004528078403 M-105.78900034400984 -22.628004528078403 C-105.41943781932974 -22.963631434904283, -105.04987529464965 -23.299258341730166, -104.29419445219536 -23.98554768862771 M-105.78900034400984 -22.628004528078403 C-105.28415506796355 -23.086491650309593, -104.77930979191729 -23.544978772540784, -104.29419445219536 -23.98554768862771 M-104.29419445219536 -23.98554768862771 C-103.81417822198543 -24.368347858451774, -103.33416199177552 -24.751148028275836, -102.71548171047331 -25.244529088840626 M-104.29419445219536 -23.98554768862771 C-103.87040982739866 -24.32350464952059, -103.44662520260196 -24.661461610413472, -102.71548171047331 -25.244529088840626 M-102.71548171047331 -25.244529088840626 C-102.19273957169052 -25.609171375713032, -101.66999743290773 -25.97381366258544, -101.0593493881323 -26.39977530409297 M-102.71548171047331 -25.244529088840626 C-102.18919708196461 -25.61164246319392, -101.6629124534559 -25.978755837547215, -101.0593493881323 -26.39977530409297 M-101.0593493881323 -26.39977530409297 C-100.64456685598834 -26.65121891261136, -100.22978432384438 -26.902662521129745, -99.33260288812404 -27.446539179886763 M-101.0593493881323 -26.39977530409297 C-100.69979399400266 -26.617739896996394, -100.34023859987302 -26.83570448989982, -99.33260288812404 -27.446539179886763 M-99.33260288812404 -27.446539179886763 C-98.7047371813151 -27.774096316961817, -98.07687147450613 -28.101653454036867, -97.54233778220309 -28.3805193389262 M-99.33260288812404 -27.446539179886763 C-98.86126369356546 -27.692436535780818, -98.38992449900687 -27.93833389167487, -97.54233778220309 -28.3805193389262 M-97.54233778220309 -28.3805193389262 C-97.05137410104237 -28.5978543966559, -96.56041041988166 -28.815189454385607, -95.6959106537003 -29.19787785639968 M-97.54233778220309 -28.3805193389262 C-96.82624936464165 -28.697510439372472, -96.1101609470802 -29.014501539818742, -95.6959106537003 -29.19787785639968 M-95.6959106537003 -29.19787785639968 C-95.26225418641184 -29.35746744503827, -94.82859771912338 -29.517057033676863, -93.80090886774407 -29.895256030836055 M-95.6959106537003 -29.19787785639968 C-95.20808426412181 -29.377402477182276, -94.72025787454332 -29.55692709796487, -93.80090886774407 -29.895256030836055 M-93.80090886774407 -29.895256030836055 C-93.27341381606018 -30.051813793297804, -92.7459187643763 -30.208371555759552, -91.86511939314951 -30.469788185729417 M-93.80090886774407 -29.895256030836055 C-93.18046226033238 -30.079401327125147, -92.56001565292067 -30.26354662341424, -91.86511939314951 -30.469788185729417 M-91.86511939314951 -30.469788185729417 C-91.2579634573532 -30.608367566012173, -90.65080752155687 -30.746946946294926, -89.89649680409325 -30.919113445218553 M-91.86511939314951 -30.469788185729417 C-91.18750794067647 -30.62444857792842, -90.50989648820342 -30.779108970127425, -89.89649680409325 -30.919113445218553 M-89.89649680409325 -30.919113445218553 C-89.27876488966646 -31.01898355056053, -88.66103297523968 -31.118853655902512, -87.90313059306196 -31.24138543543225 M-89.89649680409325 -30.919113445218553 C-89.33208593210243 -31.010363017930345, -88.76767506011161 -31.101612590642137, -87.90313059306196 -31.24138543543225 M-87.90313059306196 -31.24138543543225 C-87.42564806843914 -31.287447600325862, -86.94816554381633 -31.33350976521947, -85.89321192939246 -31.435279871635593 M-87.90313059306196 -31.24138543543225 C-87.13222697608066 -31.31575358021519, -86.36132335909937 -31.39012172499813, -85.89321192939246 -31.435279871635593 M-85.89321192939246 -31.435279871635593 C-85.21462652973543 -31.457040784616243, -84.5360411300784 -31.47880169759689, -83.87500000000001 -31.5 M-85.89321192939246 -31.435279871635593 C-85.48615256601704 -31.44833347312606, -85.07909320264163 -31.46138707461652, -83.87500000000001 -31.5 M-83.87500000000001 -31.5 C-83.87500000000001 -31.5, -83.875 -31.5, -83.875 -31.5 M-83.87500000000001 -31.5 C-83.87500000000001 -31.5, -83.875 -31.5, -83.875 -31.5" stroke="#9370DB" stroke-width="1.3" fill="none" stroke-dasharray="0 0" style=""/></g><g class="label" style="" transform="translate(-100, -24)"><rect/><foreignObject width="200" height="48"><div xmlns="http://www.w3.org/1999/xhtml" style="display: table; white-space: break-spaces; line-height: 1.5; max-width: 200px; text-align: center; width: 200px;"><span class="nodeLabel"><p>Section 143: Punishment (eff: 1872-01-01)</p></span></div></foreignObject></g></g><g class="node default" id="my-svg-flowchart-PENALTY2-1" data-look="classic" transform="translate(123.35881805419922, 140.5)"><polygon points="0,0 211.3125,0 211.3125,-39 0,-39 0,0 -8,0 219.3125,0 219.3125,-39 -8,-39 -8,0" class="label-container" transform="translate(-105.65625,19.5)"/><g class="label" style="" transform="translate(-98.15625, -12)"><rect/><foreignObject width="196.3125" height="24"><div xmlns="http://www.w3.org/1999/xhtml" style="display: table-cell; white-space: nowrap; line-height: 1.5; max-width: 200px; text-align: center;"><span class="nodeLabel"><p>Imprisonment up to 2 years</p></span></div></foreignObject></g></g></g></g></g><defs><filter id="my-svg-drop-shadow" height="130%" width="130%"><feDropShadow dx="4" dy="4" stdDeviation="0" flood-opacity="0.06" flood-color="#000000"/></filter></defs><defs><filter id="my-svg-drop-shadow-small" height="150%" width="150%"><feDropShadow dx="2" dy="2" stdDeviation="0" flood-opacity="0.06" flood-color="#000000"/></filter></defs></svg>