<svg class="yuho-mermaid-svg" id="my-svg" width="100%" xmlns="http://www.w3.org/2000/svg" xmlns:xlink="http://www.w3.org/1999/xlink" class="flowchart" style="max-width: 276px; background-color: transparent;" viewBox="0 0 276 785" role="graphics-document document" aria-roledescription="flowchart-v2"><style>#my-svg{font-family:"trebuchet ms",verdana,arial,sans-serif;font-size:16px;fill:#333;}@keyframes edge-animation-frame{from{stroke-dashoffset:0;}}@keyframes dash{to{stroke-dashoffset:0;}}#my-svg .edge-animation-slow{stroke-dasharray:9,5!important;stroke-dashoffset:900;animation:dash 50s linear infinite;stroke-linecap:round;}#my-svg .edge-animation-fast{stroke-dasharray:9,5!important;stroke-dashoffset:900;animation:dash 20s linear infinite;stroke-linecap:round;}#my-svg .error-icon{fill:#552222;}#my-svg .error-text{fill:#552222;stroke:#552222;}#my-svg .edge-thickness-normal{stroke-width:1px;}#my-svg .edge-thickness-thick{stroke-width:3.5px;}#my-svg .edge-pattern-solid{stroke-dasharray:0;}#my-svg .edge-thickness-invisible{stroke-width:0;fill:none;}#my-svg .edge-pattern-dashed{stroke-dasharray:3;}#my-svg .edge-pattern-dotted{stroke-dasharray:2;}#my-svg .marker{fill:#333333;stroke:#333333;}#my-svg .marker.cross{stroke:#333333;}#my-svg svg{font-family:"trebuchet ms",verdana,arial,sans-serif;font-size:16px;}#my-svg p{margin:0;}#my-svg .label{font-family:"trebuchet ms",verdana,arial,sans-serif;color:#333;}#my-svg .cluster-label text{fill:#333;}#my-svg .cluster-label span{color:#333;}#my-svg .cluster-label span p{background-color:transparent;}#my-svg .label text,#my-svg span{fill:#333;color:#333;}#my-svg .node rect,#my-svg .node circle,#my-svg .node ellipse,#my-svg .node polygon,#my-svg .node path{fill:#ECECFF;stroke:#9370DB;stroke-width:1px;}#my-svg .rough-node .label text,#my-svg .node .label text,#my-svg .image-shape .label,#my-svg .icon-shape .label{text-anchor:middle;}#my-svg .node .katex path{fill:#000;stroke:#000;stroke-width:1px;}#my-svg .rough-node .label,#my-svg .node .label,#my-svg .image-shape .label,#my-svg .icon-shape .label{text-align:center;}#my-svg .node.clickable{cursor:pointer;}#my-svg .root .anchor path{fill:#333333!important;stroke-width:0;stroke:#333333;}#my-svg .arrowheadPath{fill:#333333;}#my-svg .edgePath .path{stroke:#333333;stroke-width:1px;}#my-svg .flowchart-link{stroke:#333333;fill:none;}#my-svg .edgeLabel{background-color:rgba(232,232,232, 0.8);text-align:center;}#my-svg .edgeLabel p{background-color:rgba(232,232,232, 0.8);}#my-svg .edgeLabel rect{opacity:0.5;background-color:rgba(232,232,232, 0.8);fill:rgba(232,232,232, 0.8);}#my-svg .labelBkg{background-color:rgba(232, 232, 232, 0.5);}#my-svg .cluster rect{fill:#ffffde;stroke:#aaaa33;stroke-width:1px;}#my-svg .cluster text{fill:#333;}#my-svg .cluster span{color:#333;}#my-svg div.mermaidTooltip{position:absolute;text-align:center;max-width:200px;padding:2px;font-family:"trebuchet ms",verdana,arial,sans-serif;font-size:12px;background:hsl(80, 100%, 96.2745098039%);border:1px solid #aaaa33;border-radius:2px;pointer-events:none;z-index:100;}#my-svg .flowchartTitleText{text-anchor:middle;font-size:18px;fill:#333;}#my-svg rect.text{fill:none;stroke-width:0;}#my-svg .icon-shape,#my-svg .image-shape{background-color:rgba(232,232,232, 0.8);text-align:center;}#my-svg .icon-shape p,#my-svg .image-shape p{background-color:rgba(232,232,232, 0.8);padding:2px;}#my-svg .icon-shape .label rect,#my-svg .image-shape .label rect{opacity:0.5;background-color:rgba(232,232,232, 0.8);fill:rgba(232,232,232, 0.8);}#my-svg .label-icon{display:inline-block;height:1em;overflow:visible;vertical-align:-0.125em;}#my-svg .node .label-icon path{fill:currentColor;stroke:revert;stroke-width:revert;}#my-svg .node .neo-node{stroke:#9370DB;}#my-svg [data-look="neo"].node rect,#my-svg [data-look="neo"].cluster rect,#my-svg [data-look="neo"].node polygon{stroke:#9370DB;filter:drop-shadow(1px 2px 2px rgba(185, 185, 185, 1));}#my-svg [data-look="neo"].node path{stroke:#9370DB;stroke-width:1px;}#my-svg [data-look="neo"].node .outer-path{filter:drop-shadow(1px 2px 2px rgba(185, 185, 185, 1));}#my-svg [data-look="neo"].node .neo-line path{stroke:#9370DB;filter:none;}#my-svg [data-look="neo"].node circle{stroke:#9370DB;filter:drop-shadow(1px 2px 2px rgba(185, 185, 185, 1));}#my-svg [data-look="neo"].node circle .state-start{fill:#000000;}#my-svg [data-look="neo"].icon-shape .icon{fill:#9370DB;filter:drop-shadow(1px 2px 2px rgba(185, 185, 185, 1));}#my-svg [data-look="neo"].icon-shape .icon-neo path{stroke:#9370DB;filter:drop-shadow(1px 2px 2px rgba(185, 185, 185, 1));}#my-svg :root{--mermaid-font-family:"trebuchet ms",verdana,arial,sans-serif;}</style><g><marker id="my-svg_flowchart-v2-pointEnd" class="marker flowchart-v2" viewBox="0 0 10 10" refX="5" refY="5" markerUnits="userSpaceOnUse" markerWidth="8" markerHeight="8" orient="auto"><path d="M 0 0 L 10 5 L 0 10 z" class="arrowMarkerPath" style="stroke-width: 1; stroke-dasharray: 1, 0;"/></marker><marker id="my-svg_flowchart-v2-pointStart" class="marker flowchart-v2" viewBox="0 0 10 10" refX="4.5" refY="5" markerUnits="userSpaceOnUse" markerWidth="8" markerHeight="8" orient="auto"><path d="M 0 5 L 10 10 L 10 0 z" class="arrowMarkerPath" style="stroke-width: 1; stroke-dasharray: 1, 0;"/></marker><marker id="my-svg_flowchart-v2-pointEnd-margin" class="marker flowchart-v2" viewBox="0 0 11.5 14" refX="11.5" refY="7" markerUnits="userSpaceOnUse" markerWidth="10.5" markerHeight="14" orient="auto"><path d="M 0 0 L 11.5 7 L 0 14 z" class="arrowMarkerPath" style="stroke-width: 0; stroke-dasharray: 1, 0;"/></marker><marker id="my-svg_flowchart-v2-pointStart-margin" class="marker flowchart-v2" viewBox="0 0 11.5 14" refX="1" refY="7" markerUnits="userSpaceOnUse" markerWidth="11.5" markerHeight="14" orient="auto"><polygon points="0,7 11.5,14 11.5,0" class="arrowMarkerPath" style="stroke-width: 0; stroke-dasharray: 1, 0;"/></marker><marker id="my-svg_flowchart-v2-circleEnd" class="marker flowchart-v2" viewBox="0 0 10 10" refX="11" refY="5" markerUnits="userSpaceOnUse" markerWidth="11" markerHeight="11" orient="auto"><circle cx="5" cy="5" r="5" class="arrowMarkerPath" style="stroke-width: 1; stroke-dasharray: 1, 0;"/></marker><marker id="my-svg_flowchart-v2-circleStart" class="marker flowchart-v2" viewBox="0 0 10 10" refX="-1" refY="5" markerUnits="userSpaceOnUse" markerWidth="11" markerHeight="11" orient="auto"><circle cx="5" cy="5" r="5" class="arrowMarkerPath" style="stroke-width: 1; stroke-dasharray: 1, 0;"/></marker><marker id="my-svg_flowchart-v2-circleEnd-margin" class="marker flowchart-v2" viewBox="0 0 10 10" refY="5" refX="12.25" markerUnits="userSpaceOnUse" markerWidth="14" markerHeight="14" orient="auto"><circle cx="5" cy="5" r="5" class="arrowMarkerPath" style="stroke-width: 0; stroke-dasharray: 1, 0;"/></marker><marker id="my-svg_flowchart-v2-circleStart-margin" class="marker flowchart-v2" viewBox="0 0 10 10" refX="-2" refY="5" markerUnits="userSpaceOnUse" markerWidth="14" markerHeight="14" orient="auto"><circle cx="5" cy="5" r="5" class="arrowMarkerPath" style="stroke-width: 0; stroke-dasharray: 1, 0;"/></marker><marker id="my-svg_flowchart-v2-crossEnd" class="marker cross flowchart-v2" viewBox="0 0 11 11" refX="12" refY="5.2" markerUnits="userSpaceOnUse" markerWidth="11" markerHeight="11" orient="auto"><path d="M 1,1 l 9,9 M 10,1 l -9,9" class="arrowMarkerPath" style="stroke-width: 2; stroke-dasharray: 1, 0;"/></marker><marker id="my-svg_flowchart-v2-crossStart" class="marker cross flowchart-v2" viewBox="0 0 11 11" refX="-1" refY="5.2" markerUnits="userSpaceOnUse" markerWidth="11" markerHeight="11" orient="auto"><path d="M 1,1 l 9,9 M 10,1 l -9,9" class="arrowMarkerPath" style="stroke-width: 2; stroke-dasharray: 1, 0;"/></marker><marker id="my-svg_flowchart-v2-crossEnd-margin" class="marker cross flowchart-v2" viewBox="0 0 15 15" refX="17.7" refY="7.5" markerUnits="userSpaceOnUse" markerWidth="12" markerHeight="12" orient="auto"><path d="M 1,1 L 14,14 M 1,14 L 14,1" class="arrowMarkerPath" style="stroke-width: 2.5;"/></marker><marker id="my-svg_flowchart-v2-crossStart-margin" class="marker cross flowchart-v2" viewBox="0 0 15 15" refX="-3.5" refY="7.5" markerUnits="userSpaceOnUse" markerWidth="12" markerHeight="12" orient="auto"><path d="M 1,1 L 14,14 M 1,14 L 14,1" class="arrowMarkerPath" style="stroke-width: 2.5; stroke-dasharray: 1, 0;"/></marker><g class="root"><g class="clusters"/><g class="edgePaths"><path d="M138.5,119.5L138.417,123.583C138.333,127.667,138.167,135.833,138.154,143.5C138.141,151.167,138.281,158.334,138.351,161.917L138.422,165.501" id="my-svg-L_START1_GRP2_0" class="edge-thickness-normal edge-pattern-solid edge-thickness-normal edge-pattern-solid flowchart-link" style=";" data-edge="true" data-et="edge" data-id="L_START1_GRP2_0" data-points="W3sieCI6MTM4LjUsInkiOjExOS41fSx7IngiOjEzOCwieSI6MTQ0fSx7IngiOjEzOC41LCJ5IjoxNjkuNX1d" data-look="classic" marker-end="url(#my-svg_flowchart-v2-pointEnd)"/><path d="M138.5,208.5L138.417,212.583C138.333,216.667,138.167,224.833,138.083,232.417C138,240,138,247,138,250.5L138,254" id="my-svg-L_GRP2_ELEM3_0" class="edge-thickness-normal edge-pattern-solid edge-thickness-normal edge-pattern-solid flowchart-link" style=";" data-edge="true" data-et="edge" data-id="L_GRP2_ELEM3_0" data-points="W3sieCI6MTM4LjUsInkiOjIwOC41fSx7IngiOjEzOCwieSI6MjMzfSx7IngiOjEzOCwieSI6MjU4fV0=" data-look="classic" marker-end="url(#my-svg_flowchart-v2-pointEnd)"/><path d="M138,360L138,364.167C138,368.333,138,376.667,138,384.333C138,392,138,399,138,402.5L138,406" id="my-svg-L_ELEM3_ELEM4_0" class="edge-thickness-normal edge-pattern-solid edge-thickness-normal edge-pattern-solid flowchart-link" style=";" data-edge="true" data-et="edge" data-id="L_ELEM3_ELEM4_0" data-points="W3sieCI6MTM4LCJ5IjozNjB9LHsieCI6MTM4LCJ5IjozODV9LHsieCI6MTM4LCJ5Ijo0MTB9XQ==" data-look="classic" marker-end="url(#my-svg_flowchart-v2-pointEnd)"/><path d="M138,536L138,540.167C138,544.333,138,552.667,138,560.333C138,568,138,575,138,578.5L138,582" id="my-svg-L_ELEM4_ELEM5_0" class="edge-thickness-normal edge-pattern-solid edge-thickness-normal edge-pattern-solid flowchart-link" style=";" data-edge="true" data-et="edge" data-id="L_ELEM4_ELEM5_0" data-points="W3sieCI6MTM4LCJ5Ijo1MzZ9LHsieCI6MTM4LCJ5Ijo1NjF9LHsieCI6MTM4LCJ5Ijo1ODZ9XQ==" data-look="classic" marker-end="url(#my-svg_flowchart-v2-pointEnd)"/><path d="M138,688L138,692.167C138,696.333,138,704.667,138.07,712.417C138.141,720.167,138.281,727.334,138.351,730.917L138.422,734.501" id="my-svg-L_ELEM5_PENALTY6_0" class="edge-thickness-normal edge-pattern-solid edge-thickness-normal edge-pattern-solid flowchart-link" style=";" data-edge="true" data-et="edge" data-id="L_ELEM5_PENALTY6_0" data-points="W3sieCI6MTM4LCJ5Ijo2ODh9LHsieCI6MTM4LCJ5Ijo3MTN9LHsieCI6MTM4LjUsInkiOjczOC41fV0=" data-look="classic" marker-end="url(#my-svg_flowchart-v2-pointEnd)"/></g><g class="edgeLabels"><g class="edgeLabel"><g class="label" data-id="L_START1_GRP2_0" transform="translate(0, 0)"><foreignObject width="0" height="0"><div xmlns="http://www.w3.org/1999/xhtml" class="labelBkg" style="display: table-cell; white-space: nowrap; line-height: 1.5; max-width: 200px; text-align: center;"><span class="edgeLabel"></span></div></foreignObject></g></g><g class="edgeLabel"><g class="label" data-id="L_GRP2_ELEM3_0" transform="translate(0, 0)"><foreignObject width="0" height="0"><div xmlns="http://www.w3.org/1999/xhtml" class="labelBkg" style="display: table-cell; white-space: nowrap; line-height: 1.5; max-width: 200px; text-align: center;"><span class="edgeLabel"></span></div></foreignObject></g></g><g class="edgeLabel"><g class="label" data-id="L_ELEM3_ELEM4_0" transform="translate(0, 0)"><foreignObject width="0" height="0"><div xmlns="http://www.w3.org/1999/xhtml" class="labelBkg" style="display: table-cell; white-space: nowrap; line-height: 1.5; max-width: 200px; text-align: center;"><span class="edgeLabel"></span></div></foreignObject></g></g><g class="edgeLabel"><g class="label" data-id="L_ELEM4_ELEM5_0" transform="translate(0, 0)"><foreignObject width="0" height="0"><div xmlns="http://www.w3.org/1999/xhtml" class="labelBkg" style="display: table-cell; white-space: nowrap; line-height: 1.5; max-width: 200px; text-align: center;"><span class="edgeLabel"></span></div></foreignObject></g></g><g class="edgeLabel"><g class="label" data-id="L_ELEM5_PENALTY6_0" transform="translate(0, 0)"><foreignObject width="0" height="0"><div xmlns="http://www.w3.org/1999/xhtml" class="labelBkg" style="display: table-cell; white-space: nowrap; line-height: 1.5; max-width: 200px; text-align: center;"><span class="edgeLabel"></span></div></foreignObject></g></g></g><g class="nodes"><g class="node default" id="my-svg-flowchart-START1-0" data-look="classic" transform="translate(138, 63.5)"><g class="basic label-container outer-path"><path d="M-65.875 -55.5 C-17.999579575519924 -55.5, 29.875840848960152 -55.5, 65.875 -55.5 C65.875 -55.5, 65.875 -55.5, 65.875 -55.5 C66.8188901889802 -55.4697312788102, 67.7627803779604 -55.43946255762041, 69.43089720892957 -55.38596929764367 C70.82203977131975 -55.2517674477436, 72.21318233370992 -55.11756559784354, 72.97218247349008 -55.044345767190165 C73.78077630724243 -54.91361858688792, 74.58937014099479 -54.78289140658567, 76.48430389292615 -54.47653321300413 C77.26050478471325 -54.29937042463791, 78.03670567650036 -54.12220763627169, 79.95282940697766 -53.684864898666135 C81.14051299119143 -53.33236664514984, 82.3281965754052 -52.979868391633545, 83.36350610031094 -52.67259395909211 C84.54487226205099 -52.23784029114269, 85.72623842379103 -51.80308662319326, 86.70231877080526 -51.44388003270421 C87.82627683025987 -50.946337140814876, 88.9502348897145 -50.448794248925545, 89.95554752102447 -50.00377216858426 C91.17097083933234 -49.36968660193884, 92.38639415764021 -48.735601035293406, 93.10982413621853 -48.358188078848116 C93.96250120551429 -47.84129022855437, 94.81517827481004 -47.324392378260626, 96.15218701718544 -46.51388982149716 C97.01134355872004 -45.914579410409864, 97.87050010025466 -45.31526899932257, 99.07013444226249 -44.47845601367159 C100.04519523885914 -43.70087097584327, 101.0202560354558 -42.923285938014956, 101.85167593958224 -42.260250689486966 C102.78658818082236 -41.41118812841508, 103.72150042206248 -40.56212556734319, 104.48538155849349 -39.86838893042388 C105.32419651853095 -39.00224361619622, 106.16301147856842 -38.13609830196855, 106.96042883768001 -37.3126994095031 C107.43143061559165 -36.75943392040769, 107.90243239350328 -36.206168431312285, 109.26664727697565 -34.603684003159714 C109.9652928456433 -33.667562589065724, 110.66393841431096 -32.73144117497173, 111.39456013013104 -31.752474636780427 C112.14791177930309 -30.59512420040924, 112.90126342847513 -29.437773764038056, 113.33542334679672 -28.770787541234146 C113.76030493387997 -28.016367259441797, 114.1851865209632 -27.26194697764945, 115.08126150370151 -25.670875108366356 C115.65152266581337 -24.486715603606868, 116.22178382792524 -23.302556098847376, 116.62490057737759 -22.46547554329287 C117.04220605004248 -21.434722957758137, 117.45951152270737 -20.4039703722234, 117.95999742376169 -19.1677605203826 C118.30387908972807 -18.132043732594717, 118.64776075569443 -17.096326944806833, 119.08106584353466 -15.791281058022316 C119.26245716722417 -15.099557325297225, 119.44384849091368 -14.407833592572135, 119.9834991260912 -12.349911834575455 C120.24507284503193 -11.006786071439947, 120.50664656397264 -9.663660308304438, 120.66358897950198 -8.857794174352568 C120.84022564379306 -7.4878350869656405, 121.01686230808413 -6.117875999578713, 121.1185407686805 -5.3292779378763475 C121.20703019558472 -3.9509836864633723, 121.29551962248892 -2.572689435050397, 121.34648499913817 -1.7788625552268618 C121.34648499913817 -0.6219436510471203, 121.34648499913817 0.5349752531326211, 121.34648499913817 1.7788625552268482 C121.271360830435 2.94898212191636, 121.19623666173182 4.119101688605872, 121.1185407686805 5.32927793787631 C120.96895569819276 6.489430205666019, 120.81937062770501 7.649582473455728, 120.66358897950198 8.857794174352529 C120.42639524280487 10.075733881378184, 120.18920150610776 11.293673588403841, 119.9834991260912 12.349911834575442 C119.69456492686668 13.45174316109264, 119.40563072764216 14.553574487609838, 119.08106584353467 15.79128105802228 C118.69253139738167 16.961484905277928, 118.30399695122867 18.131688752533577, 117.9599974237617 19.16776052038256 C117.62544281889568 19.99411686257491, 117.29088821402965 20.820473204767257, 116.62490057737759 22.465475543292854 C116.10554456062366 23.543929424520996, 115.58618854386971 24.622383305749135, 115.08126150370151 25.670875108366346 C114.64853432013263 26.439226041171743, 114.21580713656374 27.207576973977144, 113.33542334679672 28.770787541234135 C112.90917025379053 29.4256267570737, 112.48291716078437 30.080465972913267, 111.39456013013105 31.7524746367804 C110.78742691721814 32.565977831110146, 110.18029370430524 33.379481025439894, 109.26664727697566 34.6036840031597 C108.36232394430895 35.66595364716537, 107.45800061164225 36.728223291171034, 106.96042883768003 37.31269940950306 C106.13680147603318 38.1631622814674, 105.31317411438634 39.01362515343174, 104.48538155849351 39.86838893042387 C103.74281335598802 40.542769724661355, 103.00024515348254 41.21715051889884, 101.8516759395823 42.26025068948693 C101.0549957548773 42.89558193623908, 100.2583155701723 43.530913182991235, 99.0701344422625 44.47845601367158 C98.14184225394689 45.12599245911939, 97.21355006563128 45.7735289045672, 96.15218701718548 46.51388982149714 C95.31948840769006 47.01867661205347, 94.48678979819462 47.52346340260979, 93.10982413621855 48.358188078848116 C92.19987259460412 48.83290921525658, 91.2899210529897 49.30763035166505, 89.95554752102449 50.003772168584256 C88.76436056282797 50.5310752996722, 87.57317360463145 51.05837843076016, 86.70231877080529 51.4438800327042 C85.49470019334098 51.88829483231483, 84.28708161587667 52.33270963192545, 83.36350610031099 52.6725939590921 C82.34351424638473 52.975322187290914, 81.32352239245849 53.27805041548973, 79.95282940697771 53.68486489866612 C78.63967372608441 53.98458411368837, 77.32651804519112 54.28430332871062, 76.48430389292618 54.476533213004124 C75.33701873532914 54.66201737995514, 74.18973357773208 54.847501546906145, 72.97218247349011 55.04434576719016 C72.00307087619443 55.137834797454055, 71.03395927889875 55.23132382771795, 69.43089720892957 55.38596929764367 C68.246527530037 55.42394972801002, 67.06215785114443 55.461930158376376, 65.87500000000001 55.5 C65.87500000000001 55.5, 65.875 55.5, 65.875 55.5 C36.383567025297154 55.5, 6.892134050594301 55.5, -65.87499999999999 55.5 C-66.70014996208653 55.473539046772856, -67.52529992417305 55.447078093545706, -69.43089720892954 55.38596929764367 C-70.23683262358693 55.30822167747082, -71.04276803824433 55.23047405729796, -72.9721824734901 55.04434576719016 C-73.86216613823534 54.90046011020055, -74.75214980298057 54.75657445321094, -76.48430389292616 54.476533213004124 C-77.76473460090328 54.18428325949959, -79.04516530888039 53.89203330599506, -79.95282940697764 53.684864898666135 C-80.66439382027943 53.473676315875984, -81.37595823358123 53.26248773308584, -83.36350610031091 52.67259395909212 C-84.03492354336221 52.425506133534434, -84.7063409864135 52.178418307976756, -86.70231877080526 51.44388003270421 C-87.78092711847862 50.96641211296904, -88.85953546615198 50.48894419323386, -89.95554752102447 50.00377216858427 C-91.12142628521964 49.395533964084635, -92.2873050494148 48.78729575958501, -93.10982413621852 48.35818807884812 C-94.12698632042975 47.74157838527079, -95.14414850464098 47.124968691693454, -96.15218701718541 46.51388982149718 C-97.02759032480326 45.903246369701385, -97.90299363242111 45.29260291790559, -99.07013444226249 44.4784560136716 C-100.08393525262086 43.66997684578337, -101.09773606297925 42.861497677895144, -101.85167593958224 42.26025068948697 C-102.57275708066557 41.60538387591661, -103.29383822174889 40.95051706234624, -104.48538155849347 39.868388930423905 C-105.34571530064486 38.980023706938745, -106.20604904279624 38.091658483453585, -106.96042883768001 37.31269940950308 C-107.82583661486926 36.29614219131908, -108.69124439205851 35.27958497313507, -109.26664727697565 34.60368400315972 C-110.09375825888198 33.49543063876582, -110.9208692407883 32.38717727437191, -111.39456013013104 31.752474636780434 C-112.0618001953875 30.727414717501542, -112.72904026064398 29.70235479822265, -113.33542334679669 28.77078754123417 C-113.94370565590881 27.69072070614264, -114.55198796502094 26.610653871051106, -115.0812615037015 25.670875108366364 C-115.45785567455489 24.888869254764863, -115.8344498454083 24.106863401163363, -116.62490057737759 22.465475543292875 C-117.09697805215521 21.299435053595076, -117.56905552693283 20.133394563897273, -117.95999742376169 19.167760520382608 C-118.232507496811 18.34700359894189, -118.5050175698603 17.52624667750117, -119.08106584353466 15.791281058022301 C-119.35244129669238 14.756408840266555, -119.62381674985008 13.72153662251081, -119.9834991260912 12.349911834575463 C-120.22777552643382 11.095604146651642, -120.47205192677643 9.841296458727818, -120.66358897950198 8.857794174352573 C-120.78289317839508 7.932494367016469, -120.90219737728819 7.007194559680365, -121.1185407686805 5.3292779378763795 C-121.20945498997165 3.9132155566282045, -121.30036921126279 2.4971531753800296, -121.34648499913817 1.7788625552268686 C-121.34648499913817 0.40874997135156055, -121.34648499913817 -0.9613626125237476, -121.34648499913817 -1.7788625552268416 C-121.29477290608533 -2.584320145775102, -121.24306081303249 -3.389777736323363, -121.1185407686805 -5.329277937876303 C-120.97941993374343 -6.408271661132038, -120.84029909880636 -7.487265384387774, -120.66358897950198 -8.857794174352547 C-120.44663215096989 -9.971821635022877, -120.2296753224378 -11.085849095693208, -119.9834991260912 -12.349911834575437 C-119.76819366884219 -13.170964857041376, -119.55288821159319 -13.992017879507317, -119.08106584353467 -15.791281058022273 C-118.85606092969623 -16.468960008839122, -118.6310560158578 -17.14663895965597, -117.95999742376172 -19.167760520382537 C-117.45587432871407 -20.412954311707217, -116.95175123366641 -21.658148103031895, -116.62490057737759 -22.46547554329285 C-116.17406853797074 -23.40163791938151, -115.72323649856389 -24.33780029547017, -115.08126150370151 -25.67087510836634 C-114.55075908549581 -26.612835871085522, -114.02025666729011 -27.554796633804706, -113.33542334679672 -28.770787541234153 C-112.9356634345716 -29.38492611697887, -112.53590352234647 -29.99906469272359, -111.39456013013105 -31.752474636780416 C-110.81795944414439 -32.525067026599416, -110.24135875815773 -33.29765941641842, -109.26664727697568 -34.6036840031597 C-108.71942645674456 -35.246480716349936, -108.17220563651344 -35.88927742954018, -106.96042883768004 -37.31269940950306 C-106.04696627350651 -38.25592450368349, -105.13350370933297 -39.19914959786392, -104.48538155849351 -39.86838893042385 C-103.46191582918577 -40.79787342636185, -102.43845009987803 -41.72735792229986, -101.8516759395823 -42.260250689486924 C-100.86916875525101 -43.04377402337691, -99.88666157091971 -43.8272973572669, -99.07013444226251 -44.47845601367158 C-98.20681695790573 -45.080668918347314, -97.34349947354896 -45.68288182302304, -96.15218701718548 -46.51388982149714 C-95.38173501447194 -46.98094235322062, -94.61128301175839 -47.4479948849441, -93.10982413621855 -48.35818807884811 C-91.87112124510215 -49.00441858371647, -90.63241835398576 -49.65064908858483, -89.9555475210245 -50.003772168584256 C-88.80399143625408 -50.51353188761456, -87.65243535148366 -51.02329160664486, -86.70231877080529 -51.44388003270419 C-85.62942157817889 -51.83871611734364, -84.5565243855525 -52.23355220198308, -83.36350610031099 -52.6725939590921 C-82.08427798483777 -53.052262148959144, -80.80504986936455 -53.43193033882619, -79.95282940697771 -53.68486489866611 C-78.70405900705772 -53.96988859345943, -77.45528860713772 -54.25491228825275, -76.48430389292619 -54.47653321300412 C-75.77764333367767 -54.59078061198893, -75.07098277442915 -54.705028010973756, -72.97218247349012 -55.04434576719016 C-71.70264265739054 -55.16681674640427, -70.43310284129096 -55.28928772561839, -69.43089720892957 -55.38596929764367 C-68.20431491455236 -55.42530340442674, -66.97773262017515 -55.464637511209816, -65.87500000000001 -55.5 C-65.87500000000001 -55.5, -65.875 -55.5, -65.875 -55.5" stroke="none" stroke-width="0" fill="#ECECFF" style=""/><path d="M-65.875 -55.5 C-21.459192173971687 -55.5, 22.956615652056627 -55.5, 65.875 -55.5 M-65.875 -55.5 C-17.052998044622903 -55.5, 31.769003910754193 -55.5, 65.875 -55.5 M65.875 -55.5 C65.875 -55.5, 65.875 -55.5, 65.875 -55.5 M65.875 -55.5 C65.875 -55.5, 65.875 -55.5, 65.875 -55.5 M65.875 -55.5 C66.96146554110925 -55.46515916477351, 68.04793108221851 -55.43031832954703, 69.43089720892957 -55.38596929764367 M65.875 -55.5 C66.96732195775469 -55.464971360890516, 68.05964391550938 -55.42994272178103, 69.43089720892957 -55.38596929764367 M69.43089720892957 -55.38596929764367 C70.33052015426617 -55.299183754061936, 71.23014309960277 -55.2123982104802, 72.97218247349008 -55.044345767190165 M69.43089720892957 -55.38596929764367 C70.19232520850089 -55.31251525427617, 70.95375320807221 -55.23906121090867, 72.97218247349008 -55.044345767190165 M72.97218247349008 -55.044345767190165 C74.1621414235353 -54.851962432416336, 75.35210037358051 -54.659579097642506, 76.48430389292615 -54.47653321300413 M72.97218247349008 -55.044345767190165 C73.70745418428778 -54.92547273910567, 74.44272589508549 -54.80659971102118, 76.48430389292615 -54.47653321300413 M76.48430389292615 -54.47653321300413 C77.3583714358812 -54.27703300014841, 78.23243897883626 -54.07753278729269, 79.95282940697766 -53.684864898666135 M76.48430389292615 -54.47653321300413 C77.79842654145992 -54.17659329392799, 79.1125491899937 -53.87665337485186, 79.95282940697766 -53.684864898666135 M79.95282940697766 -53.684864898666135 C81.00303356446808 -53.37316981735709, 82.05323772195851 -53.06147473604805, 83.36350610031094 -52.67259395909211 M79.95282940697766 -53.684864898666135 C81.20009855913887 -53.31468196135407, 82.44736771130007 -52.944499024042, 83.36350610031094 -52.67259395909211 M83.36350610031094 -52.67259395909211 C84.29611551101425 -52.32938507500641, 85.22872492171756 -51.9861761909207, 86.70231877080526 -51.44388003270421 M83.36350610031094 -52.67259395909211 C84.69121810687692 -52.183983667440586, 86.01893011344289 -51.69537337578906, 86.70231877080526 -51.44388003270421 M86.70231877080526 -51.44388003270421 C87.77204845499466 -50.97034243391719, 88.84177813918404 -50.49680483513018, 89.95554752102447 -50.00377216858426 M86.70231877080526 -51.44388003270421 C87.8194351012165 -50.949365771309694, 88.93655143162773 -50.45485150991519, 89.95554752102447 -50.00377216858426 M89.95554752102447 -50.00377216858426 C90.94842662107322 -49.485787778058246, 91.94130572112196 -48.96780338753223, 93.10982413621853 -48.358188078848116 M89.95554752102447 -50.00377216858426 C91.14230583287484 -49.384641117446904, 92.32906414472521 -48.765510066309545, 93.10982413621853 -48.358188078848116 M93.10982413621853 -48.358188078848116 C94.18123729029837 -47.70869112852235, 95.2526504443782 -47.05919417819658, 96.15218701718544 -46.51388982149716 M93.10982413621853 -48.358188078848116 C93.7884017113656 -47.9468303650295, 94.46697928651267 -47.53547265121088, 96.15218701718544 -46.51388982149716 M96.15218701718544 -46.51388982149716 C97.21252484126138 -45.77424405670639, 98.27286266533733 -45.034598291915614, 99.07013444226249 -44.47845601367159 M96.15218701718544 -46.51388982149716 C97.26809943586146 -45.7354776252988, 98.38401185453748 -44.95706542910044, 99.07013444226249 -44.47845601367159 M99.07013444226249 -44.47845601367159 C99.65672869324641 -44.0106627084405, 100.24332294423034 -43.542869403209416, 101.85167593958224 -42.260250689486966 M99.07013444226249 -44.47845601367159 C99.80609051562196 -43.89155062978102, 100.54204658898144 -43.304645245890455, 101.85167593958224 -42.260250689486966 M101.85167593958224 -42.260250689486966 C102.42147252748684 -41.74277650434358, 102.99126911539145 -41.22530231920019, 104.48538155849349 -39.86838893042388 M101.85167593958224 -42.260250689486966 C102.6915605931408 -41.49748966925527, 103.53144524669938 -40.73472864902358, 104.48538155849349 -39.86838893042388 M104.48538155849349 -39.86838893042388 C105.24260959832215 -39.086488809722525, 105.99983763815082 -38.304588689021166, 106.96042883768001 -37.3126994095031 M104.48538155849349 -39.86838893042388 C105.06353952783824 -39.271393359423364, 105.641697497183 -38.67439778842285, 106.96042883768001 -37.3126994095031 M106.96042883768001 -37.3126994095031 C107.70244088299289 -36.441089839397115, 108.44445292830576 -35.56948026929114, 109.26664727697565 -34.603684003159714 M106.96042883768001 -37.3126994095031 C107.6985627235159 -36.44564534619231, 108.4366966093518 -35.57859128288152, 109.26664727697565 -34.603684003159714 M109.26664727697565 -34.603684003159714 C109.74847449109876 -33.95807943159697, 110.23030170522186 -33.31247486003422, 111.39456013013104 -31.752474636780427 M109.26664727697565 -34.603684003159714 C110.09008324765252 -33.50035481901288, 110.91351921832938 -32.39702563486604, 111.39456013013104 -31.752474636780427 M111.39456013013104 -31.752474636780427 C112.05652404688622 -30.735520298443774, 112.7184879636414 -29.71856596010712, 113.33542334679672 -28.770787541234146 M111.39456013013104 -31.752474636780427 C112.11415474266101 -30.646984073725026, 112.83374935519099 -29.541493510669625, 113.33542334679672 -28.770787541234146 M113.33542334679672 -28.770787541234146 C114.02730739665684 -27.542277349850306, 114.71919144651697 -26.31376715846647, 115.08126150370151 -25.670875108366356 M113.33542334679672 -28.770787541234146 C113.87861089503183 -27.806303045639048, 114.42179844326694 -26.84181855004395, 115.08126150370151 -25.670875108366356 M115.08126150370151 -25.670875108366356 C115.48491191250024 -24.832686397760625, 115.88856232129896 -23.994497687154894, 116.62490057737759 -22.46547554329287 M115.08126150370151 -25.670875108366356 C115.5257839774821 -24.747814680303694, 115.97030645126269 -23.824754252241036, 116.62490057737759 -22.46547554329287 M116.62490057737759 -22.46547554329287 C116.93176887434022 -21.70750491690027, 117.23863717130284 -20.94953429050767, 117.95999742376169 -19.1677605203826 M116.62490057737759 -22.46547554329287 C117.13092220671862 -21.21559233555785, 117.63694383605966 -19.965709127822834, 117.95999742376169 -19.1677605203826 M117.95999742376169 -19.1677605203826 C118.30992266882511 -18.113841435267975, 118.65984791388853 -17.05992235015335, 119.08106584353466 -15.791281058022316 M117.95999742376169 -19.1677605203826 C118.32000754430807 -18.083467397120025, 118.68001766485443 -16.999174273857452, 119.08106584353466 -15.791281058022316 M119.08106584353466 -15.791281058022316 C119.36045464952257 -14.72585045291595, 119.63984345551047 -13.660419847809585, 119.9834991260912 -12.349911834575455 M119.08106584353466 -15.791281058022316 C119.31315438951053 -14.906226844404232, 119.54524293548639 -14.021172630786147, 119.9834991260912 -12.349911834575455 M119.9834991260912 -12.349911834575455 C120.13330608554172 -11.580684759509161, 120.28311304499223 -10.81145768444287, 120.66358897950198 -8.857794174352568 M119.9834991260912 -12.349911834575455 C120.22803412709587 -11.09427628690727, 120.47256912810053 -9.838640739239086, 120.66358897950198 -8.857794174352568 M120.66358897950198 -8.857794174352568 C120.82814334769782 -7.58154298956109, 120.99269771589366 -6.305291804769611, 121.1185407686805 -5.3292779378763475 M120.66358897950198 -8.857794174352568 C120.7694176770466 -8.037007694436598, 120.87524637459121 -7.216221214520628, 121.1185407686805 -5.3292779378763475 M121.1185407686805 -5.3292779378763475 C121.20706748297233 -3.9504029053034535, 121.29559419726415 -2.5715278727305595, 121.34648499913817 -1.7788625552268618 M121.1185407686805 -5.3292779378763475 C121.18305644900717 -4.324394140668635, 121.24757212933383 -3.3195103434609226, 121.34648499913817 -1.7788625552268618 M121.34648499913817 -1.7788625552268618 C121.34648499913817 -0.40604468146376793, 121.34648499913817 0.9667731922993259, 121.34648499913817 1.7788625552268482 M121.34648499913817 -1.7788625552268618 C121.34648499913817 -1.063656908497878, 121.34648499913817 -0.3484512617688942, 121.34648499913817 1.7788625552268482 M121.34648499913817 1.7788625552268482 C121.2720640218231 2.938029348440887, 121.19764304450801 4.097196141654925, 121.1185407686805 5.32927793787631 M121.34648499913817 1.7788625552268482 C121.28101424220388 2.7986224415223164, 121.21554348526958 3.818382327817784, 121.1185407686805 5.32927793787631 M121.1185407686805 5.32927793787631 C120.9736279134277 6.4531934269369975, 120.82871505817491 7.577108915997686, 120.66358897950198 8.857794174352529 M121.1185407686805 5.32927793787631 C120.96262035024633 6.538565913282546, 120.80669993181216 7.74785388868878, 120.66358897950198 8.857794174352529 M120.66358897950198 8.857794174352529 C120.4111974703053 10.153771231113152, 120.15880596110861 11.449748287873776, 119.9834991260912 12.349911834575442 M120.66358897950198 8.857794174352529 C120.42155202933613 10.100602758926671, 120.17951507917027 11.343411343500813, 119.9834991260912 12.349911834575442 M119.9834991260912 12.349911834575442 C119.67606119257738 13.52230591950693, 119.36862325906355 14.69470000443842, 119.08106584353467 15.79128105802228 M119.9834991260912 12.349911834575442 C119.7530471879013 13.22872495339535, 119.5225952497114 14.107538072215256, 119.08106584353467 15.79128105802228 M119.08106584353467 15.79128105802228 C118.63415281485027 17.13731189449853, 118.18723978616588 18.48334273097478, 117.9599974237617 19.16776052038256 M119.08106584353467 15.79128105802228 C118.69301691972242 16.96002258934507, 118.30496799591018 18.128764120667856, 117.9599974237617 19.16776052038256 M117.9599974237617 19.16776052038256 C117.67676553629703 19.867348758336338, 117.39353364883235 20.566936996290114, 116.62490057737759 22.465475543292854 M117.9599974237617 19.16776052038256 C117.64048615090762 19.95695954166236, 117.32097487805355 20.746158562942163, 116.62490057737759 22.465475543292854 M116.62490057737759 22.465475543292854 C116.2019281474639 23.343786844168832, 115.7789557175502 24.22209814504481, 115.08126150370151 25.670875108366346 M116.62490057737759 22.465475543292854 C116.25876928960402 23.225754996309263, 115.89263800183045 23.986034449325672, 115.08126150370151 25.670875108366346 M115.08126150370151 25.670875108366346 C114.714663476866 26.32180702708842, 114.34806545003046 26.972738945810487, 113.33542334679672 28.770787541234135 M115.08126150370151 25.670875108366346 C114.46333803279842 26.768060802491238, 113.84541456189532 27.86524649661613, 113.33542334679672 28.770787541234135 M113.33542334679672 28.770787541234135 C112.73899743269095 29.68705790808343, 112.14257151858519 30.60332827493272, 111.39456013013105 31.7524746367804 M113.33542334679672 28.770787541234135 C112.93926103445838 29.3793992374619, 112.54309872212006 29.98801093368966, 111.39456013013105 31.7524746367804 M111.39456013013105 31.7524746367804 C110.9261204672156 32.380141109355904, 110.45768080430014 33.0078075819314, 109.26664727697566 34.6036840031597 M111.39456013013105 31.7524746367804 C110.5862906552794 32.83548209821765, 109.77802118042774 33.9184895596549, 109.26664727697566 34.6036840031597 M109.26664727697566 34.6036840031597 C108.76795179507754 35.18948009277403, 108.26925631317941 35.77527618238836, 106.96042883768003 37.31269940950306 M109.26664727697566 34.6036840031597 C108.35722710755428 35.671940681635625, 107.44780693813291 36.74019736011156, 106.96042883768003 37.31269940950306 M106.96042883768003 37.31269940950306 C106.05416910044211 38.248486993509395, 105.14790936320419 39.18427457751572, 104.48538155849351 39.86838893042387 M106.96042883768003 37.31269940950306 C106.1455183442681 38.15416139934667, 105.33060785085615 38.99562338919027, 104.48538155849351 39.86838893042387 M104.48538155849351 39.86838893042387 C103.8887702107908 40.41021557093624, 103.29215886308806 40.952042211448614, 101.8516759395823 42.26025068948693 M104.48538155849351 39.86838893042387 C103.89313580305608 40.406250855548144, 103.30089004761865 40.94411278067242, 101.8516759395823 42.26025068948693 M101.8516759395823 42.26025068948693 C101.0454856156059 42.90316601923259, 100.2392952916295 43.546081348978255, 99.0701344422625 44.47845601367158 M101.8516759395823 42.26025068948693 C101.1014958822782 42.85849932205722, 100.35131582497411 43.45674795462752, 99.0701344422625 44.47845601367158 M99.0701344422625 44.47845601367158 C97.9917115411452 45.23071714531604, 96.9132886400279 45.9829782769605, 96.15218701718548 46.51388982149714 M99.0701344422625 44.47845601367158 C98.422587937229 44.93015642374655, 97.77504143219548 45.381856833821516, 96.15218701718548 46.51388982149714 M96.15218701718548 46.51388982149714 C95.0188824544078 47.20090570748983, 93.88557789163012 47.88792159348253, 93.10982413621855 48.358188078848116 M96.15218701718548 46.51388982149714 C95.20044141701739 47.09084359739701, 94.24869581684928 47.667797373296885, 93.10982413621855 48.358188078848116 M93.10982413621855 48.358188078848116 C92.35125363568979 48.75393382308638, 91.59268313516102 49.14967956732463, 89.95554752102449 50.003772168584256 M93.10982413621855 48.358188078848116 C92.00945484681769 48.932250032308374, 90.90908555741682 49.50631198576864, 89.95554752102449 50.003772168584256 M89.95554752102449 50.003772168584256 C88.99193560763646 50.43033457810934, 88.02832369424843 50.856896987634414, 86.70231877080529 51.4438800327042 M89.95554752102449 50.003772168584256 C89.25454756927503 50.314084052799, 88.55354761752558 50.624395937013745, 86.70231877080529 51.4438800327042 M86.70231877080529 51.4438800327042 C85.38753328150662 51.927733246509945, 84.07274779220793 52.41158646031569, 83.36350610031099 52.6725939590921 M86.70231877080529 51.4438800327042 C85.9431851728989 51.72324821408781, 85.1840515749925 52.002616395471414, 83.36350610031099 52.6725939590921 M83.36350610031099 52.6725939590921 C82.29351108450513 52.99016286326483, 81.22351606869928 53.30773176743755, 79.95282940697771 53.68486489866612 M83.36350610031099 52.6725939590921 C82.18617105879342 53.02202081945677, 81.00883601727585 53.37144767982144, 79.95282940697771 53.68486489866612 M79.95282940697771 53.68486489866612 C78.64484130302907 53.98340464797234, 77.33685319908044 54.281944397278565, 76.48430389292618 54.476533213004124 M79.95282940697771 53.68486489866612 C78.7092422837344 53.968705544382026, 77.46565516049107 54.25254619009794, 76.48430389292618 54.476533213004124 M76.48430389292618 54.476533213004124 C75.37787931793271 54.65541135783834, 74.27145474293924 54.834289502672554, 72.97218247349011 55.04434576719016 M76.48430389292618 54.476533213004124 C75.28563138160983 54.67032528878959, 74.08695887029349 54.86411736457506, 72.97218247349011 55.04434576719016 M72.97218247349011 55.04434576719016 C71.85926527789708 55.151707550570265, 70.74634808230405 55.25906933395037, 69.43089720892957 55.38596929764367 M72.97218247349011 55.04434576719016 C72.09576546017946 55.128892662418565, 71.21934844686882 55.21343955764697, 69.43089720892957 55.38596929764367 M69.43089720892957 55.38596929764367 C68.42263703121361 55.41830223908364, 67.41437685349764 55.450635180523605, 65.87500000000001 55.5 M69.43089720892957 55.38596929764367 C68.16437129556256 55.42658431854221, 66.89784538219556 55.46719933944075, 65.87500000000001 55.5 M65.87500000000001 55.5 C65.87500000000001 55.5, 65.87500000000001 55.5, 65.875 55.5 M65.87500000000001 55.5 C65.87500000000001 55.5, 65.87500000000001 55.5, 65.875 55.5 M65.875 55.5 C14.90645286419663 55.5, -36.06209427160674 55.5, -65.87499999999999 55.5 M65.875 55.5 C37.37164415863608 55.5, 8.86828831727216 55.5, -65.87499999999999 55.5 M-65.87499999999999 55.5 C-67.29431255831494 55.45448540877914, -68.71362511662988 55.408970817558284, -69.43089720892954 55.38596929764367 M-65.87499999999999 55.5 C-67.28364782325106 55.45482740607499, -68.69229564650215 55.40965481214999, -69.43089720892954 55.38596929764367 M-69.43089720892954 55.38596929764367 C-70.69417180202875 55.26410271695737, -71.95744639512797 55.142236136271066, -72.9721824734901 55.04434576719016 M-69.43089720892954 55.38596929764367 C-70.16482097646666 55.315168554461835, -70.89874474400378 55.24436781128, -72.9721824734901 55.04434576719016 M-72.9721824734901 55.04434576719016 C-73.96953720823883 54.883101188277465, -74.96689194298757 54.72185660936477, -76.48430389292616 54.476533213004124 M-72.9721824734901 55.04434576719016 C-74.15826878313264 54.85258853088386, -75.3443550927752 54.660831294577555, -76.48430389292616 54.476533213004124 M-76.48430389292616 54.476533213004124 C-77.2171842288094 54.30925805882991, -77.95006456469264 54.141982904655706, -79.95282940697764 53.684864898666135 M-76.48430389292616 54.476533213004124 C-77.86520748934818 54.16135097835891, -79.24611108577018 53.8461687437137, -79.95282940697764 53.684864898666135 M-79.95282940697764 53.684864898666135 C-81.10135534107752 53.34398843016094, -82.24988127517739 53.003111961655755, -83.36350610031091 52.67259395909212 M-79.95282940697764 53.684864898666135 C-81.31241220161385 53.28134786181383, -82.67199499625006 52.87783082496152, -83.36350610031091 52.67259395909212 M-83.36350610031091 52.67259395909212 C-84.4992696863547 52.25462246054451, -85.63503327239847 51.8366509619969, -86.70231877080526 51.44388003270421 M-83.36350610031091 52.67259395909212 C-84.51509734613045 52.248797735437755, -85.66668859194996 51.825001511783384, -86.70231877080526 51.44388003270421 M-86.70231877080526 51.44388003270421 C-87.78385912763136 50.96511419949208, -88.86539948445746 50.486348366279955, -89.95554752102447 50.00377216858427 M-86.70231877080526 51.44388003270421 C-87.79990715218693 50.95801021506906, -88.8974955335686 50.47214039743392, -89.95554752102447 50.00377216858427 M-89.95554752102447 50.00377216858427 C-90.66903404454204 49.63154670627508, -91.3825205680596 49.25932124396589, -93.10982413621852 48.35818807884812 M-89.95554752102447 50.00377216858427 C-90.73886386801477 49.59511653209749, -91.52218021500508 49.186460895610715, -93.10982413621852 48.35818807884812 M-93.10982413621852 48.35818807884812 C-94.3079345450439 47.631886508139885, -95.50604495386929 46.90558493743165, -96.15218701718541 46.51388982149718 M-93.10982413621852 48.35818807884812 C-94.29319376737294 47.640822454190456, -95.47656339852736 46.92345682953278, -96.15218701718541 46.51388982149718 M-96.15218701718541 46.51388982149718 C-97.18379939231774 45.794281686384835, -98.21541176745006 45.07467355127249, -99.07013444226249 44.4784560136716 M-96.15218701718541 46.51388982149718 C-96.7610150357104 46.089197751514284, -97.3698430542354 45.664505681531395, -99.07013444226249 44.4784560136716 M-99.07013444226249 44.4784560136716 C-99.94952406499203 43.77716619108545, -100.82891368772157 43.0758763684993, -101.85167593958224 42.26025068948697 M-99.07013444226249 44.4784560136716 C-99.74353221629566 43.94143920874749, -100.41692999032884 43.40442240382338, -101.85167593958224 42.26025068948697 M-101.85167593958224 42.26025068948697 C-102.51541239382455 41.65746280324835, -103.17914884806686 41.05467491700972, -104.48538155849347 39.868388930423905 M-101.85167593958224 42.26025068948697 C-102.53766510722808 41.63725347770979, -103.22365427487392 41.0142562659326, -104.48538155849347 39.868388930423905 M-104.48538155849347 39.868388930423905 C-105.07823339294158 39.25622073731541, -105.6710852273897 38.644052544206914, -106.96042883768001 37.31269940950308 M-104.48538155849347 39.868388930423905 C-104.98338509950169 39.354159387481815, -105.4813886405099 38.83992984453972, -106.96042883768001 37.31269940950308 M-106.96042883768001 37.31269940950308 C-107.6361997726684 36.518900416810204, -108.3119707076568 35.72510142411733, -109.26664727697565 34.60368400315972 M-106.96042883768001 37.31269940950308 C-107.76798187734289 36.364101658045364, -108.57553491700578 35.415503906587645, -109.26664727697565 34.60368400315972 M-109.26664727697565 34.60368400315972 C-109.99767270786022 33.6241765235612, -110.72869813874479 32.64466904396267, -111.39456013013104 31.752474636780434 M-109.26664727697565 34.60368400315972 C-110.0056963964359 33.61342551184286, -110.74474551589613 32.62316702052601, -111.39456013013104 31.752474636780434 M-111.39456013013104 31.752474636780434 C-112.14054635413929 30.606439471354413, -112.88653257814755 29.460404305928392, -113.33542334679669 28.77078754123417 M-111.39456013013104 31.752474636780434 C-111.96501290584081 30.876105985271597, -112.53546568155059 29.99973733376276, -113.33542334679669 28.77078754123417 M-113.33542334679669 28.77078754123417 C-113.97396519782191 27.636991825365048, -114.61250704884714 26.503196109495924, -115.0812615037015 25.670875108366364 M-113.33542334679669 28.77078754123417 C-113.9355940150247 27.70512374592509, -114.53576468325271 26.639459950616008, -115.0812615037015 25.670875108366364 M-115.0812615037015 25.670875108366364 C-115.55720311977512 24.682572159070254, -116.03314473584877 23.69426920977414, -116.62490057737759 22.465475543292875 M-115.0812615037015 25.670875108366364 C-115.53214469523738 24.734606513787295, -115.98302788677326 23.798337919208226, -116.62490057737759 22.465475543292875 M-116.62490057737759 22.465475543292875 C-116.97772335196616 21.593996468694787, -117.33054612655475 20.7225173940967, -117.95999742376169 19.167760520382608 M-116.62490057737759 22.465475543292875 C-116.99679735042707 21.546883323725677, -117.36869412347656 20.628291104158478, -117.95999742376169 19.167760520382608 M-117.95999742376169 19.167760520382608 C-118.279283176693 18.20612270382979, -118.59856892962429 17.24448488727698, -119.08106584353466 15.791281058022301 M-117.95999742376169 19.167760520382608 C-118.3896617319988 17.873680081683215, -118.81932604023591 16.57959964298382, -119.08106584353466 15.791281058022301 M-119.08106584353466 15.791281058022301 C-119.38203046454217 14.64357251922882, -119.68299508554968 13.495863980435342, -119.9834991260912 12.349911834575463 M-119.08106584353466 15.791281058022301 C-119.31062568375525 14.915869895397108, -119.54018552397582 14.040458732771915, -119.9834991260912 12.349911834575463 M-119.9834991260912 12.349911834575463 C-120.19665070308719 11.255423536302837, -120.40980228008317 10.160935238030213, -120.66358897950198 8.857794174352573 M-119.9834991260912 12.349911834575463 C-120.16642055061878 11.410648980083122, -120.34934197514636 10.471386125590783, -120.66358897950198 8.857794174352573 M-120.66358897950198 8.857794174352573 C-120.84393738075538 7.459047588051291, -121.02428578200876 6.060301001750009, -121.1185407686805 5.3292779378763795 M-120.66358897950198 8.857794174352573 C-120.7781308251957 7.969430237997862, -120.89267267088943 7.08106630164315, -121.1185407686805 5.3292779378763795 M-121.1185407686805 5.3292779378763795 C-121.17354513152813 4.472540587802002, -121.22854949437576 3.6158032377276244, -121.34648499913817 1.7788625552268686 M-121.1185407686805 5.3292779378763795 C-121.18434063934095 4.304391839640339, -121.25014051000139 3.2795057414042996, -121.34648499913817 1.7788625552268686 M-121.34648499913817 1.7788625552268686 C-121.34648499913817 0.5635965806205812, -121.34648499913817 -0.6516693939857063, -121.34648499913817 -1.7788625552268416 M-121.34648499913817 1.7788625552268686 C-121.34648499913817 0.8464606036388296, -121.34648499913817 -0.08594134794920949, -121.34648499913817 -1.7788625552268416 M-121.34648499913817 -1.7788625552268416 C-121.28138953616977 -2.7927769350716987, -121.21629407320137 -3.8066913149165558, -121.1185407686805 -5.329277937876303 M-121.34648499913817 -1.7788625552268416 C-121.26692261873917 -3.018110851538894, -121.18736023834016 -4.257359147850947, -121.1185407686805 -5.329277937876303 M-121.1185407686805 -5.329277937876303 C-121.01479459915946 -6.13391274168311, -120.91104842963841 -6.938547545489916, -120.66358897950198 -8.857794174352547 M-121.1185407686805 -5.329277937876303 C-120.97096867829259 -6.4738179295195835, -120.82339658790468 -7.618357921162863, -120.66358897950198 -8.857794174352547 M-120.66358897950198 -8.857794174352547 C-120.4255194355454 -10.080230966553643, -120.18744989158883 -11.302667758754737, -119.9834991260912 -12.349911834575437 M-120.66358897950198 -8.857794174352547 C-120.42784044462745 -10.068313075462752, -120.19209190975292 -11.278831976572958, -119.9834991260912 -12.349911834575437 M-119.9834991260912 -12.349911834575437 C-119.74054041303857 -13.276418706417479, -119.49758169998593 -14.202925578259519, -119.08106584353467 -15.791281058022273 M-119.9834991260912 -12.349911834575437 C-119.6321114772995 -13.689905231788545, -119.2807238285078 -15.029898629001652, -119.08106584353467 -15.791281058022273 M-119.08106584353467 -15.791281058022273 C-118.83713706202624 -16.525955683152294, -118.5932082805178 -17.260630308282312, -117.95999742376172 -19.167760520382537 M-119.08106584353467 -15.791281058022273 C-118.82660851361118 -16.55766599348208, -118.57215118368768 -17.324050928941887, -117.95999742376172 -19.167760520382537 M-117.95999742376172 -19.167760520382537 C-117.51939405259323 -20.256059365655396, -117.07879068142472 -21.344358210928252, -116.62490057737759 -22.46547554329285 M-117.95999742376172 -19.167760520382537 C-117.62460642229624 -19.996182778346174, -117.28921542083074 -20.824605036309812, -116.62490057737759 -22.46547554329285 M-116.62490057737759 -22.46547554329285 C-116.0638009525185 -23.630610919921455, -115.50270132765942 -24.795746296550064, -115.08126150370151 -25.67087510836634 M-116.62490057737759 -22.46547554329285 C-116.19454829913164 -23.359111257134213, -115.76419602088569 -24.25274697097558, -115.08126150370151 -25.67087510836634 M-115.08126150370151 -25.67087510836634 C-114.6468681089294 -26.44218456788525, -114.21247471415728 -27.21349402740416, -113.33542334679672 -28.770787541234153 M-115.08126150370151 -25.67087510836634 C-114.52130128371626 -26.665141181071018, -113.96134106373098 -27.6594072537757, -113.33542334679672 -28.770787541234153 M-113.33542334679672 -28.770787541234153 C-112.75202185683654 -29.667048895048246, -112.16862036687635 -30.56331024886234, -111.39456013013105 -31.752474636780416 M-113.33542334679672 -28.770787541234153 C-112.82888079588638 -29.548972925152746, -112.32233824497604 -30.327158309071343, -111.39456013013105 -31.752474636780416 M-111.39456013013105 -31.752474636780416 C-110.71764985921692 -32.65947273201106, -110.04073958830277 -33.5664708272417, -109.26664727697568 -34.6036840031597 M-111.39456013013105 -31.752474636780416 C-110.83507829035479 -32.502129332236464, -110.27559645057852 -33.25178402769251, -109.26664727697568 -34.6036840031597 M-109.26664727697568 -34.6036840031597 C-108.59920735977065 -35.387696908315895, -107.93176744256562 -36.17170981347209, -106.96042883768004 -37.31269940950306 M-109.26664727697568 -34.6036840031597 C-108.75818810941153 -35.20094907352679, -108.24972894184738 -35.79821414389388, -106.96042883768004 -37.31269940950306 M-106.96042883768004 -37.31269940950306 C-106.07459300116996 -38.22739763917446, -105.18875716465986 -39.142095868845864, -104.48538155849351 -39.86838893042385 M-106.96042883768004 -37.31269940950306 C-106.33089977057679 -37.96273985658479, -105.70137070347353 -38.61278030366651, -104.48538155849351 -39.86838893042385 M-104.48538155849351 -39.86838893042385 C-103.61976220220812 -40.65452152676912, -102.75414284592273 -41.4406541231144, -101.8516759395823 -42.260250689486924 M-104.48538155849351 -39.86838893042385 C-103.76390336829522 -40.52361633349509, -103.04242517809692 -41.178843736566336, -101.8516759395823 -42.260250689486924 M-101.8516759395823 -42.260250689486924 C-100.76171861988118 -43.129462646966154, -99.67176130018008 -43.99867460444539, -99.07013444226251 -44.47845601367158 M-101.8516759395823 -42.260250689486924 C-101.14936481199167 -42.820325124456446, -100.44705368440104 -43.38039955942597, -99.07013444226251 -44.47845601367158 M-99.07013444226251 -44.47845601367158 C-98.05311704908061 -45.1878833211819, -97.03609965589871 -45.89731062869222, -96.15218701718548 -46.51388982149714 M-99.07013444226251 -44.47845601367158 C-98.2597895397491 -45.0437175383995, -97.44944463723566 -45.608979063127414, -96.15218701718548 -46.51388982149714 M-96.15218701718548 -46.51388982149714 C-95.0009890843756 -47.21175277355646, -93.84979115156574 -47.90961572561579, -93.10982413621855 -48.35818807884811 M-96.15218701718548 -46.51388982149714 C-95.4887880213382 -46.916046191344996, -94.8253890254909 -47.318202561192855, -93.10982413621855 -48.35818807884811 M-93.10982413621855 -48.35818807884811 C-92.16479517362545 -48.851209083312995, -91.21976621103235 -49.34423008777787, -89.9555475210245 -50.003772168584256 M-93.10982413621855 -48.35818807884811 C-92.102048509647 -48.88394397771939, -91.09427288307546 -49.40969987659067, -89.9555475210245 -50.003772168584256 M-89.9555475210245 -50.003772168584256 C-89.16958660706796 -50.351693750490675, -88.38362569311141 -50.699615332397094, -86.70231877080529 -51.44388003270419 M-89.9555475210245 -50.003772168584256 C-88.93942686032045 -50.453578642929486, -87.9233061996164 -50.903385117274716, -86.70231877080529 -51.44388003270419 M-86.70231877080529 -51.44388003270419 C-85.95177136614127 -51.72008841560471, -85.20122396147725 -51.99629679850522, -83.36350610031099 -52.6725939590921 M-86.70231877080529 -51.44388003270419 C-85.93671704224863 -51.72562854595784, -85.17111531369197 -52.00737705921149, -83.36350610031099 -52.6725939590921 M-83.36350610031099 -52.6725939590921 C-82.49873889294462 -52.929252326982734, -81.63397168557825 -53.18591069487337, -79.95282940697771 -53.68486489866611 M-83.36350610031099 -52.6725939590921 C-82.66549291375186 -52.87976060891686, -81.96747972719274 -53.086927258741625, -79.95282940697771 -53.68486489866611 M-79.95282940697771 -53.68486489866611 C-79.05682702747505 -53.88937159482564, -78.1608246479724 -54.093878290985174, -76.48430389292619 -54.47653321300412 M-79.95282940697771 -53.68486489866611 C-78.91082834346928 -53.92269484171951, -77.86882727996084 -54.16052478477291, -76.48430389292619 -54.47653321300412 M-76.48430389292619 -54.47653321300412 C-75.37824107176354 -54.65535287228441, -74.27217825060089 -54.834172531564704, -72.97218247349012 -55.04434576719016 M-76.48430389292619 -54.47653321300412 C-75.60673387458749 -54.618411927911986, -74.72916385624879 -54.760290642819854, -72.97218247349012 -55.04434576719016 M-72.97218247349012 -55.04434576719016 C-71.92754409412898 -55.14512077528567, -70.88290571476782 -55.24589578338117, -69.43089720892957 -55.38596929764367 M-72.97218247349012 -55.04434576719016 C-71.64087214258187 -55.17277567367795, -70.30956181167363 -55.30120558016574, -69.43089720892957 -55.38596929764367 M-69.43089720892957 -55.38596929764367 C-68.2558169641839 -55.42365183393772, -67.0807367194382 -55.46133437023177, -65.87500000000001 -55.5 M-69.43089720892957 -55.38596929764367 C-68.28536289161984 -55.422704353552504, -67.13982857431013 -55.459439409461346, -65.87500000000001 -55.5 M-65.87500000000001 -55.5 C-65.87500000000001 -55.5, -65.875 -55.5, -65.875 -55.5 M-65.87500000000001 -55.5 C-65.87500000000001 -55.5, -65.875 -55.5, -65.875 -55.5" stroke="#9370DB" stroke-width="1.3" fill="none" stroke-dasharray="0 0" style=""/></g><g class="label" style="" transform="translate(-100, -48)"><rect/><foreignObject width="200" height="96"><div xmlns="http://www.w3.org/1999/xhtml" style="display: table; white-space: break-spaces; line-height: 1.5; max-width: 200px; text-align: center; width: 200px;"><span class="nodeLabel"><p>Section 181: False statement on oath to public servant or person authorised t...</p></span></div></foreignObject></g></g><g class="node default" id="my-svg-flowchart-GRP2-1" data-look="classic" transform="translate(138, 188.5)"><polygon points="9.75,0 174.359375,0 184.109375,-19.5 174.359375,-39 9.75,-39 0,-19.5" class="label-container" transform="translate(-92.0546875,19.5)"/><g class="label" style="" transform="translate(-74.8046875, -12)"><rect/><foreignObject width="149.609375" height="24"><div xmlns="http://www.w3.org/1999/xhtml" style="display: table-cell; white-space: nowrap; line-height: 1.5; max-width: 200px; text-align: center;"><span class="nodeLabel"><p>ALL OF (conjunctive)</p></span></div></foreignObject></g></g><g class="node default" id="my-svg-flowchart-ELEM3-4" data-look="classic" transform="translate(138, 309)"><rect class="basic label-container" style="" x="-130" y="-51" width="260" height="102"/><g class="label" style="" transform="translate(-100, -36)"><rect/><foreignObject width="200" height="72"><div xmlns="http://www.w3.org/1999/xhtml" style="display: table; white-space: break-spaces; line-height: 1.5; max-width: 200px; text-align: center; width: 200px;"><span class="nodeLabel"><p>Being legally bound by an oath to state the truth on any subject</p></span></div></foreignObject></g></g><g class="node default" id="my-svg-flowchart-ELEM4-7" data-look="classic" transform="translate(138, 473)"><rect class="basic label-container" style="" x="-130" y="-63" width="260" height="126"/><g class="label" style="" transform="translate(-100, -48)"><rect/><foreignObject width="200" height="96"><div xmlns="http://www.w3.org/1999/xhtml" style="display: table; white-space: break-spaces; line-height: 1.5; max-width: 200px; text-align: center; width: 200px;"><span class="nodeLabel"><p>Making to any public servant or other person authorised by law to administer ...</p></span></div></foreignObject></g></g><g class="node default" id="my-svg-flowchart-ELEM5-10" data-look="classic" transform="translate(138, 637)"><rect class="basic label-container" style="" x="-130" y="-51" width="260" height="102"/><g class="label" style="" transform="translate(-100, -36)"><rect/><foreignObject width="200" height="72"><div xmlns="http://www.w3.org/1999/xhtml" style="display: table; white-space: break-spaces; line-height: 1.5; max-width: 200px; text-align: center; width: 200px;"><span class="nodeLabel"><p>Knowing or believing that statement to be false, or not believing it to be true</p></span></div></foreignObject></g></g><g class="node default" id="my-svg-flowchart-PENALTY6-13" data-look="classic" transform="translate(138, 757.5)"><polygon points="0,0 211.3125,0 211.3125,-39 0,-39 0,0 -8,0 219.3125,0 219.3125,-39 -8,-39 -8,0" class="label-container" transform="translate(-105.65625,19.5)"/><g class="label" style="" transform="translate(-98.15625, -12)"><rect/><foreignObject width="196.3125" height="24"><div xmlns="http://www.w3.org/1999/xhtml" style="display: table-cell; white-space: nowrap; line-height: 1.5; max-width: 200px; text-align: center;"><span class="nodeLabel"><p>Imprisonment up to 3 years</p></span></div></foreignObject></g></g></g></g></g><defs><filter id="my-svg-drop-shadow" height="130%" width="130%"><feDropShadow dx="4" dy="4" stdDeviation="0" flood-opacity="0.06" flood-color="#000000"/></filter></defs><defs><filter id="my-svg-drop-shadow-small" height="150%" width="150%"><feDropShadow dx="2" dy="2" stdDeviation="0" flood-opacity="0.06" flood-color="#000000"/></filter></defs></svg>