<svg class="yuho-mermaid-svg" id="my-svg" width="100%" xmlns="http://www.w3.org/2000/svg" xmlns:xlink="http://www.w3.org/1999/xlink" class="flowchart" style="max-width: 276px; background-color: transparent;" viewBox="0 0 276 609" role="graphics-document document" aria-roledescription="flowchart-v2"><style>#my-svg{font-family:"trebuchet ms",verdana,arial,sans-serif;font-size:16px;fill:#333;}@keyframes edge-animation-frame{from{stroke-dashoffset:0;}}@keyframes dash{to{stroke-dashoffset:0;}}#my-svg .edge-animation-slow{stroke-dasharray:9,5!important;stroke-dashoffset:900;animation:dash 50s linear infinite;stroke-linecap:round;}#my-svg .edge-animation-fast{stroke-dasharray:9,5!important;stroke-dashoffset:900;animation:dash 20s linear infinite;stroke-linecap:round;}#my-svg .error-icon{fill:#552222;}#my-svg .error-text{fill:#552222;stroke:#552222;}#my-svg .edge-thickness-normal{stroke-width:1px;}#my-svg .edge-thickness-thick{stroke-width:3.5px;}#my-svg .edge-pattern-solid{stroke-dasharray:0;}#my-svg .edge-thickness-invisible{stroke-width:0;fill:none;}#my-svg .edge-pattern-dashed{stroke-dasharray:3;}#my-svg .edge-pattern-dotted{stroke-dasharray:2;}#my-svg .marker{fill:#333333;stroke:#333333;}#my-svg .marker.cross{stroke:#333333;}#my-svg svg{font-family:"trebuchet ms",verdana,arial,sans-serif;font-size:16px;}#my-svg p{margin:0;}#my-svg .label{font-family:"trebuchet ms",verdana,arial,sans-serif;color:#333;}#my-svg .cluster-label text{fill:#333;}#my-svg .cluster-label span{color:#333;}#my-svg .cluster-label span p{background-color:transparent;}#my-svg .label text,#my-svg span{fill:#333;color:#333;}#my-svg .node rect,#my-svg .node circle,#my-svg .node ellipse,#my-svg .node polygon,#my-svg .node path{fill:#ECECFF;stroke:#9370DB;stroke-width:1px;}#my-svg .rough-node .label text,#my-svg .node .label text,#my-svg .image-shape .label,#my-svg .icon-shape .label{text-anchor:middle;}#my-svg .node .katex path{fill:#000;stroke:#000;stroke-width:1px;}#my-svg .rough-node .label,#my-svg .node .label,#my-svg .image-shape .label,#my-svg .icon-shape .label{text-align:center;}#my-svg .node.clickable{cursor:pointer;}#my-svg .root .anchor path{fill:#333333!important;stroke-width:0;stroke:#333333;}#my-svg .arrowheadPath{fill:#333333;}#my-svg .edgePath .path{stroke:#333333;stroke-width:1px;}#my-svg .flowchart-link{stroke:#333333;fill:none;}#my-svg .edgeLabel{background-color:rgba(232,232,232, 0.8);text-align:center;}#my-svg .edgeLabel p{background-color:rgba(232,232,232, 0.8);}#my-svg .edgeLabel rect{opacity:0.5;background-color:rgba(232,232,232, 0.8);fill:rgba(232,232,232, 0.8);}#my-svg .labelBkg{background-color:rgba(232, 232, 232, 0.5);}#my-svg .cluster rect{fill:#ffffde;stroke:#aaaa33;stroke-width:1px;}#my-svg .cluster text{fill:#333;}#my-svg .cluster span{color:#333;}#my-svg div.mermaidTooltip{position:absolute;text-align:center;max-width:200px;padding:2px;font-family:"trebuchet ms",verdana,arial,sans-serif;font-size:12px;background:hsl(80, 100%, 96.2745098039%);border:1px solid #aaaa33;border-radius:2px;pointer-events:none;z-index:100;}#my-svg .flowchartTitleText{text-anchor:middle;font-size:18px;fill:#333;}#my-svg rect.text{fill:none;stroke-width:0;}#my-svg .icon-shape,#my-svg .image-shape{background-color:rgba(232,232,232, 0.8);text-align:center;}#my-svg .icon-shape p,#my-svg .image-shape p{background-color:rgba(232,232,232, 0.8);padding:2px;}#my-svg .icon-shape .label rect,#my-svg .image-shape .label rect{opacity:0.5;background-color:rgba(232,232,232, 0.8);fill:rgba(232,232,232, 0.8);}#my-svg .label-icon{display:inline-block;height:1em;overflow:visible;vertical-align:-0.125em;}#my-svg .node .label-icon path{fill:currentColor;stroke:revert;stroke-width:revert;}#my-svg .node .neo-node{stroke:#9370DB;}#my-svg [data-look="neo"].node rect,#my-svg [data-look="neo"].cluster rect,#my-svg [data-look="neo"].node polygon{stroke:#9370DB;filter:drop-shadow(1px 2px 2px rgba(185, 185, 185, 1));}#my-svg [data-look="neo"].node path{stroke:#9370DB;stroke-width:1px;}#my-svg [data-look="neo"].node .outer-path{filter:drop-shadow(1px 2px 2px rgba(185, 185, 185, 1));}#my-svg [data-look="neo"].node .neo-line path{stroke:#9370DB;filter:none;}#my-svg [data-look="neo"].node circle{stroke:#9370DB;filter:drop-shadow(1px 2px 2px rgba(185, 185, 185, 1));}#my-svg [data-look="neo"].node circle .state-start{fill:#000000;}#my-svg [data-look="neo"].icon-shape .icon{fill:#9370DB;filter:drop-shadow(1px 2px 2px rgba(185, 185, 185, 1));}#my-svg [data-look="neo"].icon-shape .icon-neo path{stroke:#9370DB;filter:drop-shadow(1px 2px 2px rgba(185, 185, 185, 1));}#my-svg :root{--mermaid-font-family:"trebuchet ms",verdana,arial,sans-serif;}</style><g><marker id="my-svg_flowchart-v2-pointEnd" class="marker flowchart-v2" viewBox="0 0 10 10" refX="5" refY="5" markerUnits="userSpaceOnUse" markerWidth="8" markerHeight="8" orient="auto"><path d="M 0 0 L 10 5 L 0 10 z" class="arrowMarkerPath" style="stroke-width: 1; stroke-dasharray: 1, 0;"/></marker><marker id="my-svg_flowchart-v2-pointStart" class="marker flowchart-v2" viewBox="0 0 10 10" refX="4.5" refY="5" markerUnits="userSpaceOnUse" markerWidth="8" markerHeight="8" orient="auto"><path d="M 0 5 L 10 10 L 10 0 z" class="arrowMarkerPath" style="stroke-width: 1; stroke-dasharray: 1, 0;"/></marker><marker id="my-svg_flowchart-v2-pointEnd-margin" class="marker flowchart-v2" viewBox="0 0 11.5 14" refX="11.5" refY="7" markerUnits="userSpaceOnUse" markerWidth="10.5" markerHeight="14" orient="auto"><path d="M 0 0 L 11.5 7 L 0 14 z" class="arrowMarkerPath" style="stroke-width: 0; stroke-dasharray: 1, 0;"/></marker><marker id="my-svg_flowchart-v2-pointStart-margin" class="marker flowchart-v2" viewBox="0 0 11.5 14" refX="1" refY="7" markerUnits="userSpaceOnUse" markerWidth="11.5" markerHeight="14" orient="auto"><polygon points="0,7 11.5,14 11.5,0" class="arrowMarkerPath" style="stroke-width: 0; stroke-dasharray: 1, 0;"/></marker><marker id="my-svg_flowchart-v2-circleEnd" class="marker flowchart-v2" viewBox="0 0 10 10" refX="11" refY="5" markerUnits="userSpaceOnUse" markerWidth="11" markerHeight="11" orient="auto"><circle cx="5" cy="5" r="5" class="arrowMarkerPath" style="stroke-width: 1; stroke-dasharray: 1, 0;"/></marker><marker id="my-svg_flowchart-v2-circleStart" class="marker flowchart-v2" viewBox="0 0 10 10" refX="-1" refY="5" markerUnits="userSpaceOnUse" markerWidth="11" markerHeight="11" orient="auto"><circle cx="5" cy="5" r="5" class="arrowMarkerPath" style="stroke-width: 1; stroke-dasharray: 1, 0;"/></marker><marker id="my-svg_flowchart-v2-circleEnd-margin" class="marker flowchart-v2" viewBox="0 0 10 10" refY="5" refX="12.25" markerUnits="userSpaceOnUse" markerWidth="14" markerHeight="14" orient="auto"><circle cx="5" cy="5" r="5" class="arrowMarkerPath" style="stroke-width: 0; stroke-dasharray: 1, 0;"/></marker><marker id="my-svg_flowchart-v2-circleStart-margin" class="marker flowchart-v2" viewBox="0 0 10 10" refX="-2" refY="5" markerUnits="userSpaceOnUse" markerWidth="14" markerHeight="14" orient="auto"><circle cx="5" cy="5" r="5" class="arrowMarkerPath" style="stroke-width: 0; stroke-dasharray: 1, 0;"/></marker><marker id="my-svg_flowchart-v2-crossEnd" class="marker cross flowchart-v2" viewBox="0 0 11 11" refX="12" refY="5.2" markerUnits="userSpaceOnUse" markerWidth="11" markerHeight="11" orient="auto"><path d="M 1,1 l 9,9 M 10,1 l -9,9" class="arrowMarkerPath" style="stroke-width: 2; stroke-dasharray: 1, 0;"/></marker><marker id="my-svg_flowchart-v2-crossStart" class="marker cross flowchart-v2" viewBox="0 0 11 11" refX="-1" refY="5.2" markerUnits="userSpaceOnUse" markerWidth="11" markerHeight="11" orient="auto"><path d="M 1,1 l 9,9 M 10,1 l -9,9" class="arrowMarkerPath" style="stroke-width: 2; stroke-dasharray: 1, 0;"/></marker><marker id="my-svg_flowchart-v2-crossEnd-margin" class="marker cross flowchart-v2" viewBox="0 0 15 15" refX="17.7" refY="7.5" markerUnits="userSpaceOnUse" markerWidth="12" markerHeight="12" orient="auto"><path d="M 1,1 L 14,14 M 1,14 L 14,1" class="arrowMarkerPath" style="stroke-width: 2.5;"/></marker><marker id="my-svg_flowchart-v2-crossStart-margin" class="marker cross flowchart-v2" viewBox="0 0 15 15" refX="-3.5" refY="7.5" markerUnits="userSpaceOnUse" markerWidth="12" markerHeight="12" orient="auto"><path d="M 1,1 L 14,14 M 1,14 L 14,1" class="arrowMarkerPath" style="stroke-width: 2.5; stroke-dasharray: 1, 0;"/></marker><g class="root"><g class="clusters"/><g class="edgePaths"><path d="M138.5,95.5L138.417,99.583C138.333,103.667,138.167,111.833,138.154,119.5C138.141,127.167,138.281,134.334,138.351,137.917L138.422,141.501" id="my-svg-L_START1_GRP2_0" class="edge-thickness-normal edge-pattern-solid edge-thickness-normal edge-pattern-solid flowchart-link" style=";" data-edge="true" data-et="edge" data-id="L_START1_GRP2_0" data-points="W3sieCI6MTM4LjUsInkiOjk1LjQ5OTk5OTk5OTk5OTk5fSx7IngiOjEzOCwieSI6MTIwfSx7IngiOjEzOC41LCJ5IjoxNDUuNX1d" data-look="classic" marker-end="url(#my-svg_flowchart-v2-pointEnd)"/><path d="M138.5,184.5L138.417,188.583C138.333,192.667,138.167,200.833,138.083,208.417C138,216,138,223,138,226.5L138,230" id="my-svg-L_GRP2_ELEM3_0" class="edge-thickness-normal edge-pattern-solid edge-thickness-normal edge-pattern-solid flowchart-link" style=";" data-edge="true" data-et="edge" data-id="L_GRP2_ELEM3_0" data-points="W3sieCI6MTM4LjUsInkiOjE4NC41fSx7IngiOjEzOCwieSI6MjA5fSx7IngiOjEzOCwieSI6MjM0fV0=" data-look="classic" marker-end="url(#my-svg_flowchart-v2-pointEnd)"/><path d="M138,336L138,340.167C138,344.333,138,352.667,138,360.333C138,368,138,375,138,378.5L138,382" id="my-svg-L_ELEM3_ELEM4_0" class="edge-thickness-normal edge-pattern-solid edge-thickness-normal edge-pattern-solid flowchart-link" style=";" data-edge="true" data-et="edge" data-id="L_ELEM3_ELEM4_0" data-points="W3sieCI6MTM4LCJ5IjozMzZ9LHsieCI6MTM4LCJ5IjozNjF9LHsieCI6MTM4LCJ5IjozODZ9XQ==" data-look="classic" marker-end="url(#my-svg_flowchart-v2-pointEnd)"/><path d="M138,464L138,468.167C138,472.333,138,480.667,138.07,488.417C138.141,496.167,138.281,503.334,138.351,506.917L138.422,510.501" id="my-svg-L_ELEM4_PENALTY5_0" class="edge-thickness-normal edge-pattern-solid edge-thickness-normal edge-pattern-solid flowchart-link" style=";" data-edge="true" data-et="edge" data-id="L_ELEM4_PENALTY5_0" data-points="W3sieCI6MTM4LCJ5Ijo0NjR9LHsieCI6MTM4LCJ5Ijo0ODl9LHsieCI6MTM4LjUsInkiOjUxNC41fV0=" data-look="classic" marker-end="url(#my-svg_flowchart-v2-pointEnd)"/></g><g class="edgeLabels"><g class="edgeLabel"><g class="label" data-id="L_START1_GRP2_0" transform="translate(0, 0)"><foreignObject width="0" height="0"><div xmlns="http://www.w3.org/1999/xhtml" class="labelBkg" style="display: table-cell; white-space: nowrap; line-height: 1.5; max-width: 200px; text-align: center;"><span class="edgeLabel"></span></div></foreignObject></g></g><g class="edgeLabel"><g class="label" data-id="L_GRP2_ELEM3_0" transform="translate(0, 0)"><foreignObject width="0" height="0"><div xmlns="http://www.w3.org/1999/xhtml" class="labelBkg" style="display: table-cell; white-space: nowrap; line-height: 1.5; max-width: 200px; text-align: center;"><span class="edgeLabel"></span></div></foreignObject></g></g><g class="edgeLabel"><g class="label" data-id="L_ELEM3_ELEM4_0" transform="translate(0, 0)"><foreignObject width="0" height="0"><div xmlns="http://www.w3.org/1999/xhtml" class="labelBkg" style="display: table-cell; white-space: nowrap; line-height: 1.5; max-width: 200px; text-align: center;"><span class="edgeLabel"></span></div></foreignObject></g></g><g class="edgeLabel"><g class="label" data-id="L_ELEM4_PENALTY5_0" transform="translate(0, 0)"><foreignObject width="0" height="0"><div xmlns="http://www.w3.org/1999/xhtml" class="labelBkg" style="display: table-cell; white-space: nowrap; line-height: 1.5; max-width: 200px; text-align: center;"><span class="edgeLabel"></span></div></foreignObject></g></g></g><g class="nodes"><g class="node default" id="my-svg-flowchart-START1-0" data-look="classic" transform="translate(138, 51.5)"><g class="basic label-container outer-path"><path d="M-74.875 -43.5 C-37.73081423001761 -43.5, -0.5866284600352145 -43.5, 74.875 -43.5 C74.875 -43.5, 74.875 -43.5, 74.875 -43.5 C75.83856712283213 -43.4691002778404, 76.80213424566425 -43.4382005556808, 77.66205456916101 -43.41062458463963 C78.56910520693596 -43.323122500501476, 79.47615584471092 -43.23562041636332, 80.43765653327601 -43.14286560131121 C81.50146914599063 -42.970876628077534, 82.56528175870525 -42.79888765484386, 83.19040034850968 -42.697823329111344 C84.04157552812863 -42.503548148800455, 84.89275070774758 -42.309272968489566, 85.90897440006356 -42.07732654219778 C86.9249090604263 -41.77580246775197, 87.94084372078906 -41.474278393306165, 88.58220748402749 -41.28392499496409 C89.39940193118714 -40.98318988434667, 90.2165963783468 -40.68245477372926, 91.19911471225277 -40.32087894455194 C91.84211404762986 -40.03624221267809, 92.48511338300698 -39.75160548080424, 93.74894265161377 -39.192145753755234 C94.56129761642255 -38.768340688952684, 95.37365258123133 -38.34453562415013, 96.22121351217129 -37.90236362936744 C96.77489076062726 -37.566721227584765, 97.32856800908321 -37.231078825802086, 98.60576820265887 -36.45683256279507 C99.2290593314753 -36.02205165317082, 99.85235046029173 -35.58727074354657, 100.8928080763679 -34.86149255125611 C101.58585649241981 -34.308804882247614, 102.2789049084717 -33.75611721323912, 103.07293519588879 -33.12289918905735 C103.60256606100187 -32.641902450626446, 104.13219692611493 -32.16090571219554, 105.13719095125165 -31.248196729251152 C105.6838634685009 -30.68371247254293, 106.23053598575017 -30.119228215834706, 107.07709287277622 -29.24508872636729 C107.65661451620657 -28.56434962827833, 108.23613615963693 -27.883610530189365, 108.8846694873593 -27.12180638085491 C109.50305462008454 -26.293226639047614, 110.12143975280979 -25.464646897240318, 110.55249307496757 -24.88707471531439 C111.09261926404552 -24.057295844700786, 111.63274545312348 -23.22751697408718, 112.07371019073256 -22.550076721507846 C112.43875481594856 -21.901903024660218, 112.80379944116456 -21.253729327812593, 113.44206982722551 -20.120415625476333 C113.73559436025747 -19.510905652216564, 114.02911889328942 -18.901395678956796, 114.65194910118784 -17.60807542582414 C114.9750815386092 -16.80993205805271, 115.29821397603055 -16.01178869028128, 115.69837635916457 -15.023379867326902 C115.87831815447784 -14.481423849674975, 116.05825994979112 -13.939467832023048, 116.57705160709475 -12.376950018449923 C116.76086339490088 -11.67599600701233, 116.94467518270702 -10.975041995574735, 117.28436417990932 -9.67966062709968 C117.45910305953781 -8.782413411282661, 117.63384193916632 -7.885166195465641, 117.81740757852859 -6.942595433952013 C117.9336460256117 -6.041072992253046, 118.0498844726948 -5.139550550554079, 118.17399141329012 -4.177001626984165 C118.23356967786262 -3.2490220655580733, 118.2931479424351 -2.3210425041319818, 118.35265040472993 -1.3942436243669998 C118.35265040472993 -0.7695288203655818, 118.35265040472993 -0.1448140163641638, 118.35265040472993 1.3942436243669891 C118.30413977096852 2.1498359022797042, 118.25562913720711 2.9054281801924193, 118.17399141329012 4.177001626984135 C118.03137546247686 5.28310277878696, 117.8887595116636 6.389203930589785, 117.81740757852859 6.942595433951983 C117.70815786725422 7.503569611411246, 117.59890815597983 8.064543788870509, 117.28436417990932 9.679660627099672 C117.12177195207948 10.299695259732118, 116.95917972424967 10.919729892364565, 116.57705160709475 12.376950018449895 C116.23818801604364 13.397553164114646, 115.89932442499253 14.418156309779398, 115.69837635916457 15.023379867326874 C115.32802377471319 15.938157911201905, 114.95767119026182 16.852935955076937, 114.65194910118785 17.60807542582413 C114.37182860633973 18.18975162699468, 114.09170811149161 18.77142782816523, 113.44206982722551 20.120415625476323 C113.1570671132137 20.626466803858523, 112.87206439920189 21.132517982240724, 112.07371019073256 22.550076721507835 C111.70779261540744 23.112224379834267, 111.34187504008231 23.674372038160698, 110.5524930749676 24.887074715314366 C110.0737147057726 25.528594112428927, 109.5949363365776 26.17011350954349, 108.8846694873593 27.121806380854903 C108.35596370312447 27.742854279228506, 107.82725791888963 28.363902177602114, 107.07709287277623 29.245088726367264 C106.40631488776266 29.937722067790542, 105.7355369027491 30.63035540921382, 105.13719095125167 31.24819672925114 C104.58880768242356 31.74622390457462, 104.04042441359547 32.2442510798981, 103.07293519588882 33.12289918905732 C102.61989301324498 33.48418827375699, 102.16685083060113 33.845477358456655, 100.89280807636791 34.861492551256106 C100.24743325393888 35.311678089556814, 99.60205843150983 35.76186362785752, 98.60576820265888 36.45683256279506 C97.86438602969316 36.90626279289212, 97.12300385672746 37.355693022989186, 96.22121351217129 37.90236362936744 C95.40930752329012 38.325934463716145, 94.59740153440896 38.74950529806484, 93.74894265161379 39.19214575375523 C92.99969773131149 39.52381425441217, 92.25045281100918 39.85548275506911, 91.1991147122528 40.32087894455194 C90.21387124051387 40.683457649642676, 89.22862776877494 41.04603635473342, 88.58220748402752 41.283924994964075 C87.87728562157325 41.49314210353014, 87.17236375911898 41.70235921209621, 85.90897440006361 42.077326542197774 C85.08231874767243 42.26600530042379, 84.25566309528126 42.45468405864981, 83.19040034850971 42.697823329111344 C82.60448333950053 42.792549847273676, 82.01856633049135 42.887276365436016, 80.43765653327604 43.1428656013112 C79.34805523205353 43.24797812840285, 78.25845393083102 43.3530906554945, 77.66205456916101 43.41062458463963 C76.55112465093063 43.44624994482337, 75.44019473270023 43.481875305007115, 74.87500000000001 43.5 C74.87500000000001 43.5, 74.875 43.5, 74.875 43.5 C27.118023321325715 43.5, -20.63895335734857 43.5, -74.87499999999999 43.5 C-75.4895371196006 43.480292990698345, -76.10407423920121 43.46058598139669, -77.66205456916099 43.41062458463963 C-78.40166874288731 43.339274894816434, -79.14128291661363 43.26792520499324, -80.43765653327603 43.1428656013112 C-81.05376594111692 43.043257810251305, -81.66987534895782 42.9436500191914, -83.1904003485097 42.697823329111344 C-83.84733788040478 42.54788162437432, -84.50427541229986 42.397939919637295, -85.90897440006356 42.07732654219778 C-86.72596233612997 41.83484881123046, -87.54295027219638 41.59237108026314, -88.58220748402748 41.283924994964096 C-89.48729897030796 40.950842961438894, -90.39239045658844 40.61776092791369, -91.19911471225278 40.32087894455194 C-92.01898907866286 39.957944883251166, -92.83886344507293 39.59501082195039, -93.74894265161377 39.192145753755234 C-94.57945396880203 38.75886853154601, -95.40996528599028 38.32559130933678, -96.22121351217127 37.90236362936745 C-97.13364255223378 37.34924378325334, -98.04607159229627 36.79612393713924, -98.60576820265884 36.456832562795086 C-99.49940043535642 35.83347340198112, -100.39303266805402 35.21011424116714, -100.89280807636788 34.86149255125612 C-101.57303935158627 34.319026210983914, -102.25327062680466 33.77655987071171, -103.07293519588879 33.12289918905736 C-103.6201069904264 32.62597224263066, -104.16727878496398 32.129045296203955, -105.13719095125164 31.24819672925117 C-105.73774728922687 30.628073003699424, -106.3383036272021 30.007949278147677, -107.07709287277623 29.245088726367282 C-107.70661000847802 28.50562207823218, -108.33612714417983 27.766155430097076, -108.88466948735929 27.121806380854917 C-109.31754196444676 26.541796697051634, -109.75041444153423 25.96178701324835, -110.55249307496757 24.887074715314395 C-111.05698941903326 24.112032854592652, -111.56148576309894 23.33699099387091, -112.07371019073254 22.550076721507864 C-112.44003370347585 21.899632230354086, -112.80635721621917 21.249187739200313, -113.44206982722551 20.120415625476337 C-113.76512527706005 19.449584071615615, -114.08818072689459 18.778752517754892, -114.65194910118784 17.608075425824147 C-114.92427275893564 16.93543072616732, -115.19659641668345 16.262786026510494, -115.69837635916457 15.023379867326907 C-115.96003684108132 14.235300185729853, -116.22169732299807 13.4472205041328, -116.57705160709475 12.37695001844991 C-116.82742499010868 11.42216779650715, -117.0777983731226 10.467385574564391, -117.28436417990932 9.679660627099686 C-117.48632670780734 8.642625731138757, -117.68828923570537 7.605590835177829, -117.81740757852859 6.942595433952017 C-117.92963494577143 6.0721821354168055, -118.04186231301428 5.201768836881594, -118.17399141329011 4.17700162698419 C-118.2187241041857 3.4802538587073046, -118.26345679508128 2.783506090430419, -118.35265040472993 1.394243624367005 C-118.35265040472993 0.46147882821949204, -118.35265040472993 -0.471285967928021, -118.35265040472993 -1.394243624366984 C-118.29228121570254 -2.334542472600861, -118.23191202667515 -3.2748413208347382, -118.17399141329012 -4.177001626984129 C-118.09726684753264 -4.772062208020066, -118.02054228177514 -5.367122789056003, -117.81740757852859 -6.942595433951997 C-117.66526123986246 -7.723834726862508, -117.51311490119632 -8.50507401977302, -117.28436417990932 -9.679660627099667 C-117.02554112513133 -10.666665109589692, -116.76671807035333 -11.653669592079718, -116.57705160709475 -12.37695001844989 C-116.35314589042567 -13.051318362525933, -116.12924017375657 -13.725686706601977, -115.6983763591646 -15.023379867326852 C-115.3510911598157 -15.881181024021217, -115.00380596046678 -16.73898218071558, -114.65194910118785 -17.608075425824126 C-114.23861110049539 -18.466380628278436, -113.82527309980294 -19.324685830732747, -113.44206982722551 -20.12041562547632 C-112.99869713729102 -20.907668732808272, -112.55532444735651 -21.694921840140225, -112.07371019073256 -22.55007672150785 C-111.63379183011344 -23.225909458039048, -111.1938734694943 -23.901742194570247, -110.55249307496757 -24.88707471531438 C-110.09165030267235 -25.50456204654974, -109.63080753037713 -26.1220493777851, -108.8846694873593 -27.121806380854903 C-108.23079917824167 -27.889879652219072, -107.57692886912403 -28.657952923583238, -107.07709287277623 -29.245088726367264 C-106.43182854665726 -29.91137712027152, -105.7865642205383 -30.577665514175777, -105.13719095125168 -31.248196729251127 C-104.33574269793395 -31.97605082775552, -103.53429444461622 -32.703904926259916, -103.07293519588883 -33.12289918905732 C-102.43228790550214 -33.63379835480033, -101.79164061511544 -34.14469752054334, -100.89280807636791 -34.861492551256106 C-100.09913280906974 -35.41512606007473, -99.30545754177157 -35.96875956889337, -98.6057682026589 -36.45683256279505 C-97.82910318404647 -36.92765146126817, -97.05243816543405 -37.39847035974128, -96.2212135121713 -37.902363629367436 C-95.45366234223962 -38.302794583080804, -94.68611117230796 -38.703225536794164, -93.74894265161379 -39.19214575375523 C-92.85540263023884 -39.58768941529494, -91.9618626088639 -39.983233076834644, -91.1991147122528 -40.320878944551936 C-90.39310509210789 -40.61749793543651, -89.587095471963 -40.91411692632109, -88.58220748402753 -41.283924994964075 C-87.59436941547801 -41.57711014844174, -86.6065313469285 -41.8702953019194, -85.90897440006361 -42.07732654219777 C-85.09098907511876 -42.26402635476334, -84.2730037501739 -42.45072616732891, -83.19040034850971 -42.69782332911134 C-82.49753421207848 -42.8098405527924, -81.80466807564724 -42.921857776473466, -80.43765653327604 -43.1428656013112 C-79.4628700873667 -43.236902077395854, -78.48808364145735 -43.33093855348051, -77.66205456916101 -43.41062458463963 C-77.07143160139536 -43.42956471363801, -76.4808086336297 -43.44850484263639, -74.87500000000001 -43.5 C-74.87500000000001 -43.5, -74.875 -43.5, -74.875 -43.5" stroke="none" stroke-width="0" fill="#ECECFF" style=""/><path d="M-74.875 -43.5 C-19.536103583590872 -43.5, 35.802792832818255 -43.5, 74.875 -43.5 M-74.875 -43.5 C-28.877544749496572 -43.5, 17.119910501006856 -43.5, 74.875 -43.5 M74.875 -43.5 C74.875 -43.5, 74.875 -43.5, 74.875 -43.5 M74.875 -43.5 C74.875 -43.5, 74.875 -43.5, 74.875 -43.5 M74.875 -43.5 C75.53141692650796 -43.47894998680493, 76.18783385301592 -43.457899973609855, 77.66205456916101 -43.41062458463963 M74.875 -43.5 C75.85429870521081 -43.46859579661318, 76.83359741042162 -43.437191593226366, 77.66205456916101 -43.41062458463963 M77.66205456916101 -43.41062458463963 C78.32471800431722 -43.34669824001949, 78.98738143947342 -43.28277189539936, 80.43765653327601 -43.14286560131121 M77.66205456916101 -43.41062458463963 C78.3361755291245 -43.345592946381025, 79.01029648908799 -43.280561308122415, 80.43765653327601 -43.14286560131121 M80.43765653327601 -43.14286560131121 C81.21629641439105 -43.01698114377499, 81.9949362955061 -42.891096686238775, 83.19040034850968 -42.697823329111344 M80.43765653327601 -43.14286560131121 C81.02304430199271 -43.04822464661504, 81.60843207070943 -42.953583691918865, 83.19040034850968 -42.697823329111344 M83.19040034850968 -42.697823329111344 C83.88276622022143 -42.53979533700269, 84.57513209193318 -42.38176734489404, 85.90897440006356 -42.07732654219778 M83.19040034850968 -42.697823329111344 C83.7995936223069 -42.55877893972476, 84.4087868961041 -42.41973455033817, 85.90897440006356 -42.07732654219778 M85.90897440006356 -42.07732654219778 C86.50955541943596 -41.89907724816216, 87.11013643880837 -41.72082795412653, 88.58220748402749 -41.28392499496409 M85.90897440006356 -42.07732654219778 C86.69953264497609 -41.842693004832654, 87.4900908898886 -41.60805946746752, 88.58220748402749 -41.28392499496409 M88.58220748402749 -41.28392499496409 C89.44287520448856 -40.96719131790922, 90.30354292494962 -40.650457640854356, 91.19911471225277 -40.32087894455194 M88.58220748402749 -41.28392499496409 C89.51078388085057 -40.94220029726708, 90.43936027767364 -40.60047559957007, 91.19911471225277 -40.32087894455194 M91.19911471225277 -40.32087894455194 C92.08444926085808 -39.92896760240065, 92.9697838094634 -39.53705626024936, 93.74894265161377 -39.192145753755234 M91.19911471225277 -40.32087894455194 C91.97633002955759 -39.97682877885433, 92.7535453468624 -39.63277861315673, 93.74894265161377 -39.192145753755234 M93.74894265161377 -39.192145753755234 C94.52185443400447 -38.788918171955636, 95.29476621639515 -38.38569059015604, 96.22121351217129 -37.90236362936744 M93.74894265161377 -39.192145753755234 C94.53779001154533 -38.7806045913598, 95.32663737147688 -38.36906342896435, 96.22121351217129 -37.90236362936744 M96.22121351217129 -37.90236362936744 C97.06082367734994 -37.39338701313913, 97.90043384252861 -36.88441039691082, 98.60576820265887 -36.45683256279507 M96.22121351217129 -37.90236362936744 C96.86880809288029 -37.50978798885347, 97.51640267358927 -37.1172123483395, 98.60576820265887 -36.45683256279507 M98.60576820265887 -36.45683256279507 C99.21322557764702 -36.033096594409265, 99.8206829526352 -35.60936062602347, 100.8928080763679 -34.86149255125611 M98.60576820265887 -36.45683256279507 C99.11648641817169 -36.10057764428855, 99.6272046336845 -35.74432272578203, 100.8928080763679 -34.86149255125611 M100.8928080763679 -34.86149255125611 C101.5878058425876 -34.307250327363185, 102.28280360880731 -33.75300810347025, 103.07293519588879 -33.12289918905735 M100.8928080763679 -34.86149255125611 C101.42496490768141 -34.437111639571604, 101.95712173899493 -34.012730727887096, 103.07293519588879 -33.12289918905735 M103.07293519588879 -33.12289918905735 C103.855372904875 -32.41230996392341, 104.6378106138612 -31.701720738789476, 105.13719095125165 -31.248196729251152 M103.07293519588879 -33.12289918905735 C103.74545862580985 -32.51213120399792, 104.41798205573092 -31.90136321893848, 105.13719095125165 -31.248196729251152 M105.13719095125165 -31.248196729251152 C105.60843969275314 -30.761593713409656, 106.07968843425462 -30.27499069756816, 107.07709287277622 -29.24508872636729 M105.13719095125165 -31.248196729251152 C105.8297478778361 -30.533074842571587, 106.52230480442056 -29.81795295589202, 107.07709287277622 -29.24508872636729 M107.07709287277622 -29.24508872636729 C107.76280481109787 -28.439612465500062, 108.44851674941951 -27.63413620463284, 108.8846694873593 -27.12180638085491 M107.07709287277622 -29.24508872636729 C107.54939380040614 -28.69029718208909, 108.02169472803604 -28.135505637810894, 108.8846694873593 -27.12180638085491 M108.8846694873593 -27.12180638085491 C109.26781304599876 -26.608428917374287, 109.65095660463822 -26.095051453893664, 110.55249307496757 -24.88707471531439 M108.8846694873593 -27.12180638085491 C109.34786514242732 -26.50116640105603, 109.81106079749534 -25.88052642125715, 110.55249307496757 -24.88707471531439 M110.55249307496757 -24.88707471531439 C111.10622810977132 -24.036389003179217, 111.65996314457506 -23.185703291044042, 112.07371019073256 -22.550076721507846 M110.55249307496757 -24.88707471531439 C111.00419740743651 -24.193135561045292, 111.45590173990544 -23.499196406776193, 112.07371019073256 -22.550076721507846 M112.07371019073256 -22.550076721507846 C112.44404907475854 -21.89250253204126, 112.81438795878451 -21.234928342574673, 113.44206982722551 -20.120415625476333 M112.07371019073256 -22.550076721507846 C112.52314547670584 -21.752058861004627, 112.97258076267912 -20.95404100050141, 113.44206982722551 -20.120415625476333 M113.44206982722551 -20.120415625476333 C113.85203814483803 -19.26910764203716, 114.26200646245056 -18.417799658597982, 114.65194910118784 -17.60807542582414 M113.44206982722551 -20.120415625476333 C113.8437077318023 -19.286405922948166, 114.24534563637907 -18.452396220419995, 114.65194910118784 -17.60807542582414 M114.65194910118784 -17.60807542582414 C114.98430312458734 -16.787154562399447, 115.31665714798685 -15.966233698974756, 115.69837635916457 -15.023379867326902 M114.65194910118784 -17.60807542582414 C114.94482123573279 -16.884675591200597, 115.23769337027774 -16.161275756577055, 115.69837635916457 -15.023379867326902 M115.69837635916457 -15.023379867326902 C115.88510156138524 -14.460993308859013, 116.07182676360591 -13.898606750391123, 116.57705160709475 -12.376950018449923 M115.69837635916457 -15.023379867326902 C115.97115017448539 -14.201828596186017, 116.2439239898062 -13.380277325045132, 116.57705160709475 -12.376950018449923 M116.57705160709475 -12.376950018449923 C116.84953957866676 -11.337835285811835, 117.1220275502388 -10.298720553173748, 117.28436417990932 -9.67966062709968 M116.57705160709475 -12.376950018449923 C116.73339337072677 -11.780751114772006, 116.8897351343588 -11.184552211094086, 117.28436417990932 -9.67966062709968 M117.28436417990932 -9.67966062709968 C117.48548434870509 -8.646951067096156, 117.68660451750087 -7.61424150709263, 117.81740757852859 -6.942595433952013 M117.28436417990932 -9.67966062709968 C117.42963077935701 -8.933747341042437, 117.57489737880472 -8.187834054985194, 117.81740757852859 -6.942595433952013 M117.81740757852859 -6.942595433952013 C117.89112521146289 -6.370856030106711, 117.9648428443972 -5.79911662626141, 118.17399141329012 -4.177001626984165 M117.81740757852859 -6.942595433952013 C117.92401784216443 -6.115747281770152, 118.03062810580028 -5.288899129588291, 118.17399141329012 -4.177001626984165 M118.17399141329012 -4.177001626984165 C118.22466062911053 -3.3877876911265465, 118.27532984493092 -2.5985737552689283, 118.35265040472993 -1.3942436243669998 M118.17399141329012 -4.177001626984165 C118.22786583444363 -3.3378640308681655, 118.28174025559716 -2.498726434752166, 118.35265040472993 -1.3942436243669998 M118.35265040472993 -1.3942436243669998 C118.35265040472993 -0.4254812752414061, 118.35265040472993 0.5432810738841876, 118.35265040472993 1.3942436243669891 M118.35265040472993 -1.3942436243669998 C118.35265040472993 -0.7871683404194819, 118.35265040472993 -0.18009305647196405, 118.35265040472993 1.3942436243669891 M118.35265040472993 1.3942436243669891 C118.28235868563821 2.489093887674787, 118.2120669665465 3.583944150982585, 118.17399141329012 4.177001626984135 M118.35265040472993 1.3942436243669891 C118.29082697142375 2.3571935010878553, 118.22900353811757 3.320143377808721, 118.17399141329012 4.177001626984135 M118.17399141329012 4.177001626984135 C118.09671074353403 4.776375240818004, 118.01943007377795 5.375748854651873, 117.81740757852859 6.942595433951983 M118.17399141329012 4.177001626984135 C118.04951171166954 5.142441611456053, 117.92503201004894 6.107881595927971, 117.81740757852859 6.942595433951983 M117.81740757852859 6.942595433951983 C117.64238536673177 7.841297500571048, 117.46736315493496 8.739999567190113, 117.28436417990932 9.679660627099672 M117.81740757852859 6.942595433951983 C117.623305199931 7.939270124498311, 117.42920282133342 8.935944815044639, 117.28436417990932 9.679660627099672 M117.28436417990932 9.679660627099672 C117.05424407512909 10.557208321311, 116.82412397034886 11.434756015522327, 116.57705160709475 12.376950018449895 M117.28436417990932 9.679660627099672 C117.06341638922305 10.522230312364648, 116.84246859853678 11.364799997629625, 116.57705160709475 12.376950018449895 M116.57705160709475 12.376950018449895 C116.2980048289033 13.217394454296198, 116.01895805071186 14.057838890142502, 115.69837635916457 15.023379867326874 M116.57705160709475 12.376950018449895 C116.26263212868481 13.323931391479885, 115.94821265027487 14.270912764509875, 115.69837635916457 15.023379867326874 M115.69837635916457 15.023379867326874 C115.48335999834146 15.554474435618522, 115.26834363751833 16.08556900391017, 114.65194910118785 17.60807542582413 M115.69837635916457 15.023379867326874 C115.36309237797347 15.851537783143703, 115.02780839678236 16.679695698960533, 114.65194910118785 17.60807542582413 M114.65194910118785 17.60807542582413 C114.39307418725437 18.145634723642832, 114.13419927332087 18.683194021461535, 113.44206982722551 20.120415625476323 M114.65194910118785 17.60807542582413 C114.38924696896571 18.153582024308594, 114.12654483674355 18.69908862279306, 113.44206982722551 20.120415625476323 M113.44206982722551 20.120415625476323 C112.97125061598807 20.95640281064331, 112.50043140475061 21.7923899958103, 112.07371019073256 22.550076721507835 M113.44206982722551 20.120415625476323 C113.11416005738081 20.70265262630035, 112.7862502875361 21.28488962712437, 112.07371019073256 22.550076721507835 M112.07371019073256 22.550076721507835 C111.54115477049687 23.368224858143645, 111.00859935026118 24.186372994779454, 110.5524930749676 24.887074715314366 M112.07371019073256 22.550076721507835 C111.67718992397323 23.15923833185048, 111.2806696572139 23.768399942193128, 110.5524930749676 24.887074715314366 M110.5524930749676 24.887074715314366 C109.90144261346673 25.759423021808335, 109.25039215196584 26.631771328302303, 108.8846694873593 27.121806380854903 M110.5524930749676 24.887074715314366 C110.19598405040215 25.36476432959178, 109.8394750258367 25.84245394386919, 108.8846694873593 27.121806380854903 M108.8846694873593 27.121806380854903 C108.42270340398026 27.66445802900673, 107.96073732060123 28.20710967715856, 107.07709287277623 29.245088726367264 M108.8846694873593 27.121806380854903 C108.26598985608493 27.84854267961808, 107.64731022481055 28.57527897838126, 107.07709287277623 29.245088726367264 M107.07709287277623 29.245088726367264 C106.34808624285012 29.997847924323406, 105.619079612924 30.750607122279547, 105.13719095125167 31.24819672925114 M107.07709287277623 29.245088726367264 C106.30492887127407 30.042411453761773, 105.53276486977191 30.83973418115628, 105.13719095125167 31.24819672925114 M105.13719095125167 31.24819672925114 C104.41112905351233 31.907586934232906, 103.68506715577297 32.56697713921467, 103.07293519588882 33.12289918905732 M105.13719095125167 31.24819672925114 C104.41572632088123 31.903411817645484, 103.6942616905108 32.55862690603983, 103.07293519588882 33.12289918905732 M103.07293519588882 33.12289918905732 C102.40972694617841 33.65179011948865, 101.74651869646802 34.180681049919976, 100.89280807636791 34.861492551256106 M103.07293519588882 33.12289918905732 C102.26626302979786 33.76619877506699, 101.45959086370691 34.409498361076665, 100.89280807636791 34.861492551256106 M100.89280807636791 34.861492551256106 C100.1432242482703 35.38436978077606, 99.39364042017269 35.90724701029602, 98.60576820265888 36.45683256279506 M100.89280807636791 34.861492551256106 C100.29970806808707 35.27521344214727, 99.70660805980623 35.688934333038425, 98.60576820265888 36.45683256279506 M98.60576820265888 36.45683256279506 C98.04301752154818 36.79797533277445, 97.48026684043748 37.13911810275384, 96.22121351217129 37.90236362936744 M98.60576820265888 36.45683256279506 C97.6611481493617 37.02946679030742, 96.71652809606452 37.60210101781978, 96.22121351217129 37.90236362936744 M96.22121351217129 37.90236362936744 C95.6100012545822 38.22123267265153, 94.99878899699311 38.54010171593562, 93.74894265161379 39.19214575375523 M96.22121351217129 37.90236362936744 C95.42820255020946 38.31607694027516, 94.63519158824765 38.72979025118288, 93.74894265161379 39.19214575375523 M93.74894265161379 39.19214575375523 C93.20917107002028 39.4310866211716, 92.66939948842678 39.670027488587984, 91.1991147122528 40.32087894455194 M93.74894265161379 39.19214575375523 C92.82702464158587 39.60025150906849, 91.90510663155793 40.00835726438176, 91.1991147122528 40.32087894455194 M91.1991147122528 40.32087894455194 C90.16508712352517 40.70141065564996, 89.13105953479753 41.08194236674797, 88.58220748402752 41.283924994964075 M91.1991147122528 40.32087894455194 C90.40471632304353 40.61322489511916, 89.61031793383425 40.905570845686384, 88.58220748402752 41.283924994964075 M88.58220748402752 41.283924994964075 C87.71754962416259 41.540550909090264, 86.85289176429767 41.797176823216454, 85.90897440006361 42.077326542197774 M88.58220748402752 41.283924994964075 C88.0388197973363 41.445199608073864, 87.49543211064507 41.606474221183646, 85.90897440006361 42.077326542197774 M85.90897440006361 42.077326542197774 C85.33640200495712 42.20801245499677, 84.76382960985063 42.338698367795764, 83.19040034850971 42.697823329111344 M85.90897440006361 42.077326542197774 C84.95751216331183 42.29449158886502, 84.00604992656007 42.51165663553227, 83.19040034850971 42.697823329111344 M83.19040034850971 42.697823329111344 C82.39973405159726 42.82565212428744, 81.60906775468483 42.95348091946353, 80.43765653327604 43.1428656013112 M83.19040034850971 42.697823329111344 C82.43089773218136 42.82061382208855, 81.67139511585302 42.94340431506576, 80.43765653327604 43.1428656013112 M80.43765653327604 43.1428656013112 C79.59442307928396 43.22421131848122, 78.75118962529187 43.30555703565123, 77.66205456916101 43.41062458463963 M80.43765653327604 43.1428656013112 C79.45845668080337 43.23732783341912, 78.47925682833069 43.33179006552704, 77.66205456916101 43.41062458463963 M77.66205456916101 43.41062458463963 C76.8040778455633 43.438138228215024, 75.9461011219656 43.46565187179042, 74.87500000000001 43.5 M77.66205456916101 43.41062458463963 C76.94592683041304 43.43358940736319, 76.22979909166509 43.45655423008676, 74.87500000000001 43.5 M74.87500000000001 43.5 C74.87500000000001 43.5, 74.87500000000001 43.5, 74.875 43.5 M74.87500000000001 43.5 C74.87500000000001 43.5, 74.875 43.5, 74.875 43.5 M74.875 43.5 C43.50600084030401 43.5, 12.137001680608016 43.5, -74.87499999999999 43.5 M74.875 43.5 C15.395850366618177 43.5, -44.083299266763646 43.5, -74.87499999999999 43.5 M-74.87499999999999 43.5 C-75.9795658599307 43.46457872277904, -77.08413171986142 43.42915744555808, -77.66205456916099 43.41062458463963 M-74.87499999999999 43.5 C-75.47502992131581 43.48075820831079, -76.07505984263165 43.461516416621585, -77.66205456916099 43.41062458463963 M-77.66205456916099 43.41062458463963 C-78.3397473849183 43.345248373748376, -79.01744020067561 43.279872162857124, -80.43765653327603 43.1428656013112 M-77.66205456916099 43.41062458463963 C-78.74574441081394 43.306082328943084, -79.8294342524669 43.20154007324654, -80.43765653327603 43.1428656013112 M-80.43765653327603 43.1428656013112 C-81.28097496826129 43.00652441677492, -82.12429340324657 42.870183232238645, -83.1904003485097 42.697823329111344 M-80.43765653327603 43.1428656013112 C-81.2439858481688 43.01250453085657, -82.05031516306157 42.882143460401934, -83.1904003485097 42.697823329111344 M-83.1904003485097 42.697823329111344 C-83.85568510036178 42.54597642588983, -84.52096985221387 42.39412952266833, -85.90897440006356 42.07732654219778 M-83.1904003485097 42.697823329111344 C-83.91359034471456 42.532759931733345, -84.63678034091943 42.367696534355346, -85.90897440006356 42.07732654219778 M-85.90897440006356 42.07732654219778 C-86.4732778036492 41.90984425410257, -87.03758120723482 41.74236196600737, -88.58220748402748 41.283924994964096 M-85.90897440006356 42.07732654219778 C-86.68103923834992 41.84818175084543, -87.4531040766363 41.619036959493066, -88.58220748402748 41.283924994964096 M-88.58220748402748 41.283924994964096 C-89.13704804892494 41.07973853819187, -89.69188861382241 40.87555208141964, -91.19911471225278 40.32087894455194 M-88.58220748402748 41.283924994964096 C-89.22389335155286 41.04777866403562, -89.86557921907823 40.81163233310715, -91.19911471225278 40.32087894455194 M-91.19911471225278 40.32087894455194 C-91.84160829311185 40.03646609520055, -92.4841018739709 39.752053245849154, -93.74894265161377 39.192145753755234 M-91.19911471225278 40.32087894455194 C-92.13238564957982 39.90774758509599, -93.06565658690685 39.49461622564004, -93.74894265161377 39.192145753755234 M-93.74894265161377 39.192145753755234 C-94.24556100432834 38.933060277243285, -94.7421793570429 38.67397480073133, -96.22121351217127 37.90236362936745 M-93.74894265161377 39.192145753755234 C-94.2913412705419 38.909176741683325, -94.83373988947004 38.62620772961141, -96.22121351217127 37.90236362936745 M-96.22121351217127 37.90236362936745 C-96.73649892936979 37.58999458130848, -97.2517843465683 37.277625533249505, -98.60576820265884 36.456832562795086 M-96.22121351217127 37.90236362936745 C-96.74461631773578 37.585073772777946, -97.26801912330028 37.26778391618844, -98.60576820265884 36.456832562795086 M-98.60576820265884 36.456832562795086 C-99.44630653587097 35.870509407864304, -100.28684486908311 35.284186252933516, -100.89280807636788 34.86149255125612 M-98.60576820265884 36.456832562795086 C-99.41900005844062 35.88955722444136, -100.2322319142224 35.32228188608764, -100.89280807636788 34.86149255125612 M-100.89280807636788 34.86149255125612 C-101.74051513258192 34.18546873235759, -102.58822218879595 33.509444913459056, -103.07293519588879 33.12289918905736 M-100.89280807636788 34.86149255125612 C-101.582808299811 34.31123573473732, -102.27280852325411 33.76097891821853, -103.07293519588879 33.12289918905736 M-103.07293519588879 33.12289918905736 C-103.57034121148386 32.67116820633589, -104.06774722707895 32.219437223614435, -105.13719095125164 31.24819672925117 M-103.07293519588879 33.12289918905736 C-103.7584263937246 32.50035422028608, -104.44391759156042 31.8778092515148, -105.13719095125164 31.24819672925117 M-105.13719095125164 31.24819672925117 C-105.8773904031666 30.483880023643778, -106.61758985508156 29.719563318036382, -107.07709287277623 29.245088726367282 M-105.13719095125164 31.24819672925117 C-105.6591627896008 30.709217951470745, -106.18113462794996 30.17023917369032, -107.07709287277623 29.245088726367282 M-107.07709287277623 29.245088726367282 C-107.49164690842116 28.75812996730588, -107.90620094406609 28.271171208244482, -108.88466948735929 27.121806380854917 M-107.07709287277623 29.245088726367282 C-107.60606711141506 28.623725486175257, -108.13504135005388 28.00236224598323, -108.88466948735929 27.121806380854917 M-108.88466948735929 27.121806380854917 C-109.38170036366337 26.455830287051786, -109.87873123996745 25.789854193248658, -110.55249307496757 24.887074715314395 M-108.88466948735929 27.121806380854917 C-109.49763566831804 26.300487540738064, -110.11060184927679 25.47916870062121, -110.55249307496757 24.887074715314395 M-110.55249307496757 24.887074715314395 C-111.01576312586617 24.175367511707073, -111.47903317676477 23.46366030809975, -112.07371019073254 22.550076721507864 M-110.55249307496757 24.887074715314395 C-111.05758158179461 24.11112313357325, -111.56267008862164 23.33517155183211, -112.07371019073254 22.550076721507864 M-112.07371019073254 22.550076721507864 C-112.36423470918979 22.034221020189463, -112.65475922764703 21.518365318871062, -113.44206982722551 20.120415625476337 M-112.07371019073254 22.550076721507864 C-112.47723986578995 21.833568921632935, -112.88076954084737 21.117061121758006, -113.44206982722551 20.120415625476337 M-113.44206982722551 20.120415625476337 C-113.85115081208866 19.270950207477114, -114.26023179695181 18.421484789477894, -114.65194910118784 17.608075425824147 M-113.44206982722551 20.120415625476337 C-113.74169851971865 19.498230234487327, -114.0413272122118 18.876044843498313, -114.65194910118784 17.608075425824147 M-114.65194910118784 17.608075425824147 C-115.02756279959658 16.680302328757737, -115.40317649800531 15.752529231691323, -115.69837635916457 15.023379867326907 M-114.65194910118784 17.608075425824147 C-115.03805532274828 16.654385593713894, -115.42416154430872 15.70069576160364, -115.69837635916457 15.023379867326907 M-115.69837635916457 15.023379867326907 C-116.0004820930131 14.113485530987086, -116.30258782686164 13.203591194647267, -116.57705160709475 12.37695001844991 M-115.69837635916457 15.023379867326907 C-115.8779345709466 14.482579142155314, -116.05749278272864 13.94177841698372, -116.57705160709475 12.37695001844991 M-116.57705160709475 12.37695001844991 C-116.732891449299 11.782665158710184, -116.88873129150328 11.188380298970458, -117.28436417990932 9.679660627099686 M-116.57705160709475 12.37695001844991 C-116.78406363078314 11.587523452547465, -116.99107565447152 10.79809688664502, -117.28436417990932 9.679660627099686 M-117.28436417990932 9.679660627099686 C-117.44120154857622 8.874333886584783, -117.59803891724312 8.069007146069879, -117.81740757852859 6.942595433952017 M-117.28436417990932 9.679660627099686 C-117.41322163665443 9.01800482074672, -117.54207909339952 8.356349014393754, -117.81740757852859 6.942595433952017 M-117.81740757852859 6.942595433952017 C-117.9589077662635 5.8451479202525745, -118.1004079539984 4.747700406553131, -118.17399141329011 4.17700162698419 M-117.81740757852859 6.942595433952017 C-117.90440287867447 6.267877065185546, -117.99139817882038 5.593158696419074, -118.17399141329011 4.17700162698419 M-118.17399141329011 4.17700162698419 C-118.23367352443535 3.2474045713642923, -118.29335563558057 2.317807515744395, -118.35265040472993 1.394243624367005 M-118.17399141329011 4.17700162698419 C-118.23949444735769 3.1567389982844025, -118.30499748142526 2.136476369584615, -118.35265040472993 1.394243624367005 M-118.35265040472993 1.394243624367005 C-118.35265040472993 0.8141472071548342, -118.35265040472993 0.23405078994266337, -118.35265040472993 -1.394243624366984 M-118.35265040472993 1.394243624367005 C-118.35265040472993 0.40430714596446926, -118.35265040472993 -0.5856293324380666, -118.35265040472993 -1.394243624366984 M-118.35265040472993 -1.394243624366984 C-118.31429432822063 -1.9916704764671564, -118.27593825171131 -2.589097328567329, -118.17399141329012 -4.177001626984129 M-118.35265040472993 -1.394243624366984 C-118.30155525068663 -2.190091891857206, -118.25046009664335 -2.985940159347428, -118.17399141329012 -4.177001626984129 M-118.17399141329012 -4.177001626984129 C-118.08632140680754 -4.856952884862147, -117.99865140032495 -5.536904142740164, -117.81740757852859 -6.942595433951997 M-118.17399141329012 -4.177001626984129 C-118.09472826246673 -4.791750972490822, -118.01546511164335 -5.406500317997513, -117.81740757852859 -6.942595433951997 M-117.81740757852859 -6.942595433951997 C-117.70601797983142 -7.514557481061909, -117.59462838113426 -8.086519528171822, -117.28436417990932 -9.679660627099667 M-117.81740757852859 -6.942595433951997 C-117.62532898891617 -7.928878395787472, -117.43325039930374 -8.915161357622948, -117.28436417990932 -9.679660627099667 M-117.28436417990932 -9.679660627099667 C-117.13439026411633 -10.251576167124583, -116.98441634832335 -10.823491707149499, -116.57705160709475 -12.37695001844989 M-117.28436417990932 -9.679660627099667 C-117.02025727243353 -10.686814729962675, -116.75615036495772 -11.693968832825684, -116.57705160709475 -12.37695001844989 M-116.57705160709475 -12.37695001844989 C-116.26584177578874 -13.314264445790654, -115.95463194448276 -14.251578873131416, -115.6983763591646 -15.023379867326852 M-116.57705160709475 -12.37695001844989 C-116.3409541365151 -13.088037982812365, -116.10485666593544 -13.79912594717484, -115.6983763591646 -15.023379867326852 M-115.6983763591646 -15.023379867326852 C-115.41886862080753 -15.713769384983305, -115.13936088245046 -16.404158902639757, -114.65194910118785 -17.608075425824126 M-115.6983763591646 -15.023379867326852 C-115.46017853948881 -15.611733087167616, -115.221980719813 -16.20008630700838, -114.65194910118785 -17.608075425824126 M-114.65194910118785 -17.608075425824126 C-114.35219566924921 -18.230519840940712, -114.05244223731056 -18.852964256057298, -113.44206982722551 -20.12041562547632 M-114.65194910118785 -17.608075425824126 C-114.23742405884153 -18.468845545671332, -113.82289901649519 -19.329615665518535, -113.44206982722551 -20.12041562547632 M-113.44206982722551 -20.12041562547632 C-112.92065670107436 -21.04623742976201, -112.39924357492322 -21.972059234047702, -112.07371019073256 -22.55007672150785 M-113.44206982722551 -20.12041562547632 C-113.05100436946064 -20.814791945409485, -112.65993891169578 -21.509168265342655, -112.07371019073256 -22.55007672150785 M-112.07371019073256 -22.55007672150785 C-111.51550080127063 -23.407636243930423, -110.95729141180873 -24.265195766352996, -110.55249307496757 -24.88707471531438 M-112.07371019073256 -22.55007672150785 C-111.65314082143921 -23.19618421143099, -111.23257145214586 -23.842291701354128, -110.55249307496757 -24.88707471531438 M-110.55249307496757 -24.88707471531438 C-110.19454801886022 -25.366688481032796, -109.83660296275285 -25.84630224675121, -108.8846694873593 -27.121806380854903 M-110.55249307496757 -24.88707471531438 C-110.03960185400975 -25.574302226046413, -109.52671063305192 -26.26152973677845, -108.8846694873593 -27.121806380854903 M-108.8846694873593 -27.121806380854903 C-108.27306760116316 -27.840228757514083, -107.66146571496702 -28.558651134173264, -107.07709287277623 -29.245088726367264 M-108.8846694873593 -27.121806380854903 C-108.45767775396655 -27.62337516741595, -108.0306860205738 -28.124943953977, -107.07709287277623 -29.245088726367264 M-107.07709287277623 -29.245088726367264 C-106.6456046373693 -29.690635755267873, -106.21411640196239 -30.136182784168483, -105.13719095125168 -31.248196729251127 M-107.07709287277623 -29.245088726367264 C-106.53646221400246 -29.80333426815375, -105.99583155522869 -30.361579809940242, -105.13719095125168 -31.248196729251127 M-105.13719095125168 -31.248196729251127 C-104.66675338994762 -31.675435675331684, -104.19631582864356 -32.10267462141224, -103.07293519588883 -33.12289918905732 M-105.13719095125168 -31.248196729251127 C-104.52218286280414 -31.80673080295685, -103.90717477435662 -32.36526487666257, -103.07293519588883 -33.12289918905732 M-103.07293519588883 -33.12289918905732 C-102.50361334927108 -33.57691821144438, -101.93429150265331 -34.03093723383143, -100.89280807636791 -34.861492551256106 M-103.07293519588883 -33.12289918905732 C-102.32459593090864 -33.71967983873484, -101.57625666592845 -34.31646048841236, -100.89280807636791 -34.861492551256106 M-100.89280807636791 -34.861492551256106 C-100.16658494259059 -35.36807437168639, -99.44036180881326 -35.874656192116674, -98.6057682026589 -36.45683256279505 M-100.89280807636791 -34.861492551256106 C-100.2380882711875 -35.318196744986395, -99.58336846600707 -35.774900938716684, -98.6057682026589 -36.45683256279505 M-98.6057682026589 -36.45683256279505 C-97.91771410991507 -36.87393499727102, -97.22966001717124 -37.291037431747, -96.2212135121713 -37.902363629367436 M-98.6057682026589 -36.45683256279505 C-97.87726127862717 -36.89845774132497, -97.14875435459545 -37.34008291985489, -96.2212135121713 -37.902363629367436 M-96.2212135121713 -37.902363629367436 C-95.72518422859113 -38.161141788889296, -95.22915494501095 -38.419919948411156, -93.74894265161379 -39.19214575375523 M-96.2212135121713 -37.902363629367436 C-95.46537173533446 -38.296685800203456, -94.7095299584976 -38.691007971039475, -93.74894265161379 -39.19214575375523 M-93.74894265161379 -39.19214575375523 C-93.09332813818767 -39.48236685073542, -92.43771362476156 -39.772587947715614, -91.1991147122528 -40.320878944551936 M-93.74894265161379 -39.19214575375523 C-93.1134674060113 -39.47345179428005, -92.4779921604088 -39.754757834804884, -91.1991147122528 -40.320878944551936 M-91.1991147122528 -40.320878944551936 C-90.38564031676934 -40.62024504176473, -89.57216592128587 -40.91961113897752, -88.58220748402753 -41.283924994964075 M-91.1991147122528 -40.320878944551936 C-90.28160504512246 -40.65853098342229, -89.36409537799213 -40.99618302229264, -88.58220748402753 -41.283924994964075 M-88.58220748402753 -41.283924994964075 C-87.94591515620917 -41.47277321789398, -87.3096228283908 -41.661621440823886, -85.90897440006361 -42.07732654219777 M-88.58220748402753 -41.283924994964075 C-87.67669208307821 -41.5526772128185, -86.7711766821289 -41.82142943067293, -85.90897440006361 -42.07732654219777 M-85.90897440006361 -42.07732654219777 C-84.99177278737923 -42.2866718249931, -84.07457117469485 -42.49601710778843, -83.19040034850971 -42.69782332911134 M-85.90897440006361 -42.07732654219777 C-85.07223589254679 -42.26830664630943, -84.23549738502996 -42.45928675042111, -83.19040034850971 -42.69782332911134 M-83.19040034850971 -42.69782332911134 C-82.25531543089471 -42.84900060689949, -81.32023051327972 -43.000177884687645, -80.43765653327604 -43.1428656013112 M-83.19040034850971 -42.69782332911134 C-82.17473903965269 -42.86202757295625, -81.15907773079567 -43.02623181680117, -80.43765653327604 -43.1428656013112 M-80.43765653327604 -43.1428656013112 C-79.32919881352564 -43.249797184420075, -78.22074109377525 -43.35672876752894, -77.66205456916101 -43.41062458463963 M-80.43765653327604 -43.1428656013112 C-79.44475097567252 -43.23865000630957, -78.45184541806901 -43.33443441130794, -77.66205456916101 -43.41062458463963 M-77.66205456916101 -43.41062458463963 C-76.7350166485672 -43.440352886383224, -75.80797872797338 -43.47008118812682, -74.87500000000001 -43.5 M-77.66205456916101 -43.41062458463963 C-76.99619639726548 -43.43197736019801, -76.33033822536993 -43.453330135756396, -74.87500000000001 -43.5 M-74.87500000000001 -43.5 C-74.87500000000001 -43.5, -74.875 -43.5, -74.875 -43.5 M-74.87500000000001 -43.5 C-74.87500000000001 -43.5, -74.875 -43.5, -74.875 -43.5" stroke="#9370DB" stroke-width="1.3" fill="none" stroke-dasharray="0 0" style=""/></g><g class="label" style="" transform="translate(-100, -36)"><rect/><foreignObject width="200" height="72"><div xmlns="http://www.w3.org/1999/xhtml" style="display: table; white-space: break-spaces; line-height: 1.5; max-width: 200px; text-align: center; width: 200px;"><span class="nodeLabel"><p>Section 198: Using as a true certificate one known to be false in a material ...</p></span></div></foreignObject></g></g><g class="node default" id="my-svg-flowchart-GRP2-1" data-look="classic" transform="translate(138, 164.5)"><polygon points="9.75,0 174.359375,0 184.109375,-19.5 174.359375,-39 9.75,-39 0,-19.5" class="label-container" transform="translate(-92.0546875,19.5)"/><g class="label" style="" transform="translate(-74.8046875, -12)"><rect/><foreignObject width="149.609375" height="24"><div xmlns="http://www.w3.org/1999/xhtml" style="display: table-cell; white-space: nowrap; line-height: 1.5; max-width: 200px; text-align: center;"><span class="nodeLabel"><p>ALL OF (conjunctive)</p></span></div></foreignObject></g></g><g class="node default" id="my-svg-flowchart-ELEM3-4" data-look="classic" transform="translate(138, 285)"><rect class="basic label-container" style="" x="-130" y="-51" width="260" height="102"/><g class="label" style="" transform="translate(-100, -36)"><rect/><foreignObject width="200" height="72"><div xmlns="http://www.w3.org/1999/xhtml" style="display: table; white-space: break-spaces; line-height: 1.5; max-width: 200px; text-align: center; width: 200px;"><span class="nodeLabel"><p>Corruptly uses or attempts to use any such certificate as a true certificate</p></span></div></foreignObject></g></g><g class="node default" id="my-svg-flowchart-ELEM4-7" data-look="classic" transform="translate(138, 425)"><rect class="basic label-container" style="" x="-130" y="-39" width="260" height="78"/><g class="label" style="" transform="translate(-100, -24)"><rect/><foreignObject width="200" height="48"><div xmlns="http://www.w3.org/1999/xhtml" style="display: table; white-space: break-spaces; line-height: 1.5; max-width: 200px; text-align: center; width: 200px;"><span class="nodeLabel"><p>Knowing the same to be false in any material point</p></span></div></foreignObject></g></g><g class="node default" id="my-svg-flowchart-PENALTY5-10" data-look="classic" transform="translate(138, 557.5)"><polygon points="0,0 215,0 215,-87 0,-87 0,0 -8,0 223,0 223,-87 -8,-87 -8,0" class="label-container" transform="translate(-107.5,43.5)"/><g class="label" style="" transform="translate(-100, -36)"><rect/><foreignObject width="200" height="72"><div xmlns="http://www.w3.org/1999/xhtml" style="display: table; white-space: break-spaces; line-height: 1.5; max-width: 200px; text-align: center; width: 200px;"><span class="nodeLabel"><p>Shall be punished in the same manner as if he gave false evidence.</p></span></div></foreignObject></g></g></g></g></g><defs><filter id="my-svg-drop-shadow" height="130%" width="130%"><feDropShadow dx="4" dy="4" stdDeviation="0" flood-opacity="0.06" flood-color="#000000"/></filter></defs><defs><filter id="my-svg-drop-shadow-small" height="150%" width="150%"><feDropShadow dx="2" dy="2" stdDeviation="0" flood-opacity="0.06" flood-color="#000000"/></filter></defs></svg>