<svg class="yuho-mermaid-svg" id="my-svg" width="100%" xmlns="http://www.w3.org/2000/svg" xmlns:xlink="http://www.w3.org/1999/xlink" class="flowchart" style="max-width: 276px; background-color: transparent;" viewBox="0 0 276 255" role="graphics-document document" aria-roledescription="flowchart-v2"><style>#my-svg{font-family:"trebuchet ms",verdana,arial,sans-serif;font-size:16px;fill:#333;}@keyframes edge-animation-frame{from{stroke-dashoffset:0;}}@keyframes dash{to{stroke-dashoffset:0;}}#my-svg .edge-animation-slow{stroke-dasharray:9,5!important;stroke-dashoffset:900;animation:dash 50s linear infinite;stroke-linecap:round;}#my-svg .edge-animation-fast{stroke-dasharray:9,5!important;stroke-dashoffset:900;animation:dash 20s linear infinite;stroke-linecap:round;}#my-svg .error-icon{fill:#552222;}#my-svg .error-text{fill:#552222;stroke:#552222;}#my-svg .edge-thickness-normal{stroke-width:1px;}#my-svg .edge-thickness-thick{stroke-width:3.5px;}#my-svg .edge-pattern-solid{stroke-dasharray:0;}#my-svg .edge-thickness-invisible{stroke-width:0;fill:none;}#my-svg .edge-pattern-dashed{stroke-dasharray:3;}#my-svg .edge-pattern-dotted{stroke-dasharray:2;}#my-svg .marker{fill:#333333;stroke:#333333;}#my-svg .marker.cross{stroke:#333333;}#my-svg svg{font-family:"trebuchet ms",verdana,arial,sans-serif;font-size:16px;}#my-svg p{margin:0;}#my-svg .label{font-family:"trebuchet ms",verdana,arial,sans-serif;color:#333;}#my-svg .cluster-label text{fill:#333;}#my-svg .cluster-label span{color:#333;}#my-svg .cluster-label span p{background-color:transparent;}#my-svg .label text,#my-svg span{fill:#333;color:#333;}#my-svg .node rect,#my-svg .node circle,#my-svg .node ellipse,#my-svg .node polygon,#my-svg .node path{fill:#ECECFF;stroke:#9370DB;stroke-width:1px;}#my-svg .rough-node .label text,#my-svg .node .label text,#my-svg .image-shape .label,#my-svg .icon-shape .label{text-anchor:middle;}#my-svg .node .katex path{fill:#000;stroke:#000;stroke-width:1px;}#my-svg .rough-node .label,#my-svg .node .label,#my-svg .image-shape .label,#my-svg .icon-shape .label{text-align:center;}#my-svg .node.clickable{cursor:pointer;}#my-svg .root .anchor path{fill:#333333!important;stroke-width:0;stroke:#333333;}#my-svg .arrowheadPath{fill:#333333;}#my-svg .edgePath .path{stroke:#333333;stroke-width:1px;}#my-svg .flowchart-link{stroke:#333333;fill:none;}#my-svg .edgeLabel{background-color:rgba(232,232,232, 0.8);text-align:center;}#my-svg .edgeLabel p{background-color:rgba(232,232,232, 0.8);}#my-svg .edgeLabel rect{opacity:0.5;background-color:rgba(232,232,232, 0.8);fill:rgba(232,232,232, 0.8);}#my-svg .labelBkg{background-color:rgba(232, 232, 232, 0.5);}#my-svg .cluster rect{fill:#ffffde;stroke:#aaaa33;stroke-width:1px;}#my-svg .cluster text{fill:#333;}#my-svg .cluster span{color:#333;}#my-svg div.mermaidTooltip{position:absolute;text-align:center;max-width:200px;padding:2px;font-family:"trebuchet ms",verdana,arial,sans-serif;font-size:12px;background:hsl(80, 100%, 96.2745098039%);border:1px solid #aaaa33;border-radius:2px;pointer-events:none;z-index:100;}#my-svg .flowchartTitleText{text-anchor:middle;font-size:18px;fill:#333;}#my-svg rect.text{fill:none;stroke-width:0;}#my-svg .icon-shape,#my-svg .image-shape{background-color:rgba(232,232,232, 0.8);text-align:center;}#my-svg .icon-shape p,#my-svg .image-shape p{background-color:rgba(232,232,232, 0.8);padding:2px;}#my-svg .icon-shape .label rect,#my-svg .image-shape .label rect{opacity:0.5;background-color:rgba(232,232,232, 0.8);fill:rgba(232,232,232, 0.8);}#my-svg .label-icon{display:inline-block;height:1em;overflow:visible;vertical-align:-0.125em;}#my-svg .node .label-icon path{fill:currentColor;stroke:revert;stroke-width:revert;}#my-svg .node .neo-node{stroke:#9370DB;}#my-svg [data-look="neo"].node rect,#my-svg [data-look="neo"].cluster rect,#my-svg [data-look="neo"].node polygon{stroke:#9370DB;filter:drop-shadow(1px 2px 2px rgba(185, 185, 185, 1));}#my-svg [data-look="neo"].node path{stroke:#9370DB;stroke-width:1px;}#my-svg [data-look="neo"].node .outer-path{filter:drop-shadow(1px 2px 2px rgba(185, 185, 185, 1));}#my-svg [data-look="neo"].node .neo-line path{stroke:#9370DB;filter:none;}#my-svg [data-look="neo"].node circle{stroke:#9370DB;filter:drop-shadow(1px 2px 2px rgba(185, 185, 185, 1));}#my-svg [data-look="neo"].node circle .state-start{fill:#000000;}#my-svg [data-look="neo"].icon-shape .icon{fill:#9370DB;filter:drop-shadow(1px 2px 2px rgba(185, 185, 185, 1));}#my-svg [data-look="neo"].icon-shape .icon-neo path{stroke:#9370DB;filter:drop-shadow(1px 2px 2px rgba(185, 185, 185, 1));}#my-svg :root{--mermaid-font-family:"trebuchet ms",verdana,arial,sans-serif;}</style><g><marker id="my-svg_flowchart-v2-pointEnd" class="marker flowchart-v2" viewBox="0 0 10 10" refX="5" refY="5" markerUnits="userSpaceOnUse" markerWidth="8" markerHeight="8" orient="auto"><path d="M 0 0 L 10 5 L 0 10 z" class="arrowMarkerPath" style="stroke-width: 1; stroke-dasharray: 1, 0;"/></marker><marker id="my-svg_flowchart-v2-pointStart" class="marker flowchart-v2" viewBox="0 0 10 10" refX="4.5" refY="5" markerUnits="userSpaceOnUse" markerWidth="8" markerHeight="8" orient="auto"><path d="M 0 5 L 10 10 L 10 0 z" class="arrowMarkerPath" style="stroke-width: 1; stroke-dasharray: 1, 0;"/></marker><marker id="my-svg_flowchart-v2-pointEnd-margin" class="marker flowchart-v2" viewBox="0 0 11.5 14" refX="11.5" refY="7" markerUnits="userSpaceOnUse" markerWidth="10.5" markerHeight="14" orient="auto"><path d="M 0 0 L 11.5 7 L 0 14 z" class="arrowMarkerPath" style="stroke-width: 0; stroke-dasharray: 1, 0;"/></marker><marker id="my-svg_flowchart-v2-pointStart-margin" class="marker flowchart-v2" viewBox="0 0 11.5 14" refX="1" refY="7" markerUnits="userSpaceOnUse" markerWidth="11.5" markerHeight="14" orient="auto"><polygon points="0,7 11.5,14 11.5,0" class="arrowMarkerPath" style="stroke-width: 0; stroke-dasharray: 1, 0;"/></marker><marker id="my-svg_flowchart-v2-circleEnd" class="marker flowchart-v2" viewBox="0 0 10 10" refX="11" refY="5" markerUnits="userSpaceOnUse" markerWidth="11" markerHeight="11" orient="auto"><circle cx="5" cy="5" r="5" class="arrowMarkerPath" style="stroke-width: 1; stroke-dasharray: 1, 0;"/></marker><marker id="my-svg_flowchart-v2-circleStart" class="marker flowchart-v2" viewBox="0 0 10 10" refX="-1" refY="5" markerUnits="userSpaceOnUse" markerWidth="11" markerHeight="11" orient="auto"><circle cx="5" cy="5" r="5" class="arrowMarkerPath" style="stroke-width: 1; stroke-dasharray: 1, 0;"/></marker><marker id="my-svg_flowchart-v2-circleEnd-margin" class="marker flowchart-v2" viewBox="0 0 10 10" refY="5" refX="12.25" markerUnits="userSpaceOnUse" markerWidth="14" markerHeight="14" orient="auto"><circle cx="5" cy="5" r="5" class="arrowMarkerPath" style="stroke-width: 0; stroke-dasharray: 1, 0;"/></marker><marker id="my-svg_flowchart-v2-circleStart-margin" class="marker flowchart-v2" viewBox="0 0 10 10" refX="-2" refY="5" markerUnits="userSpaceOnUse" markerWidth="14" markerHeight="14" orient="auto"><circle cx="5" cy="5" r="5" class="arrowMarkerPath" style="stroke-width: 0; stroke-dasharray: 1, 0;"/></marker><marker id="my-svg_flowchart-v2-crossEnd" class="marker cross flowchart-v2" viewBox="0 0 11 11" refX="12" refY="5.2" markerUnits="userSpaceOnUse" markerWidth="11" markerHeight="11" orient="auto"><path d="M 1,1 l 9,9 M 10,1 l -9,9" class="arrowMarkerPath" style="stroke-width: 2; stroke-dasharray: 1, 0;"/></marker><marker id="my-svg_flowchart-v2-crossStart" class="marker cross flowchart-v2" viewBox="0 0 11 11" refX="-1" refY="5.2" markerUnits="userSpaceOnUse" markerWidth="11" markerHeight="11" orient="auto"><path d="M 1,1 l 9,9 M 10,1 l -9,9" class="arrowMarkerPath" style="stroke-width: 2; stroke-dasharray: 1, 0;"/></marker><marker id="my-svg_flowchart-v2-crossEnd-margin" class="marker cross flowchart-v2" viewBox="0 0 15 15" refX="17.7" refY="7.5" markerUnits="userSpaceOnUse" markerWidth="12" markerHeight="12" orient="auto"><path d="M 1,1 L 14,14 M 1,14 L 14,1" class="arrowMarkerPath" style="stroke-width: 2.5;"/></marker><marker id="my-svg_flowchart-v2-crossStart-margin" class="marker cross flowchart-v2" viewBox="0 0 15 15" refX="-3.5" refY="7.5" markerUnits="userSpaceOnUse" markerWidth="12" markerHeight="12" orient="auto"><path d="M 1,1 L 14,14 M 1,14 L 14,1" class="arrowMarkerPath" style="stroke-width: 2.5; stroke-dasharray: 1, 0;"/></marker><g class="root"><g class="clusters"/><g class="edgePaths"><path d="M138.5,71.5L138.417,77.583C138.333,83.667,138.167,95.833,138.083,107.417C138,119,138,130,138,135.5L138,141" id="my-svg-L_START1_ILLUS2_0" class="edge-thickness-normal edge-pattern-dotted edge-thickness-normal edge-pattern-solid flowchart-link" style=";" data-edge="true" data-et="edge" data-id="L_START1_ILLUS2_0" data-points="W3sieCI6MTM4LjUsInkiOjcxLjV9LHsieCI6MTM4LCJ5IjoxMDh9LHsieCI6MTM4LCJ5IjoxNDV9XQ==" data-look="classic" marker-end="url(#my-svg_flowchart-v2-pointEnd)"/></g><g class="edgeLabels"><g class="edgeLabel" transform="translate(138, 108)"><g class="label" data-id="L_START1_ILLUS2_0" transform="translate(-83.03125, -12)"><foreignObject width="166.0625" height="24"><div xmlns="http://www.w3.org/1999/xhtml" class="labelBkg" style="display: table-cell; white-space: nowrap; line-height: 1.5; max-width: 200px; text-align: center;"><span class="edgeLabel"><p>illustration provenance</p></span></div></foreignObject></g></g></g><g class="nodes"><g class="node default" id="my-svg-flowchart-START1-0" data-look="classic" transform="translate(138, 39.5)"><g class="basic label-container outer-path"><path d="M-83.875 -31.5 C-18.195473588103994 -31.5, 47.48405282379201 -31.5, 83.875 -31.5 C83.875 -31.5, 83.875 -31.5, 83.875 -31.5 C84.43470435703092 -31.482051370668458, 84.99440871406185 -31.46410274133692, 85.89321192939245 -31.435279871635593 C86.49763628558897 -31.376971780919956, 87.10206064178549 -31.31866369020432, 87.90313059306193 -31.241385435432253 C88.47178684314956 -31.149449502913168, 89.04044309323719 -31.057513570394082, 89.89649680409322 -30.91911344521856 C90.34734741370784 -30.816209735649203, 90.79819802332247 -30.71330602607984, 91.86511939314947 -30.469788185729428 C92.38870469104376 -30.314390817669718, 92.91228998893803 -30.15899344961001, 93.80090886774406 -29.895256030836062 C94.44252030075295 -29.659137092497716, 95.08413173376185 -29.423018154159372, 95.69591065370028 -29.197877856399685 C96.37033458070047 -28.89933038999168, 97.04475850770066 -28.60078292358367, 97.54233778220308 -28.380519338926202 C98.05338151855997 -28.113908149007948, 98.56442525491687 -27.84729695908969, 99.33260288812403 -27.44653917988677 C99.78196169001318 -27.17413523345613, 100.23132049190234 -26.90173128702549, 101.05934938813228 -26.399775304092984 C101.63230207939714 -26.00010830938887, 102.205254770662 -25.600441314684755, 102.7154817104733 -25.244529088840633 C103.32272479438907 -24.76026888883491, 103.92996787830486 -24.276008688829194, 104.29419445219533 -23.985547688627737 C104.76413310254061 -23.558761840279477, 105.23407175288591 -23.13197599193122, 105.78900034400982 -22.62800452807842 C106.17508355121181 -22.229341918621543, 106.56116675841382 -21.83067930916467, 107.19375690787243 -21.177478043231485 C107.46505818361064 -20.858792127269478, 107.73635945934883 -20.540106211307467, 108.50269169774293 -19.63992875855011 C108.98309187493268 -18.996236286472335, 109.46349205212242 -18.352543814394558, 109.7104260198041 -18.02167479384835 C109.9572609142986 -17.64247011145494, 110.20409580879308 -17.263265429061526, 110.8119970346684 -16.329365901781543 C111.01465785423514 -15.96952109500751, 111.2173186738019 -15.609676288233477, 111.8028781507495 -14.56995614258631 C112.0594498265297 -14.037179568074327, 112.31602150230988 -13.504402993562344, 112.67899762499809 -12.750675308355413 C112.91735215414302 -12.161935013096118, 113.15570668328795 -11.573194717836822, 113.43675529456745 -10.878999214271206 C113.60482303654845 -10.372805953382587, 113.77289077852946 -9.86661269249397, 114.07303737065482 -8.962618978877531 C114.20390153803886 -8.463577191753238, 114.33476570542291 -7.964535404628944, 114.58522923372745 -7.009409419623907 C114.68648835751675 -6.4894652200891905, 114.78774748130607 -5.969521020554474, 114.97122617755518 -5.027396693551458 C115.07066458715911 -4.256172024998314, 115.17010299676305 -3.4849473564451703, 115.22944205789975 -3.024725316091981 C115.27532702213199 -2.3100299604982637, 115.32121198636423 -1.5953346049045463, 115.35881581032167 -1.0096246935071378 C115.35881581032167 -0.4598146971162659, 115.35881581032167 0.08999529927460603, 115.35881581032167 1.00962469350713 C115.32643788946561 1.5139369458276026, 115.29405996860955 2.018249198148075, 115.22944205789975 3.02472531609196 C115.13350263318823 3.768812548772166, 115.03756320847673 4.512899781452372, 114.97122617755518 5.027396693551435 C114.83581088589386 5.722725596200281, 114.70039559423255 6.418054498849126, 114.58522923372745 7.0094094196239 C114.45974998408754 7.48791618155169, 114.33427073444763 7.966422943479481, 114.07303737065482 8.96261897887751 C113.92776459827688 9.400157423206865, 113.78249182589896 9.83769586753622, 113.43675529456746 10.878999214271184 C113.25300442834401 11.332867406424409, 113.06925356212056 11.786735598577632, 112.67899762499809 12.750675308355405 C112.34089720531561 13.452748064016165, 112.00279678563312 14.154820819676926, 111.8028781507495 14.569956142586303 C111.49965786026922 15.108354472717922, 111.19643756978894 15.646752802849543, 110.81199703466841 16.329365901781536 C110.3973068963933 16.96644131406609, 109.98261675811818 17.60351672635064, 109.71042601980412 18.021674793848334 C109.39958820891272 18.43816914253568, 109.08875039802132 18.85466349122303, 108.50269169774295 19.639928758550102 C108.23335965493983 19.95630150145402, 107.96402761213673 20.272674244357937, 107.19375690787246 21.177478043231467 C106.89070936397137 21.490399512975404, 106.58766182007028 21.80332098271934, 105.78900034400982 22.628004528078414 C105.4335414395283 22.9508229002013, 105.07808253504678 23.273641272324184, 104.29419445219536 23.985547688627715 C103.69635932918824 24.462305290165133, 103.09852420618112 24.939062891702548, 102.71548171047331 25.24452908884063 C102.10788424451052 25.66836277862589, 101.50028677854773 26.092196468411153, 101.05934938813229 26.399775304092973 C100.60141660650537 26.677376847426952, 100.14348382487843 26.95497839076093, 99.33260288812404 27.446539179886766 C98.64626814632905 27.804599575062834, 97.95993340453404 28.162659970238902, 97.54233778220309 28.3805193389262 C97.1129788824069 28.570583787386735, 96.68361998261074 28.760648235847267, 95.6959106537003 29.197877856399682 C95.01398282515244 29.448833600977036, 94.3320549966046 29.69978934555439, 93.80090886774407 29.895256030836055 C93.25870176096656 30.05618025402444, 92.71649465418905 30.217104477212825, 91.86511939314951 30.46978818572942 C91.34703233634451 30.58803817561116, 90.82894527953951 30.7062881654929, 89.89649680409323 30.919113445218557 C89.42278297167287 30.995699823938644, 88.94906913925253 31.072286202658727, 87.90313059306196 31.24138543543225 C87.4504354080417 31.285056395485537, 86.99774022302145 31.328727355538827, 85.89321192939245 31.435279871635593 C85.33321239449518 31.45323796674678, 84.77321285959792 31.471196061857963, 83.875 31.5 C83.875 31.5, 83.875 31.5, 83.875 31.5 C48.15111433977253 31.5, 12.427228679545067 31.5, -83.875 31.5 C-84.48162304861627 31.48054677955101, -85.08824609723253 31.46109355910202, -85.89321192939244 31.435279871635593 C-86.64384225313434 31.362867467069258, -87.39447257687624 31.290455062502918, -87.90313059306195 31.24138543543225 C-88.42931095138813 31.156316675687695, -88.95549130971433 31.071247915943136, -89.89649680409323 30.919113445218557 C-90.54303223752275 30.77154595157626, -91.18956767095226 30.62397845793397, -91.86511939314947 30.469788185729428 C-92.48563030995439 30.285623802749996, -93.1061412267593 30.101459419770567, -93.80090886774403 29.89525603083607 C-94.29584984195142 29.713113177143537, -94.79079081615882 29.530970323451005, -95.69591065370028 29.197877856399685 C-96.09851172913996 29.019658303039115, -96.50111280457965 28.84143874967855, -97.54233778220308 28.380519338926206 C-97.97312996679197 28.155775332161745, -98.40392215138085 27.931031325397285, -99.33260288812403 27.446539179886773 C-100.00109549617443 27.041295032388, -100.66958810422483 26.636050884889222, -101.05934938813226 26.399775304092994 C-101.486273393273 26.101971599349135, -101.91319739841374 25.80416789460527, -102.7154817104733 25.244529088840636 C-103.22669454341226 24.83685045851663, -103.73790737635122 24.429171828192622, -104.29419445219533 23.98554768862774 C-104.65615354114011 23.65682602096078, -105.01811263008491 23.328104353293813, -105.7890003440098 22.628004528078435 C-106.17349938915 22.230977696012495, -106.5579984342902 21.83395086394656, -107.19375690787244 21.177478043231478 C-107.59937712042057 20.701013461128507, -108.0049973329687 20.22454887902554, -108.50269169774293 19.639928758550113 C-108.85207964995016 19.17178073248969, -109.20146760215736 18.70363270642927, -109.7104260198041 18.021674793848355 C-110.11946185299621 17.393285912564817, -110.5284976861883 16.76489703128128, -110.8119970346684 16.329365901781557 C-111.18978763578335 15.658560434055332, -111.56757823689829 14.987754966329108, -111.8028781507495 14.569956142586314 C-112.12581023479862 13.899380760418643, -112.44874231884772 13.228805378250971, -112.67899762499809 12.750675308355417 C-112.87097241965506 12.276493853972541, -113.06294721431203 11.802312399589665, -113.43675529456745 10.878999214271209 C-113.6336314525519 10.286039594377987, -113.83050761053634 9.693079974484764, -114.07303737065482 8.962618978877522 C-114.2703398291552 8.210219193189072, -114.4676422876556 7.457819407500622, -114.58522923372743 7.009409419623911 C-114.71110852209009 6.363045878478743, -114.83698781045273 5.716682337333573, -114.97122617755518 5.027396693551461 C-115.06895676680179 4.26941754244245, -115.16668735604841 3.5114383913334395, -115.22944205789975 3.024725316091999 C-115.25555471800762 2.6179995571519883, -115.2816673781155 2.2112737982119777, -115.35881581032167 1.0096246935071416 C-115.35881581032167 0.3966771053560981, -115.35881581032167 -0.21627048279494532, -115.35881581032167 -1.0096246935071262 C-115.31522241934806 -1.6886269458730223, -115.27162902837445 -2.3676291982389186, -115.22944205789975 -3.024725316091956 C-115.12722834271364 -3.817474706694368, -115.02501462752753 -4.61022409729678, -114.97122617755518 -5.027396693551446 C-114.88827263366515 -5.453345609188997, -114.80531908977514 -5.879294524826547, -114.58522923372745 -7.009409419623896 C-114.41558527383408 -7.656335362854617, -114.2459413139407 -8.303261306085338, -114.07303737065482 -8.962618978877506 C-113.85641029541634 -9.615065214658582, -113.63978322017785 -10.26751145043966, -113.43675529456746 -10.878999214271168 C-113.27600648896444 -11.276051871977346, -113.11525768336143 -11.673104529683524, -112.67899762499809 -12.750675308355401 C-112.43407654706893 -13.259259167146864, -112.18915546913978 -13.767843025938326, -111.8028781507495 -14.5699561425863 C-111.55006563336445 -15.018850367246815, -111.2972531159794 -15.467744591907332, -110.8119970346684 -16.329365901781546 C-110.51913600328207 -16.779279090189085, -110.22627497189576 -17.229192278596628, -109.71042601980412 -18.021674793848344 C-109.38168552260132 -18.46215711122469, -109.05294502539851 -18.902639428601038, -108.50269169774295 -19.639928758550102 C-108.12909690046416 -20.078774465579944, -107.75550210318538 -20.51762017260978, -107.19375690787246 -21.177478043231467 C-106.7396410819589 -21.6463899170899, -106.28552525604535 -22.115301790948333, -105.78900034400984 -22.628004528078403 C-105.28846539048938 -23.08257712943653, -104.78793043696892 -23.53714973079466, -104.29419445219536 -23.98554768862771 C-103.7391889699663 -24.42814979138923, -103.18418348773724 -24.87075189415075, -102.71548171047331 -25.244529088840626 C-102.09097826059873 -25.68015566115451, -101.46647481072414 -26.115782233468394, -101.0593493881323 -26.39977530409297 C-100.45351361293639 -26.767036511302937, -99.84767783774046 -27.1342977185129, -99.33260288812404 -27.446539179886763 C-98.69508578275753 -27.779131445407277, -98.05756867739103 -28.11172371092779, -97.54233778220309 -28.3805193389262 C-97.1498123073813 -28.5542787227753, -96.7572868325595 -28.728038106624407, -95.6959106537003 -29.19787785639968 C-95.24515521422133 -29.363760024865545, -94.79439977474236 -29.529642193331416, -93.80090886774407 -29.895256030836055 C-93.06769689252548 -30.11286949637274, -92.3344849173069 -30.330482961909418, -91.86511939314951 -30.469788185729417 C-91.33311894676176 -30.59121381599007, -90.80111850037399 -30.712639446250723, -89.89649680409325 -30.919113445218553 C-89.25663162055201 -31.02256188586489, -88.6167664370108 -31.126010326511228, -87.90313059306196 -31.24138543543225 C-87.49495612616299 -31.280761535352376, -87.086781659264 -31.320137635272502, -85.89321192939246 -31.435279871635593 C-85.2519399833944 -31.45584421478363, -84.61066803739634 -31.476408557931666, -83.87500000000001 -31.5 C-83.87500000000001 -31.5, -83.875 -31.5, -83.875 -31.5" stroke="none" stroke-width="0" fill="#ECECFF" style=""/><path d="M-83.875 -31.5 C-48.337056526319536 -31.5, -12.799113052639072 -31.5, 83.875 -31.5 M-83.875 -31.5 C-23.39155124114462 -31.5, 37.09189751771076 -31.5, 83.875 -31.5 M83.875 -31.5 C83.875 -31.5, 83.875 -31.5, 83.875 -31.5 M83.875 -31.5 C83.875 -31.5, 83.875 -31.5, 83.875 -31.5 M83.875 -31.5 C84.55321127912346 -31.478251084336684, 85.23142255824692 -31.456502168673364, 85.89321192939245 -31.435279871635593 M83.875 -31.5 C84.64394688946052 -31.475341369919324, 85.41289377892103 -31.450682739838648, 85.89321192939245 -31.435279871635593 M85.89321192939245 -31.435279871635593 C86.48900979764007 -31.37780396783752, 87.0848076658877 -31.32032806403944, 87.90313059306193 -31.241385435432253 M85.89321192939245 -31.435279871635593 C86.36855891638162 -31.38942371948914, 86.84390590337078 -31.34356756734269, 87.90313059306193 -31.241385435432253 M87.90313059306193 -31.241385435432253 C88.43376180601908 -31.155597096027858, 88.96439301897624 -31.069808756623463, 89.89649680409322 -30.91911344521856 M87.90313059306193 -31.241385435432253 C88.32609625364333 -31.17300362757714, 88.74906191422474 -31.104621819722027, 89.89649680409322 -30.91911344521856 M89.89649680409322 -30.91911344521856 C90.34454626174369 -30.816849080305794, 90.79259571939416 -30.714584715393027, 91.86511939314947 -30.469788185729428 M89.89649680409322 -30.91911344521856 C90.39419420347244 -30.805517261589305, 90.89189160285166 -30.69192107796005, 91.86511939314947 -30.469788185729428 M91.86511939314947 -30.469788185729428 C92.26705551253269 -30.35049565530223, 92.66899163191593 -30.231203124875034, 93.80090886774406 -29.895256030836062 M91.86511939314947 -30.469788185729428 C92.46671753413361 -30.291237015338417, 93.06831567511776 -30.112685844947407, 93.80090886774406 -29.895256030836062 M93.80090886774406 -29.895256030836062 C94.4618570557316 -29.65202098791857, 95.12280524371916 -29.408785945001075, 95.69591065370028 -29.197877856399685 M93.80090886774406 -29.895256030836062 C94.55500117302017 -29.61774309174159, 95.3090934782963 -29.340230152647123, 95.69591065370028 -29.197877856399685 M95.69591065370028 -29.197877856399685 C96.14044778918509 -29.00109445324616, 96.5849849246699 -28.804311050092636, 97.54233778220308 -28.380519338926202 M95.69591065370028 -29.197877856399685 C96.10941035791457 -29.014833803376934, 96.52291006212884 -28.831789750354183, 97.54233778220308 -28.380519338926202 M97.54233778220308 -28.380519338926202 C98.14507776962922 -28.066070273559365, 98.74781775705539 -27.751621208192528, 99.33260288812403 -27.44653917988677 M97.54233778220308 -28.380519338926202 C98.06447520947017 -28.10812057756594, 98.58661263673727 -27.83572181620568, 99.33260288812403 -27.44653917988677 M99.33260288812403 -27.44653917988677 C99.87294790372508 -27.11897885600964, 100.41329291932611 -26.79141853213251, 101.05934938813228 -26.399775304092984 M99.33260288812403 -27.44653917988677 C99.84517090109495 -27.13581743823981, 100.35773891406586 -26.82509569659285, 101.05934938813228 -26.399775304092984 M101.05934938813228 -26.399775304092984 C101.44990947253517 -26.127337496287083, 101.84046955693807 -25.85489968848118, 102.7154817104733 -25.244529088840633 M101.05934938813228 -26.399775304092984 C101.44145671938662 -26.133233770969728, 101.82356405064095 -25.866692237846475, 102.7154817104733 -25.244529088840633 M102.7154817104733 -25.244529088840633 C103.0628762684072 -24.96749117344578, 103.4102708263411 -24.69045325805093, 104.29419445219533 -23.985547688627737 M102.7154817104733 -25.244529088840633 C103.25136202575588 -24.817178797776865, 103.78724234103845 -24.3898285067131, 104.29419445219533 -23.985547688627737 M104.29419445219533 -23.985547688627737 C104.80309344162134 -23.523379091160443, 105.31199243104737 -23.061210493693146, 105.78900034400982 -22.62800452807842 M104.29419445219533 -23.985547688627737 C104.64867449562703 -23.66361829221106, 105.00315453905874 -23.34168889579438, 105.78900034400982 -22.62800452807842 M105.78900034400982 -22.62800452807842 C106.16047031454889 -22.24443128524506, 106.53194028508796 -21.860858042411703, 107.19375690787243 -21.177478043231485 M105.78900034400982 -22.62800452807842 C106.07174826700845 -22.336044083546145, 106.35449619000705 -22.044083639013866, 107.19375690787243 -21.177478043231485 M107.19375690787243 -21.177478043231485 C107.4750835907286 -20.84701571360688, 107.75641027358478 -20.516553383982277, 108.50269169774293 -19.63992875855011 M107.19375690787243 -21.177478043231485 C107.61597339671236 -20.6815185306413, 108.03818988555228 -20.18555901805111, 108.50269169774293 -19.63992875855011 M108.50269169774293 -19.63992875855011 C108.97739148889737 -19.0038742844438, 109.4520912800518 -18.36781981033749, 109.7104260198041 -18.02167479384835 M108.50269169774293 -19.63992875855011 C108.92339831486315 -19.076220218770295, 109.34410493198338 -18.512511678990485, 109.7104260198041 -18.02167479384835 M109.7104260198041 -18.02167479384835 C110.05516628216137 -17.492061175145324, 110.39990654451863 -16.962447556442292, 110.8119970346684 -16.329365901781543 M109.7104260198041 -18.02167479384835 C110.07787293005175 -17.457177666396984, 110.44531984029942 -16.892680538945616, 110.8119970346684 -16.329365901781543 M110.8119970346684 -16.329365901781543 C111.20520211885633 -15.63119045847355, 111.59840720304427 -14.933015015165557, 111.8028781507495 -14.56995614258631 M110.8119970346684 -16.329365901781543 C111.06938193416661 -15.8723529496752, 111.32676683366483 -15.415339997568857, 111.8028781507495 -14.56995614258631 M111.8028781507495 -14.56995614258631 C111.98976797811198 -14.181875417266413, 112.17665780547446 -13.793794691946518, 112.67899762499809 -12.750675308355413 M111.8028781507495 -14.56995614258631 C112.09334873559268 -13.966787758084559, 112.38381932043588 -13.363619373582805, 112.67899762499809 -12.750675308355413 M112.67899762499809 -12.750675308355413 C112.96275300176019 -12.049794041716009, 113.24650837852231 -11.348912775076606, 113.43675529456745 -10.878999214271206 M112.67899762499809 -12.750675308355413 C112.97438805269698 -12.021055240953762, 113.26977848039586 -11.291435173552111, 113.43675529456745 -10.878999214271206 M113.43675529456745 -10.878999214271206 C113.58346496583668 -10.437133059419995, 113.73017463710592 -9.995266904568783, 114.07303737065482 -8.962618978877531 M113.43675529456745 -10.878999214271206 C113.59732835535573 -10.395378739019812, 113.757901416144 -9.911758263768416, 114.07303737065482 -8.962618978877531 M114.07303737065482 -8.962618978877531 C114.2091444183093 -8.443583817003384, 114.34525146596378 -7.924548655129238, 114.58522923372745 -7.009409419623907 M114.07303737065482 -8.962618978877531 C114.23783494344553 -8.33417441010668, 114.40263251623624 -7.70572984133583, 114.58522923372745 -7.009409419623907 M114.58522923372745 -7.009409419623907 C114.72858044251826 -6.273331259771738, 114.8719316513091 -5.537253099919568, 114.97122617755518 -5.027396693551458 M114.58522923372745 -7.009409419623907 C114.66588526703221 -6.595257735262624, 114.74654130033697 -6.181106050901342, 114.97122617755518 -5.027396693551458 M114.97122617755518 -5.027396693551458 C115.05288729944667 -4.394049157973584, 115.13454842133815 -3.7607016223957115, 115.22944205789975 -3.024725316091981 M114.97122617755518 -5.027396693551458 C115.02360797848397 -4.62113378950439, 115.07598977941275 -4.214870885457323, 115.22944205789975 -3.024725316091981 M115.22944205789975 -3.024725316091981 C115.26864032994244 -2.4141805887512984, 115.30783860198514 -1.8036358614106158, 115.35881581032167 -1.0096246935071378 M115.22944205789975 -3.024725316091981 C115.2580129287983 -2.579710939855173, 115.28658379969684 -2.1346965636183657, 115.35881581032167 -1.0096246935071378 M115.35881581032167 -1.0096246935071378 C115.35881581032167 -0.5507235926810328, 115.35881581032167 -0.09182249185492786, 115.35881581032167 1.00962469350713 M115.35881581032167 -1.0096246935071378 C115.35881581032167 -0.441076951573973, 115.35881581032167 0.12747079035919184, 115.35881581032167 1.00962469350713 M115.35881581032167 1.00962469350713 C115.32898414387952 1.4742769780314373, 115.29915247743736 1.9389292625557448, 115.22944205789975 3.02472531609196 M115.35881581032167 1.00962469350713 C115.30861993328261 1.7914659957731396, 115.25842405624356 2.5733072980391496, 115.22944205789975 3.02472531609196 M115.22944205789975 3.02472531609196 C115.14871199894583 3.6508517113852337, 115.06798193999191 4.2769781066785075, 114.97122617755518 5.027396693551435 M115.22944205789975 3.02472531609196 C115.14012812428737 3.717426548158459, 115.050814190675 4.4101277802249585, 114.97122617755518 5.027396693551435 M114.97122617755518 5.027396693551435 C114.82508414445918 5.77780514636976, 114.67894211136318 6.528213599188083, 114.58522923372745 7.0094094196239 M114.97122617755518 5.027396693551435 C114.877807111855 5.507083851795301, 114.78438804615483 5.986771010039165, 114.58522923372745 7.0094094196239 M114.58522923372745 7.0094094196239 C114.45506065108293 7.505798640668035, 114.32489206843842 8.00218786171217, 114.07303737065482 8.96261897887751 M114.58522923372745 7.0094094196239 C114.470975079384 7.445110028199174, 114.35672092504056 7.8808106367744495, 114.07303737065482 8.96261897887751 M114.07303737065482 8.96261897887751 C113.8358463366756 9.677000581963814, 113.59865530269637 10.391382185050118, 113.43675529456746 10.878999214271184 M114.07303737065482 8.96261897887751 C113.88988070252111 9.514257681244171, 113.7067240343874 10.065896383610832, 113.43675529456746 10.878999214271184 M113.43675529456746 10.878999214271184 C113.2157454129804 11.424897894726588, 112.99473553139335 11.97079657518199, 112.67899762499809 12.750675308355405 M113.43675529456746 10.878999214271184 C113.25669360526041 11.32375506811554, 113.07663191595336 11.768510921959896, 112.67899762499809 12.750675308355405 M112.67899762499809 12.750675308355405 C112.38113261598909 13.369198372852802, 112.0832676069801 13.987721437350197, 111.8028781507495 14.569956142586303 M112.67899762499809 12.750675308355405 C112.45014530085669 13.225892056090343, 112.22129297671528 13.701108803825283, 111.8028781507495 14.569956142586303 M111.8028781507495 14.569956142586303 C111.47595651542534 15.150438610509664, 111.14903488010117 15.730921078433024, 110.81199703466841 16.329365901781536 M111.8028781507495 14.569956142586303 C111.46303052069212 15.173390023057388, 111.12318289063474 15.776823903528474, 110.81199703466841 16.329365901781536 M110.81199703466841 16.329365901781536 C110.53127273219903 16.760633815404606, 110.25054842972966 17.191901729027677, 109.71042601980412 18.021674793848334 M110.81199703466841 16.329365901781536 C110.58195460010049 16.682772856320874, 110.35191216553255 17.036179810860208, 109.71042601980412 18.021674793848334 M109.71042601980412 18.021674793848334 C109.23171975226758 18.66309758130917, 108.75301348473103 19.304520368770003, 108.50269169774295 19.639928758550102 M109.71042601980412 18.021674793848334 C109.3065743451158 18.56279924628623, 108.9027226704275 19.103923698724124, 108.50269169774295 19.639928758550102 M108.50269169774295 19.639928758550102 C108.16565966149399 20.035825765994264, 107.82862762524503 20.431722773438427, 107.19375690787246 21.177478043231467 M108.50269169774295 19.639928758550102 C108.05205663987907 20.1692703393782, 107.6014215820152 20.698611920206297, 107.19375690787246 21.177478043231467 M107.19375690787246 21.177478043231467 C106.75129234039193 21.634359036171695, 106.30882777291139 22.091240029111926, 105.78900034400982 22.628004528078414 M107.19375690787246 21.177478043231467 C106.74854990738491 21.637190823409373, 106.30334290689736 22.096903603587283, 105.78900034400982 22.628004528078414 M105.78900034400982 22.628004528078414 C105.4883336303648 22.901062082205513, 105.18766691671978 23.17411963633261, 104.29419445219536 23.985547688627715 M105.78900034400982 22.628004528078414 C105.47153263638444 22.91632030040854, 105.15406492875906 23.204636072738662, 104.29419445219536 23.985547688627715 M104.29419445219536 23.985547688627715 C103.84328011647837 24.345139872027598, 103.3923657807614 24.70473205542748, 102.71548171047331 25.24452908884063 M104.29419445219536 23.985547688627715 C103.9054048323592 24.295597064320766, 103.51661521252302 24.605646440013814, 102.71548171047331 25.24452908884063 M102.71548171047331 25.24452908884063 C102.17017712591156 25.6249099611759, 101.62487254134982 26.005290833511168, 101.05934938813229 26.399775304092973 M102.71548171047331 25.24452908884063 C102.0574396864824 25.70355071859659, 101.39939766249148 26.162572348352548, 101.05934938813229 26.399775304092973 M101.05934938813229 26.399775304092973 C100.61866205965799 26.666922552380296, 100.1779747311837 26.93406980066762, 99.33260288812404 27.446539179886766 M101.05934938813229 26.399775304092973 C100.50541276679319 26.735574939241655, 99.9514761454541 27.071374574390337, 99.33260288812404 27.446539179886766 M99.33260288812404 27.446539179886766 C98.69296032594457 27.78024029486518, 98.05331776376511 28.113941409843594, 97.54233778220309 28.3805193389262 M99.33260288812404 27.446539179886766 C98.66919224931183 27.792640085220302, 98.00578161049962 28.13874099055384, 97.54233778220309 28.3805193389262 M97.54233778220309 28.3805193389262 C96.99436424347049 28.623090969465636, 96.4463907047379 28.865662600005077, 95.6959106537003 29.197877856399682 M97.54233778220309 28.3805193389262 C96.9024877488373 28.663761968220374, 96.2626377154715 28.94700459751455, 95.6959106537003 29.197877856399682 M95.6959106537003 29.197877856399682 C95.03401122395358 29.441462965077726, 94.37211179420687 29.685048073755773, 93.80090886774407 29.895256030836055 M95.6959106537003 29.197877856399682 C95.05750358062635 29.43281756066119, 94.4190965075524 29.66775726492269, 93.80090886774407 29.895256030836055 M93.80090886774407 29.895256030836055 C93.38165210933364 30.019689236008634, 92.96239535092323 30.144122441181217, 91.86511939314951 30.46978818572942 M93.80090886774407 29.895256030836055 C93.06156303186633 30.114689994019084, 92.32221719598857 30.334123957202117, 91.86511939314951 30.46978818572942 M91.86511939314951 30.46978818572942 C91.17832966978061 30.626543458366587, 90.4915399464117 30.783298731003757, 89.89649680409323 30.919113445218557 M91.86511939314951 30.46978818572942 C91.43428425009817 30.568123495668836, 91.00344910704683 30.66645880560825, 89.89649680409323 30.919113445218557 M89.89649680409323 30.919113445218557 C89.21253037599436 31.02969183307471, 88.5285639478955 31.14027022093087, 87.90313059306196 31.24138543543225 M89.89649680409323 30.919113445218557 C89.38385515740298 31.00199337106009, 88.8712135107127 31.084873296901627, 87.90313059306196 31.24138543543225 M87.90313059306196 31.24138543543225 C87.27901309897823 31.301593299475403, 86.6548956048945 31.361801163518553, 85.89321192939245 31.435279871635593 M87.90313059306196 31.24138543543225 C87.27337142133686 31.302137545332354, 86.64361224961176 31.36288965523246, 85.89321192939245 31.435279871635593 M85.89321192939245 31.435279871635593 C85.35837342539415 31.452431101458824, 84.82353492139585 31.469582331282055, 83.875 31.5 M85.89321192939245 31.435279871635593 C85.14124405781244 31.459394017660497, 84.38927618623242 31.483508163685396, 83.875 31.5 M83.875 31.5 C83.875 31.5, 83.875 31.5, 83.875 31.5 M83.875 31.5 C83.875 31.5, 83.875 31.5, 83.875 31.5 M83.875 31.5 C18.635924907527368 31.5, -46.603150184945264 31.5, -83.875 31.5 M83.875 31.5 C31.523463872442036 31.5, -20.828072255115927 31.5, -83.875 31.5 M-83.875 31.5 C-84.55464559322583 31.478205088675143, -85.23429118645166 31.456410177350286, -85.89321192939244 31.435279871635593 M-83.875 31.5 C-84.49889431238479 31.47999292373843, -85.12278862476958 31.459985847476858, -85.89321192939244 31.435279871635593 M-85.89321192939244 31.435279871635593 C-86.45224414278086 31.381350706344616, -87.01127635616928 31.32742154105364, -87.90313059306195 31.24138543543225 M-85.89321192939244 31.435279871635593 C-86.5008728950691 31.376659549096, -87.10853386074577 31.318039226556404, -87.90313059306195 31.24138543543225 M-87.90313059306195 31.24138543543225 C-88.55896755135865 31.135354802106413, -89.21480450965534 31.029324168780576, -89.89649680409323 30.919113445218557 M-87.90313059306195 31.24138543543225 C-88.62371615301655 31.124886750323267, -89.34430171297114 31.008388065214287, -89.89649680409323 30.919113445218557 M-89.89649680409323 30.919113445218557 C-90.44289153038285 30.794402414501757, -90.98928625667247 30.66969138378496, -91.86511939314947 30.469788185729428 M-89.89649680409323 30.919113445218557 C-90.42327265147979 30.79888029558623, -90.95004849886637 30.678647145953907, -91.86511939314947 30.469788185729428 M-91.86511939314947 30.469788185729428 C-92.40102534153672 30.310734113275817, -92.93693128992399 30.151680040822207, -93.80090886774403 29.89525603083607 M-91.86511939314947 30.469788185729428 C-92.55321289028662 30.265565647655592, -93.24130638742378 30.06134310958176, -93.80090886774403 29.89525603083607 M-93.80090886774403 29.89525603083607 C-94.1937072824599 29.750702583231888, -94.58650569717577 29.606149135627707, -95.69591065370028 29.197877856399685 M-93.80090886774403 29.89525603083607 C-94.41434595355028 29.669505512709108, -95.02778303935654 29.443754994582147, -95.69591065370028 29.197877856399685 M-95.69591065370028 29.197877856399685 C-96.0755437054413 29.029825565808295, -96.45517675718233 28.86177327521691, -97.54233778220308 28.380519338926206 M-95.69591065370028 29.197877856399685 C-96.28358680220825 28.93773105824877, -96.87126295071621 28.677584260097852, -97.54233778220308 28.380519338926206 M-97.54233778220308 28.380519338926206 C-98.05792551266255 28.111537550195198, -98.57351324312204 27.84255576146419, -99.33260288812403 27.446539179886773 M-97.54233778220308 28.380519338926206 C-98.24214487525401 28.01543042672937, -98.94195196830493 27.650341514532535, -99.33260288812403 27.446539179886773 M-99.33260288812403 27.446539179886773 C-100.016752821148 27.031803469976364, -100.70090275417198 26.617067760065954, -101.05934938813226 26.399775304092994 M-99.33260288812403 27.446539179886773 C-99.91096003995384 27.095935675643656, -100.48931719178366 26.74533217140054, -101.05934938813226 26.399775304092994 M-101.05934938813226 26.399775304092994 C-101.71233617083345 25.944279991822878, -102.36532295353464 25.48878467955276, -102.7154817104733 25.244529088840636 M-101.05934938813226 26.399775304092994 C-101.68201176508924 25.96543298454767, -102.30467414204622 25.53109066500235, -102.7154817104733 25.244529088840636 M-102.7154817104733 25.244529088840636 C-103.30092550538677 24.777653241710816, -103.88636930030023 24.310777394581, -104.29419445219533 23.98554768862774 M-102.7154817104733 25.244529088840636 C-103.25162041742853 24.81697273729402, -103.78775912438375 24.3894163857474, -104.29419445219533 23.98554768862774 M-104.29419445219533 23.98554768862774 C-104.61404628839699 23.695066713805232, -104.93389812459864 23.404585738982725, -105.7890003440098 22.628004528078435 M-104.29419445219533 23.98554768862774 C-104.64439730093771 23.667502727259535, -104.9946001496801 23.34945776589133, -105.7890003440098 22.628004528078435 M-105.7890003440098 22.628004528078435 C-106.35064006174392 22.048065408039587, -106.91227977947803 21.46812628800074, -107.19375690787244 21.177478043231478 M-105.7890003440098 22.628004528078435 C-106.19830451119212 22.20536437096561, -106.60760867837443 21.782724213852788, -107.19375690787244 21.177478043231478 M-107.19375690787244 21.177478043231478 C-107.70693095530825 20.574674606682866, -108.22010500274406 19.97187117013425, -108.50269169774293 19.639928758550113 M-107.19375690787244 21.177478043231478 C-107.49623670214027 20.82216806529661, -107.7987164964081 20.46685808736174, -108.50269169774293 19.639928758550113 M-108.50269169774293 19.639928758550113 C-108.79886599485741 19.243082182450255, -109.09504029197188 18.846235606350398, -109.7104260198041 18.021674793848355 M-108.50269169774293 19.639928758550113 C-108.91163678694947 19.091979594677397, -109.32058187615601 18.544030430804682, -109.7104260198041 18.021674793848355 M-109.7104260198041 18.021674793848355 C-110.015688114981 17.552710241306592, -110.3209502101579 17.083745688764825, -110.8119970346684 16.329365901781557 M-109.7104260198041 18.021674793848355 C-110.02259366325487 17.542101464758595, -110.33476130670562 17.062528135668835, -110.8119970346684 16.329365901781557 M-110.8119970346684 16.329365901781557 C-111.14974972235775 15.729651803620818, -111.48750241004713 15.129937705460078, -111.8028781507495 14.569956142586314 M-110.8119970346684 16.329365901781557 C-111.15506351851398 15.720216620465242, -111.49813000235956 15.111067339148928, -111.8028781507495 14.569956142586314 M-111.8028781507495 14.569956142586314 C-112.01945483733516 14.120230018892451, -112.23603152392083 13.670503895198589, -112.67899762499809 12.750675308355417 M-111.8028781507495 14.569956142586314 C-112.12866780526636 13.893446954200147, -112.45445745978323 13.21693776581398, -112.67899762499809 12.750675308355417 M-112.67899762499809 12.750675308355417 C-112.84030352362906 12.352246620099539, -113.00160942226002 11.95381793184366, -113.43675529456745 10.878999214271209 M-112.67899762499809 12.750675308355417 C-112.96376699903992 12.047289448830789, -113.24853637308175 11.34390358930616, -113.43675529456745 10.878999214271209 M-113.43675529456745 10.878999214271209 C-113.6228317840077 10.318566475339587, -113.80890827344795 9.758133736407965, -114.07303737065482 8.962618978877522 M-113.43675529456745 10.878999214271209 C-113.57569234097447 10.46054296710539, -113.71462938738149 10.042086719939569, -114.07303737065482 8.962618978877522 M-114.07303737065482 8.962618978877522 C-114.17652586320031 8.567972504605132, -114.28001435574582 8.173326030332742, -114.58522923372743 7.009409419623911 M-114.07303737065482 8.962618978877522 C-114.26913035913331 8.214831426570163, -114.46522334761183 7.467043874262803, -114.58522923372743 7.009409419623911 M-114.58522923372743 7.009409419623911 C-114.67196051689399 6.5640626112268095, -114.75869180006056 6.1187158028297075, -114.97122617755518 5.027396693551461 M-114.58522923372743 7.009409419623911 C-114.70857252176907 6.376067704143274, -114.83191580981071 5.742725988662637, -114.97122617755518 5.027396693551461 M-114.97122617755518 5.027396693551461 C-115.02520756234328 4.608727732965086, -115.07918894713139 4.19005877237871, -115.22944205789975 3.024725316091999 M-114.97122617755518 5.027396693551461 C-115.04660655070592 4.442761404932654, -115.12198692385667 3.858126116313845, -115.22944205789975 3.024725316091999 M-115.22944205789975 3.024725316091999 C-115.27079168447628 2.380671505344702, -115.31214131105281 1.7366176945974054, -115.35881581032167 1.0096246935071416 M-115.22944205789975 3.024725316091999 C-115.26648204535202 2.4477976133830692, -115.3035220328043 1.870869910674139, -115.35881581032167 1.0096246935071416 M-115.35881581032167 1.0096246935071416 C-115.35881581032167 0.4985103150317588, -115.35881581032167 -0.01260406344362397, -115.35881581032167 -1.0096246935071262 M-115.35881581032167 1.0096246935071416 C-115.35881581032167 0.5585260155644332, -115.35881581032167 0.10742733762172463, -115.35881581032167 -1.0096246935071262 M-115.35881581032167 -1.0096246935071262 C-115.31591070695193 -1.6779063108669465, -115.27300560358219 -2.346187928226767, -115.22944205789975 -3.024725316091956 M-115.35881581032167 -1.0096246935071262 C-115.32544826692828 -1.5293511156556119, -115.29208072353487 -2.0490775378040977, -115.22944205789975 -3.024725316091956 M-115.22944205789975 -3.024725316091956 C-115.1466195783071 -3.6670801126640504, -115.06379709871445 -4.3094349092361455, -114.97122617755518 -5.027396693551446 M-115.22944205789975 -3.024725316091956 C-115.13467822618063 -3.7596948816702924, -115.0399143944615 -4.4946644472486295, -114.97122617755518 -5.027396693551446 M-114.97122617755518 -5.027396693551446 C-114.83202528222343 -5.742163870960369, -114.69282438689167 -6.456931048369292, -114.58522923372745 -7.009409419623896 M-114.97122617755518 -5.027396693551446 C-114.86804363616646 -5.557217235944708, -114.76486109477773 -6.08703777833797, -114.58522923372745 -7.009409419623896 M-114.58522923372745 -7.009409419623896 C-114.44646435393452 -7.538580047353685, -114.30769947414159 -8.067750675083474, -114.07303737065482 -8.962618978877506 M-114.58522923372745 -7.009409419623896 C-114.41267278667651 -7.667441938666372, -114.24011633962556 -8.325474457708848, -114.07303737065482 -8.962618978877506 M-114.07303737065482 -8.962618978877506 C-113.92819863193813 -9.398850182973042, -113.78335989322146 -9.835081387068577, -113.43675529456746 -10.878999214271168 M-114.07303737065482 -8.962618978877506 C-113.87763056718978 -9.551153137068097, -113.68222376372476 -10.139687295258685, -113.43675529456746 -10.878999214271168 M-113.43675529456746 -10.878999214271168 C-113.21823359728305 -11.418752031393263, -112.99971189999864 -11.958504848515357, -112.67899762499809 -12.750675308355401 M-113.43675529456746 -10.878999214271168 C-113.19748207423649 -11.47000869452168, -112.95820885390552 -12.061018174772189, -112.67899762499809 -12.750675308355401 M-112.67899762499809 -12.750675308355401 C-112.33029808742778 -13.474757359095042, -111.98159854985747 -14.198839409834681, -111.8028781507495 -14.5699561425863 M-112.67899762499809 -12.750675308355401 C-112.4136459176789 -13.301683806220682, -112.14829421035972 -13.852692304085963, -111.8028781507495 -14.5699561425863 M-111.8028781507495 -14.5699561425863 C-111.46978123137676 -15.161403452653218, -111.13668431200402 -15.752850762720138, -110.8119970346684 -16.329365901781546 M-111.8028781507495 -14.5699561425863 C-111.5612862635199 -14.998927002193806, -111.3196943762903 -15.427897861801315, -110.8119970346684 -16.329365901781546 M-110.8119970346684 -16.329365901781546 C-110.57425576554675 -16.69460033362193, -110.33651449642512 -17.05983476546232, -109.71042601980412 -18.021674793848344 M-110.8119970346684 -16.329365901781546 C-110.3949550153298 -16.970054434948104, -109.97791299599122 -17.610742968114664, -109.71042601980412 -18.021674793848344 M-109.71042601980412 -18.021674793848344 C-109.25621457497739 -18.63027675040227, -108.80200313015067 -19.238878706956196, -108.50269169774295 -19.639928758550102 M-109.71042601980412 -18.021674793848344 C-109.38117277656103 -18.46284414420655, -109.05191953331794 -18.904013494564754, -108.50269169774295 -19.639928758550102 M-108.50269169774295 -19.639928758550102 C-108.01445641086195 -20.213437707895345, -107.52622112398097 -20.786946657240588, -107.19375690787246 -21.177478043231467 M-108.50269169774295 -19.639928758550102 C-108.03877768566504 -20.184868554591908, -107.57486367358713 -20.72980835063371, -107.19375690787246 -21.177478043231467 M-107.19375690787246 -21.177478043231467 C-106.69952316482053 -21.687814960277514, -106.20528942176861 -22.19815187732356, -105.78900034400984 -22.628004528078403 M-107.19375690787246 -21.177478043231467 C-106.7552406280343 -21.6302821050205, -106.31672434819615 -22.08308616680953, -105.78900034400984 -22.628004528078403 M-105.78900034400984 -22.628004528078403 C-105.41739833127863 -22.965483643990407, -105.04579631854743 -23.302962759902407, -104.29419445219536 -23.98554768862771 M-105.78900034400984 -22.628004528078403 C-105.47845890112987 -22.91003005002566, -105.16791745824989 -23.192055571972922, -104.29419445219536 -23.98554768862771 M-104.29419445219536 -23.98554768862771 C-103.92681374593687 -24.27852402545768, -103.55943303967838 -24.57150036228765, -102.71548171047331 -25.244529088840626 M-104.29419445219536 -23.98554768862771 C-103.89958326444905 -24.30023960981067, -103.50497207670274 -24.614931530993626, -102.71548171047331 -25.244529088840626 M-102.71548171047331 -25.244529088840626 C-102.2286421804113 -25.584127270068297, -101.7418026503493 -25.923725451295965, -101.0593493881323 -26.39977530409297 M-102.71548171047331 -25.244529088840626 C-102.24483912756385 -25.57282898088922, -101.77419654465439 -25.901128872937818, -101.0593493881323 -26.39977530409297 M-101.0593493881323 -26.39977530409297 C-100.66512973107572 -26.63875357689252, -100.27091007401914 -26.877731849692072, -99.33260288812404 -27.446539179886763 M-101.0593493881323 -26.39977530409297 C-100.4536197834199 -26.76697215013191, -99.84789017870747 -27.134168996170846, -99.33260288812404 -27.446539179886763 M-99.33260288812404 -27.446539179886763 C-98.94450593977153 -27.64900910925431, -98.55640899141902 -27.85147903862186, -97.54233778220309 -28.3805193389262 M-99.33260288812404 -27.446539179886763 C-98.90590737304943 -27.66914595678967, -98.47921185797482 -27.891752733692574, -97.54233778220309 -28.3805193389262 M-97.54233778220309 -28.3805193389262 C-96.97367279457244 -28.632250460102778, -96.4050078069418 -28.88398158127936, -95.6959106537003 -29.19787785639968 M-97.54233778220309 -28.3805193389262 C-97.10348445547945 -28.574786688545352, -96.66463112875581 -28.7690540381645, -95.6959106537003 -29.19787785639968 M-95.6959106537003 -29.19787785639968 C-95.1989003411167 -29.38078224574341, -94.70189002853309 -29.563686635087144, -93.80090886774407 -29.895256030836055 M-95.6959106537003 -29.19787785639968 C-95.1918955164183 -29.383360085984307, -94.68788037913632 -29.568842315568936, -93.80090886774407 -29.895256030836055 M-93.80090886774407 -29.895256030836055 C-93.37979338914235 -30.020240894404793, -92.95867791054062 -30.14522575797353, -91.86511939314951 -30.469788185729417 M-93.80090886774407 -29.895256030836055 C-93.40644003649399 -30.012332309341932, -93.01197120524391 -30.129408587847806, -91.86511939314951 -30.469788185729417 M-91.86511939314951 -30.469788185729417 C-91.27602105399498 -30.604246037415514, -90.68692271484045 -30.73870388910161, -89.89649680409325 -30.919113445218553 M-91.86511939314951 -30.469788185729417 C-91.25677489023712 -30.60863884870029, -90.64843038732472 -30.747489511671166, -89.89649680409325 -30.919113445218553 M-89.89649680409325 -30.919113445218553 C-89.35081284451856 -31.00733539596028, -88.80512888494387 -31.095557346702005, -87.90313059306196 -31.24138543543225 M-89.89649680409325 -30.919113445218553 C-89.34926936109348 -31.007584934390554, -88.8020419180937 -31.096056423562555, -87.90313059306196 -31.24138543543225 M-87.90313059306196 -31.24138543543225 C-87.25254978179139 -31.304146183857622, -86.60196897052082 -31.366906932282994, -85.89321192939246 -31.435279871635593 M-87.90313059306196 -31.24138543543225 C-87.32837671195708 -31.296831251099764, -86.7536228308522 -31.35227706676728, -85.89321192939246 -31.435279871635593 M-85.89321192939246 -31.435279871635593 C-85.27169443281782 -31.455210728040324, -84.6501769362432 -31.475141584445055, -83.87500000000001 -31.5 M-85.89321192939246 -31.435279871635593 C-85.32469707292904 -31.45351103653534, -84.75618221646563 -31.47174220143508, -83.87500000000001 -31.5 M-83.87500000000001 -31.5 C-83.87500000000001 -31.5, -83.875 -31.5, -83.875 -31.5 M-83.87500000000001 -31.5 C-83.87500000000001 -31.5, -83.87500000000001 -31.5, -83.875 -31.5" stroke="#9370DB" stroke-width="1.3" fill="none" stroke-dasharray="0 0" style=""/></g><g class="label" style="" transform="translate(-100, -24)"><rect/><foreignObject width="200" height="48"><div xmlns="http://www.w3.org/1999/xhtml" style="display: table; white-space: break-spaces; line-height: 1.5; max-width: 200px; text-align: center; width: 200px;"><span class="nodeLabel"><p>Section 22: “Property” (eff: 1872-01-01)</p></span></div></foreignObject></g></g><g class="node default" id="my-svg-flowchart-ILLUS2-1" data-look="classic" transform="translate(138, 196)"><rect class="basic label-container" style="" x="-130" y="-51" width="260" height="102"/><g class="label" style="" transform="translate(-100, -36)"><rect/><foreignObject width="200" height="72"><div xmlns="http://www.w3.org/1999/xhtml" style="display: table; white-space: break-spaces; line-height: 1.5; max-width: 200px; text-align: center; width: 200px;"><span class="nodeLabel"><p>Illustration illustration: Writings, relating to real or personal property or...</p></span></div></foreignObject></g></g></g></g></g><defs><filter id="my-svg-drop-shadow" height="130%" width="130%"><feDropShadow dx="4" dy="4" stdDeviation="0" flood-opacity="0.06" flood-color="#000000"/></filter></defs><defs><filter id="my-svg-drop-shadow-small" height="150%" width="150%"><feDropShadow dx="2" dy="2" stdDeviation="0" flood-opacity="0.06" flood-color="#000000"/></filter></defs></svg>