<svg class="yuho-mermaid-svg" id="my-svg" width="100%" xmlns="http://www.w3.org/2000/svg" xmlns:xlink="http://www.w3.org/1999/xlink" class="flowchart" style="max-width: 276px; background-color: transparent;" viewBox="0 0 276 1923" role="graphics-document document" aria-roledescription="flowchart-v2"><style>#my-svg{font-family:"trebuchet ms",verdana,arial,sans-serif;font-size:16px;fill:#333;}@keyframes edge-animation-frame{from{stroke-dashoffset:0;}}@keyframes dash{to{stroke-dashoffset:0;}}#my-svg .edge-animation-slow{stroke-dasharray:9,5!important;stroke-dashoffset:900;animation:dash 50s linear infinite;stroke-linecap:round;}#my-svg .edge-animation-fast{stroke-dasharray:9,5!important;stroke-dashoffset:900;animation:dash 20s linear infinite;stroke-linecap:round;}#my-svg .error-icon{fill:#552222;}#my-svg .error-text{fill:#552222;stroke:#552222;}#my-svg .edge-thickness-normal{stroke-width:1px;}#my-svg .edge-thickness-thick{stroke-width:3.5px;}#my-svg .edge-pattern-solid{stroke-dasharray:0;}#my-svg .edge-thickness-invisible{stroke-width:0;fill:none;}#my-svg .edge-pattern-dashed{stroke-dasharray:3;}#my-svg .edge-pattern-dotted{stroke-dasharray:2;}#my-svg .marker{fill:#333333;stroke:#333333;}#my-svg .marker.cross{stroke:#333333;}#my-svg svg{font-family:"trebuchet ms",verdana,arial,sans-serif;font-size:16px;}#my-svg p{margin:0;}#my-svg .label{font-family:"trebuchet ms",verdana,arial,sans-serif;color:#333;}#my-svg .cluster-label text{fill:#333;}#my-svg .cluster-label span{color:#333;}#my-svg .cluster-label span p{background-color:transparent;}#my-svg .label text,#my-svg span{fill:#333;color:#333;}#my-svg .node rect,#my-svg .node circle,#my-svg .node ellipse,#my-svg .node polygon,#my-svg .node path{fill:#ECECFF;stroke:#9370DB;stroke-width:1px;}#my-svg .rough-node .label text,#my-svg .node .label text,#my-svg .image-shape .label,#my-svg .icon-shape .label{text-anchor:middle;}#my-svg .node .katex path{fill:#000;stroke:#000;stroke-width:1px;}#my-svg .rough-node .label,#my-svg .node .label,#my-svg .image-shape .label,#my-svg .icon-shape .label{text-align:center;}#my-svg .node.clickable{cursor:pointer;}#my-svg .root .anchor path{fill:#333333!important;stroke-width:0;stroke:#333333;}#my-svg .arrowheadPath{fill:#333333;}#my-svg .edgePath .path{stroke:#333333;stroke-width:1px;}#my-svg .flowchart-link{stroke:#333333;fill:none;}#my-svg .edgeLabel{background-color:rgba(232,232,232, 0.8);text-align:center;}#my-svg .edgeLabel p{background-color:rgba(232,232,232, 0.8);}#my-svg .edgeLabel rect{opacity:0.5;background-color:rgba(232,232,232, 0.8);fill:rgba(232,232,232, 0.8);}#my-svg .labelBkg{background-color:rgba(232, 232, 232, 0.5);}#my-svg .cluster rect{fill:#ffffde;stroke:#aaaa33;stroke-width:1px;}#my-svg .cluster text{fill:#333;}#my-svg .cluster span{color:#333;}#my-svg div.mermaidTooltip{position:absolute;text-align:center;max-width:200px;padding:2px;font-family:"trebuchet ms",verdana,arial,sans-serif;font-size:12px;background:hsl(80, 100%, 96.2745098039%);border:1px solid #aaaa33;border-radius:2px;pointer-events:none;z-index:100;}#my-svg .flowchartTitleText{text-anchor:middle;font-size:18px;fill:#333;}#my-svg rect.text{fill:none;stroke-width:0;}#my-svg .icon-shape,#my-svg .image-shape{background-color:rgba(232,232,232, 0.8);text-align:center;}#my-svg .icon-shape p,#my-svg .image-shape p{background-color:rgba(232,232,232, 0.8);padding:2px;}#my-svg .icon-shape .label rect,#my-svg .image-shape .label rect{opacity:0.5;background-color:rgba(232,232,232, 0.8);fill:rgba(232,232,232, 0.8);}#my-svg .label-icon{display:inline-block;height:1em;overflow:visible;vertical-align:-0.125em;}#my-svg .node .label-icon path{fill:currentColor;stroke:revert;stroke-width:revert;}#my-svg .node .neo-node{stroke:#9370DB;}#my-svg [data-look="neo"].node rect,#my-svg [data-look="neo"].cluster rect,#my-svg [data-look="neo"].node polygon{stroke:#9370DB;filter:drop-shadow(1px 2px 2px rgba(185, 185, 185, 1));}#my-svg [data-look="neo"].node path{stroke:#9370DB;stroke-width:1px;}#my-svg [data-look="neo"].node .outer-path{filter:drop-shadow(1px 2px 2px rgba(185, 185, 185, 1));}#my-svg [data-look="neo"].node .neo-line path{stroke:#9370DB;filter:none;}#my-svg [data-look="neo"].node circle{stroke:#9370DB;filter:drop-shadow(1px 2px 2px rgba(185, 185, 185, 1));}#my-svg [data-look="neo"].node circle .state-start{fill:#000000;}#my-svg [data-look="neo"].icon-shape .icon{fill:#9370DB;filter:drop-shadow(1px 2px 2px rgba(185, 185, 185, 1));}#my-svg [data-look="neo"].icon-shape .icon-neo path{stroke:#9370DB;filter:drop-shadow(1px 2px 2px rgba(185, 185, 185, 1));}#my-svg :root{--mermaid-font-family:"trebuchet ms",verdana,arial,sans-serif;}</style><g><marker id="my-svg_flowchart-v2-pointEnd" class="marker flowchart-v2" viewBox="0 0 10 10" refX="5" refY="5" markerUnits="userSpaceOnUse" markerWidth="8" markerHeight="8" orient="auto"><path d="M 0 0 L 10 5 L 0 10 z" class="arrowMarkerPath" style="stroke-width: 1; stroke-dasharray: 1, 0;"/></marker><marker id="my-svg_flowchart-v2-pointStart" class="marker flowchart-v2" viewBox="0 0 10 10" refX="4.5" refY="5" markerUnits="userSpaceOnUse" markerWidth="8" markerHeight="8" orient="auto"><path d="M 0 5 L 10 10 L 10 0 z" class="arrowMarkerPath" style="stroke-width: 1; stroke-dasharray: 1, 0;"/></marker><marker id="my-svg_flowchart-v2-pointEnd-margin" class="marker flowchart-v2" viewBox="0 0 11.5 14" refX="11.5" refY="7" markerUnits="userSpaceOnUse" markerWidth="10.5" markerHeight="14" orient="auto"><path d="M 0 0 L 11.5 7 L 0 14 z" class="arrowMarkerPath" style="stroke-width: 0; stroke-dasharray: 1, 0;"/></marker><marker id="my-svg_flowchart-v2-pointStart-margin" class="marker flowchart-v2" viewBox="0 0 11.5 14" refX="1" refY="7" markerUnits="userSpaceOnUse" markerWidth="11.5" markerHeight="14" orient="auto"><polygon points="0,7 11.5,14 11.5,0" class="arrowMarkerPath" style="stroke-width: 0; stroke-dasharray: 1, 0;"/></marker><marker id="my-svg_flowchart-v2-circleEnd" class="marker flowchart-v2" viewBox="0 0 10 10" refX="11" refY="5" markerUnits="userSpaceOnUse" markerWidth="11" markerHeight="11" orient="auto"><circle cx="5" cy="5" r="5" class="arrowMarkerPath" style="stroke-width: 1; stroke-dasharray: 1, 0;"/></marker><marker id="my-svg_flowchart-v2-circleStart" class="marker flowchart-v2" viewBox="0 0 10 10" refX="-1" refY="5" markerUnits="userSpaceOnUse" markerWidth="11" markerHeight="11" orient="auto"><circle cx="5" cy="5" r="5" class="arrowMarkerPath" style="stroke-width: 1; stroke-dasharray: 1, 0;"/></marker><marker id="my-svg_flowchart-v2-circleEnd-margin" class="marker flowchart-v2" viewBox="0 0 10 10" refY="5" refX="12.25" markerUnits="userSpaceOnUse" markerWidth="14" markerHeight="14" orient="auto"><circle cx="5" cy="5" r="5" class="arrowMarkerPath" style="stroke-width: 0; stroke-dasharray: 1, 0;"/></marker><marker id="my-svg_flowchart-v2-circleStart-margin" class="marker flowchart-v2" viewBox="0 0 10 10" refX="-2" refY="5" markerUnits="userSpaceOnUse" markerWidth="14" markerHeight="14" orient="auto"><circle cx="5" cy="5" r="5" class="arrowMarkerPath" style="stroke-width: 0; stroke-dasharray: 1, 0;"/></marker><marker id="my-svg_flowchart-v2-crossEnd" class="marker cross flowchart-v2" viewBox="0 0 11 11" refX="12" refY="5.2" markerUnits="userSpaceOnUse" markerWidth="11" markerHeight="11" orient="auto"><path d="M 1,1 l 9,9 M 10,1 l -9,9" class="arrowMarkerPath" style="stroke-width: 2; stroke-dasharray: 1, 0;"/></marker><marker id="my-svg_flowchart-v2-crossStart" class="marker cross flowchart-v2" viewBox="0 0 11 11" refX="-1" refY="5.2" markerUnits="userSpaceOnUse" markerWidth="11" markerHeight="11" orient="auto"><path d="M 1,1 l 9,9 M 10,1 l -9,9" class="arrowMarkerPath" style="stroke-width: 2; stroke-dasharray: 1, 0;"/></marker><marker id="my-svg_flowchart-v2-crossEnd-margin" class="marker cross flowchart-v2" viewBox="0 0 15 15" refX="17.7" refY="7.5" markerUnits="userSpaceOnUse" markerWidth="12" markerHeight="12" orient="auto"><path d="M 1,1 L 14,14 M 1,14 L 14,1" class="arrowMarkerPath" style="stroke-width: 2.5;"/></marker><marker id="my-svg_flowchart-v2-crossStart-margin" class="marker cross flowchart-v2" viewBox="0 0 15 15" refX="-3.5" refY="7.5" markerUnits="userSpaceOnUse" markerWidth="12" markerHeight="12" orient="auto"><path d="M 1,1 L 14,14 M 1,14 L 14,1" class="arrowMarkerPath" style="stroke-width: 2.5; stroke-dasharray: 1, 0;"/></marker><g class="root"><g class="clusters"/><g class="edgePaths"><path d="M138.5,119.5L138.417,123.583C138.333,127.667,138.167,135.833,138.154,143.5C138.141,151.167,138.281,158.334,138.351,161.917L138.422,165.501" id="my-svg-L_START1_GRP2_0" class="edge-thickness-normal edge-pattern-solid edge-thickness-normal edge-pattern-solid flowchart-link" style=";" data-edge="true" data-et="edge" data-id="L_START1_GRP2_0" data-points="W3sieCI6MTM4LjUsInkiOjExOS41fSx7IngiOjEzOCwieSI6MTQ0fSx7IngiOjEzOC41LCJ5IjoxNjkuNX1d" data-look="classic" marker-end="url(#my-svg_flowchart-v2-pointEnd)"/><path d="M138.5,208.5L138.417,212.583C138.333,216.667,138.167,224.833,138.083,232.417C138,240,138,247,138,250.5L138,254" id="my-svg-L_GRP2_ELEM3_0" class="edge-thickness-normal edge-pattern-solid edge-thickness-normal edge-pattern-solid flowchart-link" style=";" data-edge="true" data-et="edge" data-id="L_GRP2_ELEM3_0" data-points="W3sieCI6MTM4LjUsInkiOjIwOC41fSx7IngiOjEzOCwieSI6MjMzfSx7IngiOjEzOCwieSI6MjU4fV0=" data-look="classic" marker-end="url(#my-svg_flowchart-v2-pointEnd)"/><path d="M138,336L138,340.167C138,344.333,138,352.667,138,360.333C138,368,138,375,138,378.5L138,382" id="my-svg-L_ELEM3_ELEM4_0" class="edge-thickness-normal edge-pattern-solid edge-thickness-normal edge-pattern-solid flowchart-link" style=";" data-edge="true" data-et="edge" data-id="L_ELEM3_ELEM4_0" data-points="W3sieCI6MTM4LCJ5IjozMzZ9LHsieCI6MTM4LCJ5IjozNjF9LHsieCI6MTM4LCJ5IjozODZ9XQ==" data-look="classic" marker-end="url(#my-svg_flowchart-v2-pointEnd)"/><path d="M138,512L138,516.167C138,520.333,138,528.667,138.07,536.417C138.141,544.167,138.281,551.334,138.351,554.917L138.422,558.501" id="my-svg-L_ELEM4_GRP5_0" class="edge-thickness-normal edge-pattern-solid edge-thickness-normal edge-pattern-solid flowchart-link" style=";" data-edge="true" data-et="edge" data-id="L_ELEM4_GRP5_0" data-points="W3sieCI6MTM4LCJ5Ijo1MTJ9LHsieCI6MTM4LCJ5Ijo1Mzd9LHsieCI6MTM4LjUsInkiOjU2Mi41fV0=" data-look="classic" marker-end="url(#my-svg_flowchart-v2-pointEnd)"/><path d="M138.5,601.5L138.417,605.583C138.333,609.667,138.167,617.833,138.083,625.417C138,633,138,640,138,643.5L138,647" id="my-svg-L_GRP5_ELEM6_0" class="edge-thickness-normal edge-pattern-solid edge-thickness-normal edge-pattern-solid flowchart-link" style=";" data-edge="true" data-et="edge" data-id="L_GRP5_ELEM6_0" data-points="W3sieCI6MTM4LjUsInkiOjYwMS41fSx7IngiOjEzOCwieSI6NjI2fSx7IngiOjEzOCwieSI6NjUxfV0=" data-look="classic" marker-end="url(#my-svg_flowchart-v2-pointEnd)"/><path d="M138,729L138,733.167C138,737.333,138,745.667,138,753.333C138,761,138,768,138,771.5L138,775" id="my-svg-L_ELEM6_ELEM7_0" class="edge-thickness-normal edge-pattern-solid edge-thickness-normal edge-pattern-solid flowchart-link" style=";" data-edge="true" data-et="edge" data-id="L_ELEM6_ELEM7_0" data-points="W3sieCI6MTM4LCJ5Ijo3Mjl9LHsieCI6MTM4LCJ5Ijo3NTR9LHsieCI6MTM4LCJ5Ijo3Nzl9XQ==" data-look="classic" marker-end="url(#my-svg_flowchart-v2-pointEnd)"/><path d="M138,857L138,861.167C138,865.333,138,873.667,138,881.333C138,889,138,896,138,899.5L138,903" id="my-svg-L_ELEM7_ELEM8_0" class="edge-thickness-normal edge-pattern-solid edge-thickness-normal edge-pattern-solid flowchart-link" style=";" data-edge="true" data-et="edge" data-id="L_ELEM7_ELEM8_0" data-points="W3sieCI6MTM4LCJ5Ijo4NTd9LHsieCI6MTM4LCJ5Ijo4ODJ9LHsieCI6MTM4LCJ5Ijo5MDd9XQ==" data-look="classic" marker-end="url(#my-svg_flowchart-v2-pointEnd)"/><path d="M138,1033L138,1037.167C138,1041.333,138,1049.667,138,1057.333C138,1065,138,1072,138,1075.5L138,1079" id="my-svg-L_ELEM8_ELEM9_0" class="edge-thickness-normal edge-pattern-solid edge-thickness-normal edge-pattern-solid flowchart-link" style=";" data-edge="true" data-et="edge" data-id="L_ELEM8_ELEM9_0" data-points="W3sieCI6MTM4LCJ5IjoxMDMzfSx7IngiOjEzOCwieSI6MTA1OH0seyJ4IjoxMzgsInkiOjEwODN9XQ==" data-look="classic" marker-end="url(#my-svg_flowchart-v2-pointEnd)"/><path d="M138,1137L138,1141.167C138,1145.333,138,1153.667,138.07,1161.417C138.141,1169.167,138.281,1176.334,138.351,1179.917L138.422,1183.501" id="my-svg-L_ELEM9_GRP10_0" class="edge-thickness-normal edge-pattern-solid edge-thickness-normal edge-pattern-solid flowchart-link" style=";" data-edge="true" data-et="edge" data-id="L_ELEM9_GRP10_0" data-points="W3sieCI6MTM4LCJ5IjoxMTM3fSx7IngiOjEzOCwieSI6MTE2Mn0seyJ4IjoxMzguNSwieSI6MTE4Ny41fV0=" data-look="classic" marker-end="url(#my-svg_flowchart-v2-pointEnd)"/><path d="M138.5,1226.5L138.417,1230.583C138.333,1234.667,138.167,1242.833,138.083,1250.417C138,1258,138,1265,138,1268.5L138,1272" id="my-svg-L_GRP10_ELEM11_0" class="edge-thickness-normal edge-pattern-solid edge-thickness-normal edge-pattern-solid flowchart-link" style=";" data-edge="true" data-et="edge" data-id="L_GRP10_ELEM11_0" data-points="W3sieCI6MTM4LjUsInkiOjEyMjYuNX0seyJ4IjoxMzgsInkiOjEyNTF9LHsieCI6MTM4LCJ5IjoxMjc2fV0=" data-look="classic" marker-end="url(#my-svg_flowchart-v2-pointEnd)"/><path d="M138,1426L138,1430.167C138,1434.333,138,1442.667,138,1450.333C138,1458,138,1465,138,1468.5L138,1472" id="my-svg-L_ELEM11_ELEM12_0" class="edge-thickness-normal edge-pattern-solid edge-thickness-normal edge-pattern-solid flowchart-link" style=";" data-edge="true" data-et="edge" data-id="L_ELEM11_ELEM12_0" data-points="W3sieCI6MTM4LCJ5IjoxNDI2fSx7IngiOjEzOCwieSI6MTQ1MX0seyJ4IjoxMzgsInkiOjE0NzZ9XQ==" data-look="classic" marker-end="url(#my-svg_flowchart-v2-pointEnd)"/><path d="M138,1626L138,1630.167C138,1634.333,138,1642.667,138,1650.333C138,1658,138,1665,138,1668.5L138,1672" id="my-svg-L_ELEM12_ELEM13_0" class="edge-thickness-normal edge-pattern-solid edge-thickness-normal edge-pattern-solid flowchart-link" style=";" data-edge="true" data-et="edge" data-id="L_ELEM12_ELEM13_0" data-points="W3sieCI6MTM4LCJ5IjoxNjI2fSx7IngiOjEzOCwieSI6MTY1MX0seyJ4IjoxMzgsInkiOjE2NzZ9XQ==" data-look="classic" marker-end="url(#my-svg_flowchart-v2-pointEnd)"/><path d="M138,1826L138,1830.167C138,1834.333,138,1842.667,138.07,1850.417C138.141,1858.167,138.281,1865.334,138.351,1868.917L138.422,1872.501" id="my-svg-L_ELEM13_PENALTY14_0" class="edge-thickness-normal edge-pattern-solid edge-thickness-normal edge-pattern-solid flowchart-link" style=";" data-edge="true" data-et="edge" data-id="L_ELEM13_PENALTY14_0" data-points="W3sieCI6MTM4LCJ5IjoxODI2fSx7IngiOjEzOCwieSI6MTg1MX0seyJ4IjoxMzguNSwieSI6MTg3Ni41fV0=" data-look="classic" marker-end="url(#my-svg_flowchart-v2-pointEnd)"/></g><g class="edgeLabels"><g class="edgeLabel"><g class="label" data-id="L_START1_GRP2_0" transform="translate(0, 0)"><foreignObject width="0" height="0"><div xmlns="http://www.w3.org/1999/xhtml" class="labelBkg" style="display: table-cell; white-space: nowrap; line-height: 1.5; max-width: 200px; text-align: center;"><span class="edgeLabel"></span></div></foreignObject></g></g><g class="edgeLabel"><g class="label" data-id="L_GRP2_ELEM3_0" transform="translate(0, 0)"><foreignObject width="0" height="0"><div xmlns="http://www.w3.org/1999/xhtml" class="labelBkg" style="display: table-cell; white-space: nowrap; line-height: 1.5; max-width: 200px; text-align: center;"><span class="edgeLabel"></span></div></foreignObject></g></g><g class="edgeLabel"><g class="label" data-id="L_ELEM3_ELEM4_0" transform="translate(0, 0)"><foreignObject width="0" height="0"><div xmlns="http://www.w3.org/1999/xhtml" class="labelBkg" style="display: table-cell; white-space: nowrap; line-height: 1.5; max-width: 200px; text-align: center;"><span class="edgeLabel"></span></div></foreignObject></g></g><g class="edgeLabel"><g class="label" data-id="L_ELEM4_GRP5_0" transform="translate(0, 0)"><foreignObject width="0" height="0"><div xmlns="http://www.w3.org/1999/xhtml" class="labelBkg" style="display: table-cell; white-space: nowrap; line-height: 1.5; max-width: 200px; text-align: center;"><span class="edgeLabel"></span></div></foreignObject></g></g><g class="edgeLabel"><g class="label" data-id="L_GRP5_ELEM6_0" transform="translate(0, 0)"><foreignObject width="0" height="0"><div xmlns="http://www.w3.org/1999/xhtml" class="labelBkg" style="display: table-cell; white-space: nowrap; line-height: 1.5; max-width: 200px; text-align: center;"><span class="edgeLabel"></span></div></foreignObject></g></g><g class="edgeLabel"><g class="label" data-id="L_ELEM6_ELEM7_0" transform="translate(0, 0)"><foreignObject width="0" height="0"><div xmlns="http://www.w3.org/1999/xhtml" class="labelBkg" style="display: table-cell; white-space: nowrap; line-height: 1.5; max-width: 200px; text-align: center;"><span class="edgeLabel"></span></div></foreignObject></g></g><g class="edgeLabel"><g class="label" data-id="L_ELEM7_ELEM8_0" transform="translate(0, 0)"><foreignObject width="0" height="0"><div xmlns="http://www.w3.org/1999/xhtml" class="labelBkg" style="display: table-cell; white-space: nowrap; line-height: 1.5; max-width: 200px; text-align: center;"><span class="edgeLabel"></span></div></foreignObject></g></g><g class="edgeLabel"><g class="label" data-id="L_ELEM8_ELEM9_0" transform="translate(0, 0)"><foreignObject width="0" height="0"><div xmlns="http://www.w3.org/1999/xhtml" class="labelBkg" style="display: table-cell; white-space: nowrap; line-height: 1.5; max-width: 200px; text-align: center;"><span class="edgeLabel"></span></div></foreignObject></g></g><g class="edgeLabel"><g class="label" data-id="L_ELEM9_GRP10_0" transform="translate(0, 0)"><foreignObject width="0" height="0"><div xmlns="http://www.w3.org/1999/xhtml" class="labelBkg" style="display: table-cell; white-space: nowrap; line-height: 1.5; max-width: 200px; text-align: center;"><span class="edgeLabel"></span></div></foreignObject></g></g><g class="edgeLabel"><g class="label" data-id="L_GRP10_ELEM11_0" transform="translate(0, 0)"><foreignObject width="0" height="0"><div xmlns="http://www.w3.org/1999/xhtml" class="labelBkg" style="display: table-cell; white-space: nowrap; line-height: 1.5; max-width: 200px; text-align: center;"><span class="edgeLabel"></span></div></foreignObject></g></g><g class="edgeLabel"><g class="label" data-id="L_ELEM11_ELEM12_0" transform="translate(0, 0)"><foreignObject width="0" height="0"><div xmlns="http://www.w3.org/1999/xhtml" class="labelBkg" style="display: table-cell; white-space: nowrap; line-height: 1.5; max-width: 200px; text-align: center;"><span class="edgeLabel"></span></div></foreignObject></g></g><g class="edgeLabel"><g class="label" data-id="L_ELEM12_ELEM13_0" transform="translate(0, 0)"><foreignObject width="0" height="0"><div xmlns="http://www.w3.org/1999/xhtml" class="labelBkg" style="display: table-cell; white-space: nowrap; line-height: 1.5; max-width: 200px; text-align: center;"><span class="edgeLabel"></span></div></foreignObject></g></g><g class="edgeLabel"><g class="label" data-id="L_ELEM13_PENALTY14_0" transform="translate(0, 0)"><foreignObject width="0" height="0"><div xmlns="http://www.w3.org/1999/xhtml" class="labelBkg" style="display: table-cell; white-space: nowrap; line-height: 1.5; max-width: 200px; text-align: center;"><span class="edgeLabel"></span></div></foreignObject></g></g></g><g class="nodes"><g class="node default" id="my-svg-flowchart-START1-0" data-look="classic" transform="translate(138, 63.5)"><g class="basic label-container outer-path"><path d="M-65.875 -55.5 C-32.292107566386605 -55.5, 1.2907848672267903 -55.5, 65.875 -55.5 C65.875 -55.5, 65.875 -55.5, 65.875 -55.5 C66.66463367957654 -55.4746779848247, 67.45426735915309 -55.449355969649396, 69.43089720892957 -55.38596929764367 C70.80528224800312 -55.25338402586409, 72.17966728707667 -55.120798754084504, 72.97218247349008 -55.044345767190165 C73.77746694456197 -54.91415361898161, 74.58275141563385 -54.78396147077304, 76.48430389292615 -54.47653321300413 C77.25329004858791 -54.30101714107796, 78.02227620424969 -54.125501069151795, 79.95282940697766 -53.684864898666135 C81.20590014450585 -53.31296008127029, 82.45897088203404 -52.941055263874446, 83.36350610031094 -52.67259395909211 C84.41774757113073 -52.2846233525291, 85.47198904195054 -51.89665274596609, 86.70231877080526 -51.44388003270421 C87.38505739335058 -51.14165189722505, 88.06779601589591 -50.8394237617459, 89.95554752102447 -50.00377216858426 C90.88849787516587 -49.51705256641192, 91.82144822930726 -49.03033296423957, 93.10982413621853 -48.358188078848116 C94.19591798806358 -47.69979160326371, 95.28201183990865 -47.04139512767931, 96.15218701718544 -46.51388982149716 C97.31398734348662 -45.703468207395, 98.47578766978779 -44.89304659329283, 99.07013444226249 -44.47845601367159 C100.14747593095476 -43.619304845700555, 101.22481741964701 -42.76015367772952, 101.85167593958224 -42.260250689486966 C102.41656150714432 -41.74723656308017, 102.98144707470642 -41.234222436673384, 104.48538155849349 -39.86838893042388 C105.26435498889701 -39.064034908624215, 106.04332841930054 -38.259680886824555, 106.96042883768001 -37.3126994095031 C107.47069712316107 -36.71330924628906, 107.98096540864215 -36.113919083075025, 109.26664727697565 -34.603684003159714 C110.11182644645564 -33.471220913462844, 110.95700561593564 -32.33875782376598, 111.39456013013104 -31.752474636780427 C112.06085830730952 -30.728861710521702, 112.72715648448799 -29.705248784262977, 113.33542334679672 -28.770787541234146 C113.99226258664896 -27.604502958691107, 114.64910182650122 -26.438218376148065, 115.08126150370151 -25.670875108366356 C115.67686086813683 -24.434100284331546, 116.27246023257213 -23.19732546029674, 116.62490057737759 -22.46547554329287 C117.01666165424784 -21.497818109238192, 117.4084227311181 -20.530160675183513, 117.95999742376169 -19.1677605203826 C118.22707282270471 -18.363371971452295, 118.49414822164772 -17.558983422521987, 119.08106584353466 -15.791281058022316 C119.42345423099742 -14.485605744560974, 119.7658426184602 -13.179930431099631, 119.9834991260912 -12.349911834575455 C120.23217982743606 -11.07298899185447, 120.48086052878092 -9.796066149133484, 120.66358897950198 -8.857794174352568 C120.81896806235183 -7.652704690839527, 120.97434714520168 -6.447615207326486, 121.1185407686805 -5.3292779378763475 C121.16465108646882 -4.6110725187446215, 121.21076140425714 -3.892867099612896, 121.34648499913817 -1.7788625552268618 C121.34648499913817 -1.0308721590063943, 121.34648499913817 -0.2828817627859268, 121.34648499913817 1.7788625552268482 C121.29701930095345 2.5493307324466974, 121.24755360276875 3.319798909666546, 121.1185407686805 5.32927793787631 C120.99815412899848 6.262972942219127, 120.87776748931647 7.196667946561945, 120.66358897950198 8.857794174352529 C120.46471229809958 9.87898390075234, 120.26583561669719 10.900173627152151, 119.9834991260912 12.349911834575442 C119.78395859750023 13.110846351504975, 119.58441806890926 13.87178086843451, 119.08106584353467 15.79128105802228 C118.8237606067779 16.566243435111584, 118.56645537002112 17.34120581220089, 117.9599974237617 19.16776052038256 C117.47441827935336 20.367150395105277, 116.98883913494501 21.566540269827996, 116.62490057737759 22.465475543292854 C116.16936028857697 23.411414699988086, 115.71381999977635 24.35735385668332, 115.08126150370151 25.670875108366346 C114.55518508678661 26.604977057612484, 114.0291086698717 27.53907900685862, 113.33542334679672 28.770787541234135 C112.5845352116515 29.924353358513972, 111.83364707650628 31.07791917579381, 111.39456013013105 31.7524746367804 C110.81968916982355 32.52274935177059, 110.24481820951603 33.293024066760786, 109.26664727697566 34.6036840031597 C108.57677088904384 35.41405206350294, 107.88689450111201 36.22442012384618, 106.96042883768003 37.31269940950306 C106.29343456600476 38.001425756255905, 105.62644029432948 38.69015210300875, 104.48538155849351 39.86838893042387 C103.59925640113322 40.673144352751606, 102.7131312437729 41.47789977507935, 101.8516759395823 42.26025068948693 C101.19958698925764 42.780274274555104, 100.54749803893297 43.30029785962328, 99.0701344422625 44.47845601367158 C98.20090474831727 45.08479301982079, 97.33167505437203 45.69113002597, 96.15218701718548 46.51388982149714 C95.53656861459937 46.88708131492014, 94.92095021201325 47.260272808343146, 93.10982413621855 48.358188078848116 C91.93831708575871 48.96936255668693, 90.76681003529887 49.58053703452575, 89.95554752102449 50.003772168584256 C88.67431172398037 50.570937249426144, 87.39307592693625 51.138102330268026, 86.70231877080529 51.4438800327042 C85.52571665899241 51.87688048624204, 84.34911454717951 52.30988093977987, 83.36350610031099 52.6725939590921 C82.04328981356404 53.06442722304189, 80.72307352681712 53.456260486991674, 79.95282940697771 53.68486489866612 C79.06485897351122 53.88753835555624, 78.17688854004473 54.09021181244636, 76.48430389292618 54.476533213004124 C75.75765006287288 54.594012968962524, 75.0309962328196 54.71149272492092, 72.97218247349011 55.04434576719016 C71.88723686680522 55.14900916502906, 70.80229126012034 55.25367256286795, 69.43089720892957 55.38596929764367 C68.40294580757319 55.41893369829914, 67.37499440621681 55.45189809895462, 65.87500000000001 55.5 C65.87500000000001 55.5, 65.875 55.5, 65.875 55.5 C29.29091990434999 55.5, -7.293160191300018 55.5, -65.87499999999999 55.5 C-66.7160840248248 55.473028072394605, -67.5571680496496 55.44605614478922, -69.43089720892954 55.38596929764367 C-70.24254120447357 55.30767097753826, -71.0541852000176 55.22937265743284, -72.9721824734901 55.04434576719016 C-74.18867597387585 54.847672532095785, -75.4051694742616 54.650999297001405, -76.48430389292616 54.476533213004124 C-77.39199966282952 54.26935757679214, -78.29969543273286 54.06218194058016, -79.95282940697764 53.684864898666135 C-80.68715218627709 53.466921752308984, -81.42147496557652 53.248978605951834, -83.36350610031091 52.67259395909212 C-84.37177672261853 52.301541049731455, -85.38004734492614 51.93048814037079, -86.70231877080526 51.44388003270421 C-87.94473249170538 50.893900333355305, -89.18714621260548 50.3439206340064, -89.95554752102447 50.00377216858427 C-91.04277087867374 49.43656843929844, -92.129994236323 48.86936471001262, -93.10982413621852 48.35818807884812 C-93.88396331458621 47.88890035957485, -94.6581024929539 47.41961264030157, -96.15218701718541 46.51388982149718 C-96.97549735863686 45.93958416783091, -97.79880770008832 45.36527851416463, -99.07013444226249 44.4784560136716 C-99.63760720337328 44.02591158777012, -100.20507996448407 43.57336716186864, -101.85167593958224 42.26025068948697 C-102.71396616138308 41.4771415249965, -103.57625638318393 40.69403236050602, -104.48538155849347 39.868388930423905 C-105.1860098383602 39.144932708809954, -105.88663811822693 38.421476487196, -106.96042883768001 37.31269940950308 C-107.45824480630353 36.72793644622683, -107.95606077492705 36.14317348295057, -109.26664727697565 34.60368400315972 C-109.77277983814506 33.925512480817595, -110.27891239931448 33.24734095847547, -111.39456013013104 31.752474636780434 C-112.07931065868466 30.70051394365935, -112.76406118723828 29.648553250538264, -113.33542334679669 28.77078754123417 C-113.8748786580589 27.812930010314428, -114.41433396932112 26.855072479394686, -115.0812615037015 25.670875108366364 C-115.59101662920973 24.6123576832361, -116.10077175471797 23.553840258105843, -116.62490057737759 22.465475543292875 C-117.0609608090517 21.388398340406756, -117.49702104072583 20.311321137520636, -117.95999742376169 19.167760520382608 C-118.24380649236545 18.31297282458233, -118.52761556096921 17.45818512878206, -119.08106584353466 15.791281058022301 C-119.3161465478008 14.89481644803378, -119.55122725206695 13.998351838045256, -119.9834991260912 12.349911834575463 C-120.12648108652306 11.615729687005954, -120.26946304695491 10.881547539436447, -120.66358897950198 8.857794174352573 C-120.83954170762368 7.493139560836854, -121.01549443574538 6.128484947321134, -121.1185407686805 5.3292779378763795 C-121.1893173028402 4.226876288549043, -121.26009383699989 3.1244746392217078, -121.34648499913817 1.7788625552268686 C-121.34648499913817 0.9463209932812181, -121.34648499913817 0.11377943133556756, -121.34648499913817 -1.7788625552268416 C-121.27048201467788 -2.9626703867006388, -121.19447903021761 -4.146478218174436, -121.1185407686805 -5.329277937876303 C-120.95278637344303 -6.614836295430559, -120.78703197820556 -7.900394652984813, -120.66358897950198 -8.857794174352547 C-120.42025085057425 -10.107284036864701, -120.1769127216465 -11.356773899376858, -119.9834991260912 -12.349911834575437 C-119.73562565361127 -13.295160814184007, -119.48775218113131 -14.240409793792578, -119.08106584353467 -15.791281058022273 C-118.79091392604877 -16.665172404059852, -118.50076200856286 -17.539063750097434, -117.95999742376172 -19.167760520382537 C-117.56605973805077 -20.140794220355616, -117.1721220523398 -21.113827920328696, -116.62490057737759 -22.46547554329285 C-116.17831386054114 -23.392822416228725, -115.7317271437047 -24.3201692891646, -115.08126150370151 -25.67087510836634 C-114.4198474825379 -26.845282678374534, -113.75843346137431 -28.01969024838273, -113.33542334679672 -28.770787541234153 C-112.87141892854079 -29.48362293030756, -112.40741451028487 -30.19645831938097, -111.39456013013105 -31.752474636780416 C-110.57213407554246 -32.854450625374206, -109.74970802095389 -33.95642661396799, -109.26664727697568 -34.6036840031597 C-108.61320528930094 -35.371254143784874, -107.95976330162618 -36.13882428441004, -106.96042883768004 -37.31269940950306 C-106.21503972585809 -38.08237486504343, -105.46965061403613 -38.852050320583785, -104.48538155849351 -39.86838893042385 C-103.43999215372142 -40.817783928349904, -102.39460274894934 -41.76717892627597, -101.8516759395823 -42.260250689486924 C-101.2513499537174 -42.738994687868775, -100.65102396785251 -43.21773868625063, -99.07013444226251 -44.47845601367158 C-98.06674225996481 -45.17837896389496, -97.06335007766711 -45.878301914118325, -96.15218701718548 -46.51388982149714 C-95.16033978503836 -47.11515344236604, -94.16849255289124 -47.71641706323494, -93.10982413621855 -48.35818807884811 C-92.02211286154386 -48.92564635413357, -90.93440158686919 -49.49310462941904, -89.9555475210245 -50.003772168584256 C-89.00281195191197 -50.425519943133864, -88.05007638279942 -50.84726771768347, -86.70231877080529 -51.44388003270419 C-85.41123668709585 -51.91901017414122, -84.1201546033864 -52.394140315578255, -83.36350610031099 -52.6725939590921 C-82.66461658297962 -52.880020699290114, -81.96572706564824 -53.08744743948812, -79.95282940697771 -53.68486489866611 C-78.59661024980723 -53.99441307113319, -77.24039109263674 -54.30396124360026, -76.48430389292619 -54.47653321300412 C-75.11630357032779 -54.69770089616088, -73.74830324772938 -54.918868579317646, -72.97218247349012 -55.04434576719016 C-72.06970678520605 -55.13140651145311, -71.167231096922 -55.218467255716064, -69.43089720892957 -55.38596929764367 C-68.3882513168248 -55.419404922016355, -67.34560542472006 -55.45284054638904, -65.87500000000001 -55.5 C-65.87500000000001 -55.5, -65.87500000000001 -55.5, -65.875 -55.5" stroke="none" stroke-width="0" fill="#ECECFF" style=""/><path d="M-65.875 -55.5 C-31.35251364759477 -55.5, 3.169972704810462 -55.5, 65.875 -55.5 M-65.875 -55.5 C-26.817849134546115 -55.5, 12.23930173090777 -55.5, 65.875 -55.5 M65.875 -55.5 C65.875 -55.5, 65.875 -55.5, 65.875 -55.5 M65.875 -55.5 C65.875 -55.5, 65.875 -55.5, 65.875 -55.5 M65.875 -55.5 C67.20800817680198 -55.457253022312976, 68.54101635360398 -55.41450604462595, 69.43089720892957 -55.38596929764367 M65.875 -55.5 C67.24950504081478 -55.45592229865283, 68.62401008162956 -55.41184459730567, 69.43089720892957 -55.38596929764367 M69.43089720892957 -55.38596929764367 C70.14220826771509 -55.31734997527934, 70.85351932650062 -55.24873065291501, 72.97218247349008 -55.044345767190165 M69.43089720892957 -55.38596929764367 C70.6073006891825 -55.27248306873585, 71.78370416943542 -55.158996839828035, 72.97218247349008 -55.044345767190165 M72.97218247349008 -55.044345767190165 C74.30297211029149 -54.829194019139884, 75.63376174709289 -54.6140422710896, 76.48430389292615 -54.47653321300413 M72.97218247349008 -55.044345767190165 C73.91503693522422 -54.891912369762544, 74.85789139695835 -54.73947897233492, 76.48430389292615 -54.47653321300413 M76.48430389292615 -54.47653321300413 C77.8155969073544 -54.17267426995969, 79.14688992178266 -53.868815326915254, 79.95282940697766 -53.684864898666135 M76.48430389292615 -54.47653321300413 C77.36353408463206 -54.27585465926045, 78.24276427633798 -54.07517610551678, 79.95282940697766 -53.684864898666135 M79.95282940697766 -53.684864898666135 C80.93402311412437 -53.39365175677586, 81.91521682127107 -53.102438614885585, 83.36350610031094 -52.67259395909211 M79.95282940697766 -53.684864898666135 C81.21434283730741 -53.310454334363385, 82.47585626763717 -52.936043770060635, 83.36350610031094 -52.67259395909211 M83.36350610031094 -52.67259395909211 C84.49669785090012 -52.25556891976558, 85.6298896014893 -51.838543880439055, 86.70231877080526 -51.44388003270421 M83.36350610031094 -52.67259395909211 C84.32944098472738 -52.31712099262267, 85.29537586914383 -51.96164802615323, 86.70231877080526 -51.44388003270421 M86.70231877080526 -51.44388003270421 C87.91333973613877 -50.90779697501163, 89.12436070147228 -50.371713917319056, 89.95554752102447 -50.00377216858426 M86.70231877080526 -51.44388003270421 C87.4274009583343 -51.122907657083985, 88.15248314586333 -50.80193528146377, 89.95554752102447 -50.00377216858426 M89.95554752102447 -50.00377216858426 C90.79947052874464 -49.56349807601514, 91.6433935364648 -49.12322398344602, 93.10982413621853 -48.358188078848116 M89.95554752102447 -50.00377216858426 C91.01079157918377 -49.45325201935863, 92.06603563734308 -48.902731870133, 93.10982413621853 -48.358188078848116 M93.10982413621853 -48.358188078848116 C93.91794736661308 -47.8682990275237, 94.72607059700763 -47.378409976199286, 96.15218701718544 -46.51388982149716 M93.10982413621853 -48.358188078848116 C93.72183366344424 -47.9871843068767, 94.33384319066995 -47.616180534905276, 96.15218701718544 -46.51388982149716 M96.15218701718544 -46.51388982149716 C97.13907583075815 -45.82547890687703, 98.12596464433084 -45.1370679922569, 99.07013444226249 -44.47845601367159 M96.15218701718544 -46.51388982149716 C97.19210883274529 -45.78848538045245, 98.23203064830514 -45.06308093940774, 99.07013444226249 -44.47845601367159 M99.07013444226249 -44.47845601367159 C99.78486870171862 -43.90847446163275, 100.49960296117474 -43.33849290959392, 101.85167593958224 -42.260250689486966 M99.07013444226249 -44.47845601367159 C100.02648205157635 -43.71579424472247, 100.98282966089023 -42.95313247577335, 101.85167593958224 -42.260250689486966 M101.85167593958224 -42.260250689486966 C102.59153153965818 -41.58833340900448, 103.3313871397341 -40.91641612852198, 104.48538155849349 -39.86838893042388 M101.85167593958224 -42.260250689486966 C102.66044211677263 -41.52575064614309, 103.469208293963 -40.79125060279921, 104.48538155849349 -39.86838893042388 M104.48538155849349 -39.86838893042388 C105.24954340821361 -39.07932908173321, 106.01370525793374 -38.290269233042544, 106.96042883768001 -37.3126994095031 M104.48538155849349 -39.86838893042388 C105.07123511079249 -39.263447038204, 105.65708866309149 -38.65850514598412, 106.96042883768001 -37.3126994095031 M106.96042883768001 -37.3126994095031 C107.46748124872074 -36.71708679539512, 107.97453365976148 -36.12147418128714, 109.26664727697565 -34.603684003159714 M106.96042883768001 -37.3126994095031 C107.44061393069852 -36.748646675937735, 107.92079902371701 -36.18459394237237, 109.26664727697565 -34.603684003159714 M109.26664727697565 -34.603684003159714 C109.99666204603358 -33.625530718335696, 110.72667681509151 -32.64737743351168, 111.39456013013104 -31.752474636780427 M109.26664727697565 -34.603684003159714 C109.85279439591098 -33.81830026288744, 110.43894151484629 -33.03291652261517, 111.39456013013104 -31.752474636780427 M111.39456013013104 -31.752474636780427 C111.96886942852692 -30.87018133080441, 112.54317872692279 -29.98788802482839, 113.33542334679672 -28.770787541234146 M111.39456013013104 -31.752474636780427 C111.97306417796233 -30.863737069223678, 112.5515682257936 -29.97499950166693, 113.33542334679672 -28.770787541234146 M113.33542334679672 -28.770787541234146 C113.73021592289292 -28.06979334529204, 114.12500849898912 -27.36879914934994, 115.08126150370151 -25.670875108366356 M113.33542334679672 -28.770787541234146 C113.78135113693746 -27.978997594754066, 114.22727892707819 -27.18720764827399, 115.08126150370151 -25.670875108366356 M115.08126150370151 -25.670875108366356 C115.45199403252327 -24.901041079862587, 115.82272656134505 -24.131207051358817, 116.62490057737759 -22.46547554329287 M115.08126150370151 -25.670875108366356 C115.66511708288188 -24.458486505690175, 116.24897266206226 -23.246097903013993, 116.62490057737759 -22.46547554329287 M116.62490057737759 -22.46547554329287 C117.0153477705265 -21.501063427432094, 117.40579496367543 -20.536651311571312, 117.95999742376169 -19.1677605203826 M116.62490057737759 -22.46547554329287 C117.15337963072994 -21.16012206406513, 117.68185868408231 -19.854768584837387, 117.95999742376169 -19.1677605203826 M117.95999742376169 -19.1677605203826 C118.37546332560177 -17.916443419542205, 118.79092922744186 -16.665126318701805, 119.08106584353466 -15.791281058022316 M117.95999742376169 -19.1677605203826 C118.38398891644945 -17.89076569827745, 118.8079804091372 -16.613770876172296, 119.08106584353466 -15.791281058022316 M119.08106584353466 -15.791281058022316 C119.34681419711147 -14.777867409768898, 119.6125625506883 -13.764453761515483, 119.9834991260912 -12.349911834575455 M119.08106584353466 -15.791281058022316 C119.42426828863475 -14.482501389975047, 119.76747073373484 -13.17372172192778, 119.9834991260912 -12.349911834575455 M119.9834991260912 -12.349911834575455 C120.20307640567556 -11.222428911584238, 120.42265368525993 -10.094945988593022, 120.66358897950198 -8.857794174352568 M119.9834991260912 -12.349911834575455 C120.18574426198985 -11.311425806260516, 120.3879893978885 -10.272939777945577, 120.66358897950198 -8.857794174352568 M120.66358897950198 -8.857794174352568 C120.8138784207096 -7.6921789463532715, 120.96416786191722 -6.526563718353976, 121.1185407686805 -5.3292779378763475 M120.66358897950198 -8.857794174352568 C120.7615695503433 -8.097876215359442, 120.85955012118463 -7.337958256366317, 121.1185407686805 -5.3292779378763475 M121.1185407686805 -5.3292779378763475 C121.18242685136053 -4.334200632216995, 121.24631293404057 -3.339123326557642, 121.34648499913817 -1.7788625552268618 M121.1185407686805 -5.3292779378763475 C121.18743216359526 -4.256238853945938, 121.25632355851 -3.183199770015528, 121.34648499913817 -1.7788625552268618 M121.34648499913817 -1.7788625552268618 C121.34648499913817 -0.5363312565478267, 121.34648499913817 0.7062000421312085, 121.34648499913817 1.7788625552268482 M121.34648499913817 -1.7788625552268618 C121.34648499913817 -0.552180296866376, 121.34648499913817 0.6745019614941097, 121.34648499913817 1.7788625552268482 M121.34648499913817 1.7788625552268482 C121.26383169098449 3.066254546270037, 121.18117838283081 4.353646537313225, 121.1185407686805 5.32927793787631 M121.34648499913817 1.7788625552268482 C121.26347774585324 3.071767527388646, 121.1804704925683 4.364672499550443, 121.1185407686805 5.32927793787631 M121.1185407686805 5.32927793787631 C120.94288416584567 6.691635862143639, 120.76722756301083 8.053993786410969, 120.66358897950198 8.857794174352529 M121.1185407686805 5.32927793787631 C120.94807258400749 6.6513955154496305, 120.77760439933448 7.97351309302295, 120.66358897950198 8.857794174352529 M120.66358897950198 8.857794174352529 C120.51775783728722 9.606606268202487, 120.37192669507246 10.355418362052447, 119.9834991260912 12.349911834575442 M120.66358897950198 8.857794174352529 C120.49474368347659 9.724779083976967, 120.32589838745119 10.591763993601406, 119.9834991260912 12.349911834575442 M119.9834991260912 12.349911834575442 C119.73827826163983 13.285045270123444, 119.49305739718848 14.220178705671444, 119.08106584353467 15.79128105802228 M119.9834991260912 12.349911834575442 C119.62411455470648 13.720400963523936, 119.26472998332176 15.090890092472431, 119.08106584353467 15.79128105802228 M119.08106584353467 15.79128105802228 C118.69173859524594 16.963872698994905, 118.3024113469572 18.13646433996753, 117.9599974237617 19.16776052038256 M119.08106584353467 15.79128105802228 C118.79757964019036 16.64509633510269, 118.51409343684605 17.498911612183097, 117.9599974237617 19.16776052038256 M117.9599974237617 19.16776052038256 C117.69286405378324 19.827585108901715, 117.42573068380479 20.48740969742087, 116.62490057737759 22.465475543292854 M117.9599974237617 19.16776052038256 C117.48724658087852 20.33546424231977, 117.01449573799535 21.50316796425698, 116.62490057737759 22.465475543292854 M116.62490057737759 22.465475543292854 C116.24527777780983 23.253770409221985, 115.86565497824209 24.042065275151113, 115.08126150370151 25.670875108366346 M116.62490057737759 22.465475543292854 C116.15684438965897 23.43740423188864, 115.68878820194035 24.409332920484424, 115.08126150370151 25.670875108366346 M115.08126150370151 25.670875108366346 C114.52894960833315 26.651560806236862, 113.97663771296479 27.63224650410738, 113.33542334679672 28.770787541234135 M115.08126150370151 25.670875108366346 C114.53013864591823 26.64944954960145, 113.97901578813494 27.628023990836557, 113.33542334679672 28.770787541234135 M113.33542334679672 28.770787541234135 C112.59963346681204 29.901158384138206, 111.86384358682734 31.03152922704228, 111.39456013013105 31.7524746367804 M113.33542334679672 28.770787541234135 C112.6553159199401 29.81561518330124, 111.97520849308347 30.860442825368345, 111.39456013013105 31.7524746367804 M111.39456013013105 31.7524746367804 C110.94688385052099 32.35232006730981, 110.49920757091091 32.95216549783923, 109.26664727697566 34.6036840031597 M111.39456013013105 31.7524746367804 C110.84390525782408 32.49030199998087, 110.2932503855171 33.22812936318135, 109.26664727697566 34.6036840031597 M109.26664727697566 34.6036840031597 C108.74201762173705 35.21994384847604, 108.21738796649842 35.836203693792385, 106.96042883768003 37.31269940950306 M109.26664727697566 34.6036840031597 C108.59606651447942 35.39138632391411, 107.92548575198317 36.17908864466853, 106.96042883768003 37.31269940950306 M106.96042883768003 37.31269940950306 C106.26648851517338 38.02924976605122, 105.57254819266673 38.745800122599384, 104.48538155849351 39.86838893042387 M106.96042883768003 37.31269940950306 C106.40829987282898 37.88281789634282, 105.85617090797794 38.452936383182575, 104.48538155849351 39.86838893042387 M104.48538155849351 39.86838893042387 C103.58478047295117 40.68629100771448, 102.6841793874088 41.504193085005085, 101.8516759395823 42.26025068948693 M104.48538155849351 39.86838893042387 C103.68850239749354 40.59209350017683, 102.89162323649356 41.31579806992979, 101.8516759395823 42.26025068948693 M101.8516759395823 42.26025068948693 C101.03752579380297 42.909513765300666, 100.22337564802366 43.5587768411144, 99.0701344422625 44.47845601367158 M101.8516759395823 42.26025068948693 C101.02692094092271 42.9179708532657, 100.20216594226311 43.57569101704447, 99.0701344422625 44.47845601367158 M99.0701344422625 44.47845601367158 C97.95952209707234 45.2531711080427, 96.84890975188216 46.02788620241381, 96.15218701718548 46.51388982149714 M99.0701344422625 44.47845601367158 C98.36356527935682 44.9713280748285, 97.65699611645113 45.46420013598542, 96.15218701718548 46.51388982149714 M96.15218701718548 46.51388982149714 C95.15755139926254 47.11684377820971, 94.16291578133962 47.71979773492229, 93.10982413621855 48.358188078848116 M96.15218701718548 46.51388982149714 C95.05100541645109 47.181432579123715, 93.9498238157167 47.84897533675029, 93.10982413621855 48.358188078848116 M93.10982413621855 48.358188078848116 C92.08135760814618 48.894738407779215, 91.05289108007382 49.431288736710314, 89.95554752102449 50.003772168584256 M93.10982413621855 48.358188078848116 C91.91454779335808 48.981762981307384, 90.71927145049762 49.60533788376665, 89.95554752102449 50.003772168584256 M89.95554752102449 50.003772168584256 C89.10370353034139 50.38085823420549, 88.25185953965831 50.75794429982672, 86.70231877080529 51.4438800327042 M89.95554752102449 50.003772168584256 C89.05488759943884 50.40246759874291, 88.1542276778532 50.80116302890156, 86.70231877080529 51.4438800327042 M86.70231877080529 51.4438800327042 C85.54558465036797 51.86956888175813, 84.38885052993065 52.295257730812054, 83.36350610031099 52.6725939590921 M86.70231877080529 51.4438800327042 C85.90517341001019 51.73723689420773, 85.10802804921508 52.03059375571127, 83.36350610031099 52.6725939590921 M83.36350610031099 52.6725939590921 C82.31459136118609 52.983906347798545, 81.2656766220612 53.295218736505, 79.95282940697771 53.68486489866612 M83.36350610031099 52.6725939590921 C82.39157760359474 52.961057235160695, 81.4196491068785 53.24952051122929, 79.95282940697771 53.68486489866612 M79.95282940697771 53.68486489866612 C78.99869887297521 53.902638966768585, 78.04456833897271 54.12041303487104, 76.48430389292618 54.476533213004124 M79.95282940697771 53.68486489866612 C78.61002080751808 53.99135219884776, 77.26721220805844 54.2978394990294, 76.48430389292618 54.476533213004124 M76.48430389292618 54.476533213004124 C75.53383466754805 54.630197706364335, 74.58336544216992 54.78386219972454, 72.97218247349011 55.04434576719016 M76.48430389292618 54.476533213004124 C75.12300664308509 54.69661719534059, 73.761709393244 54.916701177677055, 72.97218247349011 55.04434576719016 M72.97218247349011 55.04434576719016 C71.82289527171028 55.15521612132577, 70.67360806993045 55.266086475461385, 69.43089720892957 55.38596929764367 M72.97218247349011 55.04434576719016 C71.99022850241488 55.139073685807354, 71.00827453133964 55.23380160442455, 69.43089720892957 55.38596929764367 M69.43089720892957 55.38596929764367 C68.42815325761796 55.41812534443953, 67.42540930630635 55.4502813912354, 65.87500000000001 55.5 M69.43089720892957 55.38596929764367 C68.03123643540557 55.43085369437616, 66.63157566188157 55.475738091108646, 65.87500000000001 55.5 M65.87500000000001 55.5 C65.87500000000001 55.5, 65.875 55.5, 65.875 55.5 M65.87500000000001 55.5 C65.87500000000001 55.5, 65.87500000000001 55.5, 65.875 55.5 M65.875 55.5 C27.295625421586344 55.5, -11.283749156827312 55.5, -65.87499999999999 55.5 M65.875 55.5 C25.978807865919705 55.5, -13.917384268160589 55.5, -65.87499999999999 55.5 M-65.87499999999999 55.5 C-66.9491337443189 55.46555462149419, -68.0232674886378 55.431109242988384, -69.43089720892954 55.38596929764367 M-65.87499999999999 55.5 C-66.94912279331513 55.46555497267157, -68.02324558663027 55.43110994534314, -69.43089720892954 55.38596929764367 M-69.43089720892954 55.38596929764367 C-70.81147874081398 55.25278625765499, -72.19206027269844 55.11960321766632, -72.9721824734901 55.04434576719016 M-69.43089720892954 55.38596929764367 C-70.80089970471664 55.25380680454415, -72.17090220050376 55.12164431144463, -72.9721824734901 55.04434576719016 M-72.9721824734901 55.04434576719016 C-73.97247456283506 54.88262629956587, -74.97276665218001 54.72090683194159, -76.48430389292616 54.476533213004124 M-72.9721824734901 55.04434576719016 C-73.75638907766299 54.91756132504053, -74.5405956818359 54.790776882890896, -76.48430389292616 54.476533213004124 M-76.48430389292616 54.476533213004124 C-77.70991165132071 54.19679623998863, -78.93551940971525 53.91705926697313, -79.95282940697764 53.684864898666135 M-76.48430389292616 54.476533213004124 C-77.520449019362 54.240039849373986, -78.55659414579785 54.00354648574385, -79.95282940697764 53.684864898666135 M-79.95282940697764 53.684864898666135 C-81.07931474404072 53.350529963668016, -82.20580008110379 53.01619502866989, -83.36350610031091 52.67259395909212 M-79.95282940697764 53.684864898666135 C-80.70392409693517 53.46194393726322, -81.4550187868927 53.23902297586031, -83.36350610031091 52.67259395909212 M-83.36350610031091 52.67259395909212 C-84.35733246669552 52.306856669432364, -85.35115883308013 51.9411193797726, -86.70231877080526 51.44388003270421 M-83.36350610031091 52.67259395909212 C-84.5825271955441 52.22398292753883, -85.80154829077729 51.77537189598554, -86.70231877080526 51.44388003270421 M-86.70231877080526 51.44388003270421 C-87.70680435824801 50.99922406014957, -88.71128994569075 50.55456808759493, -89.95554752102447 50.00377216858427 M-86.70231877080526 51.44388003270421 C-87.37188887913983 51.14748120783606, -88.04145898747441 50.8510823829679, -89.95554752102447 50.00377216858427 M-89.95554752102447 50.00377216858427 C-91.07898749715628 49.41767425263395, -92.20242747328807 48.83157633668364, -93.10982413621852 48.35818807884812 M-89.95554752102447 50.00377216858427 C-90.59612428272875 49.669583682312144, -91.23670104443303 49.33539519604002, -93.10982413621852 48.35818807884812 M-93.10982413621852 48.35818807884812 C-93.82091344338544 47.927121562018925, -94.53200275055235 47.496055045189735, -96.15218701718541 46.51388982149718 M-93.10982413621852 48.35818807884812 C-93.85276046976152 47.90781570747584, -94.59569680330452 47.457443336103566, -96.15218701718541 46.51388982149718 M-96.15218701718541 46.51388982149718 C-97.0012129933324 45.921646054279186, -97.85023896947939 45.329402287061185, -99.07013444226249 44.4784560136716 M-96.15218701718541 46.51388982149718 C-97.1942493822313 45.7869922257939, -98.2363117472772 45.060094630090624, -99.07013444226249 44.4784560136716 M-99.07013444226249 44.4784560136716 C-99.72288484212763 43.9579049401968, -100.37563524199275 43.437353866722006, -101.85167593958224 42.26025068948697 M-99.07013444226249 44.4784560136716 C-99.93309511605626 43.790267840669024, -100.79605578985004 43.10207966766645, -101.85167593958224 42.26025068948697 M-101.85167593958224 42.26025068948697 C-102.55522972526146 41.621301756346206, -103.25878351094067 40.98235282320544, -104.48538155849347 39.868388930423905 M-101.85167593958224 42.26025068948697 C-102.47747628808949 41.69191537074257, -103.10327663659675 41.12358005199817, -104.48538155849347 39.868388930423905 M-104.48538155849347 39.868388930423905 C-105.28965818468092 39.03790728154633, -106.09393481086835 38.20742563266875, -106.96042883768001 37.31269940950308 M-104.48538155849347 39.868388930423905 C-105.08739227083674 39.246763443930796, -105.68940298318002 38.62513795743769, -106.96042883768001 37.31269940950308 M-106.96042883768001 37.31269940950308 C-107.78218221363672 36.347421135012624, -108.60393558959342 35.38214286052216, -109.26664727697565 34.60368400315972 M-106.96042883768001 37.31269940950308 C-107.52784917918758 36.6461751892362, -108.09526952069515 35.979650968969324, -109.26664727697565 34.60368400315972 M-109.26664727697565 34.60368400315972 C-109.92020666295578 33.727973966431264, -110.57376604893592 32.85226392970281, -111.39456013013104 31.752474636780434 M-109.26664727697565 34.60368400315972 C-109.84396175553672 33.83013519631884, -110.4212762340978 33.056586389477964, -111.39456013013104 31.752474636780434 M-111.39456013013104 31.752474636780434 C-112.05828445479284 30.732815839163493, -112.72200877945464 29.713157041546552, -113.33542334679669 28.77078754123417 M-111.39456013013104 31.752474636780434 C-111.99670185288899 30.827423252931847, -112.59884357564694 29.90237186908326, -113.33542334679669 28.77078754123417 M-113.33542334679669 28.77078754123417 C-113.95818575789765 27.66500981879214, -114.5809481689986 26.559232096350108, -115.0812615037015 25.670875108366364 M-113.33542334679669 28.77078754123417 C-113.69576025723316 28.130972868685397, -114.05609716766963 27.491158196136627, -115.0812615037015 25.670875108366364 M-115.0812615037015 25.670875108366364 C-115.49228337796632 24.817379391996198, -115.90330525223115 23.96388367562603, -116.62490057737759 22.465475543292875 M-115.0812615037015 25.670875108366364 C-115.48011712185085 24.842642883136133, -115.87897274000022 24.014410657905902, -116.62490057737759 22.465475543292875 M-116.62490057737759 22.465475543292875 C-117.09254197671905 21.310392245688075, -117.56018337606051 20.155308948083277, -117.95999742376169 19.167760520382608 M-116.62490057737759 22.465475543292875 C-116.9381067703558 21.691850191206896, -117.25131296333402 20.91822483912092, -117.95999742376169 19.167760520382608 M-117.95999742376169 19.167760520382608 C-118.2149889706438 18.399766608559386, -118.46998051752591 17.631772696736167, -119.08106584353466 15.791281058022301 M-117.95999742376169 19.167760520382608 C-118.18540800876568 18.488859752650054, -118.41081859376966 17.8099589849175, -119.08106584353466 15.791281058022301 M-119.08106584353466 15.791281058022301 C-119.34881233501774 14.770247643933846, -119.61655882650084 13.74921422984539, -119.9834991260912 12.349911834575463 M-119.08106584353466 15.791281058022301 C-119.41522574801553 14.516984516418002, -119.74938565249641 13.242687974813704, -119.9834991260912 12.349911834575463 M-119.9834991260912 12.349911834575463 C-120.24971267231227 10.982961538983199, -120.51592621853334 9.616011243390933, -120.66358897950198 8.857794174352573 M-119.9834991260912 12.349911834575463 C-120.18342812137894 11.323318698781044, -120.38335711666669 10.296725562986625, -120.66358897950198 8.857794174352573 M-120.66358897950198 8.857794174352573 C-120.82049672105164 7.640848715831666, -120.97740446260129 6.423903257310758, -121.1185407686805 5.3292779378763795 M-120.66358897950198 8.857794174352573 C-120.8238177498939 7.615091471942361, -120.98404652028583 6.372388769532149, -121.1185407686805 5.3292779378763795 M-121.1185407686805 5.3292779378763795 C-121.2005355575415 4.052142916363892, -121.28253034640251 2.7750078948514054, -121.34648499913817 1.7788625552268686 M-121.1185407686805 5.3292779378763795 C-121.18871496555647 4.236258177940907, -121.25888916243244 3.1432384180054345, -121.34648499913817 1.7788625552268686 M-121.34648499913817 1.7788625552268686 C-121.34648499913817 0.9764726910000869, -121.34648499913817 0.17408282677330522, -121.34648499913817 -1.7788625552268416 M-121.34648499913817 1.7788625552268686 C-121.34648499913817 0.5868867379465328, -121.34648499913817 -0.6050890793338031, -121.34648499913817 -1.7788625552268416 M-121.34648499913817 -1.7788625552268416 C-121.2891538986262 -2.671840722532189, -121.23182279811424 -3.564818889837537, -121.1185407686805 -5.329277937876303 M-121.34648499913817 -1.7788625552268416 C-121.28485047026277 -2.7388700929575847, -121.22321594138735 -3.6988776306883278, -121.1185407686805 -5.329277937876303 M-121.1185407686805 -5.329277937876303 C-120.98695502577816 -6.349830975282898, -120.85536928287581 -7.370384012689493, -120.66358897950198 -8.857794174352547 M-121.1185407686805 -5.329277937876303 C-121.0250406643362 -6.054446283486712, -120.9315405599919 -6.7796146290971215, -120.66358897950198 -8.857794174352547 M-120.66358897950198 -8.857794174352547 C-120.40711239661485 -10.17474722113295, -120.15063581372772 -11.491700267913354, -119.9834991260912 -12.349911834575437 M-120.66358897950198 -8.857794174352547 C-120.51278949925681 -9.632117633930068, -120.36199001901163 -10.40644109350759, -119.9834991260912 -12.349911834575437 M-119.9834991260912 -12.349911834575437 C-119.62906805313622 -13.701511127151514, -119.27463698018124 -15.053110419727592, -119.08106584353467 -15.791281058022273 M-119.9834991260912 -12.349911834575437 C-119.6775823047814 -13.516505259418794, -119.37166548347159 -14.683098684262152, -119.08106584353467 -15.791281058022273 M-119.08106584353467 -15.791281058022273 C-118.79571870082125 -16.650701187982, -118.51037155810785 -17.51012131794173, -117.95999742376172 -19.167760520382537 M-119.08106584353467 -15.791281058022273 C-118.85062532590449 -16.48533118141402, -118.62018480827429 -17.179381304805766, -117.95999742376172 -19.167760520382537 M-117.95999742376172 -19.167760520382537 C-117.59121847528948 -20.078651652964886, -117.22243952681724 -20.98954278554724, -116.62490057737759 -22.46547554329285 M-117.95999742376172 -19.167760520382537 C-117.63919635650814 -19.960145358765597, -117.31839528925454 -20.75253019714866, -116.62490057737759 -22.46547554329285 M-116.62490057737759 -22.46547554329285 C-116.2869832989537 -23.167168002211547, -115.94906602052981 -23.868860461130243, -115.08126150370151 -25.67087510836634 M-116.62490057737759 -22.46547554329285 C-116.06058342141246 -23.63729219210728, -115.49626626544735 -24.809108840921713, -115.08126150370151 -25.67087510836634 M-115.08126150370151 -25.67087510836634 C-114.62420584981695 -26.482423703741993, -114.16715019593236 -27.293972299117648, -113.33542334679672 -28.770787541234153 M-115.08126150370151 -25.67087510836634 C-114.7219428942377 -26.308881684423994, -114.36262428477389 -26.94688826048165, -113.33542334679672 -28.770787541234153 M-113.33542334679672 -28.770787541234153 C-112.58028850040608 -29.930877447388575, -111.82515365401547 -31.090967353542997, -111.39456013013105 -31.752474636780416 M-113.33542334679672 -28.770787541234153 C-112.92337368346699 -29.403806474935777, -112.51132402013728 -30.0368254086374, -111.39456013013105 -31.752474636780416 M-111.39456013013105 -31.752474636780416 C-110.93062908694216 -32.37409996966602, -110.46669804375328 -32.99572530255163, -109.26664727697568 -34.6036840031597 M-111.39456013013105 -31.752474636780416 C-110.92767831377331 -32.37805373689131, -110.46079649741559 -33.0036328370022, -109.26664727697568 -34.6036840031597 M-109.26664727697568 -34.6036840031597 C-108.79766303087283 -35.15457958459169, -108.32867878476999 -35.70547516602367, -106.96042883768004 -37.31269940950306 M-109.26664727697568 -34.6036840031597 C-108.58886973049812 -35.39984007588717, -107.91109218402057 -36.19599614861464, -106.96042883768004 -37.31269940950306 M-106.96042883768004 -37.31269940950306 C-106.35347247573307 -37.939431685257375, -105.74651611378609 -38.56616396101169, -104.48538155849351 -39.86838893042385 M-106.96042883768004 -37.31269940950306 C-106.28588988712823 -38.00921625662558, -105.61135093657643 -38.70573310374809, -104.48538155849351 -39.86838893042385 M-104.48538155849351 -39.86838893042385 C-103.57034942513489 -40.69939690351659, -102.65531729177627 -41.53040487660934, -101.8516759395823 -42.260250689486924 M-104.48538155849351 -39.86838893042385 C-103.93863433871343 -40.364930289289404, -103.39188711893335 -40.86147164815497, -101.8516759395823 -42.260250689486924 M-101.8516759395823 -42.260250689486924 C-100.88229753095163 -43.03330417412705, -99.91291912232097 -43.80635765876719, -99.07013444226251 -44.47845601367158 M-101.8516759395823 -42.260250689486924 C-100.89987378395523 -43.019287580080416, -99.94807162832818 -43.77832447067391, -99.07013444226251 -44.47845601367158 M-99.07013444226251 -44.47845601367158 C-97.994132948845 -45.22902807612571, -96.91813145542751 -45.97960013857983, -96.15218701718548 -46.51388982149714 M-99.07013444226251 -44.47845601367158 C-98.44378656655823 -44.915369177600354, -97.81743869085395 -45.35228234152912, -96.15218701718548 -46.51388982149714 M-96.15218701718548 -46.51388982149714 C-95.5048428211891 -46.90631367732691, -94.85749862519272 -47.29873753315667, -93.10982413621855 -48.35818807884811 M-96.15218701718548 -46.51388982149714 C-94.9934404904405 -47.216328775560385, -93.83469396369551 -47.91876772962363, -93.10982413621855 -48.35818807884811 M-93.10982413621855 -48.35818807884811 C-91.85439077016258 -49.013146861776065, -90.59895740410661 -49.66810564470401, -89.9555475210245 -50.003772168584256 M-93.10982413621855 -48.35818807884811 C-91.97502822809975 -48.95021037724222, -90.84023231998094 -49.542232675636335, -89.9555475210245 -50.003772168584256 M-89.9555475210245 -50.003772168584256 C-88.78959257157335 -50.519905837881566, -87.62363762212222 -51.036039507178884, -86.70231877080529 -51.44388003270419 M-89.9555475210245 -50.003772168584256 C-88.85466371096238 -50.491100774740815, -87.75377990090028 -50.97842938089737, -86.70231877080529 -51.44388003270419 M-86.70231877080529 -51.44388003270419 C-85.96659459355078 -51.7146333308936, -85.23087041629626 -51.985386629083, -83.36350610031099 -52.6725939590921 M-86.70231877080529 -51.44388003270419 C-85.79429165370217 -51.7780424055088, -84.88626453659907 -52.112204778313405, -83.36350610031099 -52.6725939590921 M-83.36350610031099 -52.6725939590921 C-82.34084964532354 -52.9761130268991, -81.31819319033609 -53.279632094706095, -79.95282940697771 -53.68486489866611 M-83.36350610031099 -52.6725939590921 C-82.08096373495611 -53.053245800927165, -80.79842136960124 -53.43389764276224, -79.95282940697771 -53.68486489866611 M-79.95282940697771 -53.68486489866611 C-79.08210973114126 -53.88360098269889, -78.21139005530482 -54.08233706673167, -76.48430389292619 -54.47653321300412 M-79.95282940697771 -53.68486489866611 C-78.76021756996234 -53.957070767945325, -77.56760573294696 -54.22927663722454, -76.48430389292619 -54.47653321300412 M-76.48430389292619 -54.47653321300412 C-75.74413458578891 -54.59619804648337, -75.00396527865162 -54.71586287996262, -72.97218247349012 -55.04434576719016 M-76.48430389292619 -54.47653321300412 C-75.38316362817972 -54.65455703153804, -74.28202336343324 -54.83258085007196, -72.97218247349012 -55.04434576719016 M-72.97218247349012 -55.04434576719016 C-72.10909718278515 -55.12760656717254, -71.24601189208018 -55.21086736715492, -69.43089720892957 -55.38596929764367 M-72.97218247349012 -55.04434576719016 C-71.65298296459159 -55.17160735724407, -70.33378345569305 -55.298868947297976, -69.43089720892957 -55.38596929764367 M-69.43089720892957 -55.38596929764367 C-68.49944594493185 -55.41583912672017, -67.56799468093412 -55.44570895579668, -65.87500000000001 -55.5 M-69.43089720892957 -55.38596929764367 C-68.33322593761633 -55.42116947882717, -67.2355546663031 -55.456369660010665, -65.87500000000001 -55.5 M-65.87500000000001 -55.5 C-65.87500000000001 -55.5, -65.875 -55.5, -65.875 -55.5 M-65.87500000000001 -55.5 C-65.87500000000001 -55.5, -65.87500000000001 -55.5, -65.875 -55.5" stroke="#9370DB" stroke-width="1.3" fill="none" stroke-dasharray="0 0" style=""/></g><g class="label" style="" transform="translate(-100, -48)"><rect/><foreignObject width="200" height="96"><div xmlns="http://www.w3.org/1999/xhtml" style="display: table; white-space: break-spaces; line-height: 1.5; max-width: 200px; text-align: center; width: 200px;"><span class="nodeLabel"><p>Section 221: Intentional omission to apprehend on the part of a public servan...</p></span></div></foreignObject></g></g><g class="node default" id="my-svg-flowchart-GRP2-1" data-look="classic" transform="translate(138, 188.5)"><polygon points="9.75,0 174.359375,0 184.109375,-19.5 174.359375,-39 9.75,-39 0,-19.5" class="label-container" transform="translate(-92.0546875,19.5)"/><g class="label" style="" transform="translate(-74.8046875, -12)"><rect/><foreignObject width="149.609375" height="24"><div xmlns="http://www.w3.org/1999/xhtml" style="display: table-cell; white-space: nowrap; line-height: 1.5; max-width: 200px; text-align: center;"><span class="nodeLabel"><p>ALL OF (conjunctive)</p></span></div></foreignObject></g></g><g class="node default" id="my-svg-flowchart-ELEM3-4" data-look="classic" transform="translate(138, 297)"><rect class="basic label-container" style="" x="-130" y="-39" width="260" height="78"/><g class="label" style="" transform="translate(-100, -24)"><rect/><foreignObject width="200" height="48"><div xmlns="http://www.w3.org/1999/xhtml" style="display: table; white-space: break-spaces; line-height: 1.5; max-width: 200px; text-align: center; width: 200px;"><span class="nodeLabel"><p>Whoever, being a public servant</p></span></div></foreignObject></g></g><g class="node default" id="my-svg-flowchart-ELEM4-7" data-look="classic" transform="translate(138, 449)"><rect class="basic label-container" style="" x="-130" y="-63" width="260" height="126"/><g class="label" style="" transform="translate(-100, -48)"><rect/><foreignObject width="200" height="96"><div xmlns="http://www.w3.org/1999/xhtml" style="display: table; white-space: break-spaces; line-height: 1.5; max-width: 200px; text-align: center; width: 200px;"><span class="nodeLabel"><p>Legally bound as such public servant to apprehend or to keep in confinement a...</p></span></div></foreignObject></g></g><g class="node default" id="my-svg-flowchart-GRP5-10" data-look="classic" transform="translate(138, 581.5)"><polygon points="9.75,0 209.140625,0 218.890625,-19.5 209.140625,-39 9.75,-39 0,-19.5" class="label-container" transform="translate(-109.4453125,19.5)"/><g class="label" style="" transform="translate(-92.1953125, -12)"><rect/><foreignObject width="184.390625" height="24"><div xmlns="http://www.w3.org/1999/xhtml" style="display: table-cell; white-space: nowrap; line-height: 1.5; max-width: 200px; text-align: center;"><span class="nodeLabel"><p>ANY OF (alternative limb)</p></span></div></foreignObject></g></g><g class="node default" id="my-svg-flowchart-ELEM6-13" data-look="classic" transform="translate(138, 690)"><rect class="basic label-container" style="" x="-130" y="-39" width="260" height="78"/><g class="label" style="" transform="translate(-100, -24)"><rect/><foreignObject width="200" height="48"><div xmlns="http://www.w3.org/1999/xhtml" style="display: table; white-space: break-spaces; line-height: 1.5; max-width: 200px; text-align: center; width: 200px;"><span class="nodeLabel"><p>Omits to apprehend such person</p></span></div></foreignObject></g></g><g class="node default" id="my-svg-flowchart-ELEM7-16" data-look="classic" transform="translate(138, 818)"><rect class="basic label-container" style="" x="-130" y="-39" width="260" height="78"/><g class="label" style="" transform="translate(-100, -24)"><rect/><foreignObject width="200" height="48"><div xmlns="http://www.w3.org/1999/xhtml" style="display: table; white-space: break-spaces; line-height: 1.5; max-width: 200px; text-align: center; width: 200px;"><span class="nodeLabel"><p>Suffers such person to escape</p></span></div></foreignObject></g></g><g class="node default" id="my-svg-flowchart-ELEM8-19" data-look="classic" transform="translate(138, 970)"><rect class="basic label-container" style="" x="-130" y="-63" width="260" height="126"/><g class="label" style="" transform="translate(-100, -48)"><rect/><foreignObject width="200" height="96"><div xmlns="http://www.w3.org/1999/xhtml" style="display: table; white-space: break-spaces; line-height: 1.5; max-width: 200px; text-align: center; width: 200px;"><span class="nodeLabel"><p>Aids such person in escaping or attempting to escape from such confinement</p></span></div></foreignObject></g></g><g class="node default" id="my-svg-flowchart-ELEM9-22" data-look="classic" transform="translate(138, 1110)"><rect class="basic label-container" style="" x="-75.4921875" y="-27" width="150.984375" height="54"/><g class="label" style="" transform="translate(-45.4921875, -12)"><rect/><foreignObject width="90.984375" height="24"><div xmlns="http://www.w3.org/1999/xhtml" style="display: table-cell; white-space: nowrap; line-height: 1.5; max-width: 200px; text-align: center;"><span class="nodeLabel"><p>Intentionally</p></span></div></foreignObject></g></g><g class="node default" id="my-svg-flowchart-GRP10-25" data-look="classic" transform="translate(138, 1206.5)"><polygon points="9.75,0 209.140625,0 218.890625,-19.5 209.140625,-39 9.75,-39 0,-19.5" class="label-container" transform="translate(-109.4453125,19.5)"/><g class="label" style="" transform="translate(-92.1953125, -12)"><rect/><foreignObject width="184.390625" height="24"><div xmlns="http://www.w3.org/1999/xhtml" style="display: table-cell; white-space: nowrap; line-height: 1.5; max-width: 200px; text-align: center;"><span class="nodeLabel"><p>ANY OF (alternative limb)</p></span></div></foreignObject></g></g><g class="node default" id="my-svg-flowchart-ELEM11-28" data-look="classic" transform="translate(138, 1351)"><rect class="basic label-container" style="" x="-130" y="-75" width="260" height="150"/><g class="label" style="" transform="translate(-100, -60)"><rect/><foreignObject width="200" height="120"><div xmlns="http://www.w3.org/1999/xhtml" style="display: table; white-space: break-spaces; line-height: 1.5; max-width: 200px; text-align: center; width: 200px;"><span class="nodeLabel"><p>The person in confinement, or who ought to have been apprehended, was charged...</p></span></div></foreignObject></g></g><g class="node default" id="my-svg-flowchart-ELEM12-31" data-look="classic" transform="translate(138, 1551)"><rect class="basic label-container" style="" x="-130" y="-75" width="260" height="150"/><g class="label" style="" transform="translate(-100, -60)"><rect/><foreignObject width="200" height="120"><div xmlns="http://www.w3.org/1999/xhtml" style="display: table; white-space: break-spaces; line-height: 1.5; max-width: 200px; text-align: center; width: 200px;"><span class="nodeLabel"><p>The person in confinement, or who ought to have been apprehended, was charged...</p></span></div></foreignObject></g></g><g class="node default" id="my-svg-flowchart-ELEM13-34" data-look="classic" transform="translate(138, 1751)"><rect class="basic label-container" style="" x="-130" y="-75" width="260" height="150"/><g class="label" style="" transform="translate(-100, -60)"><rect/><foreignObject width="200" height="120"><div xmlns="http://www.w3.org/1999/xhtml" style="display: table; white-space: break-spaces; line-height: 1.5; max-width: 200px; text-align: center; width: 200px;"><span class="nodeLabel"><p>The person in confinement, or who ought to have been apprehended, was charged...</p></span></div></foreignObject></g></g><g class="node default" id="my-svg-flowchart-PENALTY14-37" data-look="classic" transform="translate(138, 1895.5)"><polygon points="0,0 211.3125,0 211.3125,-39 0,-39 0,0 -8,0 219.3125,0 219.3125,-39 -8,-39 -8,0" class="label-container" transform="translate(-105.65625,19.5)"/><g class="label" style="" transform="translate(-98.15625, -12)"><rect/><foreignObject width="196.3125" height="24"><div xmlns="http://www.w3.org/1999/xhtml" style="display: table-cell; white-space: nowrap; line-height: 1.5; max-width: 200px; text-align: center;"><span class="nodeLabel"><p>Imprisonment up to 5 years</p></span></div></foreignObject></g></g></g></g></g><defs><filter id="my-svg-drop-shadow" height="130%" width="130%"><feDropShadow dx="4" dy="4" stdDeviation="0" flood-opacity="0.06" flood-color="#000000"/></filter></defs><defs><filter id="my-svg-drop-shadow-small" height="150%" width="150%"><feDropShadow dx="2" dy="2" stdDeviation="0" flood-opacity="0.06" flood-color="#000000"/></filter></defs></svg>