<svg class="yuho-mermaid-svg" id="my-svg" width="100%" xmlns="http://www.w3.org/2000/svg" xmlns:xlink="http://www.w3.org/1999/xlink" class="flowchart" style="max-width: 246.718px; background-color: transparent;" viewBox="0 0 246.71763610839844 79" role="graphics-document document" aria-roledescription="flowchart-v2"><style>#my-svg{font-family:"trebuchet ms",verdana,arial,sans-serif;font-size:16px;fill:#333;}@keyframes edge-animation-frame{from{stroke-dashoffset:0;}}@keyframes dash{to{stroke-dashoffset:0;}}#my-svg .edge-animation-slow{stroke-dasharray:9,5!important;stroke-dashoffset:900;animation:dash 50s linear infinite;stroke-linecap:round;}#my-svg .edge-animation-fast{stroke-dasharray:9,5!important;stroke-dashoffset:900;animation:dash 20s linear infinite;stroke-linecap:round;}#my-svg .error-icon{fill:#552222;}#my-svg .error-text{fill:#552222;stroke:#552222;}#my-svg .edge-thickness-normal{stroke-width:1px;}#my-svg .edge-thickness-thick{stroke-width:3.5px;}#my-svg .edge-pattern-solid{stroke-dasharray:0;}#my-svg .edge-thickness-invisible{stroke-width:0;fill:none;}#my-svg .edge-pattern-dashed{stroke-dasharray:3;}#my-svg .edge-pattern-dotted{stroke-dasharray:2;}#my-svg .marker{fill:#333333;stroke:#333333;}#my-svg .marker.cross{stroke:#333333;}#my-svg svg{font-family:"trebuchet ms",verdana,arial,sans-serif;font-size:16px;}#my-svg p{margin:0;}#my-svg .label{font-family:"trebuchet ms",verdana,arial,sans-serif;color:#333;}#my-svg .cluster-label text{fill:#333;}#my-svg .cluster-label span{color:#333;}#my-svg .cluster-label span p{background-color:transparent;}#my-svg .label text,#my-svg span{fill:#333;color:#333;}#my-svg .node rect,#my-svg .node circle,#my-svg .node ellipse,#my-svg .node polygon,#my-svg .node path{fill:#ECECFF;stroke:#9370DB;stroke-width:1px;}#my-svg .rough-node .label text,#my-svg .node .label text,#my-svg .image-shape .label,#my-svg .icon-shape .label{text-anchor:middle;}#my-svg .node .katex path{fill:#000;stroke:#000;stroke-width:1px;}#my-svg .rough-node .label,#my-svg .node .label,#my-svg .image-shape .label,#my-svg .icon-shape .label{text-align:center;}#my-svg .node.clickable{cursor:pointer;}#my-svg .root .anchor path{fill:#333333!important;stroke-width:0;stroke:#333333;}#my-svg .arrowheadPath{fill:#333333;}#my-svg .edgePath .path{stroke:#333333;stroke-width:1px;}#my-svg .flowchart-link{stroke:#333333;fill:none;}#my-svg .edgeLabel{background-color:rgba(232,232,232, 0.8);text-align:center;}#my-svg .edgeLabel p{background-color:rgba(232,232,232, 0.8);}#my-svg .edgeLabel rect{opacity:0.5;background-color:rgba(232,232,232, 0.8);fill:rgba(232,232,232, 0.8);}#my-svg .labelBkg{background-color:rgba(232, 232, 232, 0.5);}#my-svg .cluster rect{fill:#ffffde;stroke:#aaaa33;stroke-width:1px;}#my-svg .cluster text{fill:#333;}#my-svg .cluster span{color:#333;}#my-svg div.mermaidTooltip{position:absolute;text-align:center;max-width:200px;padding:2px;font-family:"trebuchet ms",verdana,arial,sans-serif;font-size:12px;background:hsl(80, 100%, 96.2745098039%);border:1px solid #aaaa33;border-radius:2px;pointer-events:none;z-index:100;}#my-svg .flowchartTitleText{text-anchor:middle;font-size:18px;fill:#333;}#my-svg rect.text{fill:none;stroke-width:0;}#my-svg .icon-shape,#my-svg .image-shape{background-color:rgba(232,232,232, 0.8);text-align:center;}#my-svg .icon-shape p,#my-svg .image-shape p{background-color:rgba(232,232,232, 0.8);padding:2px;}#my-svg .icon-shape .label rect,#my-svg .image-shape .label rect{opacity:0.5;background-color:rgba(232,232,232, 0.8);fill:rgba(232,232,232, 0.8);}#my-svg .label-icon{display:inline-block;height:1em;overflow:visible;vertical-align:-0.125em;}#my-svg .node .label-icon path{fill:currentColor;stroke:revert;stroke-width:revert;}#my-svg .node .neo-node{stroke:#9370DB;}#my-svg [data-look="neo"].node rect,#my-svg [data-look="neo"].cluster rect,#my-svg [data-look="neo"].node polygon{stroke:#9370DB;filter:drop-shadow(1px 2px 2px rgba(185, 185, 185, 1));}#my-svg [data-look="neo"].node path{stroke:#9370DB;stroke-width:1px;}#my-svg [data-look="neo"].node .outer-path{filter:drop-shadow(1px 2px 2px rgba(185, 185, 185, 1));}#my-svg [data-look="neo"].node .neo-line path{stroke:#9370DB;filter:none;}#my-svg [data-look="neo"].node circle{stroke:#9370DB;filter:drop-shadow(1px 2px 2px rgba(185, 185, 185, 1));}#my-svg [data-look="neo"].node circle .state-start{fill:#000000;}#my-svg [data-look="neo"].icon-shape .icon{fill:#9370DB;filter:drop-shadow(1px 2px 2px rgba(185, 185, 185, 1));}#my-svg [data-look="neo"].icon-shape .icon-neo path{stroke:#9370DB;filter:drop-shadow(1px 2px 2px rgba(185, 185, 185, 1));}#my-svg :root{--mermaid-font-family:"trebuchet ms",verdana,arial,sans-serif;}</style><g><marker id="my-svg_flowchart-v2-pointEnd" class="marker flowchart-v2" viewBox="0 0 10 10" refX="5" refY="5" markerUnits="userSpaceOnUse" markerWidth="8" markerHeight="8" orient="auto"><path d="M 0 0 L 10 5 L 0 10 z" class="arrowMarkerPath" style="stroke-width: 1; stroke-dasharray: 1, 0;"/></marker><marker id="my-svg_flowchart-v2-pointStart" class="marker flowchart-v2" viewBox="0 0 10 10" refX="4.5" refY="5" markerUnits="userSpaceOnUse" markerWidth="8" markerHeight="8" orient="auto"><path d="M 0 5 L 10 10 L 10 0 z" class="arrowMarkerPath" style="stroke-width: 1; stroke-dasharray: 1, 0;"/></marker><marker id="my-svg_flowchart-v2-pointEnd-margin" class="marker flowchart-v2" viewBox="0 0 11.5 14" refX="11.5" refY="7" markerUnits="userSpaceOnUse" markerWidth="10.5" markerHeight="14" orient="auto"><path d="M 0 0 L 11.5 7 L 0 14 z" class="arrowMarkerPath" style="stroke-width: 0; stroke-dasharray: 1, 0;"/></marker><marker id="my-svg_flowchart-v2-pointStart-margin" class="marker flowchart-v2" viewBox="0 0 11.5 14" refX="1" refY="7" markerUnits="userSpaceOnUse" markerWidth="11.5" markerHeight="14" orient="auto"><polygon points="0,7 11.5,14 11.5,0" class="arrowMarkerPath" style="stroke-width: 0; stroke-dasharray: 1, 0;"/></marker><marker id="my-svg_flowchart-v2-circleEnd" class="marker flowchart-v2" viewBox="0 0 10 10" refX="11" refY="5" markerUnits="userSpaceOnUse" markerWidth="11" markerHeight="11" orient="auto"><circle cx="5" cy="5" r="5" class="arrowMarkerPath" style="stroke-width: 1; stroke-dasharray: 1, 0;"/></marker><marker id="my-svg_flowchart-v2-circleStart" class="marker flowchart-v2" viewBox="0 0 10 10" refX="-1" refY="5" markerUnits="userSpaceOnUse" markerWidth="11" markerHeight="11" orient="auto"><circle cx="5" cy="5" r="5" class="arrowMarkerPath" style="stroke-width: 1; stroke-dasharray: 1, 0;"/></marker><marker id="my-svg_flowchart-v2-circleEnd-margin" class="marker flowchart-v2" viewBox="0 0 10 10" refY="5" refX="12.25" markerUnits="userSpaceOnUse" markerWidth="14" markerHeight="14" orient="auto"><circle cx="5" cy="5" r="5" class="arrowMarkerPath" style="stroke-width: 0; stroke-dasharray: 1, 0;"/></marker><marker id="my-svg_flowchart-v2-circleStart-margin" class="marker flowchart-v2" viewBox="0 0 10 10" refX="-2" refY="5" markerUnits="userSpaceOnUse" markerWidth="14" markerHeight="14" orient="auto"><circle cx="5" cy="5" r="5" class="arrowMarkerPath" style="stroke-width: 0; stroke-dasharray: 1, 0;"/></marker><marker id="my-svg_flowchart-v2-crossEnd" class="marker cross flowchart-v2" viewBox="0 0 11 11" refX="12" refY="5.2" markerUnits="userSpaceOnUse" markerWidth="11" markerHeight="11" orient="auto"><path d="M 1,1 l 9,9 M 10,1 l -9,9" class="arrowMarkerPath" style="stroke-width: 2; stroke-dasharray: 1, 0;"/></marker><marker id="my-svg_flowchart-v2-crossStart" class="marker cross flowchart-v2" viewBox="0 0 11 11" refX="-1" refY="5.2" markerUnits="userSpaceOnUse" markerWidth="11" markerHeight="11" orient="auto"><path d="M 1,1 l 9,9 M 10,1 l -9,9" class="arrowMarkerPath" style="stroke-width: 2; stroke-dasharray: 1, 0;"/></marker><marker id="my-svg_flowchart-v2-crossEnd-margin" class="marker cross flowchart-v2" viewBox="0 0 15 15" refX="17.7" refY="7.5" markerUnits="userSpaceOnUse" markerWidth="12" markerHeight="12" orient="auto"><path d="M 1,1 L 14,14 M 1,14 L 14,1" class="arrowMarkerPath" style="stroke-width: 2.5;"/></marker><marker id="my-svg_flowchart-v2-crossStart-margin" class="marker cross flowchart-v2" viewBox="0 0 15 15" refX="-3.5" refY="7.5" markerUnits="userSpaceOnUse" markerWidth="12" markerHeight="12" orient="auto"><path d="M 1,1 L 14,14 M 1,14 L 14,1" class="arrowMarkerPath" style="stroke-width: 2.5; stroke-dasharray: 1, 0;"/></marker><g class="root"><g class="clusters"/><g class="edgePaths"/><g class="edgeLabels"/><g class="nodes"><g class="node default" id="my-svg-flowchart-START1-0" data-look="classic" transform="translate(123.35881805419922, 39.5)"><g class="basic label-container outer-path"><path d="M-83.875 -31.5 C-45.65228938241831 -31.5, -7.42957876483662 -31.5, 83.875 -31.5 C83.875 -31.5, 83.875 -31.5, 83.875 -31.5 C84.56367155830087 -31.47791564354316, 85.25234311660174 -31.455831287086323, 85.89321192939245 -31.435279871635593 C86.51796133524543 -31.375011047824046, 87.1427107410984 -31.3147422240125, 87.90313059306193 -31.241385435432253 C88.61232230157145 -31.126728819864272, 89.32151401008099 -31.012072204296295, 89.89649680409322 -30.91911344521856 C90.54275009937054 -30.77161034776838, 91.18900339464786 -30.624107250318204, 91.86511939314947 -30.469788185729428 C92.63655948829899 -30.240828814860745, 93.4079995834485 -30.011869443992065, 93.80090886774406 -29.895256030836062 C94.33605493590034 -29.698317330918524, 94.87120100405662 -29.50137863100099, 95.69591065370028 -29.197877856399685 C96.20219298183697 -28.97376168806523, 96.70847530997368 -28.749645519730777, 97.54233778220308 -28.380519338926202 C98.07832569301874 -28.10089478917031, 98.6143136038344 -27.82127023941442, 99.33260288812403 -27.44653917988677 C99.69638608880967 -27.226011665803746, 100.06016928949533 -27.005484151720722, 101.05934938813228 -26.399775304092984 C101.47021933921292 -26.113170212492648, 101.88108929029356 -25.826565120892308, 102.7154817104733 -25.244529088840633 C103.31735686056489 -24.764549673212986, 103.91923201065649 -24.284570257585337, 104.29419445219533 -23.985547688627737 C104.84458545574782 -23.485697141749313, 105.39497645930032 -22.98584659487089, 105.78900034400982 -22.62800452807842 C106.19068204497013 -22.213235193155928, 106.59236374593044 -21.798465858233435, 107.19375690787243 -21.177478043231485 C107.55990040937715 -20.74738505220859, 107.92604391088189 -20.317292061185693, 108.50269169774293 -19.63992875855011 C108.9368597232399 -19.058183157904992, 109.37102774873686 -18.476437557259874, 109.7104260198041 -18.02167479384835 C110.01662052487318 -17.551277809325086, 110.32281502994226 -17.080880824801817, 110.8119970346684 -16.329365901781543 C111.14568263697373 -15.736873325557207, 111.47936823927907 -15.144380749332871, 111.8028781507495 -14.56995614258631 C112.1115854864584 -13.92891875470795, 112.4202928221673 -13.28788136682959, 112.67899762499809 -12.750675308355413 C112.90400312473037 -12.194907373831304, 113.12900862446263 -11.639139439307193, 113.43675529456745 -10.878999214271206 C113.57510213366167 -10.462320577494783, 113.7134489727559 -10.045641940718358, 114.07303737065482 -8.962618978877531 C114.19736417153715 -8.488507003536826, 114.32169097241949 -8.014395028196123, 114.58522923372745 -7.009409419623907 C114.70684431184628 -6.384941696839543, 114.82845938996512 -5.760473974055179, 114.97122617755518 -5.027396693551458 C115.03300668790165 -4.548239255245882, 115.09478719824813 -4.069081816940306, 115.22944205789975 -3.024725316091981 C115.26607164885831 -2.454189870038655, 115.30270123981688 -1.8836544239853283, 115.35881581032167 -1.0096246935071378 C115.35881581032167 -0.2453506208681847, 115.35881581032167 0.5189234517707684, 115.35881581032167 1.00962469350713 C115.32576242143335 1.5244579056579723, 115.29270903254503 2.0392911178088147, 115.22944205789975 3.02472531609196 C115.1657342519289 3.518830478672653, 115.10202644595805 4.012935641253346, 114.97122617755518 5.027396693551435 C114.8682704513327 5.556052588003377, 114.76531472511024 6.084708482455318, 114.58522923372745 7.0094094196239 C114.4754793581521 7.427933261089649, 114.36572948257675 7.846457102555398, 114.07303737065482 8.96261897887751 C113.92425606443486 9.410724568130089, 113.7754747582149 9.858830157382666, 113.43675529456746 10.878999214271184 C113.15204316726302 11.582243673247653, 112.86733103995859 12.28548813222412, 112.67899762499809 12.750675308355405 C112.46485111181178 13.195355124988128, 112.25070459862548 13.64003494162085, 111.8028781507495 14.569956142586303 C111.48310644762707 15.137743181876344, 111.16333474450462 15.705530221166386, 110.81199703466841 16.329365901781536 C110.38966636818975 16.978179217155827, 109.96733570171111 17.626992532530117, 109.71042601980412 18.021674793848334 C109.23661620982195 18.656536774262765, 108.76280639983979 19.291398754677193, 108.50269169774295 19.639928758550102 C108.18303198937564 20.015419241151022, 107.86337228100834 20.390909723751946, 107.19375690787246 21.177478043231467 C106.71094129945165 21.676024798824603, 106.22812569103084 22.174571554417735, 105.78900034400982 22.628004528078414 C105.22770596259585 23.137757234243065, 104.66641158118188 23.647509940407716, 104.29419445219536 23.985547688627715 C103.70249644354901 24.457411104777893, 103.11079843490265 24.929274520928075, 102.71548171047331 25.24452908884063 C102.15579770199382 25.63494042482569, 101.59611369351431 26.025351760810754, 101.05934938813229 26.399775304092973 C100.57187459719634 26.6952853870782, 100.08439980626038 26.99079547006343, 99.33260288812404 27.446539179886766 C98.6301318754277 27.813017857256295, 97.92766086273134 28.17949653462582, 97.54233778220309 28.3805193389262 C96.90490789948237 28.662690639321017, 96.26747801676166 28.944861939715835, 95.6959106537003 29.197877856399682 C95.18855469005152 29.384589540969547, 94.68119872640274 29.57130122553941, 93.80090886774407 29.895256030836055 C93.36143374802101 30.025689939517882, 92.92195862829796 30.15612384819971, 91.86511939314951 30.46978818572942 C91.24253518270255 30.61188896902228, 90.6199509722556 30.753989752315142, 89.89649680409323 30.919113445218557 C89.17619489766459 31.03556627142523, 88.45589299123594 31.1520190976319, 87.90313059306196 31.24138543543225 C87.38880787592838 31.29100152939056, 86.87448515879478 31.34061762334887, 85.89321192939245 31.435279871635593 C85.25632895370882 31.45570346904826, 84.61944597802518 31.476127066460926, 83.875 31.5 C83.875 31.5, 83.875 31.5, 83.875 31.5 C17.6160618383407 31.5, -48.6428763233186 31.5, -83.875 31.5 C-84.28981202669763 31.486697785686435, -84.70462405339526 31.473395571372873, -85.89321192939244 31.435279871635593 C-86.66724346494446 31.360609980310006, -87.44127500049649 31.28594008898442, -87.90313059306195 31.24138543543225 C-88.49077121742842 31.146380256505783, -89.0784118417949 31.051375077579316, -89.89649680409323 30.919113445218557 C-90.54128617837104 30.77194447818354, -91.18607555264884 30.624775511148524, -91.86511939314947 30.469788185729428 C-92.4168634359867 30.30603344997892, -92.96860747882394 30.14227871422841, -93.80090886774403 29.89525603083607 C-94.25432852575562 29.72839340532243, -94.70774818376724 29.561530779808784, -95.69591065370028 29.197877856399685 C-96.35981991310335 28.903984921430393, -97.02372917250642 28.6100919864611, -97.54233778220308 28.380519338926206 C-97.99730865393907 28.143161326564293, -98.45227952567505 27.90580331420238, -99.33260288812403 27.446539179886773 C-99.98983689419931 27.048120063068204, -100.6470709002746 26.649700946249634, -101.05934938813226 26.399775304092994 C-101.46916343730098 26.113906763957164, -101.87897748646968 25.82803822382133, -102.7154817104733 25.244529088840636 C-103.14427548907804 24.902577461085023, -103.57306926768278 24.56062583332941, -104.29419445219533 23.98554768862774 C-104.7653951489767 23.55761568309816, -105.23659584575805 23.129683677568583, -105.7890003440098 22.628004528078435 C-106.33937031965756 22.05970234200678, -106.88974029530532 21.49140015593512, -107.19375690787244 21.177478043231478 C-107.63672577930726 20.65714160120131, -108.07969465074208 20.13680515917114, -108.50269169774293 19.639928758550113 C-108.83622791023376 19.19302061958646, -109.16976412272459 18.746112480622806, -109.7104260198041 18.021674793848355 C-110.01578943713494 17.552554583269337, -110.32115285446578 17.08343437269032, -110.8119970346684 16.329365901781557 C-111.08643760714519 15.842068875227588, -111.36087817962199 15.354771848673618, -111.8028781507495 14.569956142586314 C-112.1106097826348 13.9309448245744, -112.41834141452007 13.291933506562486, -112.67899762499809 12.750675308355417 C-112.95247248154632 12.075187125404618, -113.22594733809456 11.399698942453817, -113.43675529456745 10.878999214271209 C-113.6510518345259 10.233572179433205, -113.86534837448436 9.5881451445952, -114.07303737065482 8.962618978877522 C-114.24302453456883 8.314384249970503, -114.41301169848283 7.666149521063485, -114.58522923372743 7.009409419623911 C-114.71429799444566 6.346668612028049, -114.8433667551639 5.683927804432187, -114.97122617755518 5.027396693551461 C-115.0726026191496 4.241141031587809, -115.17397906074403 3.4548853696241566, -115.22944205789975 3.024725316091999 C-115.26974300533291 2.3970055294812314, -115.31004395276607 1.7692857428704638, -115.35881581032167 1.0096246935071416 C-115.35881581032167 0.5969717500138267, -115.35881581032167 0.1843188065205118, -115.35881581032167 -1.0096246935071262 C-115.31361202376797 -1.7137101569207762, -115.26840823721427 -2.4177956203344264, -115.22944205789975 -3.024725316091956 C-115.15906708717348 -3.5705396919350445, -115.08869211644722 -4.116354067778134, -114.97122617755518 -5.027396693551446 C-114.82314387628053 -5.787768013391352, -114.67506157500587 -6.548139333231258, -114.58522923372745 -7.009409419623896 C-114.47266333219164 -7.4386719885502375, -114.36009743065584 -7.867934557476579, -114.07303737065482 -8.962618978877506 C-113.8221960076802 -9.718113198013347, -113.5713546447056 -10.473607417149186, -113.43675529456746 -10.878999214271168 C-113.14374947954654 -11.602729242254904, -112.85074366452561 -12.326459270238642, -112.67899762499809 -12.750675308355401 C-112.32948904625012 -13.476437350411146, -111.97998046750216 -14.202199392466891, -111.8028781507495 -14.5699561425863 C-111.55008593873232 -15.018814313010028, -111.29729372671514 -15.467672483433756, -110.8119970346684 -16.329365901781546 C-110.43767361809998 -16.904427189542112, -110.06335020153155 -17.479488477302677, -109.71042601980412 -18.021674793848344 C-109.28093096341424 -18.597159041606215, -108.85143590702435 -19.172643289364085, -108.50269169774295 -19.639928758550102 C-107.99384929309853 -20.237644000998486, -107.48500688845411 -20.835359243446874, -107.19375690787246 -21.177478043231467 C-106.68146860024181 -21.70645778051236, -106.16918029261117 -22.235437517793248, -105.78900034400984 -22.628004528078403 C-105.32470028724927 -23.04966955492203, -104.8604002304887 -23.471334581765657, -104.29419445219536 -23.98554768862771 C-103.88544739688258 -24.31151258802369, -103.47670034156981 -24.63747748741967, -102.71548171047331 -25.244529088840626 C-102.12755352448575 -25.654642340384576, -101.5396253384982 -26.064755591928527, -101.0593493881323 -26.39977530409297 C-100.42698427421047 -26.78311875234229, -99.79461916028862 -27.16646220059161, -99.33260288812404 -27.446539179886763 C-98.90791445158536 -27.66809886520307, -98.48322601504668 -27.889658550519375, -97.54233778220309 -28.3805193389262 C-96.92076470402742 -28.655671302324315, -96.29919162585176 -28.93082326572243, -95.6959106537003 -29.19787785639968 C-95.28395697625828 -29.34948061775639, -94.87200329881625 -29.501083379113105, -93.80090886774407 -29.895256030836055 C-93.06343053002487 -30.114135730368325, -92.32595219230566 -30.333015429900595, -91.86511939314951 -30.469788185729417 C-91.12391966173892 -30.638962187643614, -90.38271993032835 -30.808136189557814, -89.89649680409325 -30.919113445218553 C-89.27026913493106 -31.02035707830059, -88.64404146576885 -31.12160071138263, -87.90313059306196 -31.24138543543225 C-87.4088109265637 -31.28907185915296, -86.91449126006543 -31.336758282873667, -85.89321192939246 -31.435279871635593 C-85.36351045254067 -31.452266366996852, -84.83380897568887 -31.469252862358115, -83.87500000000001 -31.5 C-83.87500000000001 -31.5, -83.875 -31.5, -83.875 -31.5" stroke="none" stroke-width="0" fill="#ECECFF" style=""/><path d="M-83.875 -31.5 C-49.54002110433135 -31.5, -15.205042208662704 -31.5, 83.875 -31.5 M-83.875 -31.5 C-39.76736118840077 -31.5, 4.34027762319846 -31.5, 83.875 -31.5 M83.875 -31.5 C83.875 -31.5, 83.875 -31.5, 83.875 -31.5 M83.875 -31.5 C83.875 -31.5, 83.875 -31.5, 83.875 -31.5 M83.875 -31.5 C84.47562267005773 -31.480739200012355, 85.07624534011548 -31.461478400024706, 85.89321192939245 -31.435279871635593 M83.875 -31.5 C84.32930135145945 -31.485431439902634, 84.78360270291888 -31.470862879805264, 85.89321192939245 -31.435279871635593 M85.89321192939245 -31.435279871635593 C86.47600525803054 -31.3790585001334, 87.05879858666863 -31.32283712863121, 87.90313059306193 -31.241385435432253 M85.89321192939245 -31.435279871635593 C86.62712521450162 -31.364480139680975, 87.36103849961079 -31.293680407726356, 87.90313059306193 -31.241385435432253 M87.90313059306193 -31.241385435432253 C88.4622213521938 -31.150995977309407, 89.02131211132566 -31.06060651918656, 89.89649680409322 -30.91911344521856 M87.90313059306193 -31.241385435432253 C88.33584916656444 -31.171426852251024, 88.76856774006696 -31.101468269069795, 89.89649680409322 -30.91911344521856 M89.89649680409322 -30.91911344521856 C90.4463246214338 -30.79361883387239, 90.99615243877439 -30.668124222526224, 91.86511939314947 -30.469788185729428 M89.89649680409322 -30.91911344521856 C90.54633526705102 -30.77079205664072, 91.19617373000881 -30.622470668062874, 91.86511939314947 -30.469788185729428 M91.86511939314947 -30.469788185729428 C92.39795177207425 -30.311646332558787, 92.93078415099902 -30.153504479388143, 93.80090886774406 -29.895256030836062 M91.86511939314947 -30.469788185729428 C92.36206311679213 -30.322297897063123, 92.85900684043477 -30.174807608396822, 93.80090886774406 -29.895256030836062 M93.80090886774406 -29.895256030836062 C94.2344084164201 -29.735724189697383, 94.66790796509612 -29.5761923485587, 95.69591065370028 -29.197877856399685 M93.80090886774406 -29.895256030836062 C94.302505446167 -29.710663853268475, 94.80410202458994 -29.526071675700887, 95.69591065370028 -29.197877856399685 M95.69591065370028 -29.197877856399685 C96.40654389562678 -28.88330160038496, 97.1171771375533 -28.56872534437024, 97.54233778220308 -28.380519338926202 M95.69591065370028 -29.197877856399685 C96.29980563300659 -28.930551462968864, 96.90370061231289 -28.66322506953804, 97.54233778220308 -28.380519338926202 M97.54233778220308 -28.380519338926202 C97.94257125879119 -28.171717790551963, 98.3428047353793 -27.96291624217772, 99.33260288812403 -27.44653917988677 M97.54233778220308 -28.380519338926202 C98.16764083248025 -28.05429913812232, 98.79294388275743 -27.728078937318436, 99.33260288812403 -27.44653917988677 M99.33260288812403 -27.44653917988677 C99.94359346826023 -27.076153099629007, 100.55458404839644 -26.705767019371244, 101.05934938813228 -26.399775304092984 M99.33260288812403 -27.44653917988677 C99.80568948966183 -27.15975130186909, 100.27877609119963 -26.87296342385141, 101.05934938813228 -26.399775304092984 M101.05934938813228 -26.399775304092984 C101.71739603547991 -25.94075044928352, 102.37544268282754 -25.481725594474057, 102.7154817104733 -25.244529088840633 M101.05934938813228 -26.399775304092984 C101.4551360853549 -26.12369163744047, 101.8509227825775 -25.847607970787955, 102.7154817104733 -25.244529088840633 M102.7154817104733 -25.244529088840633 C103.0643274402433 -24.966333902523786, 103.41317317001332 -24.688138716206943, 104.29419445219533 -23.985547688627737 M102.7154817104733 -25.244529088840633 C103.34586435556957 -24.741815704563052, 103.97624700066585 -24.239102320285475, 104.29419445219533 -23.985547688627737 M104.29419445219533 -23.985547688627737 C104.8880550119425 -23.446219240954743, 105.48191557168967 -22.90689079328175, 105.78900034400982 -22.62800452807842 M104.29419445219533 -23.985547688627737 C104.73574133445126 -23.584546492853214, 105.1772882167072 -23.183545297078687, 105.78900034400982 -22.62800452807842 M105.78900034400982 -22.62800452807842 C106.08014849348264 -22.327370160040108, 106.37129664295547 -22.026735792001794, 107.19375690787243 -21.177478043231485 M105.78900034400982 -22.62800452807842 C106.31700371646967 -22.08279769613054, 106.84500708892953 -21.53759086418266, 107.19375690787243 -21.177478043231485 M107.19375690787243 -21.177478043231485 C107.70651366019109 -20.57516478527223, 108.21927041250977 -19.972851527312972, 108.50269169774293 -19.63992875855011 M107.19375690787243 -21.177478043231485 C107.47861912997502 -20.842862668030154, 107.76348135207762 -20.508247292828827, 108.50269169774293 -19.63992875855011 M108.50269169774293 -19.63992875855011 C108.93300267187342 -19.063351255351467, 109.3633136460039 -18.48677375215282, 109.7104260198041 -18.02167479384835 M108.50269169774293 -19.63992875855011 C108.76127036192342 -19.29345690554917, 109.01984902610391 -18.94698505254823, 109.7104260198041 -18.02167479384835 M109.7104260198041 -18.02167479384835 C110.03904669468 -17.516825190232023, 110.3676673695559 -17.01197558661569, 110.8119970346684 -16.329365901781543 M109.7104260198041 -18.02167479384835 C109.95488425024112 -17.646121305670878, 110.19934248067814 -17.270567817493408, 110.8119970346684 -16.329365901781543 M110.8119970346684 -16.329365901781543 C111.07580879494152 -15.860941407579142, 111.33962055521464 -15.392516913376742, 111.8028781507495 -14.56995614258631 M110.8119970346684 -16.329365901781543 C111.17731487023599 -15.680707092289115, 111.54263270580358 -15.032048282796687, 111.8028781507495 -14.56995614258631 M111.8028781507495 -14.56995614258631 C112.03515420140643 -14.087629953485878, 112.26743025206336 -13.605303764385447, 112.67899762499809 -12.750675308355413 M111.8028781507495 -14.56995614258631 C112.10539079286929 -13.941782168490954, 112.40790343498907 -13.313608194395599, 112.67899762499809 -12.750675308355413 M112.67899762499809 -12.750675308355413 C112.90875311449268 -12.183174807283551, 113.13850860398729 -11.615674306211691, 113.43675529456745 -10.878999214271206 M112.67899762499809 -12.750675308355413 C112.93278156523688 -12.123824069386924, 113.18656550547566 -11.496972830418434, 113.43675529456745 -10.878999214271206 M113.43675529456745 -10.878999214271206 C113.63445150860548 -10.28356971620275, 113.83214772264353 -9.688140218134297, 114.07303737065482 -8.962618978877531 M113.43675529456745 -10.878999214271206 C113.65863467514673 -10.210733871644862, 113.88051405572601 -9.542468529018521, 114.07303737065482 -8.962618978877531 M114.07303737065482 -8.962618978877531 C114.26719153901013 -8.222224987989897, 114.46134570736542 -7.481830997102261, 114.58522923372745 -7.009409419623907 M114.07303737065482 -8.962618978877531 C114.18025647516279 -8.553746064334794, 114.28747557967075 -8.144873149792057, 114.58522923372745 -7.009409419623907 M114.58522923372745 -7.009409419623907 C114.68999300954019 -6.471469572657358, 114.79475678535292 -5.933529725690809, 114.97122617755518 -5.027396693551458 M114.58522923372745 -7.009409419623907 C114.71781358588913 -6.328616792986383, 114.85039793805083 -5.647824166348858, 114.97122617755518 -5.027396693551458 M114.97122617755518 -5.027396693551458 C115.06898262758912 -4.26921697128268, 115.16673907762308 -3.511037249013903, 115.22944205789975 -3.024725316091981 M114.97122617755518 -5.027396693551458 C115.04941559149387 -4.420975039289208, 115.12760500543256 -3.814553385026958, 115.22944205789975 -3.024725316091981 M115.22944205789975 -3.024725316091981 C115.27564186907564 -2.3051259652110865, 115.32184168025154 -1.585526614330192, 115.35881581032167 -1.0096246935071378 M115.22944205789975 -3.024725316091981 C115.27150419124737 -2.3695736372596863, 115.31356632459502 -1.7144219584273912, 115.35881581032167 -1.0096246935071378 M115.35881581032167 -1.0096246935071378 C115.35881581032167 -0.28890531168415046, 115.35881581032167 0.4318140701388369, 115.35881581032167 1.00962469350713 M115.35881581032167 -1.0096246935071378 C115.35881581032167 -0.4127158099869347, 115.35881581032167 0.18419307353326841, 115.35881581032167 1.00962469350713 M115.35881581032167 1.00962469350713 C115.32900618777737 1.4739336265289062, 115.29919656523306 1.9382425595506825, 115.22944205789975 3.02472531609196 M115.35881581032167 1.00962469350713 C115.31312760284189 1.7212554038620604, 115.2674393953621 2.4328861142169913, 115.22944205789975 3.02472531609196 M115.22944205789975 3.02472531609196 C115.16211613155153 3.54689190584083, 115.09479020520331 4.0690584955897, 114.97122617755518 5.027396693551435 M115.22944205789975 3.02472531609196 C115.15407457583866 3.609260623965035, 115.07870709377758 4.19379593183811, 114.97122617755518 5.027396693551435 M114.97122617755518 5.027396693551435 C114.89340539166736 5.426989981656525, 114.81558460577952 5.826583269761614, 114.58522923372745 7.0094094196239 M114.97122617755518 5.027396693551435 C114.86280850265678 5.584098540071077, 114.75439082775836 6.140800386590717, 114.58522923372745 7.0094094196239 M114.58522923372745 7.0094094196239 C114.45130557447287 7.520118375242678, 114.31738191521829 8.030827330861456, 114.07303737065482 8.96261897887751 M114.58522923372745 7.0094094196239 C114.48135918291352 7.405510940942187, 114.3774891320996 7.801612462260474, 114.07303737065482 8.96261897887751 M114.07303737065482 8.96261897887751 C113.88855458516785 9.518251735424066, 113.70407179968089 10.073884491970622, 113.43675529456746 10.878999214271184 M114.07303737065482 8.96261897887751 C113.82051542533831 9.723174844262724, 113.5679934800218 10.483730709647936, 113.43675529456746 10.878999214271184 M113.43675529456746 10.878999214271184 C113.22120745625823 11.411406542228923, 113.00565961794901 11.943813870186661, 112.67899762499809 12.750675308355405 M113.43675529456746 10.878999214271184 C113.15377064065999 11.577976780558728, 112.87078598675251 12.276954346846274, 112.67899762499809 12.750675308355405 M112.67899762499809 12.750675308355405 C112.47685717226024 13.170424283578381, 112.27471671952237 13.590173258801357, 111.8028781507495 14.569956142586303 M112.67899762499809 12.750675308355405 C112.37176223714285 13.388656165021025, 112.0645268492876 14.026637021686646, 111.8028781507495 14.569956142586303 M111.8028781507495 14.569956142586303 C111.5801957419218 14.965351308498919, 111.3575133330941 15.360746474411537, 110.81199703466841 16.329365901781536 M111.8028781507495 14.569956142586303 C111.41678638156506 15.255501174804337, 111.03069461238063 15.94104620702237, 110.81199703466841 16.329365901781536 M110.81199703466841 16.329365901781536 C110.46027767906143 16.869701281865062, 110.10855832345446 17.410036661948585, 109.71042601980412 18.021674793848334 M110.81199703466841 16.329365901781536 C110.40339421147685 16.957089563424773, 109.9947913882853 17.584813225068014, 109.71042601980412 18.021674793848334 M109.71042601980412 18.021674793848334 C109.4235120177875 18.406113418147292, 109.1365980157709 18.790552042446254, 108.50269169774295 19.639928758550102 M109.71042601980412 18.021674793848334 C109.31326750308597 18.553831024365444, 108.91610898636783 19.085987254882557, 108.50269169774295 19.639928758550102 M108.50269169774295 19.639928758550102 C108.05103678628174 20.17046831744494, 107.59938187482054 20.701007876339776, 107.19375690787246 21.177478043231467 M108.50269169774295 19.639928758550102 C107.99913122124515 20.231439547647234, 107.49557074474737 20.82295033674437, 107.19375690787246 21.177478043231467 M107.19375690787246 21.177478043231467 C106.75575638140452 21.629749547321595, 106.3177558549366 22.082021051411722, 105.78900034400982 22.628004528078414 M107.19375690787246 21.177478043231467 C106.64195494796473 21.747258870619632, 106.09015298805701 22.317039698007793, 105.78900034400982 22.628004528078414 M105.78900034400982 22.628004528078414 C105.2210304452218 23.143819762497664, 104.65306054643378 23.659634996916918, 104.29419445219536 23.985547688627715 M105.78900034400982 22.628004528078414 C105.41379540796314 22.968755723617413, 105.03859047191645 23.309506919156412, 104.29419445219536 23.985547688627715 M104.29419445219536 23.985547688627715 C103.90229431688144 24.298077617639983, 103.5103941815675 24.61060754665225, 102.71548171047331 25.24452908884063 M104.29419445219536 23.985547688627715 C103.73805705983624 24.42905245959657, 103.18191966747712 24.872557230565423, 102.71548171047331 25.24452908884063 M102.71548171047331 25.24452908884063 C102.2642866360345 25.55926324084917, 101.81309156159568 25.87399739285771, 101.05934938813229 26.399775304092973 M102.71548171047331 25.24452908884063 C102.23801128656355 25.577591787198564, 101.76054086265377 25.910654485556496, 101.05934938813229 26.399775304092973 M101.05934938813229 26.399775304092973 C100.70222635312354 26.61626538660319, 100.34510331811478 26.8327554691134, 99.33260288812404 27.446539179886766 M101.05934938813229 26.399775304092973 C100.63937354593409 26.65436712768552, 100.2193977037359 26.908958951278066, 99.33260288812404 27.446539179886766 M99.33260288812404 27.446539179886766 C98.67165984649138 27.791352741352302, 98.01071680485872 28.13616630281784, 97.54233778220309 28.3805193389262 M99.33260288812404 27.446539179886766 C98.96870747005016 27.63638318640977, 98.60481205197628 27.826227192932777, 97.54233778220309 28.3805193389262 M97.54233778220309 28.3805193389262 C97.06573343894607 28.591497943720565, 96.58912909568903 28.80247654851493, 95.6959106537003 29.197877856399682 M97.54233778220309 28.3805193389262 C97.0258029452014 28.60917398880531, 96.50926810819973 28.83782863868442, 95.6959106537003 29.197877856399682 M95.6959106537003 29.197877856399682 C95.26197466079971 29.357570313047447, 94.82803866789911 29.51726276969521, 93.80090886774407 29.895256030836055 M95.6959106537003 29.197877856399682 C95.01760204441788 29.447501694831658, 94.33929343513547 29.697125533263634, 93.80090886774407 29.895256030836055 M93.80090886774407 29.895256030836055 C93.19716256340556 30.074444764834706, 92.59341625906706 30.253633498833352, 91.86511939314951 30.46978818572942 M93.80090886774407 29.895256030836055 C93.06348424039633 30.114119789412005, 92.32605961304861 30.332983547987958, 91.86511939314951 30.46978818572942 M91.86511939314951 30.46978818572942 C91.43647623595365 30.567623189201367, 91.00783307875778 30.665458192673317, 89.89649680409323 30.919113445218557 M91.86511939314951 30.46978818572942 C91.17418466974314 30.627489527576486, 90.48324994633677 30.785190869423555, 89.89649680409323 30.919113445218557 M89.89649680409323 30.919113445218557 C89.42336855456946 30.995605151437186, 88.9502403050457 31.072096857655815, 87.90313059306196 31.24138543543225 M89.89649680409323 30.919113445218557 C89.36133266483925 31.005634632993257, 88.82616852558526 31.092155820767957, 87.90313059306196 31.24138543543225 M87.90313059306196 31.24138543543225 C87.17631767207234 31.311500203799692, 86.44950475108271 31.381614972167135, 85.89321192939245 31.435279871635593 M87.90313059306196 31.24138543543225 C87.15847631616533 31.313221337946672, 86.41382203926871 31.385057240461094, 85.89321192939245 31.435279871635593 M85.89321192939245 31.435279871635593 C85.18246296832469 31.45807220742811, 84.47171400725692 31.480864543220626, 83.875 31.5 M85.89321192939245 31.435279871635593 C85.45949588518243 31.449188300996344, 85.02577984097242 31.46309673035709, 83.875 31.5 M83.875 31.5 C83.875 31.5, 83.875 31.5, 83.875 31.5 M83.875 31.5 C83.875 31.5, 83.875 31.5, 83.875 31.5 M83.875 31.5 C45.56924280286786 31.5, 7.263485605735724 31.5, -83.875 31.5 M83.875 31.5 C35.58084528868592 31.5, -12.713309422628157 31.5, -83.875 31.5 M-83.875 31.5 C-84.66615035454932 31.47462934801035, -85.45730070909862 31.4492586960207, -85.89321192939244 31.435279871635593 M-83.875 31.5 C-84.57316551159163 31.477611190939985, -85.27133102318324 31.45522238187997, -85.89321192939244 31.435279871635593 M-85.89321192939244 31.435279871635593 C-86.34108725763032 31.392073877369373, -86.7889625858682 31.348867883103154, -87.90313059306195 31.24138543543225 M-85.89321192939244 31.435279871635593 C-86.61095441309035 31.366040117444886, -87.32869689678826 31.296800363254178, -87.90313059306195 31.24138543543225 M-87.90313059306195 31.24138543543225 C-88.59757533508574 31.12911299504125, -89.29202007710954 31.01684055465025, -89.89649680409323 30.919113445218557 M-87.90313059306195 31.24138543543225 C-88.48900514795504 31.146665780922167, -89.07487970284814 31.05194612641208, -89.89649680409323 30.919113445218557 M-89.89649680409323 30.919113445218557 C-90.55457855199569 30.768910580644555, -91.21266029989815 30.618707716070556, -91.86511939314947 30.469788185729428 M-89.89649680409323 30.919113445218557 C-90.37504350781464 30.80988828290323, -90.85359021153603 30.700663120587905, -91.86511939314947 30.469788185729428 M-91.86511939314947 30.469788185729428 C-92.30043826621365 30.34058782923937, -92.73575713927784 30.21138747274932, -93.80090886774403 29.89525603083607 M-91.86511939314947 30.469788185729428 C-92.42318845015802 30.30415621897355, -92.98125750716656 30.13852425221767, -93.80090886774403 29.89525603083607 M-93.80090886774403 29.89525603083607 C-94.53946277620234 29.62346136540592, -95.27801668466067 29.351666699975766, -95.69591065370028 29.197877856399685 M-93.80090886774403 29.89525603083607 C-94.44084521047488 29.65975354120441, -95.08078155320572 29.424251051572753, -95.69591065370028 29.197877856399685 M-95.69591065370028 29.197877856399685 C-96.11057761269626 29.01431709431046, -96.52524457169226 28.830756332221235, -97.54233778220308 28.380519338926206 M-95.69591065370028 29.197877856399685 C-96.3626490964068 28.9027325259067, -97.02938753911332 28.60758719541371, -97.54233778220308 28.380519338926206 M-97.54233778220308 28.380519338926206 C-98.20296428004362 28.035870918154263, -98.86359077788416 27.691222497382316, -99.33260288812403 27.446539179886773 M-97.54233778220308 28.380519338926206 C-98.12264804432562 28.077771846883337, -98.70295830644817 27.77502435484047, -99.33260288812403 27.446539179886773 M-99.33260288812403 27.446539179886773 C-100.0158551181002 27.032347662839427, -100.69910734807638 26.618156145792078, -101.05934938813226 26.399775304092994 M-99.33260288812403 27.446539179886773 C-99.93872915088497 27.079101877407794, -100.54485541364592 26.711664574928815, -101.05934938813226 26.399775304092994 M-101.05934938813226 26.399775304092994 C-101.5675060934252 26.04530718422987, -102.07566279871814 25.690839064366745, -102.7154817104733 25.244529088840636 M-101.05934938813226 26.399775304092994 C-101.46158012238382 26.11919655616696, -101.86381085663537 25.838617808240926, -102.7154817104733 25.244529088840636 M-102.7154817104733 25.244529088840636 C-103.23894663467901 24.827079741773233, -103.76241155888474 24.40963039470583, -104.29419445219533 23.98554768862774 M-102.7154817104733 25.244529088840636 C-103.14127169029705 24.90497291067842, -103.56706167012081 24.5654167325162, -104.29419445219533 23.98554768862774 M-104.29419445219533 23.98554768862774 C-104.75059120871394 23.571060229953993, -105.20698796523256 23.156572771280242, -105.7890003440098 22.628004528078435 M-104.29419445219533 23.98554768862774 C-104.61573999841781 23.69352853117744, -104.93728554464028 23.401509373727137, -105.7890003440098 22.628004528078435 M-105.7890003440098 22.628004528078435 C-106.21408538422476 22.189069323925647, -106.6391704244397 21.750134119772863, -107.19375690787244 21.177478043231478 M-105.7890003440098 22.628004528078435 C-106.29758759560207 22.102846435019526, -106.80617484719431 21.577688341960613, -107.19375690787244 21.177478043231478 M-107.19375690787244 21.177478043231478 C-107.6746890134384 20.61254782622166, -108.15562111900435 20.04761760921184, -108.50269169774293 19.639928758550113 M-107.19375690787244 21.177478043231478 C-107.46343797337623 20.86069531840338, -107.73311903888003 20.543912593575286, -108.50269169774293 19.639928758550113 M-108.50269169774293 19.639928758550113 C-108.98332917387778 18.995918327504278, -109.46396665001262 18.351907896458442, -109.7104260198041 18.021674793848355 M-108.50269169774293 19.639928758550113 C-108.80515328977958 19.23465778003889, -109.10761488181623 18.82938680152767, -109.7104260198041 18.021674793848355 M-109.7104260198041 18.021674793848355 C-109.96634016520767 17.628521943938367, -110.22225431061123 17.235369094028382, -110.8119970346684 16.329365901781557 M-109.7104260198041 18.021674793848355 C-110.00250715984467 17.572959727978052, -110.29458829988522 17.12424466210775, -110.8119970346684 16.329365901781557 M-110.8119970346684 16.329365901781557 C-111.1287673764848 15.766908083411165, -111.44553771830121 15.204450265040773, -111.8028781507495 14.569956142586314 M-110.8119970346684 16.329365901781557 C-111.16736580194008 15.698372670500913, -111.52273456921178 15.067379439220266, -111.8028781507495 14.569956142586314 M-111.8028781507495 14.569956142586314 C-112.15061558768323 13.847871914404207, -112.49835302461696 13.125787686222102, -112.67899762499809 12.750675308355417 M-111.8028781507495 14.569956142586314 C-112.02007070602654 14.118951154377312, -112.2372632613036 13.66794616616831, -112.67899762499809 12.750675308355417 M-112.67899762499809 12.750675308355417 C-112.946083460961 12.090968129773678, -113.21316929692391 11.431260951191941, -113.43675529456745 10.878999214271209 M-112.67899762499809 12.750675308355417 C-112.86252090612449 12.297369255791946, -113.04604418725089 11.844063203228476, -113.43675529456745 10.878999214271209 M-113.43675529456745 10.878999214271209 C-113.59190246916894 10.411720643716833, -113.74704964377044 9.944442073162458, -114.07303737065482 8.962618978877522 M-113.43675529456745 10.878999214271209 C-113.62133255455848 10.323081915570867, -113.80590981454951 9.767164616870524, -114.07303737065482 8.962618978877522 M-114.07303737065482 8.962618978877522 C-114.20506935432802 8.45912380210787, -114.33710133800123 7.955628625338216, -114.58522923372743 7.009409419623911 M-114.07303737065482 8.962618978877522 C-114.21387594029099 8.425540473032571, -114.35471450992716 7.88846196718762, -114.58522923372743 7.009409419623911 M-114.58522923372743 7.009409419623911 C-114.68034707180223 6.520999424272004, -114.77546490987704 6.032589428920096, -114.97122617755518 5.027396693551461 M-114.58522923372743 7.009409419623911 C-114.71935016888284 6.320726764070583, -114.85347110403825 5.632044108517255, -114.97122617755518 5.027396693551461 M-114.97122617755518 5.027396693551461 C-115.04313222251773 4.469707608276617, -115.11503826748027 3.912018523001773, -115.22944205789975 3.024725316091999 M-114.97122617755518 5.027396693551461 C-115.04414855837423 4.461825108071739, -115.11707093919328 3.8962535225920174, -115.22944205789975 3.024725316091999 M-115.22944205789975 3.024725316091999 C-115.27726859483347 2.279788398463453, -115.3250951317672 1.5348514808349067, -115.35881581032167 1.0096246935071416 M-115.22944205789975 3.024725316091999 C-115.27658652880916 2.2904121273458995, -115.32373099971858 1.5560989385998, -115.35881581032167 1.0096246935071416 M-115.35881581032167 1.0096246935071416 C-115.35881581032167 0.4748063925528855, -115.35881581032167 -0.060011908401370606, -115.35881581032167 -1.0096246935071262 M-115.35881581032167 1.0096246935071416 C-115.35881581032167 0.4392639711769788, -115.35881581032167 -0.13109675115318398, -115.35881581032167 -1.0096246935071262 M-115.35881581032167 -1.0096246935071262 C-115.32161315169243 -1.5890861311031657, -115.28441049306318 -2.1685475686992053, -115.22944205789975 -3.024725316091956 M-115.35881581032167 -1.0096246935071262 C-115.3252806004415 -1.5319626565249918, -115.29174539056133 -2.054300619542857, -115.22944205789975 -3.024725316091956 M-115.22944205789975 -3.024725316091956 C-115.13143667619613 -3.784835703233621, -115.0334312944925 -4.544946090375286, -114.97122617755518 -5.027396693551446 M-115.22944205789975 -3.024725316091956 C-115.15596011557038 -3.594636750147732, -115.08247817324101 -4.1645481842035075, -114.97122617755518 -5.027396693551446 M-114.97122617755518 -5.027396693551446 C-114.83015584473601 -5.7517630373524415, -114.68908551191686 -6.476129381153438, -114.58522923372745 -7.009409419623896 M-114.97122617755518 -5.027396693551446 C-114.84835837256085 -5.658296904077547, -114.72549056756652 -6.289197114603647, -114.58522923372745 -7.009409419623896 M-114.58522923372745 -7.009409419623896 C-114.43150374428964 -7.595631335898842, -114.27777825485182 -8.181853252173788, -114.07303737065482 -8.962618978877506 M-114.58522923372745 -7.009409419623896 C-114.44262813204382 -7.553209224051982, -114.3000270303602 -8.097009028480068, -114.07303737065482 -8.962618978877506 M-114.07303737065482 -8.962618978877506 C-113.87543853786349 -9.55775518014648, -113.67783970507216 -10.152891381415452, -113.43675529456746 -10.878999214271168 M-114.07303737065482 -8.962618978877506 C-113.89250992991198 -9.506338867253369, -113.71198248916913 -10.05005875562923, -113.43675529456746 -10.878999214271168 M-113.43675529456746 -10.878999214271168 C-113.16752303242373 -11.544008107017875, -112.89829077027998 -12.209016999764584, -112.67899762499809 -12.750675308355401 M-113.43675529456746 -10.878999214271168 C-113.18383999490658 -11.503704894218219, -112.9309246952457 -12.128410574165269, -112.67899762499809 -12.750675308355401 M-112.67899762499809 -12.750675308355401 C-112.46983240890023 -13.185011355001294, -112.26066719280236 -13.619347401647186, -111.8028781507495 -14.5699561425863 M-112.67899762499809 -12.750675308355401 C-112.49512798370003 -13.132484552690896, -112.31125834240198 -13.514293797026388, -111.8028781507495 -14.5699561425863 M-111.8028781507495 -14.5699561425863 C-111.57550965416893 -14.973671931821977, -111.34814115758836 -15.377387721057655, -110.8119970346684 -16.329365901781546 M-111.8028781507495 -14.5699561425863 C-111.54552744388825 -15.026908382203345, -111.28817673702699 -15.483860621820389, -110.8119970346684 -16.329365901781546 M-110.8119970346684 -16.329365901781546 C-110.57296920981399 -16.696576828716047, -110.33394138495959 -17.063787755650548, -109.71042601980412 -18.021674793848344 M-110.8119970346684 -16.329365901781546 C-110.47168965562493 -16.852169421318738, -110.13138227658146 -17.37497294085593, -109.71042601980412 -18.021674793848344 M-109.71042601980412 -18.021674793848344 C-109.4033054112622 -18.433188430031496, -109.09618480272027 -18.844702066214644, -108.50269169774295 -19.639928758550102 M-109.71042601980412 -18.021674793848344 C-109.3518547838975 -18.50212758345161, -108.99328354799087 -18.982580373054876, -108.50269169774295 -19.639928758550102 M-108.50269169774295 -19.639928758550102 C-108.0900452681457 -20.124646735002035, -107.67739883854846 -20.60936471145397, -107.19375690787246 -21.177478043231467 M-108.50269169774295 -19.639928758550102 C-108.08271006137274 -20.133263086262644, -107.66272842500254 -20.62659741397519, -107.19375690787246 -21.177478043231467 M-107.19375690787246 -21.177478043231467 C-106.87531984722395 -21.50629045251995, -106.55688278657543 -21.83510286180843, -105.78900034400984 -22.628004528078403 M-107.19375690787246 -21.177478043231467 C-106.87657927192502 -21.504989993115394, -106.55940163597758 -21.832501942999325, -105.78900034400984 -22.628004528078403 M-105.78900034400984 -22.628004528078403 C-105.43369030012332 -22.950687708947537, -105.0783802562368 -23.27337088981667, -104.29419445219536 -23.98554768862771 M-105.78900034400984 -22.628004528078403 C-105.47670791184999 -22.911620252161015, -105.16441547969012 -23.19523597624363, -104.29419445219536 -23.98554768862771 M-104.29419445219536 -23.98554768862771 C-103.7193940513198 -24.443935712244908, -103.14459365044425 -24.9023237358621, -102.71548171047331 -25.244529088840626 M-104.29419445219536 -23.98554768862771 C-103.79739714182425 -24.381730323317022, -103.30059983145314 -24.777912958006336, -102.71548171047331 -25.244529088840626 M-102.71548171047331 -25.244529088840626 C-102.1352798617189 -25.649252781998477, -101.55507801296449 -26.053976475156333, -101.0593493881323 -26.39977530409297 M-102.71548171047331 -25.244529088840626 C-102.32740006099418 -25.515238047733426, -101.93931841151505 -25.78594700662623, -101.0593493881323 -26.39977530409297 M-101.0593493881323 -26.39977530409297 C-100.654031909589 -26.645481141495818, -100.24871443104567 -26.89118697889867, -99.33260288812404 -27.446539179886763 M-101.0593493881323 -26.39977530409297 C-100.65091691765927 -26.647369467909336, -100.24248444718624 -26.8949636317257, -99.33260288812404 -27.446539179886763 M-99.33260288812404 -27.446539179886763 C-98.88694791144272 -27.67903709576577, -98.4412929347614 -27.91153501164478, -97.54233778220309 -28.3805193389262 M-99.33260288812404 -27.446539179886763 C-98.63500771001117 -27.810474137477215, -97.93741253189829 -28.174409095067666, -97.54233778220309 -28.3805193389262 M-97.54233778220309 -28.3805193389262 C-96.92925432877372 -28.651913197284898, -96.31617087534437 -28.923307055643594, -95.6959106537003 -29.19787785639968 M-97.54233778220309 -28.3805193389262 C-96.88024698533516 -28.67360729447396, -96.21815618846723 -28.966695250021722, -95.6959106537003 -29.19787785639968 M-95.6959106537003 -29.19787785639968 C-95.06658063313682 -29.429477121429976, -94.43725061257334 -29.661076386460277, -93.80090886774407 -29.895256030836055 M-95.6959106537003 -29.19787785639968 C-95.1866764756131 -29.38528074124491, -94.6774422975259 -29.572683626090136, -93.80090886774407 -29.895256030836055 M-93.80090886774407 -29.895256030836055 C-93.06412553630626 -30.11392945615217, -92.32734220486844 -30.332602881468286, -91.86511939314951 -30.469788185729417 M-93.80090886774407 -29.895256030836055 C-93.22628098481181 -30.065802570207044, -92.65165310187955 -30.236349109578033, -91.86511939314951 -30.469788185729417 M-91.86511939314951 -30.469788185729417 C-91.35386923595226 -30.58647769789063, -90.842619078755 -30.703167210051838, -89.89649680409325 -30.919113445218553 M-91.86511939314951 -30.469788185729417 C-91.26326482333789 -30.60715756382081, -90.66141025352627 -30.744526941912202, -89.89649680409325 -30.919113445218553 M-89.89649680409325 -30.919113445218553 C-89.20107182333783 -31.031544363005818, -88.50564684258241 -31.143975280793082, -87.90313059306196 -31.24138543543225 M-89.89649680409325 -30.919113445218553 C-89.14140993900811 -31.041190033779422, -88.386323073923 -31.16326662234029, -87.90313059306196 -31.24138543543225 M-87.90313059306196 -31.24138543543225 C-87.28324198407559 -31.301185344016037, -86.66335337508922 -31.36098525259983, -85.89321192939246 -31.435279871635593 M-87.90313059306196 -31.24138543543225 C-87.4742867483285 -31.282755485373507, -87.04544290359503 -31.32412553531476, -85.89321192939246 -31.435279871635593 M-85.89321192939246 -31.435279871635593 C-85.17037135132347 -31.458459962050433, -84.44753077325447 -31.481640052465274, -83.87500000000001 -31.5 M-85.89321192939246 -31.435279871635593 C-85.19740019919195 -31.457593199507752, -84.50158846899141 -31.479906527379914, -83.87500000000001 -31.5 M-83.87500000000001 -31.5 C-83.87500000000001 -31.5, -83.875 -31.5, -83.875 -31.5 M-83.87500000000001 -31.5 C-83.87500000000001 -31.5, -83.87500000000001 -31.5, -83.875 -31.5" stroke="#9370DB" stroke-width="1.3" fill="none" stroke-dasharray="0 0" style=""/></g><g class="label" style="" transform="translate(-100, -24)"><rect/><foreignObject width="200" height="48"><div xmlns="http://www.w3.org/1999/xhtml" style="display: table; white-space: break-spaces; line-height: 1.5; max-width: 200px; text-align: center; width: 200px;"><span class="nodeLabel"><p>Section 26: “Reason to believe” (eff: 1872-01-01)</p></span></div></foreignObject></g></g></g></g></g><defs><filter id="my-svg-drop-shadow" height="130%" width="130%"><feDropShadow dx="4" dy="4" stdDeviation="0" flood-opacity="0.06" flood-color="#000000"/></filter></defs><defs><filter id="my-svg-drop-shadow-small" height="150%" width="150%"><feDropShadow dx="2" dy="2" stdDeviation="0" flood-opacity="0.06" flood-color="#000000"/></filter></defs></svg>