<svg class="yuho-mermaid-svg" id="my-svg" width="100%" xmlns="http://www.w3.org/2000/svg" xmlns:xlink="http://www.w3.org/1999/xlink" class="flowchart" style="max-width: 276px; background-color: transparent;" viewBox="0 0 276 279" role="graphics-document document" aria-roledescription="flowchart-v2"><style>#my-svg{font-family:"trebuchet ms",verdana,arial,sans-serif;font-size:16px;fill:#333;}@keyframes edge-animation-frame{from{stroke-dashoffset:0;}}@keyframes dash{to{stroke-dashoffset:0;}}#my-svg .edge-animation-slow{stroke-dasharray:9,5!important;stroke-dashoffset:900;animation:dash 50s linear infinite;stroke-linecap:round;}#my-svg .edge-animation-fast{stroke-dasharray:9,5!important;stroke-dashoffset:900;animation:dash 20s linear infinite;stroke-linecap:round;}#my-svg .error-icon{fill:#552222;}#my-svg .error-text{fill:#552222;stroke:#552222;}#my-svg .edge-thickness-normal{stroke-width:1px;}#my-svg .edge-thickness-thick{stroke-width:3.5px;}#my-svg .edge-pattern-solid{stroke-dasharray:0;}#my-svg .edge-thickness-invisible{stroke-width:0;fill:none;}#my-svg .edge-pattern-dashed{stroke-dasharray:3;}#my-svg .edge-pattern-dotted{stroke-dasharray:2;}#my-svg .marker{fill:#333333;stroke:#333333;}#my-svg .marker.cross{stroke:#333333;}#my-svg svg{font-family:"trebuchet ms",verdana,arial,sans-serif;font-size:16px;}#my-svg p{margin:0;}#my-svg .label{font-family:"trebuchet ms",verdana,arial,sans-serif;color:#333;}#my-svg .cluster-label text{fill:#333;}#my-svg .cluster-label span{color:#333;}#my-svg .cluster-label span p{background-color:transparent;}#my-svg .label text,#my-svg span{fill:#333;color:#333;}#my-svg .node rect,#my-svg .node circle,#my-svg .node ellipse,#my-svg .node polygon,#my-svg .node path{fill:#ECECFF;stroke:#9370DB;stroke-width:1px;}#my-svg .rough-node .label text,#my-svg .node .label text,#my-svg .image-shape .label,#my-svg .icon-shape .label{text-anchor:middle;}#my-svg .node .katex path{fill:#000;stroke:#000;stroke-width:1px;}#my-svg .rough-node .label,#my-svg .node .label,#my-svg .image-shape .label,#my-svg .icon-shape .label{text-align:center;}#my-svg .node.clickable{cursor:pointer;}#my-svg .root .anchor path{fill:#333333!important;stroke-width:0;stroke:#333333;}#my-svg .arrowheadPath{fill:#333333;}#my-svg .edgePath .path{stroke:#333333;stroke-width:1px;}#my-svg .flowchart-link{stroke:#333333;fill:none;}#my-svg .edgeLabel{background-color:rgba(232,232,232, 0.8);text-align:center;}#my-svg .edgeLabel p{background-color:rgba(232,232,232, 0.8);}#my-svg .edgeLabel rect{opacity:0.5;background-color:rgba(232,232,232, 0.8);fill:rgba(232,232,232, 0.8);}#my-svg .labelBkg{background-color:rgba(232, 232, 232, 0.5);}#my-svg .cluster rect{fill:#ffffde;stroke:#aaaa33;stroke-width:1px;}#my-svg .cluster text{fill:#333;}#my-svg .cluster span{color:#333;}#my-svg div.mermaidTooltip{position:absolute;text-align:center;max-width:200px;padding:2px;font-family:"trebuchet ms",verdana,arial,sans-serif;font-size:12px;background:hsl(80, 100%, 96.2745098039%);border:1px solid #aaaa33;border-radius:2px;pointer-events:none;z-index:100;}#my-svg .flowchartTitleText{text-anchor:middle;font-size:18px;fill:#333;}#my-svg rect.text{fill:none;stroke-width:0;}#my-svg .icon-shape,#my-svg .image-shape{background-color:rgba(232,232,232, 0.8);text-align:center;}#my-svg .icon-shape p,#my-svg .image-shape p{background-color:rgba(232,232,232, 0.8);padding:2px;}#my-svg .icon-shape .label rect,#my-svg .image-shape .label rect{opacity:0.5;background-color:rgba(232,232,232, 0.8);fill:rgba(232,232,232, 0.8);}#my-svg .label-icon{display:inline-block;height:1em;overflow:visible;vertical-align:-0.125em;}#my-svg .node .label-icon path{fill:currentColor;stroke:revert;stroke-width:revert;}#my-svg .node .neo-node{stroke:#9370DB;}#my-svg [data-look="neo"].node rect,#my-svg [data-look="neo"].cluster rect,#my-svg [data-look="neo"].node polygon{stroke:#9370DB;filter:drop-shadow(1px 2px 2px rgba(185, 185, 185, 1));}#my-svg [data-look="neo"].node path{stroke:#9370DB;stroke-width:1px;}#my-svg [data-look="neo"].node .outer-path{filter:drop-shadow(1px 2px 2px rgba(185, 185, 185, 1));}#my-svg [data-look="neo"].node .neo-line path{stroke:#9370DB;filter:none;}#my-svg [data-look="neo"].node circle{stroke:#9370DB;filter:drop-shadow(1px 2px 2px rgba(185, 185, 185, 1));}#my-svg [data-look="neo"].node circle .state-start{fill:#000000;}#my-svg [data-look="neo"].icon-shape .icon{fill:#9370DB;filter:drop-shadow(1px 2px 2px rgba(185, 185, 185, 1));}#my-svg [data-look="neo"].icon-shape .icon-neo path{stroke:#9370DB;filter:drop-shadow(1px 2px 2px rgba(185, 185, 185, 1));}#my-svg :root{--mermaid-font-family:"trebuchet ms",verdana,arial,sans-serif;}</style><g><marker id="my-svg_flowchart-v2-pointEnd" class="marker flowchart-v2" viewBox="0 0 10 10" refX="5" refY="5" markerUnits="userSpaceOnUse" markerWidth="8" markerHeight="8" orient="auto"><path d="M 0 0 L 10 5 L 0 10 z" class="arrowMarkerPath" style="stroke-width: 1; stroke-dasharray: 1, 0;"/></marker><marker id="my-svg_flowchart-v2-pointStart" class="marker flowchart-v2" viewBox="0 0 10 10" refX="4.5" refY="5" markerUnits="userSpaceOnUse" markerWidth="8" markerHeight="8" orient="auto"><path d="M 0 5 L 10 10 L 10 0 z" class="arrowMarkerPath" style="stroke-width: 1; stroke-dasharray: 1, 0;"/></marker><marker id="my-svg_flowchart-v2-pointEnd-margin" class="marker flowchart-v2" viewBox="0 0 11.5 14" refX="11.5" refY="7" markerUnits="userSpaceOnUse" markerWidth="10.5" markerHeight="14" orient="auto"><path d="M 0 0 L 11.5 7 L 0 14 z" class="arrowMarkerPath" style="stroke-width: 0; stroke-dasharray: 1, 0;"/></marker><marker id="my-svg_flowchart-v2-pointStart-margin" class="marker flowchart-v2" viewBox="0 0 11.5 14" refX="1" refY="7" markerUnits="userSpaceOnUse" markerWidth="11.5" markerHeight="14" orient="auto"><polygon points="0,7 11.5,14 11.5,0" class="arrowMarkerPath" style="stroke-width: 0; stroke-dasharray: 1, 0;"/></marker><marker id="my-svg_flowchart-v2-circleEnd" class="marker flowchart-v2" viewBox="0 0 10 10" refX="11" refY="5" markerUnits="userSpaceOnUse" markerWidth="11" markerHeight="11" orient="auto"><circle cx="5" cy="5" r="5" class="arrowMarkerPath" style="stroke-width: 1; stroke-dasharray: 1, 0;"/></marker><marker id="my-svg_flowchart-v2-circleStart" class="marker flowchart-v2" viewBox="0 0 10 10" refX="-1" refY="5" markerUnits="userSpaceOnUse" markerWidth="11" markerHeight="11" orient="auto"><circle cx="5" cy="5" r="5" class="arrowMarkerPath" style="stroke-width: 1; stroke-dasharray: 1, 0;"/></marker><marker id="my-svg_flowchart-v2-circleEnd-margin" class="marker flowchart-v2" viewBox="0 0 10 10" refY="5" refX="12.25" markerUnits="userSpaceOnUse" markerWidth="14" markerHeight="14" orient="auto"><circle cx="5" cy="5" r="5" class="arrowMarkerPath" style="stroke-width: 0; stroke-dasharray: 1, 0;"/></marker><marker id="my-svg_flowchart-v2-circleStart-margin" class="marker flowchart-v2" viewBox="0 0 10 10" refX="-2" refY="5" markerUnits="userSpaceOnUse" markerWidth="14" markerHeight="14" orient="auto"><circle cx="5" cy="5" r="5" class="arrowMarkerPath" style="stroke-width: 0; stroke-dasharray: 1, 0;"/></marker><marker id="my-svg_flowchart-v2-crossEnd" class="marker cross flowchart-v2" viewBox="0 0 11 11" refX="12" refY="5.2" markerUnits="userSpaceOnUse" markerWidth="11" markerHeight="11" orient="auto"><path d="M 1,1 l 9,9 M 10,1 l -9,9" class="arrowMarkerPath" style="stroke-width: 2; stroke-dasharray: 1, 0;"/></marker><marker id="my-svg_flowchart-v2-crossStart" class="marker cross flowchart-v2" viewBox="0 0 11 11" refX="-1" refY="5.2" markerUnits="userSpaceOnUse" markerWidth="11" markerHeight="11" orient="auto"><path d="M 1,1 l 9,9 M 10,1 l -9,9" class="arrowMarkerPath" style="stroke-width: 2; stroke-dasharray: 1, 0;"/></marker><marker id="my-svg_flowchart-v2-crossEnd-margin" class="marker cross flowchart-v2" viewBox="0 0 15 15" refX="17.7" refY="7.5" markerUnits="userSpaceOnUse" markerWidth="12" markerHeight="12" orient="auto"><path d="M 1,1 L 14,14 M 1,14 L 14,1" class="arrowMarkerPath" style="stroke-width: 2.5;"/></marker><marker id="my-svg_flowchart-v2-crossStart-margin" class="marker cross flowchart-v2" viewBox="0 0 15 15" refX="-3.5" refY="7.5" markerUnits="userSpaceOnUse" markerWidth="12" markerHeight="12" orient="auto"><path d="M 1,1 L 14,14 M 1,14 L 14,1" class="arrowMarkerPath" style="stroke-width: 2.5; stroke-dasharray: 1, 0;"/></marker><g class="root"><g class="clusters"/><g class="edgePaths"><path d="M138.5,71.5L138.417,77.583C138.333,83.667,138.167,95.833,138.083,107.417C138,119,138,130,138,135.5L138,141" id="my-svg-L_START1_ILLUS2_0" class="edge-thickness-normal edge-pattern-dotted edge-thickness-normal edge-pattern-solid flowchart-link" style=";" data-edge="true" data-et="edge" data-id="L_START1_ILLUS2_0" data-points="W3sieCI6MTM4LjUsInkiOjcxLjV9LHsieCI6MTM4LCJ5IjoxMDh9LHsieCI6MTM4LCJ5IjoxNDV9XQ==" data-look="classic" marker-end="url(#my-svg_flowchart-v2-pointEnd)"/></g><g class="edgeLabels"><g class="edgeLabel" transform="translate(138, 108)"><g class="label" data-id="L_START1_ILLUS2_0" transform="translate(-83.03125, -12)"><foreignObject width="166.0625" height="24"><div xmlns="http://www.w3.org/1999/xhtml" class="labelBkg" style="display: table-cell; white-space: nowrap; line-height: 1.5; max-width: 200px; text-align: center;"><span class="edgeLabel"><p>illustration provenance</p></span></div></foreignObject></g></g></g><g class="nodes"><g class="node default" id="my-svg-flowchart-START1-0" data-look="classic" transform="translate(138, 39.5)"><g class="basic label-container outer-path"><path d="M-83.875 -31.5 C-41.24076644572176 -31.5, 1.3934671085564787 -31.5, 83.875 -31.5 C83.875 -31.5, 83.875 -31.5, 83.875 -31.5 C84.5128302892698 -31.47954602408446, 85.1506605785396 -31.45909204816892, 85.89321192939245 -31.435279871635593 C86.47080087221772 -31.379560560973577, 87.04838981504298 -31.323841250311556, 87.90313059306193 -31.241385435432253 C88.55143418044295 -31.136572739093896, 89.19973776782399 -31.031760042755543, 89.89649680409322 -30.91911344521856 C90.54938779201801 -30.770095337736585, 91.20227877994282 -30.621077230254613, 91.86511939314947 -30.469788185729428 C92.51177450704915 -30.277864342285962, 93.15842962094884 -30.085940498842497, 93.80090886774406 -29.895256030836062 C94.43671230588906 -29.661274488296144, 95.07251574403408 -29.427292945756225, 95.69591065370028 -29.197877856399685 C96.27348661339308 -28.942202112225786, 96.85106257308587 -28.686526368051886, 97.54233778220308 -28.380519338926202 C98.03385391786207 -28.124095685784013, 98.52537005352107 -27.867672032641824, 99.33260288812403 -27.44653917988677 C99.71117114541748 -27.21704887760146, 100.08973940271093 -26.98755857531615, 101.05934938813228 -26.399775304092984 C101.68157655623388 -25.965736567405283, 102.30380372433548 -25.53169783071758, 102.7154817104733 -25.244529088840633 C103.2003967083812 -24.857822282139114, 103.6853117062891 -24.471115475437596, 104.29419445219533 -23.985547688627737 C104.67884970098405 -23.636213969097994, 105.06350494977278 -23.286880249568256, 105.78900034400982 -22.62800452807842 C106.16141601828713 -22.24345476849161, 106.53383169256443 -21.8589050089048, 107.19375690787243 -21.177478043231485 C107.6380293689165 -20.655610330669923, 108.0823018299606 -20.133742618108364, 108.50269169774293 -19.63992875855011 C108.93877115493305 -19.055622013571174, 109.37485061212317 -18.47131526859224, 109.7104260198041 -18.02167479384835 C110.1482973407796 -17.348986859916856, 110.58616866175511 -16.67629892598536, 110.8119970346684 -16.329365901781543 C111.04558958164515 -15.914598680814008, 111.2791821286219 -15.49983145984647, 111.8028781507495 -14.56995614258631 C111.98903524865 -14.18339694567212, 112.17519234655049 -13.79683774875793, 112.67899762499809 -12.750675308355413 C112.93802454267147 -12.110873813757392, 113.19705146034485 -11.47107231915937, 113.43675529456745 -10.878999214271206 C113.67486820449302 -10.16184106771546, 113.91298111441861 -9.444682921159716, 114.07303737065482 -8.962618978877531 C114.27786275729108 -8.181531007749381, 114.48268814392732 -7.400443036621233, 114.58522923372745 -7.009409419623907 C114.68157007851752 -6.51471954327158, 114.77791092330762 -6.020029666919252, 114.97122617755518 -5.027396693551458 C115.04251666370665 -4.474481760859502, 115.1138071498581 -3.921566828167547, 115.22944205789975 -3.024725316091981 C115.26421721962684 -2.483074102187027, 115.29899238135395 -1.9414228882820728, 115.35881581032167 -1.0096246935071378 C115.35881581032167 -0.5714382457346975, 115.35881581032167 -0.13325179796225717, 115.35881581032167 1.00962469350713 C115.32486245884961 1.5384755493366165, 115.29090910737753 2.067326405166103, 115.22944205789975 3.02472531609196 C115.15593600712523 3.594823730487528, 115.08242995635072 4.164922144883096, 114.97122617755518 5.027396693551435 C114.85628925976417 5.617573474482123, 114.74135234197315 6.20775025541281, 114.58522923372745 7.0094094196239 C114.43488652164166 7.582731339750591, 114.28454380955587 8.156053259877282, 114.07303737065482 8.96261897887751 C113.94053134951938 9.361706002570054, 113.80802532838393 9.760793026262597, 113.43675529456746 10.878999214271184 C113.13572776646473 11.622543028656262, 112.83470023836199 12.36608684304134, 112.67899762499809 12.750675308355405 C112.38815378360462 13.354618768070226, 112.09730994221117 13.958562227785048, 111.8028781507495 14.569956142586303 C111.45751023977274 15.183191840818788, 111.112142328796 15.796427539051273, 110.81199703466841 16.329365901781536 C110.48067928291277 16.838358939751696, 110.14936153115713 17.347351977721857, 109.71042601980412 18.021674793848334 C109.37084888511754 18.47667721821497, 109.03127175043096 18.931679642581603, 108.50269169774295 19.639928758550102 C108.08341982752206 20.132429354556805, 107.6641479573012 20.62492995056351, 107.19375690787246 21.177478043231467 C106.70728278506938 21.679802515293908, 106.22080866226631 22.182126987356348, 105.78900034400982 22.628004528078414 C105.43301494852626 22.951301045399152, 105.0770295530427 23.274597562719894, 104.29419445219536 23.985547688627715 C103.89423706452058 24.30450306198527, 103.4942796768458 24.623458435342826, 102.71548171047331 25.24452908884063 C102.35297414349185 25.49739867486725, 101.99046657651037 25.750268260893865, 101.05934938813229 26.399775304092973 C100.70600052550535 26.61397746112583, 100.35265166287842 26.82817961815869, 99.33260288812404 27.446539179886766 C98.64656238921731 27.8044460687365, 97.96052189031057 28.16235295758623, 97.54233778220309 28.3805193389262 C96.99404045955515 28.623234299000252, 96.44574313690721 28.865949259074302, 95.6959106537003 29.197877856399682 C95.0090261915681 29.450657687954696, 94.3221417294359 29.703437519509706, 93.80090886774407 29.895256030836055 C93.18476400215995 30.078124592731026, 92.56861913657583 30.260993154625996, 91.86511939314951 30.46978818572942 C91.16612132839815 30.629329932620262, 90.4671232636468 30.7888716795111, 89.89649680409323 30.919113445218557 C89.44813473066074 30.99160114815131, 88.99977265722823 31.06408885108407, 87.90313059306196 31.24138543543225 C87.23929191410508 31.3054251544084, 86.57545323514819 31.36946487338455, 85.89321192939245 31.435279871635593 C85.20075370854205 31.457485658990105, 84.50829548769167 31.479691446344617, 83.875 31.5 C83.875 31.5, 83.875 31.5, 83.875 31.5 C31.329271068783676 31.5, -21.216457862432648 31.5, -83.875 31.5 C-84.64483083297038 31.475313023571456, -85.41466166594077 31.450626047142908, -85.89321192939244 31.435279871635593 C-86.37736352870755 31.388574349127154, -86.86151512802266 31.34186882661871, -87.90313059306195 31.24138543543225 C-88.69383333931374 31.113550747409636, -89.48453608556554 30.985716059387027, -89.89649680409323 30.919113445218557 C-90.61770424551854 30.754502553031614, -91.33891168694386 30.589891660844668, -91.86511939314947 30.469788185729428 C-92.45382546475415 30.295063313858392, -93.04253153635881 30.120338441987354, -93.80090886774403 29.89525603083607 C-94.47912891225148 29.64566478505996, -95.15734895675894 29.39607353928385, -95.69591065370028 29.197877856399685 C-96.16877806565803 28.988553480239386, -96.64164547761577 28.779229104079086, -97.54233778220308 28.380519338926206 C-97.9936121758548 28.145089776813148, -98.44488656950652 27.909660214700086, -99.33260288812403 27.446539179886773 C-99.81314095286136 27.155234181087877, -100.2936790175987 26.863929182288985, -101.05934938813226 26.399775304092994 C-101.46293174475404 26.11825372291228, -101.86651410137581 25.836732141731567, -102.7154817104733 25.244529088840636 C-103.26593020052286 24.80556106607561, -103.81637869057242 24.366593043310587, -104.29419445219533 23.98554768862774 C-104.72615839628943 23.593249463741135, -105.15812234038354 23.200951238854532, -105.7890003440098 22.628004528078435 C-106.26083295669473 22.140798617303318, -106.73266556937965 21.653592706528205, -107.19375690787244 21.177478043231478 C-107.53269879468665 20.77933761663979, -107.87164068150086 20.3811971900481, -108.50269169774293 19.639928758550113 C-108.93627454595803 19.05896724215196, -109.36985739417311 18.47800572575381, -109.7104260198041 18.021674793848355 C-110.05942783396071 17.48551428719466, -110.4084296481173 16.949353780540967, -110.8119970346684 16.329365901781557 C-111.08995924170793 15.835815856457268, -111.36792144874747 15.342265811132979, -111.8028781507495 14.569956142586314 C-112.03240647180915 14.09333567278663, -112.2619347928688 13.616715202986946, -112.67899762499809 12.750675308355417 C-112.88214272000373 12.24890299614827, -113.08528781500937 11.747130683941124, -113.43675529456745 10.878999214271209 C-113.6240651583518 10.314851748326683, -113.81137502213615 9.750704282382157, -114.07303737065482 8.962618978877522 C-114.22131352826595 8.397177726613005, -114.3695896858771 7.831736474348489, -114.58522923372743 7.009409419623911 C-114.71032387603928 6.367074870114608, -114.83541851835113 5.724740320605305, -114.97122617755518 5.027396693551461 C-115.06860206502508 4.272168539378903, -115.16597795249497 3.516940385206346, -115.22944205789975 3.024725316091999 C-115.27416362397791 2.3281508258260595, -115.3188851900561 1.6315763355601198, -115.35881581032167 1.0096246935071416 C-115.35881581032167 0.34879522946568187, -115.35881581032167 -0.31203423457577784, -115.35881581032167 -1.0096246935071262 C-115.32798468692475 -1.4898443268489507, -115.29715356352784 -1.9700639601907755, -115.22944205789975 -3.024725316091956 C-115.15181226057128 -3.626806694434131, -115.07418246324282 -4.228888072776305, -114.97122617755518 -5.027396693551446 C-114.85552135759131 -5.621516489843517, -114.73981653762746 -6.215636286135587, -114.58522923372745 -7.009409419623896 C-114.44870327670658 -7.530042064468501, -114.31217731968573 -8.050674709313105, -114.07303737065482 -8.962618978877506 C-113.86596221271351 -9.586296361650819, -113.65888705477221 -10.209973744424131, -113.43675529456746 -10.878999214271168 C-113.27444072186132 -11.279919346994108, -113.11212614915519 -11.680839479717047, -112.67899762499809 -12.750675308355401 C-112.33937930671505 -13.455900012938054, -111.999760988432 -14.161124717520707, -111.8028781507495 -14.5699561425863 C-111.42428157724173 -15.242192695909555, -111.04568500373395 -15.91442924923281, -110.8119970346684 -16.329365901781546 C-110.58951531122892 -16.671157573692366, -110.36703358778945 -17.012949245603185, -109.71042601980412 -18.021674793848344 C-109.28459820445816 -18.592245272699877, -108.85877038911222 -19.162815751551406, -108.50269169774295 -19.639928758550102 C-108.04772176764467 -20.174362326965944, -107.5927518375464 -20.70879589538179, -107.19375690787246 -21.177478043231467 C-106.74302111192851 -21.64289975864065, -106.29228531598457 -22.108321474049827, -105.78900034400984 -22.628004528078403 C-105.39009346480763 -22.990281201272182, -104.99118658560545 -23.35255787446596, -104.29419445219536 -23.98554768862771 C-103.8066248847555 -24.374371443889906, -103.31905531731563 -24.7631951991521, -102.71548171047331 -25.244529088840626 C-102.30635045925912 -25.52992133868123, -101.89721920804494 -25.815313588521832, -101.0593493881323 -26.39977530409297 C-100.64187071285957 -26.652853330420317, -100.22439203758684 -26.905931356747665, -99.33260288812404 -27.446539179886763 C-98.91031943622887 -27.666844186255013, -98.4880359843337 -27.887149192623266, -97.54233778220309 -28.3805193389262 C-96.86363473671582 -28.68096104415289, -96.18493169122856 -28.981402749379587, -95.6959106537003 -29.19787785639968 C-95.21801515681037 -29.373747816872722, -94.74011965992042 -29.549617777345766, -93.80090886774407 -29.895256030836055 C-93.33223181896356 -30.03435691877808, -92.86355477018306 -30.173457806720105, -91.86511939314951 -30.469788185729417 C-91.25978766252453 -30.607951203085868, -90.65445593189953 -30.746114220442315, -89.89649680409325 -30.919113445218553 C-89.1661405595363 -31.03719177884125, -88.43578431497936 -31.15527011246395, -87.90313059306196 -31.24138543543225 C-87.2157858227798 -31.30769275876834, -86.52844105249764 -31.37400008210443, -85.89321192939246 -31.435279871635593 C-85.18451507622223 -31.45800640032202, -84.475818223052 -31.48073292900845, -83.87500000000001 -31.5 C-83.87500000000001 -31.5, -83.875 -31.5, -83.875 -31.5" stroke="none" stroke-width="0" fill="#ECECFF" style=""/><path d="M-83.875 -31.5 C-26.95105711900895 -31.5, 29.9728857619821 -31.5, 83.875 -31.5 M-83.875 -31.5 C-44.79253797021826 -31.5, -5.710075940436525 -31.5, 83.875 -31.5 M83.875 -31.5 C83.875 -31.5, 83.875 -31.5, 83.875 -31.5 M83.875 -31.5 C83.875 -31.5, 83.875 -31.5, 83.875 -31.5 M83.875 -31.5 C84.6659738180648 -31.4746350091918, 85.45694763612961 -31.4492700183836, 85.89321192939245 -31.435279871635593 M83.875 -31.5 C84.33318268981539 -31.485306972936122, 84.79136537963078 -31.47061394587225, 85.89321192939245 -31.435279871635593 M85.89321192939245 -31.435279871635593 C86.60701598095751 -31.366420053256082, 87.32082003252258 -31.297560234876574, 87.90313059306193 -31.241385435432253 M85.89321192939245 -31.435279871635593 C86.45321333284755 -31.381257209744504, 87.01321473630264 -31.327234547853415, 87.90313059306193 -31.241385435432253 M87.90313059306193 -31.241385435432253 C88.36645214188029 -31.166479200531576, 88.82977369069863 -31.0915729656309, 89.89649680409322 -30.91911344521856 M87.90313059306193 -31.241385435432253 C88.46104520769644 -31.151186127230602, 89.01895982233096 -31.06098681902895, 89.89649680409322 -30.91911344521856 M89.89649680409322 -30.91911344521856 C90.46073499193464 -30.79032976084203, 91.02497317977608 -30.6615460764655, 91.86511939314947 -30.469788185729428 M89.89649680409322 -30.91911344521856 C90.4924915781448 -30.783081527270657, 91.08848635219636 -30.647049609322753, 91.86511939314947 -30.469788185729428 M91.86511939314947 -30.469788185729428 C92.47865647424948 -30.287693600580806, 93.09219355534947 -30.105599015432187, 93.80090886774406 -29.895256030836062 M91.86511939314947 -30.469788185729428 C92.37871304147785 -30.31735628681364, 92.89230668980622 -30.164924387897855, 93.80090886774406 -29.895256030836062 M93.80090886774406 -29.895256030836062 C94.47499075898956 -29.647187663713016, 95.14907265023508 -29.399119296589973, 95.69591065370028 -29.197877856399685 M93.80090886774406 -29.895256030836062 C94.36983598526555 -29.685885592483526, 94.93876310278705 -29.476515154130993, 95.69591065370028 -29.197877856399685 M95.69591065370028 -29.197877856399685 C96.38535990020233 -28.89267912675847, 97.07480914670438 -28.587480397117258, 97.54233778220308 -28.380519338926202 M95.69591065370028 -29.197877856399685 C96.07900450058652 -29.028293574458345, 96.46209834747278 -28.85870929251701, 97.54233778220308 -28.380519338926202 M97.54233778220308 -28.380519338926202 C98.24301305413698 -28.014977498362214, 98.9436883260709 -27.649435657798225, 99.33260288812403 -27.44653917988677 M97.54233778220308 -28.380519338926202 C98.06564106195727 -28.10751235307019, 98.58894434171145 -27.83450536721418, 99.33260288812403 -27.44653917988677 M99.33260288812403 -27.44653917988677 C99.83673975864596 -27.140928446339274, 100.3408766291679 -26.835317712791777, 101.05934938813228 -26.399775304092984 M99.33260288812403 -27.44653917988677 C99.96907760799276 -27.060704464361717, 100.6055523278615 -26.674869748836667, 101.05934938813228 -26.399775304092984 M101.05934938813228 -26.399775304092984 C101.39430469200755 -26.166124984090995, 101.72925999588283 -25.932474664089007, 102.7154817104733 -25.244529088840633 M101.05934938813228 -26.399775304092984 C101.40848161873109 -26.15623577371792, 101.75761384932991 -25.912696243342857, 102.7154817104733 -25.244529088840633 M102.7154817104733 -25.244529088840633 C103.29834231813 -24.77971326480659, 103.8812029257867 -24.31489744077254, 104.29419445219533 -23.985547688627737 M102.7154817104733 -25.244529088840633 C103.22542075655193 -24.83786626964085, 103.73535980263055 -24.431203450441068, 104.29419445219533 -23.985547688627737 M104.29419445219533 -23.985547688627737 C104.8113364467092 -23.51589301203761, 105.3284784412231 -23.04623833544748, 105.78900034400982 -22.62800452807842 M104.29419445219533 -23.985547688627737 C104.79746888300812 -23.528487166475312, 105.30074331382092 -23.071426644322884, 105.78900034400982 -22.62800452807842 M105.78900034400982 -22.62800452807842 C106.28426650632157 -22.116601553383404, 106.77953266863331 -21.605198578688384, 107.19375690787243 -21.177478043231485 M105.78900034400982 -22.62800452807842 C106.14281033345908 -22.2626666656317, 106.49662032290834 -21.897328803184976, 107.19375690787243 -21.177478043231485 M107.19375690787243 -21.177478043231485 C107.51919139308791 -20.79520417915058, 107.8446258783034 -20.412930315069676, 108.50269169774293 -19.63992875855011 M107.19375690787243 -21.177478043231485 C107.4714482200574 -20.851286026855732, 107.74913953224237 -20.525094010479982, 108.50269169774293 -19.63992875855011 M108.50269169774293 -19.63992875855011 C108.87723073693252 -19.138080567244476, 109.2517697761221 -18.636232375938842, 109.7104260198041 -18.02167479384835 M108.50269169774293 -19.63992875855011 C108.94377031053894 -19.048923600491726, 109.38484892333496 -18.457918442433346, 109.7104260198041 -18.02167479384835 M109.7104260198041 -18.02167479384835 C110.1412366111416 -17.359834036712222, 110.57204720247908 -16.697993279576092, 110.8119970346684 -16.329365901781543 M109.7104260198041 -18.02167479384835 C110.03080470172776 -17.529487104691654, 110.35118338365142 -17.03729941553496, 110.8119970346684 -16.329365901781543 M110.8119970346684 -16.329365901781543 C111.19562318521604 -15.648198825124116, 111.57924933576368 -14.96703174846669, 111.8028781507495 -14.56995614258631 M110.8119970346684 -16.329365901781543 C111.02339818735217 -15.954001748503522, 111.23479934003596 -15.5786375952255, 111.8028781507495 -14.56995614258631 M111.8028781507495 -14.56995614258631 C112.05346418443824 -14.049608881949467, 112.30405021812696 -13.529261621312624, 112.67899762499809 -12.750675308355413 M111.8028781507495 -14.56995614258631 C111.9975250056441 -14.165767783622146, 112.19217186053872 -13.761579424657981, 112.67899762499809 -12.750675308355413 M112.67899762499809 -12.750675308355413 C112.85831959768299 -12.307746568869204, 113.03764157036791 -11.864817829382995, 113.43675529456745 -10.878999214271206 M112.67899762499809 -12.750675308355413 C112.92817508231195 -12.135202171271779, 113.1773525396258 -11.519729034188144, 113.43675529456745 -10.878999214271206 M113.43675529456745 -10.878999214271206 C113.6099239695343 -10.35744275595254, 113.78309264450114 -9.835886297633875, 114.07303737065482 -8.962618978877531 M113.43675529456745 -10.878999214271206 C113.61822035424832 -10.332455367043297, 113.79968541392918 -9.78591151981539, 114.07303737065482 -8.962618978877531 M114.07303737065482 -8.962618978877531 C114.24450901434523 -8.308723285205538, 114.41598065803562 -7.654827591533543, 114.58522923372745 -7.009409419623907 M114.07303737065482 -8.962618978877531 C114.22685922121615 -8.376029595875414, 114.38068107177749 -7.789440212873296, 114.58522923372745 -7.009409419623907 M114.58522923372745 -7.009409419623907 C114.71602788015029 -6.337786014546287, 114.84682652657314 -5.6661626094686675, 114.97122617755518 -5.027396693551458 M114.58522923372745 -7.009409419623907 C114.67962933011556 -6.524684876138365, 114.77402942650367 -6.039960332652823, 114.97122617755518 -5.027396693551458 M114.97122617755518 -5.027396693551458 C115.04306810705843 -4.470204875117895, 115.11491003656167 -3.913013056684332, 115.22944205789975 -3.024725316091981 M114.97122617755518 -5.027396693551458 C115.05331147992908 -4.390759297915895, 115.13539678230298 -3.7541219022803323, 115.22944205789975 -3.024725316091981 M115.22944205789975 -3.024725316091981 C115.27552284054299 -2.306979930685106, 115.32160362318625 -1.5892345452782304, 115.35881581032167 -1.0096246935071378 M115.22944205789975 -3.024725316091981 C115.27856000581934 -2.2596736299502367, 115.32767795373896 -1.494621943808492, 115.35881581032167 -1.0096246935071378 M115.35881581032167 -1.0096246935071378 C115.35881581032167 -0.4398963328418256, 115.35881581032167 0.12983202782348657, 115.35881581032167 1.00962469350713 M115.35881581032167 -1.0096246935071378 C115.35881581032167 -0.5144756211552964, 115.35881581032167 -0.01932654880345508, 115.35881581032167 1.00962469350713 M115.35881581032167 1.00962469350713 C115.31736969829215 1.6551813430664057, 115.27592358626264 2.3007379926256815, 115.22944205789975 3.02472531609196 M115.35881581032167 1.00962469350713 C115.324287637117 1.5474288618096343, 115.28975946391233 2.0852330301121387, 115.22944205789975 3.02472531609196 M115.22944205789975 3.02472531609196 C115.16384085035659 3.5335153273730375, 115.09823964281343 4.042305338654115, 114.97122617755518 5.027396693551435 M115.22944205789975 3.02472531609196 C115.15532599670885 3.5995548508168485, 115.08120993551795 4.174384385541737, 114.97122617755518 5.027396693551435 M114.97122617755518 5.027396693551435 C114.83987382276116 5.701863274088673, 114.70852146796716 6.376329854625911, 114.58522923372745 7.0094094196239 M114.97122617755518 5.027396693551435 C114.8770591724813 5.5109243624022755, 114.78289216740741 5.9944520312531155, 114.58522923372745 7.0094094196239 M114.58522923372745 7.0094094196239 C114.39469000097291 7.736018094342805, 114.20415076821837 8.46262676906171, 114.07303737065482 8.96261897887751 M114.58522923372745 7.0094094196239 C114.41006524310849 7.677385632407724, 114.23490125248954 8.345361845191547, 114.07303737065482 8.96261897887751 M114.07303737065482 8.96261897887751 C113.84391047051272 9.65271269569162, 113.61478357037063 10.342806412505729, 113.43675529456746 10.878999214271184 M114.07303737065482 8.96261897887751 C113.82775627268659 9.701366565722083, 113.58247517471834 10.440114152566654, 113.43675529456746 10.878999214271184 M113.43675529456746 10.878999214271184 C113.18485182489697 11.501205654579563, 112.93294835522647 12.12341209488794, 112.67899762499809 12.750675308355405 M113.43675529456746 10.878999214271184 C113.15450742091394 11.576156919086776, 112.87225954726043 12.273314623902367, 112.67899762499809 12.750675308355405 M112.67899762499809 12.750675308355405 C112.43543321842938 13.256442010038777, 112.19186881186067 13.762208711722149, 111.8028781507495 14.569956142586303 M112.67899762499809 12.750675308355405 C112.48249706450648 13.158712926654692, 112.28599650401488 13.566750544953981, 111.8028781507495 14.569956142586303 M111.8028781507495 14.569956142586303 C111.51023458567037 15.089574425758604, 111.21759102059124 15.609192708930903, 110.81199703466841 16.329365901781536 M111.8028781507495 14.569956142586303 C111.54170001223899 15.03370437466608, 111.28052187372847 15.497452606745858, 110.81199703466841 16.329365901781536 M110.81199703466841 16.329365901781536 C110.41155229890875 16.94455655037617, 110.01110756314908 17.559747198970808, 109.71042601980412 18.021674793848334 M110.81199703466841 16.329365901781536 C110.38999154331593 16.977679660840277, 109.96798605196345 17.625993419899014, 109.71042601980412 18.021674793848334 M109.71042601980412 18.021674793848334 C109.24917818977113 18.639704865550776, 108.78793035973814 19.257734937253222, 108.50269169774295 19.639928758550102 M109.71042601980412 18.021674793848334 C109.22950504256724 18.66606509054342, 108.74858406533035 19.310455387238502, 108.50269169774295 19.639928758550102 M108.50269169774295 19.639928758550102 C107.98862887774689 20.24377619792057, 107.47456605775083 20.847623637291044, 107.19375690787246 21.177478043231467 M108.50269169774295 19.639928758550102 C107.98380989915539 20.249436844381805, 107.46492810056783 20.858944930213504, 107.19375690787246 21.177478043231467 M107.19375690787246 21.177478043231467 C106.73519712277297 21.6509786698052, 106.27663733767349 22.124479296378933, 105.78900034400982 22.628004528078414 M107.19375690787246 21.177478043231467 C106.8117765518328 21.57190412201287, 106.42979619579316 21.966330200794275, 105.78900034400982 22.628004528078414 M105.78900034400982 22.628004528078414 C105.20887172512197 23.15486199039023, 104.62874310623411 23.681719452702048, 104.29419445219536 23.985547688627715 M105.78900034400982 22.628004528078414 C105.42924484906739 22.954724949976335, 105.06948935412497 23.281445371874256, 104.29419445219536 23.985547688627715 M104.29419445219536 23.985547688627715 C103.91993939045113 24.284006141023273, 103.54568432870691 24.58246459341883, 102.71548171047331 25.24452908884063 M104.29419445219536 23.985547688627715 C103.68939941647088 24.46785563534617, 103.0846043807464 24.950163582064622, 102.71548171047331 25.24452908884063 M102.71548171047331 25.24452908884063 C102.19847691805826 25.60516925125262, 101.68147212564321 25.96580941366461, 101.05934938813229 26.399775304092973 M102.71548171047331 25.24452908884063 C102.2653942603634 25.55849061006562, 101.81530681025347 25.87245213129061, 101.05934938813229 26.399775304092973 M101.05934938813229 26.399775304092973 C100.6438957205219 26.651625758875145, 100.2284420529115 26.903476213657314, 99.33260288812404 27.446539179886766 M101.05934938813229 26.399775304092973 C100.59488998619406 26.681333323014343, 100.13043058425583 26.96289134193571, 99.33260288812404 27.446539179886766 M99.33260288812404 27.446539179886766 C98.72991005521008 27.760963644774797, 98.12721722229612 28.075388109662825, 97.54233778220309 28.3805193389262 M99.33260288812404 27.446539179886766 C98.6745006748768 27.78987068300327, 98.01639846162955 28.133202186119775, 97.54233778220309 28.3805193389262 M97.54233778220309 28.3805193389262 C97.12738880708982 28.56420494118484, 96.71243983197652 28.747890543443486, 95.6959106537003 29.197877856399682 M97.54233778220309 28.3805193389262 C96.87302842914812 28.676802735167097, 96.20371907609317 28.973086131408, 95.6959106537003 29.197877856399682 M95.6959106537003 29.197877856399682 C95.26876965768169 29.355069691382614, 94.84162866166308 29.512261526365542, 93.80090886774407 29.895256030836055 M95.6959106537003 29.197877856399682 C95.22022605628057 29.372934185430356, 94.74454145886085 29.54799051446103, 93.80090886774407 29.895256030836055 M93.80090886774407 29.895256030836055 C93.21334599259474 30.06964160799991, 92.62578311744542 30.244027185163763, 91.86511939314951 30.46978818572942 M93.80090886774407 29.895256030836055 C93.39661670001956 30.015247824043794, 92.99232453229507 30.135239617251532, 91.86511939314951 30.46978818572942 M91.86511939314951 30.46978818572942 C91.32185060639435 30.59378574114614, 90.77858181963919 30.717783296562857, 89.89649680409323 30.919113445218557 M91.86511939314951 30.46978818572942 C91.17131355438362 30.628144840921518, 90.47750771561773 30.78650149611362, 89.89649680409323 30.919113445218557 M89.89649680409323 30.919113445218557 C89.28222792833267 31.018423673325245, 88.66795905257213 31.117733901431933, 87.90313059306196 31.24138543543225 M89.89649680409323 30.919113445218557 C89.25271683570138 31.02319479791993, 88.60893686730952 31.12727615062131, 87.90313059306196 31.24138543543225 M87.90313059306196 31.24138543543225 C87.19174725596221 31.310011730398625, 86.48036391886247 31.378638025365003, 85.89321192939245 31.435279871635593 M87.90313059306196 31.24138543543225 C87.39013330063668 31.290873667263007, 86.87713600821141 31.34036189909376, 85.89321192939245 31.435279871635593 M85.89321192939245 31.435279871635593 C85.41534464211357 31.45060414542638, 84.93747735483468 31.465928419217164, 83.875 31.5 M85.89321192939245 31.435279871635593 C85.20581871050473 31.45732323423559, 84.518425491617 31.479366596835586, 83.875 31.5 M83.875 31.5 C83.875 31.5, 83.875 31.5, 83.875 31.5 M83.875 31.5 C83.875 31.5, 83.875 31.5, 83.875 31.5 M83.875 31.5 C42.40802239302507 31.5, 0.9410447860501421 31.5, -83.875 31.5 M83.875 31.5 C34.32596369704903 31.5, -15.223072605901933 31.5, -83.875 31.5 M-83.875 31.5 C-84.5720594442177 31.47764666036784, -85.26911888843541 31.455293320735674, -85.89321192939244 31.435279871635593 M-83.875 31.5 C-84.63865620111959 31.475511031996717, -85.40231240223919 31.451022063993435, -85.89321192939244 31.435279871635593 M-85.89321192939244 31.435279871635593 C-86.48392633255627 31.37829436360039, -87.0746407357201 31.321308855565185, -87.90313059306195 31.24138543543225 M-85.89321192939244 31.435279871635593 C-86.34396059662396 31.391796689812352, -86.79470926385548 31.34831350798911, -87.90313059306195 31.24138543543225 M-87.90313059306195 31.24138543543225 C-88.56161794346022 31.134926307265527, -89.22010529385848 31.028467179098808, -89.89649680409323 30.919113445218557 M-87.90313059306195 31.24138543543225 C-88.68316459463232 31.115275587312382, -89.46319859620267 30.98916573919251, -89.89649680409323 30.919113445218557 M-89.89649680409323 30.919113445218557 C-90.44609479354239 30.79367129058884, -90.99569278299154 30.668229135959123, -91.86511939314947 30.469788185729428 M-89.89649680409323 30.919113445218557 C-90.6469439343353 30.747828784865987, -91.39739106457738 30.576544124513422, -91.86511939314947 30.469788185729428 M-91.86511939314947 30.469788185729428 C-92.57004736671041 30.260569263418983, -93.27497534027135 30.051350341108538, -93.80090886774403 29.89525603083607 M-91.86511939314947 30.469788185729428 C-92.36089986331338 30.322643144589573, -92.8566803334773 30.175498103449716, -93.80090886774403 29.89525603083607 M-93.80090886774403 29.89525603083607 C-94.26427023390735 29.724734764822454, -94.72763160007067 29.554213498808835, -95.69591065370028 29.197877856399685 M-93.80090886774403 29.89525603083607 C-94.26262540218185 29.72534007810209, -94.7243419366197 29.555424125368113, -95.69591065370028 29.197877856399685 M-95.69591065370028 29.197877856399685 C-96.33850030810642 28.91342247813892, -96.98108996251257 28.628967099878157, -97.54233778220308 28.380519338926206 M-95.69591065370028 29.197877856399685 C-96.2322910413811 28.960438169932264, -96.76867142906192 28.72299848346484, -97.54233778220308 28.380519338926206 M-97.54233778220308 28.380519338926206 C-97.95740458506282 28.163979253737253, -98.37247138792256 27.947439168548303, -99.33260288812403 27.446539179886773 M-97.54233778220308 28.380519338926206 C-98.16676968572 28.05475361482915, -98.79120158923693 27.728987890732093, -99.33260288812403 27.446539179886773 M-99.33260288812403 27.446539179886773 C-99.72903773324654 27.206218047063764, -100.12547257836906 26.965896914240755, -101.05934938813226 26.399775304092994 M-99.33260288812403 27.446539179886773 C-99.82710644541032 27.146768217434353, -100.32161000269662 26.846997254981936, -101.05934938813226 26.399775304092994 M-101.05934938813226 26.399775304092994 C-101.55461238922526 26.05430127412029, -102.04987539031826 25.708827244147585, -102.7154817104733 25.244529088840636 M-101.05934938813226 26.399775304092994 C-101.5416033309538 26.0633758300174, -102.02385727377536 25.7269763559418, -102.7154817104733 25.244529088840636 M-102.7154817104733 25.244529088840636 C-103.17684955905288 24.876600507112492, -103.63821740763247 24.508671925384345, -104.29419445219533 23.98554768862774 M-102.7154817104733 25.244529088840636 C-103.20165822676738 24.85681625479656, -103.68783474306144 24.469103420752486, -104.29419445219533 23.98554768862774 M-104.29419445219533 23.98554768862774 C-104.62764425110784 23.682717403853616, -104.96109405002035 23.379887119079488, -105.7890003440098 22.628004528078435 M-104.29419445219533 23.98554768862774 C-104.84341609567453 23.486759123628307, -105.39263773915373 22.987970558628877, -105.7890003440098 22.628004528078435 M-105.7890003440098 22.628004528078435 C-106.34059855765294 22.05843408543633, -106.89219677129608 21.488863642794225, -107.19375690787244 21.177478043231478 M-105.7890003440098 22.628004528078435 C-106.19118903986134 22.212711679305706, -106.59337773571286 21.79741883053298, -107.19375690787244 21.177478043231478 M-107.19375690787244 21.177478043231478 C-107.54448226481131 20.765496082132927, -107.89520762175016 20.35351412103438, -108.50269169774293 19.639928758550113 M-107.19375690787244 21.177478043231478 C-107.58525423022202 20.717603011570944, -107.9767515525716 20.257727979910406, -108.50269169774293 19.639928758550113 M-108.50269169774293 19.639928758550113 C-108.95388851092508 19.03536613376132, -109.40508532410723 18.430803508972524, -109.7104260198041 18.021674793848355 M-108.50269169774293 19.639928758550113 C-108.88679359985422 19.12526720212413, -109.27089550196551 18.61060564569815, -109.7104260198041 18.021674793848355 M-109.7104260198041 18.021674793848355 C-110.10489533522906 17.415663995512855, -110.49936465065402 16.809653197177358, -110.8119970346684 16.329365901781557 M-109.7104260198041 18.021674793848355 C-110.12752021789093 17.380906100112565, -110.54461441597775 16.740137406376775, -110.8119970346684 16.329365901781557 M-110.8119970346684 16.329365901781557 C-111.18582944759804 15.665588597988341, -111.5596618605277 15.001811294195127, -111.8028781507495 14.569956142586314 M-110.8119970346684 16.329365901781557 C-111.076653689206 15.859441212257757, -111.34131034374359 15.389516522733958, -111.8028781507495 14.569956142586314 M-111.8028781507495 14.569956142586314 C-112.02889576663635 14.100625727195006, -112.2549133825232 13.631295311803697, -112.67899762499809 12.750675308355417 M-111.8028781507495 14.569956142586314 C-112.12217207722519 13.90693547246397, -112.44146600370087 13.243914802341628, -112.67899762499809 12.750675308355417 M-112.67899762499809 12.750675308355417 C-112.85491350291724 12.31615968879297, -113.03082938083641 11.881644069230525, -113.43675529456745 10.878999214271209 M-112.67899762499809 12.750675308355417 C-112.86573378074308 12.289433393367306, -113.05246993648808 11.828191478379196, -113.43675529456745 10.878999214271209 M-113.43675529456745 10.878999214271209 C-113.60525344845142 10.37150962130766, -113.77375160233541 9.86402002834411, -114.07303737065482 8.962618978877522 M-113.43675529456745 10.878999214271209 C-113.6092355755129 10.35951608906431, -113.78171585645833 9.84003296385741, -114.07303737065482 8.962618978877522 M-114.07303737065482 8.962618978877522 C-114.22644860974667 8.377595435368672, -114.37985984883852 7.792571891859823, -114.58522923372743 7.009409419623911 M-114.07303737065482 8.962618978877522 C-114.23550519676148 8.343058743931525, -114.39797302286816 7.723498508985527, -114.58522923372743 7.009409419623911 M-114.58522923372743 7.009409419623911 C-114.72661522150106 6.283422254345433, -114.8680012092747 5.557435089066954, -114.97122617755518 5.027396693551461 M-114.58522923372743 7.009409419623911 C-114.73650534536074 6.232638558604438, -114.88778145699403 5.4558676975849645, -114.97122617755518 5.027396693551461 M-114.97122617755518 5.027396693551461 C-115.05474909003942 4.379609477788336, -115.13827200252365 3.7318222620252115, -115.22944205789975 3.024725316091999 M-114.97122617755518 5.027396693551461 C-115.06098974398368 4.331208198153102, -115.15075331041218 3.6350197027547426, -115.22944205789975 3.024725316091999 M-115.22944205789975 3.024725316091999 C-115.27398911638689 2.3308689224163848, -115.31853617487403 1.6370125287407706, -115.35881581032167 1.0096246935071416 M-115.22944205789975 3.024725316091999 C-115.26461446015682 2.4768867602858826, -115.29978686241391 1.929048204479766, -115.35881581032167 1.0096246935071416 M-115.35881581032167 1.0096246935071416 C-115.35881581032167 0.6030925294769174, -115.35881581032167 0.19656036544669309, -115.35881581032167 -1.0096246935071262 M-115.35881581032167 1.0096246935071416 C-115.35881581032167 0.20924012900320776, -115.35881581032167 -0.591144435500726, -115.35881581032167 -1.0096246935071262 M-115.35881581032167 -1.0096246935071262 C-115.32924676878248 -1.470186383180773, -115.29967772724329 -1.9307480728544202, -115.22944205789975 -3.024725316091956 M-115.35881581032167 -1.0096246935071262 C-115.32413718995846 -1.549772197742599, -115.28945856959525 -2.0899197019780713, -115.22944205789975 -3.024725316091956 M-115.22944205789975 -3.024725316091956 C-115.14151922209206 -3.7066374682886076, -115.05359638628438 -4.388549620485259, -114.97122617755518 -5.027396693551446 M-115.22944205789975 -3.024725316091956 C-115.12711538185872 -3.8183508087784848, -115.02478870581768 -4.611976301465014, -114.97122617755518 -5.027396693551446 M-114.97122617755518 -5.027396693551446 C-114.82873485170987 -5.759059536214732, -114.68624352586455 -6.490722378878019, -114.58522923372745 -7.009409419623896 M-114.97122617755518 -5.027396693551446 C-114.85395755234879 -5.629546299253559, -114.7366889271424 -6.2316959049556715, -114.58522923372745 -7.009409419623896 M-114.58522923372745 -7.009409419623896 C-114.4052429456252 -7.695775142708463, -114.22525665752296 -8.38214086579303, -114.07303737065482 -8.962618978877506 M-114.58522923372745 -7.009409419623896 C-114.46234691779166 -7.478012947819638, -114.3394646018559 -7.946616476015381, -114.07303737065482 -8.962618978877506 M-114.07303737065482 -8.962618978877506 C-113.924144031601 -9.411061993175661, -113.77525069254719 -9.859505007473816, -113.43675529456746 -10.878999214271168 M-114.07303737065482 -8.962618978877506 C-113.83299058590569 -9.685601648280677, -113.59294380115657 -10.408584317683848, -113.43675529456746 -10.878999214271168 M-113.43675529456746 -10.878999214271168 C-113.21530175736892 -11.425993732664438, -112.99384822017038 -11.972988251057709, -112.67899762499809 -12.750675308355401 M-113.43675529456746 -10.878999214271168 C-113.21374364326276 -11.429842304630728, -112.99073199195807 -11.980685394990289, -112.67899762499809 -12.750675308355401 M-112.67899762499809 -12.750675308355401 C-112.39981282919454 -13.330408510439147, -112.120628033391 -13.910141712522893, -111.8028781507495 -14.5699561425863 M-112.67899762499809 -12.750675308355401 C-112.39561164435139 -13.33913236065691, -112.11222566370469 -13.927589412958419, -111.8028781507495 -14.5699561425863 M-111.8028781507495 -14.5699561425863 C-111.55177818874415 -15.015809551755138, -111.30067822673878 -15.461662960923977, -110.8119970346684 -16.329365901781546 M-111.8028781507495 -14.5699561425863 C-111.45777434010166 -15.182722903941743, -111.11267052945381 -15.795489665297186, -110.8119970346684 -16.329365901781546 M-110.8119970346684 -16.329365901781546 C-110.47742866110855 -16.843352767757146, -110.1428602875487 -17.35733963373275, -109.71042601980412 -18.021674793848344 M-110.8119970346684 -16.329365901781546 C-110.45750552611769 -16.87396005321395, -110.10301401756698 -17.41855420464635, -109.71042601980412 -18.021674793848344 M-109.71042601980412 -18.021674793848344 C-109.3811442704526 -18.46288233979489, -109.05186252110109 -18.90408988574144, -108.50269169774295 -19.639928758550102 M-109.71042601980412 -18.021674793848344 C-109.35296834554518 -18.500635512291264, -108.99551067128624 -18.979596230734185, -108.50269169774295 -19.639928758550102 M-108.50269169774295 -19.639928758550102 C-107.98881640742219 -20.243555914893218, -107.47494111710145 -20.847183071236334, -107.19375690787246 -21.177478043231467 M-108.50269169774295 -19.639928758550102 C-108.05263792489987 -20.168587528916717, -107.6025841520568 -20.69724629928333, -107.19375690787246 -21.177478043231467 M-107.19375690787246 -21.177478043231467 C-106.74690316725575 -21.638891217792608, -106.30004942663905 -22.10030439235375, -105.78900034400984 -22.628004528078403 M-107.19375690787246 -21.177478043231467 C-106.87783250652102 -21.503695925502555, -106.56190810516958 -21.829913807773647, -105.78900034400984 -22.628004528078403 M-105.78900034400984 -22.628004528078403 C-105.47312415770116 -22.914874922858033, -105.1572479713925 -23.201745317637663, -104.29419445219536 -23.98554768862771 M-105.78900034400984 -22.628004528078403 C-105.27363568855382 -23.096045072361985, -104.75827103309781 -23.56408561664557, -104.29419445219536 -23.98554768862771 M-104.29419445219536 -23.98554768862771 C-103.74357661035101 -24.424650764942434, -103.19295876850667 -24.86375384125716, -102.71548171047331 -25.244529088840626 M-104.29419445219536 -23.98554768862771 C-103.73673333521934 -24.430108094752743, -103.17927221824334 -24.874668500877775, -102.71548171047331 -25.244529088840626 M-102.71548171047331 -25.244529088840626 C-102.17201116619438 -25.623630614068926, -101.62854062191546 -26.002732139297223, -101.0593493881323 -26.39977530409297 M-102.71548171047331 -25.244529088840626 C-102.06303805241623 -25.699645540870502, -101.41059439435915 -26.154761992900376, -101.0593493881323 -26.39977530409297 M-101.0593493881323 -26.39977530409297 C-100.55545892527144 -26.70523666386827, -100.05156846241059 -27.01069802364357, -99.33260288812404 -27.446539179886763 M-101.0593493881323 -26.39977530409297 C-100.58087482675145 -26.68982939503067, -100.1024002653706 -26.979883485968372, -99.33260288812404 -27.446539179886763 M-99.33260288812404 -27.446539179886763 C-98.84146633944361 -27.70276480274537, -98.35032979076318 -27.95899042560398, -97.54233778220309 -28.3805193389262 M-99.33260288812404 -27.446539179886763 C-98.90740844516048 -27.668362848430814, -98.48221400219693 -27.89018651697486, -97.54233778220309 -28.3805193389262 M-97.54233778220309 -28.3805193389262 C-97.06470013009522 -28.591955358896815, -96.58706247798735 -28.803391378867435, -95.6959106537003 -29.19787785639968 M-97.54233778220309 -28.3805193389262 C-96.91981071904284 -28.656093603178032, -96.29728365588258 -28.931667867429866, -95.6959106537003 -29.19787785639968 M-95.6959106537003 -29.19787785639968 C-94.97863019111396 -29.46184369709936, -94.26134972852763 -29.725809537799044, -93.80090886774407 -29.895256030836055 M-95.6959106537003 -29.19787785639968 C-95.09279377993082 -29.419830441098117, -94.48967690616132 -29.641783025796553, -93.80090886774407 -29.895256030836055 M-93.80090886774407 -29.895256030836055 C-93.32965126883471 -30.03512281251074, -92.85839366992535 -30.174989594185423, -91.86511939314951 -30.469788185729417 M-93.80090886774407 -29.895256030836055 C-93.10629712270517 -30.101413150672148, -92.41168537766629 -30.307570270508236, -91.86511939314951 -30.469788185729417 M-91.86511939314951 -30.469788185729417 C-91.44419784890918 -30.565860781432498, -91.02327630466885 -30.661933377135576, -89.89649680409325 -30.919113445218553 M-91.86511939314951 -30.469788185729417 C-91.41043331745747 -30.57356731540219, -90.95574724176545 -30.677346445074964, -89.89649680409325 -30.919113445218553 M-89.89649680409325 -30.919113445218553 C-89.13610664975549 -31.042047428458165, -88.37571649541772 -31.164981411697777, -87.90313059306196 -31.24138543543225 M-89.89649680409325 -30.919113445218553 C-89.30223581990558 -31.015188952579255, -88.7079748357179 -31.111264459939957, -87.90313059306196 -31.24138543543225 M-87.90313059306196 -31.24138543543225 C-87.23526934384601 -31.305813206923442, -86.56740809463008 -31.37024097841464, -85.89321192939246 -31.435279871635593 M-87.90313059306196 -31.24138543543225 C-87.10185524390769 -31.318683504690565, -86.30057989475344 -31.395981573948877, -85.89321192939246 -31.435279871635593 M-85.89321192939246 -31.435279871635593 C-85.09779408376781 -31.460787373757864, -84.30237623814317 -31.48629487588013, -83.87500000000001 -31.5 M-85.89321192939246 -31.435279871635593 C-85.41105375138287 -31.4507417459404, -84.92889557337325 -31.46620362024521, -83.87500000000001 -31.5 M-83.87500000000001 -31.5 C-83.87500000000001 -31.5, -83.875 -31.5, -83.875 -31.5 M-83.87500000000001 -31.5 C-83.87500000000001 -31.5, -83.875 -31.5, -83.875 -31.5" stroke="#9370DB" stroke-width="1.3" fill="none" stroke-dasharray="0 0" style=""/></g><g class="label" style="" transform="translate(-100, -24)"><rect/><foreignObject width="200" height="48"><div xmlns="http://www.w3.org/1999/xhtml" style="display: table; white-space: break-spaces; line-height: 1.5; max-width: 200px; text-align: center; width: 200px;"><span class="nodeLabel"><p>Section 26A: “Voluntarily” (eff: 1872-01-01)</p></span></div></foreignObject></g></g><g class="node default" id="my-svg-flowchart-ILLUS2-1" data-look="classic" transform="translate(138, 208)"><rect class="basic label-container" style="" x="-130" y="-63" width="260" height="126"/><g class="label" style="" transform="translate(-100, -48)"><rect/><foreignObject width="200" height="96"><div xmlns="http://www.w3.org/1999/xhtml" style="display: table; white-space: break-spaces; line-height: 1.5; max-width: 200px; text-align: center; width: 200px;"><span class="nodeLabel"><p>Illustration example: A sets fire, by night, to an inhabited house in a large...</p></span></div></foreignObject></g></g></g></g></g><defs><filter id="my-svg-drop-shadow" height="130%" width="130%"><feDropShadow dx="4" dy="4" stdDeviation="0" flood-opacity="0.06" flood-color="#000000"/></filter></defs><defs><filter id="my-svg-drop-shadow-small" height="150%" width="150%"><feDropShadow dx="2" dy="2" stdDeviation="0" flood-opacity="0.06" flood-color="#000000"/></filter></defs></svg>