<svg class="yuho-mermaid-svg" id="my-svg" width="100%" xmlns="http://www.w3.org/2000/svg" xmlns:xlink="http://www.w3.org/1999/xlink" class="flowchart" style="max-width: 276px; background-color: transparent;" viewBox="0 0 276 665" role="graphics-document document" aria-roledescription="flowchart-v2"><style>#my-svg{font-family:"trebuchet ms",verdana,arial,sans-serif;font-size:16px;fill:#333;}@keyframes edge-animation-frame{from{stroke-dashoffset:0;}}@keyframes dash{to{stroke-dashoffset:0;}}#my-svg .edge-animation-slow{stroke-dasharray:9,5!important;stroke-dashoffset:900;animation:dash 50s linear infinite;stroke-linecap:round;}#my-svg .edge-animation-fast{stroke-dasharray:9,5!important;stroke-dashoffset:900;animation:dash 20s linear infinite;stroke-linecap:round;}#my-svg .error-icon{fill:#552222;}#my-svg .error-text{fill:#552222;stroke:#552222;}#my-svg .edge-thickness-normal{stroke-width:1px;}#my-svg .edge-thickness-thick{stroke-width:3.5px;}#my-svg .edge-pattern-solid{stroke-dasharray:0;}#my-svg .edge-thickness-invisible{stroke-width:0;fill:none;}#my-svg .edge-pattern-dashed{stroke-dasharray:3;}#my-svg .edge-pattern-dotted{stroke-dasharray:2;}#my-svg .marker{fill:#333333;stroke:#333333;}#my-svg .marker.cross{stroke:#333333;}#my-svg svg{font-family:"trebuchet ms",verdana,arial,sans-serif;font-size:16px;}#my-svg p{margin:0;}#my-svg .label{font-family:"trebuchet ms",verdana,arial,sans-serif;color:#333;}#my-svg .cluster-label text{fill:#333;}#my-svg .cluster-label span{color:#333;}#my-svg .cluster-label span p{background-color:transparent;}#my-svg .label text,#my-svg span{fill:#333;color:#333;}#my-svg .node rect,#my-svg .node circle,#my-svg .node ellipse,#my-svg .node polygon,#my-svg .node path{fill:#ECECFF;stroke:#9370DB;stroke-width:1px;}#my-svg .rough-node .label text,#my-svg .node .label text,#my-svg .image-shape .label,#my-svg .icon-shape .label{text-anchor:middle;}#my-svg .node .katex path{fill:#000;stroke:#000;stroke-width:1px;}#my-svg .rough-node .label,#my-svg .node .label,#my-svg .image-shape .label,#my-svg .icon-shape .label{text-align:center;}#my-svg .node.clickable{cursor:pointer;}#my-svg .root .anchor path{fill:#333333!important;stroke-width:0;stroke:#333333;}#my-svg .arrowheadPath{fill:#333333;}#my-svg .edgePath .path{stroke:#333333;stroke-width:1px;}#my-svg .flowchart-link{stroke:#333333;fill:none;}#my-svg .edgeLabel{background-color:rgba(232,232,232, 0.8);text-align:center;}#my-svg .edgeLabel p{background-color:rgba(232,232,232, 0.8);}#my-svg .edgeLabel rect{opacity:0.5;background-color:rgba(232,232,232, 0.8);fill:rgba(232,232,232, 0.8);}#my-svg .labelBkg{background-color:rgba(232, 232, 232, 0.5);}#my-svg .cluster rect{fill:#ffffde;stroke:#aaaa33;stroke-width:1px;}#my-svg .cluster text{fill:#333;}#my-svg .cluster span{color:#333;}#my-svg div.mermaidTooltip{position:absolute;text-align:center;max-width:200px;padding:2px;font-family:"trebuchet ms",verdana,arial,sans-serif;font-size:12px;background:hsl(80, 100%, 96.2745098039%);border:1px solid #aaaa33;border-radius:2px;pointer-events:none;z-index:100;}#my-svg .flowchartTitleText{text-anchor:middle;font-size:18px;fill:#333;}#my-svg rect.text{fill:none;stroke-width:0;}#my-svg .icon-shape,#my-svg .image-shape{background-color:rgba(232,232,232, 0.8);text-align:center;}#my-svg .icon-shape p,#my-svg .image-shape p{background-color:rgba(232,232,232, 0.8);padding:2px;}#my-svg .icon-shape .label rect,#my-svg .image-shape .label rect{opacity:0.5;background-color:rgba(232,232,232, 0.8);fill:rgba(232,232,232, 0.8);}#my-svg .label-icon{display:inline-block;height:1em;overflow:visible;vertical-align:-0.125em;}#my-svg .node .label-icon path{fill:currentColor;stroke:revert;stroke-width:revert;}#my-svg .node .neo-node{stroke:#9370DB;}#my-svg [data-look="neo"].node rect,#my-svg [data-look="neo"].cluster rect,#my-svg [data-look="neo"].node polygon{stroke:#9370DB;filter:drop-shadow(1px 2px 2px rgba(185, 185, 185, 1));}#my-svg [data-look="neo"].node path{stroke:#9370DB;stroke-width:1px;}#my-svg [data-look="neo"].node .outer-path{filter:drop-shadow(1px 2px 2px rgba(185, 185, 185, 1));}#my-svg [data-look="neo"].node .neo-line path{stroke:#9370DB;filter:none;}#my-svg [data-look="neo"].node circle{stroke:#9370DB;filter:drop-shadow(1px 2px 2px rgba(185, 185, 185, 1));}#my-svg [data-look="neo"].node circle .state-start{fill:#000000;}#my-svg [data-look="neo"].icon-shape .icon{fill:#9370DB;filter:drop-shadow(1px 2px 2px rgba(185, 185, 185, 1));}#my-svg [data-look="neo"].icon-shape .icon-neo path{stroke:#9370DB;filter:drop-shadow(1px 2px 2px rgba(185, 185, 185, 1));}#my-svg :root{--mermaid-font-family:"trebuchet ms",verdana,arial,sans-serif;}</style><g><marker id="my-svg_flowchart-v2-pointEnd" class="marker flowchart-v2" viewBox="0 0 10 10" refX="5" refY="5" markerUnits="userSpaceOnUse" markerWidth="8" markerHeight="8" orient="auto"><path d="M 0 0 L 10 5 L 0 10 z" class="arrowMarkerPath" style="stroke-width: 1; stroke-dasharray: 1, 0;"/></marker><marker id="my-svg_flowchart-v2-pointStart" class="marker flowchart-v2" viewBox="0 0 10 10" refX="4.5" refY="5" markerUnits="userSpaceOnUse" markerWidth="8" markerHeight="8" orient="auto"><path d="M 0 5 L 10 10 L 10 0 z" class="arrowMarkerPath" style="stroke-width: 1; stroke-dasharray: 1, 0;"/></marker><marker id="my-svg_flowchart-v2-pointEnd-margin" class="marker flowchart-v2" viewBox="0 0 11.5 14" refX="11.5" refY="7" markerUnits="userSpaceOnUse" markerWidth="10.5" markerHeight="14" orient="auto"><path d="M 0 0 L 11.5 7 L 0 14 z" class="arrowMarkerPath" style="stroke-width: 0; stroke-dasharray: 1, 0;"/></marker><marker id="my-svg_flowchart-v2-pointStart-margin" class="marker flowchart-v2" viewBox="0 0 11.5 14" refX="1" refY="7" markerUnits="userSpaceOnUse" markerWidth="11.5" markerHeight="14" orient="auto"><polygon points="0,7 11.5,14 11.5,0" class="arrowMarkerPath" style="stroke-width: 0; stroke-dasharray: 1, 0;"/></marker><marker id="my-svg_flowchart-v2-circleEnd" class="marker flowchart-v2" viewBox="0 0 10 10" refX="11" refY="5" markerUnits="userSpaceOnUse" markerWidth="11" markerHeight="11" orient="auto"><circle cx="5" cy="5" r="5" class="arrowMarkerPath" style="stroke-width: 1; stroke-dasharray: 1, 0;"/></marker><marker id="my-svg_flowchart-v2-circleStart" class="marker flowchart-v2" viewBox="0 0 10 10" refX="-1" refY="5" markerUnits="userSpaceOnUse" markerWidth="11" markerHeight="11" orient="auto"><circle cx="5" cy="5" r="5" class="arrowMarkerPath" style="stroke-width: 1; stroke-dasharray: 1, 0;"/></marker><marker id="my-svg_flowchart-v2-circleEnd-margin" class="marker flowchart-v2" viewBox="0 0 10 10" refY="5" refX="12.25" markerUnits="userSpaceOnUse" markerWidth="14" markerHeight="14" orient="auto"><circle cx="5" cy="5" r="5" class="arrowMarkerPath" style="stroke-width: 0; stroke-dasharray: 1, 0;"/></marker><marker id="my-svg_flowchart-v2-circleStart-margin" class="marker flowchart-v2" viewBox="0 0 10 10" refX="-2" refY="5" markerUnits="userSpaceOnUse" markerWidth="14" markerHeight="14" orient="auto"><circle cx="5" cy="5" r="5" class="arrowMarkerPath" style="stroke-width: 0; stroke-dasharray: 1, 0;"/></marker><marker id="my-svg_flowchart-v2-crossEnd" class="marker cross flowchart-v2" viewBox="0 0 11 11" refX="12" refY="5.2" markerUnits="userSpaceOnUse" markerWidth="11" markerHeight="11" orient="auto"><path d="M 1,1 l 9,9 M 10,1 l -9,9" class="arrowMarkerPath" style="stroke-width: 2; stroke-dasharray: 1, 0;"/></marker><marker id="my-svg_flowchart-v2-crossStart" class="marker cross flowchart-v2" viewBox="0 0 11 11" refX="-1" refY="5.2" markerUnits="userSpaceOnUse" markerWidth="11" markerHeight="11" orient="auto"><path d="M 1,1 l 9,9 M 10,1 l -9,9" class="arrowMarkerPath" style="stroke-width: 2; stroke-dasharray: 1, 0;"/></marker><marker id="my-svg_flowchart-v2-crossEnd-margin" class="marker cross flowchart-v2" viewBox="0 0 15 15" refX="17.7" refY="7.5" markerUnits="userSpaceOnUse" markerWidth="12" markerHeight="12" orient="auto"><path d="M 1,1 L 14,14 M 1,14 L 14,1" class="arrowMarkerPath" style="stroke-width: 2.5;"/></marker><marker id="my-svg_flowchart-v2-crossStart-margin" class="marker cross flowchart-v2" viewBox="0 0 15 15" refX="-3.5" refY="7.5" markerUnits="userSpaceOnUse" markerWidth="12" markerHeight="12" orient="auto"><path d="M 1,1 L 14,14 M 1,14 L 14,1" class="arrowMarkerPath" style="stroke-width: 2.5; stroke-dasharray: 1, 0;"/></marker><g class="root"><g class="clusters"/><g class="edgePaths"><path d="M138.5,95.5L138.417,99.583C138.333,103.667,138.167,111.833,138.154,119.5C138.141,127.167,138.281,134.334,138.351,137.917L138.422,141.501" id="my-svg-L_START1_GRP2_0" class="edge-thickness-normal edge-pattern-solid edge-thickness-normal edge-pattern-solid flowchart-link" style=";" data-edge="true" data-et="edge" data-id="L_START1_GRP2_0" data-points="W3sieCI6MTM4LjUsInkiOjk1LjQ5OTk5OTk5OTk5OTk5fSx7IngiOjEzOCwieSI6MTIwfSx7IngiOjEzOC41LCJ5IjoxNDUuNX1d" data-look="classic" marker-end="url(#my-svg_flowchart-v2-pointEnd)"/><path d="M138.5,184.5L138.417,188.583C138.333,192.667,138.167,200.833,138.083,208.417C138,216,138,223,138,226.5L138,230" id="my-svg-L_GRP2_ELEM3_0" class="edge-thickness-normal edge-pattern-solid edge-thickness-normal edge-pattern-solid flowchart-link" style=";" data-edge="true" data-et="edge" data-id="L_GRP2_ELEM3_0" data-points="W3sieCI6MTM4LjUsInkiOjE4NC41fSx7IngiOjEzOCwieSI6MjA5fSx7IngiOjEzOCwieSI6MjM0fV0=" data-look="classic" marker-end="url(#my-svg_flowchart-v2-pointEnd)"/><path d="M138,336L138,340.167C138,344.333,138,352.667,138,360.333C138,368,138,375,138,378.5L138,382" id="my-svg-L_ELEM3_ELEM4_0" class="edge-thickness-normal edge-pattern-solid edge-thickness-normal edge-pattern-solid flowchart-link" style=";" data-edge="true" data-et="edge" data-id="L_ELEM3_ELEM4_0" data-points="W3sieCI6MTM4LCJ5IjozMzZ9LHsieCI6MTM4LCJ5IjozNjF9LHsieCI6MTM4LCJ5IjozODZ9XQ==" data-look="classic" marker-end="url(#my-svg_flowchart-v2-pointEnd)"/><path d="M138,440L138,444.167C138,448.333,138,456.667,138,464.333C138,472,138,479,138,482.5L138,486" id="my-svg-L_ELEM4_ELEM5_0" class="edge-thickness-normal edge-pattern-solid edge-thickness-normal edge-pattern-solid flowchart-link" style=";" data-edge="true" data-et="edge" data-id="L_ELEM4_ELEM5_0" data-points="W3sieCI6MTM4LCJ5Ijo0NDB9LHsieCI6MTM4LCJ5Ijo0NjV9LHsieCI6MTM4LCJ5Ijo0OTB9XQ==" data-look="classic" marker-end="url(#my-svg_flowchart-v2-pointEnd)"/><path d="M138,568L138,572.167C138,576.333,138,584.667,138.07,592.417C138.141,600.167,138.281,607.334,138.351,610.917L138.422,614.501" id="my-svg-L_ELEM5_PENALTY6_0" class="edge-thickness-normal edge-pattern-solid edge-thickness-normal edge-pattern-solid flowchart-link" style=";" data-edge="true" data-et="edge" data-id="L_ELEM5_PENALTY6_0" data-points="W3sieCI6MTM4LCJ5Ijo1Njh9LHsieCI6MTM4LCJ5Ijo1OTN9LHsieCI6MTM4LjUsInkiOjYxOC41fV0=" data-look="classic" marker-end="url(#my-svg_flowchart-v2-pointEnd)"/></g><g class="edgeLabels"><g class="edgeLabel"><g class="label" data-id="L_START1_GRP2_0" transform="translate(0, 0)"><foreignObject width="0" height="0"><div xmlns="http://www.w3.org/1999/xhtml" class="labelBkg" style="display: table-cell; white-space: nowrap; line-height: 1.5; max-width: 200px; text-align: center;"><span class="edgeLabel"></span></div></foreignObject></g></g><g class="edgeLabel"><g class="label" data-id="L_GRP2_ELEM3_0" transform="translate(0, 0)"><foreignObject width="0" height="0"><div xmlns="http://www.w3.org/1999/xhtml" class="labelBkg" style="display: table-cell; white-space: nowrap; line-height: 1.5; max-width: 200px; text-align: center;"><span class="edgeLabel"></span></div></foreignObject></g></g><g class="edgeLabel"><g class="label" data-id="L_ELEM3_ELEM4_0" transform="translate(0, 0)"><foreignObject width="0" height="0"><div xmlns="http://www.w3.org/1999/xhtml" class="labelBkg" style="display: table-cell; white-space: nowrap; line-height: 1.5; max-width: 200px; text-align: center;"><span class="edgeLabel"></span></div></foreignObject></g></g><g class="edgeLabel"><g class="label" data-id="L_ELEM4_ELEM5_0" transform="translate(0, 0)"><foreignObject width="0" height="0"><div xmlns="http://www.w3.org/1999/xhtml" class="labelBkg" style="display: table-cell; white-space: nowrap; line-height: 1.5; max-width: 200px; text-align: center;"><span class="edgeLabel"></span></div></foreignObject></g></g><g class="edgeLabel"><g class="label" data-id="L_ELEM5_PENALTY6_0" transform="translate(0, 0)"><foreignObject width="0" height="0"><div xmlns="http://www.w3.org/1999/xhtml" class="labelBkg" style="display: table-cell; white-space: nowrap; line-height: 1.5; max-width: 200px; text-align: center;"><span class="edgeLabel"></span></div></foreignObject></g></g></g><g class="nodes"><g class="node default" id="my-svg-flowchart-START1-0" data-look="classic" transform="translate(138, 51.5)"><g class="basic label-container outer-path"><path d="M-74.875 -43.5 C-15.924106394687733 -43.5, 43.02678721062453 -43.5, 74.875 -43.5 C74.875 -43.5, 74.875 -43.5, 74.875 -43.5 C75.70392913341857 -43.47341785610394, 76.53285826683712 -43.446835712207886, 77.66205456916101 -43.41062458463963 C78.7634954119077 -43.30436991121628, 79.86493625465438 -43.198115237792926, 80.43765653327601 -43.14286560131121 C81.09820893665908 -43.036072611392626, 81.75876134004214 -42.92927962147405, 83.19040034850968 -42.697823329111344 C84.2635441663749 -42.45288525560148, 85.33668798424011 -42.20794718209161, 85.90897440006356 -42.07732654219778 C86.79873083243521 -41.813251503496694, 87.68848726480688 -41.54917646479561, 88.58220748402749 -41.28392499496409 C89.19235880540181 -41.05938366852135, 89.80251012677613 -40.834842342078616, 91.19911471225277 -40.32087894455194 C91.96021460442289 -39.98396259951436, 92.72131449659301 -39.647046254476784, 93.74894265161377 -39.192145753755234 C94.69562009743325 -38.69826473664706, 95.64229754325271 -38.20438371953889, 96.22121351217129 -37.90236362936744 C97.04697735608046 -37.40178073446271, 97.87274119998963 -36.90119783955798, 98.60576820265887 -36.45683256279507 C99.25688064272639 -36.00264471080722, 99.90799308279391 -35.548456858819364, 100.8928080763679 -34.86149255125611 C101.53717760212054 -34.34762500186161, 102.18154712787317 -33.8337574524671, 103.07293519588879 -33.12289918905735 C103.73137826171359 -32.524918618124126, 104.38982132753839 -31.9269380471909, 105.13719095125165 -31.248196729251152 C105.6043619965236 -30.76580426955174, 106.07153304179553 -30.283411809852332, 107.07709287277622 -29.24508872636729 C107.68134729306172 -28.5352971012494, 108.28560171334722 -27.825505476131514, 108.8846694873593 -27.12180638085491 C109.23052530813648 -26.658391089126948, 109.57638112891365 -26.194975797398982, 110.55249307496757 -24.88707471531439 C111.0581092162259 -24.110312545397097, 111.56372535748424 -23.333550375479806, 112.07371019073256 -22.550076721507846 C112.40908551147665 -21.954583879092937, 112.74446083222075 -21.359091036678027, 113.44206982722551 -20.120415625476333 C113.75946618474514 -19.461335297892692, 114.07686254226478 -18.80225497030905, 114.65194910118784 -17.60807542582414 C115.07028697711112 -16.574772784281016, 115.48862485303441 -15.541470142737897, 115.69837635916457 -15.023379867326902 C116.01180444369557 -14.079384414703124, 116.32523252822655 -13.135388962079347, 116.57705160709475 -12.376950018449923 C116.76275821016351 -11.668770255197778, 116.94846481323229 -10.960590491945633, 117.28436417990932 -9.67966062709968 C117.42636739277805 -8.950504141408416, 117.56837060564679 -8.221347655717151, 117.81740757852859 -6.942595433952013 C117.9230614295845 -6.123165028875096, 118.02871528064041 -5.303734623798179, 118.17399141329012 -4.177001626984165 C118.21951456783263 -3.4679417493555587, 118.26503772237515 -2.758881871726953, 118.35265040472993 -1.3942436243669998 C118.35265040472993 -0.32031722273695573, 118.35265040472993 0.7536091788930883, 118.35265040472993 1.3942436243669891 C118.30929994926032 2.069461960164022, 118.2659494937907 2.744680295961055, 118.17399141329012 4.177001626984135 C118.0550554456208 5.099445505664171, 117.93611947795146 6.021889384344208, 117.81740757852859 6.942595433951983 C117.67540728294001 7.671736940026184, 117.53340698735144 8.400878446100386, 117.28436417990932 9.679660627099672 C117.03260085971951 10.639743281896623, 116.7808375395297 11.599825936693573, 116.57705160709475 12.376950018449895 C116.3162847378588 13.162338281030227, 116.05551786862284 13.947726543610557, 115.69837635916457 15.023379867326874 C115.45302573644227 15.629400648982543, 115.20767511371999 16.235421430638212, 114.65194910118785 17.60807542582413 C114.27332461365039 18.39429727546189, 113.89470012611294 19.180519125099654, 113.44206982722551 20.120415625476323 C113.07840810207492 20.766133843224004, 112.71474637692432 21.411852060971682, 112.07371019073256 22.550076721507835 C111.64285062976154 23.21199270915125, 111.21199106879052 23.873908696794665, 110.5524930749676 24.887074715314366 C110.08339316761423 25.51562585528715, 109.61429326026087 26.144176995259937, 108.8846694873593 27.121806380854903 C108.38276297514123 27.711374329395834, 107.88085646292318 28.300942277936766, 107.07709287277623 29.245088726367264 C106.48043266438299 29.861189378247428, 105.88377245598974 30.47729003012759, 105.13719095125167 31.24819672925114 C104.51703013961745 31.81141036982142, 103.89686932798324 32.3746240103917, 103.07293519588882 33.12289918905732 C102.5598838828706 33.532043958320536, 102.04683256985237 33.94118872758375, 100.89280807636791 34.861492551256106 C100.39681783613065 35.20747387177417, 99.90082759589339 35.55345519229223, 98.60576820265888 36.45683256279506 C97.69811584910431 37.00705675347712, 96.79046349554976 37.55728094415919, 96.22121351217129 37.90236362936744 C95.32142045493191 38.37178509098427, 94.42162739769253 38.84120655260109, 93.74894265161379 39.19214575375523 C93.10589246553575 39.476804995725956, 92.46284227945772 39.761464237696686, 91.1991147122528 40.32087894455194 C90.34355681482526 40.63573215949578, 89.48799891739773 40.95058537443962, 88.58220748402752 41.283924994964075 C87.76383600971687 41.52681335281995, 86.94546453540622 41.769701710675825, 85.90897440006361 42.077326542197774 C84.88065586461444 42.31203353750848, 83.85233732916525 42.5467405328192, 83.19040034850971 42.697823329111344 C82.31080028031656 42.840030246736404, 81.43120021212341 42.982237164361464, 80.43765653327604 43.1428656013112 C79.62555076406355 43.22120846816705, 78.81344499485105 43.29955133502289, 77.66205456916101 43.41062458463963 C76.73563302179977 43.44033312049336, 75.80921147443854 43.47004165634708, 74.87500000000001 43.5 C74.87500000000001 43.5, 74.875 43.5, 74.875 43.5 C16.209394581840186 43.5, -42.45621083631963 43.5, -74.87499999999999 43.5 C-75.73066191201019 43.47256058792671, -76.5863238240204 43.445121175853416, -77.66205456916099 43.41062458463963 C-78.60340419382491 43.31981371848686, -79.54475381848884 43.22900285233409, -80.43765653327603 43.1428656013112 C-81.33825792241652 42.99726335298305, -82.23885931155702 42.8516611046549, -83.1904003485097 42.697823329111344 C-84.20426338088062 42.46641570804727, -85.21812641325155 42.23500808698319, -85.90897440006356 42.07732654219778 C-86.54601253284099 41.88825696827084, -87.18305066561842 41.69918739434389, -88.58220748402748 41.283924994964096 C-89.3598208574682 40.99775608535868, -90.13743423090892 40.71158717575327, -91.19911471225278 40.32087894455194 C-91.97336847856802 39.97813976962613, -92.74762224488326 39.63540059470032, -93.74894265161377 39.192145753755234 C-94.62635765376949 38.734398909141724, -95.50377265592522 38.27665206452822, -96.22121351217127 37.90236362936745 C-96.91052269883478 37.484500349581616, -97.59983188549828 37.06663706979579, -98.60576820265884 36.456832562795086 C-99.27441130456126 35.99041608000133, -99.94305440646366 35.52399959720758, -100.89280807636788 34.86149255125612 C-101.68114278151924 34.23281660236545, -102.46947748667061 33.60414065347479, -103.07293519588879 33.12289918905736 C-103.66646785454975 32.583868532475066, -104.26000051321071 32.044837875892775, -105.13719095125164 31.24819672925117 C-105.53086070630516 30.84170038627043, -105.9245304613587 30.435204043289687, -107.07709287277623 29.245088726367282 C-107.79091920033746 28.40658770414518, -108.50474552789866 27.56808668192308, -108.88466948735929 27.121806380854917 C-109.25246038583197 26.629000083341676, -109.62025128430464 26.13619378582844, -110.55249307496757 24.887074715314395 C-110.93691398175106 24.296500971027704, -111.32133488853457 23.705927226741014, -112.07371019073254 22.550076721507864 C-112.53378778732815 21.73316236084388, -112.99386538392378 20.916248000179902, -113.44206982722551 20.120415625476337 C-113.74853482398863 19.484034502397222, -114.05499982075177 18.847653379318107, -114.65194910118784 17.608075425824147 C-115.00455127097862 16.7371412493417, -115.35715344076942 15.866207072859256, -115.69837635916457 15.023379867326907 C-115.93063679675171 14.323848434989683, -116.16289723433887 13.624317002652457, -116.57705160709475 12.37695001844991 C-116.82022934633677 11.44960790482116, -117.0634070855788 10.522265791192408, -117.28436417990932 9.679660627099686 C-117.43599661939012 8.901060097893216, -117.58762905887093 8.122459568686747, -117.81740757852859 6.942595433952017 C-117.92443102368888 6.112542727458402, -118.03145446884918 5.282490020964787, -118.17399141329011 4.17700162698419 C-118.21531708915406 3.5333208679182344, -118.25664276501799 2.889640108852279, -118.35265040472993 1.394243624367005 C-118.35265040472993 0.73157386615031, -118.35265040472993 0.06890410793361479, -118.35265040472993 -1.394243624366984 C-118.31675429015071 -1.953354583760516, -118.28085817557148 -2.5124655431540477, -118.17399141329012 -4.177001626984129 C-118.03598002610804 -5.247390692537451, -117.89796863892596 -6.317779758090772, -117.81740757852859 -6.942595433951997 C-117.6440321864706 -7.832841429267649, -117.4706567944126 -8.723087424583301, -117.28436417990932 -9.679660627099667 C-117.01369224107214 -10.711850039846233, -116.74302030223495 -11.7440394525928, -116.57705160709475 -12.37695001844989 C-116.24221559770395 -13.385422729861805, -115.90737958831315 -14.393895441273722, -115.6983763591646 -15.023379867326852 C-115.39564857427162 -15.771123348856069, -115.09292078937864 -16.518866830385285, -114.65194910118785 -17.608075425824126 C-114.40021664087745 -18.130803265870473, -114.14848418056704 -18.65353110591682, -113.44206982722551 -20.12041562547632 C-112.90523138656808 -21.073626637650392, -112.36839294591064 -22.02683764982446, -112.07371019073256 -22.55007672150785 C-111.6686851966484 -23.17230387686047, -111.26366020256425 -23.79453103221309, -110.55249307496757 -24.88707471531438 C-110.12943838121933 -25.45392946386156, -109.70638368747109 -26.02078421240874, -108.8846694873593 -27.121806380854903 C-108.50506944568632 -27.567706189658253, -108.12546940401334 -28.013605998461607, -107.07709287277623 -29.245088726367264 C-106.66788774840145 -29.667626613649748, -106.25868262402666 -30.090164500932232, -105.13719095125168 -31.248196729251127 C-104.50779604651365 -31.81979652885758, -103.87840114177563 -32.39139632846403, -103.07293519588883 -33.12289918905732 C-102.21060984438388 -33.81058070944118, -101.34828449287895 -34.49826222982504, -100.89280807636791 -34.861492551256106 C-100.36909820432282 -35.22680988695979, -99.84538833227774 -35.59212722266347, -98.6057682026589 -36.45683256279505 C-97.9449889183621 -36.85740084810586, -97.28420963406532 -37.25796913341668, -96.2212135121713 -37.902363629367436 C-95.25290021290279 -38.40753205736155, -94.28458691363426 -38.91270048535567, -93.74894265161379 -39.19214575375523 C-92.82447314176541 -39.60138098235145, -91.90000363191703 -40.01061621094767, -91.1991147122528 -40.320878944551936 C-90.28846172023897 -40.656007663597, -89.37780872822513 -40.991136382642075, -88.58220748402753 -41.283924994964075 C-87.88859262504485 -41.48978624425144, -87.19497776606217 -41.695647493538814, -85.90897440006361 -42.07732654219777 C-84.91168510869585 -42.30495131503164, -83.91439581732807 -42.53257608786551, -83.19040034850971 -42.69782332911134 C-82.21780145794769 -42.85506557512036, -81.24520256738566 -43.01230782112938, -80.43765653327604 -43.1428656013112 C-79.82820741913878 -43.201658424382224, -79.21875830500153 -43.26045124745325, -77.66205456916101 -43.41062458463963 C-76.83971527966828 -43.436995405067336, -76.01737599017555 -43.463366225495044, -74.87500000000001 -43.5 C-74.87500000000001 -43.5, -74.875 -43.5, -74.875 -43.5" stroke="none" stroke-width="0" fill="#ECECFF" style=""/><path d="M-74.875 -43.5 C-40.10231842055243 -43.5, -5.329636841104858 -43.5, 74.875 -43.5 M-74.875 -43.5 C-38.4055305236051 -43.5, -1.9360610472102024 -43.5, 74.875 -43.5 M74.875 -43.5 C74.875 -43.5, 74.875 -43.5, 74.875 -43.5 M74.875 -43.5 C74.875 -43.5, 74.875 -43.5, 74.875 -43.5 M74.875 -43.5 C75.59582192076748 -43.47688464399574, 76.31664384153495 -43.453769287991484, 77.66205456916101 -43.41062458463963 M74.875 -43.5 C75.7875674382632 -43.47073573845966, 76.70013487652638 -43.441471476919325, 77.66205456916101 -43.41062458463963 M77.66205456916101 -43.41062458463963 C78.40838379447865 -43.33862710186545, 79.1547130197963 -43.266629619091276, 80.43765653327601 -43.14286560131121 M77.66205456916101 -43.41062458463963 C78.53696599481121 -43.32622293164209, 79.41187742046141 -43.24182127864455, 80.43765653327601 -43.14286560131121 M80.43765653327601 -43.14286560131121 C81.33742741909582 -42.9973976223193, 82.23719830491562 -42.85192964332738, 83.19040034850968 -42.697823329111344 M80.43765653327601 -43.14286560131121 C81.40733851070425 -42.986094939196654, 82.37702048813249 -42.8293242770821, 83.19040034850968 -42.697823329111344 M83.19040034850968 -42.697823329111344 C83.84659796233471 -42.548050505845396, 84.50279557615973 -42.39827768257945, 85.90897440006356 -42.07732654219778 M83.19040034850968 -42.697823329111344 C83.7804589868788 -42.56314629539605, 84.37051762524791 -42.42846926168077, 85.90897440006356 -42.07732654219778 M85.90897440006356 -42.07732654219778 C86.46814046921054 -41.91136898799755, 87.02730653835754 -41.745411433797315, 88.58220748402749 -41.28392499496409 M85.90897440006356 -42.07732654219778 C86.84532039555789 -41.79942396571549, 87.78166639105221 -41.5215213892332, 88.58220748402749 -41.28392499496409 M88.58220748402749 -41.28392499496409 C89.4723502183411 -40.95634424034744, 90.36249295265472 -40.62876348573079, 91.19911471225277 -40.32087894455194 M88.58220748402749 -41.28392499496409 C89.53621364948083 -40.932841907340936, 90.49021981493415 -40.58175881971779, 91.19911471225277 -40.32087894455194 M91.19911471225277 -40.32087894455194 C92.08779220383516 -39.927487780709576, 92.97646969541756 -39.53409661686721, 93.74894265161377 -39.192145753755234 M91.19911471225277 -40.32087894455194 C91.85083574699772 -40.03238137508796, 92.50255678174267 -39.74388380562398, 93.74894265161377 -39.192145753755234 M93.74894265161377 -39.192145753755234 C94.33229905019454 -38.88780909427326, 94.9156554487753 -38.583472434791275, 96.22121351217129 -37.90236362936744 M93.74894265161377 -39.192145753755234 C94.68034759027765 -38.70623239384763, 95.61175252894152 -38.22031903394002, 96.22121351217129 -37.90236362936744 M96.22121351217129 -37.90236362936744 C96.8646186120328 -37.512327676763334, 97.50802371189431 -37.122291724159226, 98.60576820265887 -36.45683256279507 M96.22121351217129 -37.90236362936744 C97.08453384911175 -37.37901376768069, 97.94785418605221 -36.855663905993936, 98.60576820265887 -36.45683256279507 M98.60576820265887 -36.45683256279507 C99.23526246319528 -36.017724617012206, 99.8647567237317 -35.578616671229334, 100.8928080763679 -34.86149255125611 M98.60576820265887 -36.45683256279507 C99.48795446767387 -35.84145761354851, 100.37014073268887 -35.22608266430196, 100.8928080763679 -34.86149255125611 M100.8928080763679 -34.86149255125611 C101.33450554432429 -34.50925057462415, 101.77620301228069 -34.15700859799219, 103.07293519588879 -33.12289918905735 M100.8928080763679 -34.86149255125611 C101.34346794524508 -34.50210329838933, 101.79412781412225 -34.142714045522546, 103.07293519588879 -33.12289918905735 M103.07293519588879 -33.12289918905735 C103.69622821082503 -32.55684096432173, 104.31952122576126 -31.99078273958611, 105.13719095125165 -31.248196729251152 M103.07293519588879 -33.12289918905735 C103.69586828049648 -32.557167843522876, 104.31880136510419 -31.991436497988403, 105.13719095125165 -31.248196729251152 M105.13719095125165 -31.248196729251152 C105.79519214357478 -30.568756475274956, 106.4531933358979 -29.889316221298756, 107.07709287277622 -29.24508872636729 M105.13719095125165 -31.248196729251152 C105.89176371919142 -30.46903839477696, 106.64633648713118 -29.689880060302766, 107.07709287277622 -29.24508872636729 M107.07709287277622 -29.24508872636729 C107.6636766736611 -28.55605401628409, 108.25026047454598 -27.867019306200895, 108.8846694873593 -27.12180638085491 M107.07709287277622 -29.24508872636729 C107.67069306623914 -28.547812162317893, 108.26429325970204 -27.850535598268493, 108.8846694873593 -27.12180638085491 M108.8846694873593 -27.12180638085491 C109.4542922002927 -26.358563839220867, 110.02391491322608 -25.59532129758682, 110.55249307496757 -24.88707471531439 M108.8846694873593 -27.12180638085491 C109.3233687974767 -26.53398927162693, 109.7620681075941 -25.946172162398952, 110.55249307496757 -24.88707471531439 M110.55249307496757 -24.88707471531439 C110.92414913761593 -24.316111199459872, 111.29580520026428 -23.745147683605353, 112.07371019073256 -22.550076721507846 M110.55249307496757 -24.88707471531439 C111.07648529217083 -24.08208195807838, 111.6004775093741 -23.27708920084237, 112.07371019073256 -22.550076721507846 M112.07371019073256 -22.550076721507846 C112.47897170853844 -21.830493859464916, 112.8842332263443 -21.110910997421986, 113.44206982722551 -20.120415625476333 M112.07371019073256 -22.550076721507846 C112.57959861352167 -21.651820600088136, 113.08548703631078 -20.753564478668423, 113.44206982722551 -20.120415625476333 M113.44206982722551 -20.120415625476333 C113.68923963510707 -19.607162230823597, 113.93640944298863 -19.093908836170865, 114.65194910118784 -17.60807542582414 M113.44206982722551 -20.120415625476333 C113.87718144323091 -19.216897044943956, 114.3122930592363 -18.31337846441158, 114.65194910118784 -17.60807542582414 M114.65194910118784 -17.60807542582414 C114.88692720324607 -17.02767497074774, 115.12190530530432 -16.44727451567134, 115.69837635916457 -15.023379867326902 M114.65194910118784 -17.60807542582414 C115.06627123524737 -16.58469174432358, 115.4805933693069 -15.561308062823024, 115.69837635916457 -15.023379867326902 M115.69837635916457 -15.023379867326902 C115.92838125161273 -14.330641777576002, 116.15838614406088 -13.637903687825101, 116.57705160709475 -12.376950018449923 M115.69837635916457 -15.023379867326902 C115.98565060721012 -14.158155603149337, 116.27292485525567 -13.292931338971773, 116.57705160709475 -12.376950018449923 M116.57705160709475 -12.376950018449923 C116.82524261963859 -11.43049012095497, 117.07343363218243 -10.484030223460014, 117.28436417990932 -9.67966062709968 M116.57705160709475 -12.376950018449923 C116.75628742439342 -11.69344616579543, 116.93552324169211 -11.009942313140938, 117.28436417990932 -9.67966062709968 M117.28436417990932 -9.67966062709968 C117.4017322849183 -9.077000213636389, 117.51910038992727 -8.474339800173098, 117.81740757852859 -6.942595433952013 M117.28436417990932 -9.67966062709968 C117.40583738235466 -9.055921405913324, 117.52731058479999 -8.432182184726965, 117.81740757852859 -6.942595433952013 M117.81740757852859 -6.942595433952013 C117.95553473180112 -5.871308509461813, 118.09366188507364 -4.8000215849716135, 118.17399141329012 -4.177001626984165 M117.81740757852859 -6.942595433952013 C117.89147201192705 -6.368166314190196, 117.96553644532551 -5.793737194428379, 118.17399141329012 -4.177001626984165 M118.17399141329012 -4.177001626984165 C118.21101187270651 -3.6003780891969255, 118.2480323321229 -3.0237545514096857, 118.35265040472993 -1.3942436243669998 M118.17399141329012 -4.177001626984165 C118.22967971427855 -3.3096113883019376, 118.28536801526698 -2.4422211496197104, 118.35265040472993 -1.3942436243669998 M118.35265040472993 -1.3942436243669998 C118.35265040472993 -0.4053271136467651, 118.35265040472993 0.5835893970734696, 118.35265040472993 1.3942436243669891 M118.35265040472993 -1.3942436243669998 C118.35265040472993 -0.3571043953997499, 118.35265040472993 0.6800348335674999, 118.35265040472993 1.3942436243669891 M118.35265040472993 1.3942436243669891 C118.3012536439127 2.1947896608138424, 118.24985688309548 2.9953356972606957, 118.17399141329012 4.177001626984135 M118.35265040472993 1.3942436243669891 C118.28725665712537 2.412804028191032, 118.22186290952081 3.4313644320150756, 118.17399141329012 4.177001626984135 M118.17399141329012 4.177001626984135 C118.08513762598889 4.866134055127602, 117.99628383868766 5.555266483271069, 117.81740757852859 6.942595433951983 M118.17399141329012 4.177001626984135 C118.08347070944309 4.879062330686933, 117.99295000559606 5.581123034389733, 117.81740757852859 6.942595433951983 M117.81740757852859 6.942595433951983 C117.67854880215748 7.655605902804817, 117.53969002578637 8.368616371657652, 117.28436417990932 9.679660627099672 M117.81740757852859 6.942595433951983 C117.65032206216871 7.8005442469235495, 117.48323654580884 8.658493059895116, 117.28436417990932 9.679660627099672 M117.28436417990932 9.679660627099672 C117.06299587409379 10.523833918804955, 116.84162756827826 11.368007210510239, 116.57705160709475 12.376950018449895 M117.28436417990932 9.679660627099672 C117.0427319189467 10.601109162234517, 116.80109965798408 11.522557697369363, 116.57705160709475 12.376950018449895 M116.57705160709475 12.376950018449895 C116.30617113920626 13.192798828788572, 116.03529067131775 14.00864763912725, 115.69837635916457 15.023379867326874 M116.57705160709475 12.376950018449895 C116.25231274725454 13.355011724177707, 115.92757388741434 14.33307342990552, 115.69837635916457 15.023379867326874 M115.69837635916457 15.023379867326874 C115.37544921187242 15.821016164510148, 115.05252206458027 16.618652461693422, 114.65194910118785 17.60807542582413 M115.69837635916457 15.023379867326874 C115.34548271130939 15.895034000263712, 114.99258906345422 16.76668813320055, 114.65194910118785 17.60807542582413 M114.65194910118785 17.60807542582413 C114.205654854301 18.53481497865181, 113.75936060741415 19.46155453147949, 113.44206982722551 20.120415625476323 M114.65194910118785 17.60807542582413 C114.37282087078695 18.18769116863898, 114.09369264038604 18.767306911453836, 113.44206982722551 20.120415625476323 M113.44206982722551 20.120415625476323 C112.94921086600614 20.995536618502904, 112.45635190478677 21.87065761152948, 112.07371019073256 22.550076721507835 M113.44206982722551 20.120415625476323 C112.90964343176071 21.065792604642848, 112.37721703629592 22.01116958380937, 112.07371019073256 22.550076721507835 M112.07371019073256 22.550076721507835 C111.72765187881168 23.08171521828642, 111.38159356689083 23.613353715065006, 110.5524930749676 24.887074715314366 M112.07371019073256 22.550076721507835 C111.48019649979418 23.46187313153061, 110.88668280885581 24.373669541553387, 110.5524930749676 24.887074715314366 M110.5524930749676 24.887074715314366 C110.08600772662392 25.512122584405397, 109.61952237828025 26.137170453496424, 108.8846694873593 27.121806380854903 M110.5524930749676 24.887074715314366 C110.20203956554825 25.35665049096478, 109.85158605612891 25.826226266615194, 108.8846694873593 27.121806380854903 M108.8846694873593 27.121806380854903 C108.48716551878161 27.588737160962836, 108.0896615502039 28.055667941070766, 107.07709287277623 29.245088726367264 M108.8846694873593 27.121806380854903 C108.3776628857483 27.7173651846001, 107.87065628413727 28.312923988345297, 107.07709287277623 29.245088726367264 M107.07709287277623 29.245088726367264 C106.55007923284738 29.78927357821833, 106.02306559291853 30.333458430069403, 105.13719095125167 31.24819672925114 M107.07709287277623 29.245088726367264 C106.6110600619297 29.726305865571657, 106.14502725108318 30.20752300477605, 105.13719095125167 31.24819672925114 M105.13719095125167 31.24819672925114 C104.57029526446286 31.763036392754803, 104.00339957767405 32.277876056258464, 103.07293519588882 33.12289918905732 M105.13719095125167 31.24819672925114 C104.3154356328131 31.994493167002766, 103.49368031437454 32.74078960475439, 103.07293519588882 33.12289918905732 M103.07293519588882 33.12289918905732 C102.47922059886046 33.59637078077847, 101.88550600183213 34.06984237249962, 100.89280807636791 34.861492551256106 M103.07293519588882 33.12289918905732 C102.35534116326077 33.695161334099, 101.63774713063275 34.267423479140675, 100.89280807636791 34.861492551256106 M100.89280807636791 34.861492551256106 C100.34209476428752 35.24564631776834, 99.79138145220713 35.629800084280575, 98.60576820265888 36.45683256279506 M100.89280807636791 34.861492551256106 C100.28193031578573 35.287614432566194, 99.67105255520354 35.713736313876275, 98.60576820265888 36.45683256279506 M98.60576820265888 36.45683256279506 C98.0398330633513 36.79990577004735, 97.4738979240437 37.142978977299656, 96.22121351217129 37.90236362936744 M98.60576820265888 36.45683256279506 C97.88443839678753 36.89410693011873, 97.16310859091618 37.331381297442405, 96.22121351217129 37.90236362936744 M96.22121351217129 37.90236362936744 C95.31691855214444 38.374133730784884, 94.41262359211758 38.84590383220233, 93.74894265161379 39.19214575375523 M96.22121351217129 37.90236362936744 C95.66254536990213 38.19382044134524, 95.10387722763298 38.485277253323034, 93.74894265161379 39.19214575375523 M93.74894265161379 39.19214575375523 C93.15740454815642 39.45400212480143, 92.56586644469904 39.71585849584763, 91.1991147122528 40.32087894455194 M93.74894265161379 39.19214575375523 C92.7423373111089 39.63774007811024, 91.73573197060402 40.083334402465255, 91.1991147122528 40.32087894455194 M91.1991147122528 40.32087894455194 C90.58354216184702 40.54741533339154, 89.96796961144125 40.773951722231146, 88.58220748402752 41.283924994964075 M91.1991147122528 40.32087894455194 C90.6664867465891 40.51689095947512, 90.13385878092541 40.712902974398304, 88.58220748402752 41.283924994964075 M88.58220748402752 41.283924994964075 C87.67288268679248 41.55380782164018, 86.76355788955745 41.82369064831627, 85.90897440006361 42.077326542197774 M88.58220748402752 41.283924994964075 C87.8639670011491 41.49709500016117, 87.14572651827069 41.71026500535825, 85.90897440006361 42.077326542197774 M85.90897440006361 42.077326542197774 C85.02149712316952 42.279887439318394, 84.13401984627544 42.482448336439006, 83.19040034850971 42.697823329111344 M85.90897440006361 42.077326542197774 C85.17097890691464 42.24576919763837, 84.43298341376565 42.41421185307896, 83.19040034850971 42.697823329111344 M83.19040034850971 42.697823329111344 C82.55902506547254 42.799899188484346, 81.92764978243535 42.90197504785735, 80.43765653327604 43.1428656013112 M83.19040034850971 42.697823329111344 C82.46066611276379 42.81580110117323, 81.73093187701787 42.933778873235106, 80.43765653327604 43.1428656013112 M80.43765653327604 43.1428656013112 C79.60860408640602 43.222843293779306, 78.77955163953601 43.30282098624741, 77.66205456916101 43.41062458463963 M80.43765653327604 43.1428656013112 C79.65424753095077 43.21844012557835, 78.8708385286255 43.294014649845494, 77.66205456916101 43.41062458463963 M77.66205456916101 43.41062458463963 C76.71051298881002 43.441138671058155, 75.75897140845903 43.47165275747668, 74.87500000000001 43.5 M77.66205456916101 43.41062458463963 C76.89843379389858 43.435112416604625, 76.13481301863614 43.45960024856962, 74.87500000000001 43.5 M74.87500000000001 43.5 C74.87500000000001 43.5, 74.87500000000001 43.5, 74.875 43.5 M74.87500000000001 43.5 C74.87500000000001 43.5, 74.875 43.5, 74.875 43.5 M74.875 43.5 C17.92058919035329 43.5, -39.03382161929342 43.5, -74.87499999999999 43.5 M74.875 43.5 C44.52522784511849 43.5, 14.175455690236994 43.5, -74.87499999999999 43.5 M-74.87499999999999 43.5 C-75.52936696638072 43.4790157250362, -76.18373393276147 43.458031450072404, -77.66205456916099 43.41062458463963 M-74.87499999999999 43.5 C-75.49575688712515 43.480093534859876, -76.11651377425031 43.46018706971975, -77.66205456916099 43.41062458463963 M-77.66205456916099 43.41062458463963 C-78.27342437622266 43.351646474632155, -78.88479418328434 43.29266836462468, -80.43765653327603 43.1428656013112 M-77.66205456916099 43.41062458463963 C-78.26914373173163 43.35205942325798, -78.87623289430228 43.293494261876326, -80.43765653327603 43.1428656013112 M-80.43765653327603 43.1428656013112 C-81.11530431605394 43.033308763028714, -81.79295209883185 42.92375192474622, -83.1904003485097 42.697823329111344 M-80.43765653327603 43.1428656013112 C-80.99284566559426 43.05310692795401, -81.54803479791249 42.96334825459683, -83.1904003485097 42.697823329111344 M-83.1904003485097 42.697823329111344 C-83.90067890407782 42.535706883803655, -84.61095745964595 42.373590438495974, -85.90897440006356 42.07732654219778 M-83.1904003485097 42.697823329111344 C-84.23788789827213 42.45874113137314, -85.28537544803457 42.21965893363493, -85.90897440006356 42.07732654219778 M-85.90897440006356 42.07732654219778 C-86.54849032992173 41.8875215711035, -87.1880062597799 41.69771660000921, -88.58220748402748 41.283924994964096 M-85.90897440006356 42.07732654219778 C-86.92607249949653 41.775457165142946, -87.9431705989295 41.47358778808812, -88.58220748402748 41.283924994964096 M-88.58220748402748 41.283924994964096 C-89.30106991011905 41.019376977070976, -90.01993233621062 40.75482895917786, -91.19911471225278 40.32087894455194 M-88.58220748402748 41.283924994964096 C-89.45975311791668 40.96098008974995, -90.33729875180589 40.63803518453581, -91.19911471225278 40.32087894455194 M-91.19911471225278 40.32087894455194 C-91.97198871944802 39.97875054805945, -92.74486272664326 39.63662215156697, -93.74894265161377 39.192145753755234 M-91.19911471225278 40.32087894455194 C-91.95842235927562 39.984755973276, -92.71773000629847 39.648633002000054, -93.74894265161377 39.192145753755234 M-93.74894265161377 39.192145753755234 C-94.4363048741988 38.83354932250914, -95.12366709678382 38.47495289126306, -96.22121351217127 37.90236362936745 M-93.74894265161377 39.192145753755234 C-94.5594842768863 38.76928670702725, -95.37002590215882 38.34642766029926, -96.22121351217127 37.90236362936745 M-96.22121351217127 37.90236362936745 C-96.76186492073667 37.57461756827477, -97.30251632930207 37.24687150718208, -98.60576820265884 36.456832562795086 M-96.22121351217127 37.90236362936745 C-97.12414633225211 37.35500044761221, -98.02707915233295 36.807637265856975, -98.60576820265884 36.456832562795086 M-98.60576820265884 36.456832562795086 C-99.17685182588384 36.05846934904493, -99.74793544910885 35.66010613529476, -100.89280807636788 34.86149255125612 M-98.60576820265884 36.456832562795086 C-99.08738606942114 36.12087678784313, -99.56900393618344 35.784921012891175, -100.89280807636788 34.86149255125612 M-100.89280807636788 34.86149255125612 C-101.54672003846893 34.340015162808655, -102.20063200056998 33.81853777436119, -103.07293519588879 33.12289918905736 M-100.89280807636788 34.86149255125612 C-101.38278117052984 34.47075204739359, -101.87275426469179 34.080011543531064, -103.07293519588879 33.12289918905736 M-103.07293519588879 33.12289918905736 C-103.78484185318851 32.47636439891572, -104.49674851048823 31.829829608774084, -105.13719095125164 31.24819672925117 M-103.07293519588879 33.12289918905736 C-103.49347810147667 32.740973249157996, -103.91402100706453 32.35904730925863, -105.13719095125164 31.24819672925117 M-105.13719095125164 31.24819672925117 C-105.91221572096583 30.447920023804308, -106.68724049068003 29.647643318357446, -107.07709287277623 29.245088726367282 M-105.13719095125164 31.24819672925117 C-105.86298730295033 30.49875240713359, -106.58878365464903 29.74930808501601, -107.07709287277623 29.245088726367282 M-107.07709287277623 29.245088726367282 C-107.47293019730961 28.78011568118854, -107.86876752184298 28.3151426360098, -108.88466948735929 27.121806380854917 M-107.07709287277623 29.245088726367282 C-107.56910983787687 28.667137602601656, -108.0611268029775 28.089186478836034, -108.88466948735929 27.121806380854917 M-108.88466948735929 27.121806380854917 C-109.29374103156316 26.573687778806068, -109.70281257576703 26.025569176757223, -110.55249307496757 24.887074715314395 M-108.88466948735929 27.121806380854917 C-109.33899316775074 26.513054038869125, -109.79331684814218 25.904301696883337, -110.55249307496757 24.887074715314395 M-110.55249307496757 24.887074715314395 C-111.14071629678595 23.983405886549814, -111.72893951860434 23.079737057785234, -112.07371019073254 22.550076721507864 M-110.55249307496757 24.887074715314395 C-111.01263400781042 24.18017467732656, -111.47277494065327 23.473274639338722, -112.07371019073254 22.550076721507864 M-112.07371019073254 22.550076721507864 C-112.4760355708457 21.835707269254538, -112.87836095095886 21.12133781700121, -113.44206982722551 20.120415625476337 M-112.07371019073254 22.550076721507864 C-112.40151244930232 21.968030617839176, -112.72931470787208 21.385984514170488, -113.44206982722551 20.120415625476337 M-113.44206982722551 20.120415625476337 C-113.85516721126099 19.26261006865859, -114.26826459529647 18.404804511840844, -114.65194910118784 17.608075425824147 M-113.44206982722551 20.120415625476337 C-113.73669356570112 19.508623128593598, -114.03131730417672 18.896830631710863, -114.65194910118784 17.608075425824147 M-114.65194910118784 17.608075425824147 C-114.93802362011527 16.90146583319883, -115.2240981390427 16.194856240573515, -115.69837635916457 15.023379867326907 M-114.65194910118784 17.608075425824147 C-114.98118560410374 16.794854898267122, -115.31042210701963 15.981634370710097, -115.69837635916457 15.023379867326907 M-115.69837635916457 15.023379867326907 C-116.03446753565295 14.011126792600797, -116.37055871214133 12.998873717874687, -116.57705160709475 12.37695001844991 M-115.69837635916457 15.023379867326907 C-116.03961639798888 13.995619239604812, -116.38085643681318 12.967858611882715, -116.57705160709475 12.37695001844991 M-116.57705160709475 12.37695001844991 C-116.79938118258937 11.529110988841348, -117.02171075808398 10.681271959232784, -117.28436417990932 9.679660627099686 M-116.57705160709475 12.37695001844991 C-116.84868191648066 11.341105923440649, -117.12031222586656 10.305261828431385, -117.28436417990932 9.679660627099686 M-117.28436417990932 9.679660627099686 C-117.39332385490947 9.120175724609402, -117.50228352990962 8.560690822119117, -117.81740757852859 6.942595433952017 M-117.28436417990932 9.679660627099686 C-117.46548688564121 8.74963381346388, -117.64660959137309 7.819606999828077, -117.81740757852859 6.942595433952017 M-117.81740757852859 6.942595433952017 C-117.91337617604381 6.1982819427669815, -118.00934477355904 5.453968451581946, -118.17399141329011 4.17700162698419 M-117.81740757852859 6.942595433952017 C-117.93275356743312 6.047994721650174, -118.04809955633768 5.153394009348332, -118.17399141329011 4.17700162698419 M-118.17399141329011 4.17700162698419 C-118.22482477557477 3.385230977449115, -118.27565813785944 2.5934603279140402, -118.35265040472993 1.394243624367005 M-118.17399141329011 4.17700162698419 C-118.23596125622913 3.211771302052095, -118.29793109916815 2.24654097712, -118.35265040472993 1.394243624367005 M-118.35265040472993 1.394243624367005 C-118.35265040472993 0.6297248148264231, -118.35265040472993 -0.13479399471415898, -118.35265040472993 -1.394243624366984 M-118.35265040472993 1.394243624367005 C-118.35265040472993 0.46468023954656446, -118.35265040472993 -0.4648831452738762, -118.35265040472993 -1.394243624366984 M-118.35265040472993 -1.394243624366984 C-118.30088553691111 -2.200523224494295, -118.24912066909229 -3.006802824621606, -118.17399141329012 -4.177001626984129 M-118.35265040472993 -1.394243624366984 C-118.30450985236206 -2.1440715858509414, -118.25636929999419 -2.8938995473348985, -118.17399141329012 -4.177001626984129 M-118.17399141329012 -4.177001626984129 C-118.04524474347117 -5.175535374194345, -117.91649807365222 -6.1740691214045595, -117.81740757852859 -6.942595433951997 M-118.17399141329012 -4.177001626984129 C-118.08809116786334 -4.84322696759218, -118.00219092243655 -5.509452308200231, -117.81740757852859 -6.942595433951997 M-117.81740757852859 -6.942595433951997 C-117.63119555511312 -7.898754818265281, -117.44498353169766 -8.854914202578565, -117.28436417990932 -9.679660627099667 M-117.81740757852859 -6.942595433951997 C-117.63305892334827 -7.8891868162008, -117.44871026816796 -8.835778198449603, -117.28436417990932 -9.679660627099667 M-117.28436417990932 -9.679660627099667 C-117.01627445417604 -10.702002942142762, -116.74818472844278 -11.724345257185858, -116.57705160709475 -12.37695001844989 M-117.28436417990932 -9.679660627099667 C-117.10234140824073 -10.373792344640277, -116.92031863657215 -11.067924062180886, -116.57705160709475 -12.37695001844989 M-116.57705160709475 -12.37695001844989 C-116.22635249332734 -13.433199872801689, -115.87565337955994 -14.48944972715349, -115.6983763591646 -15.023379867326852 M-116.57705160709475 -12.37695001844989 C-116.34077050881886 -13.088591040176311, -116.10448941054298 -13.800232061902731, -115.6983763591646 -15.023379867326852 M-115.6983763591646 -15.023379867326852 C-115.3410533296526 -15.905974658592317, -114.98373030014058 -16.788569449857782, -114.65194910118785 -17.608075425824126 M-115.6983763591646 -15.023379867326852 C-115.43417161145737 -15.675970702214986, -115.16996686375016 -16.32856153710312, -114.65194910118785 -17.608075425824126 M-114.65194910118785 -17.608075425824126 C-114.27357614296271 -18.39377496946301, -113.89520318473755 -19.179474513101894, -113.44206982722551 -20.12041562547632 M-114.65194910118785 -17.608075425824126 C-114.27693509667256 -18.386800030214403, -113.90192109215727 -19.16552463460468, -113.44206982722551 -20.12041562547632 M-113.44206982722551 -20.12041562547632 C-113.15183311493979 -20.63576029779364, -112.86159640265407 -21.151104970110964, -112.07371019073256 -22.55007672150785 M-113.44206982722551 -20.12041562547632 C-113.09313988803537 -20.73997606549613, -112.74420994884524 -21.35953650551594, -112.07371019073256 -22.55007672150785 M-112.07371019073256 -22.55007672150785 C-111.53812241919556 -23.372883364042778, -111.00253464765858 -24.19569000657771, -110.55249307496757 -24.88707471531438 M-112.07371019073256 -22.55007672150785 C-111.70855557473438 -23.111052269424825, -111.3434009587362 -23.672027817341803, -110.55249307496757 -24.88707471531438 M-110.55249307496757 -24.88707471531438 C-109.89368630587462 -25.769815767367568, -109.23487953678169 -26.652556819420756, -108.8846694873593 -27.121806380854903 M-110.55249307496757 -24.88707471531438 C-110.07794146852707 -25.522930635403938, -109.60338986208656 -26.158786555493496, -108.8846694873593 -27.121806380854903 M-108.8846694873593 -27.121806380854903 C-108.40772810611982 -27.682048865992197, -107.93078672488033 -28.242291351129495, -107.07709287277623 -29.245088726367264 M-108.8846694873593 -27.121806380854903 C-108.27303009409212 -27.84027281545395, -107.66139070082492 -28.558739250052994, -107.07709287277623 -29.245088726367264 M-107.07709287277623 -29.245088726367264 C-106.30535079389934 -30.041975784010695, -105.53360871502244 -30.838862841654127, -105.13719095125168 -31.248196729251127 M-107.07709287277623 -29.245088726367264 C-106.47631717798666 -29.865438955839362, -105.87554148319707 -30.48578918531146, -105.13719095125168 -31.248196729251127 M-105.13719095125168 -31.248196729251127 C-104.68500589973375 -31.658859228878867, -104.23282084821582 -32.06952172850661, -103.07293519588883 -33.12289918905732 M-105.13719095125168 -31.248196729251127 C-104.66661878641365 -31.67555791869982, -104.19604662157562 -32.10291910814851, -103.07293519588883 -33.12289918905732 M-103.07293519588883 -33.12289918905732 C-102.56287449286812 -33.52965902643099, -102.0528137898474 -33.93641886380466, -100.89280807636791 -34.861492551256106 M-103.07293519588883 -33.12289918905732 C-102.37383971000956 -33.680409235333855, -101.6747442241303 -34.23791928161039, -100.89280807636791 -34.861492551256106 M-100.89280807636791 -34.861492551256106 C-100.3379481352119 -35.24853882670681, -99.78308819405588 -35.63558510215752, -98.6057682026589 -36.45683256279505 M-100.89280807636791 -34.861492551256106 C-100.10745602025665 -35.409320148256754, -99.3221039641454 -35.957147745257394, -98.6057682026589 -36.45683256279505 M-98.6057682026589 -36.45683256279505 C-97.99610879323401 -36.82641167954478, -97.38644938380914 -37.19599079629451, -96.2212135121713 -37.902363629367436 M-98.6057682026589 -36.45683256279505 C-97.76623477512035 -36.965762660214956, -96.92670134758183 -37.47469275763487, -96.2212135121713 -37.902363629367436 M-96.2212135121713 -37.902363629367436 C-95.49533166556118 -38.281055723794424, -94.76944981895105 -38.65974781822142, -93.74894265161379 -39.19214575375523 M-96.2212135121713 -37.902363629367436 C-95.43783351603422 -38.31105247157332, -94.65445351989713 -38.7197413137792, -93.74894265161379 -39.19214575375523 M-93.74894265161379 -39.19214575375523 C-93.13098428210684 -39.46569759285222, -92.5130259125999 -39.739249431949226, -91.1991147122528 -40.320878944551936 M-93.74894265161379 -39.19214575375523 C-93.10652088739239 -39.47652681201149, -92.46409912317098 -39.76090787026776, -91.1991147122528 -40.320878944551936 M-91.1991147122528 -40.320878944551936 C-90.55817704586792 -40.556749930544406, -89.91723937948305 -40.79262091653688, -88.58220748402753 -41.283924994964075 M-91.1991147122528 -40.320878944551936 C-90.31563025897894 -40.64600939019748, -89.43214580570508 -40.97113983584302, -88.58220748402753 -41.283924994964075 M-88.58220748402753 -41.283924994964075 C-88.01009057867434 -41.45372628936999, -87.43797367332112 -41.623527583775896, -85.90897440006361 -42.07732654219777 M-88.58220748402753 -41.283924994964075 C-87.73250145023673 -41.5361132855952, -86.88279541644592 -41.788301576226324, -85.90897440006361 -42.07732654219777 M-85.90897440006361 -42.07732654219777 C-85.18719005117731 -42.24206910974801, -84.46540570229102 -42.40681167729825, -83.19040034850971 -42.69782332911134 M-85.90897440006361 -42.07732654219777 C-84.85676636424712 -42.317486160073756, -83.80455832843063 -42.55764577794975, -83.19040034850971 -42.69782332911134 M-83.19040034850971 -42.69782332911134 C-82.13985436797071 -42.867667456139124, -81.0893083874317 -43.03751158316692, -80.43765653327604 -43.1428656013112 M-83.19040034850971 -42.69782332911134 C-82.1647303714755 -42.86364569680876, -81.13906039444129 -43.02946806450618, -80.43765653327604 -43.1428656013112 M-80.43765653327604 -43.1428656013112 C-79.45501550621991 -43.23765979939257, -78.47237447916379 -43.332453997473934, -77.66205456916101 -43.41062458463963 M-80.43765653327604 -43.1428656013112 C-79.84669897775966 -43.19987456596142, -79.25574142224326 -43.256883530611645, -77.66205456916101 -43.41062458463963 M-77.66205456916101 -43.41062458463963 C-76.64189523637674 -43.443339108822336, -75.62173590359248 -43.47605363300505, -74.87500000000001 -43.5 M-77.66205456916101 -43.41062458463963 C-76.55963831483798 -43.4459769281927, -75.45722206051495 -43.48132927174578, -74.87500000000001 -43.5 M-74.87500000000001 -43.5 C-74.87500000000001 -43.5, -74.875 -43.5, -74.875 -43.5 M-74.87500000000001 -43.5 C-74.87500000000001 -43.5, -74.87500000000001 -43.5, -74.875 -43.5" stroke="#9370DB" stroke-width="1.3" fill="none" stroke-dasharray="0 0" style=""/></g><g class="label" style="" transform="translate(-100, -36)"><rect/><foreignObject width="200" height="72"><div xmlns="http://www.w3.org/1999/xhtml" style="display: table; white-space: break-spaces; line-height: 1.5; max-width: 200px; text-align: center; width: 200px;"><span class="nodeLabel"><p>Section 276: Sale of any drug as a different drug or preparation (eff: 1872-0...</p></span></div></foreignObject></g></g><g class="node default" id="my-svg-flowchart-GRP2-1" data-look="classic" transform="translate(138, 164.5)"><polygon points="9.75,0 174.359375,0 184.109375,-19.5 174.359375,-39 9.75,-39 0,-19.5" class="label-container" transform="translate(-92.0546875,19.5)"/><g class="label" style="" transform="translate(-74.8046875, -12)"><rect/><foreignObject width="149.609375" height="24"><div xmlns="http://www.w3.org/1999/xhtml" style="display: table-cell; white-space: nowrap; line-height: 1.5; max-width: 200px; text-align: center;"><span class="nodeLabel"><p>ALL OF (conjunctive)</p></span></div></foreignObject></g></g><g class="node default" id="my-svg-flowchart-ELEM3-4" data-look="classic" transform="translate(138, 285)"><rect class="basic label-container" style="" x="-130" y="-51" width="260" height="102"/><g class="label" style="" transform="translate(-100, -36)"><rect/><foreignObject width="200" height="72"><div xmlns="http://www.w3.org/1999/xhtml" style="display: table; white-space: break-spaces; line-height: 1.5; max-width: 200px; text-align: center; width: 200px;"><span class="nodeLabel"><p>Sells, or offers or exposes for sale, or issues from a dispensary for medicin...</p></span></div></foreignObject></g></g><g class="node default" id="my-svg-flowchart-ELEM4-7" data-look="classic" transform="translate(138, 413)"><rect class="basic label-container" style="" x="-65.9453125" y="-27" width="131.890625" height="54"/><g class="label" style="" transform="translate(-35.9453125, -12)"><rect/><foreignObject width="71.890625" height="24"><div xmlns="http://www.w3.org/1999/xhtml" style="display: table-cell; white-space: nowrap; line-height: 1.5; max-width: 200px; text-align: center;"><span class="nodeLabel"><p>Knowingly</p></span></div></foreignObject></g></g><g class="node default" id="my-svg-flowchart-ELEM5-10" data-look="classic" transform="translate(138, 529)"><rect class="basic label-container" style="" x="-130" y="-39" width="260" height="78"/><g class="label" style="" transform="translate(-100, -24)"><rect/><foreignObject width="200" height="48"><div xmlns="http://www.w3.org/1999/xhtml" style="display: table; white-space: break-spaces; line-height: 1.5; max-width: 200px; text-align: center; width: 200px;"><span class="nodeLabel"><p>As a different drug or medical preparation</p></span></div></foreignObject></g></g><g class="node default" id="my-svg-flowchart-PENALTY6-13" data-look="classic" transform="translate(138, 637.5)"><polygon points="0,0 211.3125,0 211.3125,-39 0,-39 0,0 -8,0 219.3125,0 219.3125,-39 -8,-39 -8,0" class="label-container" transform="translate(-105.65625,19.5)"/><g class="label" style="" transform="translate(-98.15625, -12)"><rect/><foreignObject width="196.3125" height="24"><div xmlns="http://www.w3.org/1999/xhtml" style="display: table-cell; white-space: nowrap; line-height: 1.5; max-width: 200px; text-align: center;"><span class="nodeLabel"><p>Imprisonment up to 3 years</p></span></div></foreignObject></g></g></g></g></g><defs><filter id="my-svg-drop-shadow" height="130%" width="130%"><feDropShadow dx="4" dy="4" stdDeviation="0" flood-opacity="0.06" flood-color="#000000"/></filter></defs><defs><filter id="my-svg-drop-shadow-small" height="150%" width="150%"><feDropShadow dx="2" dy="2" stdDeviation="0" flood-opacity="0.06" flood-color="#000000"/></filter></defs></svg>