<svg class="yuho-mermaid-svg" id="my-svg" width="100%" xmlns="http://www.w3.org/2000/svg" xmlns:xlink="http://www.w3.org/1999/xlink" class="flowchart" style="max-width: 258.693px; background-color: transparent;" viewBox="0 0 258.6929626464844 127" role="graphics-document document" aria-roledescription="flowchart-v2"><style>#my-svg{font-family:"trebuchet ms",verdana,arial,sans-serif;font-size:16px;fill:#333;}@keyframes edge-animation-frame{from{stroke-dashoffset:0;}}@keyframes dash{to{stroke-dashoffset:0;}}#my-svg .edge-animation-slow{stroke-dasharray:9,5!important;stroke-dashoffset:900;animation:dash 50s linear infinite;stroke-linecap:round;}#my-svg .edge-animation-fast{stroke-dasharray:9,5!important;stroke-dashoffset:900;animation:dash 20s linear infinite;stroke-linecap:round;}#my-svg .error-icon{fill:#552222;}#my-svg .error-text{fill:#552222;stroke:#552222;}#my-svg .edge-thickness-normal{stroke-width:1px;}#my-svg .edge-thickness-thick{stroke-width:3.5px;}#my-svg .edge-pattern-solid{stroke-dasharray:0;}#my-svg .edge-thickness-invisible{stroke-width:0;fill:none;}#my-svg .edge-pattern-dashed{stroke-dasharray:3;}#my-svg .edge-pattern-dotted{stroke-dasharray:2;}#my-svg .marker{fill:#333333;stroke:#333333;}#my-svg .marker.cross{stroke:#333333;}#my-svg svg{font-family:"trebuchet ms",verdana,arial,sans-serif;font-size:16px;}#my-svg p{margin:0;}#my-svg .label{font-family:"trebuchet ms",verdana,arial,sans-serif;color:#333;}#my-svg .cluster-label text{fill:#333;}#my-svg .cluster-label span{color:#333;}#my-svg .cluster-label span p{background-color:transparent;}#my-svg .label text,#my-svg span{fill:#333;color:#333;}#my-svg .node rect,#my-svg .node circle,#my-svg .node ellipse,#my-svg .node polygon,#my-svg .node path{fill:#ECECFF;stroke:#9370DB;stroke-width:1px;}#my-svg .rough-node .label text,#my-svg .node .label text,#my-svg .image-shape .label,#my-svg .icon-shape .label{text-anchor:middle;}#my-svg .node .katex path{fill:#000;stroke:#000;stroke-width:1px;}#my-svg .rough-node .label,#my-svg .node .label,#my-svg .image-shape .label,#my-svg .icon-shape .label{text-align:center;}#my-svg .node.clickable{cursor:pointer;}#my-svg .root .anchor path{fill:#333333!important;stroke-width:0;stroke:#333333;}#my-svg .arrowheadPath{fill:#333333;}#my-svg .edgePath .path{stroke:#333333;stroke-width:1px;}#my-svg .flowchart-link{stroke:#333333;fill:none;}#my-svg .edgeLabel{background-color:rgba(232,232,232, 0.8);text-align:center;}#my-svg .edgeLabel p{background-color:rgba(232,232,232, 0.8);}#my-svg .edgeLabel rect{opacity:0.5;background-color:rgba(232,232,232, 0.8);fill:rgba(232,232,232, 0.8);}#my-svg .labelBkg{background-color:rgba(232, 232, 232, 0.5);}#my-svg .cluster rect{fill:#ffffde;stroke:#aaaa33;stroke-width:1px;}#my-svg .cluster text{fill:#333;}#my-svg .cluster span{color:#333;}#my-svg div.mermaidTooltip{position:absolute;text-align:center;max-width:200px;padding:2px;font-family:"trebuchet ms",verdana,arial,sans-serif;font-size:12px;background:hsl(80, 100%, 96.2745098039%);border:1px solid #aaaa33;border-radius:2px;pointer-events:none;z-index:100;}#my-svg .flowchartTitleText{text-anchor:middle;font-size:18px;fill:#333;}#my-svg rect.text{fill:none;stroke-width:0;}#my-svg .icon-shape,#my-svg .image-shape{background-color:rgba(232,232,232, 0.8);text-align:center;}#my-svg .icon-shape p,#my-svg .image-shape p{background-color:rgba(232,232,232, 0.8);padding:2px;}#my-svg .icon-shape .label rect,#my-svg .image-shape .label rect{opacity:0.5;background-color:rgba(232,232,232, 0.8);fill:rgba(232,232,232, 0.8);}#my-svg .label-icon{display:inline-block;height:1em;overflow:visible;vertical-align:-0.125em;}#my-svg .node .label-icon path{fill:currentColor;stroke:revert;stroke-width:revert;}#my-svg .node .neo-node{stroke:#9370DB;}#my-svg [data-look="neo"].node rect,#my-svg [data-look="neo"].cluster rect,#my-svg [data-look="neo"].node polygon{stroke:#9370DB;filter:drop-shadow(1px 2px 2px rgba(185, 185, 185, 1));}#my-svg [data-look="neo"].node path{stroke:#9370DB;stroke-width:1px;}#my-svg [data-look="neo"].node .outer-path{filter:drop-shadow(1px 2px 2px rgba(185, 185, 185, 1));}#my-svg [data-look="neo"].node .neo-line path{stroke:#9370DB;filter:none;}#my-svg [data-look="neo"].node circle{stroke:#9370DB;filter:drop-shadow(1px 2px 2px rgba(185, 185, 185, 1));}#my-svg [data-look="neo"].node circle .state-start{fill:#000000;}#my-svg [data-look="neo"].icon-shape .icon{fill:#9370DB;filter:drop-shadow(1px 2px 2px rgba(185, 185, 185, 1));}#my-svg [data-look="neo"].icon-shape .icon-neo path{stroke:#9370DB;filter:drop-shadow(1px 2px 2px rgba(185, 185, 185, 1));}#my-svg :root{--mermaid-font-family:"trebuchet ms",verdana,arial,sans-serif;}</style><g><marker id="my-svg_flowchart-v2-pointEnd" class="marker flowchart-v2" viewBox="0 0 10 10" refX="5" refY="5" markerUnits="userSpaceOnUse" markerWidth="8" markerHeight="8" orient="auto"><path d="M 0 0 L 10 5 L 0 10 z" class="arrowMarkerPath" style="stroke-width: 1; stroke-dasharray: 1, 0;"/></marker><marker id="my-svg_flowchart-v2-pointStart" class="marker flowchart-v2" viewBox="0 0 10 10" refX="4.5" refY="5" markerUnits="userSpaceOnUse" markerWidth="8" markerHeight="8" orient="auto"><path d="M 0 5 L 10 10 L 10 0 z" class="arrowMarkerPath" style="stroke-width: 1; stroke-dasharray: 1, 0;"/></marker><marker id="my-svg_flowchart-v2-pointEnd-margin" class="marker flowchart-v2" viewBox="0 0 11.5 14" refX="11.5" refY="7" markerUnits="userSpaceOnUse" markerWidth="10.5" markerHeight="14" orient="auto"><path d="M 0 0 L 11.5 7 L 0 14 z" class="arrowMarkerPath" style="stroke-width: 0; stroke-dasharray: 1, 0;"/></marker><marker id="my-svg_flowchart-v2-pointStart-margin" class="marker flowchart-v2" viewBox="0 0 11.5 14" refX="1" refY="7" markerUnits="userSpaceOnUse" markerWidth="11.5" markerHeight="14" orient="auto"><polygon points="0,7 11.5,14 11.5,0" class="arrowMarkerPath" style="stroke-width: 0; stroke-dasharray: 1, 0;"/></marker><marker id="my-svg_flowchart-v2-circleEnd" class="marker flowchart-v2" viewBox="0 0 10 10" refX="11" refY="5" markerUnits="userSpaceOnUse" markerWidth="11" markerHeight="11" orient="auto"><circle cx="5" cy="5" r="5" class="arrowMarkerPath" style="stroke-width: 1; stroke-dasharray: 1, 0;"/></marker><marker id="my-svg_flowchart-v2-circleStart" class="marker flowchart-v2" viewBox="0 0 10 10" refX="-1" refY="5" markerUnits="userSpaceOnUse" markerWidth="11" markerHeight="11" orient="auto"><circle cx="5" cy="5" r="5" class="arrowMarkerPath" style="stroke-width: 1; stroke-dasharray: 1, 0;"/></marker><marker id="my-svg_flowchart-v2-circleEnd-margin" class="marker flowchart-v2" viewBox="0 0 10 10" refY="5" refX="12.25" markerUnits="userSpaceOnUse" markerWidth="14" markerHeight="14" orient="auto"><circle cx="5" cy="5" r="5" class="arrowMarkerPath" style="stroke-width: 0; stroke-dasharray: 1, 0;"/></marker><marker id="my-svg_flowchart-v2-circleStart-margin" class="marker flowchart-v2" viewBox="0 0 10 10" refX="-2" refY="5" markerUnits="userSpaceOnUse" markerWidth="14" markerHeight="14" orient="auto"><circle cx="5" cy="5" r="5" class="arrowMarkerPath" style="stroke-width: 0; stroke-dasharray: 1, 0;"/></marker><marker id="my-svg_flowchart-v2-crossEnd" class="marker cross flowchart-v2" viewBox="0 0 11 11" refX="12" refY="5.2" markerUnits="userSpaceOnUse" markerWidth="11" markerHeight="11" orient="auto"><path d="M 1,1 l 9,9 M 10,1 l -9,9" class="arrowMarkerPath" style="stroke-width: 2; stroke-dasharray: 1, 0;"/></marker><marker id="my-svg_flowchart-v2-crossStart" class="marker cross flowchart-v2" viewBox="0 0 11 11" refX="-1" refY="5.2" markerUnits="userSpaceOnUse" markerWidth="11" markerHeight="11" orient="auto"><path d="M 1,1 l 9,9 M 10,1 l -9,9" class="arrowMarkerPath" style="stroke-width: 2; stroke-dasharray: 1, 0;"/></marker><marker id="my-svg_flowchart-v2-crossEnd-margin" class="marker cross flowchart-v2" viewBox="0 0 15 15" refX="17.7" refY="7.5" markerUnits="userSpaceOnUse" markerWidth="12" markerHeight="12" orient="auto"><path d="M 1,1 L 14,14 M 1,14 L 14,1" class="arrowMarkerPath" style="stroke-width: 2.5;"/></marker><marker id="my-svg_flowchart-v2-crossStart-margin" class="marker cross flowchart-v2" viewBox="0 0 15 15" refX="-3.5" refY="7.5" markerUnits="userSpaceOnUse" markerWidth="12" markerHeight="12" orient="auto"><path d="M 1,1 L 14,14 M 1,14 L 14,1" class="arrowMarkerPath" style="stroke-width: 2.5; stroke-dasharray: 1, 0;"/></marker><g class="root"><g class="clusters"/><g class="edgePaths"/><g class="edgeLabels"/><g class="nodes"><g class="node default" id="my-svg-flowchart-START1-0" data-look="classic" transform="translate(129.3464813232422, 63.5)"><g class="basic label-container outer-path"><path d="M-65.875 -55.5 C-27.042737318436068 -55.5, 11.789525363127865 -55.5, 65.875 -55.5 C65.875 -55.5, 65.875 -55.5, 65.875 -55.5 C66.76968457491216 -55.471309207080445, 67.66436914982434 -55.4426184141609, 69.43089720892957 -55.38596929764367 C70.44002767415613 -55.288619695320214, 71.44915813938267 -55.19127009299675, 72.97218247349008 -55.044345767190165 C73.70069724014647 -54.92656514943356, 74.42921200680286 -54.80878453167694, 76.48430389292615 -54.47653321300413 C77.45799646128954 -54.254294238213, 78.43168902965294 -54.032055263421874, 79.95282940697766 -53.684864898666135 C81.03283172933503 -53.364325878438336, 82.11283405169242 -53.043786858210545, 83.36350610031094 -52.67259395909211 C84.5586259051764 -52.23277882333525, 85.75374571004185 -51.79296368757839, 86.70231877080526 -51.44388003270421 C87.35985086655798 -51.15281007891109, 88.01738296231068 -50.861740125117976, 89.95554752102447 -50.00377216858426 C90.75997005907738 -49.58410544573929, 91.56439259713027 -49.16443872289432, 93.10982413621853 -48.358188078848116 C94.06974838079545 -47.77627636064457, 95.02967262537236 -47.19436464244104, 96.15218701718544 -46.51388982149716 C97.1284108180441 -45.832918358065385, 98.10463461890276 -45.1519468946336, 99.07013444226249 -44.47845601367159 C99.74518739196832 -43.94011925019462, 100.42024034167414 -43.40178248671765, 101.85167593958224 -42.260250689486966 C102.50406533639017 -41.667767900583556, 103.1564547331981 -41.075285111680145, 104.48538155849349 -39.86838893042388 C105.4049568814168 -38.91885191096748, 106.3245322043401 -37.96931489151109, 106.96042883768001 -37.3126994095031 C107.54682807473591 -36.6238814985954, 108.1332273117918 -35.93506358768771, 109.26664727697565 -34.603684003159714 C109.69518495788596 -34.02948255132578, 110.12372263879627 -33.45528109949184, 111.39456013013104 -31.752474636780427 C111.93484143896926 -30.92245746055958, 112.47512274780746 -30.092440284338736, 113.33542334679672 -28.770787541234146 C113.7029823596051 -28.118149294606887, 114.07054137241347 -27.465511047979625, 115.08126150370151 -25.670875108366356 C115.54845000304589 -24.700748193245246, 116.01563850239025 -23.730621278124136, 116.62490057737759 -22.46547554329287 C116.9815005067542 -21.584666823342022, 117.33810043613082 -20.703858103391173, 117.95999742376169 -19.1677605203826 C118.37275258069332 -17.924607751307924, 118.78550773762494 -16.681454982233248, 119.08106584353466 -15.791281058022316 C119.28800575277806 -15.002129495753222, 119.49494566202146 -14.21297793348413, 119.9834991260912 -12.349911834575455 C120.2312375300158 -11.077827489952833, 120.47897593394042 -9.805743145330212, 120.66358897950198 -8.857794174352568 C120.8229449450303 -7.621860774109659, 120.9823009105586 -6.38592737386675, 121.1185407686805 -5.3292779378763475 C121.19839559392872 -4.085474576980442, 121.27825041917694 -2.841671216084535, 121.34648499913817 -1.7788625552268618 C121.34648499913817 -0.9051269555072847, 121.34648499913817 -0.03139135578770769, 121.34648499913817 1.7788625552268482 C121.29285668783994 2.614166791690483, 121.23922837654172 3.449471028154118, 121.1185407686805 5.32927793787631 C120.97955439351139 6.4072288177237615, 120.8405680183423 7.485179697571212, 120.66358897950198 8.857794174352529 C120.44270153662387 9.992004508954034, 120.22181409374576 11.12621484355554, 119.9834991260912 12.349911834575442 C119.64502304634155 13.640667823121815, 119.3065469665919 14.931423811668187, 119.08106584353467 15.79128105802228 C118.83582999800096 16.52989235174405, 118.59059415246725 17.26850364546582, 117.9599974237617 19.16776052038256 C117.5198688777902 20.25488653823872, 117.07974033181871 21.342012556094872, 116.62490057737759 22.465475543292854 C116.16717604370298 23.415950331204282, 115.70945151002837 24.366425119115714, 115.08126150370151 25.670875108366346 C114.43876772209389 26.811687877160878, 113.79627394048627 27.952500645955414, 113.33542334679672 28.770787541234135 C112.73770462484546 29.689044008101604, 112.13998590289422 30.607300474969072, 111.39456013013105 31.7524746367804 C110.58115307761238 32.8423659842485, 109.7677460250937 33.9322573317166, 109.26664727697566 34.6036840031597 C108.7670690876704 35.19051697112193, 108.26749089836514 35.777349939084154, 106.96042883768003 37.31269940950306 C106.1658378378315 38.133179853981005, 105.37124683798297 38.95366029845895, 104.48538155849351 39.86838893042387 C103.50726754582233 40.75668619725322, 102.52915353315115 41.64498346408256, 101.8516759395823 42.26025068948693 C100.74509386103196 43.142720449745, 99.63851178248163 44.02519021000306, 99.0701344422625 44.47845601367158 C98.13889374503103 45.1280492113002, 97.20765304779955 45.77764240892883, 96.15218701718548 46.51388982149714 C95.24655889782184 47.06288690951695, 94.3409307784582 47.61188399753676, 93.10982413621855 48.358188078848116 C92.27519270491611 48.79361476195165, 91.44056127361368 49.22904144505518, 89.95554752102449 50.003772168584256 C89.04792095490885 50.40555152561817, 88.1402943887932 50.80733088265209, 86.70231877080529 51.4438800327042 C85.54836562719508 51.86854545657868, 84.39441248358489 52.29321088045316, 83.36350610031099 52.6725939590921 C82.0030345801264 53.07637476502215, 80.6425630599418 53.4801555709522, 79.95282940697771 53.68486489866612 C78.59860963267286 53.99395672504131, 77.24438985836801 54.30304855141649, 76.48430389292618 54.476533213004124 C75.59943249806304 54.61959235784544, 74.7145611031999 54.76265150268676, 72.97218247349011 55.04434576719016 C71.71668996921375 55.16546161912705, 70.46119746493738 55.28657747106394, 69.43089720892957 55.38596929764367 C68.69348320018692 55.409616729614754, 67.95606919144427 55.43326416158583, 65.87500000000001 55.5 C65.87500000000001 55.5, 65.875 55.5, 65.875 55.5 C17.207782259096717 55.5, -31.459435481806565 55.5, -65.87499999999999 55.5 C-67.02571665999643 55.46309875644802, -68.17643331999288 55.42619751289603, -69.43089720892954 55.38596929764367 C-70.7030846647176 55.263242903813065, -71.97527212050565 55.140516509982454, -72.9721824734901 55.04434576719016 C-74.32438494474111 54.82573215812507, -75.67658741599213 54.60711854905999, -76.48430389292616 54.476533213004124 C-77.22843459414347 54.30669023635791, -77.97256529536077 54.13684725971169, -79.95282940697764 53.684864898666135 C-81.00417821154349 53.37283009211348, -82.05552701610932 53.060795285560836, -83.36350610031091 52.67259395909212 C-84.07402839234904 52.411115187626024, -84.78455068438716 52.14963641615993, -86.70231877080526 51.44388003270421 C-87.37922688262043 51.144232891369334, -88.0561349944356 50.84458575003447, -89.95554752102447 50.00377216858427 C-90.87140673950155 49.525969000940606, -91.78726595797862 49.048165833296935, -93.10982413621852 48.35818807884812 C-93.77092441323681 47.95742520586317, -94.43202469025512 47.55666233287821, -96.15218701718541 46.51388982149718 C-97.19850517448687 45.7840235693467, -98.24482333178833 45.054157317196214, -99.07013444226249 44.4784560136716 C-99.95362256288922 43.77389774807804, -100.83711068351596 43.06933948248449, -101.85167593958224 42.26025068948697 C-102.70932234608334 41.4813589151831, -103.56696875258446 40.70246714087922, -104.48538155849347 39.868388930423905 C-105.27421379235736 39.053854884628585, -106.06304602622124 38.23932083883327, -106.96042883768001 37.31269940950308 C-107.87551024903736 36.23779271411536, -108.79059166039472 35.16288601872763, -109.26664727697565 34.60368400315972 C-110.05829018583 33.54295462544754, -110.84993309468435 32.482225247735364, -111.39456013013104 31.752474636780434 C-111.9433431820638 30.90939650012869, -112.49212623399654 30.06631836347695, -113.33542334679669 28.77078754123417 C-113.85905796517082 27.841021252556093, -114.38269258354495 26.911254963878015, -115.0812615037015 25.670875108366364 C-115.41822044646165 24.971172653958536, -115.75517938922178 24.271470199550713, -116.62490057737759 22.465475543292875 C-117.00020061971381 21.538477182789688, -117.37550066205004 20.611478822286504, -117.95999742376169 19.167760520382608 C-118.3853449775889 17.886681458184395, -118.81069253141612 16.605602395986182, -119.08106584353466 15.791281058022301 C-119.3780678075945 14.658683847596654, -119.67506977165434 13.526086637171007, -119.9834991260912 12.349911834575463 C-120.25134136391546 10.974598551824931, -120.51918360173971 9.599285269074397, -120.66358897950198 8.857794174352573 C-120.7823560432593 7.93666028106032, -120.90112310701662 7.015526387768066, -121.1185407686805 5.3292779378763795 C-121.17164691960954 4.502106770643141, -121.22475307053857 3.6749356034099026, -121.34648499913817 1.7788625552268686 C-121.34648499913817 0.5262531802400496, -121.34648499913817 -0.7263561947467694, -121.34648499913817 -1.7788625552268416 C-121.28104125881285 -2.7982016360302095, -121.21559751848753 -3.817540716833578, -121.1185407686805 -5.329277937876303 C-120.94472937418905 -6.6773247906099815, -120.7709179796976 -8.025371643343659, -120.66358897950198 -8.857794174352547 C-120.51164880120619 -9.637974877333347, -120.3597086229104 -10.41815558031415, -119.9834991260912 -12.349911834575437 C-119.78526161543319 -13.105877379395093, -119.58702410477515 -13.861842924214747, -119.08106584353467 -15.791281058022273 C-118.77882745987274 -16.70157491446518, -118.47658907621081 -17.61186877090809, -117.95999742376172 -19.167760520382537 C-117.46283395306865 -20.395763904996194, -116.9656704823756 -21.62376728960985, -116.62490057737759 -22.46547554329285 C-116.21994563158789 -23.306373152872954, -115.8149906857982 -24.14727076245306, -115.08126150370151 -25.67087510836634 C-114.4950627864468 -26.711730289908886, -113.90886406919209 -27.75258547145143, -113.33542334679672 -28.770787541234153 C-112.65954326814149 -29.809120841261983, -111.98366318948626 -30.847454141289813, -111.39456013013105 -31.752474636780416 C-110.55823387208022 -32.87307563167904, -109.72190761402938 -33.99367662657767, -109.26664727697568 -34.6036840031597 C-108.66977933067669 -35.30479905563075, -108.0729113843777 -36.005914108101805, -106.96042883768004 -37.31269940950306 C-106.3852065910788 -37.90666360574358, -105.80998434447756 -38.5006278019841, -104.48538155849351 -39.86838893042385 C-103.46905307907801 -40.791391564851004, -102.45272459966252 -41.71439419927816, -101.8516759395823 -42.260250689486924 C-100.83122041599911 -43.07403681408258, -99.81076489241592 -43.88782293867824, -99.07013444226251 -44.47845601367158 C-98.02713352392401 -45.206008303522474, -96.98413260558549 -45.93356059337337, -96.15218701718548 -46.51388982149714 C-95.11064150208387 -47.14528083355258, -94.06909598698225 -47.77667184560803, -93.10982413621855 -48.35818807884811 C-92.3173624262113 -48.77161484536294, -91.52490071620407 -49.185041611877764, -89.9555475210245 -50.003772168584256 C-88.74980260319025 -50.537519676557295, -87.544057685356 -51.07126718453034, -86.70231877080529 -51.44388003270419 C-85.97511633392611 -51.71149725166137, -85.24791389704691 -51.979114470618555, -83.36350610031099 -52.6725939590921 C-82.4011610594676 -52.95821291576222, -81.4388160186242 -53.24383187243233, -79.95282940697771 -53.68486489866611 C-79.21745416885888 -53.85270949799484, -78.48207893074006 -54.02055409732357, -76.48430389292619 -54.47653321300412 C-75.63863959254982 -54.61325365886437, -74.79297529217345 -54.74997410472463, -72.97218247349012 -55.04434576719016 C-72.07214910396169 -55.13117090390007, -71.17211573443328 -55.21799604060998, -69.43089720892957 -55.38596929764367 C-68.33606415529351 -55.42107846271052, -67.24123110165746 -55.45618762777736, -65.87500000000001 -55.5 C-65.87500000000001 -55.5, -65.875 -55.5, -65.875 -55.5" stroke="none" stroke-width="0" fill="#ECECFF" style=""/><path d="M-65.875 -55.5 C-15.718877309221362 -55.5, 34.437245381557275 -55.5, 65.875 -55.5 M-65.875 -55.5 C-25.485652208899552 -55.5, 14.903695582200896 -55.5, 65.875 -55.5 M65.875 -55.5 C65.875 -55.5, 65.875 -55.5, 65.875 -55.5 M65.875 -55.5 C65.875 -55.5, 65.875 -55.5, 65.875 -55.5 M65.875 -55.5 C66.76643115884545 -55.47141353780132, 67.65786231769088 -55.44282707560264, 69.43089720892957 -55.38596929764367 M65.875 -55.5 C67.18946134320616 -55.457847783167175, 68.50392268641232 -55.41569556633434, 69.43089720892957 -55.38596929764367 M69.43089720892957 -55.38596929764367 C70.65979581128096 -55.26741892744163, 71.88869441363235 -55.1488685572396, 72.97218247349008 -55.044345767190165 M69.43089720892957 -55.38596929764367 C70.22678820591555 -55.3091906503634, 71.02267920290154 -55.23241200308313, 72.97218247349008 -55.044345767190165 M72.97218247349008 -55.044345767190165 C73.8938250537295 -54.89534174226201, 74.81546763396892 -54.74633771733386, 76.48430389292615 -54.47653321300413 M72.97218247349008 -55.044345767190165 C73.94727091992571 -54.88670102909429, 74.92235936636135 -54.729056290998415, 76.48430389292615 -54.47653321300413 M76.48430389292615 -54.47653321300413 C77.58720134162618 -54.224804067416805, 78.6900987903262 -53.97307492182948, 79.95282940697766 -53.684864898666135 M76.48430389292615 -54.47653321300413 C77.46151491971425 -54.25349117303765, 78.43872594650233 -54.03044913307117, 79.95282940697766 -53.684864898666135 M79.95282940697766 -53.684864898666135 C80.8432031452158 -53.420606646824176, 81.73357688345395 -53.15634839498222, 83.36350610031094 -52.67259395909211 M79.95282940697766 -53.684864898666135 C81.08910429669108 -53.3476244758278, 82.22537918640448 -53.010384052989465, 83.36350610031094 -52.67259395909211 M83.36350610031094 -52.67259395909211 C84.3827696103059 -52.29749556544537, 85.40203312030084 -51.92239717179862, 86.70231877080526 -51.44388003270421 M83.36350610031094 -52.67259395909211 C84.35044903594147 -52.309389835579594, 85.33739197157198 -51.94618571206708, 86.70231877080526 -51.44388003270421 M86.70231877080526 -51.44388003270421 C87.81581383142492 -50.95096880002528, 88.92930889204457 -50.45805756734635, 89.95554752102447 -50.00377216858426 M86.70231877080526 -51.44388003270421 C87.706970696717 -50.9991504270436, 88.71162262262871 -50.554420821383, 89.95554752102447 -50.00377216858426 M89.95554752102447 -50.00377216858426 C90.62386467609032 -49.65511153686397, 91.29218183115619 -49.306450905143684, 93.10982413621853 -48.358188078848116 M89.95554752102447 -50.00377216858426 C90.81315789359259 -49.55635738654114, 91.67076826616069 -49.10894260449802, 93.10982413621853 -48.358188078848116 M93.10982413621853 -48.358188078848116 C94.08494411760648 -47.767064615689655, 95.06006409899445 -47.1759411525312, 96.15218701718544 -46.51388982149716 M93.10982413621853 -48.358188078848116 C94.32093615303702 -47.62400485696853, 95.53204816985551 -46.88982163508894, 96.15218701718544 -46.51388982149716 M96.15218701718544 -46.51388982149716 C96.90349714764149 -45.98980839818238, 97.65480727809752 -45.4657269748676, 99.07013444226249 -44.47845601367159 M96.15218701718544 -46.51388982149716 C97.2068719659223 -45.778187257833906, 98.26155691465915 -45.042484694170646, 99.07013444226249 -44.47845601367159 M99.07013444226249 -44.47845601367159 C99.9880648039558 -43.746430977373976, 100.9059951656491 -43.014405941076355, 101.85167593958224 -42.260250689486966 M99.07013444226249 -44.47845601367159 C99.67622590545919 -43.99511420054342, 100.28231736865588 -43.51177238741525, 101.85167593958224 -42.260250689486966 M101.85167593958224 -42.260250689486966 C102.5238338051168 -41.64981470033105, 103.19599167065137 -41.039378711175125, 104.48538155849349 -39.86838893042388 M101.85167593958224 -42.260250689486966 C102.87302523304571 -41.33268828458491, 103.89437452650917 -40.405125879682856, 104.48538155849349 -39.86838893042388 M104.48538155849349 -39.86838893042388 C105.33438346038434 -38.9917247623691, 106.18338536227522 -38.11506059431433, 106.96042883768001 -37.3126994095031 M104.48538155849349 -39.86838893042388 C105.23179370621561 -39.09765710632379, 105.97820585393774 -38.32692528222369, 106.96042883768001 -37.3126994095031 M106.96042883768001 -37.3126994095031 C107.76619199411981 -36.366204156726454, 108.5719551505596 -35.41970890394981, 109.26664727697565 -34.603684003159714 M106.96042883768001 -37.3126994095031 C107.69749946483466 -36.44689431034043, 108.43457009198931 -35.58108921117777, 109.26664727697565 -34.603684003159714 M109.26664727697565 -34.603684003159714 C109.81952276139512 -33.86288122203043, 110.37239824581458 -33.12207844090114, 111.39456013013104 -31.752474636780427 M109.26664727697565 -34.603684003159714 C109.98453178926097 -33.64178415732187, 110.7024163015463 -32.67988431148403, 111.39456013013104 -31.752474636780427 M111.39456013013104 -31.752474636780427 C112.00687492643263 -30.81179468011608, 112.61918972273422 -29.871114723451736, 113.33542334679672 -28.770787541234146 M111.39456013013104 -31.752474636780427 C112.06394420008357 -30.72412095054252, 112.7333282700361 -29.695767264304614, 113.33542334679672 -28.770787541234146 M113.33542334679672 -28.770787541234146 C113.70261694334175 -28.118798128184874, 114.06981053988677 -27.4668087151356, 115.08126150370151 -25.670875108366356 M113.33542334679672 -28.770787541234146 C113.80713953076635 -27.933207690152827, 114.27885571473597 -27.095627839071508, 115.08126150370151 -25.670875108366356 M115.08126150370151 -25.670875108366356 C115.47613362850666 -24.850914692298492, 115.8710057533118 -24.030954276230624, 116.62490057737759 -22.46547554329287 M115.08126150370151 -25.670875108366356 C115.61982986864004 -24.55252637505453, 116.15839823357855 -23.434177641742703, 116.62490057737759 -22.46547554329287 M116.62490057737759 -22.46547554329287 C116.93704211189724 -21.694479918183312, 117.24918364641688 -20.923484293073752, 117.95999742376169 -19.1677605203826 M116.62490057737759 -22.46547554329287 C117.12744108385454 -21.224190776335078, 117.62998159033148 -19.982906009377285, 117.95999742376169 -19.1677605203826 M117.95999742376169 -19.1677605203826 C118.27223808220486 -18.22734140594468, 118.58447874064802 -17.286922291506762, 119.08106584353466 -15.791281058022316 M117.95999742376169 -19.1677605203826 C118.37506958991892 -17.917629288685678, 118.79014175607617 -16.667498056988755, 119.08106584353466 -15.791281058022316 M119.08106584353466 -15.791281058022316 C119.3055354901274 -14.935281009803969, 119.53000513672013 -14.079280961585622, 119.9834991260912 -12.349911834575455 M119.08106584353466 -15.791281058022316 C119.43144424357904 -14.45513636369391, 119.78182264362343 -13.118991669365505, 119.9834991260912 -12.349911834575455 M119.9834991260912 -12.349911834575455 C120.1234201752981 -11.631446819222312, 120.26334122450498 -10.912981803869167, 120.66358897950198 -8.857794174352568 M119.9834991260912 -12.349911834575455 C120.14359130734422 -11.52787231933566, 120.30368348859726 -10.705832804095868, 120.66358897950198 -8.857794174352568 M120.66358897950198 -8.857794174352568 C120.80948973239829 -7.7262167462512075, 120.9553904852946 -6.594639318149848, 121.1185407686805 -5.3292779378763475 M120.66358897950198 -8.857794174352568 C120.83700477847229 -7.512815482361701, 121.0104205774426 -6.167836790370833, 121.1185407686805 -5.3292779378763475 M121.1185407686805 -5.3292779378763475 C121.20467488340618 -3.98766957481772, 121.29080899813188 -2.646061211759092, 121.34648499913817 -1.7788625552268618 M121.1185407686805 -5.3292779378763475 C121.2025990347859 -4.020002592673388, 121.28665730089132 -2.71072724747043, 121.34648499913817 -1.7788625552268618 M121.34648499913817 -1.7788625552268618 C121.34648499913817 -0.7182223527994498, 121.34648499913817 0.3424178496279622, 121.34648499913817 1.7788625552268482 M121.34648499913817 -1.7788625552268618 C121.34648499913817 -0.978327060500546, 121.34648499913817 -0.17779156577423016, 121.34648499913817 1.7788625552268482 M121.34648499913817 1.7788625552268482 C121.27979222196277 2.817656393174507, 121.21309944478737 3.856450231122166, 121.1185407686805 5.32927793787631 M121.34648499913817 1.7788625552268482 C121.26993827401012 2.9711395865008323, 121.19339154888205 4.163416617774816, 121.1185407686805 5.32927793787631 M121.1185407686805 5.32927793787631 C121.00045031406442 6.2451641842807515, 120.88235985944834 7.161050430685194, 120.66358897950198 8.857794174352529 M121.1185407686805 5.32927793787631 C120.97023441663929 6.479512717906314, 120.82192806459805 7.629747497936316, 120.66358897950198 8.857794174352529 M120.66358897950198 8.857794174352529 C120.40033256859384 10.209560205103669, 120.1370761576857 11.56132623585481, 119.9834991260912 12.349911834575442 M120.66358897950198 8.857794174352529 C120.45413174571964 9.93331280102283, 120.24467451193729 11.008831427693128, 119.9834991260912 12.349911834575442 M119.9834991260912 12.349911834575442 C119.70633776962342 13.406848209278872, 119.42917641315563 14.463784583982301, 119.08106584353467 15.79128105802228 M119.9834991260912 12.349911834575442 C119.64087558970972 13.656483872778047, 119.29825205332824 14.96305591098065, 119.08106584353467 15.79128105802228 M119.08106584353467 15.79128105802228 C118.671197626613 17.02573882375842, 118.26132940969131 18.26019658949456, 117.9599974237617 19.16776052038256 M119.08106584353467 15.79128105802228 C118.7613717193421 16.75414882374894, 118.4416775951495 17.7170165894756, 117.9599974237617 19.16776052038256 M117.9599974237617 19.16776052038256 C117.48873107104785 20.331797522900867, 117.017464718334 21.495834525419173, 116.62490057737759 22.465475543292854 M117.9599974237617 19.16776052038256 C117.50713211824456 20.286346580564963, 117.0542668127274 21.40493264074736, 116.62490057737759 22.465475543292854 M116.62490057737759 22.465475543292854 C116.18081433637235 23.387630124663602, 115.73672809536713 24.309784706034346, 115.08126150370151 25.670875108366346 M116.62490057737759 22.465475543292854 C116.26344089781682 23.21605430189897, 115.90198121825605 23.96663306050509, 115.08126150370151 25.670875108366346 M115.08126150370151 25.670875108366346 C114.67052551587607 26.400178446279224, 114.25978952805062 27.1294817841921, 113.33542334679672 28.770787541234135 M115.08126150370151 25.670875108366346 C114.45081665893159 26.790293769718392, 113.82037181416166 27.90971243107044, 113.33542334679672 28.770787541234135 M113.33542334679672 28.770787541234135 C112.75805528220823 29.657779933475737, 112.18068721761975 30.544772325717343, 111.39456013013105 31.7524746367804 M113.33542334679672 28.770787541234135 C112.68212384977471 29.77443100413815, 112.02882435275272 30.77807446704217, 111.39456013013105 31.7524746367804 M111.39456013013105 31.7524746367804 C110.7135900667893 32.664912484009356, 110.03262000344753 33.57735033123831, 109.26664727697566 34.6036840031597 M111.39456013013105 31.7524746367804 C110.8033230459686 32.54467846675167, 110.21208596180614 33.33688229672293, 109.26664727697566 34.6036840031597 M109.26664727697566 34.6036840031597 C108.4195136002351 35.5987754231309, 107.57237992349455 36.593866843102106, 106.96042883768003 37.31269940950306 M109.26664727697566 34.6036840031597 C108.5836232583724 35.406002880578754, 107.90059923976914 36.20832175799781, 106.96042883768003 37.31269940950306 M106.96042883768003 37.31269940950306 C106.25263614142511 38.04355347924734, 105.5448434451702 38.77440754899162, 104.48538155849351 39.86838893042387 M106.96042883768003 37.31269940950306 C106.06351378841788 38.23883783596126, 105.16659873915572 39.16497626241947, 104.48538155849351 39.86838893042387 M104.48538155849351 39.86838893042387 C103.54490873792982 40.72250146251257, 102.60443591736612 41.57661399460126, 101.8516759395823 42.26025068948693 M104.48538155849351 39.86838893042387 C103.89607305558482 40.40358332051699, 103.30676455267613 40.938777710610104, 101.8516759395823 42.26025068948693 M101.8516759395823 42.26025068948693 C101.26103194715996 42.731273555746995, 100.67038795473765 43.20229642200706, 99.0701344422625 44.47845601367158 M101.8516759395823 42.26025068948693 C101.23521991410936 42.75185796521781, 100.61876388863644 43.24346524094868, 99.0701344422625 44.47845601367158 M99.0701344422625 44.47845601367158 C98.01910117928823 45.211611319425785, 96.96806791631397 45.94476662517999, 96.15218701718548 46.51388982149714 M99.0701344422625 44.47845601367158 C97.91461867326827 45.28449379265052, 96.75910290427404 46.09053157162946, 96.15218701718548 46.51388982149714 M96.15218701718548 46.51388982149714 C95.08826946377411 47.15884289464865, 94.02435191036274 47.80379596780016, 93.10982413621855 48.358188078848116 M96.15218701718548 46.51388982149714 C95.28339826927368 47.04055466605067, 94.41460952136188 47.5672195106042, 93.10982413621855 48.358188078848116 M93.10982413621855 48.358188078848116 C91.90338306230365 48.987587614347134, 90.69694198838873 49.616987149846146, 89.95554752102449 50.003772168584256 M93.10982413621855 48.358188078848116 C92.1077717238221 48.88095818055014, 91.10571931142566 49.40372828225216, 89.95554752102449 50.003772168584256 M89.95554752102449 50.003772168584256 C89.21139203557286 50.33318772740552, 88.46723655012124 50.6626032862268, 86.70231877080529 51.4438800327042 M89.95554752102449 50.003772168584256 C89.25428799637727 50.31419895802088, 88.55302847173006 50.62462574745751, 86.70231877080529 51.4438800327042 M86.70231877080529 51.4438800327042 C85.95928203781433 51.71732441900114, 85.21624530482337 51.990768805298075, 83.36350610031099 52.6725939590921 M86.70231877080529 51.4438800327042 C85.57851720153924 51.857449398501934, 84.45471563227318 52.27101876429967, 83.36350610031099 52.6725939590921 M83.36350610031099 52.6725939590921 C82.6612462885124 52.881020984996944, 81.95898647671382 53.08944801090179, 79.95282940697771 53.68486489866612 M83.36350610031099 52.6725939590921 C82.40078217885664 52.95832536553876, 81.4380582574023 53.24405677198543, 79.95282940697771 53.68486489866612 M79.95282940697771 53.68486489866612 C78.83334769478522 53.94037929417317, 77.71386598259271 54.19589368968022, 76.48430389292618 54.476533213004124 M79.95282940697771 53.68486489866612 C78.79784605664801 53.94848231140815, 77.64286270631831 54.21209972415018, 76.48430389292618 54.476533213004124 M76.48430389292618 54.476533213004124 C75.51357562154786 54.6334730318104, 74.54284735016952 54.79041285061667, 72.97218247349011 55.04434576719016 M76.48430389292618 54.476533213004124 C75.5426293737318 54.62877584647251, 74.60095485453742 54.78101847994089, 72.97218247349011 55.04434576719016 M72.97218247349011 55.04434576719016 C71.7959583605894 55.15781469274523, 70.61973424768867 55.2712836183003, 69.43089720892957 55.38596929764367 M72.97218247349011 55.04434576719016 C72.00738880189387 55.1374182523549, 71.04259513029764 55.23049073751963, 69.43089720892957 55.38596929764367 M69.43089720892957 55.38596929764367 C68.11612182118094 55.428131585273725, 66.80134643343231 55.470293872903774, 65.87500000000001 55.5 M69.43089720892957 55.38596929764367 C68.35065769387587 55.420610476332776, 67.27041817882218 55.45525165502189, 65.87500000000001 55.5 M65.87500000000001 55.5 C65.87500000000001 55.5, 65.875 55.5, 65.875 55.5 M65.87500000000001 55.5 C65.87500000000001 55.5, 65.87500000000001 55.5, 65.875 55.5 M65.875 55.5 C25.00886741663738 55.5, -15.857265166725242 55.5, -65.87499999999999 55.5 M65.875 55.5 C36.09253657040651 55.5, 6.31007314081301 55.5, -65.87499999999999 55.5 M-65.87499999999999 55.5 C-66.76419085041655 55.47148538013214, -67.65338170083312 55.442970760264274, -69.43089720892954 55.38596929764367 M-65.87499999999999 55.5 C-66.69448041709107 55.47372085804576, -67.51396083418217 55.44744171609151, -69.43089720892954 55.38596929764367 M-69.43089720892954 55.38596929764367 C-70.39772969967706 55.29270013004745, -71.36456219042456 55.199430962451224, -72.9721824734901 55.04434576719016 M-69.43089720892954 55.38596929764367 C-70.56118998446544 55.27693131296367, -71.69148276000136 55.16789332828366, -72.9721824734901 55.04434576719016 M-72.9721824734901 55.04434576719016 C-74.18016905177544 54.84904786528881, -75.38815563006078 54.65374996338746, -76.48430389292616 54.476533213004124 M-72.9721824734901 55.04434576719016 C-73.99607923215216 54.87881007968763, -75.01997599081422 54.7132743921851, -76.48430389292616 54.476533213004124 M-76.48430389292616 54.476533213004124 C-77.75313584737819 54.18693059930275, -79.02196780183023 53.89732798560137, -79.95282940697764 53.684864898666135 M-76.48430389292616 54.476533213004124 C-77.79618765733497 54.17710430461943, -79.10807142174379 53.877675396234736, -79.95282940697764 53.684864898666135 M-79.95282940697764 53.684864898666135 C-81.16349021278563 53.325547126390575, -82.37415101859364 52.96622935411501, -83.36350610031091 52.67259395909212 M-79.95282940697764 53.684864898666135 C-81.13870221663242 53.332904073533996, -82.3245750262872 52.980943248401864, -83.36350610031091 52.67259395909212 M-83.36350610031091 52.67259395909212 C-84.30652294932491 52.325555041502774, -85.24953979833892 51.97851612391343, -86.70231877080526 51.44388003270421 M-83.36350610031091 52.67259395909212 C-84.6484310354965 52.19972970522793, -85.93335597068209 51.72686545136374, -86.70231877080526 51.44388003270421 M-86.70231877080526 51.44388003270421 C-87.77333043144789 50.96977494096983, -88.84434209209051 50.49566984923545, -89.95554752102447 50.00377216858427 M-86.70231877080526 51.44388003270421 C-87.79382622133919 50.960702062770956, -88.8853336718731 50.477524092837704, -89.95554752102447 50.00377216858427 M-89.95554752102447 50.00377216858427 C-90.79938089189335 49.563544839503045, -91.64321426276223 49.12331751042182, -93.10982413621852 48.35818807884812 M-89.95554752102447 50.00377216858427 C-90.66011853761364 49.63619792052897, -91.36468955420281 49.26862367247367, -93.10982413621852 48.35818807884812 M-93.10982413621852 48.35818807884812 C-93.94274164648857 47.85326858935582, -94.77565915675862 47.34834909986351, -96.15218701718541 46.51388982149718 M-93.10982413621852 48.35818807884812 C-94.09973284101373 47.758099604652, -95.08964154580895 47.158011130455876, -96.15218701718541 46.51388982149718 M-96.15218701718541 46.51388982149718 C-97.00704360639781 45.917578871007926, -97.8619001956102 45.32126792051867, -99.07013444226249 44.4784560136716 M-96.15218701718541 46.51388982149718 C-97.15829714832695 45.81207094781846, -98.16440727946848 45.110252074139744, -99.07013444226249 44.4784560136716 M-99.07013444226249 44.4784560136716 C-99.75430232026578 43.93285033743582, -100.43847019826909 43.38724466120004, -101.85167593958224 42.26025068948697 M-99.07013444226249 44.4784560136716 C-99.63286083250401 44.02969669223212, -100.19558722274553 43.580937370792654, -101.85167593958224 42.26025068948697 M-101.85167593958224 42.26025068948697 C-102.75685342133035 41.4381924502471, -103.66203090307847 40.61613421100723, -104.48538155849347 39.868388930423905 M-101.85167593958224 42.26025068948697 C-102.82465530728366 41.3766165713639, -103.7976346749851 40.49298245324082, -104.48538155849347 39.868388930423905 M-104.48538155849347 39.868388930423905 C-105.33380052433311 38.99232669170195, -106.18221949017276 38.11626445297999, -106.96042883768001 37.31269940950308 M-104.48538155849347 39.868388930423905 C-105.04361736602357 39.29196462713693, -105.60185317355365 38.71554032384995, -106.96042883768001 37.31269940950308 M-106.96042883768001 37.31269940950308 C-107.5245609736196 36.65003770260056, -108.08869310955917 35.98737599569804, -109.26664727697565 34.60368400315972 M-106.96042883768001 37.31269940950308 C-107.67227969775338 36.4765188837995, -108.38413055782674 35.64033835809592, -109.26664727697565 34.60368400315972 M-109.26664727697565 34.60368400315972 C-110.11457399812934 33.46753944452719, -110.96250071928306 32.33139488589467, -111.39456013013104 31.752474636780434 M-109.26664727697565 34.60368400315972 C-109.85909746004232 33.80985473117239, -110.451547643109 33.01602545918506, -111.39456013013104 31.752474636780434 M-111.39456013013104 31.752474636780434 C-111.81486258697865 31.106777196049975, -112.23516504382626 30.461079755319517, -113.33542334679669 28.77078754123417 M-111.39456013013104 31.752474636780434 C-111.9330017391744 30.92528373347304, -112.47144334821776 30.098092830165644, -113.33542334679669 28.77078754123417 M-113.33542334679669 28.77078754123417 C-113.70386480387737 28.11658242544428, -114.07230626095804 27.462377309654396, -115.0812615037015 25.670875108366364 M-113.33542334679669 28.77078754123417 C-113.97341776994163 27.63796383899958, -114.61141219308657 26.505140136764982, -115.0812615037015 25.670875108366364 M-115.0812615037015 25.670875108366364 C-115.58284308460513 24.629330223493394, -116.08442466550876 23.587785338620424, -116.62490057737759 22.465475543292875 M-115.0812615037015 25.670875108366364 C-115.45538578751885 24.89399802804234, -115.8295100713362 24.117120947718316, -116.62490057737759 22.465475543292875 M-116.62490057737759 22.465475543292875 C-117.06902824430175 21.368471619365916, -117.5131559112259 20.271467695438957, -117.95999742376169 19.167760520382608 M-116.62490057737759 22.465475543292875 C-117.0273626598149 21.47138641859771, -117.4298247422522 20.477297293902545, -117.95999742376169 19.167760520382608 M-117.95999742376169 19.167760520382608 C-118.23626202619874 18.335695554628998, -118.5125266286358 17.503630588875392, -119.08106584353466 15.791281058022301 M-117.95999742376169 19.167760520382608 C-118.40374830918353 17.831253555594085, -118.84749919460536 16.494746590805565, -119.08106584353466 15.791281058022301 M-119.08106584353466 15.791281058022301 C-119.32933507058644 14.84452289471024, -119.5776042976382 13.897764731398178, -119.9834991260912 12.349911834575463 M-119.08106584353466 15.791281058022301 C-119.44147594804896 14.416881126781895, -119.80188605256326 13.042481195541491, -119.9834991260912 12.349911834575463 M-119.9834991260912 12.349911834575463 C-120.14942233801405 11.497931209234904, -120.3153455499369 10.645950583894345, -120.66358897950198 8.857794174352573 M-119.9834991260912 12.349911834575463 C-120.12673926043774 11.614404018519087, -120.26997939478429 10.878896202462709, -120.66358897950198 8.857794174352573 M-120.66358897950198 8.857794174352573 C-120.83495311927611 7.528727745941426, -121.00631725905022 6.199661317530278, -121.1185407686805 5.3292779378763795 M-120.66358897950198 8.857794174352573 C-120.80622417895232 7.751543733921771, -120.94885937840264 6.64529329349097, -121.1185407686805 5.3292779378763795 M-121.1185407686805 5.3292779378763795 C-121.16756892088388 4.565624892496624, -121.21659707308726 3.8019718471168686, -121.34648499913817 1.7788625552268686 M-121.1185407686805 5.3292779378763795 C-121.1652666560383 4.601484525821198, -121.21199254339611 3.873691113766016, -121.34648499913817 1.7788625552268686 M-121.34648499913817 1.7788625552268686 C-121.34648499913817 0.8043653350486291, -121.34648499913817 -0.17013188512961053, -121.34648499913817 -1.7788625552268416 M-121.34648499913817 1.7788625552268686 C-121.34648499913817 1.0518210915666995, -121.34648499913817 0.32477962790653025, -121.34648499913817 -1.7788625552268416 M-121.34648499913817 -1.7788625552268416 C-121.25781866136677 -3.15991233619607, -121.16915232359537 -4.540962117165298, -121.1185407686805 -5.329277937876303 M-121.34648499913817 -1.7788625552268416 C-121.2839911604171 -2.752254537426101, -121.22149732169605 -3.7256465196253608, -121.1185407686805 -5.329277937876303 M-121.1185407686805 -5.329277937876303 C-120.95008056829828 -6.635821985811676, -120.78162036791603 -7.942366033747049, -120.66358897950198 -8.857794174352547 M-121.1185407686805 -5.329277937876303 C-121.00964477040915 -6.173853796521808, -120.9007487721378 -7.018429655167312, -120.66358897950198 -8.857794174352547 M-120.66358897950198 -8.857794174352547 C-120.4187486246529 -10.114997649475178, -120.17390826980385 -11.372201124597812, -119.9834991260912 -12.349911834575437 M-120.66358897950198 -8.857794174352547 C-120.49533779876967 -9.721728427513339, -120.32708661803736 -10.585662680674133, -119.9834991260912 -12.349911834575437 M-119.9834991260912 -12.349911834575437 C-119.77639787036559 -13.139678680909219, -119.56929661463998 -13.929445527243, -119.08106584353467 -15.791281058022273 M-119.9834991260912 -12.349911834575437 C-119.80027822796895 -13.048612527555175, -119.61705732984669 -13.747313220534913, -119.08106584353467 -15.791281058022273 M-119.08106584353467 -15.791281058022273 C-118.74235446132174 -16.81142577491767, -118.40364307910879 -17.831570491813064, -117.95999742376172 -19.167760520382537 M-119.08106584353467 -15.791281058022273 C-118.67552110672388 -17.01271719051744, -118.26997636991308 -18.234153323012606, -117.95999742376172 -19.167760520382537 M-117.95999742376172 -19.167760520382537 C-117.63427858364184 -19.97229235282399, -117.30855974352197 -20.77682418526545, -116.62490057737759 -22.46547554329285 M-117.95999742376172 -19.167760520382537 C-117.66255014604953 -19.902461047083555, -117.36510286833732 -20.637161573784578, -116.62490057737759 -22.46547554329285 M-116.62490057737759 -22.46547554329285 C-116.28361687394158 -23.174158455779175, -115.94233317050556 -23.882841368265503, -115.08126150370151 -25.67087510836634 M-116.62490057737759 -22.46547554329285 C-116.19613807679913 -23.355810049791895, -115.76737557622066 -24.24614455629094, -115.08126150370151 -25.67087510836634 M-115.08126150370151 -25.67087510836634 C-114.48138747461077 -26.736012190849245, -113.88151344552003 -27.801149273332154, -113.33542334679672 -28.770787541234153 M-115.08126150370151 -25.67087510836634 C-114.60093721279482 -26.523739524979778, -114.12061292188811 -27.37660394159322, -113.33542334679672 -28.770787541234153 M-113.33542334679672 -28.770787541234153 C-112.73443081051587 -29.694073466054114, -112.13343827423503 -30.61735939087408, -111.39456013013105 -31.752474636780416 M-113.33542334679672 -28.770787541234153 C-112.55990320420078 -29.96219473657842, -111.78438306160486 -31.15360193192269, -111.39456013013105 -31.752474636780416 M-111.39456013013105 -31.752474636780416 C-110.65240999358498 -32.74688820848383, -109.9102598570389 -33.74130178018724, -109.26664727697568 -34.6036840031597 M-111.39456013013105 -31.752474636780416 C-110.68843191623009 -32.698622113804056, -109.9823037023291 -33.64476959082769, -109.26664727697568 -34.6036840031597 M-109.26664727697568 -34.6036840031597 C-108.50507926193467 -35.49826512807453, -107.74351124689366 -36.392846252989365, -106.96042883768004 -37.31269940950306 M-109.26664727697568 -34.6036840031597 C-108.543839939655 -35.452734630479185, -107.82103260233433 -36.30178525779868, -106.96042883768004 -37.31269940950306 M-106.96042883768004 -37.31269940950306 C-106.46119858921126 -37.828195628612725, -105.9619683407425 -38.3436918477224, -104.48538155849351 -39.86838893042385 M-106.96042883768004 -37.31269940950306 C-106.3224651479584 -37.97144929693368, -105.68450145823675 -38.630199184364294, -104.48538155849351 -39.86838893042385 M-104.48538155849351 -39.86838893042385 C-103.53984927501415 -40.7270963328665, -102.5943169915348 -41.58580373530915, -101.8516759395823 -42.260250689486924 M-104.48538155849351 -39.86838893042385 C-103.55563907047524 -40.71275645840384, -102.62589658245696 -41.557123986383836, -101.8516759395823 -42.260250689486924 M-101.8516759395823 -42.260250689486924 C-101.14558280393759 -42.823341175236116, -100.43948966829288 -43.3864316609853, -99.07013444226251 -44.47845601367158 M-101.8516759395823 -42.260250689486924 C-100.83595776424744 -43.07025890492067, -99.82023958891259 -43.88026712035441, -99.07013444226251 -44.47845601367158 M-99.07013444226251 -44.47845601367158 C-98.03366133448891 -45.20145478545676, -96.9971882267153 -45.92445355724194, -96.15218701718548 -46.51388982149714 M-99.07013444226251 -44.47845601367158 C-98.02744693664538 -45.20578968037547, -96.98475943102822 -45.93312334707935, -96.15218701718548 -46.51388982149714 M-96.15218701718548 -46.51388982149714 C-95.39673373698577 -46.971850039490455, -94.64128045678606 -47.42981025748377, -93.10982413621855 -48.35818807884811 M-96.15218701718548 -46.51388982149714 C-95.41136706563586 -46.96297922966779, -94.67054711408623 -47.412068637838445, -93.10982413621855 -48.35818807884811 M-93.10982413621855 -48.35818807884811 C-91.84846133508489 -49.01624024425811, -90.58709853395125 -49.6742924096681, -89.9555475210245 -50.003772168584256 M-93.10982413621855 -48.35818807884811 C-92.09477558017757 -48.887738260365055, -91.0797270241366 -49.41728844188201, -89.9555475210245 -50.003772168584256 M-89.9555475210245 -50.003772168584256 C-89.16768553101357 -50.352535300466535, -88.37982354100265 -50.70129843234881, -86.70231877080529 -51.44388003270419 M-89.9555475210245 -50.003772168584256 C-88.94605497835542 -50.45064457169154, -87.93656243568634 -50.89751697479883, -86.70231877080529 -51.44388003270419 M-86.70231877080529 -51.44388003270419 C-85.6586495364823 -51.8279599585077, -84.6149803021593 -52.21203988431121, -83.36350610031099 -52.6725939590921 M-86.70231877080529 -51.44388003270419 C-85.54189745376047 -51.87092580419375, -84.38147613671566 -52.29797157568331, -83.36350610031099 -52.6725939590921 M-83.36350610031099 -52.6725939590921 C-82.36487096951376 -52.96898362396995, -81.36623583871653 -53.26537328884779, -79.95282940697771 -53.68486489866611 M-83.36350610031099 -52.6725939590921 C-82.12059002210644 -53.04148492690358, -80.8776739439019 -53.41037589471505, -79.95282940697771 -53.68486489866611 M-79.95282940697771 -53.68486489866611 C-79.25863833197467 -53.84330948151544, -78.5644472569716 -54.001754064364775, -76.48430389292619 -54.47653321300412 M-79.95282940697771 -53.68486489866611 C-79.01946747817192 -53.89789866816024, -78.08610554936612 -54.11093243765437, -76.48430389292619 -54.47653321300412 M-76.48430389292619 -54.47653321300412 C-75.56760825972489 -54.62473745389929, -74.6509126265236 -54.772941694794476, -72.97218247349012 -55.04434576719016 M-76.48430389292619 -54.47653321300412 C-75.37414666718465 -54.65601482386415, -74.2639894414431 -54.83549643472418, -72.97218247349012 -55.04434576719016 M-72.97218247349012 -55.04434576719016 C-71.66392603794324 -55.170551692118806, -70.35566960239638 -55.29675761704745, -69.43089720892957 -55.38596929764367 M-72.97218247349012 -55.04434576719016 C-71.80438113259254 -55.15700215805995, -70.63657979169497 -55.26965854892975, -69.43089720892957 -55.38596929764367 M-69.43089720892957 -55.38596929764367 C-68.33425234710296 -55.421136563872714, -67.23760748527637 -55.45630383010176, -65.87500000000001 -55.5 M-69.43089720892957 -55.38596929764367 C-68.1137135399242 -55.42820881416619, -66.79652987091885 -55.47044833068871, -65.87500000000001 -55.5 M-65.87500000000001 -55.5 C-65.87500000000001 -55.5, -65.875 -55.5, -65.875 -55.5 M-65.87500000000001 -55.5 C-65.87500000000001 -55.5, -65.875 -55.5, -65.875 -55.5" stroke="#9370DB" stroke-width="1.3" fill="none" stroke-dasharray="0 0" style=""/></g><g class="label" style="" transform="translate(-100, -48)"><rect/><foreignObject width="200" height="96"><div xmlns="http://www.w3.org/1999/xhtml" style="display: table; white-space: break-spaces; line-height: 1.5; max-width: 200px; text-align: center; width: 200px;"><span class="nodeLabel"><p>Section 304B: Causing death of child below 14 years of age, domestic worker o...</p></span></div></foreignObject></g></g></g></g></g><defs><filter id="my-svg-drop-shadow" height="130%" width="130%"><feDropShadow dx="4" dy="4" stdDeviation="0" flood-opacity="0.06" flood-color="#000000"/></filter></defs><defs><filter id="my-svg-drop-shadow-small" height="150%" width="150%"><feDropShadow dx="2" dy="2" stdDeviation="0" flood-opacity="0.06" flood-color="#000000"/></filter></defs></svg>