<svg class="yuho-mermaid-svg" id="my-svg" width="100%" xmlns="http://www.w3.org/2000/svg" xmlns:xlink="http://www.w3.org/1999/xlink" class="flowchart" style="max-width: 548.055px; background-color: transparent;" viewBox="0 0 548.0546875 928" role="graphics-document document" aria-roledescription="flowchart-v2"><style>#my-svg{font-family:"trebuchet ms",verdana,arial,sans-serif;font-size:16px;fill:#333;}@keyframes edge-animation-frame{from{stroke-dashoffset:0;}}@keyframes dash{to{stroke-dashoffset:0;}}#my-svg .edge-animation-slow{stroke-dasharray:9,5!important;stroke-dashoffset:900;animation:dash 50s linear infinite;stroke-linecap:round;}#my-svg .edge-animation-fast{stroke-dasharray:9,5!important;stroke-dashoffset:900;animation:dash 20s linear infinite;stroke-linecap:round;}#my-svg .error-icon{fill:#552222;}#my-svg .error-text{fill:#552222;stroke:#552222;}#my-svg .edge-thickness-normal{stroke-width:1px;}#my-svg .edge-thickness-thick{stroke-width:3.5px;}#my-svg .edge-pattern-solid{stroke-dasharray:0;}#my-svg .edge-thickness-invisible{stroke-width:0;fill:none;}#my-svg .edge-pattern-dashed{stroke-dasharray:3;}#my-svg .edge-pattern-dotted{stroke-dasharray:2;}#my-svg .marker{fill:#333333;stroke:#333333;}#my-svg .marker.cross{stroke:#333333;}#my-svg svg{font-family:"trebuchet ms",verdana,arial,sans-serif;font-size:16px;}#my-svg p{margin:0;}#my-svg .label{font-family:"trebuchet ms",verdana,arial,sans-serif;color:#333;}#my-svg .cluster-label text{fill:#333;}#my-svg .cluster-label span{color:#333;}#my-svg .cluster-label span p{background-color:transparent;}#my-svg .label text,#my-svg span{fill:#333;color:#333;}#my-svg .node rect,#my-svg .node circle,#my-svg .node ellipse,#my-svg .node polygon,#my-svg .node path{fill:#ECECFF;stroke:#9370DB;stroke-width:1px;}#my-svg .rough-node .label text,#my-svg .node .label text,#my-svg .image-shape .label,#my-svg .icon-shape .label{text-anchor:middle;}#my-svg .node .katex path{fill:#000;stroke:#000;stroke-width:1px;}#my-svg .rough-node .label,#my-svg .node .label,#my-svg .image-shape .label,#my-svg .icon-shape .label{text-align:center;}#my-svg .node.clickable{cursor:pointer;}#my-svg .root .anchor path{fill:#333333!important;stroke-width:0;stroke:#333333;}#my-svg .arrowheadPath{fill:#333333;}#my-svg .edgePath .path{stroke:#333333;stroke-width:1px;}#my-svg .flowchart-link{stroke:#333333;fill:none;}#my-svg .edgeLabel{background-color:rgba(232,232,232, 0.8);text-align:center;}#my-svg .edgeLabel p{background-color:rgba(232,232,232, 0.8);}#my-svg .edgeLabel rect{opacity:0.5;background-color:rgba(232,232,232, 0.8);fill:rgba(232,232,232, 0.8);}#my-svg .labelBkg{background-color:rgba(232, 232, 232, 0.5);}#my-svg .cluster rect{fill:#ffffde;stroke:#aaaa33;stroke-width:1px;}#my-svg .cluster text{fill:#333;}#my-svg .cluster span{color:#333;}#my-svg div.mermaidTooltip{position:absolute;text-align:center;max-width:200px;padding:2px;font-family:"trebuchet ms",verdana,arial,sans-serif;font-size:12px;background:hsl(80, 100%, 96.2745098039%);border:1px solid #aaaa33;border-radius:2px;pointer-events:none;z-index:100;}#my-svg .flowchartTitleText{text-anchor:middle;font-size:18px;fill:#333;}#my-svg rect.text{fill:none;stroke-width:0;}#my-svg .icon-shape,#my-svg .image-shape{background-color:rgba(232,232,232, 0.8);text-align:center;}#my-svg .icon-shape p,#my-svg .image-shape p{background-color:rgba(232,232,232, 0.8);padding:2px;}#my-svg .icon-shape .label rect,#my-svg .image-shape .label rect{opacity:0.5;background-color:rgba(232,232,232, 0.8);fill:rgba(232,232,232, 0.8);}#my-svg .label-icon{display:inline-block;height:1em;overflow:visible;vertical-align:-0.125em;}#my-svg .node .label-icon path{fill:currentColor;stroke:revert;stroke-width:revert;}#my-svg .node .neo-node{stroke:#9370DB;}#my-svg [data-look="neo"].node rect,#my-svg [data-look="neo"].cluster rect,#my-svg [data-look="neo"].node polygon{stroke:#9370DB;filter:drop-shadow(1px 2px 2px rgba(185, 185, 185, 1));}#my-svg [data-look="neo"].node path{stroke:#9370DB;stroke-width:1px;}#my-svg [data-look="neo"].node .outer-path{filter:drop-shadow(1px 2px 2px rgba(185, 185, 185, 1));}#my-svg [data-look="neo"].node .neo-line path{stroke:#9370DB;filter:none;}#my-svg [data-look="neo"].node circle{stroke:#9370DB;filter:drop-shadow(1px 2px 2px rgba(185, 185, 185, 1));}#my-svg [data-look="neo"].node circle .state-start{fill:#000000;}#my-svg [data-look="neo"].icon-shape .icon{fill:#9370DB;filter:drop-shadow(1px 2px 2px rgba(185, 185, 185, 1));}#my-svg [data-look="neo"].icon-shape .icon-neo path{stroke:#9370DB;filter:drop-shadow(1px 2px 2px rgba(185, 185, 185, 1));}#my-svg :root{--mermaid-font-family:"trebuchet ms",verdana,arial,sans-serif;}</style><g><marker id="my-svg_flowchart-v2-pointEnd" class="marker flowchart-v2" viewBox="0 0 10 10" refX="5" refY="5" markerUnits="userSpaceOnUse" markerWidth="8" markerHeight="8" orient="auto"><path d="M 0 0 L 10 5 L 0 10 z" class="arrowMarkerPath" style="stroke-width: 1; stroke-dasharray: 1, 0;"/></marker><marker id="my-svg_flowchart-v2-pointStart" class="marker flowchart-v2" viewBox="0 0 10 10" refX="4.5" refY="5" markerUnits="userSpaceOnUse" markerWidth="8" markerHeight="8" orient="auto"><path d="M 0 5 L 10 10 L 10 0 z" class="arrowMarkerPath" style="stroke-width: 1; stroke-dasharray: 1, 0;"/></marker><marker id="my-svg_flowchart-v2-pointEnd-margin" class="marker flowchart-v2" viewBox="0 0 11.5 14" refX="11.5" refY="7" markerUnits="userSpaceOnUse" markerWidth="10.5" markerHeight="14" orient="auto"><path d="M 0 0 L 11.5 7 L 0 14 z" class="arrowMarkerPath" style="stroke-width: 0; stroke-dasharray: 1, 0;"/></marker><marker id="my-svg_flowchart-v2-pointStart-margin" class="marker flowchart-v2" viewBox="0 0 11.5 14" refX="1" refY="7" markerUnits="userSpaceOnUse" markerWidth="11.5" markerHeight="14" orient="auto"><polygon points="0,7 11.5,14 11.5,0" class="arrowMarkerPath" style="stroke-width: 0; stroke-dasharray: 1, 0;"/></marker><marker id="my-svg_flowchart-v2-circleEnd" class="marker flowchart-v2" viewBox="0 0 10 10" refX="11" refY="5" markerUnits="userSpaceOnUse" markerWidth="11" markerHeight="11" orient="auto"><circle cx="5" cy="5" r="5" class="arrowMarkerPath" style="stroke-width: 1; stroke-dasharray: 1, 0;"/></marker><marker id="my-svg_flowchart-v2-circleStart" class="marker flowchart-v2" viewBox="0 0 10 10" refX="-1" refY="5" markerUnits="userSpaceOnUse" markerWidth="11" markerHeight="11" orient="auto"><circle cx="5" cy="5" r="5" class="arrowMarkerPath" style="stroke-width: 1; stroke-dasharray: 1, 0;"/></marker><marker id="my-svg_flowchart-v2-circleEnd-margin" class="marker flowchart-v2" viewBox="0 0 10 10" refY="5" refX="12.25" markerUnits="userSpaceOnUse" markerWidth="14" markerHeight="14" orient="auto"><circle cx="5" cy="5" r="5" class="arrowMarkerPath" style="stroke-width: 0; stroke-dasharray: 1, 0;"/></marker><marker id="my-svg_flowchart-v2-circleStart-margin" class="marker flowchart-v2" viewBox="0 0 10 10" refX="-2" refY="5" markerUnits="userSpaceOnUse" markerWidth="14" markerHeight="14" orient="auto"><circle cx="5" cy="5" r="5" class="arrowMarkerPath" style="stroke-width: 0; stroke-dasharray: 1, 0;"/></marker><marker id="my-svg_flowchart-v2-crossEnd" class="marker cross flowchart-v2" viewBox="0 0 11 11" refX="12" refY="5.2" markerUnits="userSpaceOnUse" markerWidth="11" markerHeight="11" orient="auto"><path d="M 1,1 l 9,9 M 10,1 l -9,9" class="arrowMarkerPath" style="stroke-width: 2; stroke-dasharray: 1, 0;"/></marker><marker id="my-svg_flowchart-v2-crossStart" class="marker cross flowchart-v2" viewBox="0 0 11 11" refX="-1" refY="5.2" markerUnits="userSpaceOnUse" markerWidth="11" markerHeight="11" orient="auto"><path d="M 1,1 l 9,9 M 10,1 l -9,9" class="arrowMarkerPath" style="stroke-width: 2; stroke-dasharray: 1, 0;"/></marker><marker id="my-svg_flowchart-v2-crossEnd-margin" class="marker cross flowchart-v2" viewBox="0 0 15 15" refX="17.7" refY="7.5" markerUnits="userSpaceOnUse" markerWidth="12" markerHeight="12" orient="auto"><path d="M 1,1 L 14,14 M 1,14 L 14,1" class="arrowMarkerPath" style="stroke-width: 2.5;"/></marker><marker id="my-svg_flowchart-v2-crossStart-margin" class="marker cross flowchart-v2" viewBox="0 0 15 15" refX="-3.5" refY="7.5" markerUnits="userSpaceOnUse" markerWidth="12" markerHeight="12" orient="auto"><path d="M 1,1 L 14,14 M 1,14 L 14,1" class="arrowMarkerPath" style="stroke-width: 2.5; stroke-dasharray: 1, 0;"/></marker><g class="root"><g class="clusters"/><g class="edgePaths"><path d="M201.022,95.5L190.518,101.583C180.015,107.667,159.007,119.833,148.582,136.75C138.157,153.667,138.314,175.333,138.393,186.167L138.471,197" id="my-svg-L_START1_GRP2_0" class="edge-thickness-normal edge-pattern-solid edge-thickness-normal edge-pattern-solid flowchart-link" style=";" data-edge="true" data-et="edge" data-id="L_START1_GRP2_0" data-points="W3sieCI6MjAxLjAyMTg4NDcwNDk2ODk4LCJ5Ijo5NS40OTk5OTk5OTk5OTk5OX0seyJ4IjoxMzgsInkiOjEzMn0seyJ4IjoxMzguNSwieSI6MjAxfV0=" data-look="classic" marker-end="url(#my-svg_flowchart-v2-pointEnd)"/><path d="M138.5,240L138.417,249.333C138.333,258.667,138.167,277.333,138.083,290.167C138,303,138,310,138,313.5L138,317" id="my-svg-L_GRP2_ELEM3_0" class="edge-thickness-normal edge-pattern-solid edge-thickness-normal edge-pattern-solid flowchart-link" style=";" data-edge="true" data-et="edge" data-id="L_GRP2_ELEM3_0" data-points="W3sieCI6MTM4LjUsInkiOjI0MH0seyJ4IjoxMzgsInkiOjI5Nn0seyJ4IjoxMzgsInkiOjMyMX1d" data-look="classic" marker-end="url(#my-svg_flowchart-v2-pointEnd)"/><path d="M138,399L138,403.167C138,407.333,138,415.667,138.07,423.417C138.141,431.167,138.281,438.334,138.351,441.917L138.422,445.501" id="my-svg-L_ELEM3_GRP4_0" class="edge-thickness-normal edge-pattern-solid edge-thickness-normal edge-pattern-solid flowchart-link" style=";" data-edge="true" data-et="edge" data-id="L_ELEM3_GRP4_0" data-points="W3sieCI6MTM4LCJ5IjozOTl9LHsieCI6MTM4LCJ5Ijo0MjR9LHsieCI6MTM4LjUsInkiOjQ0OS41fV0=" data-look="classic" marker-end="url(#my-svg_flowchart-v2-pointEnd)"/><path d="M138.5,488.5L138.417,492.583C138.333,496.667,138.167,504.833,138.083,512.417C138,520,138,527,138,530.5L138,534" id="my-svg-L_GRP4_ELEM5_0" class="edge-thickness-normal edge-pattern-solid edge-thickness-normal edge-pattern-solid flowchart-link" style=";" data-edge="true" data-et="edge" data-id="L_GRP4_ELEM5_0" data-points="W3sieCI6MTM4LjUsInkiOjQ4OC41fSx7IngiOjEzOCwieSI6NTEzfSx7IngiOjEzOCwieSI6NTM4fV0=" data-look="classic" marker-end="url(#my-svg_flowchart-v2-pointEnd)"/><path d="M138,640L138,644.167C138,648.333,138,656.667,138,664.333C138,672,138,679,138,682.5L138,686" id="my-svg-L_ELEM5_ELEM6_0" class="edge-thickness-normal edge-pattern-solid edge-thickness-normal edge-pattern-solid flowchart-link" style=";" data-edge="true" data-et="edge" data-id="L_ELEM5_ELEM6_0" data-points="W3sieCI6MTM4LCJ5Ijo2NDB9LHsieCI6MTM4LCJ5Ijo2NjV9LHsieCI6MTM4LCJ5Ijo2OTB9XQ==" data-look="classic" marker-end="url(#my-svg_flowchart-v2-pointEnd)"/><path d="M138,792L138,796.167C138,800.333,138,808.667,138,816.333C138,824,138,831,138,834.5L138,838" id="my-svg-L_ELEM6_ELEM7_0" class="edge-thickness-normal edge-pattern-solid edge-thickness-normal edge-pattern-solid flowchart-link" style=";" data-edge="true" data-et="edge" data-id="L_ELEM6_ELEM7_0" data-points="W3sieCI6MTM4LCJ5Ijo3OTJ9LHsieCI6MTM4LCJ5Ijo4MTd9LHsieCI6MTM4LCJ5Ijo4NDJ9XQ==" data-look="classic" marker-end="url(#my-svg_flowchart-v2-pointEnd)"/><path d="M348.033,95.5L358.37,101.583C368.707,107.667,389.381,119.833,399.718,131.417C410.055,143,410.055,154,410.055,159.5L410.055,165" id="my-svg-L_START1_ILLUS8_0" class="edge-thickness-normal edge-pattern-dotted edge-thickness-normal edge-pattern-solid flowchart-link" style=";" data-edge="true" data-et="edge" data-id="L_START1_ILLUS8_0" data-points="W3sieCI6MzQ4LjAzMjgwMjc5NTAzMTA1LCJ5Ijo5NS40OTk5OTk5OTk5OTk5OX0seyJ4Ijo0MTAuMDU0Njg3NSwieSI6MTMyfSx7IngiOjQxMC4wNTQ2ODc1LCJ5IjoxNjl9XQ==" data-look="classic" marker-end="url(#my-svg_flowchart-v2-pointEnd)"/></g><g class="edgeLabels"><g class="edgeLabel"><g class="label" data-id="L_START1_GRP2_0" transform="translate(0, 0)"><foreignObject width="0" height="0"><div xmlns="http://www.w3.org/1999/xhtml" class="labelBkg" style="display: table-cell; white-space: nowrap; line-height: 1.5; max-width: 200px; text-align: center;"><span class="edgeLabel"></span></div></foreignObject></g></g><g class="edgeLabel"><g class="label" data-id="L_GRP2_ELEM3_0" transform="translate(0, 0)"><foreignObject width="0" height="0"><div xmlns="http://www.w3.org/1999/xhtml" class="labelBkg" style="display: table-cell; white-space: nowrap; line-height: 1.5; max-width: 200px; text-align: center;"><span class="edgeLabel"></span></div></foreignObject></g></g><g class="edgeLabel"><g class="label" data-id="L_ELEM3_GRP4_0" transform="translate(0, 0)"><foreignObject width="0" height="0"><div xmlns="http://www.w3.org/1999/xhtml" class="labelBkg" style="display: table-cell; white-space: nowrap; line-height: 1.5; max-width: 200px; text-align: center;"><span class="edgeLabel"></span></div></foreignObject></g></g><g class="edgeLabel"><g class="label" data-id="L_GRP4_ELEM5_0" transform="translate(0, 0)"><foreignObject width="0" height="0"><div xmlns="http://www.w3.org/1999/xhtml" class="labelBkg" style="display: table-cell; white-space: nowrap; line-height: 1.5; max-width: 200px; text-align: center;"><span class="edgeLabel"></span></div></foreignObject></g></g><g class="edgeLabel"><g class="label" data-id="L_ELEM5_ELEM6_0" transform="translate(0, 0)"><foreignObject width="0" height="0"><div xmlns="http://www.w3.org/1999/xhtml" class="labelBkg" style="display: table-cell; white-space: nowrap; line-height: 1.5; max-width: 200px; text-align: center;"><span class="edgeLabel"></span></div></foreignObject></g></g><g class="edgeLabel"><g class="label" data-id="L_ELEM6_ELEM7_0" transform="translate(0, 0)"><foreignObject width="0" height="0"><div xmlns="http://www.w3.org/1999/xhtml" class="labelBkg" style="display: table-cell; white-space: nowrap; line-height: 1.5; max-width: 200px; text-align: center;"><span class="edgeLabel"></span></div></foreignObject></g></g><g class="edgeLabel" transform="translate(410.0546875, 132)"><g class="label" data-id="L_START1_ILLUS8_0" transform="translate(-83.03125, -12)"><foreignObject width="166.0625" height="24"><div xmlns="http://www.w3.org/1999/xhtml" class="labelBkg" style="display: table-cell; white-space: nowrap; line-height: 1.5; max-width: 200px; text-align: center;"><span class="edgeLabel"><p>illustration provenance</p></span></div></foreignObject></g></g></g><g class="nodes"><g class="node default" id="my-svg-flowchart-START1-0" data-look="classic" transform="translate(274.02734375, 51.5)"><g class="basic label-container outer-path"><path d="M-74.875 -43.5 C-24.616485649313333 -43.5, 25.642028701373334 -43.5, 74.875 -43.5 C74.875 -43.5, 74.875 -43.5, 74.875 -43.5 C75.5324394298737 -43.47891719711217, 76.18987885974741 -43.45783439422434, 77.66205456916101 -43.41062458463963 C78.52272231920682 -43.32759700189712, 79.38339006925264 -43.24456941915461, 80.43765653327601 -43.14286560131121 C81.50409110241651 -42.97045273049617, 82.57052567155702 -42.79803985968113, 83.19040034850968 -42.697823329111344 C83.8946564352471 -42.537081473013984, 84.59891252198452 -42.376339616916624, 85.90897440006356 -42.07732654219778 C86.79761165471783 -41.81358366956853, 87.6862489093721 -41.54984079693928, 88.58220748402749 -41.28392499496409 C89.47590459656585 -40.95503619630443, 90.3696017091042 -40.62614739764476, 91.19911471225277 -40.32087894455194 C92.02330313510983 -39.95603517843402, 92.8474915579669 -39.59119141231611, 93.74894265161377 -39.192145753755234 C94.31613059681517 -38.89624416604488, 94.88331854201657 -38.60034257833453, 96.22121351217129 -37.90236362936744 C97.12058733643345 -37.35715793179247, 98.01996116069562 -36.81195223421749, 98.60576820265887 -36.45683256279507 C99.24741302715805 -36.00924890958122, 99.88905785165723 -35.56166525636736, 100.8928080763679 -34.86149255125611 C101.59289995738642 -34.303187906371214, 102.29299183840494 -33.744883261486315, 103.07293519588879 -33.12289918905735 C103.5894845753023 -32.65378270982165, 104.1060339547158 -32.18466623058595, 105.13719095125165 -31.248196729251152 C105.8467638210737 -30.515504484143847, 106.55633669089575 -29.78281223903654, 107.07709287277622 -29.24508872636729 C107.6381640261715 -28.586022623736156, 108.19923517956677 -27.926956521105026, 108.8846694873593 -27.12180638085491 C109.45011623212305 -26.36415925612966, 110.0155629768868 -25.60651213140441, 110.55249307496757 -24.88707471531439 C111.11591502194078 -24.021507304786788, 111.67933696891399 -23.155939894259184, 112.07371019073256 -22.550076721507846 C112.53583205665196 -21.729532553654767, 112.99795392257136 -20.90898838580169, 113.44206982722551 -20.120415625476333 C113.90151583903132 -19.166366151391742, 114.36096185083713 -18.21231667730715, 114.65194910118784 -17.60807542582414 C115.0305806258189 -16.672848239642907, 115.40921215044995 -15.737621053461671, 115.69837635916457 -15.023379867326902 C115.97813697403382 -14.180785469141474, 116.25789758890306 -13.338191070956047, 116.57705160709475 -12.376950018449923 C116.79689516951565 -11.53859123413633, 117.01673873193656 -10.700232449822737, 117.28436417990932 -9.67966062709968 C117.42944590173771 -8.934696648543694, 117.5745276235661 -8.189732669987709, 117.81740757852859 -6.942595433952013 C117.92927814896068 -6.07494938102355, 118.04114871939277 -5.207303328095087, 118.17399141329012 -4.177001626984165 C118.23995682461457 -3.1495370992843537, 118.30592223593901 -2.1220725715845425, 118.35265040472993 -1.3942436243669998 C118.35265040472993 -0.6826474421352264, 118.35265040472993 0.02894874009654691, 118.35265040472993 1.3942436243669891 C118.29542997171183 2.2854980561261113, 118.23820953869372 3.176752487885233, 118.17399141329012 4.177001626984135 C118.0359146684275 5.247897593801408, 117.89783792356486 6.318793560618682, 117.81740757852859 6.942595433951983 C117.64643337132469 7.8205118525325155, 117.47545916412078 8.698428271113048, 117.28436417990932 9.679660627099672 C117.03940212374833 10.613807114468244, 116.79444006758735 11.547953601836817, 116.57705160709475 12.376950018449895 C116.37082710326021 12.998065366586944, 116.16460259942568 13.619180714723996, 115.69837635916457 15.023379867326874 C115.46041924904924 15.611138529899508, 115.2224621389339 16.198897192472142, 114.65194910118785 17.60807542582413 C114.21397039129235 18.517547588165293, 113.77599168139685 19.427019750506453, 113.44206982722551 20.120415625476323 C113.1660643265039 20.61049134059512, 112.8900588257823 21.100567055713917, 112.07371019073256 22.550076721507835 C111.65744841604696 23.189566589362364, 111.24118664136137 23.829056457216893, 110.5524930749676 24.887074715314366 C109.8956865840912 25.76713557678647, 109.2388800932148 26.64719643825857, 108.8846694873593 27.121806380854903 C108.41620136412665 27.672095694995335, 107.947733240894 28.222385009135767, 107.07709287277623 29.245088726367264 C106.58289581579774 29.755387762030523, 106.08869875881923 30.26568679769378, 105.13719095125167 31.24819672925114 C104.48921780397015 31.836668797182227, 103.84124465668863 32.42514086511331, 103.07293519588882 33.12289918905732 C102.34533663536189 33.7031396788667, 101.61773807483496 34.283380168676075, 100.89280807636791 34.861492551256106 C100.04804351462937 35.45076374025643, 99.20327895289081 36.040034929256755, 98.60576820265888 36.45683256279506 C98.05746656220272 36.789216239417684, 97.50916492174655 37.1215999160403, 96.22121351217129 37.90236362936744 C95.36429236576049 38.34941884256577, 94.5073712193497 38.79647405576409, 93.74894265161379 39.19214575375523 C93.1888209683536 39.440095007515126, 92.62869928509342 39.688044261275024, 91.1991147122528 40.32087894455194 C90.48026980758975 40.5854205143974, 89.7614249029267 40.84996208424285, 88.58220748402752 41.283924994964075 C87.80196787596083 41.51549601507699, 87.02172826789415 41.747067035189914, 85.90897440006361 42.077326542197774 C85.24434029986737 42.229024938424736, 84.57970619967115 42.38072333465169, 83.19040034850971 42.697823329111344 C82.15956434065265 42.86448090060904, 81.12872833279559 43.03113847210673, 80.43765653327604 43.1428656013112 C79.81014097924475 43.20340127211073, 79.18262542521347 43.263936942910256, 77.66205456916101 43.41062458463963 C77.09139359264628 43.42892457143225, 76.52073261613155 43.44722455822487, 74.87500000000001 43.5 C74.87500000000001 43.5, 74.875 43.5, 74.875 43.5 C32.33073532104756 43.5, -10.213529357904875 43.5, -74.87499999999999 43.5 C-75.90529502661691 43.46696044384401, -76.93559005323384 43.43392088768801, -77.66205456916099 43.41062458463963 C-78.64105970763248 43.31618113635722, -79.62006484610397 43.221737688074825, -80.43765653327603 43.1428656013112 C-81.46245315290962 42.97718443126532, -82.48724977254321 42.81150326121945, -83.1904003485097 42.697823329111344 C-84.01785416252481 42.50896239570315, -84.84530797653993 42.32010146229496, -85.90897440006356 42.07732654219778 C-86.587008343463 41.87608962686963, -87.26504228686244 41.67485271154147, -88.58220748402748 41.283924994964096 C-89.25097661625472 41.03781177227038, -89.91974574848197 40.791698549576665, -91.19911471225278 40.32087894455194 C-91.73929862524291 40.08175555025766, -92.27948253823303 39.84263215596338, -93.74894265161377 39.192145753755234 C-94.47041382861465 38.81575470283822, -95.19188500561552 38.43936365192121, -96.22121351217127 37.90236362936745 C-96.9732582786868 37.446469672400134, -97.72530304520232 36.99057571543281, -98.60576820265884 36.456832562795086 C-99.45220049359617 35.86639803810053, -100.29863278453348 35.27596351340597, -100.89280807636788 34.86149255125612 C-101.5200241714613 34.36130440634038, -102.14724026655473 33.86111626142465, -103.07293519588879 33.12289918905736 C-103.79262281311856 32.46929793698017, -104.51231043034832 31.81569668490298, -105.13719095125164 31.24819672925117 C-105.5904723828225 30.780146436056622, -106.04375381439336 30.31209614286207, -107.07709287277623 29.245088726367282 C-107.5545784424669 28.68420700651002, -108.03206401215756 28.12332528665276, -108.88466948735929 27.121806380854917 C-109.37937481386071 26.458946311925402, -109.87408014036214 25.796086242995887, -110.55249307496757 24.887074715314395 C-110.99544542420205 24.206580957529983, -111.43839777343653 23.52608719974557, -112.07371019073254 22.550076721507864 C-112.48264806517992 21.82396611597649, -112.89158593962728 21.097855510445115, -113.44206982722551 20.120415625476337 C-113.92109159316995 19.125716679068834, -114.4001133591144 18.13101773266133, -114.65194910118784 17.608075425824147 C-114.91447459708937 16.959632375362197, -115.1770000929909 16.311189324900248, -115.69837635916457 15.023379867326907 C-115.99576766560023 14.127684635212677, -116.29315897203588 13.231989403098448, -116.57705160709475 12.37695001844991 C-116.72584478971767 11.809537125735392, -116.87463797234061 11.242124233020874, -117.28436417990932 9.679660627099686 C-117.47885677294371 8.680982267892162, -117.67334936597813 7.682303908684638, -117.81740757852859 6.942595433952017 C-117.92867084880123 6.079659481135148, -118.03993411907389 5.21672352831828, -118.17399141329011 4.17700162698419 C-118.2257722651395 3.3704730626786827, -118.2775531169889 2.563944498373176, -118.35265040472993 1.394243624367005 C-118.35265040472993 0.6408734867194116, -118.35265040472993 -0.11249665092818195, -118.35265040472993 -1.394243624366984 C-118.28865400742166 -2.391039169405421, -118.22465761011338 -3.3878347144438576, -118.17399141329012 -4.177001626984129 C-118.08171370000211 -4.892689348950368, -117.98943598671411 -5.608377070916607, -117.81740757852859 -6.942595433951997 C-117.61987388469541 -7.956889203024342, -117.42234019086224 -8.971182972096686, -117.28436417990932 -9.679660627099667 C-117.06771234041969 -10.505847988574851, -116.85106050093006 -11.332035350050036, -116.57705160709475 -12.37695001844989 C-116.27238984584316 -13.294542702080031, -115.96772808459158 -14.212135385710173, -115.6983763591646 -15.023379867326852 C-115.32114777020722 -15.955141775270192, -114.94391918124984 -16.886903683213532, -114.65194910118785 -17.608075425824126 C-114.23156609729858 -18.48100972815554, -113.81118309340931 -19.353944030486957, -113.44206982722551 -20.12041562547632 C-112.9997887029266 -20.90573054748929, -112.55750757862768 -21.691045469502267, -112.07371019073256 -22.55007672150785 C-111.72041224620857 -23.092837238078374, -111.36711430168458 -23.635597754648895, -110.55249307496757 -24.88707471531438 C-110.0960849247405 -25.49862005698081, -109.63967677451342 -26.11016539864724, -108.8846694873593 -27.121806380854903 C-108.48094546951944 -27.596043584757, -108.07722145167959 -28.070280788659094, -107.07709287277623 -29.245088726367264 C-106.4939012057828 -29.8472820034643, -105.91070953878938 -30.44947528056134, -105.13719095125168 -31.248196729251127 C-104.49625120110467 -31.83028125199815, -103.85531145095764 -32.412365774745176, -103.07293519588883 -33.12289918905732 C-102.27154942578083 -33.76198301494748, -101.47016365567283 -34.40106684083764, -100.89280807636791 -34.861492551256106 C-100.01257630415195 -35.47550413093468, -99.13234453193597 -36.08951571061326, -98.6057682026589 -36.45683256279505 C-97.79115443108469 -36.95065621832523, -96.97654065951049 -37.44447987385541, -96.2212135121713 -37.902363629367436 C-95.58033034296747 -38.23671196823582, -94.93944717376363 -38.5710603071042, -93.74894265161379 -39.19214575375523 C-92.9662281945055 -39.53863022551764, -92.18351373739722 -39.885114697280066, -91.1991147122528 -40.320878944551936 C-90.5976115033853 -40.54223768564989, -89.9961082945178 -40.76359642674784, -88.58220748402753 -41.283924994964075 C-87.82933982295746 -41.507372164886675, -87.0764721618874 -41.730819334809276, -85.90897440006361 -42.07732654219777 C-85.06550620651605 -42.26984265323065, -84.22203801296848 -42.46235876426353, -83.19040034850971 -42.69782332911134 C-82.37137334678982 -42.830237263100145, -81.55234634506995 -42.96265119708896, -80.43765653327604 -43.1428656013112 C-79.77964463724969 -43.20634321754577, -79.12163274122335 -43.26982083378035, -77.66205456916101 -43.41062458463963 C-77.01840843898268 -43.43126506325326, -76.37476230880434 -43.451905541866886, -74.87500000000001 -43.5 C-74.87500000000001 -43.5, -74.875 -43.5, -74.875 -43.5" stroke="none" stroke-width="0" fill="#ECECFF" style=""/><path d="M-74.875 -43.5 C-33.63504252039297 -43.5, 7.604914959214057 -43.5, 74.875 -43.5 M-74.875 -43.5 C-42.547592808599 -43.5, -10.220185617197998 -43.5, 74.875 -43.5 M74.875 -43.5 C74.875 -43.5, 74.875 -43.5, 74.875 -43.5 M74.875 -43.5 C74.875 -43.5, 74.875 -43.5, 74.875 -43.5 M74.875 -43.5 C75.96971728616882 -43.4648945473705, 77.06443457233763 -43.429789094741, 77.66205456916101 -43.41062458463963 M74.875 -43.5 C75.91296987466727 -43.46671432640522, 76.95093974933455 -43.433428652810434, 77.66205456916101 -43.41062458463963 M77.66205456916101 -43.41062458463963 C78.4556974041186 -43.334062814846426, 79.24934023907619 -43.257501045053225, 80.43765653327601 -43.14286560131121 M77.66205456916101 -43.41062458463963 C78.53725892956389 -43.32619467257881, 79.41246328996677 -43.24176476051798, 80.43765653327601 -43.14286560131121 M80.43765653327601 -43.14286560131121 C81.01734904063288 -43.049145412304284, 81.59704154798975 -42.95542522329736, 83.19040034850968 -42.697823329111344 M80.43765653327601 -43.14286560131121 C81.06856118355043 -43.040865830193475, 81.69946583382485 -42.93886605907574, 83.19040034850968 -42.697823329111344 M83.19040034850968 -42.697823329111344 C83.90957591562389 -42.53367619897669, 84.6287514827381 -42.36952906884204, 85.90897440006356 -42.07732654219778 M83.19040034850968 -42.697823329111344 C83.7447216611514 -42.57130310678549, 84.2990429737931 -42.444782884459634, 85.90897440006356 -42.07732654219778 M85.90897440006356 -42.07732654219778 C86.57615874416076 -41.87930973099182, 87.24334308825796 -41.681292919785854, 88.58220748402749 -41.28392499496409 M85.90897440006356 -42.07732654219778 C86.8159941553173 -41.808127839882324, 87.72301391057104 -41.53892913756687, 88.58220748402749 -41.28392499496409 M88.58220748402749 -41.28392499496409 C89.57407122301086 -40.91890997033031, 90.56593496199423 -40.553894945696534, 91.19911471225277 -40.32087894455194 M88.58220748402749 -41.28392499496409 C89.49313264895508 -40.948696113770815, 90.40405781388269 -40.613467232577534, 91.19911471225277 -40.32087894455194 M91.19911471225277 -40.32087894455194 C92.18143532890576 -39.88603474706543, 93.16375594555876 -39.45119054957892, 93.74894265161377 -39.192145753755234 M91.19911471225277 -40.32087894455194 C92.0775126837828 -39.93203821930563, 92.95591065531283 -39.543197494059314, 93.74894265161377 -39.192145753755234 M93.74894265161377 -39.192145753755234 C94.58865683965827 -38.75406739971503, 95.42837102770277 -38.315989045674826, 96.22121351217129 -37.90236362936744 M93.74894265161377 -39.192145753755234 C94.43356056454773 -38.83498102709629, 95.11817847748168 -38.477816300437354, 96.22121351217129 -37.90236362936744 M96.22121351217129 -37.90236362936744 C96.80959700246278 -37.54568209982755, 97.39798049275427 -37.18900057028766, 98.60576820265887 -36.45683256279507 M96.22121351217129 -37.90236362936744 C96.99180719485693 -37.43522521041227, 97.76240087754258 -36.9680867914571, 98.60576820265887 -36.45683256279507 M98.60576820265887 -36.45683256279507 C99.2404098807797 -36.01413400133343, 99.87505155890054 -35.57143543987179, 100.8928080763679 -34.86149255125611 M98.60576820265887 -36.45683256279507 C99.49370734669877 -35.83744465417887, 100.38164649073866 -35.21805674556266, 100.8928080763679 -34.86149255125611 M100.8928080763679 -34.86149255125611 C101.40035159977495 -34.456740097639376, 101.907895123182 -34.05198764402264, 103.07293519588879 -33.12289918905735 M100.8928080763679 -34.86149255125611 C101.5146718441612 -34.3655727449308, 102.13653561195451 -33.8696529386055, 103.07293519588879 -33.12289918905735 M103.07293519588879 -33.12289918905735 C103.86290685702265 -32.40546782792036, 104.65287851815653 -31.688036466783366, 105.13719095125165 -31.248196729251152 M103.07293519588879 -33.12289918905735 C103.64709993573017 -32.60145796389995, 104.22126467557155 -32.08001673874256, 105.13719095125165 -31.248196729251152 M105.13719095125165 -31.248196729251152 C105.58104888987862 -30.789876966204343, 106.02490682850556 -30.331557203157534, 107.07709287277622 -29.24508872636729 M105.13719095125165 -31.248196729251152 C105.71869612729519 -30.647744892523363, 106.30020130333872 -30.04729305579557, 107.07709287277622 -29.24508872636729 M107.07709287277622 -29.24508872636729 C107.64645355150076 -28.576285275597048, 108.21581423022529 -27.907481824826803, 108.8846694873593 -27.12180638085491 M107.07709287277622 -29.24508872636729 C107.70786341827184 -28.50414975176733, 108.33863396376745 -27.763210777167366, 108.8846694873593 -27.12180638085491 M108.8846694873593 -27.12180638085491 C109.23595166256597 -26.6511202685425, 109.58723383777262 -26.180434156230092, 110.55249307496757 -24.88707471531439 M108.8846694873593 -27.12180638085491 C109.38679468664095 -26.449004358364206, 109.8889198859226 -25.776202335873506, 110.55249307496757 -24.88707471531439 M110.55249307496757 -24.88707471531439 C110.99195295870979 -24.211946322384396, 111.431412842452 -23.5368179294544, 112.07371019073256 -22.550076721507846 M110.55249307496757 -24.88707471531439 C110.90737804956291 -24.341876094377024, 111.26226302415824 -23.796677473439658, 112.07371019073256 -22.550076721507846 M112.07371019073256 -22.550076721507846 C112.43833829270469 -21.902642603857245, 112.80296639467683 -21.255208486206644, 113.44206982722551 -20.120415625476333 M112.07371019073256 -22.550076721507846 C112.54161184139967 -21.71926996056853, 113.00951349206679 -20.888463199629207, 113.44206982722551 -20.120415625476333 M113.44206982722551 -20.120415625476333 C113.85079887591787 -19.27168101046598, 114.25952792461024 -18.422946395455625, 114.65194910118784 -17.60807542582414 M113.44206982722551 -20.120415625476333 C113.89655428443731 -19.176668925666437, 114.35103874164913 -18.232922225856537, 114.65194910118784 -17.60807542582414 M114.65194910118784 -17.60807542582414 C114.93078761297785 -16.91933891072693, 115.20962612476787 -16.230602395629717, 115.69837635916457 -15.023379867326902 M114.65194910118784 -17.60807542582414 C114.97349483485596 -16.813851247000038, 115.29504056852407 -16.019627068175936, 115.69837635916457 -15.023379867326902 M115.69837635916457 -15.023379867326902 C115.99069120918301 -14.142974113117818, 116.28300605920147 -13.262568358908734, 116.57705160709475 -12.376950018449923 M115.69837635916457 -15.023379867326902 C115.98313609140261 -14.165728924127848, 116.26789582364066 -13.308077980928793, 116.57705160709475 -12.376950018449923 M116.57705160709475 -12.376950018449923 C116.77394809307258 -11.62609838193961, 116.97084457905041 -10.875246745429294, 117.28436417990932 -9.67966062709968 M116.57705160709475 -12.376950018449923 C116.78637089563802 -11.578724851680889, 116.99569018418129 -10.780499684911854, 117.28436417990932 -9.67966062709968 M117.28436417990932 -9.67966062709968 C117.46459553165609 -8.754210727789719, 117.64482688340286 -7.8287608284797585, 117.81740757852859 -6.942595433952013 M117.28436417990932 -9.67966062709968 C117.4808666607386 -8.670661918855366, 117.6773691415679 -7.661663210611049, 117.81740757852859 -6.942595433952013 M117.81740757852859 -6.942595433952013 C117.90965863749423 -6.227114437646562, 118.00190969645988 -5.511633441341111, 118.17399141329012 -4.177001626984165 M117.81740757852859 -6.942595433952013 C117.93810653271629 -6.006478179976582, 118.05880548690399 -5.07036092600115, 118.17399141329012 -4.177001626984165 M118.17399141329012 -4.177001626984165 C118.23083002568545 -3.291694359624909, 118.28766863808076 -2.4063870922656534, 118.35265040472993 -1.3942436243669998 M118.17399141329012 -4.177001626984165 C118.21838391259875 -3.485552617271768, 118.26277641190738 -2.7941036075593715, 118.35265040472993 -1.3942436243669998 M118.35265040472993 -1.3942436243669998 C118.35265040472993 -0.33935848945601177, 118.35265040472993 0.7155266454549762, 118.35265040472993 1.3942436243669891 M118.35265040472993 -1.3942436243669998 C118.35265040472993 -0.5730665034371912, 118.35265040472993 0.2481106174926173, 118.35265040472993 1.3942436243669891 M118.35265040472993 1.3942436243669891 C118.2869711652126 2.417250795177203, 118.22129192569528 3.4402579659874166, 118.17399141329012 4.177001626984135 M118.35265040472993 1.3942436243669891 C118.31221634766425 2.0240367009483577, 118.27178229059857 2.653829777529726, 118.17399141329012 4.177001626984135 M118.17399141329012 4.177001626984135 C118.1026643390795 4.73020032943787, 118.03133726486887 5.283399031891605, 117.81740757852859 6.942595433951983 M118.17399141329012 4.177001626984135 C118.07579042225855 4.938629121445957, 117.97758943122699 5.70025661590778, 117.81740757852859 6.942595433951983 M117.81740757852859 6.942595433951983 C117.67318832293354 7.683130830682044, 117.52896906733851 8.423666227412106, 117.28436417990932 9.679660627099672 M117.81740757852859 6.942595433951983 C117.61664967311263 7.973444848064579, 117.41589176769666 9.004294262177176, 117.28436417990932 9.679660627099672 M117.28436417990932 9.679660627099672 C117.07074965683853 10.494265384688543, 116.85713513376774 11.308870142277414, 116.57705160709475 12.376950018449895 M117.28436417990932 9.679660627099672 C117.09802382292037 10.390257168720122, 116.91168346593143 11.100853710340573, 116.57705160709475 12.376950018449895 M116.57705160709475 12.376950018449895 C116.34860398361711 13.064997862178698, 116.12015636013948 13.753045705907502, 115.69837635916457 15.023379867326874 M116.57705160709475 12.376950018449895 C116.22795135794345 13.428384347322446, 115.87885110879215 14.479818676194995, 115.69837635916457 15.023379867326874 M115.69837635916457 15.023379867326874 C115.28295166575711 16.049486891733384, 114.86752697234965 17.075593916139894, 114.65194910118785 17.60807542582413 M115.69837635916457 15.023379867326874 C115.35502500626667 15.871464347231528, 115.01167365336876 16.719548827136183, 114.65194910118785 17.60807542582413 M114.65194910118785 17.60807542582413 C114.20622271216442 18.533635809648207, 113.76049632314098 19.459196193472284, 113.44206982722551 20.120415625476323 M114.65194910118785 17.60807542582413 C114.21996447753541 18.505100739828674, 113.78797985388296 19.402126053833218, 113.44206982722551 20.120415625476323 M113.44206982722551 20.120415625476323 C113.15339951489378 20.632978996060142, 112.86472920256205 21.145542366643962, 112.07371019073256 22.550076721507835 M113.44206982722551 20.120415625476323 C112.93902955077394 21.01361457466765, 112.43598927432235 21.906813523858972, 112.07371019073256 22.550076721507835 M112.07371019073256 22.550076721507835 C111.63728087629732 23.2205493461605, 111.20085156186211 23.89102197081316, 110.5524930749676 24.887074715314366 M112.07371019073256 22.550076721507835 C111.7160817796867 23.099489997549043, 111.35845336864084 23.648903273590253, 110.5524930749676 24.887074715314366 M110.5524930749676 24.887074715314366 C110.12246130670695 25.46327810808361, 109.69242953844629 26.03948150085285, 108.8846694873593 27.121806380854903 M110.5524930749676 24.887074715314366 C110.17740462657028 25.38965906490615, 109.80231617817296 25.89224341449794, 108.8846694873593 27.121806380854903 M108.8846694873593 27.121806380854903 C108.21181940584489 27.91217437285597, 107.53896932433048 28.702542364857038, 107.07709287277623 29.245088726367264 M108.8846694873593 27.121806380854903 C108.43650219563115 27.64824918316011, 107.988334903903 28.17469198546532, 107.07709287277623 29.245088726367264 M107.07709287277623 29.245088726367264 C106.60203697365066 29.735622945029096, 106.12698107452508 30.226157163690925, 105.13719095125167 31.24819672925114 M107.07709287277623 29.245088726367264 C106.51307918317649 29.8274791672641, 105.94906549357674 30.40986960816094, 105.13719095125167 31.24819672925114 M105.13719095125167 31.24819672925114 C104.49852366866732 31.82821745708394, 103.85985638608297 32.40823818491674, 103.07293519588882 33.12289918905732 M105.13719095125167 31.24819672925114 C104.65976102449895 31.68178595662432, 104.18233109774621 32.1153751839975, 103.07293519588882 33.12289918905732 M103.07293519588882 33.12289918905732 C102.4830623964769 33.5933070494139, 101.89318959706497 34.06371490977048, 100.89280807636791 34.861492551256106 M103.07293519588882 33.12289918905732 C102.49238623288772 33.58587153799397, 101.91183726988665 34.04884388693061, 100.89280807636791 34.861492551256106 M100.89280807636791 34.861492551256106 C100.0145818203629 35.474105169643316, 99.1363555643579 36.08671778803052, 98.60576820265888 36.45683256279506 M100.89280807636791 34.861492551256106 C100.32492530517254 35.25762298919304, 99.75704253397717 35.65375342712998, 98.60576820265888 36.45683256279506 M98.60576820265888 36.45683256279506 C98.1011798193829 36.76271700602744, 97.59659143610693 37.06860144925981, 96.22121351217129 37.90236362936744 M98.60576820265888 36.45683256279506 C97.99181444828683 36.82901493668814, 97.37786069391478 37.201197310581215, 96.22121351217129 37.90236362936744 M96.22121351217129 37.90236362936744 C95.2805237527179 38.393120874333725, 94.3398339932645 38.883878119300014, 93.74894265161379 39.19214575375523 M96.22121351217129 37.90236362936744 C95.57097527454283 38.24159250144074, 94.92073703691436 38.58082137351404, 93.74894265161379 39.19214575375523 M93.74894265161379 39.19214575375523 C93.09338654224965 39.48234099698968, 92.43783043288552 39.77253624022413, 91.1991147122528 40.32087894455194 M93.74894265161379 39.19214575375523 C92.92386062709251 39.55738509082215, 92.09877860257122 39.92262442788907, 91.1991147122528 40.32087894455194 M91.1991147122528 40.32087894455194 C90.63437410113296 40.52870870984902, 90.06963349001315 40.7365384751461, 88.58220748402752 41.283924994964075 M91.1991147122528 40.32087894455194 C90.42228978258649 40.60675769956008, 89.64546485292017 40.892636454568205, 88.58220748402752 41.283924994964075 M88.58220748402752 41.283924994964075 C87.74178954466392 41.53335662792341, 86.90137160530031 41.78278826088275, 85.90897440006361 42.077326542197774 M88.58220748402752 41.283924994964075 C87.83225957798763 41.50650559691983, 87.08231167194774 41.72908619887558, 85.90897440006361 42.077326542197774 M85.90897440006361 42.077326542197774 C85.07110072701974 42.268565740433345, 84.23322705397587 42.45980493866892, 83.19040034850971 42.697823329111344 M85.90897440006361 42.077326542197774 C85.12458149842467 42.25635910335482, 84.34018859678574 42.43539166451186, 83.19040034850971 42.697823329111344 M83.19040034850971 42.697823329111344 C82.3356917254677 42.836005990920405, 81.4809831024257 42.974188652729474, 80.43765653327604 43.1428656013112 M83.19040034850971 42.697823329111344 C82.62265550520559 42.789611912449736, 82.05491066190146 42.88140049578813, 80.43765653327604 43.1428656013112 M80.43765653327604 43.1428656013112 C79.38490344958502 43.24442342517405, 78.33215036589401 43.345981249036896, 77.66205456916101 43.41062458463963 M80.43765653327604 43.1428656013112 C79.800201825538 43.20436009031524, 79.16274711779995 43.265854579319274, 77.66205456916101 43.41062458463963 M77.66205456916101 43.41062458463963 C76.6714248397333 43.44239215191858, 75.68079511030561 43.47415971919753, 74.87500000000001 43.5 M77.66205456916101 43.41062458463963 C77.09909200618524 43.42867769829411, 76.53612944320948 43.44673081194858, 74.87500000000001 43.5 M74.87500000000001 43.5 C74.87500000000001 43.5, 74.875 43.5, 74.875 43.5 M74.87500000000001 43.5 C74.87500000000001 43.5, 74.875 43.5, 74.875 43.5 M74.875 43.5 C37.98637753605963 43.5, 1.0977550721192557 43.5, -74.87499999999999 43.5 M74.875 43.5 C43.56872383974873 43.5, 12.262447679497463 43.5, -74.87499999999999 43.5 M-74.87499999999999 43.5 C-75.84273284703532 43.46896669117329, -76.81046569407067 43.437933382346586, -77.66205456916099 43.41062458463963 M-74.87499999999999 43.5 C-75.97956522909678 43.46457874300866, -77.08413045819358 43.42915748601731, -77.66205456916099 43.41062458463963 M-77.66205456916099 43.41062458463963 C-78.65138430583232 43.315185134786034, -79.64071404250366 43.21974568493244, -80.43765653327603 43.1428656013112 M-77.66205456916099 43.41062458463963 C-78.40573025424878 43.338883085700076, -79.14940593933656 43.26714158676052, -80.43765653327603 43.1428656013112 M-80.43765653327603 43.1428656013112 C-81.48794284892384 42.97306345488929, -82.53822916457165 42.80326130846738, -83.1904003485097 42.697823329111344 M-80.43765653327603 43.1428656013112 C-81.20044728235597 43.01954350853057, -81.96323803143589 42.89622141574993, -83.1904003485097 42.697823329111344 M-83.1904003485097 42.697823329111344 C-84.18482568435083 42.47085223543737, -85.17925102019194 42.2438811417634, -85.90897440006356 42.07732654219778 M-83.1904003485097 42.697823329111344 C-83.91084104820511 42.533387440720794, -84.63128174790053 42.36895155233024, -85.90897440006356 42.07732654219778 M-85.90897440006356 42.07732654219778 C-86.68589058573272 41.84674189640745, -87.46280677140187 41.61615725061713, -88.58220748402748 41.283924994964096 M-85.90897440006356 42.07732654219778 C-86.67871174094044 41.84887253985927, -87.44844908181733 41.62041853752077, -88.58220748402748 41.283924994964096 M-88.58220748402748 41.283924994964096 C-89.42193325933026 40.97489814731269, -90.26165903463304 40.6658712996613, -91.19911471225278 40.32087894455194 M-88.58220748402748 41.283924994964096 C-89.30496901929658 41.01794206885067, -90.02773055456566 40.751959142737256, -91.19911471225278 40.32087894455194 M-91.19911471225278 40.32087894455194 C-91.85071925605179 40.03243294217415, -92.5023237998508 39.74398693979635, -93.74894265161377 39.192145753755234 M-91.19911471225278 40.32087894455194 C-91.80381149115362 40.05319761822516, -92.40850827005445 39.78551629189838, -93.74894265161377 39.192145753755234 M-93.74894265161377 39.192145753755234 C-94.38967515043657 38.85787601952813, -95.03040764925939 38.52360628530102, -96.22121351217127 37.90236362936745 M-93.74894265161377 39.192145753755234 C-94.56918937632139 38.764223562868374, -95.389436101029 38.33630137198151, -96.22121351217127 37.90236362936745 M-96.22121351217127 37.90236362936745 C-96.91593058634625 37.481222056391886, -97.61064766052124 37.06008048341632, -98.60576820265884 36.456832562795086 M-96.22121351217127 37.90236362936745 C-97.09415075805217 37.373183940965774, -97.96708800393307 36.844004252564105, -98.60576820265884 36.456832562795086 M-98.60576820265884 36.456832562795086 C-99.3724239946952 35.92204667026486, -100.13907978673156 35.38726077773464, -100.89280807636788 34.86149255125612 M-98.60576820265884 36.456832562795086 C-99.37159203814761 35.922627007137635, -100.1374158736364 35.388421451480184, -100.89280807636788 34.86149255125612 M-100.89280807636788 34.86149255125612 C-101.58959891297731 34.30582040144301, -102.28638974958672 33.75014825162989, -103.07293519588879 33.12289918905736 M-100.89280807636788 34.86149255125612 C-101.70919234133142 34.21044782484538, -102.52557660629495 33.55940309843465, -103.07293519588879 33.12289918905736 M-103.07293519588879 33.12289918905736 C-103.65920130866793 32.59046781718267, -104.24546742144706 32.058036445307984, -105.13719095125164 31.24819672925117 M-103.07293519588879 33.12289918905736 C-103.88867199193339 32.38206861410254, -104.704408787978 31.641238039147737, -105.13719095125164 31.24819672925117 M-105.13719095125164 31.24819672925117 C-105.77780323889262 30.58671194701492, -106.41841552653358 29.925227164778665, -107.07709287277623 29.245088726367282 M-105.13719095125164 31.24819672925117 C-105.73140530921603 30.634621618746863, -106.3256196671804 30.021046508242556, -107.07709287277623 29.245088726367282 M-107.07709287277623 29.245088726367282 C-107.49734679562916 28.7514345554586, -107.91760071848208 28.257780384549918, -108.88466948735929 27.121806380854917 M-107.07709287277623 29.245088726367282 C-107.45678842125771 28.799076729832173, -107.83648396973919 28.353064733297064, -108.88466948735929 27.121806380854917 M-108.88466948735929 27.121806380854917 C-109.49820001575151 26.29973136659032, -110.11173054414374 25.47765635232572, -110.55249307496757 24.887074715314395 M-108.88466948735929 27.121806380854917 C-109.34747451346094 26.50168980828395, -109.81027953956259 25.88157323571298, -110.55249307496757 24.887074715314395 M-110.55249307496757 24.887074715314395 C-110.9573867960316 24.265049230572423, -111.36228051709563 23.64302374583045, -112.07371019073254 22.550076721507864 M-110.55249307496757 24.887074715314395 C-110.9507831624061 24.2751941851451, -111.34907324984464 23.66331365497581, -112.07371019073254 22.550076721507864 M-112.07371019073254 22.550076721507864 C-112.35365448569121 22.053007278375, -112.63359878064988 21.555937835242133, -113.44206982722551 20.120415625476337 M-112.07371019073254 22.550076721507864 C-112.45322136034325 21.876216210190968, -112.83273252995396 21.20235569887407, -113.44206982722551 20.120415625476337 M-113.44206982722551 20.120415625476337 C-113.88592197682452 19.198747139919377, -114.32977412642352 18.277078654362416, -114.65194910118784 17.608075425824147 M-113.44206982722551 20.120415625476337 C-113.74964727171607 19.48172448088863, -114.05722471620665 18.84303333630092, -114.65194910118784 17.608075425824147 M-114.65194910118784 17.608075425824147 C-114.98588232807381 16.783253899256053, -115.31981555495979 15.958432372687959, -115.69837635916457 15.023379867326907 M-114.65194910118784 17.608075425824147 C-115.0422660583452 16.643984995380443, -115.43258301550257 15.67989456493674, -115.69837635916457 15.023379867326907 M-115.69837635916457 15.023379867326907 C-115.87443369865225 14.493123211717679, -116.05049103813992 13.962866556108452, -116.57705160709475 12.37695001844991 M-115.69837635916457 15.023379867326907 C-115.88110095422924 14.473042500202695, -116.06382554929391 13.922705133078484, -116.57705160709475 12.37695001844991 M-116.57705160709475 12.37695001844991 C-116.81551438010639 11.467588114536868, -117.05397715311805 10.558226210623825, -117.28436417990932 9.679660627099686 M-116.57705160709475 12.37695001844991 C-116.78201208974477 11.595346867670285, -116.98697257239478 10.81374371689066, -117.28436417990932 9.679660627099686 M-117.28436417990932 9.679660627099686 C-117.49455561537577 8.600372029955075, -117.70474705084223 7.521083432810465, -117.81740757852859 6.942595433952017 M-117.28436417990932 9.679660627099686 C-117.40196634758288 9.075798351322867, -117.51956851525645 8.471936075546045, -117.81740757852859 6.942595433952017 M-117.81740757852859 6.942595433952017 C-117.91599224792736 6.177992205840043, -118.01457691732612 5.413388977728069, -118.17399141329011 4.17700162698419 M-117.81740757852859 6.942595433952017 C-117.90342437240194 6.275466166607453, -117.98944116627528 5.608336899262889, -118.17399141329011 4.17700162698419 M-118.17399141329011 4.17700162698419 C-118.2299884890426 3.304801972113257, -118.28598556479508 2.4326023172423237, -118.35265040472993 1.394243624367005 M-118.17399141329011 4.17700162698419 C-118.21997522221318 3.4607666855450328, -118.26595903113623 2.744531744105876, -118.35265040472993 1.394243624367005 M-118.35265040472993 1.394243624367005 C-118.35265040472993 0.4407443452526586, -118.35265040472993 -0.5127549338616879, -118.35265040472993 -1.394243624366984 M-118.35265040472993 1.394243624367005 C-118.35265040472993 0.7622011070373804, -118.35265040472993 0.13015858970775573, -118.35265040472993 -1.394243624366984 M-118.35265040472993 -1.394243624366984 C-118.31224232629802 -2.023632062757718, -118.27183424786612 -2.653020501148452, -118.17399141329012 -4.177001626984129 M-118.35265040472993 -1.394243624366984 C-118.30407909726927 -2.150780944120415, -118.25550778980862 -2.9073182638738464, -118.17399141329012 -4.177001626984129 M-118.17399141329012 -4.177001626984129 C-118.08920431885117 -4.83459358834706, -118.00441722441222 -5.492185549709991, -117.81740757852859 -6.942595433951997 M-118.17399141329012 -4.177001626984129 C-118.04954098476041 -5.142214575143773, -117.92509055623071 -6.107427523303415, -117.81740757852859 -6.942595433951997 M-117.81740757852859 -6.942595433951997 C-117.6436346828142 -7.834882526530845, -117.4698617870998 -8.727169619109693, -117.28436417990932 -9.679660627099667 M-117.81740757852859 -6.942595433951997 C-117.64210454822215 -7.842739444266955, -117.46680151791571 -8.742883454581913, -117.28436417990932 -9.679660627099667 M-117.28436417990932 -9.679660627099667 C-117.04710222360185 -10.584443296482386, -116.80984026729439 -11.489225965865105, -116.57705160709475 -12.37695001844989 M-117.28436417990932 -9.679660627099667 C-117.0868956846658 -10.432693582850396, -116.88942718942229 -11.185726538601125, -116.57705160709475 -12.37695001844989 M-116.57705160709475 -12.37695001844989 C-116.38898756998374 -12.943368934293105, -116.20092353287274 -13.50978785013632, -115.6983763591646 -15.023379867326852 M-116.57705160709475 -12.37695001844989 C-116.26644821840384 -13.312437937257503, -115.95584482971294 -14.247925856065114, -115.6983763591646 -15.023379867326852 M-115.6983763591646 -15.023379867326852 C-115.37877057868842 -15.812812324260436, -115.05916479821222 -16.60224478119402, -114.65194910118785 -17.608075425824126 M-115.6983763591646 -15.023379867326852 C-115.30921061405323 -15.984626781759763, -114.92004486894186 -16.945873696192674, -114.65194910118785 -17.608075425824126 M-114.65194910118785 -17.608075425824126 C-114.18192263635655 -18.584095437001576, -113.71189617152524 -19.560115448179026, -113.44206982722551 -20.12041562547632 M-114.65194910118785 -17.608075425824126 C-114.25608206544204 -18.43010179574795, -113.86021502969623 -19.252128165671778, -113.44206982722551 -20.12041562547632 M-113.44206982722551 -20.12041562547632 C-113.08001400464293 -20.763282400599234, -112.71795818206034 -21.406149175722152, -112.07371019073256 -22.55007672150785 M-113.44206982722551 -20.12041562547632 C-113.06604007981393 -20.78809451914646, -112.69001033240234 -21.455773412816594, -112.07371019073256 -22.55007672150785 M-112.07371019073256 -22.55007672150785 C-111.53177789469554 -23.3826302574182, -110.98984559865852 -24.215183793328546, -110.55249307496757 -24.88707471531438 M-112.07371019073256 -22.55007672150785 C-111.48813394231988 -23.449679088309374, -110.90255769390721 -24.3492814551109, -110.55249307496757 -24.88707471531438 M-110.55249307496757 -24.88707471531438 C-110.07234387888609 -25.530430895571936, -109.59219468280462 -26.17378707582949, -108.8846694873593 -27.121806380854903 M-110.55249307496757 -24.88707471531438 C-110.09580540715585 -25.498994585079657, -109.63911773934413 -26.11091445484493, -108.8846694873593 -27.121806380854903 M-108.8846694873593 -27.121806380854903 C-108.29977034182549 -27.808862198903125, -107.71487119629168 -28.49591801695135, -107.07709287277623 -29.245088726367264 M-108.8846694873593 -27.121806380854903 C-108.4667876757538 -27.612674134915398, -108.04890586414832 -28.103541888975894, -107.07709287277623 -29.245088726367264 M-107.07709287277623 -29.245088726367264 C-106.56550451519345 -29.77334570775677, -106.05391615761069 -30.30160268914628, -105.13719095125168 -31.248196729251127 M-107.07709287277623 -29.245088726367264 C-106.31643896802284 -30.030526333872153, -105.55578506326945 -30.81596394137704, -105.13719095125168 -31.248196729251127 M-105.13719095125168 -31.248196729251127 C-104.59131249547428 -31.74394909963568, -104.04543403969689 -32.239701470020236, -103.07293519588883 -33.12289918905732 M-105.13719095125168 -31.248196729251127 C-104.3116046006445 -31.997972409054736, -103.48601825003733 -32.747748088858344, -103.07293519588883 -33.12289918905732 M-103.07293519588883 -33.12289918905732 C-102.43790045136555 -33.62932249883037, -101.80286570684228 -34.13574580860342, -100.89280807636791 -34.861492551256106 M-103.07293519588883 -33.12289918905732 C-102.579063190136 -33.51674897115919, -102.08519118438316 -33.91059875326105, -100.89280807636791 -34.861492551256106 M-100.89280807636791 -34.861492551256106 C-100.1155872609599 -35.40364814673791, -99.33836644555188 -35.9458037422197, -98.6057682026589 -36.45683256279505 M-100.89280807636791 -34.861492551256106 C-100.24963580066445 -35.310141688307766, -99.60646352496099 -35.75879082535943, -98.6057682026589 -36.45683256279505 M-98.6057682026589 -36.45683256279505 C-98.05158039238891 -36.79278447014978, -97.49739258211893 -37.12873637750452, -96.2212135121713 -37.902363629367436 M-98.6057682026589 -36.45683256279505 C-97.74411911042803 -36.97916930611752, -96.88247001819715 -37.501506049439996, -96.2212135121713 -37.902363629367436 M-96.2212135121713 -37.902363629367436 C-95.28209336662803 -38.392302007762204, -94.34297322108475 -38.882240386156965, -93.74894265161379 -39.19214575375523 M-96.2212135121713 -37.902363629367436 C-95.71136809355636 -38.16834965768727, -95.20152267494142 -38.43433568600711, -93.74894265161379 -39.19214575375523 M-93.74894265161379 -39.19214575375523 C-92.89699164539886 -39.5692791919779, -92.04504063918394 -39.94641263020057, -91.1991147122528 -40.320878944551936 M-93.74894265161379 -39.19214575375523 C-93.02778104303844 -39.51138260537249, -92.3066194344631 -39.83061945698975, -91.1991147122528 -40.320878944551936 M-91.1991147122528 -40.320878944551936 C-90.20444219322087 -40.686927626207655, -89.20976967418895 -41.05297630786338, -88.58220748402753 -41.283924994964075 M-91.1991147122528 -40.320878944551936 C-90.60316176042451 -40.540195139753436, -90.00720880859625 -40.759511334954944, -88.58220748402753 -41.283924994964075 M-88.58220748402753 -41.283924994964075 C-87.6865234410979 -41.549759317364106, -86.79083939816826 -41.815593639764145, -85.90897440006361 -42.07732654219777 M-88.58220748402753 -41.283924994964075 C-87.6701394996629 -41.55462198518095, -86.75807151529825 -41.825318975397835, -85.90897440006361 -42.07732654219777 M-85.90897440006361 -42.07732654219777 C-85.04983612539067 -42.27341924699068, -84.19069785071773 -42.469511951783595, -83.19040034850971 -42.69782332911134 M-85.90897440006361 -42.07732654219777 C-85.19631823330558 -42.239985661744186, -84.48366206654754 -42.40264478129061, -83.19040034850971 -42.69782332911134 M-83.19040034850971 -42.69782332911134 C-82.16670899478189 -42.86332580833704, -81.14301764105406 -43.02882828756274, -80.43765653327604 -43.1428656013112 M-83.19040034850971 -42.69782332911134 C-82.54843811890977 -42.80161080390161, -81.90647588930985 -42.905398278691884, -80.43765653327604 -43.1428656013112 M-80.43765653327604 -43.1428656013112 C-79.5531408078185 -43.22819376956029, -78.66862508236096 -43.313521937809384, -77.66205456916101 -43.41062458463963 M-80.43765653327604 -43.1428656013112 C-79.76106520392183 -43.20813555313388, -79.0844738745676 -43.27340550495655, -77.66205456916101 -43.41062458463963 M-77.66205456916101 -43.41062458463963 C-77.00004634703302 -43.43185389980244, -76.33803812490501 -43.45308321496525, -74.87500000000001 -43.5 M-77.66205456916101 -43.41062458463963 C-76.57402024909403 -43.44551572755385, -75.48598592902707 -43.480406870468066, -74.87500000000001 -43.5 M-74.87500000000001 -43.5 C-74.87500000000001 -43.5, -74.875 -43.5, -74.875 -43.5 M-74.87500000000001 -43.5 C-74.87500000000001 -43.5, -74.875 -43.5, -74.875 -43.5" stroke="#9370DB" stroke-width="1.3" fill="none" stroke-dasharray="0 0" style=""/></g><g class="label" style="" transform="translate(-100, -36)"><rect/><foreignObject width="200" height="72"><div xmlns="http://www.w3.org/1999/xhtml" style="display: table; white-space: break-spaces; line-height: 1.5; max-width: 200px; text-align: center; width: 200px;"><span class="nodeLabel"><p>Section 322: Voluntarily causing grievous hurt (eff: 1872-01-01)</p></span></div></foreignObject></g></g><g class="node default" id="my-svg-flowchart-GRP2-1" data-look="classic" transform="translate(138, 220)"><polygon points="9.75,0 174.359375,0 184.109375,-19.5 174.359375,-39 9.75,-39 0,-19.5" class="label-container" transform="translate(-92.0546875,19.5)"/><g class="label" style="" transform="translate(-74.8046875, -12)"><rect/><foreignObject width="149.609375" height="24"><div xmlns="http://www.w3.org/1999/xhtml" style="display: table-cell; white-space: nowrap; line-height: 1.5; max-width: 200px; text-align: center;"><span class="nodeLabel"><p>ALL OF (conjunctive)</p></span></div></foreignObject></g></g><g class="node default" id="my-svg-flowchart-ELEM3-4" data-look="classic" transform="translate(138, 360)"><rect class="basic label-container" style="" x="-130" y="-39" width="260" height="78"/><g class="label" style="" transform="translate(-100, -24)"><rect/><foreignObject width="200" height="48"><div xmlns="http://www.w3.org/1999/xhtml" style="display: table; white-space: break-spaces; line-height: 1.5; max-width: 200px; text-align: center; width: 200px;"><span class="nodeLabel"><p>Whoever voluntarily causes hurt</p></span></div></foreignObject></g></g><g class="node default" id="my-svg-flowchart-GRP4-7" data-look="classic" transform="translate(138, 468.5)"><polygon points="9.75,0 209.140625,0 218.890625,-19.5 209.140625,-39 9.75,-39 0,-19.5" class="label-container" transform="translate(-109.4453125,19.5)"/><g class="label" style="" transform="translate(-92.1953125, -12)"><rect/><foreignObject width="184.390625" height="24"><div xmlns="http://www.w3.org/1999/xhtml" style="display: table-cell; white-space: nowrap; line-height: 1.5; max-width: 200px; text-align: center;"><span class="nodeLabel"><p>ANY OF (alternative limb)</p></span></div></foreignObject></g></g><g class="node default" id="my-svg-flowchart-ELEM5-10" data-look="classic" transform="translate(138, 589)"><rect class="basic label-container" style="" x="-130" y="-51" width="260" height="102"/><g class="label" style="" transform="translate(-100, -36)"><rect/><foreignObject width="200" height="72"><div xmlns="http://www.w3.org/1999/xhtml" style="display: table; white-space: break-spaces; line-height: 1.5; max-width: 200px; text-align: center; width: 200px;"><span class="nodeLabel"><p>The hurt which the person intends to cause is grievous hurt</p></span></div></foreignObject></g></g><g class="node default" id="my-svg-flowchart-ELEM6-13" data-look="classic" transform="translate(138, 741)"><rect class="basic label-container" style="" x="-130" y="-51" width="260" height="102"/><g class="label" style="" transform="translate(-100, -36)"><rect/><foreignObject width="200" height="72"><div xmlns="http://www.w3.org/1999/xhtml" style="display: table; white-space: break-spaces; line-height: 1.5; max-width: 200px; text-align: center; width: 200px;"><span class="nodeLabel"><p>The person knows himself to be likely to cause grievous hurt</p></span></div></foreignObject></g></g><g class="node default" id="my-svg-flowchart-ELEM7-16" data-look="classic" transform="translate(138, 881)"><rect class="basic label-container" style="" x="-130" y="-39" width="260" height="78"/><g class="label" style="" transform="translate(-100, -24)"><rect/><foreignObject width="200" height="48"><div xmlns="http://www.w3.org/1999/xhtml" style="display: table; white-space: break-spaces; line-height: 1.5; max-width: 200px; text-align: center; width: 200px;"><span class="nodeLabel"><p>The hurt which the person causes is grievous hurt</p></span></div></foreignObject></g></g><g class="node default" id="my-svg-flowchart-ILLUS8-19" data-look="classic" transform="translate(410.0546875, 220)"><rect class="basic label-container" style="" x="-130" y="-51" width="260" height="102"/><g class="label" style="" transform="translate(-100, -36)"><rect/><foreignObject width="200" height="72"><div xmlns="http://www.w3.org/1999/xhtml" style="display: table; white-space: break-spaces; line-height: 1.5; max-width: 200px; text-align: center; width: 200px;"><span class="nodeLabel"><p>Illustration illustration_a: A , intending or knowing himself to be likely pe...</p></span></div></foreignObject></g></g></g></g></g><defs><filter id="my-svg-drop-shadow" height="130%" width="130%"><feDropShadow dx="4" dy="4" stdDeviation="0" flood-opacity="0.06" flood-color="#000000"/></filter></defs><defs><filter id="my-svg-drop-shadow-small" height="150%" width="150%"><feDropShadow dx="2" dy="2" stdDeviation="0" flood-opacity="0.06" flood-color="#000000"/></filter></defs></svg>