<svg class="yuho-mermaid-svg" id="my-svg" width="100%" xmlns="http://www.w3.org/2000/svg" xmlns:xlink="http://www.w3.org/1999/xlink" class="flowchart" style="max-width: 276px; background-color: transparent;" viewBox="0 0 276 874" role="graphics-document document" aria-roledescription="flowchart-v2"><style>#my-svg{font-family:"trebuchet ms",verdana,arial,sans-serif;font-size:16px;fill:#333;}@keyframes edge-animation-frame{from{stroke-dashoffset:0;}}@keyframes dash{to{stroke-dashoffset:0;}}#my-svg .edge-animation-slow{stroke-dasharray:9,5!important;stroke-dashoffset:900;animation:dash 50s linear infinite;stroke-linecap:round;}#my-svg .edge-animation-fast{stroke-dasharray:9,5!important;stroke-dashoffset:900;animation:dash 20s linear infinite;stroke-linecap:round;}#my-svg .error-icon{fill:#552222;}#my-svg .error-text{fill:#552222;stroke:#552222;}#my-svg .edge-thickness-normal{stroke-width:1px;}#my-svg .edge-thickness-thick{stroke-width:3.5px;}#my-svg .edge-pattern-solid{stroke-dasharray:0;}#my-svg .edge-thickness-invisible{stroke-width:0;fill:none;}#my-svg .edge-pattern-dashed{stroke-dasharray:3;}#my-svg .edge-pattern-dotted{stroke-dasharray:2;}#my-svg .marker{fill:#333333;stroke:#333333;}#my-svg .marker.cross{stroke:#333333;}#my-svg svg{font-family:"trebuchet ms",verdana,arial,sans-serif;font-size:16px;}#my-svg p{margin:0;}#my-svg .label{font-family:"trebuchet ms",verdana,arial,sans-serif;color:#333;}#my-svg .cluster-label text{fill:#333;}#my-svg .cluster-label span{color:#333;}#my-svg .cluster-label span p{background-color:transparent;}#my-svg .label text,#my-svg span{fill:#333;color:#333;}#my-svg .node rect,#my-svg .node circle,#my-svg .node ellipse,#my-svg .node polygon,#my-svg .node path{fill:#ECECFF;stroke:#9370DB;stroke-width:1px;}#my-svg .rough-node .label text,#my-svg .node .label text,#my-svg .image-shape .label,#my-svg .icon-shape .label{text-anchor:middle;}#my-svg .node .katex path{fill:#000;stroke:#000;stroke-width:1px;}#my-svg .rough-node .label,#my-svg .node .label,#my-svg .image-shape .label,#my-svg .icon-shape .label{text-align:center;}#my-svg .node.clickable{cursor:pointer;}#my-svg .root .anchor path{fill:#333333!important;stroke-width:0;stroke:#333333;}#my-svg .arrowheadPath{fill:#333333;}#my-svg .edgePath .path{stroke:#333333;stroke-width:1px;}#my-svg .flowchart-link{stroke:#333333;fill:none;}#my-svg .edgeLabel{background-color:rgba(232,232,232, 0.8);text-align:center;}#my-svg .edgeLabel p{background-color:rgba(232,232,232, 0.8);}#my-svg .edgeLabel rect{opacity:0.5;background-color:rgba(232,232,232, 0.8);fill:rgba(232,232,232, 0.8);}#my-svg .labelBkg{background-color:rgba(232, 232, 232, 0.5);}#my-svg .cluster rect{fill:#ffffde;stroke:#aaaa33;stroke-width:1px;}#my-svg .cluster text{fill:#333;}#my-svg .cluster span{color:#333;}#my-svg div.mermaidTooltip{position:absolute;text-align:center;max-width:200px;padding:2px;font-family:"trebuchet ms",verdana,arial,sans-serif;font-size:12px;background:hsl(80, 100%, 96.2745098039%);border:1px solid #aaaa33;border-radius:2px;pointer-events:none;z-index:100;}#my-svg .flowchartTitleText{text-anchor:middle;font-size:18px;fill:#333;}#my-svg rect.text{fill:none;stroke-width:0;}#my-svg .icon-shape,#my-svg .image-shape{background-color:rgba(232,232,232, 0.8);text-align:center;}#my-svg .icon-shape p,#my-svg .image-shape p{background-color:rgba(232,232,232, 0.8);padding:2px;}#my-svg .icon-shape .label rect,#my-svg .image-shape .label rect{opacity:0.5;background-color:rgba(232,232,232, 0.8);fill:rgba(232,232,232, 0.8);}#my-svg .label-icon{display:inline-block;height:1em;overflow:visible;vertical-align:-0.125em;}#my-svg .node .label-icon path{fill:currentColor;stroke:revert;stroke-width:revert;}#my-svg .node .neo-node{stroke:#9370DB;}#my-svg [data-look="neo"].node rect,#my-svg [data-look="neo"].cluster rect,#my-svg [data-look="neo"].node polygon{stroke:#9370DB;filter:drop-shadow(1px 2px 2px rgba(185, 185, 185, 1));}#my-svg [data-look="neo"].node path{stroke:#9370DB;stroke-width:1px;}#my-svg [data-look="neo"].node .outer-path{filter:drop-shadow(1px 2px 2px rgba(185, 185, 185, 1));}#my-svg [data-look="neo"].node .neo-line path{stroke:#9370DB;filter:none;}#my-svg [data-look="neo"].node circle{stroke:#9370DB;filter:drop-shadow(1px 2px 2px rgba(185, 185, 185, 1));}#my-svg [data-look="neo"].node circle .state-start{fill:#000000;}#my-svg [data-look="neo"].icon-shape .icon{fill:#9370DB;filter:drop-shadow(1px 2px 2px rgba(185, 185, 185, 1));}#my-svg [data-look="neo"].icon-shape .icon-neo path{stroke:#9370DB;filter:drop-shadow(1px 2px 2px rgba(185, 185, 185, 1));}#my-svg :root{--mermaid-font-family:"trebuchet ms",verdana,arial,sans-serif;}</style><g><marker id="my-svg_flowchart-v2-pointEnd" class="marker flowchart-v2" viewBox="0 0 10 10" refX="5" refY="5" markerUnits="userSpaceOnUse" markerWidth="8" markerHeight="8" orient="auto"><path d="M 0 0 L 10 5 L 0 10 z" class="arrowMarkerPath" style="stroke-width: 1; stroke-dasharray: 1, 0;"/></marker><marker id="my-svg_flowchart-v2-pointStart" class="marker flowchart-v2" viewBox="0 0 10 10" refX="4.5" refY="5" markerUnits="userSpaceOnUse" markerWidth="8" markerHeight="8" orient="auto"><path d="M 0 5 L 10 10 L 10 0 z" class="arrowMarkerPath" style="stroke-width: 1; stroke-dasharray: 1, 0;"/></marker><marker id="my-svg_flowchart-v2-pointEnd-margin" class="marker flowchart-v2" viewBox="0 0 11.5 14" refX="11.5" refY="7" markerUnits="userSpaceOnUse" markerWidth="10.5" markerHeight="14" orient="auto"><path d="M 0 0 L 11.5 7 L 0 14 z" class="arrowMarkerPath" style="stroke-width: 0; stroke-dasharray: 1, 0;"/></marker><marker id="my-svg_flowchart-v2-pointStart-margin" class="marker flowchart-v2" viewBox="0 0 11.5 14" refX="1" refY="7" markerUnits="userSpaceOnUse" markerWidth="11.5" markerHeight="14" orient="auto"><polygon points="0,7 11.5,14 11.5,0" class="arrowMarkerPath" style="stroke-width: 0; stroke-dasharray: 1, 0;"/></marker><marker id="my-svg_flowchart-v2-circleEnd" class="marker flowchart-v2" viewBox="0 0 10 10" refX="11" refY="5" markerUnits="userSpaceOnUse" markerWidth="11" markerHeight="11" orient="auto"><circle cx="5" cy="5" r="5" class="arrowMarkerPath" style="stroke-width: 1; stroke-dasharray: 1, 0;"/></marker><marker id="my-svg_flowchart-v2-circleStart" class="marker flowchart-v2" viewBox="0 0 10 10" refX="-1" refY="5" markerUnits="userSpaceOnUse" markerWidth="11" markerHeight="11" orient="auto"><circle cx="5" cy="5" r="5" class="arrowMarkerPath" style="stroke-width: 1; stroke-dasharray: 1, 0;"/></marker><marker id="my-svg_flowchart-v2-circleEnd-margin" class="marker flowchart-v2" viewBox="0 0 10 10" refY="5" refX="12.25" markerUnits="userSpaceOnUse" markerWidth="14" markerHeight="14" orient="auto"><circle cx="5" cy="5" r="5" class="arrowMarkerPath" style="stroke-width: 0; stroke-dasharray: 1, 0;"/></marker><marker id="my-svg_flowchart-v2-circleStart-margin" class="marker flowchart-v2" viewBox="0 0 10 10" refX="-2" refY="5" markerUnits="userSpaceOnUse" markerWidth="14" markerHeight="14" orient="auto"><circle cx="5" cy="5" r="5" class="arrowMarkerPath" style="stroke-width: 0; stroke-dasharray: 1, 0;"/></marker><marker id="my-svg_flowchart-v2-crossEnd" class="marker cross flowchart-v2" viewBox="0 0 11 11" refX="12" refY="5.2" markerUnits="userSpaceOnUse" markerWidth="11" markerHeight="11" orient="auto"><path d="M 1,1 l 9,9 M 10,1 l -9,9" class="arrowMarkerPath" style="stroke-width: 2; stroke-dasharray: 1, 0;"/></marker><marker id="my-svg_flowchart-v2-crossStart" class="marker cross flowchart-v2" viewBox="0 0 11 11" refX="-1" refY="5.2" markerUnits="userSpaceOnUse" markerWidth="11" markerHeight="11" orient="auto"><path d="M 1,1 l 9,9 M 10,1 l -9,9" class="arrowMarkerPath" style="stroke-width: 2; stroke-dasharray: 1, 0;"/></marker><marker id="my-svg_flowchart-v2-crossEnd-margin" class="marker cross flowchart-v2" viewBox="0 0 15 15" refX="17.7" refY="7.5" markerUnits="userSpaceOnUse" markerWidth="12" markerHeight="12" orient="auto"><path d="M 1,1 L 14,14 M 1,14 L 14,1" class="arrowMarkerPath" style="stroke-width: 2.5;"/></marker><marker id="my-svg_flowchart-v2-crossStart-margin" class="marker cross flowchart-v2" viewBox="0 0 15 15" refX="-3.5" refY="7.5" markerUnits="userSpaceOnUse" markerWidth="12" markerHeight="12" orient="auto"><path d="M 1,1 L 14,14 M 1,14 L 14,1" class="arrowMarkerPath" style="stroke-width: 2.5; stroke-dasharray: 1, 0;"/></marker><g class="root"><g class="clusters"/><g class="edgePaths"><path d="M138.5,119.5L138.417,123.583C138.333,127.667,138.167,135.833,138.154,143.5C138.141,151.167,138.281,158.334,138.351,161.917L138.422,165.501" id="my-svg-L_START1_GRP2_0" class="edge-thickness-normal edge-pattern-solid edge-thickness-normal edge-pattern-solid flowchart-link" style=";" data-edge="true" data-et="edge" data-id="L_START1_GRP2_0" data-points="W3sieCI6MTM4LjUsInkiOjExOS41fSx7IngiOjEzOCwieSI6MTQ0fSx7IngiOjEzOC41LCJ5IjoxNjkuNX1d" data-look="classic" marker-end="url(#my-svg_flowchart-v2-pointEnd)"/><path d="M138.5,208.5L138.417,212.583C138.333,216.667,138.167,224.833,138.083,232.417C138,240,138,247,138,250.5L138,254" id="my-svg-L_GRP2_ELEM3_0" class="edge-thickness-normal edge-pattern-solid edge-thickness-normal edge-pattern-solid flowchart-link" style=";" data-edge="true" data-et="edge" data-id="L_GRP2_ELEM3_0" data-points="W3sieCI6MTM4LjUsInkiOjIwOC41fSx7IngiOjEzOCwieSI6MjMzfSx7IngiOjEzOCwieSI6MjU4fV0=" data-look="classic" marker-end="url(#my-svg_flowchart-v2-pointEnd)"/><path d="M138,336L138,340.167C138,344.333,138,352.667,138.07,360.417C138.141,368.167,138.281,375.334,138.351,378.917L138.422,382.501" id="my-svg-L_ELEM3_GRP4_0" class="edge-thickness-normal edge-pattern-solid edge-thickness-normal edge-pattern-solid flowchart-link" style=";" data-edge="true" data-et="edge" data-id="L_ELEM3_GRP4_0" data-points="W3sieCI6MTM4LCJ5IjozMzZ9LHsieCI6MTM4LCJ5IjozNjF9LHsieCI6MTM4LjUsInkiOjM4Ni41fV0=" data-look="classic" marker-end="url(#my-svg_flowchart-v2-pointEnd)"/><path d="M138.5,425.5L138.417,429.583C138.333,433.667,138.167,441.833,138.083,449.417C138,457,138,464,138,467.5L138,471" id="my-svg-L_GRP4_ELEM5_0" class="edge-thickness-normal edge-pattern-solid edge-thickness-normal edge-pattern-solid flowchart-link" style=";" data-edge="true" data-et="edge" data-id="L_GRP4_ELEM5_0" data-points="W3sieCI6MTM4LjUsInkiOjQyNS41fSx7IngiOjEzOCwieSI6NDUwfSx7IngiOjEzOCwieSI6NDc1fV0=" data-look="classic" marker-end="url(#my-svg_flowchart-v2-pointEnd)"/><path d="M138,601L138,605.167C138,609.333,138,617.667,138,625.333C138,633,138,640,138,643.5L138,647" id="my-svg-L_ELEM5_ELEM6_0" class="edge-thickness-normal edge-pattern-solid edge-thickness-normal edge-pattern-solid flowchart-link" style=";" data-edge="true" data-et="edge" data-id="L_ELEM5_ELEM6_0" data-points="W3sieCI6MTM4LCJ5Ijo2MDF9LHsieCI6MTM4LCJ5Ijo2MjZ9LHsieCI6MTM4LCJ5Ijo2NTF9XQ==" data-look="classic" marker-end="url(#my-svg_flowchart-v2-pointEnd)"/><path d="M138,777L138,781.167C138,785.333,138,793.667,138.07,801.417C138.141,809.167,138.281,816.334,138.351,819.917L138.422,823.501" id="my-svg-L_ELEM6_PENALTY7_0" class="edge-thickness-normal edge-pattern-solid edge-thickness-normal edge-pattern-solid flowchart-link" style=";" data-edge="true" data-et="edge" data-id="L_ELEM6_PENALTY7_0" data-points="W3sieCI6MTM4LCJ5Ijo3Nzd9LHsieCI6MTM4LCJ5Ijo4MDJ9LHsieCI6MTM4LjUsInkiOjgyNy41fV0=" data-look="classic" marker-end="url(#my-svg_flowchart-v2-pointEnd)"/></g><g class="edgeLabels"><g class="edgeLabel"><g class="label" data-id="L_START1_GRP2_0" transform="translate(0, 0)"><foreignObject width="0" height="0"><div xmlns="http://www.w3.org/1999/xhtml" class="labelBkg" style="display: table-cell; white-space: nowrap; line-height: 1.5; max-width: 200px; text-align: center;"><span class="edgeLabel"></span></div></foreignObject></g></g><g class="edgeLabel"><g class="label" data-id="L_GRP2_ELEM3_0" transform="translate(0, 0)"><foreignObject width="0" height="0"><div xmlns="http://www.w3.org/1999/xhtml" class="labelBkg" style="display: table-cell; white-space: nowrap; line-height: 1.5; max-width: 200px; text-align: center;"><span class="edgeLabel"></span></div></foreignObject></g></g><g class="edgeLabel"><g class="label" data-id="L_ELEM3_GRP4_0" transform="translate(0, 0)"><foreignObject width="0" height="0"><div xmlns="http://www.w3.org/1999/xhtml" class="labelBkg" style="display: table-cell; white-space: nowrap; line-height: 1.5; max-width: 200px; text-align: center;"><span class="edgeLabel"></span></div></foreignObject></g></g><g class="edgeLabel"><g class="label" data-id="L_GRP4_ELEM5_0" transform="translate(0, 0)"><foreignObject width="0" height="0"><div xmlns="http://www.w3.org/1999/xhtml" class="labelBkg" style="display: table-cell; white-space: nowrap; line-height: 1.5; max-width: 200px; text-align: center;"><span class="edgeLabel"></span></div></foreignObject></g></g><g class="edgeLabel"><g class="label" data-id="L_ELEM5_ELEM6_0" transform="translate(0, 0)"><foreignObject width="0" height="0"><div xmlns="http://www.w3.org/1999/xhtml" class="labelBkg" style="display: table-cell; white-space: nowrap; line-height: 1.5; max-width: 200px; text-align: center;"><span class="edgeLabel"></span></div></foreignObject></g></g><g class="edgeLabel"><g class="label" data-id="L_ELEM6_PENALTY7_0" transform="translate(0, 0)"><foreignObject width="0" height="0"><div xmlns="http://www.w3.org/1999/xhtml" class="labelBkg" style="display: table-cell; white-space: nowrap; line-height: 1.5; max-width: 200px; text-align: center;"><span class="edgeLabel"></span></div></foreignObject></g></g></g><g class="nodes"><g class="node default" id="my-svg-flowchart-START1-0" data-look="classic" transform="translate(138, 63.5)"><g class="basic label-container outer-path"><path d="M-65.875 -55.5 C-32.27513565771356 -55.5, 1.3247286845728752 -55.5, 65.875 -55.5 C65.875 -55.5, 65.875 -55.5, 65.875 -55.5 C66.80136462073999 -55.47029328967222, 67.72772924147999 -55.44058657934443, 69.43089720892957 -55.38596929764367 C70.79390243292416 -55.25448182293852, 72.15690765691875 -55.122994348233384, 72.97218247349008 -55.044345767190165 C74.2261881239819 -54.84160785857771, 75.48019377447373 -54.638869949965255, 76.48430389292615 -54.47653321300413 C77.38428585212613 -54.271118203747875, 78.28426781132609 -54.06570319449162, 79.95282940697766 -53.684864898666135 C80.96902333033557 -53.38326387632426, 81.98521725369348 -53.08166285398239, 83.36350610031094 -52.67259395909211 C84.3465771086542 -52.31081474061301, 85.32964811699746 -51.949035522133904, 86.70231877080526 -51.44388003270421 C87.66763206552766 -51.016564472132096, 88.63294536025003 -50.58924891155998, 89.95554752102447 -50.00377216858426 C90.58813993637885 -49.67374911068866, 91.22073235173325 -49.34372605279306, 93.10982413621853 -48.358188078848116 C94.15427143360316 -47.72503798931995, 95.19871873098776 -47.091887899791786, 96.15218701718544 -46.51388982149716 C97.12643090172536 -45.834299461980144, 98.10067478626527 -45.15470910246314, 99.07013444226249 -44.47845601367159 C99.96519093766744 -43.76467227703979, 100.86024743307239 -43.050888540407996, 101.85167593958224 -42.260250689486966 C102.5186695871833 -41.65450470642054, 103.18566323478434 -41.04875872335411, 104.48538155849349 -39.86838893042388 C105.12051153057128 -39.21256508911309, 105.75564150264907 -38.55674124780231, 106.96042883768001 -37.3126994095031 C107.80481027110812 -36.32084093113376, 108.64919170453625 -35.32898245276442, 109.26664727697565 -34.603684003159714 C109.7808815583711 -33.914656913796584, 110.29511583976657 -33.225629824433454, 111.39456013013104 -31.752474636780427 C111.91153806042765 -30.958257707832807, 112.42851599072425 -30.164040778885184, 113.33542334679672 -28.770787541234146 C113.71634047751836 -28.094430603595768, 114.09725760824001 -27.41807366595739, 115.08126150370151 -25.670875108366356 C115.42611642739391 -24.954776480605776, 115.7709713510863 -24.238677852845196, 116.62490057737759 -22.46547554329287 C117.02516919569985 -21.476804317369606, 117.4254378140221 -20.488133091446343, 117.95999742376169 -19.1677605203826 C118.20974882493282 -18.41554909253702, 118.45950022610394 -17.66333766469144, 119.08106584353466 -15.791281058022316 C119.31846904715576 -14.885959751415774, 119.55587225077684 -13.98063844480923, 119.9834991260912 -12.349911834575455 C120.12016536507953 -11.648159581790248, 120.25683160406786 -10.946407329005043, 120.66358897950198 -8.857794174352568 C120.81908738557208 -7.651779243506343, 120.97458579164217 -6.445764312660119, 121.1185407686805 -5.3292779378763475 C121.16660085986423 -4.580703224282419, 121.21466095104796 -3.8321285106884915, 121.34648499913817 -1.7788625552268618 C121.34648499913817 -0.39337009989907745, 121.34648499913817 0.9921223554287069, 121.34648499913817 1.7788625552268482 C121.26677736277598 3.020373330413916, 121.18706972641381 4.261884105600984, 121.1185407686805 5.32927793787631 C121.00718489518364 6.192932103013545, 120.89582902168678 7.056586268150781, 120.66358897950198 8.857794174352529 C120.51275429953036 9.632298377085913, 120.36191961955873 10.406802579819296, 119.9834991260912 12.349911834575442 C119.70989956377572 13.393265544484763, 119.43630000146025 14.436619254394085, 119.08106584353467 15.79128105802228 C118.72230686541569 16.87180593963606, 118.36354788729669 17.952330821249845, 117.9599974237617 19.16776052038256 C117.66531927874043 19.895621235799474, 117.37064113371915 20.623481951216387, 116.62490057737759 22.465475543292854 C116.18278730251045 23.383533218263132, 115.74067402764332 24.30159089323341, 115.08126150370151 25.670875108366346 C114.7282047875006 26.29776305885026, 114.3751480712997 26.924651009334177, 113.33542334679672 28.770787541234135 C112.86858955575045 29.4879696067065, 112.40175576470416 30.205151672178864, 111.39456013013105 31.7524746367804 C110.733560583223 32.63815381133967, 110.07256103631494 33.52383298589894, 109.26664727697566 34.6036840031597 C108.56361904532294 35.42950096749861, 107.86059081367023 36.255317931837524, 106.96042883768003 37.31269940950306 C106.10803665475231 38.19286432107565, 105.2556444718246 39.073029232648246, 104.48538155849351 39.86838893042387 C103.68274836946605 40.597319156188156, 102.88011518043858 41.326249381952444, 101.8516759395823 42.26025068948693 C101.14424042509408 42.824411686641604, 100.43680491060589 43.38857268379628, 99.0701344422625 44.47845601367158 C98.1139173164716 45.1454716866511, 97.15770019068069 45.812487359630616, 96.15218701718548 46.51388982149714 C95.4935749007135 46.91314435693687, 94.8349627842415 47.3123988923766, 93.10982413621855 48.358188078848116 C92.40345509937593 48.72670035291795, 91.6970860625333 49.09521262698778, 89.95554752102449 50.003772168584256 C89.25113210784568 50.31559597625771, 88.54671669466686 50.62741978393117, 86.70231877080529 51.4438800327042 C85.82318027466403 51.76741112595136, 84.94404177852276 52.09094221919852, 83.36350610031099 52.6725939590921 C82.09311631421588 53.04963897919306, 80.82272652812078 53.42668399929402, 79.95282940697771 53.68486489866612 C79.21853203524468 53.852463482026025, 78.48423466351163 54.02006206538593, 76.48430389292618 54.476533213004124 C75.25168766939618 54.67581304494288, 74.01907144586617 54.87509287688163, 72.97218247349011 55.04434576719016 C71.97691218319852 55.140358295106935, 70.98164189290694 55.23637082302372, 69.43089720892957 55.38596929764367 C68.06278531487905 55.429841983217614, 66.69467342082855 55.47371466879156, 65.87500000000001 55.5 C65.87500000000001 55.5, 65.875 55.5, 65.875 55.5 C16.405738497030434 55.5, -33.06352300593913 55.5, -65.87499999999999 55.5 C-67.00504123526801 55.46376177707678, -68.13508247053603 55.42752355415357, -69.43089720892954 55.38596929764367 C-70.26740663543265 55.30527223931869, -71.10391606193578 55.22457518099371, -72.9721824734901 55.04434576719016 C-73.99865122488437 54.87839425984879, -75.02511997627865 54.712442752507414, -76.48430389292616 54.476533213004124 C-77.53474071721801 54.2367778626004, -78.58517754150986 53.99702251219667, -79.95282940697764 53.684864898666135 C-80.73395713076751 53.4530302904684, -81.51508485455736 53.22119568227066, -83.36350610031091 52.67259395909212 C-84.34794523881472 52.31031125606708, -85.33238437731852 51.94802855304204, -86.70231877080526 51.44388003270421 C-87.80110402002205 50.95748039718228, -88.89988926923883 50.47108076166035, -89.95554752102447 50.00377216858427 C-90.88367666767367 49.51956778727247, -91.81180581432288 49.035363405960666, -93.10982413621852 48.35818807884812 C-94.31088825293227 47.63009595306005, -95.51195236964602 46.90200382727197, -96.15218701718541 46.51388982149718 C-96.74661249485176 46.09924434054133, -97.34103797251812 45.68459885958548, -99.07013444226249 44.4784560136716 C-100.1731991392311 43.59879127162349, -101.27626383619972 42.719126529575384, -101.85167593958224 42.26025068948697 C-102.48604227240644 41.684135970429445, -103.12040860523064 41.108021251371916, -104.48538155849347 39.868388930423905 C-105.15162947551332 39.180433256129646, -105.81787739253316 38.49247758183539, -106.96042883768001 37.31269940950308 C-107.64199581631928 36.51209205413365, -108.32356279495856 35.711484698764224, -109.26664727697565 34.60368400315972 C-109.75230155676977 33.952951512250685, -110.23795583656387 33.30221902134165, -111.39456013013104 31.752474636780434 C-111.8962525417712 30.98174036922558, -112.39794495341137 30.211006101670726, -113.33542334679669 28.77078754123417 C-113.86661834592117 27.827597030962284, -114.39781334504565 26.884406520690398, -115.0812615037015 25.670875108366364 C-115.65227804329183 24.48514704611036, -116.22329458288215 23.29941898385436, -116.62490057737759 22.465475543292875 C-117.13305695768676 21.21031945939394, -117.64121333799595 19.955163375495008, -117.95999742376169 19.167760520382608 C-118.26599489424638 18.246144893358736, -118.57199236473105 17.324529266334864, -119.08106584353466 15.791281058022301 C-119.27364152248771 15.056906531347124, -119.46621720144076 14.322532004671949, -119.9834991260912 12.349911834575463 C-120.214077119696 11.165942570091024, -120.44465511330081 9.981973305606587, -120.66358897950198 8.857794174352573 C-120.77861018566425 7.9657124128642955, -120.8936313918265 7.0736306513760185, -121.1185407686805 5.3292779378763795 C-121.16514754872313 4.603339718396775, -121.21175432876575 3.8774014989171706, -121.34648499913817 1.7788625552268686 C-121.34648499913817 0.372542547131568, -121.34648499913817 -1.0337774609637327, -121.34648499913817 -1.7788625552268416 C-121.29418865530289 -2.5934203233103057, -121.24189231146761 -3.40797809139377, -121.1185407686805 -5.329277937876303 C-121.01112979506205 -6.1623362385651745, -120.9037188214436 -6.995394539254046, -120.66358897950198 -8.857794174352547 C-120.50562484197081 -9.668906634842756, -120.34766070443966 -10.480019095332963, -119.9834991260912 -12.349911834575437 C-119.7647441176497 -13.184119490783289, -119.5459891092082 -14.01832714699114, -119.08106584353467 -15.791281058022273 C-118.68273090095823 -16.991002439008284, -118.2843959583818 -18.190723819994297, -117.95999742376172 -19.167760520382537 C-117.51308516170913 -20.2716424481132, -117.06617289965655 -21.375524375843867, -116.62490057737759 -22.46547554329285 C-116.23958787478416 -23.265585614599214, -115.85427517219074 -24.06569568590558, -115.08126150370151 -25.67087510836634 C-114.49894526590533 -26.70483655448659, -113.91662902810914 -27.73879800060684, -113.33542334679672 -28.770787541234153 C-112.85285187752747 -29.51214690661532, -112.37028040825822 -30.253506271996486, -111.39456013013105 -31.752474636780416 C-110.61097179485839 -32.80241161967989, -109.82738345958573 -33.85234860257936, -109.26664727697568 -34.6036840031597 C-108.44467376614982 -35.569220860593504, -107.62270025532395 -36.534757718027315, -106.96042883768004 -37.31269940950306 C-106.12591605262114 -38.17440237485023, -105.29140326756223 -39.0361053401974, -104.48538155849351 -39.86838893042385 C-103.87863293957744 -40.419421972434684, -103.27188432066137 -40.97045501444552, -101.8516759395823 -42.260250689486924 C-101.29451851263843 -42.70456891089285, -100.73736108569456 -43.14888713229878, -99.07013444226251 -44.47845601367158 C-98.31375192735426 -45.00607571280024, -97.55736941244601 -45.53369541192889, -96.15218701718548 -46.51388982149714 C-95.25235214309777 -47.059375010185796, -94.35251726901005 -47.60486019887445, -93.10982413621855 -48.35818807884811 C-92.0827620154288 -48.89400572939944, -91.05569989463903 -49.429823379950776, -89.9555475210245 -50.003772168584256 C-88.97134570565427 -50.43944911693911, -87.98714389028405 -50.87512606529397, -86.70231877080529 -51.44388003270419 C-85.53591260895516 -51.87312828240541, -84.36950644710502 -52.30237653210663, -83.36350610031099 -52.6725939590921 C-82.65332538132681 -52.88337186867194, -81.94314466234262 -53.094149778251776, -79.95282940697771 -53.68486489866611 C-78.59988859843223 -53.99366480945275, -77.24694778988676 -54.30246472023939, -76.48430389292619 -54.47653321300412 C-75.19839792305928 -54.68442851786247, -73.91249195319236 -54.892323822720826, -72.97218247349012 -55.04434576719016 C-72.2357309111844 -55.1153903636932, -71.49927934887867 -55.18643496019625, -69.43089720892957 -55.38596929764367 C-68.52604322673292 -55.414986203661286, -67.62118924453627 -55.444003109678896, -65.87500000000001 -55.5 C-65.87500000000001 -55.5, -65.875 -55.5, -65.875 -55.5" stroke="none" stroke-width="0" fill="#ECECFF" style=""/><path d="M-65.875 -55.5 C-37.707979671846616 -55.5, -9.540959343693238 -55.5, 65.875 -55.5 M-65.875 -55.5 C-25.23584714840478 -55.5, 15.40330570319044 -55.5, 65.875 -55.5 M65.875 -55.5 C65.875 -55.5, 65.875 -55.5, 65.875 -55.5 M65.875 -55.5 C65.875 -55.5, 65.875 -55.5, 65.875 -55.5 M65.875 -55.5 C67.0790871951546 -55.46138726726494, 68.28317439030918 -55.42277453452988, 69.43089720892957 -55.38596929764367 M65.875 -55.5 C66.67657439846039 -55.474295069211294, 67.47814879692078 -55.44859013842259, 69.43089720892957 -55.38596929764367 M69.43089720892957 -55.38596929764367 C70.75796046909839 -55.25794910096226, 72.08502372926722 -55.12992890428085, 72.97218247349008 -55.044345767190165 M69.43089720892957 -55.38596929764367 C70.72802645701363 -55.26083679910716, 72.02515570509767 -55.13570430057065, 72.97218247349008 -55.044345767190165 M72.97218247349008 -55.044345767190165 C73.96276905841621 -54.88419541025301, 74.95335564334236 -54.72404505331585, 76.48430389292615 -54.47653321300413 M72.97218247349008 -55.044345767190165 C74.26346287824992 -54.835581565377694, 75.55474328300977 -54.626817363565216, 76.48430389292615 -54.47653321300413 M76.48430389292615 -54.47653321300413 C77.31026515417635 -54.28801294502472, 78.13622641542653 -54.099492677045305, 79.95282940697766 -53.684864898666135 M76.48430389292615 -54.47653321300413 C77.68994845958834 -54.20135270822955, 78.89559302625054 -53.92617220345496, 79.95282940697766 -53.684864898666135 M79.95282940697766 -53.684864898666135 C81.05328674867562 -53.35825493606864, 82.15374409037358 -53.03164497347115, 83.36350610031094 -52.67259395909211 M79.95282940697766 -53.684864898666135 C81.1469686592286 -53.3304506367629, 82.34110791147955 -52.97603637485966, 83.36350610031094 -52.67259395909211 M83.36350610031094 -52.67259395909211 C84.05807504262599 -52.41698616779526, 84.75264398494103 -52.1613783764984, 86.70231877080526 -51.44388003270421 M83.36350610031094 -52.67259395909211 C84.19071216666403 -52.36817448006512, 85.01791823301711 -52.06375500103813, 86.70231877080526 -51.44388003270421 M86.70231877080526 -51.44388003270421 C87.5710968616621 -51.059297743268296, 88.43987495251893 -50.67471545383238, 89.95554752102447 -50.00377216858426 M86.70231877080526 -51.44388003270421 C87.93296981838195 -50.899107319908275, 89.16362086595863 -50.35433460711235, 89.95554752102447 -50.00377216858426 M89.95554752102447 -50.00377216858426 C91.18122229269441 -49.36433842528621, 92.40689706436436 -48.724904681988164, 93.10982413621853 -48.358188078848116 M89.95554752102447 -50.00377216858426 C90.90053803303768 -49.51077122376228, 91.8455285450509 -49.0177702789403, 93.10982413621853 -48.358188078848116 M93.10982413621853 -48.358188078848116 C94.2319411083235 -47.677954176066805, 95.35405808042846 -46.99772027328549, 96.15218701718544 -46.51388982149716 M93.10982413621853 -48.358188078848116 C94.30256203098874 -47.63514335773253, 95.49529992575893 -46.912098636616946, 96.15218701718544 -46.51388982149716 M96.15218701718544 -46.51388982149716 C97.30186350961613 -45.71192526907074, 98.45154000204681 -44.90996071664432, 99.07013444226249 -44.47845601367159 M96.15218701718544 -46.51388982149716 C96.75506672620644 -46.09334703472608, 97.35794643522745 -45.672804247955, 99.07013444226249 -44.47845601367159 M99.07013444226249 -44.47845601367159 C99.94244423918633 -43.7828121637634, 100.81475403611019 -43.08716831385522, 101.85167593958224 -42.260250689486966 M99.07013444226249 -44.47845601367159 C99.68238811760905 -43.99020000033726, 100.29464179295562 -43.501943987002925, 101.85167593958224 -42.260250689486966 M101.85167593958224 -42.260250689486966 C102.67930743634946 -41.50861766205241, 103.5069389331167 -40.756984634617844, 104.48538155849349 -39.86838893042388 M101.85167593958224 -42.260250689486966 C102.47975992011065 -41.68984143656253, 103.10784390063907 -41.119432183638104, 104.48538155849349 -39.86838893042388 M104.48538155849349 -39.86838893042388 C105.11067312534959 -39.22272405025257, 105.7359646922057 -38.57705917008126, 106.96042883768001 -37.3126994095031 M104.48538155849349 -39.86838893042388 C105.07641929317957 -39.258093944260054, 105.66745702786564 -38.647798958096224, 106.96042883768001 -37.3126994095031 M106.96042883768001 -37.3126994095031 C107.8811310295235 -36.231190225524884, 108.80183322136699 -35.14968104154667, 109.26664727697565 -34.603684003159714 M106.96042883768001 -37.3126994095031 C107.65715511075462 -36.49428508430162, 108.35388138382923 -35.67587075910016, 109.26664727697565 -34.603684003159714 M109.26664727697565 -34.603684003159714 C109.87573690777722 -33.78755938709249, 110.48482653857879 -32.97143477102528, 111.39456013013104 -31.752474636780427 M109.26664727697565 -34.603684003159714 C109.70783355930115 -34.012534577740695, 110.14901984162667 -33.42138515232168, 111.39456013013104 -31.752474636780427 M111.39456013013104 -31.752474636780427 C112.10612600604863 -30.65931836917931, 112.81769188196621 -29.566162101578193, 113.33542334679672 -28.770787541234146 M111.39456013013104 -31.752474636780427 C112.1200564416999 -30.63791747917321, 112.84555275326876 -29.523360321566, 113.33542334679672 -28.770787541234146 M113.33542334679672 -28.770787541234146 C113.83134895610033 -27.890221404002194, 114.32727456540394 -27.009655266770245, 115.08126150370151 -25.670875108366356 M113.33542334679672 -28.770787541234146 C113.92303237711019 -27.727428206046106, 114.51064140742365 -26.684068870858066, 115.08126150370151 -25.670875108366356 M115.08126150370151 -25.670875108366356 C115.48267709890757 -24.837327036003146, 115.88409269411363 -24.003778963639935, 116.62490057737759 -22.46547554329287 M115.08126150370151 -25.670875108366356 C115.64886500896519 -24.492234284916872, 116.21646851422886 -23.313593461467388, 116.62490057737759 -22.46547554329287 M116.62490057737759 -22.46547554329287 C116.945411723822 -21.673806814913707, 117.26592287026642 -20.88213808653454, 117.95999742376169 -19.1677605203826 M116.62490057737759 -22.46547554329287 C116.8960291889802 -21.795782630719327, 117.1671578005828 -21.12608971814578, 117.95999742376169 -19.1677605203826 M117.95999742376169 -19.1677605203826 C118.2104140688902 -18.413545483729592, 118.46083071401873 -17.659330447076584, 119.08106584353466 -15.791281058022316 M117.95999742376169 -19.1677605203826 C118.37187731207035 -17.9272439209452, 118.783757200379 -16.6867273215078, 119.08106584353466 -15.791281058022316 M119.08106584353466 -15.791281058022316 C119.43032582942506 -14.459401361586826, 119.77958581531546 -13.127521665151336, 119.9834991260912 -12.349911834575455 M119.08106584353466 -15.791281058022316 C119.4251875128268 -14.478995989736491, 119.76930918211893 -13.166710921450667, 119.9834991260912 -12.349911834575455 M119.9834991260912 -12.349911834575455 C120.13414677317802 -11.576368006176192, 120.28479442026482 -10.80282417777693, 120.66358897950198 -8.857794174352568 M119.9834991260912 -12.349911834575455 C120.23253188395708 -11.07118125602624, 120.48156464182294 -9.792450677477024, 120.66358897950198 -8.857794174352568 M120.66358897950198 -8.857794174352568 C120.84163997498806 -7.476865813508487, 121.01969097047413 -6.095937452664407, 121.1185407686805 -5.3292779378763475 M120.66358897950198 -8.857794174352568 C120.7928986965819 -7.854893543772567, 120.92220841366182 -6.851992913192565, 121.1185407686805 -5.3292779378763475 M121.1185407686805 -5.3292779378763475 C121.17415060161302 -4.463109902503085, 121.22976043454554 -3.5969418671298232, 121.34648499913817 -1.7788625552268618 M121.1185407686805 -5.3292779378763475 C121.1935782409349 -4.1605087383566515, 121.26861571318929 -2.9917395388369554, 121.34648499913817 -1.7788625552268618 M121.34648499913817 -1.7788625552268618 C121.34648499913817 -0.6461235446107485, 121.34648499913817 0.48661546600536476, 121.34648499913817 1.7788625552268482 M121.34648499913817 -1.7788625552268618 C121.34648499913817 -1.0161147292411967, 121.34648499913817 -0.2533669032555319, 121.34648499913817 1.7788625552268482 M121.34648499913817 1.7788625552268482 C121.29789992603371 2.535614285994077, 121.24931485292925 3.2923660167613056, 121.1185407686805 5.32927793787631 M121.34648499913817 1.7788625552268482 C121.28796953027036 2.690288215679413, 121.22945406140255 3.601713876131978, 121.1185407686805 5.32927793787631 M121.1185407686805 5.32927793787631 C121.00483698866562 6.211142002320811, 120.89113320865071 7.0930060667653105, 120.66358897950198 8.857794174352529 M121.1185407686805 5.32927793787631 C121.02704863057767 6.038872893835761, 120.93555649247482 6.748467849795212, 120.66358897950198 8.857794174352529 M120.66358897950198 8.857794174352529 C120.4375276388014 10.018571380768744, 120.21146629810082 11.179348587184961, 119.9834991260912 12.349911834575442 M120.66358897950198 8.857794174352529 C120.47406985220226 9.83093483815487, 120.28455072490253 10.80407550195721, 119.9834991260912 12.349911834575442 M119.9834991260912 12.349911834575442 C119.72720670241488 13.327265923892357, 119.47091427873855 14.304620013209274, 119.08106584353467 15.79128105802228 M119.9834991260912 12.349911834575442 C119.68620726191823 13.483614559776008, 119.38891539774525 14.617317284976574, 119.08106584353467 15.79128105802228 M119.08106584353467 15.79128105802228 C118.85428483143323 16.474309333824465, 118.62750381933178 17.15733760962665, 117.9599974237617 19.16776052038256 M119.08106584353467 15.79128105802228 C118.74834854613003 16.79337254650278, 118.4156312487254 17.795464034983283, 117.9599974237617 19.16776052038256 M117.9599974237617 19.16776052038256 C117.43411723180292 20.466694761722596, 116.90823703984414 21.765629003062635, 116.62490057737759 22.465475543292854 M117.9599974237617 19.16776052038256 C117.53282805745201 20.22287711392538, 117.1056586911423 21.277993707468205, 116.62490057737759 22.465475543292854 M116.62490057737759 22.465475543292854 C116.1898295028039 23.368909938674825, 115.75475842823023 24.2723443340568, 115.08126150370151 25.670875108366346 M116.62490057737759 22.465475543292854 C116.22825579653446 23.289116917552356, 115.83161101569134 24.11275829181186, 115.08126150370151 25.670875108366346 M115.08126150370151 25.670875108366346 C114.62235807523226 26.485704614624577, 114.16345464676299 27.300534120882812, 113.33542334679672 28.770787541234135 M115.08126150370151 25.670875108366346 C114.38328938173741 26.910195288254947, 113.68531725977331 28.149515468143544, 113.33542334679672 28.770787541234135 M113.33542334679672 28.770787541234135 C112.69850151254715 29.749270516101458, 112.06157967829759 30.72775349096878, 111.39456013013105 31.7524746367804 M113.33542334679672 28.770787541234135 C112.80218842930807 29.589979568121027, 112.26895351181943 30.409171595007923, 111.39456013013105 31.7524746367804 M111.39456013013105 31.7524746367804 C110.69011140991937 32.69637174526542, 109.98566268970767 33.64026885375044, 109.26664727697566 34.6036840031597 M111.39456013013105 31.7524746367804 C110.58574036264805 32.83621944021096, 109.77692059516505 33.919964243641516, 109.26664727697566 34.6036840031597 M109.26664727697566 34.6036840031597 C108.61615433063159 35.367790032032666, 107.9656613842875 36.131896060905625, 106.96042883768003 37.31269940950306 M109.26664727697566 34.6036840031597 C108.4847322908849 35.52216583804502, 107.70281730479415 36.44064767293033, 106.96042883768003 37.31269940950306 M106.96042883768003 37.31269940950306 C106.21136877475453 38.08616542344853, 105.46230871182904 38.859631437394, 104.48538155849351 39.86838893042387 M106.96042883768003 37.31269940950306 C105.99390447795098 38.310715164049014, 105.02738011822191 39.308730918594975, 104.48538155849351 39.86838893042387 M104.48538155849351 39.86838893042387 C103.49804684207342 40.76506019643152, 102.51071212565334 41.661731462439164, 101.8516759395823 42.26025068948693 M104.48538155849351 39.86838893042387 C103.51015632034532 40.75406268866422, 102.53493108219713 41.639736446904564, 101.8516759395823 42.26025068948693 M101.8516759395823 42.26025068948693 C100.9142476946228 43.00782476882886, 99.97681944966331 43.75539884817079, 99.0701344422625 44.47845601367158 M101.8516759395823 42.26025068948693 C101.2895726212255 42.70851312767896, 100.72746930286871 43.156775565871, 99.0701344422625 44.47845601367158 M99.0701344422625 44.47845601367158 C98.42829613222165 44.926174634023454, 97.7864578221808 45.37389325437532, 96.15218701718548 46.51388982149714 M99.0701344422625 44.47845601367158 C97.98421977854076 45.235943074595724, 96.89830511481901 45.993430135519866, 96.15218701718548 46.51388982149714 M96.15218701718548 46.51388982149714 C95.45651317541758 46.93561139261012, 94.76083933364967 47.35733296372311, 93.10982413621855 48.358188078848116 M96.15218701718548 46.51388982149714 C95.26965156726168 47.04888799759493, 94.38711611733787 47.583886173692726, 93.10982413621855 48.358188078848116 M93.10982413621855 48.358188078848116 C91.99438205660574 48.940113497307365, 90.87893997699294 49.52203891576661, 89.95554752102449 50.003772168584256 M93.10982413621855 48.358188078848116 C91.91571941721743 48.98115174589042, 90.72161469821631 49.60411541293273, 89.95554752102449 50.003772168584256 M89.95554752102449 50.003772168584256 C89.11679126969244 50.375064680228775, 88.27803501836038 50.746357191873294, 86.70231877080529 51.4438800327042 M89.95554752102449 50.003772168584256 C89.29763002909958 50.29501272583043, 88.63971253717469 50.58625328307661, 86.70231877080529 51.4438800327042 M86.70231877080529 51.4438800327042 C85.89074716885443 51.742545884307766, 85.07917556690356 52.04121173591133, 83.36350610031099 52.6725939590921 M86.70231877080529 51.4438800327042 C85.71179404963127 51.80840228640639, 84.72126932845724 52.17292454010858, 83.36350610031099 52.6725939590921 M83.36350610031099 52.6725939590921 C82.5100726591838 52.9258885246551, 81.65663921805661 53.1791830902181, 79.95282940697771 53.68486489866612 M83.36350610031099 52.6725939590921 C82.40691613455543 52.95650483968515, 81.45032616879989 53.24041572027821, 79.95282940697771 53.68486489866612 M79.95282940697771 53.68486489866612 C78.98543357126644 53.905666685319424, 78.01803773555515 54.12646847197273, 76.48430389292618 54.476533213004124 M79.95282940697771 53.68486489866612 C79.22439233739789 53.8511259063016, 78.49595526781806 54.01738691393708, 76.48430389292618 54.476533213004124 M76.48430389292618 54.476533213004124 C75.10565861589532 54.69942188984067, 73.72701333886447 54.92231056667722, 72.97218247349011 55.04434576719016 M76.48430389292618 54.476533213004124 C75.42700990194018 54.64746830602938, 74.36971591095417 54.81840339905464, 72.97218247349011 55.04434576719016 M72.97218247349011 55.04434576719016 C71.86462081058271 55.15119090877305, 70.7570591476753 55.25803605035595, 69.43089720892957 55.38596929764367 M72.97218247349011 55.04434576719016 C72.25317034642484 55.11370800234955, 71.53415821935957 55.183070237508936, 69.43089720892957 55.38596929764367 M69.43089720892957 55.38596929764367 C68.27667504271074 55.42298295595715, 67.12245287649189 55.45999661427063, 65.87500000000001 55.5 M69.43089720892957 55.38596929764367 C68.68163151272186 55.409996790163845, 67.93236581651416 55.43402428268402, 65.87500000000001 55.5 M65.87500000000001 55.5 C65.87500000000001 55.5, 65.875 55.5, 65.875 55.5 M65.87500000000001 55.5 C65.87500000000001 55.5, 65.875 55.5, 65.875 55.5 M65.875 55.5 C22.849557148631213 55.5, -20.175885702737574 55.5, -65.87499999999999 55.5 M65.875 55.5 C33.4816747894214 55.5, 1.088349578842795 55.5, -65.87499999999999 55.5 M-65.87499999999999 55.5 C-66.7914998605172 55.470609633331975, -67.70799972103444 55.44121926666394, -69.43089720892954 55.38596929764367 M-65.87499999999999 55.5 C-67.24443607541265 55.45608485050713, -68.61387215082532 55.41216970101427, -69.43089720892954 55.38596929764367 M-69.43089720892954 55.38596929764367 C-70.2793549452385 55.30411960024166, -71.12781268154744 55.22226990283966, -72.9721824734901 55.04434576719016 M-69.43089720892954 55.38596929764367 C-70.44810779386181 55.287840215889965, -71.46531837879408 55.18971113413627, -72.9721824734901 55.04434576719016 M-72.9721824734901 55.04434576719016 C-74.25863289647839 54.83636243937344, -75.5450833194667 54.62837911155672, -76.48430389292616 54.476533213004124 M-72.9721824734901 55.04434576719016 C-74.01885181422753 54.87512838522169, -75.06552115496497 54.70591100325323, -76.48430389292616 54.476533213004124 M-76.48430389292616 54.476533213004124 C-77.72513615259346 54.193321346922275, -78.96596841226078 53.91010948084043, -79.95282940697764 53.684864898666135 M-76.48430389292616 54.476533213004124 C-77.46428223185873 54.25285955209907, -78.44426057079131 54.029185891194004, -79.95282940697764 53.684864898666135 M-79.95282940697764 53.684864898666135 C-81.1395364559538 53.33265647568243, -82.32624350492996 52.98044805269871, -83.36350610031091 52.67259395909212 M-79.95282940697764 53.684864898666135 C-81.08214753940128 53.34968920487464, -82.2114656718249 53.01451351108316, -83.36350610031091 52.67259395909212 M-83.36350610031091 52.67259395909212 C-84.61293936381894 52.212790968486686, -85.86237262732696 51.75298797788126, -86.70231877080526 51.44388003270421 M-83.36350610031091 52.67259395909212 C-84.41651960834942 52.28507525418379, -85.46953311638791 51.89755654927546, -86.70231877080526 51.44388003270421 M-86.70231877080526 51.44388003270421 C-87.71829593597664 50.99413707957465, -88.73427310114802 50.544394126445084, -89.95554752102447 50.00377216858427 M-86.70231877080526 51.44388003270421 C-87.52933857155557 51.07778289958279, -88.35635837230588 50.71168576646137, -89.95554752102447 50.00377216858427 M-89.95554752102447 50.00377216858427 C-90.70807053894762 49.611181392147756, -91.46059355687078 49.21859061571124, -93.10982413621852 48.35818807884812 M-89.95554752102447 50.00377216858427 C-90.70051747279471 49.615121821921754, -91.44548742456496 49.226471475259245, -93.10982413621852 48.35818807884812 M-93.10982413621852 48.35818807884812 C-94.1279641208072 47.74098563693578, -95.14610410539589 47.12378319502344, -96.15218701718541 46.51388982149718 M-93.10982413621852 48.35818807884812 C-94.07333505085062 47.77410210017952, -95.0368459654827 47.190016121510915, -96.15218701718541 46.51388982149718 M-96.15218701718541 46.51388982149718 C-96.9061604649411 45.987950583327326, -97.66013391269678 45.46201134515747, -99.07013444226249 44.4784560136716 M-96.15218701718541 46.51388982149718 C-96.77494092573595 46.079483653474526, -97.3976948342865 45.64507748545188, -99.07013444226249 44.4784560136716 M-99.07013444226249 44.4784560136716 C-99.93638115866577 43.78764730913321, -100.80262787506906 43.09683860459483, -101.85167593958224 42.26025068948697 M-99.07013444226249 44.4784560136716 C-99.93931027268195 43.785311418652306, -100.80848610310142 43.09216682363302, -101.85167593958224 42.26025068948697 M-101.85167593958224 42.26025068948697 C-102.58827520066411 41.591290729920885, -103.32487446174598 40.92233077035479, -104.48538155849347 39.868388930423905 M-101.85167593958224 42.26025068948697 C-102.39974789874175 41.7625062373677, -102.94781985790127 41.26476178524844, -104.48538155849347 39.868388930423905 M-104.48538155849347 39.868388930423905 C-105.01937456170597 39.31699731296609, -105.55336756491847 38.76560569550827, -106.96042883768001 37.31269940950308 M-104.48538155849347 39.868388930423905 C-105.29970778743059 39.02753024161955, -106.11403401636773 38.1866715528152, -106.96042883768001 37.31269940950308 M-106.96042883768001 37.31269940950308 C-107.86030194363883 36.25565725501357, -108.76017504959766 35.19861510052405, -109.26664727697565 34.60368400315972 M-106.96042883768001 37.31269940950308 C-107.6717738917322 36.47711303233316, -108.38311894578437 35.64152665516323, -109.26664727697565 34.60368400315972 M-109.26664727697565 34.60368400315972 C-109.72677835479051 33.987150277691335, -110.18690943260539 33.37061655222295, -111.39456013013104 31.752474636780434 M-109.26664727697565 34.60368400315972 C-110.01543194552504 33.60038076299016, -110.76421661407444 32.59707752282061, -111.39456013013104 31.752474636780434 M-111.39456013013104 31.752474636780434 C-111.85466383134931 31.04563179656603, -112.3147675325676 30.338788956351625, -113.33542334679669 28.77078754123417 M-111.39456013013104 31.752474636780434 C-111.96624835778151 30.87420799932538, -112.53793658543199 29.99594136187033, -113.33542334679669 28.77078754123417 M-113.33542334679669 28.77078754123417 C-113.74436818467575 28.044664571424704, -114.15331302255481 27.318541601615237, -115.0812615037015 25.670875108366364 M-113.33542334679669 28.77078754123417 C-113.7509743475081 28.032934660369335, -114.16652534821951 27.2950817795045, -115.0812615037015 25.670875108366364 M-115.0812615037015 25.670875108366364 C-115.60384177592472 24.585725991668255, -116.12642204814793 23.50057687497015, -116.62490057737759 22.465475543292875 M-115.0812615037015 25.670875108366364 C-115.63228036801425 24.526672646705947, -116.183299232327 23.38247018504553, -116.62490057737759 22.465475543292875 M-116.62490057737759 22.465475543292875 C-116.91677726992985 21.744534469636815, -117.20865396248213 21.023593395980754, -117.95999742376169 19.167760520382608 M-116.62490057737759 22.465475543292875 C-117.08036717950299 21.340464230195433, -117.5358337816284 20.215452917097988, -117.95999742376169 19.167760520382608 M-117.95999742376169 19.167760520382608 C-118.39466318266938 17.858616509136386, -118.82932894157706 16.549472497890164, -119.08106584353466 15.791281058022301 M-117.95999742376169 19.167760520382608 C-118.19036297516922 18.473936183309252, -118.42072852657677 17.780111846235894, -119.08106584353466 15.791281058022301 M-119.08106584353466 15.791281058022301 C-119.27278913136783 15.060157068115851, -119.464512419201 14.3290330782094, -119.9834991260912 12.349911834575463 M-119.08106584353466 15.791281058022301 C-119.42426752167803 14.482504314713404, -119.7674691998214 13.173727571404505, -119.9834991260912 12.349911834575463 M-119.9834991260912 12.349911834575463 C-120.17888396223323 11.346651995585887, -120.37426879837527 10.343392156596313, -120.66358897950198 8.857794174352573 M-119.9834991260912 12.349911834575463 C-120.22398939149286 11.115045149373557, -120.46447965689451 9.88017846417165, -120.66358897950198 8.857794174352573 M-120.66358897950198 8.857794174352573 C-120.78077964064349 7.9488865484525775, -120.89797030178501 7.0399789225525815, -121.1185407686805 5.3292779378763795 M-120.66358897950198 8.857794174352573 C-120.78130369218565 7.944822108177352, -120.89901840486931 7.03185004200213, -121.1185407686805 5.3292779378763795 M-121.1185407686805 5.3292779378763795 C-121.16943463923928 4.536564823130494, -121.22032850979805 3.743851708384609, -121.34648499913817 1.7788625552268686 M-121.1185407686805 5.3292779378763795 C-121.19839064544142 4.0855516536645435, -121.27824052220234 2.841825369452708, -121.34648499913817 1.7788625552268686 M-121.34648499913817 1.7788625552268686 C-121.34648499913817 0.7001618457760623, -121.34648499913817 -0.378538863674744, -121.34648499913817 -1.7788625552268416 M-121.34648499913817 1.7788625552268686 C-121.34648499913817 1.017462043709567, -121.34648499913817 0.25606153219226524, -121.34648499913817 -1.7788625552268416 M-121.34648499913817 -1.7788625552268416 C-121.28824290016085 -2.686030258974667, -121.23000080118354 -3.5931979627224933, -121.1185407686805 -5.329277937876303 M-121.34648499913817 -1.7788625552268416 C-121.28337557739785 -2.7618427398408345, -121.22026615565751 -3.744822924454827, -121.1185407686805 -5.329277937876303 M-121.1185407686805 -5.329277937876303 C-120.94893404020453 -6.6447142312991, -120.77932731172857 -7.9601505247218975, -120.66358897950198 -8.857794174352547 M-121.1185407686805 -5.329277937876303 C-120.98010807048027 -6.4029346084890335, -120.84167537228005 -7.476591279101763, -120.66358897950198 -8.857794174352547 M-120.66358897950198 -8.857794174352547 C-120.51753275126708 -9.607762037343962, -120.37147652303219 -10.357729900335379, -119.9834991260912 -12.349911834575437 M-120.66358897950198 -8.857794174352547 C-120.50775977734469 -9.657944192916702, -120.3519305751874 -10.458094211480859, -119.9834991260912 -12.349911834575437 M-119.9834991260912 -12.349911834575437 C-119.74163924102493 -13.27222839907042, -119.49977935595865 -14.194544963565402, -119.08106584353467 -15.791281058022273 M-119.9834991260912 -12.349911834575437 C-119.7815931846257 -13.119866695971961, -119.57968724316021 -13.889821557368485, -119.08106584353467 -15.791281058022273 M-119.08106584353467 -15.791281058022273 C-118.83392950915604 -16.535616321343184, -118.5867931747774 -17.279951584664097, -117.95999742376172 -19.167760520382537 M-119.08106584353467 -15.791281058022273 C-118.83244267172743 -16.540094438782756, -118.58381949992021 -17.288907819543237, -117.95999742376172 -19.167760520382537 M-117.95999742376172 -19.167760520382537 C-117.58152543147109 -20.102593658598554, -117.20305343918047 -21.037426796814575, -116.62490057737759 -22.46547554329285 M-117.95999742376172 -19.167760520382537 C-117.58023203346976 -20.10578837666801, -117.20046664317779 -21.043816232953485, -116.62490057737759 -22.46547554329285 M-116.62490057737759 -22.46547554329285 C-116.08233609763651 -23.592122294495326, -115.53977161789544 -24.718769045697805, -115.08126150370151 -25.67087510836634 M-116.62490057737759 -22.46547554329285 C-116.28227602450822 -23.17694275831711, -115.93965147163887 -23.888409973341368, -115.08126150370151 -25.67087510836634 M-115.08126150370151 -25.67087510836634 C-114.57981035743265 -26.56125239600138, -114.0783592111638 -27.451629683636416, -113.33542334679672 -28.770787541234153 M-115.08126150370151 -25.67087510836634 C-114.4496508534483 -26.792363775404567, -113.8180402031951 -27.913852442442792, -113.33542334679672 -28.770787541234153 M-113.33542334679672 -28.770787541234153 C-112.6404494456163 -29.83845408006993, -111.94547554443588 -30.906120618905707, -111.39456013013105 -31.752474636780416 M-113.33542334679672 -28.770787541234153 C-112.7194508584216 -29.717086695151288, -112.10347837004649 -30.66338584906842, -111.39456013013105 -31.752474636780416 M-111.39456013013105 -31.752474636780416 C-110.9286989270999 -32.37668620801348, -110.46283772406875 -33.00089777924654, -109.26664727697568 -34.6036840031597 M-111.39456013013105 -31.752474636780416 C-110.65858928029989 -32.73860852723045, -109.92261843046873 -33.724742417680474, -109.26664727697568 -34.6036840031597 M-109.26664727697568 -34.6036840031597 C-108.51641898889449 -35.48494483953879, -107.76619070081328 -36.36620567591788, -106.96042883768004 -37.31269940950306 M-109.26664727697568 -34.6036840031597 C-108.36802437532187 -35.6592575965339, -107.46940147366807 -36.7148311899081, -106.96042883768004 -37.31269940950306 M-106.96042883768004 -37.31269940950306 C-105.99585090548715 -38.30870531781325, -105.03127297329424 -39.30471122612344, -104.48538155849351 -39.86838893042385 M-106.96042883768004 -37.31269940950306 C-106.15026687919043 -38.14925814717739, -105.34010492070081 -38.98581688485172, -104.48538155849351 -39.86838893042385 M-104.48538155849351 -39.86838893042385 C-103.52969600900019 -40.73631726041968, -102.57401045950687 -41.604245590415516, -101.8516759395823 -42.260250689486924 M-104.48538155849351 -39.86838893042385 C-103.64640568403932 -40.630324621517936, -102.80742980958512 -41.39226031261202, -101.8516759395823 -42.260250689486924 M-101.8516759395823 -42.260250689486924 C-101.00100433588888 -42.93863865611034, -100.15033273219548 -43.61702662273376, -99.07013444226251 -44.47845601367158 M-101.8516759395823 -42.260250689486924 C-100.80203519256918 -43.097311253116544, -99.75239444555605 -43.93437181674616, -99.07013444226251 -44.47845601367158 M-99.07013444226251 -44.47845601367158 C-98.14476471540819 -45.123953876515316, -97.21939498855386 -45.76945173935905, -96.15218701718548 -46.51388982149714 M-99.07013444226251 -44.47845601367158 C-97.94636079935921 -45.26235185958398, -96.82258715645592 -46.04624770549637, -96.15218701718548 -46.51388982149714 M-96.15218701718548 -46.51388982149714 C-95.0322101947515 -47.19282635297099, -93.91223337231752 -47.871762884444834, -93.10982413621855 -48.35818807884811 M-96.15218701718548 -46.51388982149714 C-95.16047105763238 -47.11507386414811, -94.16875509807926 -47.71625790679907, -93.10982413621855 -48.35818807884811 M-93.10982413621855 -48.35818807884811 C-92.21067718071454 -48.827272469603436, -91.31153022521055 -49.29635686035876, -89.9555475210245 -50.003772168584256 M-93.10982413621855 -48.35818807884811 C-91.91887164181972 -48.9795072323345, -90.72791914742089 -49.600826385820895, -89.9555475210245 -50.003772168584256 M-89.9555475210245 -50.003772168584256 C-89.28758464414351 -50.29945951976473, -88.61962176726252 -50.595146870945214, -86.70231877080529 -51.44388003270419 M-89.9555475210245 -50.003772168584256 C-89.06063844254318 -50.39992187109332, -88.16572936406186 -50.79607157360238, -86.70231877080529 -51.44388003270419 M-86.70231877080529 -51.44388003270419 C-85.7278386512312 -51.80249772470294, -84.75335853165711 -52.16111541670168, -83.36350610031099 -52.6725939590921 M-86.70231877080529 -51.44388003270419 C-85.71174953215136 -51.80841866925051, -84.72118029349744 -52.172957305796814, -83.36350610031099 -52.6725939590921 M-83.36350610031099 -52.6725939590921 C-82.65561078141349 -52.88269357392252, -81.94771546251597 -53.09279318875295, -79.95282940697771 -53.68486489866611 M-83.36350610031099 -52.6725939590921 C-82.44885102330632 -52.94405878482461, -81.53419594630164 -53.21552361055713, -79.95282940697771 -53.68486489866611 M-79.95282940697771 -53.68486489866611 C-78.91982422073134 -53.92064159143803, -77.88681903448497 -54.15641828420995, -76.48430389292619 -54.47653321300412 M-79.95282940697771 -53.68486489866611 C-79.07997374728234 -53.88408850707609, -78.20711808758695 -54.08331211548607, -76.48430389292619 -54.47653321300412 M-76.48430389292619 -54.47653321300412 C-75.21943392774257 -54.68102757976193, -73.95456396255894 -54.88552194651974, -72.97218247349012 -55.04434576719016 M-76.48430389292619 -54.47653321300412 C-75.53370920421189 -54.630217990303535, -74.58311451549757 -54.78390276760296, -72.97218247349012 -55.04434576719016 M-72.97218247349012 -55.04434576719016 C-71.97641621259798 -55.14040614079428, -70.98064995170586 -55.2364665143984, -69.43089720892957 -55.38596929764367 M-72.97218247349012 -55.04434576719016 C-72.0074921108487 -55.13740828626427, -71.0428017482073 -55.230470805338385, -69.43089720892957 -55.38596929764367 M-69.43089720892957 -55.38596929764367 C-68.35957575144958 -55.42032449158434, -67.28825429396959 -55.454679685525, -65.87500000000001 -55.5 M-69.43089720892957 -55.38596929764367 C-68.10909779861778 -55.428356832005896, -66.787298388306 -55.470744366368116, -65.87500000000001 -55.5 M-65.87500000000001 -55.5 C-65.87500000000001 -55.5, -65.875 -55.5, -65.875 -55.5 M-65.87500000000001 -55.5 C-65.87500000000001 -55.5, -65.875 -55.5, -65.875 -55.5" stroke="#9370DB" stroke-width="1.3" fill="none" stroke-dasharray="0 0" style=""/></g><g class="label" style="" transform="translate(-100, -48)"><rect/><foreignObject width="200" height="96"><div xmlns="http://www.w3.org/1999/xhtml" style="display: table; white-space: break-spaces; line-height: 1.5; max-width: 200px; text-align: center; width: 200px;"><span class="nodeLabel"><p>Section 348: Wrongful confinement for the purpose of extorting confession or ...</p></span></div></foreignObject></g></g><g class="node default" id="my-svg-flowchart-GRP2-1" data-look="classic" transform="translate(138, 188.5)"><polygon points="9.75,0 174.359375,0 184.109375,-19.5 174.359375,-39 9.75,-39 0,-19.5" class="label-container" transform="translate(-92.0546875,19.5)"/><g class="label" style="" transform="translate(-74.8046875, -12)"><rect/><foreignObject width="149.609375" height="24"><div xmlns="http://www.w3.org/1999/xhtml" style="display: table-cell; white-space: nowrap; line-height: 1.5; max-width: 200px; text-align: center;"><span class="nodeLabel"><p>ALL OF (conjunctive)</p></span></div></foreignObject></g></g><g class="node default" id="my-svg-flowchart-ELEM3-4" data-look="classic" transform="translate(138, 297)"><rect class="basic label-container" style="" x="-130" y="-39" width="260" height="78"/><g class="label" style="" transform="translate(-100, -24)"><rect/><foreignObject width="200" height="48"><div xmlns="http://www.w3.org/1999/xhtml" style="display: table; white-space: break-spaces; line-height: 1.5; max-width: 200px; text-align: center; width: 200px;"><span class="nodeLabel"><p>Whoever wrongfully confines any person</p></span></div></foreignObject></g></g><g class="node default" id="my-svg-flowchart-GRP4-7" data-look="classic" transform="translate(138, 405.5)"><polygon points="9.75,0 209.140625,0 218.890625,-19.5 209.140625,-39 9.75,-39 0,-19.5" class="label-container" transform="translate(-109.4453125,19.5)"/><g class="label" style="" transform="translate(-92.1953125, -12)"><rect/><foreignObject width="184.390625" height="24"><div xmlns="http://www.w3.org/1999/xhtml" style="display: table-cell; white-space: nowrap; line-height: 1.5; max-width: 200px; text-align: center;"><span class="nodeLabel"><p>ANY OF (alternative limb)</p></span></div></foreignObject></g></g><g class="node default" id="my-svg-flowchart-ELEM5-10" data-look="classic" transform="translate(138, 538)"><rect class="basic label-container" style="" x="-130" y="-63" width="260" height="126"/><g class="label" style="" transform="translate(-100, -48)"><rect/><foreignObject width="200" height="96"><div xmlns="http://www.w3.org/1999/xhtml" style="display: table; white-space: break-spaces; line-height: 1.5; max-width: 200px; text-align: center; width: 200px;"><span class="nodeLabel"><p>For the purpose of extorting from the person confined, or from any person int...</p></span></div></foreignObject></g></g><g class="node default" id="my-svg-flowchart-ELEM6-13" data-look="classic" transform="translate(138, 714)"><rect class="basic label-container" style="" x="-130" y="-63" width="260" height="126"/><g class="label" style="" transform="translate(-100, -48)"><rect/><foreignObject width="200" height="96"><div xmlns="http://www.w3.org/1999/xhtml" style="display: table; white-space: break-spaces; line-height: 1.5; max-width: 200px; text-align: center; width: 200px;"><span class="nodeLabel"><p>For the purpose of constraining the person confined, or any person interested...</p></span></div></foreignObject></g></g><g class="node default" id="my-svg-flowchart-PENALTY7-16" data-look="classic" transform="translate(138, 846.5)"><polygon points="0,0 211.3125,0 211.3125,-39 0,-39 0,0 -8,0 219.3125,0 219.3125,-39 -8,-39 -8,0" class="label-container" transform="translate(-105.65625,19.5)"/><g class="label" style="" transform="translate(-98.15625, -12)"><rect/><foreignObject width="196.3125" height="24"><div xmlns="http://www.w3.org/1999/xhtml" style="display: table-cell; white-space: nowrap; line-height: 1.5; max-width: 200px; text-align: center;"><span class="nodeLabel"><p>Imprisonment up to 3 years</p></span></div></foreignObject></g></g></g></g></g><defs><filter id="my-svg-drop-shadow" height="130%" width="130%"><feDropShadow dx="4" dy="4" stdDeviation="0" flood-opacity="0.06" flood-color="#000000"/></filter></defs><defs><filter id="my-svg-drop-shadow-small" height="150%" width="150%"><feDropShadow dx="2" dy="2" stdDeviation="0" flood-opacity="0.06" flood-color="#000000"/></filter></defs></svg>