<svg class="yuho-mermaid-svg" id="my-svg" width="100%" xmlns="http://www.w3.org/2000/svg" xmlns:xlink="http://www.w3.org/1999/xlink" class="flowchart" style="max-width: 276px; background-color: transparent;" viewBox="0 0 276 1726" role="graphics-document document" aria-roledescription="flowchart-v2"><style>#my-svg{font-family:"trebuchet ms",verdana,arial,sans-serif;font-size:16px;fill:#333;}@keyframes edge-animation-frame{from{stroke-dashoffset:0;}}@keyframes dash{to{stroke-dashoffset:0;}}#my-svg .edge-animation-slow{stroke-dasharray:9,5!important;stroke-dashoffset:900;animation:dash 50s linear infinite;stroke-linecap:round;}#my-svg .edge-animation-fast{stroke-dasharray:9,5!important;stroke-dashoffset:900;animation:dash 20s linear infinite;stroke-linecap:round;}#my-svg .error-icon{fill:#552222;}#my-svg .error-text{fill:#552222;stroke:#552222;}#my-svg .edge-thickness-normal{stroke-width:1px;}#my-svg .edge-thickness-thick{stroke-width:3.5px;}#my-svg .edge-pattern-solid{stroke-dasharray:0;}#my-svg .edge-thickness-invisible{stroke-width:0;fill:none;}#my-svg .edge-pattern-dashed{stroke-dasharray:3;}#my-svg .edge-pattern-dotted{stroke-dasharray:2;}#my-svg .marker{fill:#333333;stroke:#333333;}#my-svg .marker.cross{stroke:#333333;}#my-svg svg{font-family:"trebuchet ms",verdana,arial,sans-serif;font-size:16px;}#my-svg p{margin:0;}#my-svg .label{font-family:"trebuchet ms",verdana,arial,sans-serif;color:#333;}#my-svg .cluster-label text{fill:#333;}#my-svg .cluster-label span{color:#333;}#my-svg .cluster-label span p{background-color:transparent;}#my-svg .label text,#my-svg span{fill:#333;color:#333;}#my-svg .node rect,#my-svg .node circle,#my-svg .node ellipse,#my-svg .node polygon,#my-svg .node path{fill:#ECECFF;stroke:#9370DB;stroke-width:1px;}#my-svg .rough-node .label text,#my-svg .node .label text,#my-svg .image-shape .label,#my-svg .icon-shape .label{text-anchor:middle;}#my-svg .node .katex path{fill:#000;stroke:#000;stroke-width:1px;}#my-svg .rough-node .label,#my-svg .node .label,#my-svg .image-shape .label,#my-svg .icon-shape .label{text-align:center;}#my-svg .node.clickable{cursor:pointer;}#my-svg .root .anchor path{fill:#333333!important;stroke-width:0;stroke:#333333;}#my-svg .arrowheadPath{fill:#333333;}#my-svg .edgePath .path{stroke:#333333;stroke-width:1px;}#my-svg .flowchart-link{stroke:#333333;fill:none;}#my-svg .edgeLabel{background-color:rgba(232,232,232, 0.8);text-align:center;}#my-svg .edgeLabel p{background-color:rgba(232,232,232, 0.8);}#my-svg .edgeLabel rect{opacity:0.5;background-color:rgba(232,232,232, 0.8);fill:rgba(232,232,232, 0.8);}#my-svg .labelBkg{background-color:rgba(232, 232, 232, 0.5);}#my-svg .cluster rect{fill:#ffffde;stroke:#aaaa33;stroke-width:1px;}#my-svg .cluster text{fill:#333;}#my-svg .cluster span{color:#333;}#my-svg div.mermaidTooltip{position:absolute;text-align:center;max-width:200px;padding:2px;font-family:"trebuchet ms",verdana,arial,sans-serif;font-size:12px;background:hsl(80, 100%, 96.2745098039%);border:1px solid #aaaa33;border-radius:2px;pointer-events:none;z-index:100;}#my-svg .flowchartTitleText{text-anchor:middle;font-size:18px;fill:#333;}#my-svg rect.text{fill:none;stroke-width:0;}#my-svg .icon-shape,#my-svg .image-shape{background-color:rgba(232,232,232, 0.8);text-align:center;}#my-svg .icon-shape p,#my-svg .image-shape p{background-color:rgba(232,232,232, 0.8);padding:2px;}#my-svg .icon-shape .label rect,#my-svg .image-shape .label rect{opacity:0.5;background-color:rgba(232,232,232, 0.8);fill:rgba(232,232,232, 0.8);}#my-svg .label-icon{display:inline-block;height:1em;overflow:visible;vertical-align:-0.125em;}#my-svg .node .label-icon path{fill:currentColor;stroke:revert;stroke-width:revert;}#my-svg .node .neo-node{stroke:#9370DB;}#my-svg [data-look="neo"].node rect,#my-svg [data-look="neo"].cluster rect,#my-svg [data-look="neo"].node polygon{stroke:#9370DB;filter:drop-shadow(1px 2px 2px rgba(185, 185, 185, 1));}#my-svg [data-look="neo"].node path{stroke:#9370DB;stroke-width:1px;}#my-svg [data-look="neo"].node .outer-path{filter:drop-shadow(1px 2px 2px rgba(185, 185, 185, 1));}#my-svg [data-look="neo"].node .neo-line path{stroke:#9370DB;filter:none;}#my-svg [data-look="neo"].node circle{stroke:#9370DB;filter:drop-shadow(1px 2px 2px rgba(185, 185, 185, 1));}#my-svg [data-look="neo"].node circle .state-start{fill:#000000;}#my-svg [data-look="neo"].icon-shape .icon{fill:#9370DB;filter:drop-shadow(1px 2px 2px rgba(185, 185, 185, 1));}#my-svg [data-look="neo"].icon-shape .icon-neo path{stroke:#9370DB;filter:drop-shadow(1px 2px 2px rgba(185, 185, 185, 1));}#my-svg :root{--mermaid-font-family:"trebuchet ms",verdana,arial,sans-serif;}</style><g><marker id="my-svg_flowchart-v2-pointEnd" class="marker flowchart-v2" viewBox="0 0 10 10" refX="5" refY="5" markerUnits="userSpaceOnUse" markerWidth="8" markerHeight="8" orient="auto"><path d="M 0 0 L 10 5 L 0 10 z" class="arrowMarkerPath" style="stroke-width: 1; stroke-dasharray: 1, 0;"/></marker><marker id="my-svg_flowchart-v2-pointStart" class="marker flowchart-v2" viewBox="0 0 10 10" refX="4.5" refY="5" markerUnits="userSpaceOnUse" markerWidth="8" markerHeight="8" orient="auto"><path d="M 0 5 L 10 10 L 10 0 z" class="arrowMarkerPath" style="stroke-width: 1; stroke-dasharray: 1, 0;"/></marker><marker id="my-svg_flowchart-v2-pointEnd-margin" class="marker flowchart-v2" viewBox="0 0 11.5 14" refX="11.5" refY="7" markerUnits="userSpaceOnUse" markerWidth="10.5" markerHeight="14" orient="auto"><path d="M 0 0 L 11.5 7 L 0 14 z" class="arrowMarkerPath" style="stroke-width: 0; stroke-dasharray: 1, 0;"/></marker><marker id="my-svg_flowchart-v2-pointStart-margin" class="marker flowchart-v2" viewBox="0 0 11.5 14" refX="1" refY="7" markerUnits="userSpaceOnUse" markerWidth="11.5" markerHeight="14" orient="auto"><polygon points="0,7 11.5,14 11.5,0" class="arrowMarkerPath" style="stroke-width: 0; stroke-dasharray: 1, 0;"/></marker><marker id="my-svg_flowchart-v2-circleEnd" class="marker flowchart-v2" viewBox="0 0 10 10" refX="11" refY="5" markerUnits="userSpaceOnUse" markerWidth="11" markerHeight="11" orient="auto"><circle cx="5" cy="5" r="5" class="arrowMarkerPath" style="stroke-width: 1; stroke-dasharray: 1, 0;"/></marker><marker id="my-svg_flowchart-v2-circleStart" class="marker flowchart-v2" viewBox="0 0 10 10" refX="-1" refY="5" markerUnits="userSpaceOnUse" markerWidth="11" markerHeight="11" orient="auto"><circle cx="5" cy="5" r="5" class="arrowMarkerPath" style="stroke-width: 1; stroke-dasharray: 1, 0;"/></marker><marker id="my-svg_flowchart-v2-circleEnd-margin" class="marker flowchart-v2" viewBox="0 0 10 10" refY="5" refX="12.25" markerUnits="userSpaceOnUse" markerWidth="14" markerHeight="14" orient="auto"><circle cx="5" cy="5" r="5" class="arrowMarkerPath" style="stroke-width: 0; stroke-dasharray: 1, 0;"/></marker><marker id="my-svg_flowchart-v2-circleStart-margin" class="marker flowchart-v2" viewBox="0 0 10 10" refX="-2" refY="5" markerUnits="userSpaceOnUse" markerWidth="14" markerHeight="14" orient="auto"><circle cx="5" cy="5" r="5" class="arrowMarkerPath" style="stroke-width: 0; stroke-dasharray: 1, 0;"/></marker><marker id="my-svg_flowchart-v2-crossEnd" class="marker cross flowchart-v2" viewBox="0 0 11 11" refX="12" refY="5.2" markerUnits="userSpaceOnUse" markerWidth="11" markerHeight="11" orient="auto"><path d="M 1,1 l 9,9 M 10,1 l -9,9" class="arrowMarkerPath" style="stroke-width: 2; stroke-dasharray: 1, 0;"/></marker><marker id="my-svg_flowchart-v2-crossStart" class="marker cross flowchart-v2" viewBox="0 0 11 11" refX="-1" refY="5.2" markerUnits="userSpaceOnUse" markerWidth="11" markerHeight="11" orient="auto"><path d="M 1,1 l 9,9 M 10,1 l -9,9" class="arrowMarkerPath" style="stroke-width: 2; stroke-dasharray: 1, 0;"/></marker><marker id="my-svg_flowchart-v2-crossEnd-margin" class="marker cross flowchart-v2" viewBox="0 0 15 15" refX="17.7" refY="7.5" markerUnits="userSpaceOnUse" markerWidth="12" markerHeight="12" orient="auto"><path d="M 1,1 L 14,14 M 1,14 L 14,1" class="arrowMarkerPath" style="stroke-width: 2.5;"/></marker><marker id="my-svg_flowchart-v2-crossStart-margin" class="marker cross flowchart-v2" viewBox="0 0 15 15" refX="-3.5" refY="7.5" markerUnits="userSpaceOnUse" markerWidth="12" markerHeight="12" orient="auto"><path d="M 1,1 L 14,14 M 1,14 L 14,1" class="arrowMarkerPath" style="stroke-width: 2.5; stroke-dasharray: 1, 0;"/></marker><g class="root"><g class="clusters"/><g class="edgePaths"><path d="M138.5,119.5L138.417,123.583C138.333,127.667,138.167,135.833,138.154,143.5C138.141,151.167,138.281,158.334,138.351,161.917L138.422,165.501" id="my-svg-L_START1_GRP2_0" class="edge-thickness-normal edge-pattern-solid edge-thickness-normal edge-pattern-solid flowchart-link" style=";" data-edge="true" data-et="edge" data-id="L_START1_GRP2_0" data-points="W3sieCI6MTM4LjUsInkiOjExOS41fSx7IngiOjEzOCwieSI6MTQ0fSx7IngiOjEzOC41LCJ5IjoxNjkuNX1d" data-look="classic" marker-end="url(#my-svg_flowchart-v2-pointEnd)"/><path d="M138.5,208.5L138.417,212.583C138.333,216.667,138.167,224.833,138.083,232.417C138,240,138,247,138,250.5L138,254" id="my-svg-L_GRP2_ELEM3_0" class="edge-thickness-normal edge-pattern-solid edge-thickness-normal edge-pattern-solid flowchart-link" style=";" data-edge="true" data-et="edge" data-id="L_GRP2_ELEM3_0" data-points="W3sieCI6MTM4LjUsInkiOjIwOC41fSx7IngiOjEzOCwieSI6MjMzfSx7IngiOjEzOCwieSI6MjU4fV0=" data-look="classic" marker-end="url(#my-svg_flowchart-v2-pointEnd)"/><path d="M138,336L138,340.167C138,344.333,138,352.667,138.07,360.417C138.141,368.167,138.281,375.334,138.351,378.917L138.422,382.501" id="my-svg-L_ELEM3_GRP4_0" class="edge-thickness-normal edge-pattern-solid edge-thickness-normal edge-pattern-solid flowchart-link" style=";" data-edge="true" data-et="edge" data-id="L_ELEM3_GRP4_0" data-points="W3sieCI6MTM4LCJ5IjozMzZ9LHsieCI6MTM4LCJ5IjozNjF9LHsieCI6MTM4LjUsInkiOjM4Ni41fV0=" data-look="classic" marker-end="url(#my-svg_flowchart-v2-pointEnd)"/><path d="M138.5,425.5L138.417,429.583C138.333,433.667,138.167,441.833,138.154,449.5C138.141,457.167,138.281,464.334,138.351,467.917L138.422,471.501" id="my-svg-L_GRP4_GRP5_0" class="edge-thickness-normal edge-pattern-solid edge-thickness-normal edge-pattern-solid flowchart-link" style=";" data-edge="true" data-et="edge" data-id="L_GRP4_GRP5_0" data-points="W3sieCI6MTM4LjUsInkiOjQyNS41fSx7IngiOjEzOCwieSI6NDUwfSx7IngiOjEzOC41LCJ5Ijo0NzUuNX1d" data-look="classic" marker-end="url(#my-svg_flowchart-v2-pointEnd)"/><path d="M138.5,514.5L138.417,518.583C138.333,522.667,138.167,530.833,138.154,538.5C138.141,546.167,138.281,553.334,138.351,556.917L138.422,560.501" id="my-svg-L_GRP5_GRP6_0" class="edge-thickness-normal edge-pattern-solid edge-thickness-normal edge-pattern-solid flowchart-link" style=";" data-edge="true" data-et="edge" data-id="L_GRP5_GRP6_0" data-points="W3sieCI6MTM4LjUsInkiOjUxNC41fSx7IngiOjEzOCwieSI6NTM5fSx7IngiOjEzOC41LCJ5Ijo1NjQuNX1d" data-look="classic" marker-end="url(#my-svg_flowchart-v2-pointEnd)"/><path d="M138.5,603.5L138.417,607.583C138.333,611.667,138.167,619.833,138.083,627.417C138,635,138,642,138,645.5L138,649" id="my-svg-L_GRP6_ELEM7_0" class="edge-thickness-normal edge-pattern-solid edge-thickness-normal edge-pattern-solid flowchart-link" style=";" data-edge="true" data-et="edge" data-id="L_GRP6_ELEM7_0" data-points="W3sieCI6MTM4LjUsInkiOjYwMy41fSx7IngiOjEzOCwieSI6NjI4fSx7IngiOjEzOCwieSI6NjUzfV0=" data-look="classic" marker-end="url(#my-svg_flowchart-v2-pointEnd)"/><path d="M138,707L138,711.167C138,715.333,138,723.667,138,731.333C138,739,138,746,138,749.5L138,753" id="my-svg-L_ELEM7_ELEM8_0" class="edge-thickness-normal edge-pattern-solid edge-thickness-normal edge-pattern-solid flowchart-link" style=";" data-edge="true" data-et="edge" data-id="L_ELEM7_ELEM8_0" data-points="W3sieCI6MTM4LCJ5Ijo3MDd9LHsieCI6MTM4LCJ5Ijo3MzJ9LHsieCI6MTM4LCJ5Ijo3NTd9XQ==" data-look="classic" marker-end="url(#my-svg_flowchart-v2-pointEnd)"/><path d="M138,811L138,815.167C138,819.333,138,827.667,138,835.333C138,843,138,850,138,853.5L138,857" id="my-svg-L_ELEM8_ELEM9_0" class="edge-thickness-normal edge-pattern-solid edge-thickness-normal edge-pattern-solid flowchart-link" style=";" data-edge="true" data-et="edge" data-id="L_ELEM8_ELEM9_0" data-points="W3sieCI6MTM4LCJ5Ijo4MTF9LHsieCI6MTM4LCJ5Ijo4MzZ9LHsieCI6MTM4LCJ5Ijo4NjF9XQ==" data-look="classic" marker-end="url(#my-svg_flowchart-v2-pointEnd)"/><path d="M138,963L138,967.167C138,971.333,138,979.667,138.07,987.417C138.141,995.167,138.281,1002.334,138.351,1005.917L138.422,1009.501" id="my-svg-L_ELEM9_GRP10_0" class="edge-thickness-normal edge-pattern-solid edge-thickness-normal edge-pattern-solid flowchart-link" style=";" data-edge="true" data-et="edge" data-id="L_ELEM9_GRP10_0" data-points="W3sieCI6MTM4LCJ5Ijo5NjN9LHsieCI6MTM4LCJ5Ijo5ODh9LHsieCI6MTM4LjUsInkiOjEwMTMuNX1d" data-look="classic" marker-end="url(#my-svg_flowchart-v2-pointEnd)"/><path d="M138.5,1052.5L138.417,1056.583C138.333,1060.667,138.167,1068.833,138.154,1076.5C138.141,1084.167,138.281,1091.334,138.351,1094.917L138.422,1098.501" id="my-svg-L_GRP10_GRP11_0" class="edge-thickness-normal edge-pattern-solid edge-thickness-normal edge-pattern-solid flowchart-link" style=";" data-edge="true" data-et="edge" data-id="L_GRP10_GRP11_0" data-points="W3sieCI6MTM4LjUsInkiOjEwNTIuNX0seyJ4IjoxMzgsInkiOjEwNzd9LHsieCI6MTM4LjUsInkiOjExMDIuNX1d" data-look="classic" marker-end="url(#my-svg_flowchart-v2-pointEnd)"/><path d="M138.5,1141.5L138.417,1145.583C138.333,1149.667,138.167,1157.833,138.083,1165.417C138,1173,138,1180,138,1183.5L138,1187" id="my-svg-L_GRP11_ELEM12_0" class="edge-thickness-normal edge-pattern-solid edge-thickness-normal edge-pattern-solid flowchart-link" style=";" data-edge="true" data-et="edge" data-id="L_GRP11_ELEM12_0" data-points="W3sieCI6MTM4LjUsInkiOjExNDEuNX0seyJ4IjoxMzgsInkiOjExNjZ9LHsieCI6MTM4LCJ5IjoxMTkxfV0=" data-look="classic" marker-end="url(#my-svg_flowchart-v2-pointEnd)"/><path d="M138,1245L138,1249.167C138,1253.333,138,1261.667,138,1269.333C138,1277,138,1284,138,1287.5L138,1291" id="my-svg-L_ELEM12_ELEM13_0" class="edge-thickness-normal edge-pattern-solid edge-thickness-normal edge-pattern-solid flowchart-link" style=";" data-edge="true" data-et="edge" data-id="L_ELEM12_ELEM13_0" data-points="W3sieCI6MTM4LCJ5IjoxMjQ1fSx7IngiOjEzOCwieSI6MTI3MH0seyJ4IjoxMzgsInkiOjEyOTV9XQ==" data-look="classic" marker-end="url(#my-svg_flowchart-v2-pointEnd)"/><path d="M138,1349L138,1353.167C138,1357.333,138,1365.667,138,1373.333C138,1381,138,1388,138,1391.5L138,1395" id="my-svg-L_ELEM13_ELEM14_0" class="edge-thickness-normal edge-pattern-solid edge-thickness-normal edge-pattern-solid flowchart-link" style=";" data-edge="true" data-et="edge" data-id="L_ELEM13_ELEM14_0" data-points="W3sieCI6MTM4LCJ5IjoxMzQ5fSx7IngiOjEzOCwieSI6MTM3NH0seyJ4IjoxMzgsInkiOjEzOTl9XQ==" data-look="classic" marker-end="url(#my-svg_flowchart-v2-pointEnd)"/><path d="M138,1501L138,1505.167C138,1509.333,138,1517.667,138,1525.333C138,1533,138,1540,138,1543.5L138,1547" id="my-svg-L_ELEM14_ELEM15_0" class="edge-thickness-normal edge-pattern-solid edge-thickness-normal edge-pattern-solid flowchart-link" style=";" data-edge="true" data-et="edge" data-id="L_ELEM14_ELEM15_0" data-points="W3sieCI6MTM4LCJ5IjoxNTAxfSx7IngiOjEzOCwieSI6MTUyNn0seyJ4IjoxMzgsInkiOjE1NTF9XQ==" data-look="classic" marker-end="url(#my-svg_flowchart-v2-pointEnd)"/><path d="M138,1629L138,1633.167C138,1637.333,138,1645.667,138.07,1653.417C138.141,1661.167,138.281,1668.334,138.351,1671.917L138.422,1675.501" id="my-svg-L_ELEM15_PENALTY16_0" class="edge-thickness-normal edge-pattern-solid edge-thickness-normal edge-pattern-solid flowchart-link" style=";" data-edge="true" data-et="edge" data-id="L_ELEM15_PENALTY16_0" data-points="W3sieCI6MTM4LCJ5IjoxNjI5fSx7IngiOjEzOCwieSI6MTY1NH0seyJ4IjoxMzguNSwieSI6MTY3OS41fV0=" data-look="classic" marker-end="url(#my-svg_flowchart-v2-pointEnd)"/></g><g class="edgeLabels"><g class="edgeLabel"><g class="label" data-id="L_START1_GRP2_0" transform="translate(0, 0)"><foreignObject width="0" height="0"><div xmlns="http://www.w3.org/1999/xhtml" class="labelBkg" style="display: table-cell; white-space: nowrap; line-height: 1.5; max-width: 200px; text-align: center;"><span class="edgeLabel"></span></div></foreignObject></g></g><g class="edgeLabel"><g class="label" data-id="L_GRP2_ELEM3_0" transform="translate(0, 0)"><foreignObject width="0" height="0"><div xmlns="http://www.w3.org/1999/xhtml" class="labelBkg" style="display: table-cell; white-space: nowrap; line-height: 1.5; max-width: 200px; text-align: center;"><span class="edgeLabel"></span></div></foreignObject></g></g><g class="edgeLabel"><g class="label" data-id="L_ELEM3_GRP4_0" transform="translate(0, 0)"><foreignObject width="0" height="0"><div xmlns="http://www.w3.org/1999/xhtml" class="labelBkg" style="display: table-cell; white-space: nowrap; line-height: 1.5; max-width: 200px; text-align: center;"><span class="edgeLabel"></span></div></foreignObject></g></g><g class="edgeLabel"><g class="label" data-id="L_GRP4_GRP5_0" transform="translate(0, 0)"><foreignObject width="0" height="0"><div xmlns="http://www.w3.org/1999/xhtml" class="labelBkg" style="display: table-cell; white-space: nowrap; line-height: 1.5; max-width: 200px; text-align: center;"><span class="edgeLabel"></span></div></foreignObject></g></g><g class="edgeLabel"><g class="label" data-id="L_GRP5_GRP6_0" transform="translate(0, 0)"><foreignObject width="0" height="0"><div xmlns="http://www.w3.org/1999/xhtml" class="labelBkg" style="display: table-cell; white-space: nowrap; line-height: 1.5; max-width: 200px; text-align: center;"><span class="edgeLabel"></span></div></foreignObject></g></g><g class="edgeLabel"><g class="label" data-id="L_GRP6_ELEM7_0" transform="translate(0, 0)"><foreignObject width="0" height="0"><div xmlns="http://www.w3.org/1999/xhtml" class="labelBkg" style="display: table-cell; white-space: nowrap; line-height: 1.5; max-width: 200px; text-align: center;"><span class="edgeLabel"></span></div></foreignObject></g></g><g class="edgeLabel"><g class="label" data-id="L_ELEM7_ELEM8_0" transform="translate(0, 0)"><foreignObject width="0" height="0"><div xmlns="http://www.w3.org/1999/xhtml" class="labelBkg" style="display: table-cell; white-space: nowrap; line-height: 1.5; max-width: 200px; text-align: center;"><span class="edgeLabel"></span></div></foreignObject></g></g><g class="edgeLabel"><g class="label" data-id="L_ELEM8_ELEM9_0" transform="translate(0, 0)"><foreignObject width="0" height="0"><div xmlns="http://www.w3.org/1999/xhtml" class="labelBkg" style="display: table-cell; white-space: nowrap; line-height: 1.5; max-width: 200px; text-align: center;"><span class="edgeLabel"></span></div></foreignObject></g></g><g class="edgeLabel"><g class="label" data-id="L_ELEM9_GRP10_0" transform="translate(0, 0)"><foreignObject width="0" height="0"><div xmlns="http://www.w3.org/1999/xhtml" class="labelBkg" style="display: table-cell; white-space: nowrap; line-height: 1.5; max-width: 200px; text-align: center;"><span class="edgeLabel"></span></div></foreignObject></g></g><g class="edgeLabel"><g class="label" data-id="L_GRP10_GRP11_0" transform="translate(0, 0)"><foreignObject width="0" height="0"><div xmlns="http://www.w3.org/1999/xhtml" class="labelBkg" style="display: table-cell; white-space: nowrap; line-height: 1.5; max-width: 200px; text-align: center;"><span class="edgeLabel"></span></div></foreignObject></g></g><g class="edgeLabel"><g class="label" data-id="L_GRP11_ELEM12_0" transform="translate(0, 0)"><foreignObject width="0" height="0"><div xmlns="http://www.w3.org/1999/xhtml" class="labelBkg" style="display: table-cell; white-space: nowrap; line-height: 1.5; max-width: 200px; text-align: center;"><span class="edgeLabel"></span></div></foreignObject></g></g><g class="edgeLabel"><g class="label" data-id="L_ELEM12_ELEM13_0" transform="translate(0, 0)"><foreignObject width="0" height="0"><div xmlns="http://www.w3.org/1999/xhtml" class="labelBkg" style="display: table-cell; white-space: nowrap; line-height: 1.5; max-width: 200px; text-align: center;"><span class="edgeLabel"></span></div></foreignObject></g></g><g class="edgeLabel"><g class="label" data-id="L_ELEM13_ELEM14_0" transform="translate(0, 0)"><foreignObject width="0" height="0"><div xmlns="http://www.w3.org/1999/xhtml" class="labelBkg" style="display: table-cell; white-space: nowrap; line-height: 1.5; max-width: 200px; text-align: center;"><span class="edgeLabel"></span></div></foreignObject></g></g><g class="edgeLabel"><g class="label" data-id="L_ELEM14_ELEM15_0" transform="translate(0, 0)"><foreignObject width="0" height="0"><div xmlns="http://www.w3.org/1999/xhtml" class="labelBkg" style="display: table-cell; white-space: nowrap; line-height: 1.5; max-width: 200px; text-align: center;"><span class="edgeLabel"></span></div></foreignObject></g></g><g class="edgeLabel"><g class="label" data-id="L_ELEM15_PENALTY16_0" transform="translate(0, 0)"><foreignObject width="0" height="0"><div xmlns="http://www.w3.org/1999/xhtml" class="labelBkg" style="display: table-cell; white-space: nowrap; line-height: 1.5; max-width: 200px; text-align: center;"><span class="edgeLabel"></span></div></foreignObject></g></g></g><g class="nodes"><g class="node default" id="my-svg-flowchart-START1-0" data-look="classic" transform="translate(138, 63.5)"><g class="basic label-container outer-path"><path d="M-65.875 -55.5 C-19.006140796781537 -55.5, 27.862718406436926 -55.5, 65.875 -55.5 C65.875 -55.5, 65.875 -55.5, 65.875 -55.5 C66.9754342770617 -55.464711214600015, 68.07586855412339 -55.429422429200024, 69.43089720892957 -55.38596929764367 C70.46401037313939 -55.28630611319271, 71.49712353734922 -55.186642928741755, 72.97218247349008 -55.044345767190165 C73.70941766277959 -54.92515529913012, 74.44665285206908 -54.80596483107008, 76.48430389292615 -54.47653321300413 C77.50857547038505 -54.242749909445834, 78.53284704784396 -54.00896660588753, 79.95282940697766 -53.684864898666135 C81.14292523318072 -53.33165070438954, 82.33302105938377 -52.978436510112935, 83.36350610031094 -52.67259395909211 C84.30676239183755 -52.32546692444475, 85.25001868336415 -51.97833988979738, 86.70231877080526 -51.44388003270421 C87.77388130900862 -50.96953108381489, 88.84544384721197 -50.49518213492558, 89.95554752102447 -50.00377216858426 C90.72900829209455 -49.600258179742276, 91.50246906316461 -49.19674419090028, 93.10982413621853 -48.358188078848116 C93.95370670327402 -47.846621507494646, 94.79758927032951 -47.335054936141184, 96.15218701718544 -46.51388982149716 C97.1023437078377 -45.85110164571835, 98.05250039848997 -45.188313469939544, 99.07013444226249 -44.47845601367159 C99.69981857746156 -43.9762996724489, 100.32950271266063 -43.474143331226216, 101.85167593958224 -42.260250689486966 C102.84905683345532 -41.3544557509238, 103.84643772732841 -40.44866081236063, 104.48538155849349 -39.86838893042388 C105.0603988113456 -39.27463640705964, 105.63541606419773 -38.68088388369539, 106.96042883768001 -37.3126994095031 C107.58709075326479 -36.57658666538406, 108.21375266884957 -35.84047392126503, 109.26664727697565 -34.603684003159714 C109.75648668632593 -33.94734381991856, 110.24632609567621 -33.29100363667741, 111.39456013013104 -31.752474636780427 C111.90063291721147 -30.975010936253828, 112.4067057042919 -30.197547235727228, 113.33542334679672 -28.770787541234146 C113.74544285503178 -28.04275638538542, 114.15546236326684 -27.3147252295367, 115.08126150370151 -25.670875108366356 C115.52757060725831 -24.744104705345627, 115.97387971081513 -23.8173343023249, 116.62490057737759 -22.46547554329287 C117.0862034042097 -21.326048642334147, 117.5475062310418 -20.18662174137542, 117.95999742376169 -19.1677605203826 C118.30990748194843 -18.113887175720826, 118.65981754013518 -17.060013831059052, 119.08106584353466 -15.791281058022316 C119.38454336241386 -14.633989750547222, 119.68802088129307 -13.47669844307213, 119.9834991260912 -12.349911834575455 C120.22267836144823 -11.121777011566442, 120.46185759680525 -9.893642188557427, 120.66358897950198 -8.857794174352568 C120.84197837924044 -7.474241216952459, 121.02036777897891 -6.090688259552349, 121.1185407686805 -5.3292779378763475 C121.17651088030225 -4.4263466567357606, 121.23448099192399 -3.5234153755951736, 121.34648499913817 -1.7788625552268618 C121.34648499913817 -1.0536315083797627, 121.34648499913817 -0.32840046153266367, 121.34648499913817 1.7788625552268482 C121.30039432703113 2.4967619770149394, 121.25430365492409 3.2146613988030306, 121.1185407686805 5.32927793787631 C120.95314229086492 6.612075870190238, 120.78774381304935 7.894873802504166, 120.66358897950198 8.857794174352529 C120.40354322937168 10.193074140582866, 120.14349747924138 11.528354106813204, 119.9834991260912 12.349911834575442 C119.79168330226697 13.081388704321157, 119.59986747844275 13.81286557406687, 119.08106584353467 15.79128105802228 C118.74617151131197 16.799929428511383, 118.41127717908928 17.808577799000485, 117.9599974237617 19.16776052038256 C117.59579563092977 20.067345990040085, 117.23159383809784 20.966931459697605, 116.62490057737759 22.465475543292854 C116.1287453413117 23.49575250700507, 115.63259010524582 24.52602947071728, 115.08126150370151 25.670875108366346 C114.59527137577962 26.533799792328463, 114.10928124785774 27.39672447629058, 113.33542334679672 28.770787541234135 C112.8280397856982 29.55026494264464, 112.32065622459966 30.329742344055145, 111.39456013013105 31.7524746367804 C110.62428861053279 32.78456829986304, 109.85401709093452 33.81666196294569, 109.26664727697566 34.6036840031597 C108.4135026766538 35.60583619600074, 107.56035807633195 36.607988388841775, 106.96042883768003 37.31269940950306 C106.33832510579755 37.95507258833799, 105.71622137391506 38.59744576717292, 104.48538155849351 39.86838893042387 C103.59694128529235 40.67524687970367, 102.70850101209119 41.48210482898347, 101.8516759395823 42.26025068948693 C100.88215941278176 43.03341431969205, 99.91264288598123 43.80657794989717, 99.0701344422625 44.47845601367158 C98.11699167593088 45.14332714657918, 97.16384890959924 45.80819827948678, 96.15218701718548 46.51388982149714 C95.43485882717917 46.94873838576732, 94.71753063717286 47.38358695003751, 93.10982413621855 48.358188078848116 C92.45068466327506 48.70206071968375, 91.79154519033156 49.045933360519385, 89.95554752102449 50.003772168584256 C88.81614051057937 50.508153852800234, 87.67673350013426 51.01253553701622, 86.70231877080529 51.4438800327042 C85.57538953044829 51.85860041037528, 84.44846029009129 52.273320788046355, 83.36350610031099 52.6725939590921 C82.19483631678403 53.01944901637002, 81.0261665332571 53.366304073647946, 79.95282940697771 53.68486489866612 C78.9550980058334 53.91259058017145, 77.95736660468911 54.14031626167678, 76.48430389292618 54.476533213004124 C75.38179072689442 54.65477899157084, 74.27927756086265 54.833024770137555, 72.97218247349011 55.04434576719016 C71.71322327777078 55.165796046681244, 70.45426408205147 55.28724632617234, 69.43089720892957 55.38596929764367 C68.61304133671672 55.41219634360565, 67.79518546450387 55.43842338956763, 65.87500000000001 55.5 C65.87500000000001 55.5, 65.87500000000001 55.5, 65.875 55.5 C33.60408843126551 55.5, 1.333176862531019 55.5, -65.87499999999999 55.5 C-66.82536281556071 55.46952371427397, -67.77572563112143 55.43904742854794, -69.43089720892954 55.38596929764367 C-70.16802945811226 55.314859036096244, -70.90516170729497 55.24374877454882, -72.9721824734901 55.04434576719016 C-73.70668542976675 54.92559702537485, -74.44118838604341 54.80684828355953, -76.48430389292616 54.476533213004124 C-77.55316577294383 54.2325724638657, -78.6220276529615 53.988611714727284, -79.95282940697764 53.684864898666135 C-80.76892909986411 53.44265079361214, -81.58502879275058 53.200436688558135, -83.36350610031091 52.67259395909212 C-84.61577200332444 52.21174853096404, -85.86803790633795 51.75090310283595, -86.70231877080526 51.44388003270421 C-87.49009997709813 51.095152661377554, -88.27788118339099 50.746425290050894, -89.95554752102447 50.00377216858427 C-90.62964813613016 49.65209430946568, -91.30374875123586 49.300416450347086, -93.10982413621852 48.35818807884812 C-93.77031914216903 47.957792124741424, -94.43081414811955 47.55739617063473, -96.15218701718541 46.51388982149718 C-97.2399558132691 45.755109398101446, -98.32772460935279 44.99632897470571, -99.07013444226249 44.4784560136716 C-99.958865500106 43.76971664516808, -100.84759655794952 43.06097727666457, -101.85167593958224 42.26025068948697 C-102.66291430249323 41.523505472482086, -103.47415266540423 40.7867602554772, -104.48538155849347 39.868388930423905 C-105.13848728593044 39.194003645867795, -105.79159301336742 38.519618361311686, -106.96042883768001 37.31269940950308 C-107.73369566309212 36.40437619624519, -108.50696248850423 35.49605298298729, -109.26664727697565 34.60368400315972 C-109.89794675823863 33.75780021083322, -110.5292462395016 32.91191641850671, -111.39456013013104 31.752474636780434 C-111.96568234584373 30.875077545657298, -112.53680456155642 29.997680454534166, -113.33542334679669 28.77078754123417 C-113.8844300802061 27.795970493105713, -114.43343681361551 26.82115344497726, -115.0812615037015 25.670875108366364 C-115.67299751892389 24.442122611634627, -116.26473353414627 23.213370114902887, -116.62490057737759 22.465475543292875 C-117.09570478283447 21.302580053434262, -117.56650898829137 20.139684563575653, -117.95999742376169 19.167760520382608 C-118.33990399695222 18.02354245182504, -118.71981057014276 16.879324383267477, -119.08106584353466 15.791281058022301 C-119.35514090296681 14.746114071525362, -119.62921596239896 13.700947085028423, -119.9834991260912 12.349911834575463 C-120.16469105889382 11.419529554562567, -120.34588299169644 10.48914727454967, -120.66358897950198 8.857794174352573 C-120.77594114699251 7.986412949741009, -120.88829331448302 7.115031725129444, -121.1185407686805 5.3292779378763795 C-121.19511726522951 4.13653719269009, -121.27169376177851 2.9437964475038, -121.34648499913817 1.7788625552268686 C-121.34648499913817 0.8984076079730292, -121.34648499913817 0.017952660719189772, -121.34648499913817 -1.7788625552268416 C-121.27108006444583 -2.953355278827976, -121.19567512975347 -4.1278480024291095, -121.1185407686805 -5.329277937876303 C-120.95442620348857 -6.602118097418521, -120.79031163829661 -7.874958256960738, -120.66358897950198 -8.857794174352547 C-120.43148807242633 -10.049583277641899, -120.19938716535069 -11.241372380931251, -119.9834991260912 -12.349911834575437 C-119.74377003732802 -13.26410274927377, -119.50404094856484 -14.178293663972102, -119.08106584353467 -15.791281058022273 C-118.72594968094556 -16.860834359663905, -118.37083351835645 -17.930387661305538, -117.95999742376172 -19.167760520382537 C-117.52872718610509 -20.233006345437218, -117.09745694844847 -21.2982521704919, -116.62490057737759 -22.46547554329285 C-116.18669799770737 -23.375412576011257, -115.74849541803715 -24.285349608729664, -115.08126150370151 -25.67087510836634 C-114.42207073809996 -26.84133506299507, -113.76287997249841 -28.011795017623804, -113.33542334679672 -28.770787541234153 C-112.58360367990905 -29.92578444142169, -111.83178401302138 -31.080781341609228, -111.39456013013105 -31.752474636780416 C-110.74371597270932 -32.624546514603026, -110.0928718152876 -33.49661839242563, -109.26664727697568 -34.6036840031597 C-108.42214396263547 -35.59568564978358, -107.57764064829529 -36.58768729640746, -106.96042883768004 -37.31269940950306 C-106.08363494302228 -38.21806109185471, -105.20684104836451 -39.123422774206354, -104.48538155849351 -39.86838893042385 C-103.7604704584453 -40.52673401139097, -103.03555935839708 -41.185079092358094, -101.8516759395823 -42.260250689486924 C-100.80957392601358 -43.09129931380874, -99.76747191244489 -43.922347938130564, -99.07013444226251 -44.47845601367158 C-98.09144042118183 -45.16115059579613, -97.11274640010114 -45.84384517792068, -96.15218701718548 -46.51388982149714 C-95.05728600702226 -47.177625248210624, -93.96238499685903 -47.841360674924104, -93.10982413621855 -48.35818807884811 C-91.8534897984336 -49.01361689814997, -90.59715546064865 -49.66904571745183, -89.9555475210245 -50.003772168584256 C-88.84443309339689 -50.49562956565658, -87.73331866576926 -50.987486962728894, -86.70231877080529 -51.44388003270419 C-85.5402529788588 -51.87153098615893, -84.37818718691231 -52.29918193961366, -83.36350610031099 -52.6725939590921 C-82.19973415793643 -53.01799536282528, -81.03596221556188 -53.363396766558466, -79.95282940697771 -53.68486489866611 C-78.90556416584198 -53.92389635591097, -77.85829892470626 -54.16292781315583, -76.48430389292619 -54.47653321300412 C-75.38128314588167 -54.65486105333263, -74.27826239883714 -54.833188893661145, -72.97218247349012 -55.04434576719016 C-72.09765934813036 -55.128709961325676, -71.2231362227706 -55.21307415546119, -69.43089720892957 -55.38596929764367 C-68.5709072798473 -55.41354750080049, -67.71091735076506 -55.441125703957304, -65.87500000000001 -55.5 C-65.87500000000001 -55.5, -65.875 -55.5, -65.875 -55.5" stroke="none" stroke-width="0" fill="#ECECFF" style=""/><path d="M-65.875 -55.5 C-27.02126743200305 -55.5, 11.8324651359939 -55.5, 65.875 -55.5 M-65.875 -55.5 C-23.585467701043328 -55.5, 18.704064597913344 -55.5, 65.875 -55.5 M65.875 -55.5 C65.875 -55.5, 65.875 -55.5, 65.875 -55.5 M65.875 -55.5 C65.875 -55.5, 65.875 -55.5, 65.875 -55.5 M65.875 -55.5 C66.5937294382896 -55.47695174583604, 67.3124588765792 -55.45390349167207, 69.43089720892957 -55.38596929764367 M65.875 -55.5 C67.15176741697331 -55.45905655401469, 68.42853483394663 -55.41811310802937, 69.43089720892957 -55.38596929764367 M69.43089720892957 -55.38596929764367 C70.21825166145932 -55.3100141605404, 71.00560611398907 -55.23405902343712, 72.97218247349008 -55.044345767190165 M69.43089720892957 -55.38596929764367 C70.42071439280522 -55.290482824344515, 71.4105315766809 -55.19499635104536, 72.97218247349008 -55.044345767190165 M72.97218247349008 -55.044345767190165 C73.98644290519601 -54.88036800629907, 75.00070333690195 -54.71639024540798, 76.48430389292615 -54.47653321300413 M72.97218247349008 -55.044345767190165 C74.29107134691887 -54.83111804227017, 75.60996022034766 -54.617890317350174, 76.48430389292615 -54.47653321300413 M76.48430389292615 -54.47653321300413 C77.64581156333533 -54.21142666677913, 78.80731923374452 -53.94632012055413, 79.95282940697766 -53.684864898666135 M76.48430389292615 -54.47653321300413 C77.81659922794297 -54.1724454968261, 79.1488945629598 -53.868357780648076, 79.95282940697766 -53.684864898666135 M79.95282940697766 -53.684864898666135 C81.29582328320451 -53.286271365720715, 82.63881715943135 -52.887677832775296, 83.36350610031094 -52.67259395909211 M79.95282940697766 -53.684864898666135 C80.75812766521884 -53.44585660271697, 81.56342592346 -53.2068483067678, 83.36350610031094 -52.67259395909211 M83.36350610031094 -52.67259395909211 C84.4218161725626 -52.283126069592434, 85.48012624481426 -51.89365818009276, 86.70231877080526 -51.44388003270421 M83.36350610031094 -52.67259395909211 C84.49895681811702 -52.2547375989481, 85.63440753592309 -51.83688123880409, 86.70231877080526 -51.44388003270421 M86.70231877080526 -51.44388003270421 C87.366984046003 -51.14965243196903, 88.03164932120073 -50.85542483123385, 89.95554752102447 -50.00377216858426 M86.70231877080526 -51.44388003270421 C87.43116056862699 -51.12124338913229, 88.16000236644872 -50.79860674556037, 89.95554752102447 -50.00377216858426 M89.95554752102447 -50.00377216858426 C90.99229861114131 -49.46289978894108, 92.02904970125813 -48.92202740929789, 93.10982413621853 -48.358188078848116 M89.95554752102447 -50.00377216858426 C90.68406980233456 -49.62370256106558, 91.41259208364467 -49.24363295354689, 93.10982413621853 -48.358188078848116 M93.10982413621853 -48.358188078848116 C94.08769453017405 -47.76539729942798, 95.06556492412956 -47.172606520007854, 96.15218701718544 -46.51388982149716 M93.10982413621853 -48.358188078848116 C94.12382834491346 -47.74349276858709, 95.13783255360839 -47.12879745832606, 96.15218701718544 -46.51388982149716 M96.15218701718544 -46.51388982149716 C97.09797252104785 -45.854150796397334, 98.04375802491025 -45.1944117712975, 99.07013444226249 -44.47845601367159 M96.15218701718544 -46.51388982149716 C96.829020157829 -46.04176032221864, 97.50585329847256 -45.56963082294013, 99.07013444226249 -44.47845601367159 M99.07013444226249 -44.47845601367159 C99.80975810570395 -43.888625824289306, 100.5493817691454 -43.29879563490703, 101.85167593958224 -42.260250689486966 M99.07013444226249 -44.47845601367159 C100.16311187866827 -43.60683559348906, 101.25608931507406 -42.735215173306536, 101.85167593958224 -42.260250689486966 M101.85167593958224 -42.260250689486966 C102.49735029199648 -41.673866326231554, 103.14302464441074 -41.08748196297614, 104.48538155849349 -39.86838893042388 M101.85167593958224 -42.260250689486966 C102.77377297052735 -41.422826563333125, 103.69587000147244 -40.58540243717929, 104.48538155849349 -39.86838893042388 M104.48538155849349 -39.86838893042388 C105.03543338573009 -39.300415258707226, 105.58548521296667 -38.73244158699056, 106.96042883768001 -37.3126994095031 M104.48538155849349 -39.86838893042388 C105.16049416230993 -39.17127973920782, 105.83560676612638 -38.47417054799176, 106.96042883768001 -37.3126994095031 M106.96042883768001 -37.3126994095031 C107.84349219153071 -36.275402946341764, 108.72655554538142 -35.23810648318043, 109.26664727697565 -34.603684003159714 M106.96042883768001 -37.3126994095031 C107.86468056914656 -36.25051387234135, 108.76893230061312 -35.1883283351796, 109.26664727697565 -34.603684003159714 M109.26664727697565 -34.603684003159714 C109.777333098196 -33.91941152715986, 110.28801891941634 -33.235139051160004, 111.39456013013104 -31.752474636780427 M109.26664727697565 -34.603684003159714 C109.85719234072685 -33.81240741749516, 110.44773740447808 -33.02113083183061, 111.39456013013104 -31.752474636780427 M111.39456013013104 -31.752474636780427 C111.8350331111056 -31.075789854446857, 112.27550609208016 -30.399105072113286, 113.33542334679672 -28.770787541234146 M111.39456013013104 -31.752474636780427 C111.79775715164125 -31.13305573818074, 112.20095417315146 -30.513636839581057, 113.33542334679672 -28.770787541234146 M113.33542334679672 -28.770787541234146 C113.949141445473 -27.68106891133807, 114.56285954414928 -26.59135028144199, 115.08126150370151 -25.670875108366356 M113.33542334679672 -28.770787541234146 C113.88822168580027 -27.789238113431576, 114.44102002480383 -26.80768868562901, 115.08126150370151 -25.670875108366356 M115.08126150370151 -25.670875108366356 C115.53498951477526 -24.728699185147505, 115.98871752584901 -23.786523261928657, 116.62490057737759 -22.46547554329287 M115.08126150370151 -25.670875108366356 C115.45755368338656 -24.889496345887505, 115.83384586307162 -24.108117583408653, 116.62490057737759 -22.46547554329287 M116.62490057737759 -22.46547554329287 C116.90612234796069 -21.770852332899555, 117.18734411854379 -21.076229122506238, 117.95999742376169 -19.1677605203826 M116.62490057737759 -22.46547554329287 C117.05364896488481 -21.406458736863875, 117.48239735239203 -20.34744193043488, 117.95999742376169 -19.1677605203826 M117.95999742376169 -19.1677605203826 C118.26743771308477 -18.24179935289944, 118.57487800240784 -17.31583818541628, 119.08106584353466 -15.791281058022316 M117.95999742376169 -19.1677605203826 C118.39952094674705 -17.843985697714054, 118.83904446973239 -16.52021087504551, 119.08106584353466 -15.791281058022316 M119.08106584353466 -15.791281058022316 C119.36161560795605 -14.721423215246505, 119.64216537237743 -13.651565372470694, 119.9834991260912 -12.349911834575455 M119.08106584353466 -15.791281058022316 C119.35450816860434 -14.748526961878252, 119.62795049367404 -13.70577286573419, 119.9834991260912 -12.349911834575455 M119.9834991260912 -12.349911834575455 C120.13047136404624 -11.59524045526983, 120.27744360200128 -10.840569075964204, 120.66358897950198 -8.857794174352568 M119.9834991260912 -12.349911834575455 C120.14330724790631 -11.529330904513419, 120.30311536972141 -10.708749974451383, 120.66358897950198 -8.857794174352568 M120.66358897950198 -8.857794174352568 C120.81536781037987 -7.68062753418392, 120.96714664125776 -6.50346089401527, 121.1185407686805 -5.3292779378763475 M120.66358897950198 -8.857794174352568 C120.76187071841447 -8.095540415271786, 120.86015245732698 -7.333286656191006, 121.1185407686805 -5.3292779378763475 M121.1185407686805 -5.3292779378763475 C121.20777194759422 -3.939430300183858, 121.29700312650795 -2.549582662491368, 121.34648499913817 -1.7788625552268618 M121.1185407686805 -5.3292779378763475 C121.17511359108565 -4.448110564155756, 121.2316864134908 -3.5669431904351647, 121.34648499913817 -1.7788625552268618 M121.34648499913817 -1.7788625552268618 C121.34648499913817 -0.6779062979480113, 121.34648499913817 0.4230499593308392, 121.34648499913817 1.7788625552268482 M121.34648499913817 -1.7788625552268618 C121.34648499913817 -1.0162927746025117, 121.34648499913817 -0.25372299397816156, 121.34648499913817 1.7788625552268482 M121.34648499913817 1.7788625552268482 C121.29300445670806 2.6118651722927675, 121.23952391427794 3.4448677893586863, 121.1185407686805 5.32927793787631 M121.34648499913817 1.7788625552268482 C121.28084752355838 2.801219218998919, 121.21521004797857 3.82357588277099, 121.1185407686805 5.32927793787631 M121.1185407686805 5.32927793787631 C120.96546118838405 6.516532933673289, 120.8123816080876 7.703787929470267, 120.66358897950198 8.857794174352529 M121.1185407686805 5.32927793787631 C120.99531585576221 6.284986028959206, 120.87209094284393 7.240694120042101, 120.66358897950198 8.857794174352529 M120.66358897950198 8.857794174352529 C120.52118205146937 9.589023652085071, 120.37877512343677 10.320253129817614, 119.9834991260912 12.349911834575442 M120.66358897950198 8.857794174352529 C120.43416605038604 10.035832426809613, 120.20474312127011 11.213870679266694, 119.9834991260912 12.349911834575442 M119.9834991260912 12.349911834575442 C119.7051157828825 13.411508174334404, 119.4267324396738 14.473104514093368, 119.08106584353467 15.79128105802228 M119.9834991260912 12.349911834575442 C119.71552513074779 13.371812819484152, 119.44755113540437 14.393713804392862, 119.08106584353467 15.79128105802228 M119.08106584353467 15.79128105802228 C118.6486439550532 17.093666889056948, 118.21622206657173 18.39605272009161, 117.9599974237617 19.16776052038256 M119.08106584353467 15.79128105802228 C118.68245992864243 16.991818564449883, 118.2838540137502 18.192356070877484, 117.9599974237617 19.16776052038256 M117.9599974237617 19.16776052038256 C117.69256530273935 19.8283230297561, 117.42513318171699 20.488885539129637, 116.62490057737759 22.465475543292854 M117.9599974237617 19.16776052038256 C117.5795128072839 20.107564879252337, 117.19902819080612 21.047369238122112, 116.62490057737759 22.465475543292854 M116.62490057737759 22.465475543292854 C116.08007902384401 23.596809156519118, 115.53525747031043 24.728142769745382, 115.08126150370151 25.670875108366346 M116.62490057737759 22.465475543292854 C116.24883533134484 23.246383073187094, 115.8727700853121 24.027290603081333, 115.08126150370151 25.670875108366346 M115.08126150370151 25.670875108366346 C114.56714807641318 26.58373555814646, 114.05303464912483 27.49659600792658, 113.33542334679672 28.770787541234135 M115.08126150370151 25.670875108366346 C114.57511794258805 26.569584253716496, 114.06897438147459 27.46829339906665, 113.33542334679672 28.770787541234135 M113.33542334679672 28.770787541234135 C112.94586702527658 29.36925066160824, 112.55631070375645 29.96771378198235, 111.39456013013105 31.7524746367804 M113.33542334679672 28.770787541234135 C112.65177686584171 29.821052120765447, 111.9681303848867 30.871316700296756, 111.39456013013105 31.7524746367804 M111.39456013013105 31.7524746367804 C110.55002361375435 32.88407662986577, 109.70548709737764 34.015678622951135, 109.26664727697566 34.6036840031597 M111.39456013013105 31.7524746367804 C110.63108614630875 32.775460221191516, 109.86761216248644 33.798445805602626, 109.26664727697566 34.6036840031597 M109.26664727697566 34.6036840031597 C108.41444840077008 35.60472529464054, 107.56224952456449 36.605766586121376, 106.96042883768003 37.31269940950306 M109.26664727697566 34.6036840031597 C108.69814508975196 35.271479020963504, 108.12964290252826 35.939274038767316, 106.96042883768003 37.31269940950306 M106.96042883768003 37.31269940950306 C106.35216084501951 37.94078605165599, 105.74389285235901 38.56887269380892, 104.48538155849351 39.86838893042387 M106.96042883768003 37.31269940950306 C106.06388603639792 38.23845345935975, 105.16734323511581 39.164207509216425, 104.48538155849351 39.86838893042387 M104.48538155849351 39.86838893042387 C103.89110017477645 40.408099559291934, 103.2968187910594 40.94781018815999, 101.8516759395823 42.26025068948693 M104.48538155849351 39.86838893042387 C103.51185774982991 40.752517495423675, 102.53833394116631 41.63664606042347, 101.8516759395823 42.26025068948693 M101.8516759395823 42.26025068948693 C101.27689326903074 42.71862457364256, 100.7021105984792 43.17699845779818, 99.0701344422625 44.47845601367158 M101.8516759395823 42.26025068948693 C100.97420847086961 42.9600076453953, 100.09674100215693 43.659764601303664, 99.0701344422625 44.47845601367158 M99.0701344422625 44.47845601367158 C98.0034562487129 45.222524545737016, 96.93677805516329 45.96659307780244, 96.15218701718548 46.51388982149714 M99.0701344422625 44.47845601367158 C98.14153847952727 45.12620435900434, 97.21294251679204 45.77395270433709, 96.15218701718548 46.51388982149714 M96.15218701718548 46.51388982149714 C95.41539847202401 46.96053536742412, 94.67860992686253 47.407180913351105, 93.10982413621855 48.358188078848116 M96.15218701718548 46.51388982149714 C95.38188175381597 46.98085339896793, 94.61157649044647 47.44781697643872, 93.10982413621855 48.358188078848116 M93.10982413621855 48.358188078848116 C92.19483567056268 48.835536975302695, 91.27984720490682 49.312885871757274, 89.95554752102449 50.003772168584256 M93.10982413621855 48.358188078848116 C91.90708019713735 48.98565882147252, 90.70433625805614 49.613129564096916, 89.95554752102449 50.003772168584256 M89.95554752102449 50.003772168584256 C88.85900278868834 50.489179993745694, 87.76245805635222 50.97458781890714, 86.70231877080529 51.4438800327042 M89.95554752102449 50.003772168584256 C89.27443135449856 50.30528209091207, 88.59331518797262 50.6067920132399, 86.70231877080529 51.4438800327042 M86.70231877080529 51.4438800327042 C85.66794696087938 51.82453842038513, 84.63357515095346 52.20519680806606, 83.36350610031099 52.6725939590921 M86.70231877080529 51.4438800327042 C85.83062691683503 51.76467069279642, 84.95893506286475 52.08546135288865, 83.36350610031099 52.6725939590921 M83.36350610031099 52.6725939590921 C82.20104986137098 53.017604868952176, 81.03859362243097 53.36261577881226, 79.95282940697771 53.68486489866612 M83.36350610031099 52.6725939590921 C82.55926989568151 52.91128704310414, 81.75503369105205 53.14998012711619, 79.95282940697771 53.68486489866612 M79.95282940697771 53.68486489866612 C79.04640518505681 53.891750312348734, 78.13998096313593 54.09863572603135, 76.48430389292618 54.476533213004124 M79.95282940697771 53.68486489866612 C78.61360765117813 53.990533525188695, 77.27438589537856 54.29620215171127, 76.48430389292618 54.476533213004124 M76.48430389292618 54.476533213004124 C75.14525620288983 54.69302005905927, 73.80620851285347 54.909506905114426, 72.97218247349011 55.04434576719016 M76.48430389292618 54.476533213004124 C75.14456139520355 54.693132390177674, 73.80481889748093 54.90973156735123, 72.97218247349011 55.04434576719016 M72.97218247349011 55.04434576719016 C71.72888974763636 55.164284721175, 70.48559702178262 55.28422367515984, 69.43089720892957 55.38596929764367 M72.97218247349011 55.04434576719016 C71.87179246405945 55.150499067987326, 70.7714024546288 55.25665236878449, 69.43089720892957 55.38596929764367 M69.43089720892957 55.38596929764367 C68.53236561431581 55.414783456997284, 67.63383401970205 55.44359761635089, 65.87500000000001 55.5 M69.43089720892957 55.38596929764367 C68.66675747256318 55.41047377168117, 67.9026177361968 55.434978245718675, 65.87500000000001 55.5 M65.87500000000001 55.5 C65.87500000000001 55.5, 65.87500000000001 55.5, 65.875 55.5 M65.87500000000001 55.5 C65.87500000000001 55.5, 65.87500000000001 55.5, 65.875 55.5 M65.875 55.5 C27.30619530416336 55.5, -11.26260939167328 55.5, -65.87499999999999 55.5 M65.875 55.5 C29.22857748918578 55.5, -7.4178450216284375 55.5, -65.87499999999999 55.5 M-65.87499999999999 55.5 C-67.0189143305578 55.46331689391318, -68.16282866111564 55.42663378782637, -69.43089720892954 55.38596929764367 M-65.87499999999999 55.5 C-66.84569044667269 55.46887184670954, -67.81638089334538 55.43774369341909, -69.43089720892954 55.38596929764367 M-69.43089720892954 55.38596929764367 C-70.50953870556593 55.281914049719354, -71.58818020220231 55.17785880179503, -72.9721824734901 55.04434576719016 M-69.43089720892954 55.38596929764367 C-70.68140967956009 55.26533386356322, -71.93192215019066 55.14469842948277, -72.9721824734901 55.04434576719016 M-72.9721824734901 55.04434576719016 C-74.14707800866027 54.8543977685148, -75.32197354383047 54.664449769839436, -76.48430389292616 54.476533213004124 M-72.9721824734901 55.04434576719016 C-74.14418221359956 54.85486593820299, -75.31618195370902 54.66538610921582, -76.48430389292616 54.476533213004124 M-76.48430389292616 54.476533213004124 C-77.45569278920014 54.254820036334536, -78.42708168547414 54.03310685966495, -79.95282940697764 53.684864898666135 M-76.48430389292616 54.476533213004124 C-77.8706092346486 54.16011806524377, -79.25691457637103 53.84370291748342, -79.95282940697764 53.684864898666135 M-79.95282940697764 53.684864898666135 C-81.0885765739283 53.347781101173716, -82.22432374087894 53.0106973036813, -83.36350610031091 52.67259395909212 M-79.95282940697764 53.684864898666135 C-81.0894579929293 53.34751950064088, -82.22608657888095 53.01017410261563, -83.36350610031091 52.67259395909212 M-83.36350610031091 52.67259395909212 C-84.6391042951178 52.20316203190273, -85.91470248992471 51.733730104713345, -86.70231877080526 51.44388003270421 M-83.36350610031091 52.67259395909212 C-84.06379891148966 52.41487973114256, -84.7640917226684 52.157165503193, -86.70231877080526 51.44388003270421 M-86.70231877080526 51.44388003270421 C-87.49814003345875 51.091593566926505, -88.29396129611223 50.739307101148796, -89.95554752102447 50.00377216858427 M-86.70231877080526 51.44388003270421 C-87.43016212105111 51.12168537225624, -88.15800547129696 50.79949071180827, -89.95554752102447 50.00377216858427 M-89.95554752102447 50.00377216858427 C-90.6138092359864 49.660357453525386, -91.2720709509483 49.3169427384665, -93.10982413621852 48.35818807884812 M-89.95554752102447 50.00377216858427 C-90.79452802985301 49.56607657452108, -91.63350853868157 49.128380980457884, -93.10982413621852 48.35818807884812 M-93.10982413621852 48.35818807884812 C-93.77860448353682 47.9527695021142, -94.44738483085513 47.54735092538028, -96.15218701718541 46.51388982149718 M-93.10982413621852 48.35818807884812 C-94.19801520913617 47.698520255524876, -95.28620628205381 47.03885243220163, -96.15218701718541 46.51388982149718 M-96.15218701718541 46.51388982149718 C-96.94408646731806 45.96149504585933, -97.7359859174507 45.40910027022149, -99.07013444226249 44.4784560136716 M-96.15218701718541 46.51388982149718 C-97.11207306476155 45.844314867505354, -98.07195911233768 45.174739913513534, -99.07013444226249 44.4784560136716 M-99.07013444226249 44.4784560136716 C-99.82681009373194 43.87502731760946, -100.58348574520137 43.27159862154731, -101.85167593958224 42.26025068948697 M-99.07013444226249 44.4784560136716 C-99.89400432832292 43.821441703636815, -100.71787421438337 43.16442739360203, -101.85167593958224 42.26025068948697 M-101.85167593958224 42.26025068948697 C-102.69874490532348 41.49096506701746, -103.54581387106472 40.72167944454795, -104.48538155849347 39.868388930423905 M-101.85167593958224 42.26025068948697 C-102.81643786519697 41.384079434845425, -103.78119979081173 40.50790818020388, -104.48538155849347 39.868388930423905 M-104.48538155849347 39.868388930423905 C-105.1843602020039 39.146636093785496, -105.88333884551433 38.424883257147094, -106.96042883768001 37.31269940950308 M-104.48538155849347 39.868388930423905 C-105.2123068771585 39.117778857223676, -105.93923219582352 38.36716878402344, -106.96042883768001 37.31269940950308 M-106.96042883768001 37.31269940950308 C-107.48083419269352 36.701401667600656, -108.00123954770702 36.09010392569822, -109.26664727697565 34.60368400315972 M-106.96042883768001 37.31269940950308 C-107.52571683634682 36.64867996047071, -108.09100483501362 35.984660511438335, -109.26664727697565 34.60368400315972 M-109.26664727697565 34.60368400315972 C-110.10197675868731 33.4844185977474, -110.93730624039898 32.36515319233508, -111.39456013013104 31.752474636780434 M-109.26664727697565 34.60368400315972 C-109.78157485793915 33.9137279555363, -110.29650243890265 33.223771907912884, -111.39456013013104 31.752474636780434 M-111.39456013013104 31.752474636780434 C-112.02085030643664 30.790324743514933, -112.64714048274223 29.828174850249432, -113.33542334679669 28.77078754123417 M-111.39456013013104 31.752474636780434 C-111.85959307703915 31.038059151498647, -112.32462602394726 30.323643666216856, -113.33542334679669 28.77078754123417 M-113.33542334679669 28.77078754123417 C-113.9350881114634 27.70602202892645, -114.53475287613013 26.641256516618736, -115.0812615037015 25.670875108366364 M-113.33542334679669 28.77078754123417 C-114.02518984077307 27.546037284747715, -114.71495633474944 26.32128702826126, -115.0812615037015 25.670875108366364 M-115.0812615037015 25.670875108366364 C-115.64757786282782 24.494907071411628, -116.21389422195413 23.318939034456896, -116.62490057737759 22.465475543292875 M-115.0812615037015 25.670875108366364 C-115.43523920622653 24.935832835163612, -115.78921690875157 24.200790561960865, -116.62490057737759 22.465475543292875 M-116.62490057737759 22.465475543292875 C-117.15605039275196 21.153525230235076, -117.68720020812634 19.841574917177272, -117.95999742376169 19.167760520382608 M-116.62490057737759 22.465475543292875 C-116.9459873411232 21.67238502905094, -117.26707410486881 20.879294514809008, -117.95999742376169 19.167760520382608 M-117.95999742376169 19.167760520382608 C-118.34787807533547 17.999525798231545, -118.73575872690925 16.831291076080483, -119.08106584353466 15.791281058022301 M-117.95999742376169 19.167760520382608 C-118.37567597553476 17.915802951825228, -118.79135452730782 16.663845383267848, -119.08106584353466 15.791281058022301 M-119.08106584353466 15.791281058022301 C-119.41011980572088 14.536455687316908, -119.7391737679071 13.281630316611512, -119.9834991260912 12.349911834575463 M-119.08106584353466 15.791281058022301 C-119.37892709771285 14.655407001956688, -119.67678835189105 13.519532945891076, -119.9834991260912 12.349911834575463 M-119.9834991260912 12.349911834575463 C-120.18589301273072 11.310662002644634, -120.38828689937024 10.271412170713804, -120.66358897950198 8.857794174352573 M-119.9834991260912 12.349911834575463 C-120.25252332164253 10.968529448703285, -120.52154751719385 9.587147062831104, -120.66358897950198 8.857794174352573 M-120.66358897950198 8.857794174352573 C-120.77442717299162 7.998155033123891, -120.88526536648126 7.138515891895209, -121.1185407686805 5.3292779378763795 M-120.66358897950198 8.857794174352573 C-120.83118343590442 7.557964665763994, -120.99877789230686 6.258135157175415, -121.1185407686805 5.3292779378763795 M-121.1185407686805 5.3292779378763795 C-121.19602703821097 4.1223667441482705, -121.27351330774144 2.9154555504201616, -121.34648499913817 1.7788625552268686 M-121.1185407686805 5.3292779378763795 C-121.17991890177338 4.3732639714174315, -121.24129703486626 3.4172500049584835, -121.34648499913817 1.7788625552268686 M-121.34648499913817 1.7788625552268686 C-121.34648499913817 1.054643672826933, -121.34648499913817 0.33042479042699746, -121.34648499913817 -1.7788625552268416 M-121.34648499913817 1.7788625552268686 C-121.34648499913817 0.4396822125200077, -121.34648499913817 -0.8994981301868532, -121.34648499913817 -1.7788625552268416 M-121.34648499913817 -1.7788625552268416 C-121.269316402731 -2.9808257336385298, -121.19214780632382 -4.182788912050217, -121.1185407686805 -5.329277937876303 M-121.34648499913817 -1.7788625552268416 C-121.28035645831143 -2.808867956600656, -121.2142279174847 -3.8388733579744696, -121.1185407686805 -5.329277937876303 M-121.1185407686805 -5.329277937876303 C-120.98749760330892 -6.345622851098316, -120.85645443793736 -7.361967764320329, -120.66358897950198 -8.857794174352547 M-121.1185407686805 -5.329277937876303 C-120.94334549861279 -6.688057856302345, -120.76815022854507 -8.046837774728388, -120.66358897950198 -8.857794174352547 M-120.66358897950198 -8.857794174352547 C-120.47278610291563 -9.837526619421206, -120.28198322632927 -10.817259064489868, -119.9834991260912 -12.349911834575437 M-120.66358897950198 -8.857794174352547 C-120.45225534537182 -9.942947720231517, -120.24092171124165 -11.028101266110488, -119.9834991260912 -12.349911834575437 M-119.9834991260912 -12.349911834575437 C-119.66435752933303 -13.566937059857366, -119.34521593257485 -14.783962285139296, -119.08106584353467 -15.791281058022273 M-119.9834991260912 -12.349911834575437 C-119.64361032633035 -13.646055136801255, -119.30372152656949 -14.942198439027075, -119.08106584353467 -15.791281058022273 M-119.08106584353467 -15.791281058022273 C-118.64545462858759 -17.10327263222121, -118.20984341364051 -18.415264206420144, -117.95999742376172 -19.167760520382537 M-119.08106584353467 -15.791281058022273 C-118.70860209487628 -16.913082524942073, -118.3361383462179 -18.03488399186187, -117.95999742376172 -19.167760520382537 M-117.95999742376172 -19.167760520382537 C-117.51524756470403 -20.266301270908585, -117.07049770564635 -21.364842021434637, -116.62490057737759 -22.46547554329285 M-117.95999742376172 -19.167760520382537 C-117.69055381456087 -19.833291444446438, -117.42111020536001 -20.49882236851034, -116.62490057737759 -22.46547554329285 M-116.62490057737759 -22.46547554329285 C-116.16788427470918 -23.414479674366188, -115.71086797204076 -24.36348380543953, -115.08126150370151 -25.67087510836634 M-116.62490057737759 -22.46547554329285 C-116.07647995775942 -23.604282694251452, -115.52805933814125 -24.743089845210054, -115.08126150370151 -25.67087510836634 M-115.08126150370151 -25.67087510836634 C-114.6890804958697 -26.367232200405066, -114.29689948803788 -27.06358929244379, -113.33542334679672 -28.770787541234153 M-115.08126150370151 -25.67087510836634 C-114.38654739849359 -26.904410349594382, -113.69183329328567 -28.137945590822426, -113.33542334679672 -28.770787541234153 M-113.33542334679672 -28.770787541234153 C-112.7304894915868 -29.700128390321495, -112.12555563637689 -30.629469239408838, -111.39456013013105 -31.752474636780416 M-113.33542334679672 -28.770787541234153 C-112.61771805224711 -29.8733756045188, -111.9000127576975 -30.975963667803445, -111.39456013013105 -31.752474636780416 M-111.39456013013105 -31.752474636780416 C-110.59920774125808 -32.81817437977697, -109.80385535238511 -33.88387412277353, -109.26664727697568 -34.6036840031597 M-111.39456013013105 -31.752474636780416 C-110.67766172576312 -32.713053187845254, -109.96076332139518 -33.67363173891009, -109.26664727697568 -34.6036840031597 M-109.26664727697568 -34.6036840031597 C-108.34659982108523 -35.68442409703193, -107.4265523651948 -36.76516419090415, -106.96042883768004 -37.31269940950306 M-109.26664727697568 -34.6036840031597 C-108.49364193638019 -35.511700061473086, -107.7206365957847 -36.41971611978647, -106.96042883768004 -37.31269940950306 M-106.96042883768004 -37.31269940950306 C-106.01557176865028 -38.28834190748433, -105.07071469962052 -39.26398440546561, -104.48538155849351 -39.86838893042385 M-106.96042883768004 -37.31269940950306 C-106.4268903943924 -37.86362165651838, -105.89335195110478 -38.4145439035337, -104.48538155849351 -39.86838893042385 M-104.48538155849351 -39.86838893042385 C-103.74837714376812 -40.53771683980921, -103.01137272904273 -41.20704474919457, -101.8516759395823 -42.260250689486924 M-104.48538155849351 -39.86838893042385 C-103.54872284766562 -40.7190375889663, -102.61206413683773 -41.56968624750876, -101.8516759395823 -42.260250689486924 M-101.8516759395823 -42.260250689486924 C-100.74336043232553 -43.1441028130099, -99.63504492506877 -44.027954936532886, -99.07013444226251 -44.47845601367158 M-101.8516759395823 -42.260250689486924 C-101.21732299125571 -42.76613028493647, -100.58297004292913 -43.27200988038602, -99.07013444226251 -44.47845601367158 M-99.07013444226251 -44.47845601367158 C-97.96137650280633 -45.25187755487859, -96.85261856335016 -46.025299096085604, -96.15218701718548 -46.51388982149714 M-99.07013444226251 -44.47845601367158 C-98.02070627641652 -45.21049167315264, -96.97127811057051 -45.942527332633695, -96.15218701718548 -46.51388982149714 M-96.15218701718548 -46.51388982149714 C-95.44987026190532 -46.93963836581935, -94.74755350662515 -47.36538691014156, -93.10982413621855 -48.35818807884811 M-96.15218701718548 -46.51388982149714 C-95.10806690010786 -47.146841572400476, -94.06394678303025 -47.779793323303814, -93.10982413621855 -48.35818807884811 M-93.10982413621855 -48.35818807884811 C-92.06181318446474 -48.904934721095024, -91.01380223271092 -49.45168136334194, -89.9555475210245 -50.003772168584256 M-93.10982413621855 -48.35818807884811 C-92.40726987324179 -48.724710187835605, -91.70471561026504 -49.091232296823094, -89.9555475210245 -50.003772168584256 M-89.9555475210245 -50.003772168584256 C-88.94191422128876 -50.45247756201376, -87.92828092155301 -50.90118295544326, -86.70231877080529 -51.44388003270419 M-89.9555475210245 -50.003772168584256 C-89.06124173304164 -50.399654812285625, -88.16693594505878 -50.795537455987, -86.70231877080529 -51.44388003270419 M-86.70231877080529 -51.44388003270419 C-85.45308630290194 -51.90360912867098, -84.20385383499858 -52.36333822463776, -83.36350610031099 -52.6725939590921 M-86.70231877080529 -51.44388003270419 C-85.38143845422591 -51.92997619928921, -84.06055813764654 -52.416072365874214, -83.36350610031099 -52.6725939590921 M-83.36350610031099 -52.6725939590921 C-82.09991988674 -53.047619714580584, -80.83633367316901 -53.422645470069064, -79.95282940697771 -53.68486489866611 M-83.36350610031099 -52.6725939590921 C-82.317999781071 -52.98289474666787, -81.27249346183102 -53.29319553424364, -79.95282940697771 -53.68486489866611 M-79.95282940697771 -53.68486489866611 C-79.23793801397933 -53.84803419401568, -78.52304662098095 -54.01120348936524, -76.48430389292619 -54.47653321300412 M-79.95282940697771 -53.68486489866611 C-79.2202791421712 -53.85206471627098, -78.48772887736466 -54.01926453387585, -76.48430389292619 -54.47653321300412 M-76.48430389292619 -54.47653321300412 C-75.41305800192559 -54.64972394102514, -74.34181211092498 -54.822914669046156, -72.97218247349012 -55.04434576719016 M-76.48430389292619 -54.47653321300412 C-75.38946683851238 -54.65353797737358, -74.29462978409856 -54.830542741743045, -72.97218247349012 -55.04434576719016 M-72.97218247349012 -55.04434576719016 C-71.73170007769343 -55.164013612014315, -70.49121768189674 -55.283681456838465, -69.43089720892957 -55.38596929764367 M-72.97218247349012 -55.04434576719016 C-71.62552588214025 -55.174256108966176, -70.27886929079038 -55.304166450742194, -69.43089720892957 -55.38596929764367 M-69.43089720892957 -55.38596929764367 C-68.48753189075022 -55.41622118724848, -67.54416657257089 -55.446473076853295, -65.87500000000001 -55.5 M-69.43089720892957 -55.38596929764367 C-68.01788315356372 -55.43128190813424, -66.60486909819788 -55.476594518624815, -65.87500000000001 -55.5 M-65.87500000000001 -55.5 C-65.87500000000001 -55.5, -65.875 -55.5, -65.875 -55.5 M-65.87500000000001 -55.5 C-65.87500000000001 -55.5, -65.875 -55.5, -65.875 -55.5" stroke="#9370DB" stroke-width="1.3" fill="none" stroke-dasharray="0 0" style=""/></g><g class="label" style="" transform="translate(-100, -48)"><rect/><foreignObject width="200" height="96"><div xmlns="http://www.w3.org/1999/xhtml" style="display: table; white-space: break-spaces; line-height: 1.5; max-width: 200px; text-align: center; width: 200px;"><span class="nodeLabel"><p>Section 377BA: Word or gesture intended to insult modesty of any person (eff:...</p></span></div></foreignObject></g></g><g class="node default" id="my-svg-flowchart-GRP2-1" data-look="classic" transform="translate(138, 188.5)"><polygon points="9.75,0 174.359375,0 184.109375,-19.5 174.359375,-39 9.75,-39 0,-19.5" class="label-container" transform="translate(-92.0546875,19.5)"/><g class="label" style="" transform="translate(-74.8046875, -12)"><rect/><foreignObject width="149.609375" height="24"><div xmlns="http://www.w3.org/1999/xhtml" style="display: table-cell; white-space: nowrap; line-height: 1.5; max-width: 200px; text-align: center;"><span class="nodeLabel"><p>ALL OF (conjunctive)</p></span></div></foreignObject></g></g><g class="node default" id="my-svg-flowchart-ELEM3-4" data-look="classic" transform="translate(138, 297)"><rect class="basic label-container" style="" x="-130" y="-39" width="260" height="78"/><g class="label" style="" transform="translate(-100, -24)"><rect/><foreignObject width="200" height="48"><div xmlns="http://www.w3.org/1999/xhtml" style="display: table; white-space: break-spaces; line-height: 1.5; max-width: 200px; text-align: center; width: 200px;"><span class="nodeLabel"><p>Intending to insult the modesty of any person</p></span></div></foreignObject></g></g><g class="node default" id="my-svg-flowchart-GRP4-7" data-look="classic" transform="translate(138, 405.5)"><polygon points="9.75,0 209.140625,0 218.890625,-19.5 209.140625,-39 9.75,-39 0,-19.5" class="label-container" transform="translate(-109.4453125,19.5)"/><g class="label" style="" transform="translate(-92.1953125, -12)"><rect/><foreignObject width="184.390625" height="24"><div xmlns="http://www.w3.org/1999/xhtml" style="display: table-cell; white-space: nowrap; line-height: 1.5; max-width: 200px; text-align: center;"><span class="nodeLabel"><p>ANY OF (alternative limb)</p></span></div></foreignObject></g></g><g class="node default" id="my-svg-flowchart-GRP5-10" data-look="classic" transform="translate(138, 494.5)"><polygon points="9.75,0 174.359375,0 184.109375,-19.5 174.359375,-39 9.75,-39 0,-19.5" class="label-container" transform="translate(-92.0546875,19.5)"/><g class="label" style="" transform="translate(-74.8046875, -12)"><rect/><foreignObject width="149.609375" height="24"><div xmlns="http://www.w3.org/1999/xhtml" style="display: table-cell; white-space: nowrap; line-height: 1.5; max-width: 200px; text-align: center;"><span class="nodeLabel"><p>ALL OF (conjunctive)</p></span></div></foreignObject></g></g><g class="node default" id="my-svg-flowchart-GRP6-13" data-look="classic" transform="translate(138, 583.5)"><polygon points="9.75,0 209.140625,0 218.890625,-19.5 209.140625,-39 9.75,-39 0,-19.5" class="label-container" transform="translate(-109.4453125,19.5)"/><g class="label" style="" transform="translate(-92.1953125, -12)"><rect/><foreignObject width="184.390625" height="24"><div xmlns="http://www.w3.org/1999/xhtml" style="display: table-cell; white-space: nowrap; line-height: 1.5; max-width: 200px; text-align: center;"><span class="nodeLabel"><p>ANY OF (alternative limb)</p></span></div></foreignObject></g></g><g class="node default" id="my-svg-flowchart-ELEM7-16" data-look="classic" transform="translate(138, 680)"><rect class="basic label-container" style="" x="-87.3984375" y="-27" width="174.796875" height="54"/><g class="label" style="" transform="translate(-57.3984375, -12)"><rect/><foreignObject width="114.796875" height="24"><div xmlns="http://www.w3.org/1999/xhtml" style="display: table-cell; white-space: nowrap; line-height: 1.5; max-width: 200px; text-align: center;"><span class="nodeLabel"><p>Utters any word</p></span></div></foreignObject></g></g><g class="node default" id="my-svg-flowchart-ELEM8-19" data-look="classic" transform="translate(138, 784)"><rect class="basic label-container" style="" x="-89.5859375" y="-27" width="179.171875" height="54"/><g class="label" style="" transform="translate(-59.5859375, -12)"><rect/><foreignObject width="119.171875" height="24"><div xmlns="http://www.w3.org/1999/xhtml" style="display: table-cell; white-space: nowrap; line-height: 1.5; max-width: 200px; text-align: center;"><span class="nodeLabel"><p>Makes any sound</p></span></div></foreignObject></g></g><g class="node default" id="my-svg-flowchart-ELEM9-22" data-look="classic" transform="translate(138, 912)"><rect class="basic label-container" style="" x="-130" y="-51" width="260" height="102"/><g class="label" style="" transform="translate(-100, -36)"><rect/><foreignObject width="200" height="72"><div xmlns="http://www.w3.org/1999/xhtml" style="display: table; white-space: break-spaces; line-height: 1.5; max-width: 200px; text-align: center; width: 200px;"><span class="nodeLabel"><p>Intending that such word or sound will be heard by such person</p></span></div></foreignObject></g></g><g class="node default" id="my-svg-flowchart-GRP10-25" data-look="classic" transform="translate(138, 1032.5)"><polygon points="9.75,0 174.359375,0 184.109375,-19.5 174.359375,-39 9.75,-39 0,-19.5" class="label-container" transform="translate(-92.0546875,19.5)"/><g class="label" style="" transform="translate(-74.8046875, -12)"><rect/><foreignObject width="149.609375" height="24"><div xmlns="http://www.w3.org/1999/xhtml" style="display: table-cell; white-space: nowrap; line-height: 1.5; max-width: 200px; text-align: center;"><span class="nodeLabel"><p>ALL OF (conjunctive)</p></span></div></foreignObject></g></g><g class="node default" id="my-svg-flowchart-GRP11-28" data-look="classic" transform="translate(138, 1121.5)"><polygon points="9.75,0 209.140625,0 218.890625,-19.5 209.140625,-39 9.75,-39 0,-19.5" class="label-container" transform="translate(-109.4453125,19.5)"/><g class="label" style="" transform="translate(-92.1953125, -12)"><rect/><foreignObject width="184.390625" height="24"><div xmlns="http://www.w3.org/1999/xhtml" style="display: table-cell; white-space: nowrap; line-height: 1.5; max-width: 200px; text-align: center;"><span class="nodeLabel"><p>ANY OF (alternative limb)</p></span></div></foreignObject></g></g><g class="node default" id="my-svg-flowchart-ELEM12-31" data-look="classic" transform="translate(138, 1218)"><rect class="basic label-container" style="" x="-95.4921875" y="-27" width="190.984375" height="54"/><g class="label" style="" transform="translate(-65.4921875, -12)"><rect/><foreignObject width="130.984375" height="24"><div xmlns="http://www.w3.org/1999/xhtml" style="display: table-cell; white-space: nowrap; line-height: 1.5; max-width: 200px; text-align: center;"><span class="nodeLabel"><p>Makes any gesture</p></span></div></foreignObject></g></g><g class="node default" id="my-svg-flowchart-ELEM13-34" data-look="classic" transform="translate(138, 1322)"><rect class="basic label-container" style="" x="-98.6171875" y="-27" width="197.234375" height="54"/><g class="label" style="" transform="translate(-68.6171875, -12)"><rect/><foreignObject width="137.234375" height="24"><div xmlns="http://www.w3.org/1999/xhtml" style="display: table-cell; white-space: nowrap; line-height: 1.5; max-width: 200px; text-align: center;"><span class="nodeLabel"><p>Exhibits any object</p></span></div></foreignObject></g></g><g class="node default" id="my-svg-flowchart-ELEM14-37" data-look="classic" transform="translate(138, 1450)"><rect class="basic label-container" style="" x="-130" y="-51" width="260" height="102"/><g class="label" style="" transform="translate(-100, -36)"><rect/><foreignObject width="200" height="72"><div xmlns="http://www.w3.org/1999/xhtml" style="display: table; white-space: break-spaces; line-height: 1.5; max-width: 200px; text-align: center; width: 200px;"><span class="nodeLabel"><p>Intending that such gesture or object will be seen by such person</p></span></div></foreignObject></g></g><g class="node default" id="my-svg-flowchart-ELEM15-40" data-look="classic" transform="translate(138, 1590)"><rect class="basic label-container" style="" x="-130" y="-39" width="260" height="78"/><g class="label" style="" transform="translate(-100, -24)"><rect/><foreignObject width="200" height="48"><div xmlns="http://www.w3.org/1999/xhtml" style="display: table; white-space: break-spaces; line-height: 1.5; max-width: 200px; text-align: center; width: 200px;"><span class="nodeLabel"><p>Intrudes upon the privacy of such person</p></span></div></foreignObject></g></g><g class="node default" id="my-svg-flowchart-PENALTY16-43" data-look="classic" transform="translate(138, 1698.5)"><polygon points="0,0 204.828125,0 204.828125,-39 0,-39 0,0 -8,0 212.828125,0 212.828125,-39 -8,-39 -8,0" class="label-container" transform="translate(-102.4140625,19.5)"/><g class="label" style="" transform="translate(-94.9140625, -12)"><rect/><foreignObject width="189.828125" height="24"><div xmlns="http://www.w3.org/1999/xhtml" style="display: table-cell; white-space: nowrap; line-height: 1.5; max-width: 200px; text-align: center;"><span class="nodeLabel"><p>Imprisonment up to 1 year</p></span></div></foreignObject></g></g></g></g></g><defs><filter id="my-svg-drop-shadow" height="130%" width="130%"><feDropShadow dx="4" dy="4" stdDeviation="0" flood-opacity="0.06" flood-color="#000000"/></filter></defs><defs><filter id="my-svg-drop-shadow-small" height="150%" width="150%"><feDropShadow dx="2" dy="2" stdDeviation="0" flood-opacity="0.06" flood-color="#000000"/></filter></defs></svg>