<svg class="yuho-mermaid-svg" id="my-svg" width="100%" xmlns="http://www.w3.org/2000/svg" xmlns:xlink="http://www.w3.org/1999/xlink" class="flowchart" style="max-width: 276px; background-color: transparent;" viewBox="0 0 276 1050" role="graphics-document document" aria-roledescription="flowchart-v2"><style>#my-svg{font-family:"trebuchet ms",verdana,arial,sans-serif;font-size:16px;fill:#333;}@keyframes edge-animation-frame{from{stroke-dashoffset:0;}}@keyframes dash{to{stroke-dashoffset:0;}}#my-svg .edge-animation-slow{stroke-dasharray:9,5!important;stroke-dashoffset:900;animation:dash 50s linear infinite;stroke-linecap:round;}#my-svg .edge-animation-fast{stroke-dasharray:9,5!important;stroke-dashoffset:900;animation:dash 20s linear infinite;stroke-linecap:round;}#my-svg .error-icon{fill:#552222;}#my-svg .error-text{fill:#552222;stroke:#552222;}#my-svg .edge-thickness-normal{stroke-width:1px;}#my-svg .edge-thickness-thick{stroke-width:3.5px;}#my-svg .edge-pattern-solid{stroke-dasharray:0;}#my-svg .edge-thickness-invisible{stroke-width:0;fill:none;}#my-svg .edge-pattern-dashed{stroke-dasharray:3;}#my-svg .edge-pattern-dotted{stroke-dasharray:2;}#my-svg .marker{fill:#333333;stroke:#333333;}#my-svg .marker.cross{stroke:#333333;}#my-svg svg{font-family:"trebuchet ms",verdana,arial,sans-serif;font-size:16px;}#my-svg p{margin:0;}#my-svg .label{font-family:"trebuchet ms",verdana,arial,sans-serif;color:#333;}#my-svg .cluster-label text{fill:#333;}#my-svg .cluster-label span{color:#333;}#my-svg .cluster-label span p{background-color:transparent;}#my-svg .label text,#my-svg span{fill:#333;color:#333;}#my-svg .node rect,#my-svg .node circle,#my-svg .node ellipse,#my-svg .node polygon,#my-svg .node path{fill:#ECECFF;stroke:#9370DB;stroke-width:1px;}#my-svg .rough-node .label text,#my-svg .node .label text,#my-svg .image-shape .label,#my-svg .icon-shape .label{text-anchor:middle;}#my-svg .node .katex path{fill:#000;stroke:#000;stroke-width:1px;}#my-svg .rough-node .label,#my-svg .node .label,#my-svg .image-shape .label,#my-svg .icon-shape .label{text-align:center;}#my-svg .node.clickable{cursor:pointer;}#my-svg .root .anchor path{fill:#333333!important;stroke-width:0;stroke:#333333;}#my-svg .arrowheadPath{fill:#333333;}#my-svg .edgePath .path{stroke:#333333;stroke-width:1px;}#my-svg .flowchart-link{stroke:#333333;fill:none;}#my-svg .edgeLabel{background-color:rgba(232,232,232, 0.8);text-align:center;}#my-svg .edgeLabel p{background-color:rgba(232,232,232, 0.8);}#my-svg .edgeLabel rect{opacity:0.5;background-color:rgba(232,232,232, 0.8);fill:rgba(232,232,232, 0.8);}#my-svg .labelBkg{background-color:rgba(232, 232, 232, 0.5);}#my-svg .cluster rect{fill:#ffffde;stroke:#aaaa33;stroke-width:1px;}#my-svg .cluster text{fill:#333;}#my-svg .cluster span{color:#333;}#my-svg div.mermaidTooltip{position:absolute;text-align:center;max-width:200px;padding:2px;font-family:"trebuchet ms",verdana,arial,sans-serif;font-size:12px;background:hsl(80, 100%, 96.2745098039%);border:1px solid #aaaa33;border-radius:2px;pointer-events:none;z-index:100;}#my-svg .flowchartTitleText{text-anchor:middle;font-size:18px;fill:#333;}#my-svg rect.text{fill:none;stroke-width:0;}#my-svg .icon-shape,#my-svg .image-shape{background-color:rgba(232,232,232, 0.8);text-align:center;}#my-svg .icon-shape p,#my-svg .image-shape p{background-color:rgba(232,232,232, 0.8);padding:2px;}#my-svg .icon-shape .label rect,#my-svg .image-shape .label rect{opacity:0.5;background-color:rgba(232,232,232, 0.8);fill:rgba(232,232,232, 0.8);}#my-svg .label-icon{display:inline-block;height:1em;overflow:visible;vertical-align:-0.125em;}#my-svg .node .label-icon path{fill:currentColor;stroke:revert;stroke-width:revert;}#my-svg .node .neo-node{stroke:#9370DB;}#my-svg [data-look="neo"].node rect,#my-svg [data-look="neo"].cluster rect,#my-svg [data-look="neo"].node polygon{stroke:#9370DB;filter:drop-shadow(1px 2px 2px rgba(185, 185, 185, 1));}#my-svg [data-look="neo"].node path{stroke:#9370DB;stroke-width:1px;}#my-svg [data-look="neo"].node .outer-path{filter:drop-shadow(1px 2px 2px rgba(185, 185, 185, 1));}#my-svg [data-look="neo"].node .neo-line path{stroke:#9370DB;filter:none;}#my-svg [data-look="neo"].node circle{stroke:#9370DB;filter:drop-shadow(1px 2px 2px rgba(185, 185, 185, 1));}#my-svg [data-look="neo"].node circle .state-start{fill:#000000;}#my-svg [data-look="neo"].icon-shape .icon{fill:#9370DB;filter:drop-shadow(1px 2px 2px rgba(185, 185, 185, 1));}#my-svg [data-look="neo"].icon-shape .icon-neo path{stroke:#9370DB;filter:drop-shadow(1px 2px 2px rgba(185, 185, 185, 1));}#my-svg :root{--mermaid-font-family:"trebuchet ms",verdana,arial,sans-serif;}</style><g><marker id="my-svg_flowchart-v2-pointEnd" class="marker flowchart-v2" viewBox="0 0 10 10" refX="5" refY="5" markerUnits="userSpaceOnUse" markerWidth="8" markerHeight="8" orient="auto"><path d="M 0 0 L 10 5 L 0 10 z" class="arrowMarkerPath" style="stroke-width: 1; stroke-dasharray: 1, 0;"/></marker><marker id="my-svg_flowchart-v2-pointStart" class="marker flowchart-v2" viewBox="0 0 10 10" refX="4.5" refY="5" markerUnits="userSpaceOnUse" markerWidth="8" markerHeight="8" orient="auto"><path d="M 0 5 L 10 10 L 10 0 z" class="arrowMarkerPath" style="stroke-width: 1; stroke-dasharray: 1, 0;"/></marker><marker id="my-svg_flowchart-v2-pointEnd-margin" class="marker flowchart-v2" viewBox="0 0 11.5 14" refX="11.5" refY="7" markerUnits="userSpaceOnUse" markerWidth="10.5" markerHeight="14" orient="auto"><path d="M 0 0 L 11.5 7 L 0 14 z" class="arrowMarkerPath" style="stroke-width: 0; stroke-dasharray: 1, 0;"/></marker><marker id="my-svg_flowchart-v2-pointStart-margin" class="marker flowchart-v2" viewBox="0 0 11.5 14" refX="1" refY="7" markerUnits="userSpaceOnUse" markerWidth="11.5" markerHeight="14" orient="auto"><polygon points="0,7 11.5,14 11.5,0" class="arrowMarkerPath" style="stroke-width: 0; stroke-dasharray: 1, 0;"/></marker><marker id="my-svg_flowchart-v2-circleEnd" class="marker flowchart-v2" viewBox="0 0 10 10" refX="11" refY="5" markerUnits="userSpaceOnUse" markerWidth="11" markerHeight="11" orient="auto"><circle cx="5" cy="5" r="5" class="arrowMarkerPath" style="stroke-width: 1; stroke-dasharray: 1, 0;"/></marker><marker id="my-svg_flowchart-v2-circleStart" class="marker flowchart-v2" viewBox="0 0 10 10" refX="-1" refY="5" markerUnits="userSpaceOnUse" markerWidth="11" markerHeight="11" orient="auto"><circle cx="5" cy="5" r="5" class="arrowMarkerPath" style="stroke-width: 1; stroke-dasharray: 1, 0;"/></marker><marker id="my-svg_flowchart-v2-circleEnd-margin" class="marker flowchart-v2" viewBox="0 0 10 10" refY="5" refX="12.25" markerUnits="userSpaceOnUse" markerWidth="14" markerHeight="14" orient="auto"><circle cx="5" cy="5" r="5" class="arrowMarkerPath" style="stroke-width: 0; stroke-dasharray: 1, 0;"/></marker><marker id="my-svg_flowchart-v2-circleStart-margin" class="marker flowchart-v2" viewBox="0 0 10 10" refX="-2" refY="5" markerUnits="userSpaceOnUse" markerWidth="14" markerHeight="14" orient="auto"><circle cx="5" cy="5" r="5" class="arrowMarkerPath" style="stroke-width: 0; stroke-dasharray: 1, 0;"/></marker><marker id="my-svg_flowchart-v2-crossEnd" class="marker cross flowchart-v2" viewBox="0 0 11 11" refX="12" refY="5.2" markerUnits="userSpaceOnUse" markerWidth="11" markerHeight="11" orient="auto"><path d="M 1,1 l 9,9 M 10,1 l -9,9" class="arrowMarkerPath" style="stroke-width: 2; stroke-dasharray: 1, 0;"/></marker><marker id="my-svg_flowchart-v2-crossStart" class="marker cross flowchart-v2" viewBox="0 0 11 11" refX="-1" refY="5.2" markerUnits="userSpaceOnUse" markerWidth="11" markerHeight="11" orient="auto"><path d="M 1,1 l 9,9 M 10,1 l -9,9" class="arrowMarkerPath" style="stroke-width: 2; stroke-dasharray: 1, 0;"/></marker><marker id="my-svg_flowchart-v2-crossEnd-margin" class="marker cross flowchart-v2" viewBox="0 0 15 15" refX="17.7" refY="7.5" markerUnits="userSpaceOnUse" markerWidth="12" markerHeight="12" orient="auto"><path d="M 1,1 L 14,14 M 1,14 L 14,1" class="arrowMarkerPath" style="stroke-width: 2.5;"/></marker><marker id="my-svg_flowchart-v2-crossStart-margin" class="marker cross flowchart-v2" viewBox="0 0 15 15" refX="-3.5" refY="7.5" markerUnits="userSpaceOnUse" markerWidth="12" markerHeight="12" orient="auto"><path d="M 1,1 L 14,14 M 1,14 L 14,1" class="arrowMarkerPath" style="stroke-width: 2.5; stroke-dasharray: 1, 0;"/></marker><g class="root"><g class="clusters"/><g class="edgePaths"><path d="M138.5,119.5L138.417,123.583C138.333,127.667,138.167,135.833,138.154,143.5C138.141,151.167,138.281,158.334,138.351,161.917L138.422,165.501" id="my-svg-L_START1_GRP2_0" class="edge-thickness-normal edge-pattern-solid edge-thickness-normal edge-pattern-solid flowchart-link" style=";" data-edge="true" data-et="edge" data-id="L_START1_GRP2_0" data-points="W3sieCI6MTM4LjUsInkiOjExOS41fSx7IngiOjEzOCwieSI6MTQ0fSx7IngiOjEzOC41LCJ5IjoxNjkuNX1d" data-look="classic" marker-end="url(#my-svg_flowchart-v2-pointEnd)"/><path d="M138.5,208.5L138.417,212.583C138.333,216.667,138.167,224.833,138.083,232.417C138,240,138,247,138,250.5L138,254" id="my-svg-L_GRP2_ELEM3_0" class="edge-thickness-normal edge-pattern-solid edge-thickness-normal edge-pattern-solid flowchart-link" style=";" data-edge="true" data-et="edge" data-id="L_GRP2_ELEM3_0" data-points="W3sieCI6MTM4LjUsInkiOjIwOC41fSx7IngiOjEzOCwieSI6MjMzfSx7IngiOjEzOCwieSI6MjU4fV0=" data-look="classic" marker-end="url(#my-svg_flowchart-v2-pointEnd)"/><path d="M138,360L138,364.167C138,368.333,138,376.667,138.07,384.417C138.141,392.167,138.281,399.334,138.351,402.917L138.422,406.501" id="my-svg-L_ELEM3_GRP4_0" class="edge-thickness-normal edge-pattern-solid edge-thickness-normal edge-pattern-solid flowchart-link" style=";" data-edge="true" data-et="edge" data-id="L_ELEM3_GRP4_0" data-points="W3sieCI6MTM4LCJ5IjozNjB9LHsieCI6MTM4LCJ5IjozODV9LHsieCI6MTM4LjUsInkiOjQxMC41fV0=" data-look="classic" marker-end="url(#my-svg_flowchart-v2-pointEnd)"/><path d="M138.5,449.5L138.417,453.583C138.333,457.667,138.167,465.833,138.083,473.417C138,481,138,488,138,491.5L138,495" id="my-svg-L_GRP4_ELEM5_0" class="edge-thickness-normal edge-pattern-solid edge-thickness-normal edge-pattern-solid flowchart-link" style=";" data-edge="true" data-et="edge" data-id="L_GRP4_ELEM5_0" data-points="W3sieCI6MTM4LjUsInkiOjQ0OS41fSx7IngiOjEzOCwieSI6NDc0fSx7IngiOjEzOCwieSI6NDk5fV0=" data-look="classic" marker-end="url(#my-svg_flowchart-v2-pointEnd)"/><path d="M138,601L138,605.167C138,609.333,138,617.667,138,625.333C138,633,138,640,138,643.5L138,647" id="my-svg-L_ELEM5_ELEM6_0" class="edge-thickness-normal edge-pattern-solid edge-thickness-normal edge-pattern-solid flowchart-link" style=";" data-edge="true" data-et="edge" data-id="L_ELEM5_ELEM6_0" data-points="W3sieCI6MTM4LCJ5Ijo2MDF9LHsieCI6MTM4LCJ5Ijo2MjZ9LHsieCI6MTM4LCJ5Ijo2NTF9XQ==" data-look="classic" marker-end="url(#my-svg_flowchart-v2-pointEnd)"/><path d="M138,753L138,757.167C138,761.333,138,769.667,138,777.333C138,785,138,792,138,795.5L138,799" id="my-svg-L_ELEM6_ELEM7_0" class="edge-thickness-normal edge-pattern-solid edge-thickness-normal edge-pattern-solid flowchart-link" style=";" data-edge="true" data-et="edge" data-id="L_ELEM6_ELEM7_0" data-points="W3sieCI6MTM4LCJ5Ijo3NTN9LHsieCI6MTM4LCJ5Ijo3Nzh9LHsieCI6MTM4LCJ5Ijo4MDN9XQ==" data-look="classic" marker-end="url(#my-svg_flowchart-v2-pointEnd)"/><path d="M138,929L138,933.167C138,937.333,138,945.667,138.07,953.417C138.141,961.167,138.281,968.334,138.351,971.917L138.422,975.501" id="my-svg-L_ELEM7_PENALTY8_0" class="edge-thickness-normal edge-pattern-solid edge-thickness-normal edge-pattern-solid flowchart-link" style=";" data-edge="true" data-et="edge" data-id="L_ELEM7_PENALTY8_0" data-points="W3sieCI6MTM4LCJ5Ijo5Mjl9LHsieCI6MTM4LCJ5Ijo5NTR9LHsieCI6MTM4LjUsInkiOjk3OS41fV0=" data-look="classic" marker-end="url(#my-svg_flowchart-v2-pointEnd)"/></g><g class="edgeLabels"><g class="edgeLabel"><g class="label" data-id="L_START1_GRP2_0" transform="translate(0, 0)"><foreignObject width="0" height="0"><div xmlns="http://www.w3.org/1999/xhtml" class="labelBkg" style="display: table-cell; white-space: nowrap; line-height: 1.5; max-width: 200px; text-align: center;"><span class="edgeLabel"></span></div></foreignObject></g></g><g class="edgeLabel"><g class="label" data-id="L_GRP2_ELEM3_0" transform="translate(0, 0)"><foreignObject width="0" height="0"><div xmlns="http://www.w3.org/1999/xhtml" class="labelBkg" style="display: table-cell; white-space: nowrap; line-height: 1.5; max-width: 200px; text-align: center;"><span class="edgeLabel"></span></div></foreignObject></g></g><g class="edgeLabel"><g class="label" data-id="L_ELEM3_GRP4_0" transform="translate(0, 0)"><foreignObject width="0" height="0"><div xmlns="http://www.w3.org/1999/xhtml" class="labelBkg" style="display: table-cell; white-space: nowrap; line-height: 1.5; max-width: 200px; text-align: center;"><span class="edgeLabel"></span></div></foreignObject></g></g><g class="edgeLabel"><g class="label" data-id="L_GRP4_ELEM5_0" transform="translate(0, 0)"><foreignObject width="0" height="0"><div xmlns="http://www.w3.org/1999/xhtml" class="labelBkg" style="display: table-cell; white-space: nowrap; line-height: 1.5; max-width: 200px; text-align: center;"><span class="edgeLabel"></span></div></foreignObject></g></g><g class="edgeLabel"><g class="label" data-id="L_ELEM5_ELEM6_0" transform="translate(0, 0)"><foreignObject width="0" height="0"><div xmlns="http://www.w3.org/1999/xhtml" class="labelBkg" style="display: table-cell; white-space: nowrap; line-height: 1.5; max-width: 200px; text-align: center;"><span class="edgeLabel"></span></div></foreignObject></g></g><g class="edgeLabel"><g class="label" data-id="L_ELEM6_ELEM7_0" transform="translate(0, 0)"><foreignObject width="0" height="0"><div xmlns="http://www.w3.org/1999/xhtml" class="labelBkg" style="display: table-cell; white-space: nowrap; line-height: 1.5; max-width: 200px; text-align: center;"><span class="edgeLabel"></span></div></foreignObject></g></g><g class="edgeLabel"><g class="label" data-id="L_ELEM7_PENALTY8_0" transform="translate(0, 0)"><foreignObject width="0" height="0"><div xmlns="http://www.w3.org/1999/xhtml" class="labelBkg" style="display: table-cell; white-space: nowrap; line-height: 1.5; max-width: 200px; text-align: center;"><span class="edgeLabel"></span></div></foreignObject></g></g></g><g class="nodes"><g class="node default" id="my-svg-flowchart-START1-0" data-look="classic" transform="translate(138, 63.5)"><g class="basic label-container outer-path"><path d="M-65.875 -55.5 C-16.09416310182553 -55.5, 33.68667379634894 -55.5, 65.875 -55.5 C65.875 -55.5, 65.875 -55.5, 65.875 -55.5 C66.84533095400286 -55.46888337493976, 67.81566190800571 -55.43776674987951, 69.43089720892957 -55.38596929764367 C70.1875311888388 -55.312977727587324, 70.94416516874806 -55.23998615753097, 72.97218247349008 -55.044345767190165 C73.68232817150947 -54.92953491799653, 74.39247386952884 -54.814724068802896, 76.48430389292615 -54.47653321300413 C77.85530699791327 -54.163610700922185, 79.22631010290041 -53.85068818884024, 79.95282940697766 -53.684864898666135 C81.04970419934055 -53.3593182179061, 82.14657899170345 -53.03377153714607, 83.36350610031094 -52.67259395909211 C84.42419860617171 -52.282249312001305, 85.48489111203249 -51.8919046649105, 86.70231877080526 -51.44388003270421 C87.7855811486667 -50.96435191186168, 88.86884352652811 -50.484823791019146, 89.95554752102447 -50.00377216858426 C90.74572801375191 -49.59153551166312, 91.53590850647936 -49.179298854741965, 93.10982413621853 -48.358188078848116 C93.96360101159439 -47.84062351964543, 94.81737788697025 -47.32305896044275, 96.15218701718544 -46.51388982149716 C97.12332983246034 -45.836462633656296, 98.09447264773524 -45.159035445815434, 99.07013444226249 -44.47845601367159 C100.0782513761207 -43.67450958603793, 101.08636830997894 -42.87056315840427, 101.85167593958224 -42.260250689486966 C102.46116278166129 -41.706730865648936, 103.07064962374034 -41.1532110418109, 104.48538155849349 -39.86838893042388 C105.00199022878012 -39.33494806399232, 105.51859889906673 -38.80150719756075, 106.96042883768001 -37.3126994095031 C107.70504637812044 -36.43802927656342, 108.44966391856087 -35.56335914362374, 109.26664727697565 -34.603684003159714 C110.0045764257762 -33.61492617049542, 110.74250557457674 -32.62616833783113, 111.39456013013104 -31.752474636780427 C112.05952484506511 -30.730910266613858, 112.72448955999918 -29.70934589644729, 113.33542334679672 -28.770787541234146 C113.81467322005642 -27.91983086194953, 114.29392309331612 -27.068874182664917, 115.08126150370151 -25.670875108366356 C115.49153670003568 -24.818929884695528, 115.90181189636985 -23.966984661024703, 116.62490057737759 -22.46547554329287 C116.997785911584 -21.544441558555516, 117.37067124579043 -20.623407573818156, 117.95999742376169 -19.1677605203826 C118.24618437650622 -18.305811016414708, 118.53237132925075 -17.443861512446816, 119.08106584353466 -15.791281058022316 C119.381546031619 -14.645419871919456, 119.68202621970332 -13.499558685816599, 119.9834991260912 -12.349911834575455 C120.12937445820421 -11.600872834937539, 120.27524979031722 -10.851833835299622, 120.66358897950198 -8.857794174352568 C120.8086355260733 -7.732841801825762, 120.95368207264461 -6.607889429298956, 121.1185407686805 -5.3292779378763475 C121.20643230717003 -3.9602962811288385, 121.29432384565958 -2.5913146243813294, 121.34648499913817 -1.7788625552268618 C121.34648499913817 -1.01779996488305, 121.34648499913817 -0.2567373745392385, 121.34648499913817 1.7788625552268482 C121.27235866653665 2.933440019194299, 121.19823233393514 4.0880174831617495, 121.1185407686805 5.32927793787631 C120.97509677276246 6.441801243995787, 120.83165277684441 7.554324550115265, 120.66358897950198 8.857794174352529 C120.43733224027427 10.01957471090804, 120.21107550104657 11.181355247463554, 119.9834991260912 12.349911834575442 C119.68885360734141 13.47352289774402, 119.39420808859163 14.597133960912599, 119.08106584353467 15.79128105802228 C118.76351497647303 16.747693674752213, 118.44596410941138 17.704106291482145, 117.9599974237617 19.16776052038256 C117.60239215538412 20.0510524471027, 117.24478688700655 20.93434437382283, 116.62490057737759 22.465475543292854 C116.084142268372 23.588371742317214, 115.54338395936644 24.71126794134158, 115.08126150370151 25.670875108366346 C114.39333828035906 26.892352451190877, 113.70541505701661 28.11382979401541, 113.33542334679672 28.770787541234135 C112.574730654359 29.939415791407523, 111.81403796192127 31.108044041580914, 111.39456013013105 31.7524746367804 C110.92238016543367 32.38515277299518, 110.45020020073629 33.017830909209955, 109.26664727697566 34.6036840031597 C108.47328326535222 35.53561451490371, 107.67991925372878 36.467545026647734, 106.96042883768003 37.31269940950306 C106.30371549193686 37.990809856151294, 105.64700214619369 38.66892030279953, 104.48538155849351 39.86838893042387 C103.5265024014248 40.73921761032144, 102.5676232443561 41.61004629021901, 101.8516759395823 42.26025068948693 C100.7918745026254 43.10541413295938, 99.73207306566852 43.95057757643184, 99.0701344422625 44.47845601367158 C98.40891408088186 44.939694714002606, 97.74769371950123 45.40093341433363, 96.15218701718548 46.51388982149714 C95.28532316760746 47.039387781368774, 94.41845931802943 47.5648857412404, 93.10982413621855 48.358188078848116 C92.45851310887612 48.69797662462803, 91.8072020815337 49.03776517040795, 89.95554752102449 50.003772168584256 C88.76860945189144 50.52919444252262, 87.58167138275839 51.05461671646099, 86.70231877080529 51.4438800327042 C85.6021111403651 51.84876661091404, 84.5019035099249 52.25365318912388, 83.36350610031099 52.6725939590921 C82.36459636831387 52.96906512416466, 81.36568663631675 53.265536289237225, 79.95282940697771 53.68486489866612 C78.88287516719843 53.92907497179181, 77.81292092741917 54.173285044917506, 76.48430389292618 54.476533213004124 C75.47913583251388 54.639040989816856, 74.47396777210157 54.80154876662959, 72.97218247349011 55.04434576719016 C72.00849304652951 55.13731172720294, 71.04480361956891 55.230277687215725, 69.43089720892957 55.38596929764367 C68.45567413989929 55.41724280331092, 67.480451070869 55.44851630897817, 65.87500000000001 55.5 C65.87500000000001 55.5, 65.875 55.5, 65.875 55.5 C34.762342401912356 55.5, 3.6496848038247123 55.5, -65.87499999999999 55.5 C-67.2704026902112 55.4552521517115, -68.6658053804224 55.41050430342299, -69.43089720892954 55.38596929764367 C-70.14647293043944 55.31693856839532, -70.86204865194937 55.247907839146976, -72.9721824734901 55.04434576719016 C-74.2871571647848 54.831750856882664, -75.60213185607952 54.61915594657517, -76.48430389292616 54.476533213004124 C-77.62533372675517 54.216100599348174, -78.76636356058417 53.95566798569223, -79.95282940697764 53.684864898666135 C-81.2671036609958 53.294795198839886, -82.58137791501396 52.90472549901363, -83.36350610031091 52.67259395909212 C-84.2470056735833 52.347457949147355, -85.1305052468557 52.022321939202584, -86.70231877080526 51.44388003270421 C-87.84435886853798 50.93833275885377, -88.98639896627068 50.432785485003336, -89.95554752102447 50.00377216858427 C-90.73881134149944 49.59514393514689, -91.52207516197443 49.18651570170952, -93.10982413621852 48.35818807884812 C-94.29747978283041 47.63822424643271, -95.4851354294423 46.918260414017304, -96.15218701718541 46.51388982149718 C-97.19472580621262 45.7866598930486, -98.23726459523982 45.059429964600014, -99.07013444226249 44.4784560136716 C-100.11851343501876 43.64240166548514, -101.16689242777501 42.80634731729867, -101.85167593958224 42.26025068948697 C-102.87359079052112 41.332174660249585, -103.89550564145999 40.40409863101219, -104.48538155849347 39.868388930423905 C-105.36078156586103 38.96446655113967, -106.23618157322858 38.06054417185543, -106.96042883768001 37.31269940950308 C-107.45057351368543 36.736947583044966, -107.94071818969084 36.16119575658685, -109.26664727697565 34.60368400315972 C-109.86335513474876 33.804149834947914, -110.46006299252187 33.00461566673611, -111.39456013013104 31.752474636780434 C-112.01469586380081 30.799779620102804, -112.6348315974706 29.847084603425174, -113.33542334679669 28.77078754123417 C-113.80510684554916 27.936816928587607, -114.27479034430164 27.102846315941044, -115.0812615037015 25.670875108366364 C-115.57682503359894 24.641826835173408, -116.07238856349639 23.612778561980452, -116.62490057737759 22.465475543292875 C-117.00433268618544 21.528270898716727, -117.38376479499327 20.591066254140582, -117.95999742376169 19.167760520382608 C-118.23865794786863 18.328479420297594, -118.51731847197556 17.489198320212576, -119.08106584353466 15.791281058022301 C-119.27992077610156 15.03296101587176, -119.47877570866846 14.274640973721215, -119.9834991260912 12.349911834575463 C-120.15775567321404 11.455141294233991, -120.33201222033688 10.560370753892519, -120.66358897950198 8.857794174352573 C-120.77759030019848 7.973622443137617, -120.89159162089497 7.089450711922661, -121.1185407686805 5.3292779378763795 C-121.19671405508326 4.111665901812186, -121.27488734148604 2.8940538657479933, -121.34648499913817 1.7788625552268686 C-121.34648499913817 0.4175164602601813, -121.34648499913817 -0.943829634706506, -121.34648499913817 -1.7788625552268416 C-121.28450468130339 -2.7442560351156056, -121.22252436346862 -3.7096495150043696, -121.1185407686805 -5.329277937876303 C-121.01741445577608 -6.113593651113884, -120.91628814287164 -6.897909364351467, -120.66358897950198 -8.857794174352547 C-120.46014408742899 -9.902440697054221, -120.25669919535598 -10.947087219755895, -119.9834991260912 -12.349911834575437 C-119.68577444736165 -13.485265069263239, -119.38804976863209 -14.62061830395104, -119.08106584353467 -15.791281058022273 C-118.80328231347579 -16.62792079176456, -118.52549878341692 -17.464560525506847, -117.95999742376172 -19.167760520382537 C-117.59766973760695 -20.062716910314073, -117.23534205145218 -20.957673300245613, -116.62490057737759 -22.46547554329285 C-116.11217433877115 -23.530162548343174, -115.59944810016471 -24.5948495533935, -115.08126150370151 -25.67087510836634 C-114.42887597084705 -26.829251683148083, -113.77649043799258 -27.98762825792983, -113.33542334679672 -28.770787541234153 C-112.58115108567924 -29.92955228477243, -111.82687882456177 -31.088317028310712, -111.39456013013105 -31.752474636780416 C-110.8342481893948 -32.50324159189909, -110.27393624865856 -33.25400854701776, -109.26664727697568 -34.6036840031597 C-108.63187684421943 -35.34932147293602, -107.99710641146321 -36.09495894271233, -106.96042883768004 -37.31269940950306 C-106.24925116589101 -38.04704874439796, -105.538073494102 -38.781398079292856, -104.48538155849351 -39.86838893042385 C-103.50970671321961 -40.75447100995982, -102.53403186794571 -41.64055308949579, -101.8516759395823 -42.260250689486924 C-101.06313142819444 -42.889093953268016, -100.2745869168066 -43.51793721704911, -99.07013444226251 -44.47845601367158 C-98.19731565608375 -45.08729661519361, -97.32449686990496 -45.69613721671563, -96.15218701718548 -46.51388982149714 C-95.38929086352213 -46.976361953123295, -94.62639470985877 -47.43883408474946, -93.10982413621855 -48.35818807884811 C-92.4463781946735 -48.70430740159476, -91.78293225312844 -49.050426724341406, -89.9555475210245 -50.003772168584256 C-88.89219807477036 -50.474485425300365, -87.82884862851621 -50.94519868201648, -86.70231877080529 -51.44388003270419 C-85.5386130129494 -51.872134508773264, -84.37490725509352 -52.300388984842336, -83.36350610031099 -52.6725939590921 C-82.28230794561412 -52.9934878960812, -81.20110979091724 -53.31438183307031, -79.95282940697771 -53.68486489866611 C-78.98233748014495 -53.90637334791401, -78.01184555331218 -54.12788179716192, -76.48430389292619 -54.47653321300412 C-75.53731577349883 -54.629634908150585, -74.59032765407146 -54.78273660329706, -72.97218247349012 -55.04434576719016 C-71.74511400293497 -55.16271958677886, -70.51804553237982 -55.281093406367575, -69.43089720892957 -55.38596929764367 C-68.08866159699512 -55.42901218121528, -66.74642598506068 -55.472055064786886, -65.87500000000001 -55.5 C-65.87500000000001 -55.5, -65.875 -55.5, -65.875 -55.5" stroke="none" stroke-width="0" fill="#ECECFF" style=""/><path d="M-65.875 -55.5 C-18.76742666751295 -55.5, 28.3401466649741 -55.5, 65.875 -55.5 M-65.875 -55.5 C-37.78408834793461 -55.5, -9.693176695869226 -55.5, 65.875 -55.5 M65.875 -55.5 C65.875 -55.5, 65.875 -55.5, 65.875 -55.5 M65.875 -55.5 C65.875 -55.5, 65.875 -55.5, 65.875 -55.5 M65.875 -55.5 C67.29391552006955 -55.45449814102289, 68.7128310401391 -55.40899628204577, 69.43089720892957 -55.38596929764367 M65.875 -55.5 C66.75718348189976 -55.47171009280145, 67.63936696379952 -55.44342018560291, 69.43089720892957 -55.38596929764367 M69.43089720892957 -55.38596929764367 C70.1543150873365 -55.31618204495104, 70.87773296574343 -55.246394792258414, 72.97218247349008 -55.044345767190165 M69.43089720892957 -55.38596929764367 C70.28330572116748 -55.3037384736393, 71.1357142334054 -55.22150764963494, 72.97218247349008 -55.044345767190165 M72.97218247349008 -55.044345767190165 C73.83193550547169 -54.90534756446372, 74.69168853745332 -54.76634936173728, 76.48430389292615 -54.47653321300413 M72.97218247349008 -55.044345767190165 C73.7660934371275 -54.91599239946075, 74.5600044007649 -54.787639031731324, 76.48430389292615 -54.47653321300413 M76.48430389292615 -54.47653321300413 C77.69437677845433 -54.200341973345864, 78.90444966398252 -53.9241507336876, 79.95282940697766 -53.684864898666135 M76.48430389292615 -54.47653321300413 C77.74619943372124 -54.18851379045562, 79.00809497451633 -53.900494367907115, 79.95282940697766 -53.684864898666135 M79.95282940697766 -53.684864898666135 C80.64638340618343 -53.47902171224109, 81.33993740538921 -53.27317852581605, 83.36350610031094 -52.67259395909211 M79.95282940697766 -53.684864898666135 C80.78567713276964 -53.437680065358, 81.6185248585616 -53.19049523204986, 83.36350610031094 -52.67259395909211 M83.36350610031094 -52.67259395909211 C84.04917760549655 -52.42026050690589, 84.73484911068216 -52.16792705471968, 86.70231877080526 -51.44388003270421 M83.36350610031094 -52.67259395909211 C84.52964441261422 -52.243444280500114, 85.69578272491749 -51.814294601908124, 86.70231877080526 -51.44388003270421 M86.70231877080526 -51.44388003270421 C87.72408276338228 -50.9915754227423, 88.74584675595929 -50.539270812780394, 89.95554752102447 -50.00377216858426 M86.70231877080526 -51.44388003270421 C87.62658878633516 -51.034733114324986, 88.55085880186506 -50.625586195945765, 89.95554752102447 -50.00377216858426 M89.95554752102447 -50.00377216858426 C90.71427923573013 -49.607942319013176, 91.4730109504358 -49.21211246944208, 93.10982413621853 -48.358188078848116 M89.95554752102447 -50.00377216858426 C90.6874791390183 -49.62192391230146, 91.41941075701212 -49.24007565601866, 93.10982413621853 -48.358188078848116 M93.10982413621853 -48.358188078848116 C94.30338574188053 -47.63464401934926, 95.49694734754253 -46.9110999598504, 96.15218701718544 -46.51388982149716 M93.10982413621853 -48.358188078848116 C93.99439826961559 -47.821954040848205, 94.87897240301264 -47.2857200028483, 96.15218701718544 -46.51388982149716 M96.15218701718544 -46.51388982149716 C96.96784029309576 -45.94492540528336, 97.78349356900607 -45.37596098906955, 99.07013444226249 -44.47845601367159 M96.15218701718544 -46.51388982149716 C97.02332553817436 -45.906221300234066, 97.89446405916328 -45.29855277897098, 99.07013444226249 -44.47845601367159 M99.07013444226249 -44.47845601367159 C99.97067931075762 -43.76029544555212, 100.87122417925275 -43.042134877432645, 101.85167593958224 -42.260250689486966 M99.07013444226249 -44.47845601367159 C99.90337350783338 -43.81397003230157, 100.73661257340426 -43.14948405093154, 101.85167593958224 -42.260250689486966 M101.85167593958224 -42.260250689486966 C102.67442196718676 -41.51305451588354, 103.4971679947913 -40.76585834228011, 104.48538155849349 -39.86838893042388 M101.85167593958224 -42.260250689486966 C102.56803403888408 -41.6096732174977, 103.28439213818594 -40.959095745508435, 104.48538155849349 -39.86838893042388 M104.48538155849349 -39.86838893042388 C105.19242240516655 -39.13831120710086, 105.89946325183963 -38.40823348377785, 106.96042883768001 -37.3126994095031 M104.48538155849349 -39.86838893042388 C105.0427293994956 -39.29288152548046, 105.6000772404977 -38.717374120537045, 106.96042883768001 -37.3126994095031 M106.96042883768001 -37.3126994095031 C107.59500196857199 -36.56729370172332, 108.22957509946397 -35.82188799394354, 109.26664727697565 -34.603684003159714 M106.96042883768001 -37.3126994095031 C107.4229071985857 -36.769446011019035, 107.8853855594914 -36.22619261253498, 109.26664727697565 -34.603684003159714 M109.26664727697565 -34.603684003159714 C109.97095766554737 -33.659972246469984, 110.67526805411909 -32.71626048978026, 111.39456013013104 -31.752474636780427 M109.26664727697565 -34.603684003159714 C109.99914420467788 -33.62220485188164, 110.7316411323801 -32.640725700603575, 111.39456013013104 -31.752474636780427 M111.39456013013104 -31.752474636780427 C112.16101815147555 -30.574989293198627, 112.92747617282006 -29.397503949616823, 113.33542334679672 -28.770787541234146 M111.39456013013104 -31.752474636780427 C112.1425683777838 -30.60333310004707, 112.89057662543657 -29.454191563313717, 113.33542334679672 -28.770787541234146 M113.33542334679672 -28.770787541234146 C113.88117742449646 -27.801745912685305, 114.4269315021962 -26.83270428413647, 115.08126150370151 -25.670875108366356 M113.33542334679672 -28.770787541234146 C113.71608285325462 -28.094888041563337, 114.09674235971252 -27.418988541892528, 115.08126150370151 -25.670875108366356 M115.08126150370151 -25.670875108366356 C115.59387601480077 -24.60642010787528, 116.10649052590003 -23.5419651073842, 116.62490057737759 -22.46547554329287 M115.08126150370151 -25.670875108366356 C115.48071903855954 -24.841392990211606, 115.88017657341759 -24.011910872056852, 116.62490057737759 -22.46547554329287 M116.62490057737759 -22.46547554329287 C117.08850284830406 -21.32036897096432, 117.55210511923055 -20.175262398635766, 117.95999742376169 -19.1677605203826 M116.62490057737759 -22.46547554329287 C116.94543087383101 -21.67375951402119, 117.26596117028446 -20.88204348474951, 117.95999742376169 -19.1677605203826 M117.95999742376169 -19.1677605203826 C118.2925540698173 -18.16615288816907, 118.6251107158729 -17.164545255955538, 119.08106584353466 -15.791281058022316 M117.95999742376169 -19.1677605203826 C118.38638104322976 -17.883560993548787, 118.81276466269783 -16.599361466714974, 119.08106584353466 -15.791281058022316 M119.08106584353466 -15.791281058022316 C119.27016864631452 -15.070150113349573, 119.45927144909436 -14.349019168676833, 119.9834991260912 -12.349911834575455 M119.08106584353466 -15.791281058022316 C119.39631064998767 -14.589115983053626, 119.71155545644066 -13.386950908084936, 119.9834991260912 -12.349911834575455 M119.9834991260912 -12.349911834575455 C120.23103202718184 -11.078882703572189, 120.47856492827249 -9.807853572568922, 120.66358897950198 -8.857794174352568 M119.9834991260912 -12.349911834575455 C120.16620695273018 -11.411745760097192, 120.34891477936914 -10.473579685618931, 120.66358897950198 -8.857794174352568 M120.66358897950198 -8.857794174352568 C120.7866889377846 -7.903055206748815, 120.90978889606723 -6.948316239145061, 121.1185407686805 -5.3292779378763475 M120.66358897950198 -8.857794174352568 C120.76232363572623 -8.092027678040449, 120.86105829195048 -7.326261181728329, 121.1185407686805 -5.3292779378763475 M121.1185407686805 -5.3292779378763475 C121.17742483579214 -4.412111062249148, 121.23630890290377 -3.4949441866219497, 121.34648499913817 -1.7788625552268618 M121.1185407686805 -5.3292779378763475 C121.20562710387323 -3.972837972425137, 121.29271343906595 -2.6163980069739265, 121.34648499913817 -1.7788625552268618 M121.34648499913817 -1.7788625552268618 C121.34648499913817 -0.9303924804895752, 121.34648499913817 -0.08192240575228871, 121.34648499913817 1.7788625552268482 M121.34648499913817 -1.7788625552268618 C121.34648499913817 -0.713104576806771, 121.34648499913817 0.3526534016133198, 121.34648499913817 1.7788625552268482 M121.34648499913817 1.7788625552268482 C121.26908562814505 2.984420234092592, 121.19168625715191 4.189977912958335, 121.1185407686805 5.32927793787631 M121.34648499913817 1.7788625552268482 C121.26600742135494 3.032365789532241, 121.18552984357171 4.285869023837634, 121.1185407686805 5.32927793787631 M121.1185407686805 5.32927793787631 C120.96024071490754 6.557021895058108, 120.80194066113457 7.7847658522399055, 120.66358897950198 8.857794174352529 M121.1185407686805 5.32927793787631 C120.989013741679 6.33386398129541, 120.8594867146775 7.33845002471451, 120.66358897950198 8.857794174352529 M120.66358897950198 8.857794174352529 C120.40108674153323 10.2056876864544, 120.13858450356449 11.55358119855627, 119.9834991260912 12.349911834575442 M120.66358897950198 8.857794174352529 C120.46269464024095 9.889344147424257, 120.26180030097993 10.920894120495984, 119.9834991260912 12.349911834575442 M119.9834991260912 12.349911834575442 C119.63940167288882 13.662104556415702, 119.29530421968646 14.97429727825596, 119.08106584353467 15.79128105802228 M119.9834991260912 12.349911834575442 C119.63681189460148 13.671980503442349, 119.29012466311177 14.994049172309253, 119.08106584353467 15.79128105802228 M119.08106584353467 15.79128105802228 C118.74864428166815 16.79248183818106, 118.41622271980161 17.793682618339844, 117.9599974237617 19.16776052038256 M119.08106584353467 15.79128105802228 C118.6965014785874 16.949527653232813, 118.31193711364013 18.10777424844335, 117.9599974237617 19.16776052038256 M117.9599974237617 19.16776052038256 C117.52963549567365 20.230762803241905, 117.09927356758558 21.293765086101253, 116.62490057737759 22.465475543292854 M117.9599974237617 19.16776052038256 C117.5100592223095 20.279116576932857, 117.06012102085728 21.390472633483153, 116.62490057737759 22.465475543292854 M116.62490057737759 22.465475543292854 C116.18220346731577 23.384745564536942, 115.73950635725397 24.30401558578103, 115.08126150370151 25.670875108366346 M116.62490057737759 22.465475543292854 C116.09586399783383 23.56403132028492, 115.56682741829007 24.662587097276983, 115.08126150370151 25.670875108366346 M115.08126150370151 25.670875108366346 C114.48359470490657 26.732093029952747, 113.88592790611162 27.793310951539144, 113.33542334679672 28.770787541234135 M115.08126150370151 25.670875108366346 C114.51025069225639 26.68476262520171, 113.93923988081129 27.698650142037078, 113.33542334679672 28.770787541234135 M113.33542334679672 28.770787541234135 C112.69604133784004 29.753050005100977, 112.05665932888338 30.735312468967823, 111.39456013013105 31.7524746367804 M113.33542334679672 28.770787541234135 C112.74940732761414 29.671065514033224, 112.16339130843156 30.571343486832316, 111.39456013013105 31.7524746367804 M111.39456013013105 31.7524746367804 C110.66396625000975 32.73140387767123, 109.93337236988846 33.710333118562055, 109.26664727697566 34.6036840031597 M111.39456013013105 31.7524746367804 C110.57441371358793 32.851396118072564, 109.7542672970448 33.95031759936474, 109.26664727697566 34.6036840031597 M109.26664727697566 34.6036840031597 C108.76081270219201 35.19786607750325, 108.25497812740838 35.79204815184681, 106.96042883768003 37.31269940950306 M109.26664727697566 34.6036840031597 C108.50808972958436 35.49472886147274, 107.74953218219304 36.385773719785774, 106.96042883768003 37.31269940950306 M106.96042883768003 37.31269940950306 C106.2740576289224 38.021434034669554, 105.58768642016479 38.730168659836046, 104.48538155849351 39.86838893042387 M106.96042883768003 37.31269940950306 C106.04860905404136 38.25422819790646, 105.1367892704027 39.19575698630985, 104.48538155849351 39.86838893042387 M104.48538155849351 39.86838893042387 C103.70469414686625 40.57738858180675, 102.92400673523898 41.28638823318963, 101.8516759395823 42.26025068948693 M104.48538155849351 39.86838893042387 C103.5071182111513 40.75682181905027, 102.52885486380907 41.64525470767668, 101.8516759395823 42.26025068948693 M101.8516759395823 42.26025068948693 C101.04266051834637 42.905418959118066, 100.23364509711045 43.5505872287492, 99.0701344422625 44.47845601367158 M101.8516759395823 42.26025068948693 C101.23887196446762 42.74894555224223, 100.62606798935296 43.237640414997536, 99.0701344422625 44.47845601367158 M99.0701344422625 44.47845601367158 C98.23209089745737 45.0630389122073, 97.39404735265224 45.647621810743004, 96.15218701718548 46.51388982149714 M99.0701344422625 44.47845601367158 C98.0129260296212 45.21591883651559, 96.95571761697988 45.9533816593596, 96.15218701718548 46.51388982149714 M96.15218701718548 46.51388982149714 C95.03063330578212 47.193782272331056, 93.90907959437874 47.87367472316498, 93.10982413621855 48.358188078848116 M96.15218701718548 46.51388982149714 C95.4887272320043 46.91608304219645, 94.8252674468231 47.31827626289576, 93.10982413621855 48.358188078848116 M93.10982413621855 48.358188078848116 C91.8645019380737 49.00787187195335, 90.61917973992884 49.657555665058574, 89.95554752102449 50.003772168584256 M93.10982413621855 48.358188078848116 C92.28840572578984 48.786721537425166, 91.46698731536114 49.21525499600222, 89.95554752102449 50.003772168584256 M89.95554752102449 50.003772168584256 C89.0655281002907 50.39775736465503, 88.17550867955694 50.7917425607258, 86.70231877080529 51.4438800327042 M89.95554752102449 50.003772168584256 C89.23443204424534 50.322988599023795, 88.51331656746619 50.642205029463334, 86.70231877080529 51.4438800327042 M86.70231877080529 51.4438800327042 C85.62533533255724 51.84021989350525, 84.5483518943092 52.2365597543063, 83.36350610031099 52.6725939590921 M86.70231877080529 51.4438800327042 C85.67850815300221 51.82065180405734, 84.65469753519913 52.197423575410475, 83.36350610031099 52.6725939590921 M83.36350610031099 52.6725939590921 C82.21454882081984 53.01359844864524, 81.0655915413287 53.35460293819838, 79.95282940697771 53.68486489866612 M83.36350610031099 52.6725939590921 C82.56255851148137 52.910310999197044, 81.76161092265176 53.148028039301984, 79.95282940697771 53.68486489866612 M79.95282940697771 53.68486489866612 C78.59732569897469 53.994249774529465, 77.24182199097164 54.30363465039281, 76.48430389292618 54.476533213004124 M79.95282940697771 53.68486489866612 C78.89908606318764 53.92537494056826, 77.84534271939755 54.1658849824704, 76.48430389292618 54.476533213004124 M76.48430389292618 54.476533213004124 C75.33518162141556 54.66231439028565, 74.18605934990494 54.84809556756718, 72.97218247349011 55.04434576719016 M76.48430389292618 54.476533213004124 C75.18134580601087 54.68718537190571, 73.87838771909556 54.89783753080731, 72.97218247349011 55.04434576719016 M72.97218247349011 55.04434576719016 C72.00085234945558 55.13804881606038, 71.02952222542106 55.23175186493061, 69.43089720892957 55.38596929764367 M72.97218247349011 55.04434576719016 C71.95613899046427 55.142362260026594, 70.94009550743841 55.24037875286303, 69.43089720892957 55.38596929764367 M69.43089720892957 55.38596929764367 C68.0814668299705 55.42924290338999, 66.73203645101142 55.47251650913632, 65.87500000000001 55.5 M69.43089720892957 55.38596929764367 C68.45554934635041 55.41724680519714, 67.48020148377125 55.44852431275061, 65.87500000000001 55.5 M65.87500000000001 55.5 C65.87500000000001 55.5, 65.875 55.5, 65.875 55.5 M65.87500000000001 55.5 C65.87500000000001 55.5, 65.875 55.5, 65.875 55.5 M65.875 55.5 C13.953275428681387 55.5, -37.968449142637226 55.5, -65.87499999999999 55.5 M65.875 55.5 C25.58585665035754 55.5, -14.703286699284916 55.5, -65.87499999999999 55.5 M-65.87499999999999 55.5 C-67.14206115760274 55.459367814860606, -68.4091223152055 55.41873562972122, -69.43089720892954 55.38596929764367 M-65.87499999999999 55.5 C-66.98434644513709 55.46442541871632, -68.0936928902742 55.428850837432634, -69.43089720892954 55.38596929764367 M-69.43089720892954 55.38596929764367 C-70.60615953882139 55.272593154138754, -71.78142186871324 55.15921701063383, -72.9721824734901 55.04434576719016 M-69.43089720892954 55.38596929764367 C-70.73303111386053 55.26035400588012, -72.03516501879152 55.134738714116565, -72.9721824734901 55.04434576719016 M-72.9721824734901 55.04434576719016 C-73.87775128552151 54.89794042445194, -74.78332009755293 54.751535081713726, -76.48430389292616 54.476533213004124 M-72.9721824734901 55.04434576719016 C-74.07344076045719 54.86630286773888, -75.1746990474243 54.68825996828761, -76.48430389292616 54.476533213004124 M-76.48430389292616 54.476533213004124 C-77.72659093982398 54.192989301230284, -78.96887798672181 53.90944538945645, -79.95282940697764 53.684864898666135 M-76.48430389292616 54.476533213004124 C-77.24766598333687 54.30230079727106, -78.0110280737476 54.128068381537986, -79.95282940697764 53.684864898666135 M-79.95282940697764 53.684864898666135 C-80.84256842884105 53.42079502731251, -81.73230745070445 53.156725155958874, -83.36350610031091 52.67259395909212 M-79.95282940697764 53.684864898666135 C-81.0609001115717 53.35599532992444, -82.16897081616577 53.02712576118274, -83.36350610031091 52.67259395909212 M-83.36350610031091 52.67259395909212 C-84.41677235221402 52.28498224210527, -85.47003860411714 51.897370525118426, -86.70231877080526 51.44388003270421 M-83.36350610031091 52.67259395909212 C-84.45759574573995 52.26995885592042, -85.55168539116899 51.86732375274872, -86.70231877080526 51.44388003270421 M-86.70231877080526 51.44388003270421 C-87.7148283054542 50.99567209674333, -88.72733784010315 50.54746416078244, -89.95554752102447 50.00377216858427 M-86.70231877080526 51.44388003270421 C-87.66307931190072 51.018579841110096, -88.62383985299617 50.59327964951599, -89.95554752102447 50.00377216858427 M-89.95554752102447 50.00377216858427 C-90.79029198645158 49.56828651565029, -91.6250364518787 49.132800862716316, -93.10982413621852 48.35818807884812 M-89.95554752102447 50.00377216858427 C-90.84707759228718 49.53866150145878, -91.73860766354987 49.07355083433329, -93.10982413621852 48.35818807884812 M-93.10982413621852 48.35818807884812 C-94.01042470074648 47.8122387241149, -94.91102526527445 47.26628936938167, -96.15218701718541 46.51388982149718 M-93.10982413621852 48.35818807884812 C-94.19073231907613 47.70293518627828, -95.27164050193373 47.04768229370845, -96.15218701718541 46.51388982149718 M-96.15218701718541 46.51388982149718 C-96.95264703042919 45.95552356761382, -97.75310704367297 45.397157313730446, -99.07013444226249 44.4784560136716 M-96.15218701718541 46.51388982149718 C-97.02568595703613 45.90457477421699, -97.89918489688685 45.29525972693679, -99.07013444226249 44.4784560136716 M-99.07013444226249 44.4784560136716 C-99.86777746247361 43.84235693122543, -100.66542048268474 43.206257848779266, -101.85167593958224 42.26025068948697 M-99.07013444226249 44.4784560136716 C-99.86776312778524 43.84236836275795, -100.66539181330799 43.2062807118443, -101.85167593958224 42.26025068948697 M-101.85167593958224 42.26025068948697 C-102.52673372121649 41.647181073256895, -103.20179150285074 41.03411145702682, -104.48538155849347 39.868388930423905 M-101.85167593958224 42.26025068948697 C-102.6925827797994 41.49656134637753, -103.53348962001654 40.73287200326809, -104.48538155849347 39.868388930423905 M-104.48538155849347 39.868388930423905 C-105.11761466554682 39.21555634008788, -105.74984777260019 38.56272374975186, -106.96042883768001 37.31269940950308 M-104.48538155849347 39.868388930423905 C-105.12776136336959 39.2050790415265, -105.7701411682457 38.5417691526291, -106.96042883768001 37.31269940950308 M-106.96042883768001 37.31269940950308 C-107.72868532078542 36.41026162941519, -108.49694180389083 35.507823849327295, -109.26664727697565 34.60368400315972 M-106.96042883768001 37.31269940950308 C-107.69090279976125 36.454643128496535, -108.42137676184247 35.596586847489995, -109.26664727697565 34.60368400315972 M-109.26664727697565 34.60368400315972 C-109.79573837539824 33.8947501324641, -110.32482947382084 33.18581626176847, -111.39456013013104 31.752474636780434 M-109.26664727697565 34.60368400315972 C-109.87284219597903 33.791438037188406, -110.47903711498242 32.97919207121709, -111.39456013013104 31.752474636780434 M-111.39456013013104 31.752474636780434 C-111.94448621133351 30.907640500224066, -112.49441229253598 30.062806363667697, -113.33542334679669 28.77078754123417 M-111.39456013013104 31.752474636780434 C-111.81803718831931 31.10190015589089, -112.24151424650759 30.451325675001343, -113.33542334679669 28.77078754123417 M-113.33542334679669 28.77078754123417 C-113.93457490651119 27.706933276286748, -114.5337264662257 26.643079011339324, -115.0812615037015 25.670875108366364 M-113.33542334679669 28.77078754123417 C-113.91589800345322 27.740096008907695, -114.49637266010974 26.70940447658122, -115.0812615037015 25.670875108366364 M-115.0812615037015 25.670875108366364 C-115.41017299461168 24.98788335991285, -115.73908448552187 24.304891611459336, -116.62490057737759 22.465475543292875 M-115.0812615037015 25.670875108366364 C-115.65745403762502 24.474398983128967, -116.23364657154852 23.277922857891568, -116.62490057737759 22.465475543292875 M-116.62490057737759 22.465475543292875 C-116.94753329204114 21.668566500394697, -117.2701660067047 20.871657457496518, -117.95999742376169 19.167760520382608 M-116.62490057737759 22.465475543292875 C-117.12985254911733 21.218234410513485, -117.63480452085707 19.97099327773409, -117.95999742376169 19.167760520382608 M-117.95999742376169 19.167760520382608 C-118.29684629934472 18.153225376706363, -118.63369517492775 17.13869023303012, -119.08106584353466 15.791281058022301 M-117.95999742376169 19.167760520382608 C-118.24314846491998 18.314954698405636, -118.52629950607827 17.462148876428664, -119.08106584353466 15.791281058022301 M-119.08106584353466 15.791281058022301 C-119.32412267295308 14.864400025953652, -119.56717950237149 13.937518993885, -119.9834991260912 12.349911834575463 M-119.08106584353466 15.791281058022301 C-119.41777828340543 14.507250592700506, -119.75449072327619 13.22322012737871, -119.9834991260912 12.349911834575463 M-119.9834991260912 12.349911834575463 C-120.17500574742877 11.366565808945808, -120.36651236876634 10.38321978331615, -120.66358897950198 8.857794174352573 M-119.9834991260912 12.349911834575463 C-120.20835619146432 11.195318327442111, -120.43321325683743 10.040724820308759, -120.66358897950198 8.857794174352573 M-120.66358897950198 8.857794174352573 C-120.76380983286616 8.080501026505992, -120.86403068623034 7.303207878659411, -121.1185407686805 5.3292779378763795 M-120.66358897950198 8.857794174352573 C-120.82693641308101 7.590903736112793, -120.99028384666006 6.324013297873012, -121.1185407686805 5.3292779378763795 M-121.1185407686805 5.3292779378763795 C-121.17153210155995 4.503895154444903, -121.2245234344394 3.6785123710134258, -121.34648499913817 1.7788625552268686 M-121.1185407686805 5.3292779378763795 C-121.19765558660556 4.09700078836189, -121.27677040453062 2.8647236388474, -121.34648499913817 1.7788625552268686 M-121.34648499913817 1.7788625552268686 C-121.34648499913817 0.8139932985822705, -121.34648499913817 -0.15087595806232756, -121.34648499913817 -1.7788625552268416 M-121.34648499913817 1.7788625552268686 C-121.34648499913817 0.8466521813620317, -121.34648499913817 -0.08555819250280527, -121.34648499913817 -1.7788625552268416 M-121.34648499913817 -1.7788625552268416 C-121.27687216634625 -2.863138616428346, -121.20725933355432 -3.9474146776298507, -121.1185407686805 -5.329277937876303 M-121.34648499913817 -1.7788625552268416 C-121.28514326441667 -2.734309587671304, -121.22380152969517 -3.6897566201157668, -121.1185407686805 -5.329277937876303 M-121.1185407686805 -5.329277937876303 C-120.97859438661254 -6.414674441656518, -120.83864800454458 -7.5000709454367325, -120.66358897950198 -8.857794174352547 M-121.1185407686805 -5.329277937876303 C-121.00680156101738 -6.195905167109191, -120.89506235335425 -7.062532396342078, -120.66358897950198 -8.857794174352547 M-120.66358897950198 -8.857794174352547 C-120.47790081590544 -9.811263649213451, -120.29221265230892 -10.764733124074356, -119.9834991260912 -12.349911834575437 M-120.66358897950198 -8.857794174352547 C-120.44083122945881 -10.001608140957059, -120.21807347941565 -11.145422107561568, -119.9834991260912 -12.349911834575437 M-119.9834991260912 -12.349911834575437 C-119.72863694653982 -13.321811783172215, -119.47377476698844 -14.293711731768994, -119.08106584353467 -15.791281058022273 M-119.9834991260912 -12.349911834575437 C-119.80002087648127 -13.049593920314539, -119.61654262687132 -13.74927600605364, -119.08106584353467 -15.791281058022273 M-119.08106584353467 -15.791281058022273 C-118.82751320365365 -16.55494121121691, -118.57396056377264 -17.318601364411546, -117.95999742376172 -19.167760520382537 M-119.08106584353467 -15.791281058022273 C-118.79169764842369 -16.662811957135773, -118.50232945331273 -17.53434285624927, -117.95999742376172 -19.167760520382537 M-117.95999742376172 -19.167760520382537 C-117.62293284992168 -20.00031653446763, -117.28586827608164 -20.832872548552718, -116.62490057737759 -22.46547554329285 M-117.95999742376172 -19.167760520382537 C-117.5085841975891 -20.28275991650989, -117.0571709714165 -21.39775931263724, -116.62490057737759 -22.46547554329285 M-116.62490057737759 -22.46547554329285 C-116.02448749438302 -23.712246156913036, -115.42407441138846 -24.959016770533218, -115.08126150370151 -25.67087510836634 M-116.62490057737759 -22.46547554329285 C-116.30165532172809 -23.136701232989513, -115.97841006607861 -23.80792692268618, -115.08126150370151 -25.67087510836634 M-115.08126150370151 -25.67087510836634 C-114.54177867391601 -26.62878150121074, -114.00229584413051 -27.586687894055135, -113.33542334679672 -28.770787541234153 M-115.08126150370151 -25.67087510836634 C-114.60605054210579 -26.514660291007395, -114.13083958051007 -27.35844547364845, -113.33542334679672 -28.770787541234153 M-113.33542334679672 -28.770787541234153 C-112.60680524138039 -29.890140612510105, -111.87818713596405 -31.009493683786054, -111.39456013013105 -31.752474636780416 M-113.33542334679672 -28.770787541234153 C-112.6384568023888 -29.841515315166987, -111.94149025798089 -30.912243089099817, -111.39456013013105 -31.752474636780416 M-111.39456013013105 -31.752474636780416 C-110.94683374385781 -32.35238720567368, -110.49910735758455 -32.952299774566946, -109.26664727697568 -34.6036840031597 M-111.39456013013105 -31.752474636780416 C-110.60891684773783 -32.8051650616119, -109.82327356534462 -33.857855486443384, -109.26664727697568 -34.6036840031597 M-109.26664727697568 -34.6036840031597 C-108.7866604239759 -35.16750387271888, -108.30667357097613 -35.731323742278065, -106.96042883768004 -37.31269940950306 M-109.26664727697568 -34.6036840031597 C-108.64380286346103 -35.33531249212513, -108.02095844994638 -36.06694098109056, -106.96042883768004 -37.31269940950306 M-106.96042883768004 -37.31269940950306 C-106.43324390334031 -37.85706113689689, -105.90605896900058 -38.401422864290716, -104.48538155849351 -39.86838893042385 M-106.96042883768004 -37.31269940950306 C-106.15428493495419 -38.14510917471279, -105.34814103222834 -38.97751893992252, -104.48538155849351 -39.86838893042385 M-104.48538155849351 -39.86838893042385 C-103.94876052771315 -40.35573395236414, -103.41213949693278 -40.84307897430444, -101.8516759395823 -42.260250689486924 M-104.48538155849351 -39.86838893042385 C-103.52580429325852 -40.739851613687115, -102.56622702802352 -41.61131429695039, -101.8516759395823 -42.260250689486924 M-101.8516759395823 -42.260250689486924 C-101.2781430964392 -42.71762786954362, -100.70461025329608 -43.175005049600315, -99.07013444226251 -44.47845601367158 M-101.8516759395823 -42.260250689486924 C-101.01900091688518 -42.92428686167493, -100.18632589418806 -43.588323033862935, -99.07013444226251 -44.47845601367158 M-99.07013444226251 -44.47845601367158 C-98.35936017824386 -44.974261371329014, -97.64858591422521 -45.47006672898644, -96.15218701718548 -46.51388982149714 M-99.07013444226251 -44.47845601367158 C-97.98436331722296 -45.235842948224715, -96.8985921921834 -45.993229882777854, -96.15218701718548 -46.51388982149714 M-96.15218701718548 -46.51388982149714 C-95.27062769434218 -47.04829626362237, -94.38906837149888 -47.5827027057476, -93.10982413621855 -48.35818807884811 M-96.15218701718548 -46.51388982149714 C-95.40074015820356 -46.969421323403886, -94.64929329922164 -47.42495282531064, -93.10982413621855 -48.35818807884811 M-93.10982413621855 -48.35818807884811 C-92.27047691170954 -48.79607498824691, -91.43112968720051 -49.23396189764571, -89.9555475210245 -50.003772168584256 M-93.10982413621855 -48.35818807884811 C-91.98916893383 -48.9428331801203, -90.86851373144145 -49.5274782813925, -89.9555475210245 -50.003772168584256 M-89.9555475210245 -50.003772168584256 C-88.77227967682047 -50.52756974281989, -87.58901183261645 -51.051367317055536, -86.70231877080529 -51.44388003270419 M-89.9555475210245 -50.003772168584256 C-89.24068937088289 -50.32021866613835, -88.52583122074127 -50.636665163692456, -86.70231877080529 -51.44388003270419 M-86.70231877080529 -51.44388003270419 C-85.50493757260493 -51.88452738211239, -84.30755637440457 -52.32517473152059, -83.36350610031099 -52.6725939590921 M-86.70231877080529 -51.44388003270419 C-85.43334863946143 -51.91087277127004, -84.16437850811758 -52.377865509835885, -83.36350610031099 -52.6725939590921 M-83.36350610031099 -52.6725939590921 C-82.44294492842111 -52.945811682784814, -81.52238375653124 -53.21902940647753, -79.95282940697771 -53.68486489866611 M-83.36350610031099 -52.6725939590921 C-82.4216364728636 -52.95213592054392, -81.47976684541621 -53.231677881995736, -79.95282940697771 -53.68486489866611 M-79.95282940697771 -53.68486489866611 C-79.20642103349135 -53.85522773914454, -78.460012660005 -54.02559057962297, -76.48430389292619 -54.47653321300412 M-79.95282940697771 -53.68486489866611 C-78.87735805130576 -53.93033421749176, -77.80188669563381 -54.17580353631742, -76.48430389292619 -54.47653321300412 M-76.48430389292619 -54.47653321300412 C-75.54517870157932 -54.62836369091645, -74.60605351023243 -54.780194168828785, -72.97218247349012 -55.04434576719016 M-76.48430389292619 -54.47653321300412 C-75.22628394743569 -54.67992012170064, -73.96826400194517 -54.88330703039716, -72.97218247349012 -55.04434576719016 M-72.97218247349012 -55.04434576719016 C-71.74789941493538 -55.16245088143314, -70.52361635638064 -55.28055599567611, -69.43089720892957 -55.38596929764367 M-72.97218247349012 -55.04434576719016 C-72.04657499056398 -55.133638007862174, -71.12096750763784 -55.2229302485342, -69.43089720892957 -55.38596929764367 M-69.43089720892957 -55.38596929764367 C-68.67044016347907 -55.41035567495142, -67.90998311802859 -55.434742052259175, -65.87500000000001 -55.5 M-69.43089720892957 -55.38596929764367 C-68.43810687974049 -55.417806151151616, -67.44531655055141 -55.44964300465956, -65.87500000000001 -55.5 M-65.87500000000001 -55.5 C-65.87500000000001 -55.5, -65.875 -55.5, -65.875 -55.5 M-65.87500000000001 -55.5 C-65.87500000000001 -55.5, -65.87500000000001 -55.5, -65.875 -55.5" stroke="#9370DB" stroke-width="1.3" fill="none" stroke-dasharray="0 0" style=""/></g><g class="label" style="" transform="translate(-100, -48)"><rect/><foreignObject width="200" height="96"><div xmlns="http://www.w3.org/1999/xhtml" style="display: table; white-space: break-spaces; line-height: 1.5; max-width: 200px; text-align: center; width: 200px;"><span class="nodeLabel"><p>Section 439: Punishment for intentionally running vessel aground or ashore wi...</p></span></div></foreignObject></g></g><g class="node default" id="my-svg-flowchart-GRP2-1" data-look="classic" transform="translate(138, 188.5)"><polygon points="9.75,0 174.359375,0 184.109375,-19.5 174.359375,-39 9.75,-39 0,-19.5" class="label-container" transform="translate(-92.0546875,19.5)"/><g class="label" style="" transform="translate(-74.8046875, -12)"><rect/><foreignObject width="149.609375" height="24"><div xmlns="http://www.w3.org/1999/xhtml" style="display: table-cell; white-space: nowrap; line-height: 1.5; max-width: 200px; text-align: center;"><span class="nodeLabel"><p>ALL OF (conjunctive)</p></span></div></foreignObject></g></g><g class="node default" id="my-svg-flowchart-ELEM3-4" data-look="classic" transform="translate(138, 309)"><rect class="basic label-container" style="" x="-130" y="-51" width="260" height="102"/><g class="label" style="" transform="translate(-100, -36)"><rect/><foreignObject width="200" height="72"><div xmlns="http://www.w3.org/1999/xhtml" style="display: table; white-space: break-spaces; line-height: 1.5; max-width: 200px; text-align: center; width: 200px;"><span class="nodeLabel"><p>Whoever intentionally runs any vessel aground or ashore</p></span></div></foreignObject></g></g><g class="node default" id="my-svg-flowchart-GRP4-7" data-look="classic" transform="translate(138, 429.5)"><polygon points="9.75,0 209.140625,0 218.890625,-19.5 209.140625,-39 9.75,-39 0,-19.5" class="label-container" transform="translate(-109.4453125,19.5)"/><g class="label" style="" transform="translate(-92.1953125, -12)"><rect/><foreignObject width="184.390625" height="24"><div xmlns="http://www.w3.org/1999/xhtml" style="display: table-cell; white-space: nowrap; line-height: 1.5; max-width: 200px; text-align: center;"><span class="nodeLabel"><p>ANY OF (alternative limb)</p></span></div></foreignObject></g></g><g class="node default" id="my-svg-flowchart-ELEM5-10" data-look="classic" transform="translate(138, 550)"><rect class="basic label-container" style="" x="-130" y="-51" width="260" height="102"/><g class="label" style="" transform="translate(-100, -36)"><rect/><foreignObject width="200" height="72"><div xmlns="http://www.w3.org/1999/xhtml" style="display: table; white-space: break-spaces; line-height: 1.5; max-width: 200px; text-align: center; width: 200px;"><span class="nodeLabel"><p>Intending to commit theft of any property contained therein</p></span></div></foreignObject></g></g><g class="node default" id="my-svg-flowchart-ELEM6-13" data-look="classic" transform="translate(138, 702)"><rect class="basic label-container" style="" x="-130" y="-51" width="260" height="102"/><g class="label" style="" transform="translate(-100, -36)"><rect/><foreignObject width="200" height="72"><div xmlns="http://www.w3.org/1999/xhtml" style="display: table; white-space: break-spaces; line-height: 1.5; max-width: 200px; text-align: center; width: 200px;"><span class="nodeLabel"><p>To dishonestly misappropriate any such property</p></span></div></foreignObject></g></g><g class="node default" id="my-svg-flowchart-ELEM7-16" data-look="classic" transform="translate(138, 866)"><rect class="basic label-container" style="" x="-130" y="-63" width="260" height="126"/><g class="label" style="" transform="translate(-100, -48)"><rect/><foreignObject width="200" height="96"><div xmlns="http://www.w3.org/1999/xhtml" style="display: table; white-space: break-spaces; line-height: 1.5; max-width: 200px; text-align: center; width: 200px;"><span class="nodeLabel"><p>With intent that such theft or misappropriation of property may be committed</p></span></div></foreignObject></g></g><g class="node default" id="my-svg-flowchart-PENALTY8-19" data-look="classic" transform="translate(138, 1010.5)"><polygon points="0,0 215,0 215,-63 0,-63 0,0 -8,0 223,0 223,-63 -8,-63 -8,0" class="label-container" transform="translate(-107.5,31.5)"/><g class="label" style="" transform="translate(-100, -24)"><rect/><foreignObject width="200" height="48"><div xmlns="http://www.w3.org/1999/xhtml" style="display: table; white-space: break-spaces; line-height: 1.5; max-width: 200px; text-align: center; width: 200px;"><span class="nodeLabel"><p>Imprisonment up to 10 years</p></span></div></foreignObject></g></g></g></g></g><defs><filter id="my-svg-drop-shadow" height="130%" width="130%"><feDropShadow dx="4" dy="4" stdDeviation="0" flood-opacity="0.06" flood-color="#000000"/></filter></defs><defs><filter id="my-svg-drop-shadow-small" height="150%" width="150%"><feDropShadow dx="2" dy="2" stdDeviation="0" flood-opacity="0.06" flood-color="#000000"/></filter></defs></svg>