<svg class="yuho-mermaid-svg" id="my-svg" width="100%" xmlns="http://www.w3.org/2000/svg" xmlns:xlink="http://www.w3.org/1999/xlink" class="flowchart" style="max-width: 246.718px; background-color: transparent;" viewBox="0 0 246.71763610839844 79" role="graphics-document document" aria-roledescription="flowchart-v2"><style>#my-svg{font-family:"trebuchet ms",verdana,arial,sans-serif;font-size:16px;fill:#333;}@keyframes edge-animation-frame{from{stroke-dashoffset:0;}}@keyframes dash{to{stroke-dashoffset:0;}}#my-svg .edge-animation-slow{stroke-dasharray:9,5!important;stroke-dashoffset:900;animation:dash 50s linear infinite;stroke-linecap:round;}#my-svg .edge-animation-fast{stroke-dasharray:9,5!important;stroke-dashoffset:900;animation:dash 20s linear infinite;stroke-linecap:round;}#my-svg .error-icon{fill:#552222;}#my-svg .error-text{fill:#552222;stroke:#552222;}#my-svg .edge-thickness-normal{stroke-width:1px;}#my-svg .edge-thickness-thick{stroke-width:3.5px;}#my-svg .edge-pattern-solid{stroke-dasharray:0;}#my-svg .edge-thickness-invisible{stroke-width:0;fill:none;}#my-svg .edge-pattern-dashed{stroke-dasharray:3;}#my-svg .edge-pattern-dotted{stroke-dasharray:2;}#my-svg .marker{fill:#333333;stroke:#333333;}#my-svg .marker.cross{stroke:#333333;}#my-svg svg{font-family:"trebuchet ms",verdana,arial,sans-serif;font-size:16px;}#my-svg p{margin:0;}#my-svg .label{font-family:"trebuchet ms",verdana,arial,sans-serif;color:#333;}#my-svg .cluster-label text{fill:#333;}#my-svg .cluster-label span{color:#333;}#my-svg .cluster-label span p{background-color:transparent;}#my-svg .label text,#my-svg span{fill:#333;color:#333;}#my-svg .node rect,#my-svg .node circle,#my-svg .node ellipse,#my-svg .node polygon,#my-svg .node path{fill:#ECECFF;stroke:#9370DB;stroke-width:1px;}#my-svg .rough-node .label text,#my-svg .node .label text,#my-svg .image-shape .label,#my-svg .icon-shape .label{text-anchor:middle;}#my-svg .node .katex path{fill:#000;stroke:#000;stroke-width:1px;}#my-svg .rough-node .label,#my-svg .node .label,#my-svg .image-shape .label,#my-svg .icon-shape .label{text-align:center;}#my-svg .node.clickable{cursor:pointer;}#my-svg .root .anchor path{fill:#333333!important;stroke-width:0;stroke:#333333;}#my-svg .arrowheadPath{fill:#333333;}#my-svg .edgePath .path{stroke:#333333;stroke-width:1px;}#my-svg .flowchart-link{stroke:#333333;fill:none;}#my-svg .edgeLabel{background-color:rgba(232,232,232, 0.8);text-align:center;}#my-svg .edgeLabel p{background-color:rgba(232,232,232, 0.8);}#my-svg .edgeLabel rect{opacity:0.5;background-color:rgba(232,232,232, 0.8);fill:rgba(232,232,232, 0.8);}#my-svg .labelBkg{background-color:rgba(232, 232, 232, 0.5);}#my-svg .cluster rect{fill:#ffffde;stroke:#aaaa33;stroke-width:1px;}#my-svg .cluster text{fill:#333;}#my-svg .cluster span{color:#333;}#my-svg div.mermaidTooltip{position:absolute;text-align:center;max-width:200px;padding:2px;font-family:"trebuchet ms",verdana,arial,sans-serif;font-size:12px;background:hsl(80, 100%, 96.2745098039%);border:1px solid #aaaa33;border-radius:2px;pointer-events:none;z-index:100;}#my-svg .flowchartTitleText{text-anchor:middle;font-size:18px;fill:#333;}#my-svg rect.text{fill:none;stroke-width:0;}#my-svg .icon-shape,#my-svg .image-shape{background-color:rgba(232,232,232, 0.8);text-align:center;}#my-svg .icon-shape p,#my-svg .image-shape p{background-color:rgba(232,232,232, 0.8);padding:2px;}#my-svg .icon-shape .label rect,#my-svg .image-shape .label rect{opacity:0.5;background-color:rgba(232,232,232, 0.8);fill:rgba(232,232,232, 0.8);}#my-svg .label-icon{display:inline-block;height:1em;overflow:visible;vertical-align:-0.125em;}#my-svg .node .label-icon path{fill:currentColor;stroke:revert;stroke-width:revert;}#my-svg .node .neo-node{stroke:#9370DB;}#my-svg [data-look="neo"].node rect,#my-svg [data-look="neo"].cluster rect,#my-svg [data-look="neo"].node polygon{stroke:#9370DB;filter:drop-shadow(1px 2px 2px rgba(185, 185, 185, 1));}#my-svg [data-look="neo"].node path{stroke:#9370DB;stroke-width:1px;}#my-svg [data-look="neo"].node .outer-path{filter:drop-shadow(1px 2px 2px rgba(185, 185, 185, 1));}#my-svg [data-look="neo"].node .neo-line path{stroke:#9370DB;filter:none;}#my-svg [data-look="neo"].node circle{stroke:#9370DB;filter:drop-shadow(1px 2px 2px rgba(185, 185, 185, 1));}#my-svg [data-look="neo"].node circle .state-start{fill:#000000;}#my-svg [data-look="neo"].icon-shape .icon{fill:#9370DB;filter:drop-shadow(1px 2px 2px rgba(185, 185, 185, 1));}#my-svg [data-look="neo"].icon-shape .icon-neo path{stroke:#9370DB;filter:drop-shadow(1px 2px 2px rgba(185, 185, 185, 1));}#my-svg :root{--mermaid-font-family:"trebuchet ms",verdana,arial,sans-serif;}</style><g><marker id="my-svg_flowchart-v2-pointEnd" class="marker flowchart-v2" viewBox="0 0 10 10" refX="5" refY="5" markerUnits="userSpaceOnUse" markerWidth="8" markerHeight="8" orient="auto"><path d="M 0 0 L 10 5 L 0 10 z" class="arrowMarkerPath" style="stroke-width: 1; stroke-dasharray: 1, 0;"/></marker><marker id="my-svg_flowchart-v2-pointStart" class="marker flowchart-v2" viewBox="0 0 10 10" refX="4.5" refY="5" markerUnits="userSpaceOnUse" markerWidth="8" markerHeight="8" orient="auto"><path d="M 0 5 L 10 10 L 10 0 z" class="arrowMarkerPath" style="stroke-width: 1; stroke-dasharray: 1, 0;"/></marker><marker id="my-svg_flowchart-v2-pointEnd-margin" class="marker flowchart-v2" viewBox="0 0 11.5 14" refX="11.5" refY="7" markerUnits="userSpaceOnUse" markerWidth="10.5" markerHeight="14" orient="auto"><path d="M 0 0 L 11.5 7 L 0 14 z" class="arrowMarkerPath" style="stroke-width: 0; stroke-dasharray: 1, 0;"/></marker><marker id="my-svg_flowchart-v2-pointStart-margin" class="marker flowchart-v2" viewBox="0 0 11.5 14" refX="1" refY="7" markerUnits="userSpaceOnUse" markerWidth="11.5" markerHeight="14" orient="auto"><polygon points="0,7 11.5,14 11.5,0" class="arrowMarkerPath" style="stroke-width: 0; stroke-dasharray: 1, 0;"/></marker><marker id="my-svg_flowchart-v2-circleEnd" class="marker flowchart-v2" viewBox="0 0 10 10" refX="11" refY="5" markerUnits="userSpaceOnUse" markerWidth="11" markerHeight="11" orient="auto"><circle cx="5" cy="5" r="5" class="arrowMarkerPath" style="stroke-width: 1; stroke-dasharray: 1, 0;"/></marker><marker id="my-svg_flowchart-v2-circleStart" class="marker flowchart-v2" viewBox="0 0 10 10" refX="-1" refY="5" markerUnits="userSpaceOnUse" markerWidth="11" markerHeight="11" orient="auto"><circle cx="5" cy="5" r="5" class="arrowMarkerPath" style="stroke-width: 1; stroke-dasharray: 1, 0;"/></marker><marker id="my-svg_flowchart-v2-circleEnd-margin" class="marker flowchart-v2" viewBox="0 0 10 10" refY="5" refX="12.25" markerUnits="userSpaceOnUse" markerWidth="14" markerHeight="14" orient="auto"><circle cx="5" cy="5" r="5" class="arrowMarkerPath" style="stroke-width: 0; stroke-dasharray: 1, 0;"/></marker><marker id="my-svg_flowchart-v2-circleStart-margin" class="marker flowchart-v2" viewBox="0 0 10 10" refX="-2" refY="5" markerUnits="userSpaceOnUse" markerWidth="14" markerHeight="14" orient="auto"><circle cx="5" cy="5" r="5" class="arrowMarkerPath" style="stroke-width: 0; stroke-dasharray: 1, 0;"/></marker><marker id="my-svg_flowchart-v2-crossEnd" class="marker cross flowchart-v2" viewBox="0 0 11 11" refX="12" refY="5.2" markerUnits="userSpaceOnUse" markerWidth="11" markerHeight="11" orient="auto"><path d="M 1,1 l 9,9 M 10,1 l -9,9" class="arrowMarkerPath" style="stroke-width: 2; stroke-dasharray: 1, 0;"/></marker><marker id="my-svg_flowchart-v2-crossStart" class="marker cross flowchart-v2" viewBox="0 0 11 11" refX="-1" refY="5.2" markerUnits="userSpaceOnUse" markerWidth="11" markerHeight="11" orient="auto"><path d="M 1,1 l 9,9 M 10,1 l -9,9" class="arrowMarkerPath" style="stroke-width: 2; stroke-dasharray: 1, 0;"/></marker><marker id="my-svg_flowchart-v2-crossEnd-margin" class="marker cross flowchart-v2" viewBox="0 0 15 15" refX="17.7" refY="7.5" markerUnits="userSpaceOnUse" markerWidth="12" markerHeight="12" orient="auto"><path d="M 1,1 L 14,14 M 1,14 L 14,1" class="arrowMarkerPath" style="stroke-width: 2.5;"/></marker><marker id="my-svg_flowchart-v2-crossStart-margin" class="marker cross flowchart-v2" viewBox="0 0 15 15" refX="-3.5" refY="7.5" markerUnits="userSpaceOnUse" markerWidth="12" markerHeight="12" orient="auto"><path d="M 1,1 L 14,14 M 1,14 L 14,1" class="arrowMarkerPath" style="stroke-width: 2.5; stroke-dasharray: 1, 0;"/></marker><g class="root"><g class="clusters"/><g class="edgePaths"/><g class="edgeLabels"/><g class="nodes"><g class="node default" id="my-svg-flowchart-START1-0" data-look="classic" transform="translate(123.35881805419922, 39.5)"><g class="basic label-container outer-path"><path d="M-83.875 -31.5 C-49.30534573478524 -31.5, -14.735691469570483 -31.5, 83.875 -31.5 C83.875 -31.5, 83.875 -31.5, 83.875 -31.5 C84.4784011279616 -31.480650100275316, 85.08180225592321 -31.461300200550635, 85.89321192939245 -31.435279871635593 C86.37060544231267 -31.389226293593882, 86.84799895523287 -31.343172715552168, 87.90313059306193 -31.241385435432253 C88.49731218028714 -31.14532276435671, 89.09149376751236 -31.049260093281166, 89.89649680409322 -30.91911344521856 C90.47489097786334 -30.787098749430246, 91.05328515163346 -30.655084053641936, 91.86511939314947 -30.469788185729428 C92.32028794346822 -30.3346965492233, 92.77545649378698 -30.19960491271717, 93.80090886774406 -29.895256030836062 C94.38602031863786 -29.67992960819618, 94.97113176953168 -29.464603185556296, 95.69591065370028 -29.197877856399685 C96.25333594693367 -28.951122214519085, 96.81076124016705 -28.70436657263848, 97.54233778220308 -28.380519338926202 C98.25418255281281 -28.009150378057445, 98.96602732342252 -27.637781417188688, 99.33260288812403 -27.44653917988677 C99.7871360611973 -27.170998499236337, 100.24166923427057 -26.895457818585903, 101.05934938813228 -26.399775304092984 C101.47765867588008 -26.10798085327733, 101.89596796362787 -25.81618640246168, 102.7154817104733 -25.244529088840633 C103.12880386725004 -24.914915667775695, 103.5421260240268 -24.585302246710757, 104.29419445219533 -23.985547688627737 C104.73187867246212 -23.58805446027132, 105.1695628927289 -23.190561231914902, 105.78900034400982 -22.62800452807842 C106.08535328701969 -22.32199578339162, 106.38170623002955 -22.015987038704818, 107.19375690787243 -21.177478043231485 C107.56884931823433 -20.736873154657612, 107.94394172859623 -20.29626826608374, 108.50269169774293 -19.63992875855011 C108.89313903398217 -19.116764898473622, 109.2835863702214 -18.593601038397136, 109.7104260198041 -18.02167479384835 C110.01967494290598 -17.546585403000623, 110.32892386600786 -17.071496012152892, 110.8119970346684 -16.329365901781543 C111.14282604867869 -15.741945487335986, 111.47365506268898 -15.15452507289043, 111.8028781507495 -14.56995614258631 C112.10080696829063 -13.951300578306682, 112.39873578583175 -13.332645014027056, 112.67899762499809 -12.750675308355413 C112.88578506852926 -12.239906324870194, 113.09257251206041 -11.729137341384973, 113.43675529456745 -10.878999214271206 C113.64482281188293 -10.252333003173868, 113.85289032919842 -9.62566679207653, 114.07303737065482 -8.962618978877531 C114.24727637599602 -8.298170135848894, 114.42151538133723 -7.6337212928202565, 114.58522923372745 -7.009409419623907 C114.72332122990633 -6.300336204999088, 114.8614132260852 -5.591262990374268, 114.97122617755518 -5.027396693551458 C115.04480618946052 -4.456724651230435, 115.11838620136587 -3.886052608909413, 115.22944205789975 -3.024725316091981 C115.26885391623733 -2.410853809804626, 115.30826577457492 -1.7969823035172707, 115.35881581032167 -1.0096246935071378 C115.35881581032167 -0.2536955544238215, 115.35881581032167 0.5022335846594947, 115.35881581032167 1.00962469350713 C115.32651037285616 1.512807958512322, 115.29420493539064 2.015991223517514, 115.22944205789975 3.02472531609196 C115.14493303363817 3.680160620070359, 115.06042400937659 4.335595924048758, 114.97122617755518 5.027396693551435 C114.82893673039003 5.758022931859215, 114.68664728322487 6.488649170166995, 114.58522923372745 7.0094094196239 C114.39173281573648 7.747295123301531, 114.19823639774549 8.485180826979162, 114.07303737065482 8.96261897887751 C113.83661565448952 9.674683519282425, 113.60019393832422 10.38674805968734, 113.43675529456746 10.878999214271184 C113.26954808414034 11.292004256757663, 113.10234087371322 11.705009299244143, 112.67899762499809 12.750675308355405 C112.36761690304452 13.397264039972121, 112.05623618109097 14.04385277158884, 111.8028781507495 14.569956142586303 C111.4485672590832 15.199071008608065, 111.0942563674169 15.828185874629828, 110.81199703466841 16.329365901781536 C110.39805082068338 16.96529844658487, 109.98410460669837 17.601230991388206, 109.71042601980412 18.021674793848334 C109.2987236833815 18.573318417800216, 108.88702134695886 19.124962041752102, 108.50269169774295 19.639928758550102 C108.08505078847311 20.130513535019404, 107.66740987920328 20.621098311488705, 107.19375690787246 21.177478043231467 C106.77753791764262 21.607258322858385, 106.36131892741278 22.037038602485303, 105.78900034400982 22.628004528078414 C105.30643496972412 23.06625763302454, 104.82386959543844 23.50451073797067, 104.29419445219536 23.985547688627715 C103.9277971254969 24.27773980642739, 103.56139979879843 24.569931924227063, 102.71548171047331 25.24452908884063 C102.25630992215326 25.56482745114634, 101.79713813383323 25.885125813452046, 101.05934938813229 26.399775304092973 C100.39952796038608 26.799762931133838, 99.73970653263987 27.199750558174703, 99.33260288812404 27.446539179886766 C98.87163102708361 27.68702790452499, 98.41065916604317 27.927516629163215, 97.54233778220309 28.3805193389262 C97.14281922612551 28.557374352404857, 96.74330067004793 28.734229365883515, 95.6959106537003 29.197877856399682 C95.24990640528912 29.36201154263307, 94.80390215687794 29.52614522886646, 93.80090886774407 29.895256030836055 C93.03014133966484 30.12401578732866, 92.25937381158559 30.352775543821263, 91.86511939314951 30.46978818572942 C91.16195142360257 30.63028168617868, 90.45878345405563 30.79077518662794, 89.89649680409323 30.919113445218557 C89.20492035642171 31.030922162022637, 88.51334390875017 31.14273087882672, 87.90313059306196 31.24138543543225 C87.45832259888763 31.284295527670366, 87.01351460471331 31.327205619908483, 85.89321192939245 31.435279871635593 C85.35292699349196 31.452605757929092, 84.81264205759146 31.46993164422259, 83.875 31.5 C83.875 31.5, 83.875 31.5, 83.875 31.5 C47.979118691667495 31.5, 12.083237383334989 31.5, -83.875 31.5 C-84.31776353692472 31.485801435157768, -84.76052707384945 31.471602870315532, -85.89321192939244 31.435279871635593 C-86.5694929573429 31.370039854216145, -87.24577398529337 31.304799836796697, -87.90313059306195 31.24138543543225 C-88.5595086050279 31.1352673287451, -89.21588661699387 31.02914922205795, -89.89649680409323 30.919113445218557 C-90.31167331910312 30.824352114947505, -90.726849834113 30.729590784676454, -91.86511939314947 30.469788185729428 C-92.3190574435147 30.33506175515048, -92.77299549387992 30.200335324571533, -93.80090886774403 29.89525603083607 C-94.51011435937373 29.634261854092642, -95.21931985100342 29.373267677349215, -95.69591065370028 29.197877856399685 C-96.19625172990095 28.976391704056333, -96.69659280610163 28.75490555171298, -97.54233778220308 28.380519338926206 C-98.12983063247971 28.074024695244017, -98.71732348275634 27.767530051561828, -99.33260288812403 27.446539179886773 C-99.80509922312476 27.160109124912655, -100.2775955581255 26.87367906993854, -101.05934938813226 26.399775304092994 C-101.60468146233077 26.019375256177128, -102.15001353652927 25.638975208261265, -102.7154817104733 25.244529088840636 C-103.09904775847608 24.938645372679627, -103.48261380647887 24.632761656518618, -104.29419445219533 23.98554768862774 C-104.75005216915368 23.571549771420422, -105.20590988611201 23.157551854213104, -105.7890003440098 22.628004528078435 C-106.10212893714687 22.304673547328804, -106.41525753028395 21.981342566579173, -107.19375690787244 21.177478043231478 C-107.51781089694862 20.79682578846826, -107.8418648860248 20.416173533705045, -108.50269169774293 19.639928758550113 C-108.91943516319833 19.08153048095063, -109.33617862865371 18.523132203351146, -109.7104260198041 18.021674793848355 C-109.9942216715044 17.585688463033833, -110.27801732320471 17.14970213221931, -110.8119970346684 16.329365901781557 C-111.20795774789686 15.626297560074422, -111.60391846112532 14.923229218367286, -111.8028781507495 14.569956142586314 C-112.03028456237284 14.097741863132724, -112.25769097399618 13.625527583679133, -112.67899762499809 12.750675308355417 C-112.84540108217766 12.339655551929887, -113.01180453935724 11.928635795504357, -113.43675529456745 10.878999214271209 C-113.64879471520085 10.240370263217146, -113.86083413583425 9.601741312163083, -114.07303737065482 8.962618978877522 C-114.26995028990363 8.211704675182709, -114.46686320915245 7.460790371487896, -114.58522923372743 7.009409419623911 C-114.67827939042162 6.531616531156825, -114.77132954711583 6.053823642689737, -114.97122617755518 5.027396693551461 C-115.02370725204604 4.620363843360768, -115.07618832653688 4.213330993170075, -115.22944205789975 3.024725316091999 C-115.27076839194171 2.3810343053719043, -115.31209472598368 1.7373432946518095, -115.35881581032167 1.0096246935071416 C-115.35881581032167 0.2559464605367998, -115.35881581032167 -0.49773177243354194, -115.35881581032167 -1.0096246935071262 C-115.33242852079462 -1.4206280273277065, -115.30604123126757 -1.831631361148287, -115.22944205789975 -3.024725316091956 C-115.16341834180082 -3.5367922202978477, -115.09739462570188 -4.048859124503739, -114.97122617755518 -5.027396693551446 C-114.88549903800464 -5.467587436706129, -114.7997718984541 -5.907778179860812, -114.58522923372745 -7.009409419623896 C-114.40517249678601 -7.696043794665009, -114.22511575984458 -8.382678169706121, -114.07303737065482 -8.962618978877506 C-113.84779505827115 -9.641012936288243, -113.62255274588749 -10.319406893698982, -113.43675529456746 -10.878999214271168 C-113.15500016051222 -11.574939842752553, -112.87324502645697 -12.270880471233935, -112.67899762499809 -12.750675308355401 C-112.48728844807172 -13.148763516162289, -112.29557927114534 -13.546851723969175, -111.8028781507495 -14.5699561425863 C-111.58878998166139 -14.950091365580134, -111.37470181257328 -15.330226588573968, -110.8119970346684 -16.329365901781546 C-110.46778021119042 -16.858175377802965, -110.12356338771245 -17.386984853824384, -109.71042601980412 -18.021674793848344 C-109.30564461552453 -18.564044999238444, -108.90086321124494 -19.106415204628544, -108.50269169774295 -19.639928758550102 C-108.05880829117297 -20.161339465588558, -107.61492488460298 -20.682750172627014, -107.19375690787246 -21.177478043231467 C-106.64786380250884 -21.74115749317686, -106.10197069714522 -22.304836943122254, -105.78900034400984 -22.628004528078403 C-105.35743483461296 -23.019940905114993, -104.92586932521607 -23.411877282151583, -104.29419445219536 -23.98554768862771 C-103.94383892345445 -24.26494689944641, -103.59348339471353 -24.544346110265113, -102.71548171047331 -25.244529088840626 C-102.23656775853279 -25.578598729863494, -101.75765380659227 -25.912668370886365, -101.0593493881323 -26.39977530409297 C-100.64605492822425 -26.650316834477074, -100.23276046831617 -26.900858364861183, -99.33260288812404 -27.446539179886763 C-98.9552582534113 -27.643399634115628, -98.57791361869856 -27.840260088344493, -97.54233778220309 -28.3805193389262 C-96.9335406530601 -28.65001576867261, -96.32474352391712 -28.91951219841902, -95.6959106537003 -29.19787785639968 C-95.2298840123636 -29.369379968314632, -94.7638573710269 -29.540882080229586, -93.80090886774407 -29.895256030836055 C-93.04243091718102 -30.120368305231164, -92.28395296661796 -30.345480579626273, -91.86511939314951 -30.469788185729417 C-91.31957687822236 -30.59430470476393, -90.77403436329523 -30.71882122379844, -89.89649680409325 -30.919113445218553 C-89.3947085767962 -31.000238674382118, -88.89292034949916 -31.081363903545682, -87.90313059306196 -31.24138543543225 C-87.15754042833862 -31.313311621919745, -86.4119502636153 -31.38523780840724, -85.89321192939246 -31.435279871635593 C-85.12403953864437 -31.459945733103652, -84.35486714789627 -31.484611594571707, -83.87500000000001 -31.5 C-83.87500000000001 -31.5, -83.875 -31.5, -83.875 -31.5" stroke="none" stroke-width="0" fill="#ECECFF" style=""/><path d="M-83.875 -31.5 C-36.59034860300706 -31.5, 10.694302793985884 -31.5, 83.875 -31.5 M-83.875 -31.5 C-30.22509428456842 -31.5, 23.42481143086316 -31.5, 83.875 -31.5 M83.875 -31.5 C83.875 -31.5, 83.875 -31.5, 83.875 -31.5 M83.875 -31.5 C83.875 -31.5, 83.875 -31.5, 83.875 -31.5 M83.875 -31.5 C84.65237243522817 -31.475071179065885, 85.42974487045636 -31.45014235813177, 85.89321192939245 -31.435279871635593 M83.875 -31.5 C84.44433996296534 -31.481742375540712, 85.01367992593069 -31.463484751081424, 85.89321192939245 -31.435279871635593 M85.89321192939245 -31.435279871635593 C86.53994671459714 -31.372890144719275, 87.18668149980182 -31.310500417802956, 87.90313059306193 -31.241385435432253 M85.89321192939245 -31.435279871635593 C86.46139125747852 -31.38046829519075, 87.0295705855646 -31.3256567187459, 87.90313059306193 -31.241385435432253 M87.90313059306193 -31.241385435432253 C88.33615194759297 -31.171377900962433, 88.76917330212402 -31.101370366492613, 89.89649680409322 -30.91911344521856 M87.90313059306193 -31.241385435432253 C88.44781435994592 -31.15332518808815, 88.99249812682991 -31.065264940744047, 89.89649680409322 -30.91911344521856 M89.89649680409322 -30.91911344521856 C90.31303272295938 -30.824041839888253, 90.72956864182555 -30.728970234557945, 91.86511939314947 -30.469788185729428 M89.89649680409322 -30.91911344521856 C90.37364282372718 -30.810207979905872, 90.85078884336114 -30.701302514593184, 91.86511939314947 -30.469788185729428 M91.86511939314947 -30.469788185729428 C92.33005407286247 -30.331798013282548, 92.79498875257546 -30.193807840835667, 93.80090886774406 -29.895256030836062 M91.86511939314947 -30.469788185729428 C92.43178321503312 -30.301605337873458, 92.99844703691679 -30.13342249001749, 93.80090886774406 -29.895256030836062 M93.80090886774406 -29.895256030836062 C94.40340489330866 -29.67353192401608, 95.00590091887328 -29.45180781719609, 95.69591065370028 -29.197877856399685 M93.80090886774406 -29.895256030836062 C94.36593184727354 -29.68732235135404, 94.93095482680305 -29.47938867187202, 95.69591065370028 -29.197877856399685 M95.69591065370028 -29.197877856399685 C96.32102579109792 -28.92115792845545, 96.94614092849557 -28.64443800051122, 97.54233778220308 -28.380519338926202 M95.69591065370028 -29.197877856399685 C96.42933324802038 -28.87321343010244, 97.16275584234049 -28.548549003805192, 97.54233778220308 -28.380519338926202 M97.54233778220308 -28.380519338926202 C97.95496522948973 -28.16525186397725, 98.36759267677638 -27.949984389028295, 99.33260288812403 -27.44653917988677 M97.54233778220308 -28.380519338926202 C98.13166585613504 -28.073067260238545, 98.720993930067 -27.765615181550885, 99.33260288812403 -27.44653917988677 M99.33260288812403 -27.44653917988677 C99.93901223011515 -27.0789302731149, 100.54542157210626 -26.71132136634303, 101.05934938813228 -26.399775304092984 M99.33260288812403 -27.44653917988677 C99.96340808717655 -27.064141361198313, 100.59421328622906 -26.681743542509857, 101.05934938813228 -26.399775304092984 M101.05934938813228 -26.399775304092984 C101.68555132983968 -25.962963937403053, 102.31175327154708 -25.526152570713123, 102.7154817104733 -25.244529088840633 M101.05934938813228 -26.399775304092984 C101.58664432751092 -26.03195718061247, 102.11393926688957 -25.66413905713195, 102.7154817104733 -25.244529088840633 M102.7154817104733 -25.244529088840633 C103.10085946881274 -24.937200581897777, 103.48623722715217 -24.62987207495492, 104.29419445219533 -23.985547688627737 M102.7154817104733 -25.244529088840633 C103.0816931564892 -24.952485205938814, 103.44790460250508 -24.660441323037, 104.29419445219533 -23.985547688627737 M104.29419445219533 -23.985547688627737 C104.73681588967459 -23.583570610230552, 105.17943732715386 -23.181593531833368, 105.78900034400982 -22.62800452807842 M104.29419445219533 -23.985547688627737 C104.81961355335103 -23.508375962785742, 105.34503265450675 -23.031204236943747, 105.78900034400982 -22.62800452807842 M105.78900034400982 -22.62800452807842 C106.14378429037673 -22.261660975150875, 106.49856823674364 -21.89531742222333, 107.19375690787243 -21.177478043231485 M105.78900034400982 -22.62800452807842 C106.10225755404623 -22.304540739820567, 106.41551476408266 -21.981076951562713, 107.19375690787243 -21.177478043231485 M107.19375690787243 -21.177478043231485 C107.60271025968133 -20.697098166091823, 108.01166361149022 -20.216718288952165, 108.50269169774293 -19.63992875855011 M107.19375690787243 -21.177478043231485 C107.61693848049794 -20.680384888311927, 108.04012005312346 -20.18329173339237, 108.50269169774293 -19.63992875855011 M108.50269169774293 -19.63992875855011 C108.9830264857195 -18.996323902060897, 109.4633612736961 -18.352719045571682, 109.7104260198041 -18.02167479384835 M108.50269169774293 -19.63992875855011 C108.82890060357563 -19.20283854297697, 109.15510950940835 -18.76574832740383, 109.7104260198041 -18.02167479384835 M109.7104260198041 -18.02167479384835 C109.93728679931205 -17.673155715875158, 110.16414757881999 -17.324636637901964, 110.8119970346684 -16.329365901781543 M109.7104260198041 -18.02167479384835 C110.01551269555722 -17.552979732648225, 110.32059937131034 -17.084284671448103, 110.8119970346684 -16.329365901781543 M110.8119970346684 -16.329365901781543 C111.04870192499787 -15.909072400032311, 111.28540681532735 -15.488778898283078, 111.8028781507495 -14.56995614258631 M110.8119970346684 -16.329365901781543 C111.16920494929732 -15.695107078134269, 111.52641286392624 -15.060848254486993, 111.8028781507495 -14.56995614258631 M111.8028781507495 -14.56995614258631 C111.9813299970907 -14.19939706540099, 112.15978184343189 -13.828837988215673, 112.67899762499809 -12.750675308355413 M111.8028781507495 -14.56995614258631 C111.99418748204316 -14.172698222791082, 112.18549681333683 -13.775440302995856, 112.67899762499809 -12.750675308355413 M112.67899762499809 -12.750675308355413 C112.96073176251004 -12.054786541741898, 113.242465900022 -11.35889777512838, 113.43675529456745 -10.878999214271206 M112.67899762499809 -12.750675308355413 C112.90739503880202 -12.1865292804961, 113.13579245260595 -11.622383252636785, 113.43675529456745 -10.878999214271206 M113.43675529456745 -10.878999214271206 C113.6878775865382 -10.122658881758912, 113.93899987850898 -9.366318549246621, 114.07303737065482 -8.962618978877531 M113.43675529456745 -10.878999214271206 C113.58229317824481 -10.440662296947734, 113.72783106192216 -10.002325379624263, 114.07303737065482 -8.962618978877531 M114.07303737065482 -8.962618978877531 C114.25755693211342 -8.258965919752061, 114.44207649357202 -7.555312860626591, 114.58522923372745 -7.009409419623907 M114.07303737065482 -8.962618978877531 C114.18632305481374 -8.530611566853437, 114.29960873897268 -8.098604154829344, 114.58522923372745 -7.009409419623907 M114.58522923372745 -7.009409419623907 C114.71769074718107 -6.329247543790368, 114.85015226063467 -5.649085667956829, 114.97122617755518 -5.027396693551458 M114.58522923372745 -7.009409419623907 C114.69303987257229 -6.455824574942254, 114.80085051141712 -5.9022397302606, 114.97122617755518 -5.027396693551458 M114.97122617755518 -5.027396693551458 C115.06299796071914 -4.3156328657201595, 115.1547697438831 -3.603869037888861, 115.22944205789975 -3.024725316091981 M114.97122617755518 -5.027396693551458 C115.05378437243397 -4.38709163703116, 115.13634256731275 -3.746786580510862, 115.22944205789975 -3.024725316091981 M115.22944205789975 -3.024725316091981 C115.27594125155984 -2.300462841362438, 115.32244044521994 -1.5762003666328945, 115.35881581032167 -1.0096246935071378 M115.22944205789975 -3.024725316091981 C115.27199844031125 -2.3618753091392346, 115.31455482272276 -1.6990253021864878, 115.35881581032167 -1.0096246935071378 M115.35881581032167 -1.0096246935071378 C115.35881581032167 -0.5850588809197321, 115.35881581032167 -0.16049306833232635, 115.35881581032167 1.00962469350713 M115.35881581032167 -1.0096246935071378 C115.35881581032167 -0.23989667267427772, 115.35881581032167 0.5298313481585823, 115.35881581032167 1.00962469350713 M115.35881581032167 1.00962469350713 C115.3122694961078 1.7346211088967243, 115.26572318189393 2.459617524286319, 115.22944205789975 3.02472531609196 M115.35881581032167 1.00962469350713 C115.3234346100214 1.5607154473747165, 115.28805340972113 2.1118062012423024, 115.22944205789975 3.02472531609196 M115.22944205789975 3.02472531609196 C115.13867271082634 3.72871444755836, 115.04790336375292 4.43270357902476, 114.97122617755518 5.027396693551435 M115.22944205789975 3.02472531609196 C115.16480647617138 3.526026124237913, 115.10017089444301 4.0273269323838665, 114.97122617755518 5.027396693551435 M114.97122617755518 5.027396693551435 C114.86000178000457 5.598510467689101, 114.74877738245395 6.169624241826766, 114.58522923372745 7.0094094196239 M114.97122617755518 5.027396693551435 C114.83789718610505 5.7120128855555405, 114.70456819465493 6.396629077559646, 114.58522923372745 7.0094094196239 M114.58522923372745 7.0094094196239 C114.40073932761221 7.7129493900723665, 114.216249421497 8.416489360520833, 114.07303737065482 8.96261897887751 M114.58522923372745 7.0094094196239 C114.39579856806728 7.731790647555943, 114.20636790240712 8.454171875487987, 114.07303737065482 8.96261897887751 M114.07303737065482 8.96261897887751 C113.8325999050827 9.686778316672976, 113.59216243951059 10.410937654468443, 113.43675529456746 10.878999214271184 M114.07303737065482 8.96261897887751 C113.8732811591948 9.564252860964926, 113.6735249477348 10.165886743052342, 113.43675529456746 10.878999214271184 M113.43675529456746 10.878999214271184 C113.24557036987188 11.351229674578304, 113.05438544517632 11.823460134885424, 112.67899762499809 12.750675308355405 M113.43675529456746 10.878999214271184 C113.21669546335046 11.422551251944565, 112.99663563213346 11.966103289617948, 112.67899762499809 12.750675308355405 M112.67899762499809 12.750675308355405 C112.35911296789081 13.414922643273892, 112.03922831078351 14.079169978192379, 111.8028781507495 14.569956142586303 M112.67899762499809 12.750675308355405 C112.49146841241502 13.140083730766513, 112.30393919983194 13.529492153177621, 111.8028781507495 14.569956142586303 M111.8028781507495 14.569956142586303 C111.5961094292969 14.93709494512884, 111.38934070784431 15.304233747671375, 110.81199703466841 16.329365901781536 M111.8028781507495 14.569956142586303 C111.52891059229616 15.056413284843778, 111.2549430338428 15.542870427101253, 110.81199703466841 16.329365901781536 M110.81199703466841 16.329365901781536 C110.40548815396767 16.9538727054566, 109.99897927326691 17.57837950913166, 109.71042601980412 18.021674793848334 M110.81199703466841 16.329365901781536 C110.57914387440098 16.687090885780826, 110.34629071413357 17.044815869780116, 109.71042601980412 18.021674793848334 M109.71042601980412 18.021674793848334 C109.35612411229546 18.496407072342155, 109.00182220478679 18.971139350835973, 108.50269169774295 19.639928758550102 M109.71042601980412 18.021674793848334 C109.4114321225297 18.42229937729165, 109.11243822525529 18.822923960734972, 108.50269169774295 19.639928758550102 M108.50269169774295 19.639928758550102 C108.01075546576315 20.21778504859815, 107.51881923378336 20.795641338646195, 107.19375690787246 21.177478043231467 M108.50269169774295 19.639928758550102 C108.01502195039131 20.212773392984055, 107.52735220303968 20.78561802741801, 107.19375690787246 21.177478043231467 M107.19375690787246 21.177478043231467 C106.88808184931857 21.493112637577386, 106.58240679076468 21.80874723192331, 105.78900034400982 22.628004528078414 M107.19375690787246 21.177478043231467 C106.89505531772345 21.485911958916944, 106.59635372757445 21.794345874602417, 105.78900034400982 22.628004528078414 M105.78900034400982 22.628004528078414 C105.32562403417668 23.048830632403558, 104.86224772434353 23.469656736728705, 104.29419445219536 23.985547688627715 M105.78900034400982 22.628004528078414 C105.4281041838484 22.955760871947877, 105.06720802368697 23.28351721581734, 104.29419445219536 23.985547688627715 M104.29419445219536 23.985547688627715 C103.88852487281434 24.30905838286319, 103.48285529343333 24.632569077098662, 102.71548171047331 25.24452908884063 M104.29419445219536 23.985547688627715 C103.83586291678341 24.35105489140435, 103.37753138137148 24.716562094180983, 102.71548171047331 25.24452908884063 M102.71548171047331 25.24452908884063 C102.23203508194767 25.581760528832866, 101.74858845342203 25.918991968825104, 101.05934938813229 26.399775304092973 M102.71548171047331 25.24452908884063 C102.0947267297754 25.677540891325474, 101.4739717490775 26.11055269381032, 101.05934938813229 26.399775304092973 M101.05934938813229 26.399775304092973 C100.37822206957792 26.812678687349056, 99.69709475102356 27.22558207060514, 99.33260288812404 27.446539179886766 M101.05934938813229 26.399775304092973 C100.51783493016676 26.728044550803865, 99.97632047220122 27.056313797514758, 99.33260288812404 27.446539179886766 M99.33260288812404 27.446539179886766 C98.74137204251188 27.754983933341197, 98.15014119689972 28.063428686795632, 97.54233778220309 28.3805193389262 M99.33260288812404 27.446539179886766 C98.69748676570387 27.77787885414208, 98.06237064328369 28.109218528397395, 97.54233778220309 28.3805193389262 M97.54233778220309 28.3805193389262 C96.88959997922002 28.66946700152784, 96.23686217623695 28.958414664129474, 95.6959106537003 29.197877856399682 M97.54233778220309 28.3805193389262 C96.86505611706835 28.680331841234583, 96.18777445193359 28.980144343542968, 95.6959106537003 29.197877856399682 M95.6959106537003 29.197877856399682 C95.07141988845439 29.42769623073953, 94.44692912320846 29.65751460507938, 93.80090886774407 29.895256030836055 M95.6959106537003 29.197877856399682 C95.31389450227911 29.338463331441268, 94.93187835085793 29.479048806482858, 93.80090886774407 29.895256030836055 M93.80090886774407 29.895256030836055 C93.27724533260455 30.05067661929948, 92.75358179746503 30.2060972077629, 91.86511939314951 30.46978818572942 M93.80090886774407 29.895256030836055 C93.12359370800601 30.09627961494649, 92.44627854826795 30.297303199056923, 91.86511939314951 30.46978818572942 M91.86511939314951 30.46978818572942 C91.29438344247062 30.600054942071736, 90.72364749179172 30.730321698414052, 89.89649680409323 30.919113445218557 M91.86511939314951 30.46978818572942 C91.2781909237972 30.603750778792886, 90.69126245444487 30.73771337185635, 89.89649680409323 30.919113445218557 M89.89649680409323 30.919113445218557 C89.4620532676861 30.989350907024917, 89.02760973127899 31.059588368831278, 87.90313059306196 31.24138543543225 M89.89649680409323 30.919113445218557 C89.39977747632825 30.999419174015678, 88.90305814856329 31.079724902812803, 87.90313059306196 31.24138543543225 M87.90313059306196 31.24138543543225 C87.36890199654154 31.292921825634686, 86.83467340002112 31.344458215837122, 85.89321192939245 31.435279871635593 M87.90313059306196 31.24138543543225 C87.13932310093352 31.31506902558497, 86.37551560880509 31.388752615737697, 85.89321192939245 31.435279871635593 M85.89321192939245 31.435279871635593 C85.29664917205282 31.45441047812451, 84.70008641471321 31.473541084613426, 83.875 31.5 M85.89321192939245 31.435279871635593 C85.22584872059835 31.456680910797935, 84.55848551180425 31.47808194996028, 83.875 31.5 M83.875 31.5 C83.875 31.5, 83.875 31.5, 83.875 31.5 M83.875 31.5 C83.875 31.5, 83.875 31.5, 83.875 31.5 M83.875 31.5 C36.68037379680918 31.5, -10.514252406381644 31.5, -83.875 31.5 M83.875 31.5 C47.617471560651225 31.5, 11.35994312130245 31.5, -83.875 31.5 M-83.875 31.5 C-84.2851904432058 31.48684599087365, -84.69538088641163 31.473691981747304, -85.89321192939244 31.435279871635593 M-83.875 31.5 C-84.57638974653202 31.47750779600104, -85.27777949306405 31.455015592002077, -85.89321192939244 31.435279871635593 M-85.89321192939244 31.435279871635593 C-86.44044694610652 31.382488767719583, -86.98768196282062 31.32969766380357, -87.90313059306195 31.24138543543225 M-85.89321192939244 31.435279871635593 C-86.3532555944972 31.390900012546393, -86.81329925960198 31.346520153457192, -87.90313059306195 31.24138543543225 M-87.90313059306195 31.24138543543225 C-88.67552676411893 31.116510412517524, -89.44792293517591 30.9916353896028, -89.89649680409323 30.919113445218557 M-87.90313059306195 31.24138543543225 C-88.36307952475282 31.167024459113705, -88.82302845644371 31.092663482795164, -89.89649680409323 30.919113445218557 M-89.89649680409323 30.919113445218557 C-90.57782837621777 30.76360395998515, -91.2591599483423 30.60809447475174, -91.86511939314947 30.469788185729428 M-89.89649680409323 30.919113445218557 C-90.29400946389097 30.82838377463225, -90.69152212368871 30.737654104045944, -91.86511939314947 30.469788185729428 M-91.86511939314947 30.469788185729428 C-92.29481935132722 30.34225549368338, -92.72451930950497 30.21472280163733, -93.80090886774403 29.89525603083607 M-91.86511939314947 30.469788185729428 C-92.54019160587207 30.269430296519715, -93.21526381859466 30.069072407310006, -93.80090886774403 29.89525603083607 M-93.80090886774403 29.89525603083607 C-94.34976769965996 29.69327090709558, -94.8986265315759 29.491285783355092, -95.69591065370028 29.197877856399685 M-93.80090886774403 29.89525603083607 C-94.22678293620311 29.73853043690639, -94.6526570046622 29.581804842976716, -95.69591065370028 29.197877856399685 M-95.69591065370028 29.197877856399685 C-96.27660365666566 28.94082228963282, -96.85729665963103 28.683766722865954, -97.54233778220308 28.380519338926206 M-95.69591065370028 29.197877856399685 C-96.0879368671949 29.024339480730063, -96.47996308068952 28.85080110506044, -97.54233778220308 28.380519338926206 M-97.54233778220308 28.380519338926206 C-97.97931089381413 28.152550746493358, -98.41628400542517 27.924582154060513, -99.33260288812403 27.446539179886773 M-97.54233778220308 28.380519338926206 C-97.93113665681534 28.177683215078556, -98.3199355314276 27.974847091230902, -99.33260288812403 27.446539179886773 M-99.33260288812403 27.446539179886773 C-99.94610925721769 27.074628013578582, -100.55961562631134 26.70271684727039, -101.05934938813226 26.399775304092994 M-99.33260288812403 27.446539179886773 C-99.72233913255859 27.210278778166145, -100.11207537699315 26.974018376445517, -101.05934938813226 26.399775304092994 M-101.05934938813226 26.399775304092994 C-101.56222811550732 26.0489888731454, -102.06510684288239 25.698202442197807, -102.7154817104733 25.244529088840636 M-101.05934938813226 26.399775304092994 C-101.49058423878408 26.0989645401341, -101.92181908943589 25.79815377617521, -102.7154817104733 25.244529088840636 M-102.7154817104733 25.244529088840636 C-103.33000006441264 24.754467054594194, -103.94451841835198 24.264405020347752, -104.29419445219533 23.98554768862774 M-102.7154817104733 25.244529088840636 C-103.08488364694126 24.949940874705806, -103.45428558340923 24.655352660570976, -104.29419445219533 23.98554768862774 M-104.29419445219533 23.98554768862774 C-104.70080978803288 23.616270399072306, -105.10742512387046 23.246993109516875, -105.7890003440098 22.628004528078435 M-104.29419445219533 23.98554768862774 C-104.62768012464697 23.682684824454533, -104.96116579709862 23.379821960281326, -105.7890003440098 22.628004528078435 M-105.7890003440098 22.628004528078435 C-106.34637326066007 22.052471230469543, -106.90374617731032 21.476937932860654, -107.19375690787244 21.177478043231478 M-105.7890003440098 22.628004528078435 C-106.16576019295572 22.23896905148292, -106.54252004190162 21.849933574887405, -107.19375690787244 21.177478043231478 M-107.19375690787244 21.177478043231478 C-107.62678039759403 20.66882401246992, -108.05980388731562 20.160169981708364, -108.50269169774293 19.639928758550113 M-107.19375690787244 21.177478043231478 C-107.59923925986439 20.701175399982283, -108.00472161185634 20.22487275673309, -108.50269169774293 19.639928758550113 M-108.50269169774293 19.639928758550113 C-108.79367991886986 19.250031051812343, -109.08466813999677 18.860133345074573, -109.7104260198041 18.021674793848355 M-108.50269169774293 19.639928758550113 C-108.86631240241842 19.152710140812637, -109.2299331070939 18.665491523075165, -109.7104260198041 18.021674793848355 M-109.7104260198041 18.021674793848355 C-110.1380013753862 17.364804227614968, -110.56557673096829 16.707933661381578, -110.8119970346684 16.329365901781557 M-109.7104260198041 18.021674793848355 C-110.02622569940905 17.536521681887496, -110.34202537901399 17.051368569926638, -110.8119970346684 16.329365901781557 M-110.8119970346684 16.329365901781557 C-111.0481082723918 15.910126490348235, -111.28421951011522 15.490887078914911, -111.8028781507495 14.569956142586314 M-110.8119970346684 16.329365901781557 C-111.02402537123187 15.952888120015881, -111.23605370779535 15.576410338250204, -111.8028781507495 14.569956142586314 M-111.8028781507495 14.569956142586314 C-112.0377375514073 14.082265571934247, -112.2725969520651 13.594575001282182, -112.67899762499809 12.750675308355417 M-111.8028781507495 14.569956142586314 C-112.09418903392196 13.965042860624331, -112.3854999170944 13.360129578662349, -112.67899762499809 12.750675308355417 M-112.67899762499809 12.750675308355417 C-112.85436119570113 12.31752389829493, -113.02972476640416 11.88437248823444, -113.43675529456745 10.878999214271209 M-112.67899762499809 12.750675308355417 C-112.9820609437274 12.00210305176336, -113.2851242624567 11.253530795171304, -113.43675529456745 10.878999214271209 M-113.43675529456745 10.878999214271209 C-113.60035271975633 10.386269835312227, -113.7639501449452 9.893540456353243, -114.07303737065482 8.962618978877522 M-113.43675529456745 10.878999214271209 C-113.67317875552322 10.166929418835357, -113.90960221647902 9.454859623399505, -114.07303737065482 8.962618978877522 M-114.07303737065482 8.962618978877522 C-114.18205998998094 8.54686848068486, -114.29108260930708 8.1311179824922, -114.58522923372743 7.009409419623911 M-114.07303737065482 8.962618978877522 C-114.26050074598594 8.247739881599106, -114.44796412131707 7.53286078432069, -114.58522923372743 7.009409419623911 M-114.58522923372743 7.009409419623911 C-114.73221803741127 6.2546529788020555, -114.87920684109513 5.499896537980199, -114.97122617755518 5.027396693551461 M-114.58522923372743 7.009409419623911 C-114.72725590727876 6.280132468285931, -114.8692825808301 5.5508555169479505, -114.97122617755518 5.027396693551461 M-114.97122617755518 5.027396693551461 C-115.0362837493706 4.5228230136217284, -115.10134132118601 4.018249333691995, -115.22944205789975 3.024725316091999 M-114.97122617755518 5.027396693551461 C-115.0567877087378 4.363798353734428, -115.14234923992043 3.700200013917394, -115.22944205789975 3.024725316091999 M-115.22944205789975 3.024725316091999 C-115.26388477867712 2.488252138320487, -115.2983274994545 1.9517789605489757, -115.35881581032167 1.0096246935071416 M-115.22944205789975 3.024725316091999 C-115.2746189141393 2.3210593140589624, -115.31979577037885 1.6173933120259256, -115.35881581032167 1.0096246935071416 M-115.35881581032167 1.0096246935071416 C-115.35881581032167 0.23069625649004666, -115.35881581032167 -0.5482321805270483, -115.35881581032167 -1.0096246935071262 M-115.35881581032167 1.0096246935071416 C-115.35881581032167 0.3946854664902646, -115.35881581032167 -0.22025376052661239, -115.35881581032167 -1.0096246935071262 M-115.35881581032167 -1.0096246935071262 C-115.33286617503488 -1.4138112092674229, -115.3069165397481 -1.8179977250277195, -115.22944205789975 -3.024725316091956 M-115.35881581032167 -1.0096246935071262 C-115.32008148039867 -1.6129431478462508, -115.28134715047567 -2.216261602185375, -115.22944205789975 -3.024725316091956 M-115.22944205789975 -3.024725316091956 C-115.15510124390863 -3.6012979891528976, -115.08076042991752 -4.177870662213839, -114.97122617755518 -5.027396693551446 M-115.22944205789975 -3.024725316091956 C-115.12989060722164 -3.7968267088938807, -115.03033915654353 -4.568928101695805, -114.97122617755518 -5.027396693551446 M-114.97122617755518 -5.027396693551446 C-114.85345753285702 -5.6321137936645895, -114.73568888815888 -6.236830893777734, -114.58522923372745 -7.009409419623896 M-114.97122617755518 -5.027396693551446 C-114.89357937324722 -5.426096623014947, -114.81593256893925 -5.824796552478449, -114.58522923372745 -7.009409419623896 M-114.58522923372745 -7.009409419623896 C-114.43054392817409 -7.599291530734379, -114.27585862262072 -8.189173641844862, -114.07303737065482 -8.962618978877506 M-114.58522923372745 -7.009409419623896 C-114.45265291287447 -7.5149803899771985, -114.32007659202151 -8.0205513603305, -114.07303737065482 -8.962618978877506 M-114.07303737065482 -8.962618978877506 C-113.93003957056673 -9.393305569137446, -113.78704177047865 -9.823992159397386, -113.43675529456746 -10.878999214271168 M-114.07303737065482 -8.962618978877506 C-113.85260266386761 -9.62653319421964, -113.6321679570804 -10.290447409561773, -113.43675529456746 -10.878999214271168 M-113.43675529456746 -10.878999214271168 C-113.20404419595509 -11.453800127006746, -112.97133309734271 -12.028601039742323, -112.67899762499809 -12.750675308355401 M-113.43675529456746 -10.878999214271168 C-113.1915236379926 -11.484726147242588, -112.94629198141776 -12.09045308021401, -112.67899762499809 -12.750675308355401 M-112.67899762499809 -12.750675308355401 C-112.39775025796881 -13.334691483721327, -112.11650289093954 -13.918707659087255, -111.8028781507495 -14.5699561425863 M-112.67899762499809 -12.750675308355401 C-112.42329473015057 -13.28164784067176, -112.16759183530306 -13.812620372988116, -111.8028781507495 -14.5699561425863 M-111.8028781507495 -14.5699561425863 C-111.5891630007334 -14.949429032445527, -111.37544785071726 -15.328901922304755, -110.8119970346684 -16.329365901781546 M-111.8028781507495 -14.5699561425863 C-111.56053909498175 -15.000253675592313, -111.31820003921399 -15.430551208598327, -110.8119970346684 -16.329365901781546 M-110.8119970346684 -16.329365901781546 C-110.50544541103355 -16.800311516321607, -110.19889378739869 -17.271257130861663, -109.71042601980412 -18.021674793848344 M-110.8119970346684 -16.329365901781546 C-110.44987204781768 -16.8856871257587, -110.08774706096695 -17.442008349735858, -109.71042601980412 -18.021674793848344 M-109.71042601980412 -18.021674793848344 C-109.30917815257351 -18.559310381504655, -108.9079302853429 -19.096945969160966, -108.50269169774295 -19.639928758550102 M-109.71042601980412 -18.021674793848344 C-109.41790556183759 -18.41362555836154, -109.12538510387107 -18.805576322874742, -108.50269169774295 -19.639928758550102 M-108.50269169774295 -19.639928758550102 C-108.1352828616282 -20.071508083605504, -107.76787402551345 -20.503087408660907, -107.19375690787246 -21.177478043231467 M-108.50269169774295 -19.639928758550102 C-108.14990224942204 -20.05433531883613, -107.79711280110114 -20.46874187912216, -107.19375690787246 -21.177478043231467 M-107.19375690787246 -21.177478043231467 C-106.75478270349593 -21.630754949702666, -106.31580849911941 -22.084031856173866, -105.78900034400984 -22.628004528078403 M-107.19375690787246 -21.177478043231467 C-106.89849892200405 -21.48235615477205, -106.60324093613566 -21.787234266312634, -105.78900034400984 -22.628004528078403 M-105.78900034400984 -22.628004528078403 C-105.26851925170045 -23.100691684938717, -104.74803815939107 -23.57337884179903, -104.29419445219536 -23.98554768862771 M-105.78900034400984 -22.628004528078403 C-105.21571426331879 -23.14864777824352, -104.64242818262773 -23.66929102840864, -104.29419445219536 -23.98554768862771 M-104.29419445219536 -23.98554768862771 C-103.89313144213733 -24.305384766414065, -103.4920684320793 -24.62522184420042, -102.71548171047331 -25.244529088840626 M-104.29419445219536 -23.98554768862771 C-103.73384211921883 -24.432413762574665, -103.1734897862423 -24.879279836521615, -102.71548171047331 -25.244529088840626 M-102.71548171047331 -25.244529088840626 C-102.28508097875704 -25.544758007538515, -101.85468024704076 -25.844986926236405, -101.0593493881323 -26.39977530409297 M-102.71548171047331 -25.244529088840626 C-102.15689963568397 -25.63417176358538, -101.59831756089463 -26.02381443833013, -101.0593493881323 -26.39977530409297 M-101.0593493881323 -26.39977530409297 C-100.51202510267771 -26.731566502370065, -99.96470081722312 -27.06335770064716, -99.33260288812404 -27.446539179886763 M-101.0593493881323 -26.39977530409297 C-100.5132116066983 -26.730847236660107, -99.96707382526431 -27.06191916922724, -99.33260288812404 -27.446539179886763 M-99.33260288812404 -27.446539179886763 C-98.62073057275566 -27.81792251083847, -97.90885825738727 -28.18930584179018, -97.54233778220309 -28.3805193389262 M-99.33260288812404 -27.446539179886763 C-98.7743515774865 -27.737778531069342, -98.21610026684894 -28.029017882251924, -97.54233778220309 -28.3805193389262 M-97.54233778220309 -28.3805193389262 C-96.9524596651546 -28.641640883230927, -96.36258154810614 -28.902762427535656, -95.6959106537003 -29.19787785639968 M-97.54233778220309 -28.3805193389262 C-96.86815656514283 -28.678959364843536, -96.19397534808256 -28.97739939076087, -95.6959106537003 -29.19787785639968 M-95.6959106537003 -29.19787785639968 C-95.01532358038787 -29.44834019065659, -94.33473650707545 -29.698802524913503, -93.80090886774407 -29.895256030836055 M-95.6959106537003 -29.19787785639968 C-95.25312722563118 -29.360826250974256, -94.81034379756206 -29.52377464554883, -93.80090886774407 -29.895256030836055 M-93.80090886774407 -29.895256030836055 C-93.1373220494747 -30.092205115260114, -92.47373523120534 -30.289154199684173, -91.86511939314951 -30.469788185729417 M-93.80090886774407 -29.895256030836055 C-93.25094371960584 -30.058482799977508, -92.70097857146763 -30.22170956911896, -91.86511939314951 -30.469788185729417 M-91.86511939314951 -30.469788185729417 C-91.22749114234703 -30.61532267306189, -90.58986289154456 -30.760857160394362, -89.89649680409325 -30.919113445218553 M-91.86511939314951 -30.469788185729417 C-91.12106570950039 -30.639613583618285, -90.37701202585126 -30.809438981507153, -89.89649680409325 -30.919113445218553 M-89.89649680409325 -30.919113445218553 C-89.36605745616471 -31.00487076537306, -88.83561810823616 -31.090628085527566, -87.90313059306196 -31.24138543543225 M-89.89649680409325 -30.919113445218553 C-89.45564804697104 -30.9903864534369, -89.01479928984881 -31.06165946165525, -87.90313059306196 -31.24138543543225 M-87.90313059306196 -31.24138543543225 C-87.32064163476602 -31.297577444693594, -86.7381526764701 -31.353769453954936, -85.89321192939246 -31.435279871635593 M-87.90313059306196 -31.24138543543225 C-87.44330151712026 -31.28574459336297, -86.98347244117855 -31.330103751293695, -85.89321192939246 -31.435279871635593 M-85.89321192939246 -31.435279871635593 C-85.25662879111987 -31.455693853846086, -84.62004565284728 -31.476107836056578, -83.87500000000001 -31.5 M-85.89321192939246 -31.435279871635593 C-85.17144124770353 -31.458425652555952, -84.4496705660146 -31.48157143347631, -83.87500000000001 -31.5 M-83.87500000000001 -31.5 C-83.87500000000001 -31.5, -83.87500000000001 -31.5, -83.875 -31.5 M-83.87500000000001 -31.5 C-83.87500000000001 -31.5, -83.875 -31.5, -83.875 -31.5" stroke="#9370DB" stroke-width="1.3" fill="none" stroke-dasharray="0 0" style=""/></g><g class="label" style="" transform="translate(-100, -24)"><rect/><foreignObject width="200" height="48"><div xmlns="http://www.w3.org/1999/xhtml" style="display: table; white-space: break-spaces; line-height: 1.5; max-width: 200px; text-align: center; width: 200px;"><span class="nodeLabel"><p>Section 46: Death (eff: 1872-01-01)</p></span></div></foreignObject></g></g></g></g></g><defs><filter id="my-svg-drop-shadow" height="130%" width="130%"><feDropShadow dx="4" dy="4" stdDeviation="0" flood-opacity="0.06" flood-color="#000000"/></filter></defs><defs><filter id="my-svg-drop-shadow-small" height="150%" width="150%"><feDropShadow dx="2" dy="2" stdDeviation="0" flood-opacity="0.06" flood-color="#000000"/></filter></defs></svg>