<svg class="yuho-mermaid-svg" id="my-svg" width="100%" xmlns="http://www.w3.org/2000/svg" xmlns:xlink="http://www.w3.org/1999/xlink" class="flowchart" style="max-width: 276px; background-color: transparent;" viewBox="0 0 276 802" role="graphics-document document" aria-roledescription="flowchart-v2"><style>#my-svg{font-family:"trebuchet ms",verdana,arial,sans-serif;font-size:16px;fill:#333;}@keyframes edge-animation-frame{from{stroke-dashoffset:0;}}@keyframes dash{to{stroke-dashoffset:0;}}#my-svg .edge-animation-slow{stroke-dasharray:9,5!important;stroke-dashoffset:900;animation:dash 50s linear infinite;stroke-linecap:round;}#my-svg .edge-animation-fast{stroke-dasharray:9,5!important;stroke-dashoffset:900;animation:dash 20s linear infinite;stroke-linecap:round;}#my-svg .error-icon{fill:#552222;}#my-svg .error-text{fill:#552222;stroke:#552222;}#my-svg .edge-thickness-normal{stroke-width:1px;}#my-svg .edge-thickness-thick{stroke-width:3.5px;}#my-svg .edge-pattern-solid{stroke-dasharray:0;}#my-svg .edge-thickness-invisible{stroke-width:0;fill:none;}#my-svg .edge-pattern-dashed{stroke-dasharray:3;}#my-svg .edge-pattern-dotted{stroke-dasharray:2;}#my-svg .marker{fill:#333333;stroke:#333333;}#my-svg .marker.cross{stroke:#333333;}#my-svg svg{font-family:"trebuchet ms",verdana,arial,sans-serif;font-size:16px;}#my-svg p{margin:0;}#my-svg .label{font-family:"trebuchet ms",verdana,arial,sans-serif;color:#333;}#my-svg .cluster-label text{fill:#333;}#my-svg .cluster-label span{color:#333;}#my-svg .cluster-label span p{background-color:transparent;}#my-svg .label text,#my-svg span{fill:#333;color:#333;}#my-svg .node rect,#my-svg .node circle,#my-svg .node ellipse,#my-svg .node polygon,#my-svg .node path{fill:#ECECFF;stroke:#9370DB;stroke-width:1px;}#my-svg .rough-node .label text,#my-svg .node .label text,#my-svg .image-shape .label,#my-svg .icon-shape .label{text-anchor:middle;}#my-svg .node .katex path{fill:#000;stroke:#000;stroke-width:1px;}#my-svg .rough-node .label,#my-svg .node .label,#my-svg .image-shape .label,#my-svg .icon-shape .label{text-align:center;}#my-svg .node.clickable{cursor:pointer;}#my-svg .root .anchor path{fill:#333333!important;stroke-width:0;stroke:#333333;}#my-svg .arrowheadPath{fill:#333333;}#my-svg .edgePath .path{stroke:#333333;stroke-width:1px;}#my-svg .flowchart-link{stroke:#333333;fill:none;}#my-svg .edgeLabel{background-color:rgba(232,232,232, 0.8);text-align:center;}#my-svg .edgeLabel p{background-color:rgba(232,232,232, 0.8);}#my-svg .edgeLabel rect{opacity:0.5;background-color:rgba(232,232,232, 0.8);fill:rgba(232,232,232, 0.8);}#my-svg .labelBkg{background-color:rgba(232, 232, 232, 0.5);}#my-svg .cluster rect{fill:#ffffde;stroke:#aaaa33;stroke-width:1px;}#my-svg .cluster text{fill:#333;}#my-svg .cluster span{color:#333;}#my-svg div.mermaidTooltip{position:absolute;text-align:center;max-width:200px;padding:2px;font-family:"trebuchet ms",verdana,arial,sans-serif;font-size:12px;background:hsl(80, 100%, 96.2745098039%);border:1px solid #aaaa33;border-radius:2px;pointer-events:none;z-index:100;}#my-svg .flowchartTitleText{text-anchor:middle;font-size:18px;fill:#333;}#my-svg rect.text{fill:none;stroke-width:0;}#my-svg .icon-shape,#my-svg .image-shape{background-color:rgba(232,232,232, 0.8);text-align:center;}#my-svg .icon-shape p,#my-svg .image-shape p{background-color:rgba(232,232,232, 0.8);padding:2px;}#my-svg .icon-shape .label rect,#my-svg .image-shape .label rect{opacity:0.5;background-color:rgba(232,232,232, 0.8);fill:rgba(232,232,232, 0.8);}#my-svg .label-icon{display:inline-block;height:1em;overflow:visible;vertical-align:-0.125em;}#my-svg .node .label-icon path{fill:currentColor;stroke:revert;stroke-width:revert;}#my-svg .node .neo-node{stroke:#9370DB;}#my-svg [data-look="neo"].node rect,#my-svg [data-look="neo"].cluster rect,#my-svg [data-look="neo"].node polygon{stroke:#9370DB;filter:drop-shadow(1px 2px 2px rgba(185, 185, 185, 1));}#my-svg [data-look="neo"].node path{stroke:#9370DB;stroke-width:1px;}#my-svg [data-look="neo"].node .outer-path{filter:drop-shadow(1px 2px 2px rgba(185, 185, 185, 1));}#my-svg [data-look="neo"].node .neo-line path{stroke:#9370DB;filter:none;}#my-svg [data-look="neo"].node circle{stroke:#9370DB;filter:drop-shadow(1px 2px 2px rgba(185, 185, 185, 1));}#my-svg [data-look="neo"].node circle .state-start{fill:#000000;}#my-svg [data-look="neo"].icon-shape .icon{fill:#9370DB;filter:drop-shadow(1px 2px 2px rgba(185, 185, 185, 1));}#my-svg [data-look="neo"].icon-shape .icon-neo path{stroke:#9370DB;filter:drop-shadow(1px 2px 2px rgba(185, 185, 185, 1));}#my-svg :root{--mermaid-font-family:"trebuchet ms",verdana,arial,sans-serif;}</style><g><marker id="my-svg_flowchart-v2-pointEnd" class="marker flowchart-v2" viewBox="0 0 10 10" refX="5" refY="5" markerUnits="userSpaceOnUse" markerWidth="8" markerHeight="8" orient="auto"><path d="M 0 0 L 10 5 L 0 10 z" class="arrowMarkerPath" style="stroke-width: 1; stroke-dasharray: 1, 0;"/></marker><marker id="my-svg_flowchart-v2-pointStart" class="marker flowchart-v2" viewBox="0 0 10 10" refX="4.5" refY="5" markerUnits="userSpaceOnUse" markerWidth="8" markerHeight="8" orient="auto"><path d="M 0 5 L 10 10 L 10 0 z" class="arrowMarkerPath" style="stroke-width: 1; stroke-dasharray: 1, 0;"/></marker><marker id="my-svg_flowchart-v2-pointEnd-margin" class="marker flowchart-v2" viewBox="0 0 11.5 14" refX="11.5" refY="7" markerUnits="userSpaceOnUse" markerWidth="10.5" markerHeight="14" orient="auto"><path d="M 0 0 L 11.5 7 L 0 14 z" class="arrowMarkerPath" style="stroke-width: 0; stroke-dasharray: 1, 0;"/></marker><marker id="my-svg_flowchart-v2-pointStart-margin" class="marker flowchart-v2" viewBox="0 0 11.5 14" refX="1" refY="7" markerUnits="userSpaceOnUse" markerWidth="11.5" markerHeight="14" orient="auto"><polygon points="0,7 11.5,14 11.5,0" class="arrowMarkerPath" style="stroke-width: 0; stroke-dasharray: 1, 0;"/></marker><marker id="my-svg_flowchart-v2-circleEnd" class="marker flowchart-v2" viewBox="0 0 10 10" refX="11" refY="5" markerUnits="userSpaceOnUse" markerWidth="11" markerHeight="11" orient="auto"><circle cx="5" cy="5" r="5" class="arrowMarkerPath" style="stroke-width: 1; stroke-dasharray: 1, 0;"/></marker><marker id="my-svg_flowchart-v2-circleStart" class="marker flowchart-v2" viewBox="0 0 10 10" refX="-1" refY="5" markerUnits="userSpaceOnUse" markerWidth="11" markerHeight="11" orient="auto"><circle cx="5" cy="5" r="5" class="arrowMarkerPath" style="stroke-width: 1; stroke-dasharray: 1, 0;"/></marker><marker id="my-svg_flowchart-v2-circleEnd-margin" class="marker flowchart-v2" viewBox="0 0 10 10" refY="5" refX="12.25" markerUnits="userSpaceOnUse" markerWidth="14" markerHeight="14" orient="auto"><circle cx="5" cy="5" r="5" class="arrowMarkerPath" style="stroke-width: 0; stroke-dasharray: 1, 0;"/></marker><marker id="my-svg_flowchart-v2-circleStart-margin" class="marker flowchart-v2" viewBox="0 0 10 10" refX="-2" refY="5" markerUnits="userSpaceOnUse" markerWidth="14" markerHeight="14" orient="auto"><circle cx="5" cy="5" r="5" class="arrowMarkerPath" style="stroke-width: 0; stroke-dasharray: 1, 0;"/></marker><marker id="my-svg_flowchart-v2-crossEnd" class="marker cross flowchart-v2" viewBox="0 0 11 11" refX="12" refY="5.2" markerUnits="userSpaceOnUse" markerWidth="11" markerHeight="11" orient="auto"><path d="M 1,1 l 9,9 M 10,1 l -9,9" class="arrowMarkerPath" style="stroke-width: 2; stroke-dasharray: 1, 0;"/></marker><marker id="my-svg_flowchart-v2-crossStart" class="marker cross flowchart-v2" viewBox="0 0 11 11" refX="-1" refY="5.2" markerUnits="userSpaceOnUse" markerWidth="11" markerHeight="11" orient="auto"><path d="M 1,1 l 9,9 M 10,1 l -9,9" class="arrowMarkerPath" style="stroke-width: 2; stroke-dasharray: 1, 0;"/></marker><marker id="my-svg_flowchart-v2-crossEnd-margin" class="marker cross flowchart-v2" viewBox="0 0 15 15" refX="17.7" refY="7.5" markerUnits="userSpaceOnUse" markerWidth="12" markerHeight="12" orient="auto"><path d="M 1,1 L 14,14 M 1,14 L 14,1" class="arrowMarkerPath" style="stroke-width: 2.5;"/></marker><marker id="my-svg_flowchart-v2-crossStart-margin" class="marker cross flowchart-v2" viewBox="0 0 15 15" refX="-3.5" refY="7.5" markerUnits="userSpaceOnUse" markerWidth="12" markerHeight="12" orient="auto"><path d="M 1,1 L 14,14 M 1,14 L 14,1" class="arrowMarkerPath" style="stroke-width: 2.5; stroke-dasharray: 1, 0;"/></marker><g class="root"><g class="clusters"/><g class="edgePaths"><path d="M138.5,119.5L138.417,123.583C138.333,127.667,138.167,135.833,138.154,143.5C138.141,151.167,138.281,158.334,138.351,161.917L138.422,165.501" id="my-svg-L_START1_GRP2_0" class="edge-thickness-normal edge-pattern-solid edge-thickness-normal edge-pattern-solid flowchart-link" style=";" data-edge="true" data-et="edge" data-id="L_START1_GRP2_0" data-points="W3sieCI6MTM4LjUsInkiOjExOS41fSx7IngiOjEzOCwieSI6MTQ0fSx7IngiOjEzOC41LCJ5IjoxNjkuNX1d" data-look="classic" marker-end="url(#my-svg_flowchart-v2-pointEnd)"/><path d="M138.5,208.5L138.417,212.583C138.333,216.667,138.167,224.833,138.083,232.417C138,240,138,247,138,250.5L138,254" id="my-svg-L_GRP2_ELEM3_0" class="edge-thickness-normal edge-pattern-solid edge-thickness-normal edge-pattern-solid flowchart-link" style=";" data-edge="true" data-et="edge" data-id="L_GRP2_ELEM3_0" data-points="W3sieCI6MTM4LjUsInkiOjIwOC41fSx7IngiOjEzOCwieSI6MjMzfSx7IngiOjEzOCwieSI6MjU4fV0=" data-look="classic" marker-end="url(#my-svg_flowchart-v2-pointEnd)"/><path d="M138,312L138,316.167C138,320.333,138,328.667,138.07,336.417C138.141,344.167,138.281,351.334,138.351,354.917L138.422,358.501" id="my-svg-L_ELEM3_GRP4_0" class="edge-thickness-normal edge-pattern-solid edge-thickness-normal edge-pattern-solid flowchart-link" style=";" data-edge="true" data-et="edge" data-id="L_ELEM3_GRP4_0" data-points="W3sieCI6MTM4LCJ5IjozMTJ9LHsieCI6MTM4LCJ5IjozMzd9LHsieCI6MTM4LjUsInkiOjM2Mi41fV0=" data-look="classic" marker-end="url(#my-svg_flowchart-v2-pointEnd)"/><path d="M138.5,401.5L138.417,405.583C138.333,409.667,138.167,417.833,138.083,425.417C138,433,138,440,138,443.5L138,447" id="my-svg-L_GRP4_ELEM5_0" class="edge-thickness-normal edge-pattern-solid edge-thickness-normal edge-pattern-solid flowchart-link" style=";" data-edge="true" data-et="edge" data-id="L_GRP4_ELEM5_0" data-points="W3sieCI6MTM4LjUsInkiOjQwMS41fSx7IngiOjEzOCwieSI6NDI2fSx7IngiOjEzOCwieSI6NDUxfV0=" data-look="classic" marker-end="url(#my-svg_flowchart-v2-pointEnd)"/><path d="M138,577L138,581.167C138,585.333,138,593.667,138,601.333C138,609,138,616,138,619.5L138,623" id="my-svg-L_ELEM5_ELEM6_0" class="edge-thickness-normal edge-pattern-solid edge-thickness-normal edge-pattern-solid flowchart-link" style=";" data-edge="true" data-et="edge" data-id="L_ELEM5_ELEM6_0" data-points="W3sieCI6MTM4LCJ5Ijo1Nzd9LHsieCI6MTM4LCJ5Ijo2MDJ9LHsieCI6MTM4LCJ5Ijo2Mjd9XQ==" data-look="classic" marker-end="url(#my-svg_flowchart-v2-pointEnd)"/><path d="M138,705L138,709.167C138,713.333,138,721.667,138.07,729.417C138.141,737.167,138.281,744.334,138.351,747.917L138.422,751.501" id="my-svg-L_ELEM6_PENALTY7_0" class="edge-thickness-normal edge-pattern-solid edge-thickness-normal edge-pattern-solid flowchart-link" style=";" data-edge="true" data-et="edge" data-id="L_ELEM6_PENALTY7_0" data-points="W3sieCI6MTM4LCJ5Ijo3MDV9LHsieCI6MTM4LCJ5Ijo3MzB9LHsieCI6MTM4LjUsInkiOjc1NS41fV0=" data-look="classic" marker-end="url(#my-svg_flowchart-v2-pointEnd)"/></g><g class="edgeLabels"><g class="edgeLabel"><g class="label" data-id="L_START1_GRP2_0" transform="translate(0, 0)"><foreignObject width="0" height="0"><div xmlns="http://www.w3.org/1999/xhtml" class="labelBkg" style="display: table-cell; white-space: nowrap; line-height: 1.5; max-width: 200px; text-align: center;"><span class="edgeLabel"></span></div></foreignObject></g></g><g class="edgeLabel"><g class="label" data-id="L_GRP2_ELEM3_0" transform="translate(0, 0)"><foreignObject width="0" height="0"><div xmlns="http://www.w3.org/1999/xhtml" class="labelBkg" style="display: table-cell; white-space: nowrap; line-height: 1.5; max-width: 200px; text-align: center;"><span class="edgeLabel"></span></div></foreignObject></g></g><g class="edgeLabel"><g class="label" data-id="L_ELEM3_GRP4_0" transform="translate(0, 0)"><foreignObject width="0" height="0"><div xmlns="http://www.w3.org/1999/xhtml" class="labelBkg" style="display: table-cell; white-space: nowrap; line-height: 1.5; max-width: 200px; text-align: center;"><span class="edgeLabel"></span></div></foreignObject></g></g><g class="edgeLabel"><g class="label" data-id="L_GRP4_ELEM5_0" transform="translate(0, 0)"><foreignObject width="0" height="0"><div xmlns="http://www.w3.org/1999/xhtml" class="labelBkg" style="display: table-cell; white-space: nowrap; line-height: 1.5; max-width: 200px; text-align: center;"><span class="edgeLabel"></span></div></foreignObject></g></g><g class="edgeLabel"><g class="label" data-id="L_ELEM5_ELEM6_0" transform="translate(0, 0)"><foreignObject width="0" height="0"><div xmlns="http://www.w3.org/1999/xhtml" class="labelBkg" style="display: table-cell; white-space: nowrap; line-height: 1.5; max-width: 200px; text-align: center;"><span class="edgeLabel"></span></div></foreignObject></g></g><g class="edgeLabel"><g class="label" data-id="L_ELEM6_PENALTY7_0" transform="translate(0, 0)"><foreignObject width="0" height="0"><div xmlns="http://www.w3.org/1999/xhtml" class="labelBkg" style="display: table-cell; white-space: nowrap; line-height: 1.5; max-width: 200px; text-align: center;"><span class="edgeLabel"></span></div></foreignObject></g></g></g><g class="nodes"><g class="node default" id="my-svg-flowchart-START1-0" data-look="classic" transform="translate(138, 63.5)"><g class="basic label-container outer-path"><path d="M-65.875 -55.5 C-17.252171132045937 -55.5, 31.370657735908125 -55.5, 65.875 -55.5 C65.875 -55.5, 65.875 -55.5, 65.875 -55.5 C66.98209358436324 -55.46449766357641, 68.08918716872647 -55.42899532715282, 69.43089720892957 -55.38596929764367 C70.18907695098987 -55.31282860977166, 70.94725669305018 -55.23968792189965, 72.97218247349008 -55.044345767190165 C74.28791713296796 -54.831627991120456, 75.60365179244585 -54.61891021505075, 76.48430389292615 -54.47653321300413 C77.23378209608863 -54.30546970393464, 77.98326029925111 -54.13440619486515, 79.95282940697766 -53.684864898666135 C80.98923568878529 -53.377264954433215, 82.02564197059293 -53.069665010200296, 83.36350610031094 -52.67259395909211 C84.13932809738847 -52.387084292547655, 84.915150094466 -52.1015746260032, 86.70231877080526 -51.44388003270421 C87.53875912893983 -51.07361269827969, 88.37519948707438 -50.70334536385516, 89.95554752102447 -50.00377216858426 C91.0309919513128 -49.44271349815787, 92.10643638160113 -48.88165482773149, 93.10982413621853 -48.358188078848116 C94.02775997646211 -47.8017299781027, 94.94569581670567 -47.24527187735728, 96.15218701718544 -46.51388982149716 C96.92914993071601 -45.97191412720068, 97.70611284424658 -45.42993843290419, 99.07013444226249 -44.47845601367159 C99.67023709682562 -43.9998901160598, 100.27033975138875 -43.521324218448015, 101.85167593958224 -42.260250689486966 C102.89976661508832 -41.308402468952, 103.94785729059441 -40.35655424841704, 104.48538155849349 -39.86838893042388 C105.0977213867914 -39.23609778367142, 105.71006121508931 -38.60380663691896, 106.96042883768001 -37.3126994095031 C107.4832931397124 -36.69851324851424, 108.00615744174478 -36.084327087525374, 109.26664727697565 -34.603684003159714 C109.92033796135406 -33.727798038539085, 110.5740286457325 -32.851912073918456, 111.39456013013104 -31.752474636780427 C111.91863654551837 -30.94735252852332, 112.4427129609057 -30.142230420266216, 113.33542334679672 -28.770787541234146 C114.03157531929104 -27.53469922103927, 114.72772729178536 -26.298610900844388, 115.08126150370151 -25.670875108366356 C115.57652486581 -24.642450140009718, 116.07178822791849 -23.61402517165308, 116.62490057737759 -22.46547554329287 C117.10935671165146 -21.268859525314234, 117.59381284592533 -20.072243507335596, 117.95999742376169 -19.1677605203826 C118.33391106771126 -18.041592199855213, 118.70782471166083 -16.91542387932782, 119.08106584353466 -15.791281058022316 C119.28126442324196 -15.027837106985036, 119.48146300294928 -14.264393155947754, 119.9834991260912 -12.349911834575455 C120.15525085936449 -11.468002983958822, 120.32700259263777 -10.58609413334219, 120.66358897950198 -8.857794174352568 C120.78267298679178 -7.934202129609969, 120.90175699408157 -7.01061008486737, 121.1185407686805 -5.3292779378763475 C121.18870400645902 -4.236428874729633, 121.25886724423755 -3.143579811582918, 121.34648499913817 -1.7788625552268618 C121.34648499913817 -0.61104382421029, 121.34648499913817 0.5567749068062817, 121.34648499913817 1.7788625552268482 C121.30030442307242 2.498162303740955, 121.25412384700668 3.217462052255062, 121.1185407686805 5.32927793787631 C120.9463099110848 6.665066458558885, 120.77407905348909 8.00085497924146, 120.66358897950198 8.857794174352529 C120.48663176533897 9.766432069159126, 120.30967455117596 10.675069963965726, 119.9834991260912 12.349911834575442 C119.73195970534127 13.309140663769552, 119.48042028459132 14.268369492963663, 119.08106584353467 15.79128105802228 C118.7639045968365 16.746520200295034, 118.4467433501383 17.701759342567787, 117.9599974237617 19.16776052038256 C117.51451592718807 20.268108429718264, 117.06903443061442 21.368456339053967, 116.62490057737759 22.465475543292854 C116.21861283831991 23.309140726611123, 115.81232509926224 24.152805909929395, 115.08126150370151 25.670875108366346 C114.4022674674353 26.876497775358786, 113.72327343116908 28.08212044235123, 113.33542334679672 28.770787541234135 C112.75777727700077 29.658207024129254, 112.18013120720482 30.545626507024373, 111.39456013013105 31.7524746367804 C110.74266299816475 32.62595740456478, 110.09076586619844 33.49944017234916, 109.26664727697566 34.6036840031597 C108.56832646756834 35.423971361469256, 107.87000565816102 36.24425871977881, 106.96042883768003 37.31269940950306 C106.1846481320044 38.11375668089361, 105.40886742632877 38.914813952284156, 104.48538155849351 39.86838893042387 C103.88890746966584 40.4100909160576, 103.29243338083815 40.95179290169133, 101.8516759395823 42.26025068948693 C101.18160772244998 42.79461226138583, 100.51153950531767 43.32897383328472, 99.0701344422625 44.47845601367158 C98.26557074709044 45.03968481842259, 97.46100705191837 45.60091362317361, 96.15218701718548 46.51388982149714 C95.50867163717021 46.903992626578535, 94.86515625715494 47.29409543165993, 93.10982413621855 48.358188078848116 C92.3304694780443 48.76477690481714, 91.55111481987002 49.17136573078617, 89.95554752102449 50.003772168584256 C88.95686972920323 50.44585720229939, 87.958191937382 50.88794223601454, 86.70231877080529 51.4438800327042 C85.85587435079096 51.75537940371592, 85.00942993077662 52.06687877472764, 83.36350610031099 52.6725939590921 C82.15427027427292 53.03148880485182, 80.94503444823486 53.39038365061154, 79.95282940697771 53.68486489866612 C78.81860105004608 53.943745119604024, 77.68437269311447 54.20262534054193, 76.48430389292618 54.476533213004124 C75.26757181642935 54.67324501923395, 74.05083973993253 54.86995682546378, 72.97218247349011 55.04434576719016 C71.98458188276035 55.13961840841437, 70.9969812920306 55.234891049638584, 69.43089720892957 55.38596929764367 C68.38169075996416 55.41961530630552, 67.33248431099875 55.453261314967385, 65.87500000000001 55.5 C65.87500000000001 55.5, 65.875 55.5, 65.875 55.5 C30.18188704412411 55.5, -5.5112259117517794 55.5, -65.87499999999999 55.5 C-67.12361811406751 55.459959247369575, -68.37223622813504 55.41991849473916, -69.43089720892954 55.38596929764367 C-70.66916464897432 55.26651512693703, -71.9074320890191 55.14706095623039, -72.9721824734901 55.04434576719016 C-73.97257607218405 54.88260988832155, -74.97296967087802 54.72087400945293, -76.48430389292616 54.476533213004124 C-77.71691606451263 54.19519752838564, -78.94952823609911 53.91386184376716, -79.95282940697764 53.684864898666135 C-80.86696107278932 53.41355541862826, -81.781092738601 53.142245938590385, -83.36350610031091 52.67259395909212 C-84.24486460327644 52.348245882812115, -85.12622310624195 52.02389780653212, -86.70231877080526 51.44388003270421 C-87.93138810329613 50.89980749825686, -89.16045743578698 50.35573496380952, -89.95554752102447 50.00377216858427 C-90.73464007775397 49.59732008077109, -91.51373263448346 49.190867992957905, -93.10982413621852 48.35818807884812 C-94.0342377063841 47.79780314015661, -94.9586512765497 47.2374182014651, -96.15218701718541 46.51388982149718 C-97.21619296050359 45.77168533551335, -98.28019890382178 45.02948084952951, -99.07013444226249 44.4784560136716 C-100.14949474297808 43.6176948968348, -101.22885504369368 42.756933779998, -101.85167593958224 42.26025068948697 C-102.51626580525367 41.656687757568456, -103.18085567092508 41.05312482564993, -104.48538155849347 39.868388930423905 C-105.26081791498194 39.06768722784069, -106.03625427147043 38.266985525257475, -106.96042883768001 37.31269940950308 C-107.6742763490211 36.474173503607766, -108.38812386036217 35.63564759771245, -109.26664727697565 34.60368400315972 C-109.70830082594765 34.011908483003275, -110.14995437491964 33.42013296284683, -111.39456013013104 31.752474636780434 C-112.00971882670517 30.807425685603306, -112.6248775232793 29.862376734426178, -113.33542334679669 28.77078754123417 C-113.76539932944793 28.007321644247348, -114.19537531209919 27.243855747260525, -115.0812615037015 25.670875108366364 C-115.50241510723765 24.79634063937999, -115.92356871077382 23.921806170393616, -116.62490057737759 22.465475543292875 C-116.95341523480091 21.654037988058423, -117.28192989222426 20.84260043282397, -117.95999742376169 19.167760520382608 C-118.22552015303567 18.36804836511109, -118.49104288230967 17.568336209839575, -119.08106584353466 15.791281058022301 C-119.26176928788819 15.102180507334113, -119.44247273224171 14.413079956645927, -119.9834991260912 12.349911834575463 C-120.2478242721098 10.99265807490942, -120.51214941812837 9.635404315243376, -120.66358897950198 8.857794174352573 C-120.77219698685798 8.015451916376323, -120.88080499421397 7.173109658400072, -121.1185407686805 5.3292779378763795 C-121.19384346824627 4.156377608894337, -121.26914616781205 2.983477279912295, -121.34648499913817 1.7788625552268686 C-121.34648499913817 0.4558964535438472, -121.34648499913817 -0.8670696481391742, -121.34648499913817 -1.7788625552268416 C-121.28839119566304 -2.6837204368262926, -121.2302973921879 -3.5885783184257436, -121.1185407686805 -5.329277937876303 C-120.9920520850864 -6.3102991898164, -120.8655634014923 -7.291320441756497, -120.66358897950198 -8.857794174352547 C-120.50220447037486 -9.686469520092217, -120.34081996124775 -10.515144865831887, -119.9834991260912 -12.349911834575437 C-119.79112781559944 -13.083507015733911, -119.59875650510767 -13.817102196892384, -119.08106584353467 -15.791281058022273 C-118.66306113247897 -17.0502446477158, -118.24505642142327 -18.30920823740933, -117.95999742376172 -19.167760520382537 C-117.44200830025478 -20.44720367008307, -116.92401917674785 -21.726646819783603, -116.62490057737759 -22.46547554329285 C-116.04775613498835 -23.66392832682693, -115.4706116925991 -24.862381110361007, -115.08126150370151 -25.67087510836634 C-114.41615504791625 -26.851838969944847, -113.75104859213099 -28.032802831523355, -113.33542334679672 -28.770787541234153 C-112.5766402205944 -29.936482184879637, -111.81785709439208 -31.102176828525124, -111.39456013013105 -31.752474636780416 C-110.64877549042608 -32.7517581116067, -109.90299085072111 -33.75104158643298, -109.26664727697568 -34.6036840031597 C-108.38420507898883 -35.64025082129857, -107.50176288100198 -36.676817639437445, -106.96042883768004 -37.31269940950306 C-106.15635684147881 -38.14296976111944, -105.35228484527757 -38.973240112735816, -104.48538155849351 -39.86838893042385 C-103.56803878774336 -40.70149536325946, -102.65069601699322 -41.534601796095075, -101.8516759395823 -42.260250689486924 C-101.17629378105735 -42.798849988236526, -100.5009116225324 -43.337449286986136, -99.07013444226251 -44.47845601367158 C-98.4223502615378 -44.93032221601992, -97.77456608081309 -45.38218841836825, -96.15218701718548 -46.51388982149714 C-94.941510837325 -47.24780883645151, -93.73083465746453 -47.98172785140589, -93.10982413621855 -48.35818807884811 C-92.33160026148623 -48.764186975819776, -91.55337638675392 -49.17018587279144, -89.9555475210245 -50.003772168584256 C-89.25862396547427 -50.312279553123595, -88.56170040992406 -50.62078693766293, -86.70231877080529 -51.44388003270419 C-85.44107459718997 -51.90802954740797, -84.17983042357466 -52.37217906211174, -83.36350610031099 -52.6725939590921 C-82.21904776209243 -53.01226318649096, -81.07458942387386 -53.35193241388982, -79.95282940697771 -53.68486489866611 C-78.79126509928606 -53.949984371981245, -77.62970079159442 -54.215103845296376, -76.48430389292619 -54.47653321300412 C-75.72235636303404 -54.59971898064574, -74.9604088331419 -54.722904748287355, -72.97218247349012 -55.04434576719016 C-71.73758540125169 -55.163445861928786, -70.50298832901326 -55.282545956667406, -69.43089720892957 -55.38596929764367 C-68.23923791233076 -55.424183491861484, -67.04757861573196 -55.46239768607929, -65.87500000000001 -55.5 C-65.87500000000001 -55.5, -65.87500000000001 -55.5, -65.875 -55.5" stroke="none" stroke-width="0" fill="#ECECFF" style=""/><path d="M-65.875 -55.5 C-37.012955470927125 -55.5, -8.150910941854256 -55.5, 65.875 -55.5 M-65.875 -55.5 C-36.30176384054772 -55.5, -6.728527681095436 -55.5, 65.875 -55.5 M65.875 -55.5 C65.875 -55.5, 65.875 -55.5, 65.875 -55.5 M65.875 -55.5 C65.875 -55.5, 65.875 -55.5, 65.875 -55.5 M65.875 -55.5 C66.73893728172305 -55.47229521292705, 67.6028745634461 -55.444590425854095, 69.43089720892957 -55.38596929764367 M65.875 -55.5 C66.83873081608336 -55.46909502851644, 67.80246163216671 -55.43819005703289, 69.43089720892957 -55.38596929764367 M69.43089720892957 -55.38596929764367 C70.1595657961421 -55.31567551538747, 70.88823438335464 -55.24538173313127, 72.97218247349008 -55.044345767190165 M69.43089720892957 -55.38596929764367 C70.55819651647644 -55.27722008922039, 71.68549582402333 -55.16847088079712, 72.97218247349008 -55.044345767190165 M72.97218247349008 -55.044345767190165 C73.78753405282033 -54.91252604698998, 74.60288563215057 -54.780706326789804, 76.48430389292615 -54.47653321300413 M72.97218247349008 -55.044345767190165 C74.0418179092767 -54.87141540507888, 75.11145334506332 -54.69848504296759, 76.48430389292615 -54.47653321300413 M76.48430389292615 -54.47653321300413 C77.72085059328295 -54.19429949786902, 78.95739729363974 -53.91206578273391, 79.95282940697766 -53.684864898666135 M76.48430389292615 -54.47653321300413 C77.48053823352518 -54.24914922579903, 78.47677257412423 -54.02176523859392, 79.95282940697766 -53.684864898666135 M79.95282940697766 -53.684864898666135 C80.63603121327986 -53.4820941887551, 81.31923301958209 -53.27932347884406, 83.36350610031094 -52.67259395909211 M79.95282940697766 -53.684864898666135 C80.8114821754323 -53.43002126414915, 81.67013494388696 -53.17517762963217, 83.36350610031094 -52.67259395909211 M83.36350610031094 -52.67259395909211 C84.58325840703385 -52.22371383495136, 85.80301071375676 -51.774833710810604, 86.70231877080526 -51.44388003270421 M83.36350610031094 -52.67259395909211 C84.57728663276343 -52.22591150308535, 85.79106716521592 -51.77922904707859, 86.70231877080526 -51.44388003270421 M86.70231877080526 -51.44388003270421 C87.58911152381185 -51.051323186720566, 88.47590427681844 -50.65876634073692, 89.95554752102447 -50.00377216858426 M86.70231877080526 -51.44388003270421 C87.43432762657842 -51.11984142652463, 88.16633648235158 -50.795802820345045, 89.95554752102447 -50.00377216858426 M89.95554752102447 -50.00377216858426 C90.88030327316135 -49.52132768502879, 91.80505902529822 -49.038883201473304, 93.10982413621853 -48.358188078848116 M89.95554752102447 -50.00377216858426 C90.72074259389319 -49.60457038919949, 91.48593766676191 -49.20536860981471, 93.10982413621853 -48.358188078848116 M93.10982413621853 -48.358188078848116 C94.11543814324106 -47.74857895814719, 95.1210521502636 -47.13896983744627, 96.15218701718544 -46.51388982149716 M93.10982413621853 -48.358188078848116 C93.924948122707 -47.864055128038565, 94.74007210919544 -47.369922177229014, 96.15218701718544 -46.51388982149716 M96.15218701718544 -46.51388982149716 C97.27714433982675 -45.729168291840196, 98.40210166246806 -44.94444676218323, 99.07013444226249 -44.47845601367159 M96.15218701718544 -46.51388982149716 C96.78120071694728 -46.07511709410749, 97.41021441670914 -45.63634436671783, 99.07013444226249 -44.47845601367159 M99.07013444226249 -44.47845601367159 C99.67963467279748 -43.992395799302244, 100.28913490333247 -43.5063355849329, 101.85167593958224 -42.260250689486966 M99.07013444226249 -44.47845601367159 C100.06978308383928 -43.68126282378165, 101.06943172541607 -42.88406963389171, 101.85167593958224 -42.260250689486966 M101.85167593958224 -42.260250689486966 C102.6649104972247 -41.52169258124338, 103.47814505486717 -40.7831344729998, 104.48538155849349 -39.86838893042388 M101.85167593958224 -42.260250689486966 C102.5734559281614 -41.60474920111138, 103.29523591674055 -40.94924771273579, 104.48538155849349 -39.86838893042388 M104.48538155849349 -39.86838893042388 C105.37692501539546 -38.94779711409352, 106.26846847229741 -38.02720529776316, 106.96042883768001 -37.3126994095031 M104.48538155849349 -39.86838893042388 C105.00497180317782 -39.331869343634864, 105.52456204786216 -38.795349756845845, 106.96042883768001 -37.3126994095031 M106.96042883768001 -37.3126994095031 C107.73020161743511 -36.408480501090736, 108.49997439719021 -35.50426159267838, 109.26664727697565 -34.603684003159714 M106.96042883768001 -37.3126994095031 C107.53727284590111 -36.635105614092666, 108.11411685412223 -35.95751181868224, 109.26664727697565 -34.603684003159714 M109.26664727697565 -34.603684003159714 C109.90665548473062 -33.74613131071524, 110.5466636924856 -32.88857861827077, 111.39456013013104 -31.752474636780427 M109.26664727697565 -34.603684003159714 C109.98865596897737 -33.636258132222395, 110.71066466097909 -32.66883226128507, 111.39456013013104 -31.752474636780427 M111.39456013013104 -31.752474636780427 C111.78390610900372 -31.15433465919771, 112.17325208787642 -30.556194681614986, 113.33542334679672 -28.770787541234146 M111.39456013013104 -31.752474636780427 C111.89214266507678 -30.988054243484648, 112.3897252000225 -30.22363385018887, 113.33542334679672 -28.770787541234146 M113.33542334679672 -28.770787541234146 C113.86141001002801 -27.836844958741803, 114.3873966732593 -26.902902376249465, 115.08126150370151 -25.670875108366356 M113.33542334679672 -28.770787541234146 C114.00013350128746 -27.590527352733915, 114.66484365577821 -26.410267164233687, 115.08126150370151 -25.670875108366356 M115.08126150370151 -25.670875108366356 C115.49324572737581 -24.81538105285644, 115.9052299510501 -23.959886997346526, 116.62490057737759 -22.46547554329287 M115.08126150370151 -25.670875108366356 C115.58730954716802 -24.620055518414592, 116.09335759063451 -23.569235928462827, 116.62490057737759 -22.46547554329287 M116.62490057737759 -22.46547554329287 C117.04775259659215 -21.42102288054529, 117.47060461580669 -20.376570217797706, 117.95999742376169 -19.1677605203826 M116.62490057737759 -22.46547554329287 C117.15713696341713 -21.1508413796847, 117.68937334945667 -19.83620721607653, 117.95999742376169 -19.1677605203826 M117.95999742376169 -19.1677605203826 C118.39213913185479 -17.86621854803704, 118.82428083994789 -16.56467657569148, 119.08106584353466 -15.791281058022316 M117.95999742376169 -19.1677605203826 C118.23186938110769 -18.3489255017703, 118.5037413384537 -17.530090483158, 119.08106584353466 -15.791281058022316 M119.08106584353466 -15.791281058022316 C119.2832877311363 -15.020121357076757, 119.48550961873795 -14.248961656131199, 119.9834991260912 -12.349911834575455 M119.08106584353466 -15.791281058022316 C119.39138744082486 -14.607890313323727, 119.70170903811507 -13.424499568625137, 119.9834991260912 -12.349911834575455 M119.9834991260912 -12.349911834575455 C120.16426064830331 -11.421739621977526, 120.34502217051542 -10.493567409379597, 120.66358897950198 -8.857794174352568 M119.9834991260912 -12.349911834575455 C120.12035139263328 -11.647204369618642, 120.25720365917537 -10.94449690466183, 120.66358897950198 -8.857794174352568 M120.66358897950198 -8.857794174352568 C120.82226978753197 -7.62709716234177, 120.98095059556195 -6.396400150330972, 121.1185407686805 -5.3292779378763475 M120.66358897950198 -8.857794174352568 C120.77304374678424 -8.008884613599939, 120.88249851406648 -7.159975052847312, 121.1185407686805 -5.3292779378763475 M121.1185407686805 -5.3292779378763475 C121.1932000698159 -4.1663990587893345, 121.26785937095129 -3.0035201797023214, 121.34648499913817 -1.7788625552268618 M121.1185407686805 -5.3292779378763475 C121.16897554056261 -4.543715655597317, 121.21941031244472 -3.7581533733182853, 121.34648499913817 -1.7788625552268618 M121.34648499913817 -1.7788625552268618 C121.34648499913817 -0.44150729899308105, 121.34648499913817 0.8958479572406997, 121.34648499913817 1.7788625552268482 M121.34648499913817 -1.7788625552268618 C121.34648499913817 -1.026085840418454, 121.34648499913817 -0.27330912561004617, 121.34648499913817 1.7788625552268482 M121.34648499913817 1.7788625552268482 C121.29962387749454 2.508762350443002, 121.25276275585091 3.2386621456591556, 121.1185407686805 5.32927793787631 M121.34648499913817 1.7788625552268482 C121.29480311167124 2.583849669392923, 121.24312122420432 3.388836783558998, 121.1185407686805 5.32927793787631 M121.1185407686805 5.32927793787631 C121.01693466332996 6.117314826580221, 120.91532855797941 6.905351715284132, 120.66358897950198 8.857794174352529 M121.1185407686805 5.32927793787631 C120.95607205107021 6.589353228584583, 120.79360333345993 7.849428519292857, 120.66358897950198 8.857794174352529 M120.66358897950198 8.857794174352529 C120.40183789333786 10.201830680693671, 120.14008680717373 11.545867187034812, 119.9834991260912 12.349911834575442 M120.66358897950198 8.857794174352529 C120.44683168298243 9.970797080309518, 120.2300743864629 11.08379998626651, 119.9834991260912 12.349911834575442 M119.9834991260912 12.349911834575442 C119.75814894978384 13.209269724219611, 119.5327987734765 14.068627613863779, 119.08106584353467 15.79128105802228 M119.9834991260912 12.349911834575442 C119.7551378895005 13.220752202081814, 119.5267766529098 14.091592569588187, 119.08106584353467 15.79128105802228 M119.08106584353467 15.79128105802228 C118.77401093055065 16.716081533373583, 118.46695601756663 17.640882008724887, 117.9599974237617 19.16776052038256 M119.08106584353467 15.79128105802228 C118.81383332091734 16.59614283842538, 118.5466007983 17.40100461882848, 117.9599974237617 19.16776052038256 M117.9599974237617 19.16776052038256 C117.53662340864896 20.213502523090753, 117.11324939353624 21.259244525798948, 116.62490057737759 22.465475543292854 M117.9599974237617 19.16776052038256 C117.43332795734224 20.468644284900076, 116.90665849092277 21.76952804941759, 116.62490057737759 22.465475543292854 M116.62490057737759 22.465475543292854 C116.22731925572846 23.291061664574773, 115.82973793407935 24.116647785856692, 115.08126150370151 25.670875108366346 M116.62490057737759 22.465475543292854 C116.21553992046884 23.31552170627877, 115.8061792635601 24.165567869264688, 115.08126150370151 25.670875108366346 M115.08126150370151 25.670875108366346 C114.49799849661179 26.706517639238054, 113.91473548952207 27.742160170109763, 113.33542334679672 28.770787541234135 M115.08126150370151 25.670875108366346 C114.59157372994174 26.54036533694087, 114.10188595618196 27.409855565515393, 113.33542334679672 28.770787541234135 M113.33542334679672 28.770787541234135 C112.7414028752955 29.68336250229105, 112.1473824037943 30.595937463347962, 111.39456013013105 31.7524746367804 M113.33542334679672 28.770787541234135 C112.76793175825175 29.642607014067742, 112.20044016970677 30.51442648690135, 111.39456013013105 31.7524746367804 M111.39456013013105 31.7524746367804 C110.92834715241445 32.37715755404463, 110.46213417469785 33.00184047130885, 109.26664727697566 34.6036840031597 M111.39456013013105 31.7524746367804 C110.58913853844534 32.83166619422278, 109.78371694675963 33.91085775166516, 109.26664727697566 34.6036840031597 M109.26664727697566 34.6036840031597 C108.72978694898458 35.23431069263608, 108.1929266209935 35.86493738211246, 106.96042883768003 37.31269940950306 M109.26664727697566 34.6036840031597 C108.6474488886664 35.33102966345417, 108.02825050035715 36.058375323748635, 106.96042883768003 37.31269940950306 M106.96042883768003 37.31269940950306 C106.37336814331262 37.9188877750168, 105.7863074489452 38.52507614053054, 104.48538155849351 39.86838893042387 M106.96042883768003 37.31269940950306 C106.15599358777851 38.14334485038867, 105.351558337877 38.97399029127429, 104.48538155849351 39.86838893042387 M104.48538155849351 39.86838893042387 C103.93782428101206 40.365665962260856, 103.39026700353061 40.86294299409785, 101.8516759395823 42.26025068948693 M104.48538155849351 39.86838893042387 C103.6831342806242 40.596968681884974, 102.88088700275487 41.325548433346086, 101.8516759395823 42.26025068948693 M101.8516759395823 42.26025068948693 C101.18550006892522 42.791508218651515, 100.51932419826815 43.32276574781609, 99.0701344422625 44.47845601367158 M101.8516759395823 42.26025068948693 C100.99453149803675 42.94380057204797, 100.1373870564912 43.627350454609015, 99.0701344422625 44.47845601367158 M99.0701344422625 44.47845601367158 C98.3247673684844 44.9983918179186, 97.5794002947063 45.51832762216563, 96.15218701718548 46.51388982149714 M99.0701344422625 44.47845601367158 C98.35944625079627 44.97420133084247, 97.64875805933004 45.469946648013355, 96.15218701718548 46.51388982149714 M96.15218701718548 46.51388982149714 C95.32766076221475 47.01372248271451, 94.50313450724401 47.51355514393188, 93.10982413621855 48.358188078848116 M96.15218701718548 46.51388982149714 C95.31471678366606 47.021569198577986, 94.47724655014665 47.52924857565883, 93.10982413621855 48.358188078848116 M93.10982413621855 48.358188078848116 C91.95047277058072 48.96302094370138, 90.79112140494288 49.567853808554645, 89.95554752102449 50.003772168584256 M93.10982413621855 48.358188078848116 C92.305556065415 48.77777421622803, 91.50128799461147 49.197360353607955, 89.95554752102449 50.003772168584256 M89.95554752102449 50.003772168584256 C88.74633955114672 50.53905266696918, 87.53713158126895 51.0743331653541, 86.70231877080529 51.4438800327042 M89.95554752102449 50.003772168584256 C88.86343733203807 50.487216952950824, 87.77132714305166 50.97066173731739, 86.70231877080529 51.4438800327042 M86.70231877080529 51.4438800327042 C86.0314090608779 51.69078100777885, 85.36049935095052 51.937681982853505, 83.36350610031099 52.6725939590921 M86.70231877080529 51.4438800327042 C85.71410980779206 51.80755006599659, 84.7259008447788 52.17122009928898, 83.36350610031099 52.6725939590921 M83.36350610031099 52.6725939590921 C82.4762519893824 52.93592632192384, 81.58899787845381 53.19925868475558, 79.95282940697771 53.68486489866612 M83.36350610031099 52.6725939590921 C82.36584903181254 52.96869334021362, 81.36819196331409 53.26479272133515, 79.95282940697771 53.68486489866612 M79.95282940697771 53.68486489866612 C79.09028732989307 53.88173449914762, 78.22774525280843 54.07860409962911, 76.48430389292618 54.476533213004124 M79.95282940697771 53.68486489866612 C78.5682556470132 54.00088482418985, 77.18368188704869 54.316904749713586, 76.48430389292618 54.476533213004124 M76.48430389292618 54.476533213004124 C75.62480753395681 54.61548991882848, 74.76531117498746 54.75444662465283, 72.97218247349011 55.04434576719016 M76.48430389292618 54.476533213004124 C75.77905165209269 54.59055292598927, 75.0737994112592 54.70457263897442, 72.97218247349011 55.04434576719016 M72.97218247349011 55.04434576719016 C71.97545974658904 55.14049840991984, 70.97873701968797 55.23665105264953, 69.43089720892957 55.38596929764367 M72.97218247349011 55.04434576719016 C71.69548314754097 55.16750741570889, 70.41878382159182 55.29066906422762, 69.43089720892957 55.38596929764367 M69.43089720892957 55.38596929764367 C68.55245433010717 55.41413925098217, 67.67401145128476 55.442309204320665, 65.87500000000001 55.5 M69.43089720892957 55.38596929764367 C68.60880527121614 55.412332185981256, 67.78671333350272 55.43869507431884, 65.87500000000001 55.5 M65.87500000000001 55.5 C65.87500000000001 55.5, 65.87500000000001 55.5, 65.875 55.5 M65.87500000000001 55.5 C65.87500000000001 55.5, 65.875 55.5, 65.875 55.5 M65.875 55.5 C28.376870502050004 55.5, -9.121258995899993 55.5, -65.87499999999999 55.5 M65.875 55.5 C19.422043035740558 55.5, -27.030913928518885 55.5, -65.87499999999999 55.5 M-65.87499999999999 55.5 C-66.87189476618967 55.46803152518625, -67.86878953237934 55.436063050372496, -69.43089720892954 55.38596929764367 M-65.87499999999999 55.5 C-66.80761370243256 55.470092893785434, -67.74022740486512 55.440185787570876, -69.43089720892954 55.38596929764367 M-69.43089720892954 55.38596929764367 C-70.6874449100783 55.264751652133555, -71.94399261122707 55.14353400662345, -72.9721824734901 55.04434576719016 M-69.43089720892954 55.38596929764367 C-70.30595292273257 55.301553725341556, -71.1810086365356 55.21713815303945, -72.9721824734901 55.04434576719016 M-72.9721824734901 55.04434576719016 C-74.17916276365632 54.84921055414803, -75.38614305382255 54.6540753411059, -76.48430389292616 54.476533213004124 M-72.9721824734901 55.04434576719016 C-74.03990981636271 54.87172389074372, -75.10763715923532 54.69910201429729, -76.48430389292616 54.476533213004124 M-76.48430389292616 54.476533213004124 C-77.53516211122827 54.23668168216741, -78.58602032953038 53.99683015133069, -79.95282940697764 53.684864898666135 M-76.48430389292616 54.476533213004124 C-77.59714908073289 54.222533560880755, -78.70999426853962 53.968533908757394, -79.95282940697764 53.684864898666135 M-79.95282940697764 53.684864898666135 C-80.73284062183188 53.45336166445981, -81.51285183668614 53.22185843025349, -83.36350610031091 52.67259395909212 M-79.95282940697764 53.684864898666135 C-80.90313538778862 53.40281907181932, -81.8534413685996 53.120773244972504, -83.36350610031091 52.67259395909212 M-83.36350610031091 52.67259395909212 C-84.36287814490264 52.30481580858846, -85.36225018949435 51.93703765808479, -86.70231877080526 51.44388003270421 M-83.36350610031091 52.67259395909212 C-84.56154901718182 52.23170309109631, -85.75959193405272 51.790812223100495, -86.70231877080526 51.44388003270421 M-86.70231877080526 51.44388003270421 C-87.47372844315582 51.10239985380951, -88.24513811550638 50.76091967491482, -89.95554752102447 50.00377216858427 M-86.70231877080526 51.44388003270421 C-87.65016364888585 51.02429722199725, -88.59800852696644 50.604714411290296, -89.95554752102447 50.00377216858427 M-89.95554752102447 50.00377216858427 C-91.03218251815181 49.442092380200556, -92.10881751527916 48.88041259181685, -93.10982413621852 48.35818807884812 M-89.95554752102447 50.00377216858427 C-90.74341424463442 49.59274260352968, -91.53128096824436 49.181713038475095, -93.10982413621852 48.35818807884812 M-93.10982413621852 48.35818807884812 C-94.10077869037094 47.757465604625565, -95.09173324452338 47.156743130403, -96.15218701718541 46.51388982149718 M-93.10982413621852 48.35818807884812 C-93.9757643556906 47.83325002897457, -94.84170457516267 47.30831197910102, -96.15218701718541 46.51388982149718 M-96.15218701718541 46.51388982149718 C-97.17083972227077 45.80332179119452, -98.18949242735613 45.09275376089187, -99.07013444226249 44.4784560136716 M-96.15218701718541 46.51388982149718 C-97.31644135421142 45.70175639574579, -98.48069569123743 44.88962296999439, -99.07013444226249 44.4784560136716 M-99.07013444226249 44.4784560136716 C-99.93877178373688 43.78574084925621, -100.80740912521127 43.09302568484082, -101.85167593958224 42.26025068948697 M-99.07013444226249 44.4784560136716 C-99.65547927483077 44.011659086378565, -100.24082410739905 43.54486215908554, -101.85167593958224 42.26025068948697 M-101.85167593958224 42.26025068948697 C-102.47164646477535 41.697209862027805, -103.09161698996846 41.13416903456863, -104.48538155849347 39.868388930423905 M-101.85167593958224 42.26025068948697 C-102.6438999099317 41.54077384071321, -103.43612388028117 40.82129699193945, -104.48538155849347 39.868388930423905 M-104.48538155849347 39.868388930423905 C-105.00738086584379 39.32938178864455, -105.5293801731941 38.79037464686519, -106.96042883768001 37.31269940950308 M-104.48538155849347 39.868388930423905 C-105.07440159340567 39.26017738493284, -105.66342162831785 38.65196583944177, -106.96042883768001 37.31269940950308 M-106.96042883768001 37.31269940950308 C-107.4229374493228 36.76941047678193, -107.88544606096558 36.22612154406077, -109.26664727697565 34.60368400315972 M-106.96042883768001 37.31269940950308 C-107.82789593022025 36.29372320232944, -108.69536302276049 35.27474699515579, -109.26664727697565 34.60368400315972 M-109.26664727697565 34.60368400315972 C-109.77674791048798 33.920195625376905, -110.28684854400032 33.2367072475941, -111.39456013013104 31.752474636780434 M-109.26664727697565 34.60368400315972 C-110.08182108039767 33.51142537043545, -110.8969948838197 32.41916673771118, -111.39456013013104 31.752474636780434 M-111.39456013013104 31.752474636780434 C-111.82432221665351 31.092244664603143, -112.25408430317599 30.432014692425856, -113.33542334679669 28.77078754123417 M-111.39456013013104 31.752474636780434 C-111.96200934928132 30.88072025471484, -112.52945856843161 30.00896587264925, -113.33542334679669 28.77078754123417 M-113.33542334679669 28.77078754123417 C-113.73725384292895 28.057296805601368, -114.1390843390612 27.343806069968565, -115.0812615037015 25.670875108366364 M-113.33542334679669 28.77078754123417 C-113.80472967500735 27.93748663307725, -114.27403600321803 27.104185724920324, -115.0812615037015 25.670875108366364 M-115.0812615037015 25.670875108366364 C-115.51639233583171 24.76731662513966, -115.95152316796192 23.863758141912957, -116.62490057737759 22.465475543292875 M-115.0812615037015 25.670875108366364 C-115.42169169507797 24.9639645319339, -115.76212188645445 24.257053955501437, -116.62490057737759 22.465475543292875 M-116.62490057737759 22.465475543292875 C-117.09021916668522 21.316129631380115, -117.55553775599284 20.166783719467354, -117.95999742376169 19.167760520382608 M-116.62490057737759 22.465475543292875 C-117.14576607202505 21.178927701264353, -117.66663156667254 19.89237985923583, -117.95999742376169 19.167760520382608 M-117.95999742376169 19.167760520382608 C-118.2898774134829 18.17421455058099, -118.61975740320412 17.18066858077938, -119.08106584353466 15.791281058022301 M-117.95999742376169 19.167760520382608 C-118.24348267265816 18.313948117947035, -118.52696792155461 17.460135715511463, -119.08106584353466 15.791281058022301 M-119.08106584353466 15.791281058022301 C-119.26466876892114 15.091123529512446, -119.4482716943076 14.39096600100259, -119.9834991260912 12.349911834575463 M-119.08106584353466 15.791281058022301 C-119.36866093051472 14.69455634686819, -119.65625601749477 13.597831635714076, -119.9834991260912 12.349911834575463 M-119.9834991260912 12.349911834575463 C-120.22729403881821 11.098076483795287, -120.47108895154524 9.846241133015111, -120.66358897950198 8.857794174352573 M-119.9834991260912 12.349911834575463 C-120.22229729146441 11.123733725394164, -120.46109545683763 9.897555616212863, -120.66358897950198 8.857794174352573 M-120.66358897950198 8.857794174352573 C-120.81234329064362 7.704085111999277, -120.96109760178526 6.55037604964598, -121.1185407686805 5.3292779378763795 M-120.66358897950198 8.857794174352573 C-120.81670155274907 7.670283291745678, -120.96981412599614 6.482772409138781, -121.1185407686805 5.3292779378763795 M-121.1185407686805 5.3292779378763795 C-121.19817693940894 4.088880297621004, -121.27781311013736 2.848482657365628, -121.34648499913817 1.7788625552268686 M-121.1185407686805 5.3292779378763795 C-121.16782684546799 4.561607508906076, -121.21711292225548 3.793937079935773, -121.34648499913817 1.7788625552268686 M-121.34648499913817 1.7788625552268686 C-121.34648499913817 0.37785076315737287, -121.34648499913817 -1.023161028912123, -121.34648499913817 -1.7788625552268416 M-121.34648499913817 1.7788625552268686 C-121.34648499913817 0.8663684959952159, -121.34648499913817 -0.046125563236436795, -121.34648499913817 -1.7788625552268416 M-121.34648499913817 -1.7788625552268416 C-121.2632003952495 -3.0760874869151102, -121.17991579136084 -4.373312418603378, -121.1185407686805 -5.329277937876303 M-121.34648499913817 -1.7788625552268416 C-121.29976133802435 -2.5066212917350494, -121.25303767691052 -3.234380028243257, -121.1185407686805 -5.329277937876303 M-121.1185407686805 -5.329277937876303 C-120.93818819925465 -6.728056851700107, -120.7578356298288 -8.12683576552391, -120.66358897950198 -8.857794174352547 M-121.1185407686805 -5.329277937876303 C-120.93688501121066 -6.738164120825643, -120.75522925374084 -8.147050303774982, -120.66358897950198 -8.857794174352547 M-120.66358897950198 -8.857794174352547 C-120.44178337607144 -9.996719069337464, -120.2199777726409 -11.135643964322382, -119.9834991260912 -12.349911834575437 M-120.66358897950198 -8.857794174352547 C-120.51351176918794 -9.628408930485522, -120.36343455887389 -10.399023686618495, -119.9834991260912 -12.349911834575437 M-119.9834991260912 -12.349911834575437 C-119.64145147017052 -13.654287790992845, -119.29940381424984 -14.95866374741025, -119.08106584353467 -15.791281058022273 M-119.9834991260912 -12.349911834575437 C-119.77704014021076 -13.137229427628078, -119.57058115433031 -13.92454702068072, -119.08106584353467 -15.791281058022273 M-119.08106584353467 -15.791281058022273 C-118.81054360040119 -16.60605095247426, -118.54002135726769 -17.420820846926244, -117.95999742376172 -19.167760520382537 M-119.08106584353467 -15.791281058022273 C-118.8443750705959 -16.50415595456051, -118.60768429765713 -17.217030851098748, -117.95999742376172 -19.167760520382537 M-117.95999742376172 -19.167760520382537 C-117.56366607421965 -20.146706616296786, -117.1673347246776 -21.125652712211036, -116.62490057737759 -22.46547554329285 M-117.95999742376172 -19.167760520382537 C-117.57495622911092 -20.118819715435073, -117.18991503446013 -21.06987891048761, -116.62490057737759 -22.46547554329285 M-116.62490057737759 -22.46547554329285 C-116.2433638822376 -23.25774465432854, -115.8618271870976 -24.05001376536423, -115.08126150370151 -25.67087510836634 M-116.62490057737759 -22.46547554329285 C-116.10057674989615 -23.554245189790755, -115.57625292241472 -24.64301483628866, -115.08126150370151 -25.67087510836634 M-115.08126150370151 -25.67087510836634 C-114.43609590756387 -26.81643195440949, -113.79093031142624 -27.961988800452644, -113.33542334679672 -28.770787541234153 M-115.08126150370151 -25.67087510836634 C-114.55619290755891 -26.60318756977834, -114.0311243114163 -27.53550003119034, -113.33542334679672 -28.770787541234153 M-113.33542334679672 -28.770787541234153 C-112.69542404203793 -29.753998337220196, -112.05542473727913 -30.73720913320624, -111.39456013013105 -31.752474636780416 M-113.33542334679672 -28.770787541234153 C-112.79842207640303 -29.595765697590565, -112.26142080600934 -30.420743853946977, -111.39456013013105 -31.752474636780416 M-111.39456013013105 -31.752474636780416 C-110.54705529906263 -32.888053901133645, -109.69955046799423 -34.02363316548687, -109.26664727697568 -34.6036840031597 M-111.39456013013105 -31.752474636780416 C-110.90086879160584 -32.41397605419801, -110.40717745308064 -33.0754774716156, -109.26664727697568 -34.6036840031597 M-109.26664727697568 -34.6036840031597 C-108.67905162738414 -35.29390728830955, -108.09145597779262 -35.984130573459396, -106.96042883768004 -37.31269940950306 M-109.26664727697568 -34.6036840031597 C-108.6432481485617 -35.33596409181006, -108.01984902014772 -36.06824418046042, -106.96042883768004 -37.31269940950306 M-106.96042883768004 -37.31269940950306 C-106.26995452268882 -38.02567082872702, -105.5794802076976 -38.73864224795098, -104.48538155849351 -39.86838893042385 M-106.96042883768004 -37.31269940950306 C-106.39896470034115 -37.89245722836842, -105.83750056300227 -38.472215047233774, -104.48538155849351 -39.86838893042385 M-104.48538155849351 -39.86838893042385 C-103.79741457269974 -40.493182344312785, -103.10944758690596 -41.11797575820173, -101.8516759395823 -42.260250689486924 M-104.48538155849351 -39.86838893042385 C-103.77553354987946 -40.51305411029803, -103.0656855412654 -41.15771929017222, -101.8516759395823 -42.260250689486924 M-101.8516759395823 -42.260250689486924 C-100.8991559869601 -43.01986000408265, -99.94663603433791 -43.77946931867839, -99.07013444226251 -44.47845601367158 M-101.8516759395823 -42.260250689486924 C-101.14512399458108 -42.8237070634885, -100.43857204957986 -43.387163437490074, -99.07013444226251 -44.47845601367158 M-99.07013444226251 -44.47845601367158 C-97.93251232053008 -45.272011958924196, -96.79489019879765 -46.06556790417681, -96.15218701718548 -46.51388982149714 M-99.07013444226251 -44.47845601367158 C-97.98483541807114 -45.23551363110994, -96.89953639387977 -45.992571248548295, -96.15218701718548 -46.51388982149714 M-96.15218701718548 -46.51388982149714 C-95.37698810023704 -46.98381996052578, -94.6017891832886 -47.45375009955442, -93.10982413621855 -48.35818807884811 M-96.15218701718548 -46.51388982149714 C-94.96236559980424 -47.235166556880415, -93.77254418242299 -47.95644329226369, -93.10982413621855 -48.35818807884811 M-93.10982413621855 -48.35818807884811 C-92.19504942036608 -48.83542546216718, -91.28027470451359 -49.31266284548625, -89.9555475210245 -50.003772168584256 M-93.10982413621855 -48.35818807884811 C-92.43768869630242 -48.70884070732906, -91.7655532563863 -49.05949333581001, -89.9555475210245 -50.003772168584256 M-89.9555475210245 -50.003772168584256 C-88.8461083006121 -50.494888001115655, -87.7366690801997 -50.986003833647054, -86.70231877080529 -51.44388003270419 M-89.9555475210245 -50.003772168584256 C-89.08748691527275 -50.38803684864759, -88.21942630952098 -50.77230152871092, -86.70231877080529 -51.44388003270419 M-86.70231877080529 -51.44388003270419 C-85.51428189018912 -51.881088586863484, -84.32624500957294 -52.318297141022775, -83.36350610031099 -52.6725939590921 M-86.70231877080529 -51.44388003270419 C-85.94208469207018 -51.7236532012055, -85.18185061333509 -52.00342636970681, -83.36350610031099 -52.6725939590921 M-83.36350610031099 -52.6725939590921 C-82.60239864139355 -52.89848665776421, -81.84129118247613 -53.12437935643633, -79.95282940697771 -53.68486489866611 M-83.36350610031099 -52.6725939590921 C-82.50236198269722 -52.928177012962145, -81.64121786508348 -53.18376006683219, -79.95282940697771 -53.68486489866611 M-79.95282940697771 -53.68486489866611 C-78.64485903933686 -53.98340059977583, -77.336888671696 -54.28193630088554, -76.48430389292619 -54.47653321300412 M-79.95282940697771 -53.68486489866611 C-78.58668995780377 -53.99667731304702, -77.22055050862984 -54.308489727427926, -76.48430389292619 -54.47653321300412 M-76.48430389292619 -54.47653321300412 C-75.62290256079794 -54.61579790011552, -74.76150122866967 -54.75506258722692, -72.97218247349012 -55.04434576719016 M-76.48430389292619 -54.47653321300412 C-75.58926918962752 -54.62123548273566, -74.69423448632884 -54.7659377524672, -72.97218247349012 -55.04434576719016 M-72.97218247349012 -55.04434576719016 C-71.74238680239036 -55.162982676535464, -70.51259113129058 -55.281619585880776, -69.43089720892957 -55.38596929764367 M-72.97218247349012 -55.04434576719016 C-71.78449078909252 -55.15892095557576, -70.5967991046949 -55.27349614396137, -69.43089720892957 -55.38596929764367 M-69.43089720892957 -55.38596929764367 C-68.08697302336925 -55.42906633048485, -66.74304883780894 -55.47216336332603, -65.87500000000001 -55.5 M-69.43089720892957 -55.38596929764367 C-68.711090365372 -55.40905210209753, -67.99128352181445 -55.4321349065514, -65.87500000000001 -55.5 M-65.87500000000001 -55.5 C-65.87500000000001 -55.5, -65.875 -55.5, -65.875 -55.5 M-65.87500000000001 -55.5 C-65.87500000000001 -55.5, -65.875 -55.5, -65.875 -55.5" stroke="#9370DB" stroke-width="1.3" fill="none" stroke-dasharray="0 0" style=""/></g><g class="label" style="" transform="translate(-100, -48)"><rect/><foreignObject width="200" height="96"><div xmlns="http://www.w3.org/1999/xhtml" style="display: table; white-space: break-spaces; line-height: 1.5; max-width: 200px; text-align: center; width: 200px;"><span class="nodeLabel"><p>Section 469: Forgery for the purpose of harming the reputation of any person ...</p></span></div></foreignObject></g></g><g class="node default" id="my-svg-flowchart-GRP2-1" data-look="classic" transform="translate(138, 188.5)"><polygon points="9.75,0 174.359375,0 184.109375,-19.5 174.359375,-39 9.75,-39 0,-19.5" class="label-container" transform="translate(-92.0546875,19.5)"/><g class="label" style="" transform="translate(-74.8046875, -12)"><rect/><foreignObject width="149.609375" height="24"><div xmlns="http://www.w3.org/1999/xhtml" style="display: table-cell; white-space: nowrap; line-height: 1.5; max-width: 200px; text-align: center;"><span class="nodeLabel"><p>ALL OF (conjunctive)</p></span></div></foreignObject></g></g><g class="node default" id="my-svg-flowchart-ELEM3-4" data-look="classic" transform="translate(138, 285)"><rect class="basic label-container" style="" x="-122.078125" y="-27" width="244.15625" height="54"/><g class="label" style="" transform="translate(-92.078125, -12)"><rect/><foreignObject width="184.15625" height="24"><div xmlns="http://www.w3.org/1999/xhtml" style="display: table-cell; white-space: nowrap; line-height: 1.5; max-width: 200px; text-align: center;"><span class="nodeLabel"><p>Whoever commits forgery</p></span></div></foreignObject></g></g><g class="node default" id="my-svg-flowchart-GRP4-7" data-look="classic" transform="translate(138, 381.5)"><polygon points="9.75,0 209.140625,0 218.890625,-19.5 209.140625,-39 9.75,-39 0,-19.5" class="label-container" transform="translate(-109.4453125,19.5)"/><g class="label" style="" transform="translate(-92.1953125, -12)"><rect/><foreignObject width="184.390625" height="24"><div xmlns="http://www.w3.org/1999/xhtml" style="display: table-cell; white-space: nowrap; line-height: 1.5; max-width: 200px; text-align: center;"><span class="nodeLabel"><p>ANY OF (alternative limb)</p></span></div></foreignObject></g></g><g class="node default" id="my-svg-flowchart-ELEM5-10" data-look="classic" transform="translate(138, 514)"><rect class="basic label-container" style="" x="-130" y="-63" width="260" height="126"/><g class="label" style="" transform="translate(-100, -48)"><rect/><foreignObject width="200" height="96"><div xmlns="http://www.w3.org/1999/xhtml" style="display: table; white-space: break-spaces; line-height: 1.5; max-width: 200px; text-align: center; width: 200px;"><span class="nodeLabel"><p>Intending that the document or electronic record forged shall harm the reputa...</p></span></div></foreignObject></g></g><g class="node default" id="my-svg-flowchart-ELEM6-13" data-look="classic" transform="translate(138, 666)"><rect class="basic label-container" style="" x="-130" y="-39" width="260" height="78"/><g class="label" style="" transform="translate(-100, -24)"><rect/><foreignObject width="200" height="48"><div xmlns="http://www.w3.org/1999/xhtml" style="display: table; white-space: break-spaces; line-height: 1.5; max-width: 200px; text-align: center; width: 200px;"><span class="nodeLabel"><p>Knowing that it is likely to be used for that purpose</p></span></div></foreignObject></g></g><g class="node default" id="my-svg-flowchart-PENALTY7-16" data-look="classic" transform="translate(138, 774.5)"><polygon points="0,0 211.3125,0 211.3125,-39 0,-39 0,0 -8,0 219.3125,0 219.3125,-39 -8,-39 -8,0" class="label-container" transform="translate(-105.65625,19.5)"/><g class="label" style="" transform="translate(-98.15625, -12)"><rect/><foreignObject width="196.3125" height="24"><div xmlns="http://www.w3.org/1999/xhtml" style="display: table-cell; white-space: nowrap; line-height: 1.5; max-width: 200px; text-align: center;"><span class="nodeLabel"><p>Imprisonment up to 5 years</p></span></div></foreignObject></g></g></g></g></g><defs><filter id="my-svg-drop-shadow" height="130%" width="130%"><feDropShadow dx="4" dy="4" stdDeviation="0" flood-opacity="0.06" flood-color="#000000"/></filter></defs><defs><filter id="my-svg-drop-shadow-small" height="150%" width="150%"><feDropShadow dx="2" dy="2" stdDeviation="0" flood-opacity="0.06" flood-color="#000000"/></filter></defs></svg>