<svg class="yuho-mermaid-svg" id="my-svg" width="100%" xmlns="http://www.w3.org/2000/svg" xmlns:xlink="http://www.w3.org/1999/xlink" class="flowchart" style="max-width: 246.718px; background-color: transparent;" viewBox="0 0 246.71763610839844 79" role="graphics-document document" aria-roledescription="flowchart-v2"><style>#my-svg{font-family:"trebuchet ms",verdana,arial,sans-serif;font-size:16px;fill:#333;}@keyframes edge-animation-frame{from{stroke-dashoffset:0;}}@keyframes dash{to{stroke-dashoffset:0;}}#my-svg .edge-animation-slow{stroke-dasharray:9,5!important;stroke-dashoffset:900;animation:dash 50s linear infinite;stroke-linecap:round;}#my-svg .edge-animation-fast{stroke-dasharray:9,5!important;stroke-dashoffset:900;animation:dash 20s linear infinite;stroke-linecap:round;}#my-svg .error-icon{fill:#552222;}#my-svg .error-text{fill:#552222;stroke:#552222;}#my-svg .edge-thickness-normal{stroke-width:1px;}#my-svg .edge-thickness-thick{stroke-width:3.5px;}#my-svg .edge-pattern-solid{stroke-dasharray:0;}#my-svg .edge-thickness-invisible{stroke-width:0;fill:none;}#my-svg .edge-pattern-dashed{stroke-dasharray:3;}#my-svg .edge-pattern-dotted{stroke-dasharray:2;}#my-svg .marker{fill:#333333;stroke:#333333;}#my-svg .marker.cross{stroke:#333333;}#my-svg svg{font-family:"trebuchet ms",verdana,arial,sans-serif;font-size:16px;}#my-svg p{margin:0;}#my-svg .label{font-family:"trebuchet ms",verdana,arial,sans-serif;color:#333;}#my-svg .cluster-label text{fill:#333;}#my-svg .cluster-label span{color:#333;}#my-svg .cluster-label span p{background-color:transparent;}#my-svg .label text,#my-svg span{fill:#333;color:#333;}#my-svg .node rect,#my-svg .node circle,#my-svg .node ellipse,#my-svg .node polygon,#my-svg .node path{fill:#ECECFF;stroke:#9370DB;stroke-width:1px;}#my-svg .rough-node .label text,#my-svg .node .label text,#my-svg .image-shape .label,#my-svg .icon-shape .label{text-anchor:middle;}#my-svg .node .katex path{fill:#000;stroke:#000;stroke-width:1px;}#my-svg .rough-node .label,#my-svg .node .label,#my-svg .image-shape .label,#my-svg .icon-shape .label{text-align:center;}#my-svg .node.clickable{cursor:pointer;}#my-svg .root .anchor path{fill:#333333!important;stroke-width:0;stroke:#333333;}#my-svg .arrowheadPath{fill:#333333;}#my-svg .edgePath .path{stroke:#333333;stroke-width:1px;}#my-svg .flowchart-link{stroke:#333333;fill:none;}#my-svg .edgeLabel{background-color:rgba(232,232,232, 0.8);text-align:center;}#my-svg .edgeLabel p{background-color:rgba(232,232,232, 0.8);}#my-svg .edgeLabel rect{opacity:0.5;background-color:rgba(232,232,232, 0.8);fill:rgba(232,232,232, 0.8);}#my-svg .labelBkg{background-color:rgba(232, 232, 232, 0.5);}#my-svg .cluster rect{fill:#ffffde;stroke:#aaaa33;stroke-width:1px;}#my-svg .cluster text{fill:#333;}#my-svg .cluster span{color:#333;}#my-svg div.mermaidTooltip{position:absolute;text-align:center;max-width:200px;padding:2px;font-family:"trebuchet ms",verdana,arial,sans-serif;font-size:12px;background:hsl(80, 100%, 96.2745098039%);border:1px solid #aaaa33;border-radius:2px;pointer-events:none;z-index:100;}#my-svg .flowchartTitleText{text-anchor:middle;font-size:18px;fill:#333;}#my-svg rect.text{fill:none;stroke-width:0;}#my-svg .icon-shape,#my-svg .image-shape{background-color:rgba(232,232,232, 0.8);text-align:center;}#my-svg .icon-shape p,#my-svg .image-shape p{background-color:rgba(232,232,232, 0.8);padding:2px;}#my-svg .icon-shape .label rect,#my-svg .image-shape .label rect{opacity:0.5;background-color:rgba(232,232,232, 0.8);fill:rgba(232,232,232, 0.8);}#my-svg .label-icon{display:inline-block;height:1em;overflow:visible;vertical-align:-0.125em;}#my-svg .node .label-icon path{fill:currentColor;stroke:revert;stroke-width:revert;}#my-svg .node .neo-node{stroke:#9370DB;}#my-svg [data-look="neo"].node rect,#my-svg [data-look="neo"].cluster rect,#my-svg [data-look="neo"].node polygon{stroke:#9370DB;filter:drop-shadow(1px 2px 2px rgba(185, 185, 185, 1));}#my-svg [data-look="neo"].node path{stroke:#9370DB;stroke-width:1px;}#my-svg [data-look="neo"].node .outer-path{filter:drop-shadow(1px 2px 2px rgba(185, 185, 185, 1));}#my-svg [data-look="neo"].node .neo-line path{stroke:#9370DB;filter:none;}#my-svg [data-look="neo"].node circle{stroke:#9370DB;filter:drop-shadow(1px 2px 2px rgba(185, 185, 185, 1));}#my-svg [data-look="neo"].node circle .state-start{fill:#000000;}#my-svg [data-look="neo"].icon-shape .icon{fill:#9370DB;filter:drop-shadow(1px 2px 2px rgba(185, 185, 185, 1));}#my-svg [data-look="neo"].icon-shape .icon-neo path{stroke:#9370DB;filter:drop-shadow(1px 2px 2px rgba(185, 185, 185, 1));}#my-svg :root{--mermaid-font-family:"trebuchet ms",verdana,arial,sans-serif;}</style><g><marker id="my-svg_flowchart-v2-pointEnd" class="marker flowchart-v2" viewBox="0 0 10 10" refX="5" refY="5" markerUnits="userSpaceOnUse" markerWidth="8" markerHeight="8" orient="auto"><path d="M 0 0 L 10 5 L 0 10 z" class="arrowMarkerPath" style="stroke-width: 1; stroke-dasharray: 1, 0;"/></marker><marker id="my-svg_flowchart-v2-pointStart" class="marker flowchart-v2" viewBox="0 0 10 10" refX="4.5" refY="5" markerUnits="userSpaceOnUse" markerWidth="8" markerHeight="8" orient="auto"><path d="M 0 5 L 10 10 L 10 0 z" class="arrowMarkerPath" style="stroke-width: 1; stroke-dasharray: 1, 0;"/></marker><marker id="my-svg_flowchart-v2-pointEnd-margin" class="marker flowchart-v2" viewBox="0 0 11.5 14" refX="11.5" refY="7" markerUnits="userSpaceOnUse" markerWidth="10.5" markerHeight="14" orient="auto"><path d="M 0 0 L 11.5 7 L 0 14 z" class="arrowMarkerPath" style="stroke-width: 0; stroke-dasharray: 1, 0;"/></marker><marker id="my-svg_flowchart-v2-pointStart-margin" class="marker flowchart-v2" viewBox="0 0 11.5 14" refX="1" refY="7" markerUnits="userSpaceOnUse" markerWidth="11.5" markerHeight="14" orient="auto"><polygon points="0,7 11.5,14 11.5,0" class="arrowMarkerPath" style="stroke-width: 0; stroke-dasharray: 1, 0;"/></marker><marker id="my-svg_flowchart-v2-circleEnd" class="marker flowchart-v2" viewBox="0 0 10 10" refX="11" refY="5" markerUnits="userSpaceOnUse" markerWidth="11" markerHeight="11" orient="auto"><circle cx="5" cy="5" r="5" class="arrowMarkerPath" style="stroke-width: 1; stroke-dasharray: 1, 0;"/></marker><marker id="my-svg_flowchart-v2-circleStart" class="marker flowchart-v2" viewBox="0 0 10 10" refX="-1" refY="5" markerUnits="userSpaceOnUse" markerWidth="11" markerHeight="11" orient="auto"><circle cx="5" cy="5" r="5" class="arrowMarkerPath" style="stroke-width: 1; stroke-dasharray: 1, 0;"/></marker><marker id="my-svg_flowchart-v2-circleEnd-margin" class="marker flowchart-v2" viewBox="0 0 10 10" refY="5" refX="12.25" markerUnits="userSpaceOnUse" markerWidth="14" markerHeight="14" orient="auto"><circle cx="5" cy="5" r="5" class="arrowMarkerPath" style="stroke-width: 0; stroke-dasharray: 1, 0;"/></marker><marker id="my-svg_flowchart-v2-circleStart-margin" class="marker flowchart-v2" viewBox="0 0 10 10" refX="-2" refY="5" markerUnits="userSpaceOnUse" markerWidth="14" markerHeight="14" orient="auto"><circle cx="5" cy="5" r="5" class="arrowMarkerPath" style="stroke-width: 0; stroke-dasharray: 1, 0;"/></marker><marker id="my-svg_flowchart-v2-crossEnd" class="marker cross flowchart-v2" viewBox="0 0 11 11" refX="12" refY="5.2" markerUnits="userSpaceOnUse" markerWidth="11" markerHeight="11" orient="auto"><path d="M 1,1 l 9,9 M 10,1 l -9,9" class="arrowMarkerPath" style="stroke-width: 2; stroke-dasharray: 1, 0;"/></marker><marker id="my-svg_flowchart-v2-crossStart" class="marker cross flowchart-v2" viewBox="0 0 11 11" refX="-1" refY="5.2" markerUnits="userSpaceOnUse" markerWidth="11" markerHeight="11" orient="auto"><path d="M 1,1 l 9,9 M 10,1 l -9,9" class="arrowMarkerPath" style="stroke-width: 2; stroke-dasharray: 1, 0;"/></marker><marker id="my-svg_flowchart-v2-crossEnd-margin" class="marker cross flowchart-v2" viewBox="0 0 15 15" refX="17.7" refY="7.5" markerUnits="userSpaceOnUse" markerWidth="12" markerHeight="12" orient="auto"><path d="M 1,1 L 14,14 M 1,14 L 14,1" class="arrowMarkerPath" style="stroke-width: 2.5;"/></marker><marker id="my-svg_flowchart-v2-crossStart-margin" class="marker cross flowchart-v2" viewBox="0 0 15 15" refX="-3.5" refY="7.5" markerUnits="userSpaceOnUse" markerWidth="12" markerHeight="12" orient="auto"><path d="M 1,1 L 14,14 M 1,14 L 14,1" class="arrowMarkerPath" style="stroke-width: 2.5; stroke-dasharray: 1, 0;"/></marker><g class="root"><g class="clusters"/><g class="edgePaths"/><g class="edgeLabels"/><g class="nodes"><g class="node default" id="my-svg-flowchart-START1-0" data-look="classic" transform="translate(123.35881805419922, 39.5)"><g class="basic label-container outer-path"><path d="M-83.875 -31.5 C-26.65985898567687 -31.5, 30.55528202864626 -31.5, 83.875 -31.5 C83.875 -31.5, 83.875 -31.5, 83.875 -31.5 C84.58764701466833 -31.477146797322852, 85.30029402933668 -31.4542935946457, 85.89321192939245 -31.435279871635593 C86.63169767731155 -31.36403903969289, 87.37018342523065 -31.29279820775019, 87.90313059306193 -31.241385435432253 C88.46990047807309 -31.149754475789756, 89.03667036308423 -31.058123516147255, 89.89649680409322 -30.91911344521856 C90.49405931891464 -30.782723700670406, 91.09162183373606 -30.64633395612225, 91.86511939314947 -30.469788185729428 C92.26387826146204 -30.35143864674227, 92.66263712977461 -30.233089107755113, 93.80090886774406 -29.895256030836062 C94.19384420914355 -29.750652192946568, 94.58677955054304 -29.606048355057077, 95.69591065370028 -29.197877856399685 C96.1878372233691 -28.98011655649052, 96.67976379303792 -28.762355256581348, 97.54233778220308 -28.380519338926202 C97.90293638765048 -28.19239527743872, 98.26353499309789 -28.00427121595124, 99.33260288812403 -27.44653917988677 C99.84716372517988 -27.13460937656839, 100.36172456223572 -26.822679573250007, 101.05934938813228 -26.399775304092984 C101.66730725732761 -25.975690212614307, 102.27526512652294 -25.55160512113563, 102.7154817104733 -25.244529088840633 C103.28185406394044 -24.792862208751888, 103.84822641740759 -24.341195328663144, 104.29419445219533 -23.985547688627737 C104.72554053288475 -23.5938105909375, 105.15688661357416 -23.20207349324727, 105.78900034400982 -22.62800452807842 C106.21057439207041 -22.192694711582824, 106.63214844013099 -21.757384895087224, 107.19375690787243 -21.177478043231485 C107.6540868482606 -20.636748301735885, 108.1144167886488 -20.09601856024029, 108.50269169774293 -19.63992875855011 C108.76105247989689 -19.293748847615273, 109.01941326205083 -18.94756893668044, 109.7104260198041 -18.02167479384835 C110.05273245867468 -17.49580018159399, 110.39503889754526 -16.96992556933963, 110.8119970346684 -16.329365901781543 C111.0170338023104 -15.965302358609074, 111.2220705699524 -15.601238815436606, 111.8028781507495 -14.56995614258631 C112.05444301610801 -14.04757631704353, 112.30600788146651 -13.52519649150075, 112.67899762499809 -12.750675308355413 C112.9151113852286 -12.167469755637065, 113.1512251454591 -11.584264202918718, 113.43675529456745 -10.878999214271206 C113.6227639548817 -10.31877076585997, 113.80877261519598 -9.758542317448732, 114.07303737065482 -8.962618978877531 C114.19409902448095 -8.500958424385832, 114.31516067830707 -8.039297869894133, 114.58522923372745 -7.009409419623907 C114.67677164028456 -6.539358509447655, 114.76831404684165 -6.0693075992714025, 114.97122617755518 -5.027396693551458 C115.02884493595906 -4.580516981481782, 115.08646369436293 -4.133637269412107, 115.22944205789975 -3.024725316091981 C115.26008333633835 -2.54746267121579, 115.29072461477698 -2.0702000263395988, 115.35881581032167 -1.0096246935071378 C115.35881581032167 -0.45284591252708384, 115.35881581032167 0.10393286845297012, 115.35881581032167 1.00962469350713 C115.31866626786774 1.6349862253544478, 115.27851672541381 2.2603477572017656, 115.22944205789975 3.02472531609196 C115.14660489436206 3.6671939984421065, 115.06376773082437 4.309662680792253, 114.97122617755518 5.027396693551435 C114.86925116873572 5.551016811413651, 114.76727615991625 6.074636929275866, 114.58522923372745 7.0094094196239 C114.45518166997617 7.5053371431781715, 114.3251341062249 8.001264866732443, 114.07303737065482 8.96261897887751 C113.94277157481051 9.354958800924607, 113.81250577896618 9.747298622971705, 113.43675529456746 10.878999214271184 C113.19402777307039 11.478540885186318, 112.95130025157333 12.078082556101451, 112.67899762499809 12.750675308355405 C112.43618109240929 13.254889033717555, 112.1933645598205 13.759102759079706, 111.8028781507495 14.569956142586303 C111.58674205712809 14.953727662963857, 111.37060596350668 15.337499183341409, 110.81199703466841 16.329365901781536 C110.5123043321086 16.789774371672127, 110.21261162954879 17.25018284156272, 109.71042601980412 18.021674793848334 C109.33595711485846 18.52342901165647, 108.9614882099128 19.02518322946461, 108.50269169774295 19.639928758550102 C108.11951925322072 20.090024915015665, 107.73634680869849 20.540121071481227, 107.19375690787246 21.177478043231467 C106.6731942202573 21.715001757185604, 106.15263153264213 22.25252547113974, 105.78900034400982 22.628004528078414 C105.41159200924649 22.97075679203314, 105.03418367448315 23.31350905598786, 104.29419445219536 23.985547688627715 C103.78140838555541 24.39448093096275, 103.26862231891546 24.80341417329779, 102.71548171047331 25.24452908884063 C102.17650607116083 25.620495162945637, 101.63753043184833 25.996461237050646, 101.05934938813229 26.399775304092973 C100.63270512539528 26.658409563404135, 100.20606086265828 26.917043822715296, 99.33260288812404 27.446539179886766 C98.86972621822096 27.688021642088547, 98.40684954831788 27.929504104290324, 97.54233778220309 28.3805193389262 C97.0993703642072 28.576607874711396, 96.65640294621132 28.77269641049659, 95.6959106537003 29.197877856399682 C94.96015720041834 29.46864192843781, 94.22440374713638 29.739406000475935, 93.80090886774407 29.895256030836055 C93.06475579847015 30.113742397650245, 92.32860272919622 30.332228764464432, 91.86511939314951 30.46978818572942 C91.37233880858025 30.582262138463516, 90.87955822401099 30.694736091197612, 89.89649680409323 30.919113445218557 C89.11342294326285 31.045714754209126, 88.33034908243245 31.172316063199695, 87.90313059306196 31.24138543543225 C87.11142793099859 31.317760039079747, 86.3197252689352 31.39413464272724, 85.89321192939245 31.435279871635593 C85.47077095236013 31.44882673153754, 85.0483299753278 31.462373591439487, 83.875 31.5 C83.875 31.5, 83.875 31.5, 83.875 31.5 C28.003882110697553 31.5, -27.867235778604893 31.5, -83.875 31.5 C-84.48057053686604 31.48058053155425, -85.08614107373207 31.4611610631085, -85.89321192939244 31.435279871635593 C-86.36328222208769 31.38993275584152, -86.83335251478294 31.344585640047452, -87.90313059306195 31.24138543543225 C-88.49716378680891 31.14534675546346, -89.09119698055589 31.04930807549467, -89.89649680409323 30.919113445218557 C-90.30242154022432 30.826463773103093, -90.7083462763554 30.73381410098763, -91.86511939314947 30.469788185729428 C-92.37043868488944 30.3198120724161, -92.87575797662939 30.169835959102766, -93.80090886774403 29.89525603083607 C-94.53943357312136 29.623472112409672, -95.27795827849869 29.351688193983275, -95.69591065370028 29.197877856399685 C-96.07338188539069 29.03078253941659, -96.45085311708108 28.8636872224335, -97.54233778220308 28.380519338926206 C-97.97316012220038 28.155759600104492, -98.40398246219769 27.93099986128278, -99.33260288812403 27.446539179886773 C-99.82866528095114 27.145823242168778, -100.32472767377824 26.845107304450785, -101.05934938813226 26.399775304092994 C-101.52319828128174 26.076214395926876, -101.98704717443123 25.752653487760753, -102.7154817104733 25.244529088840636 C-103.31484015337331 24.76655668022588, -103.91419859627334 24.28858427161112, -104.29419445219533 23.98554768862774 C-104.76378718767148 23.55907599101122, -105.23337992314764 23.132604293394703, -105.7890003440098 22.628004528078435 C-106.17066301847584 22.233906481603935, -106.55232569294186 21.839808435129438, -107.19375690787244 21.177478043231478 C-107.48437700457693 20.836099140890422, -107.77499710128141 20.494720238549363, -108.50269169774293 19.639928758550113 C-108.88889834563898 19.122447034518846, -109.27510499353502 18.60496531048758, -109.7104260198041 18.021674793848355 C-110.08145417058626 17.451675919238273, -110.4524823213684 16.881677044628194, -110.8119970346684 16.329365901781557 C-111.02372222713844 15.953426383050456, -111.23544741960846 15.577486864319354, -111.8028781507495 14.569956142586314 C-111.98766824376249 14.18623556057026, -112.17245833677548 13.802514978554207, -112.67899762499809 12.750675308355417 C-112.87498911976782 12.26657252703642, -113.07098061453755 11.782469745717421, -113.43675529456745 10.878999214271209 C-113.62010203256882 10.32678805174667, -113.80344877057018 9.77457688922213, -114.07303737065482 8.962618978877522 C-114.25326444142719 8.275335047115878, -114.43349151219955 7.588051115354233, -114.58522923372743 7.009409419623911 C-114.72070183498296 6.313786244321197, -114.85617443623849 5.618163069018483, -114.97122617755518 5.027396693551461 C-115.05049725833615 4.412585844859716, -115.12976833911712 3.797774996167971, -115.22944205789975 3.024725316091999 C-115.2661049231496 2.4536715960934785, -115.30276778839944 1.882617876094958, -115.35881581032167 1.0096246935071416 C-115.35881581032167 0.5827783026062501, -115.35881581032167 0.15593191170535858, -115.35881581032167 -1.0096246935071262 C-115.32931398907591 -1.4691393728513784, -115.29981216783014 -1.9286540521956304, -115.22944205789975 -3.024725316091956 C-115.14312762333444 -3.6941630258674625, -115.05681318876914 -4.36360073564297, -114.97122617755518 -5.027396693551446 C-114.81758254901321 -5.816324253522094, -114.66393892047124 -6.6052518134927425, -114.58522923372745 -7.009409419623896 C-114.38704517695014 -7.765171121629342, -114.18886112017282 -8.520932823634787, -114.07303737065482 -8.962618978877506 C-113.87590649122231 -9.55634577918793, -113.67877561178982 -10.150072579498357, -113.43675529456746 -10.878999214271168 C-113.15256667443008 -11.580950600423689, -112.86837805429269 -12.28290198657621, -112.67899762499809 -12.750675308355401 C-112.34540568337215 -13.44338611286577, -112.01181374174622 -14.136096917376141, -111.8028781507495 -14.5699561425863 C-111.43485663900076 -15.223415602915269, -111.06683512725202 -15.876875063244238, -110.8119970346684 -16.329365901781546 C-110.48897366520585 -16.825616541196023, -110.1659502957433 -17.3218671806105, -109.71042601980412 -18.021674793848344 C-109.3380148791132 -18.520671795021304, -108.96560373842229 -19.019668796194264, -108.50269169774295 -19.639928758550102 C-108.17657518323675 -20.02300377304444, -107.85045866873055 -20.406078787538778, -107.19375690787246 -21.177478043231467 C-106.71525771465312 -21.671567745744806, -106.23675852143377 -22.16565744825815, -105.78900034400984 -22.628004528078403 C-105.31491070824214 -23.058560191558232, -104.84082107247445 -23.489115855038065, -104.29419445219536 -23.98554768862771 C-103.97237875338851 -24.24218714455077, -103.65056305458167 -24.498826600473823, -102.71548171047331 -25.244529088840626 C-102.07389901028496 -25.692069406824558, -101.43231631009662 -26.13960972480849, -101.0593493881323 -26.39977530409297 C-100.48843927772091 -26.745864368064563, -99.91752916730954 -27.091953432036156, -99.33260288812404 -27.446539179886763 C-98.73617720013713 -27.757694079280647, -98.13975151215024 -28.06884897867453, -97.54233778220309 -28.3805193389262 C-96.9765516586019 -28.630976072395402, -96.41076553500072 -28.88143280586461, -95.6959106537003 -29.19787785639968 C-95.12675584970076 -29.407332085480846, -94.5576010457012 -29.61678631456201, -93.80090886774407 -29.895256030836055 C-93.11480850737887 -30.098887016378164, -92.42870814701367 -30.302518001920276, -91.86511939314951 -30.469788185729417 C-91.27785616647466 -30.603827184967255, -90.69059293979981 -30.737866184205092, -89.89649680409325 -30.919113445218553 C-89.30256136454933 -31.015136321045887, -88.70862592500542 -31.111159196873224, -87.90313059306196 -31.24138543543225 C-87.19833769689996 -31.30937595848753, -86.49354480073794 -31.377366481542808, -85.89321192939246 -31.435279871635593 C-85.3700257824963 -31.452057433046498, -84.84683963560012 -31.4688349944574, -83.87500000000001 -31.5 C-83.87500000000001 -31.5, -83.875 -31.5, -83.875 -31.5" stroke="none" stroke-width="0" fill="#ECECFF" style=""/><path d="M-83.875 -31.5 C-32.00881460290612 -31.5, 19.85737079418776 -31.5, 83.875 -31.5 M-83.875 -31.5 C-26.025511084136994 -31.5, 31.823977831726012 -31.5, 83.875 -31.5 M83.875 -31.5 C83.875 -31.5, 83.875 -31.5, 83.875 -31.5 M83.875 -31.5 C83.875 -31.5, 83.875 -31.5, 83.875 -31.5 M83.875 -31.5 C84.52651136493802 -31.47910729861638, 85.17802272987603 -31.458214597232757, 85.89321192939245 -31.435279871635593 M83.875 -31.5 C84.29387421114113 -31.486567519337896, 84.71274842228227 -31.47313503867579, 85.89321192939245 -31.435279871635593 M85.89321192939245 -31.435279871635593 C86.32664773393229 -31.393466840854455, 86.76008353847214 -31.35165381007332, 87.90313059306193 -31.241385435432253 M85.89321192939245 -31.435279871635593 C86.68225670199489 -31.359161671387813, 87.47130147459734 -31.283043471140033, 87.90313059306193 -31.241385435432253 M87.90313059306193 -31.241385435432253 C88.40232935400658 -31.160678851106933, 88.90152811495123 -31.07997226678161, 89.89649680409322 -30.91911344521856 M87.90313059306193 -31.241385435432253 C88.55486042129316 -31.13601881104413, 89.2065902495244 -31.03065218665601, 89.89649680409322 -30.91911344521856 M89.89649680409322 -30.91911344521856 C90.57921741156657 -30.763286921731087, 91.26193801903992 -30.607460398243617, 91.86511939314947 -30.469788185729428 M89.89649680409322 -30.91911344521856 C90.45536508663005 -30.791555406685898, 91.01423336916687 -30.663997368153236, 91.86511939314947 -30.469788185729428 M91.86511939314947 -30.469788185729428 C92.6049990100509 -30.250195799140446, 93.34487862695232 -30.030603412551464, 93.80090886774406 -29.895256030836062 M91.86511939314947 -30.469788185729428 C92.4169819537084 -30.305998274541235, 92.96884451426732 -30.14220836335304, 93.80090886774406 -29.895256030836062 M93.80090886774406 -29.895256030836062 C94.30418585792066 -29.710045446209573, 94.80746284809726 -29.524834861583084, 95.69591065370028 -29.197877856399685 M93.80090886774406 -29.895256030836062 C94.46313153324105 -29.65155196841395, 95.12535419873805 -29.407847905991844, 95.69591065370028 -29.197877856399685 M95.69591065370028 -29.197877856399685 C96.16973795061756 -28.988128567641773, 96.64356524753484 -28.77837927888386, 97.54233778220308 -28.380519338926202 M95.69591065370028 -29.197877856399685 C96.35091537497796 -28.907926696314764, 97.00592009625564 -28.617975536229846, 97.54233778220308 -28.380519338926202 M97.54233778220308 -28.380519338926202 C98.16813779579135 -28.054039872681237, 98.79393780937963 -27.727560406436275, 99.33260288812403 -27.44653917988677 M97.54233778220308 -28.380519338926202 C98.02460718601532 -28.128919699865655, 98.50687658982756 -27.877320060805108, 99.33260288812403 -27.44653917988677 M99.33260288812403 -27.44653917988677 C99.89151655762964 -27.10772242889116, 100.45043022713527 -26.768905677895557, 101.05934938813228 -26.399775304092984 M99.33260288812403 -27.44653917988677 C99.83763620562283 -27.140385014913793, 100.34266952312163 -26.834230849940813, 101.05934938813228 -26.399775304092984 M101.05934938813228 -26.399775304092984 C101.54891660610188 -26.05827440586068, 102.03848382407149 -25.716773507628375, 102.7154817104733 -25.244529088840633 M101.05934938813228 -26.399775304092984 C101.69005365754737 -25.959823308496794, 102.32075792696246 -25.519871312900605, 102.7154817104733 -25.244529088840633 M102.7154817104733 -25.244529088840633 C103.3388171863695 -24.747435634467067, 103.9621526622657 -24.250342180093504, 104.29419445219533 -23.985547688627737 M102.7154817104733 -25.244529088840633 C103.13372011879576 -24.910995087994937, 103.55195852711823 -24.57746108714924, 104.29419445219533 -23.985547688627737 M104.29419445219533 -23.985547688627737 C104.86228618595213 -23.469621806913423, 105.43037791970892 -22.95369592519911, 105.78900034400982 -22.62800452807842 M104.29419445219533 -23.985547688627737 C104.84695914270402 -23.48354142206001, 105.3997238332127 -22.981535155492285, 105.78900034400982 -22.62800452807842 M105.78900034400982 -22.62800452807842 C106.11303656059623 -22.293410530584808, 106.43707277718264 -21.958816533091195, 107.19375690787243 -21.177478043231485 M105.78900034400982 -22.62800452807842 C106.12480163914182 -22.281262121055576, 106.46060293427381 -21.93451971403273, 107.19375690787243 -21.177478043231485 M107.19375690787243 -21.177478043231485 C107.4948362117372 -20.82381316101421, 107.79591551560198 -20.470148278796934, 108.50269169774293 -19.63992875855011 M107.19375690787243 -21.177478043231485 C107.6322481564152 -20.662401271834266, 108.07073940495799 -20.14732450043705, 108.50269169774293 -19.63992875855011 M108.50269169774293 -19.63992875855011 C108.90110401724347 -19.106092546528373, 109.29951633674402 -18.572256334506633, 109.7104260198041 -18.02167479384835 M108.50269169774293 -19.63992875855011 C108.74501394103515 -19.31523902854905, 108.98733618432736 -18.99054929854799, 109.7104260198041 -18.02167479384835 M109.7104260198041 -18.02167479384835 C110.00866265732775 -17.56350323086151, 110.30689929485139 -17.10533166787467, 110.8119970346684 -16.329365901781543 M109.7104260198041 -18.02167479384835 C109.95781753661701 -17.641614990099825, 110.20520905342993 -17.2615551863513, 110.8119970346684 -16.329365901781543 M110.8119970346684 -16.329365901781543 C111.18539319448406 -15.666363209567612, 111.55878935429975 -15.003360517353679, 111.8028781507495 -14.56995614258631 M110.8119970346684 -16.329365901781543 C111.16555037298279 -15.70159614844669, 111.51910371129719 -15.073826395111839, 111.8028781507495 -14.56995614258631 M111.8028781507495 -14.56995614258631 C112.00252824508462 -14.15537844987177, 112.20217833941972 -13.74080075715723, 112.67899762499809 -12.750675308355413 M111.8028781507495 -14.56995614258631 C111.99719291073018 -14.16645738581662, 112.19150767071085 -13.762958629046933, 112.67899762499809 -12.750675308355413 M112.67899762499809 -12.750675308355413 C112.92845960344097 -12.134499398582264, 113.17792158188384 -11.518323488809115, 113.43675529456745 -10.878999214271206 M112.67899762499809 -12.750675308355413 C112.91366821386191 -12.171034416814608, 113.14833880272572 -11.591393525273803, 113.43675529456745 -10.878999214271206 M113.43675529456745 -10.878999214271206 C113.64640866886838 -10.247556654605711, 113.85606204316929 -9.616114094940219, 114.07303737065482 -8.962618978877531 M113.43675529456745 -10.878999214271206 C113.59260723941516 -10.4095979880251, 113.74845918426288 -9.940196761778994, 114.07303737065482 -8.962618978877531 M114.07303737065482 -8.962618978877531 C114.18240067730088 -8.545569292279193, 114.29176398394692 -8.128519605680856, 114.58522923372745 -7.009409419623907 M114.07303737065482 -8.962618978877531 C114.1790535071406 -8.55833350277304, 114.28506964362637 -8.154048026668548, 114.58522923372745 -7.009409419623907 M114.58522923372745 -7.009409419623907 C114.7061421092406 -6.388547358809111, 114.82705498475377 -5.767685297994316, 114.97122617755518 -5.027396693551458 M114.58522923372745 -7.009409419623907 C114.71295214221308 -6.353579278796428, 114.84067505069872 -5.697749137968948, 114.97122617755518 -5.027396693551458 M114.97122617755518 -5.027396693551458 C115.03524348625253 -4.5308910889422656, 115.09926079494988 -4.0343854843330735, 115.22944205789975 -3.024725316091981 M114.97122617755518 -5.027396693551458 C115.0714871295923 -4.249792548315982, 115.1717480816294 -3.4721884030805077, 115.22944205789975 -3.024725316091981 M115.22944205789975 -3.024725316091981 C115.2666425474982 -2.445297662901361, 115.30384303709666 -1.865870009710741, 115.35881581032167 -1.0096246935071378 M115.22944205789975 -3.024725316091981 C115.27817429118826 -2.265681446672579, 115.32690652447678 -1.506637577253177, 115.35881581032167 -1.0096246935071378 M115.35881581032167 -1.0096246935071378 C115.35881581032167 -0.544815337089187, 115.35881581032167 -0.0800059806712361, 115.35881581032167 1.00962469350713 M115.35881581032167 -1.0096246935071378 C115.35881581032167 -0.5293536745892582, 115.35881581032167 -0.04908265567137848, 115.35881581032167 1.00962469350713 M115.35881581032167 1.00962469350713 C115.30866612254623 1.790746560709048, 115.25851643477078 2.571868427910966, 115.22944205789975 3.02472531609196 M115.35881581032167 1.00962469350713 C115.3272912278239 1.500645512094817, 115.29576664532614 1.991666330682504, 115.22944205789975 3.02472531609196 M115.22944205789975 3.02472531609196 C115.13554972492419 3.752935709512058, 115.04165739194865 4.481146102932156, 114.97122617755518 5.027396693551435 M115.22944205789975 3.02472531609196 C115.12891365514669 3.8044037562661615, 115.02838525239363 4.584082196440363, 114.97122617755518 5.027396693551435 M114.97122617755518 5.027396693551435 C114.88562939491504 5.466918081522125, 114.8000326122749 5.906439469492814, 114.58522923372745 7.0094094196239 M114.97122617755518 5.027396693551435 C114.8321345099753 5.74160300953978, 114.69304284239541 6.455809325528124, 114.58522923372745 7.0094094196239 M114.58522923372745 7.0094094196239 C114.41257285247607 7.667823031084393, 114.23991647122469 8.326236642544886, 114.07303737065482 8.96261897887751 M114.58522923372745 7.0094094196239 C114.45316030364296 7.513045489072409, 114.32109137355847 8.016681558520919, 114.07303737065482 8.96261897887751 M114.07303737065482 8.96261897887751 C113.85548593720969 9.6178492343005, 113.63793450376458 10.273079489723491, 113.43675529456746 10.878999214271184 M114.07303737065482 8.96261897887751 C113.87964445234118 9.545087635861146, 113.68625153402753 10.127556292844782, 113.43675529456746 10.878999214271184 M113.43675529456746 10.878999214271184 C113.2307103066973 11.387934317919314, 113.02466531882715 11.896869421567441, 112.67899762499809 12.750675308355405 M113.43675529456746 10.878999214271184 C113.2357663909128 11.375445692154285, 113.03477748725814 11.871892170037384, 112.67899762499809 12.750675308355405 M112.67899762499809 12.750675308355405 C112.34770551263985 13.438610468182953, 112.01641340028159 14.1265456280105, 111.8028781507495 14.569956142586303 M112.67899762499809 12.750675308355405 C112.32960283592013 13.476201063726666, 111.98020804684218 14.20172681909793, 111.8028781507495 14.569956142586303 M111.8028781507495 14.569956142586303 C111.52545489809641 15.062549219822413, 111.24803164544332 15.555142297058524, 110.81199703466841 16.329365901781536 M111.8028781507495 14.569956142586303 C111.50094632060231 15.106066680925775, 111.19901449045511 15.642177219265246, 110.81199703466841 16.329365901781536 M110.81199703466841 16.329365901781536 C110.45578056985852 16.876610049243638, 110.09956410504863 17.42385419670574, 109.71042601980412 18.021674793848334 M110.81199703466841 16.329365901781536 C110.48872194881318 16.82600324517047, 110.16544686295796 17.3226405885594, 109.71042601980412 18.021674793848334 M109.71042601980412 18.021674793848334 C109.36650939088446 18.48249174515124, 109.02259276196479 18.943308696454146, 108.50269169774295 19.639928758550102 M109.71042601980412 18.021674793848334 C109.41426800175513 18.418499557483486, 109.11810998370615 18.815324321118638, 108.50269169774295 19.639928758550102 M108.50269169774295 19.639928758550102 C107.9956632144272 20.23551326579079, 107.48863473111145 20.83109777303148, 107.19375690787246 21.177478043231467 M108.50269169774295 19.639928758550102 C108.09312924798988 20.121024116793645, 107.68356679823681 20.60211947503719, 107.19375690787246 21.177478043231467 M107.19375690787246 21.177478043231467 C106.69651818198287 21.690917851771086, 106.19927945609327 22.20435766031071, 105.78900034400982 22.628004528078414 M107.19375690787246 21.177478043231467 C106.64614264010034 21.742934734673707, 106.0985283723282 22.308391426115946, 105.78900034400982 22.628004528078414 M105.78900034400982 22.628004528078414 C105.23156383547185 23.13425361617081, 104.67412732693387 23.640502704263202, 104.29419445219536 23.985547688627715 M105.78900034400982 22.628004528078414 C105.47307269758117 22.914921657577448, 105.15714505115253 23.201838787076486, 104.29419445219536 23.985547688627715 M104.29419445219536 23.985547688627715 C103.77071598109035 24.403007838986802, 103.24723750998535 24.82046798934589, 102.71548171047331 25.24452908884063 M104.29419445219536 23.985547688627715 C103.81197485331079 24.37010498633571, 103.3297552544262 24.75466228404371, 102.71548171047331 25.24452908884063 M102.71548171047331 25.24452908884063 C102.13111850408853 25.652155564939154, 101.54675529770375 26.05978204103768, 101.05934938813229 26.399775304092973 M102.71548171047331 25.24452908884063 C102.30596761251813 25.53018839599458, 101.89645351456295 25.815847703148528, 101.05934938813229 26.399775304092973 M101.05934938813229 26.399775304092973 C100.62566195133972 26.662679176906902, 100.19197451454716 26.925583049720828, 99.33260288812404 27.446539179886766 M101.05934938813229 26.399775304092973 C100.60132163237571 26.677434421302472, 100.14329387661914 26.95509353851197, 99.33260288812404 27.446539179886766 M99.33260288812404 27.446539179886766 C98.86819868862244 27.688818553301665, 98.40379448912084 27.931097926716564, 97.54233778220309 28.3805193389262 M99.33260288812404 27.446539179886766 C98.6693648237473 27.792550053247854, 98.00612675937057 28.138560926608942, 97.54233778220309 28.3805193389262 M97.54233778220309 28.3805193389262 C96.84867126993684 28.68758492702048, 96.15500475767058 28.994650515114763, 95.6959106537003 29.197877856399682 M97.54233778220309 28.3805193389262 C96.98805127470996 28.62588553346836, 96.43376476721683 28.871251728010524, 95.6959106537003 29.197877856399682 M95.6959106537003 29.197877856399682 C95.04282781610232 29.43821837766731, 94.38974497850434 29.678558898934938, 93.80090886774407 29.895256030836055 M95.6959106537003 29.197877856399682 C95.26512140925213 29.356412280528726, 94.83433216480398 29.51494670465777, 93.80090886774407 29.895256030836055 M93.80090886774407 29.895256030836055 C93.22425895033763 30.066402699425105, 92.64760903293117 30.237549368014157, 91.86511939314951 30.46978818572942 M93.80090886774407 29.895256030836055 C93.33829150491181 30.03255843579658, 92.87567414207955 30.169860840757107, 91.86511939314951 30.46978818572942 M91.86511939314951 30.46978818572942 C91.12342214229159 30.639075743210853, 90.38172489143368 30.80836330069229, 89.89649680409323 30.919113445218557 M91.86511939314951 30.46978818572942 C91.32054905322285 30.594082812164107, 90.77597871329618 30.718377438598793, 89.89649680409323 30.919113445218557 M89.89649680409323 30.919113445218557 C89.22828093016219 31.027145405624232, 88.56006505623114 31.135177366029907, 87.90313059306196 31.24138543543225 M89.89649680409323 30.919113445218557 C89.1918574433621 31.03303407250171, 88.48721808263095 31.146954699784867, 87.90313059306196 31.24138543543225 M87.90313059306196 31.24138543543225 C87.31149354506951 31.298459949904426, 86.71985649707706 31.355534464376607, 85.89321192939245 31.435279871635593 M87.90313059306196 31.24138543543225 C87.13163497211742 31.315810690125534, 86.36013935117288 31.39023594481882, 85.89321192939245 31.435279871635593 M85.89321192939245 31.435279871635593 C85.21227997171924 31.45711603416452, 84.53134801404603 31.478952196693452, 83.875 31.5 M85.89321192939245 31.435279871635593 C85.43044325377224 31.45011996233815, 84.96767457815203 31.464960053040706, 83.875 31.5 M83.875 31.5 C83.875 31.5, 83.875 31.5, 83.875 31.5 M83.875 31.5 C83.875 31.5, 83.875 31.5, 83.875 31.5 M83.875 31.5 C35.8673090026028 31.5, -12.140381994794396 31.5, -83.875 31.5 M83.875 31.5 C26.94323822789616 31.5, -29.98852354420768 31.5, -83.875 31.5 M-83.875 31.5 C-84.61996636418031 31.4761103786898, -85.36493272836064 31.4522207573796, -85.89321192939244 31.435279871635593 M-83.875 31.5 C-84.59031157088346 31.477061350191274, -85.30562314176692 31.454122700382552, -85.89321192939244 31.435279871635593 M-85.89321192939244 31.435279871635593 C-86.29842906727674 31.396189061688805, -86.70364620516105 31.357098251742013, -87.90313059306195 31.24138543543225 M-85.89321192939244 31.435279871635593 C-86.45730088366322 31.380862888633313, -87.02138983793401 31.326445905631036, -87.90313059306195 31.24138543543225 M-87.90313059306195 31.24138543543225 C-88.4559122178917 31.1520159892153, -89.00869384272146 31.06264654299835, -89.89649680409323 30.919113445218557 M-87.90313059306195 31.24138543543225 C-88.61003293418742 31.127098947028614, -89.3169352753129 31.01281245862498, -89.89649680409323 30.919113445218557 M-89.89649680409323 30.919113445218557 C-90.31291488350676 30.82406873597434, -90.72933296292028 30.729024026730123, -91.86511939314947 30.469788185729428 M-89.89649680409323 30.919113445218557 C-90.44411717805771 30.79412266841807, -90.9917375520222 30.66913189161758, -91.86511939314947 30.469788185729428 M-91.86511939314947 30.469788185729428 C-92.29027622016694 30.34360387116437, -92.7154330471844 30.21741955659931, -93.80090886774403 29.89525603083607 M-91.86511939314947 30.469788185729428 C-92.29728370139529 30.341524087518813, -92.72944800964112 30.2132599893082, -93.80090886774403 29.89525603083607 M-93.80090886774403 29.89525603083607 C-94.35515414811637 29.69128864427184, -94.90939942848871 29.487321257707606, -95.69591065370028 29.197877856399685 M-93.80090886774403 29.89525603083607 C-94.42832884675263 29.664359678754195, -95.05574882576124 29.43346332667232, -95.69591065370028 29.197877856399685 M-95.69591065370028 29.197877856399685 C-96.0794409826689 29.028100356788265, -96.4629713116375 28.85832285717684, -97.54233778220308 28.380519338926206 M-95.69591065370028 29.197877856399685 C-96.07909043434039 29.028255534134647, -96.46227021498049 28.858633211869613, -97.54233778220308 28.380519338926206 M-97.54233778220308 28.380519338926206 C-98.18904297436686 28.04313365440881, -98.83574816653064 27.70574796989141, -99.33260288812403 27.446539179886773 M-97.54233778220308 28.380519338926206 C-97.94992604279402 28.167880804448657, -98.35751430338495 27.955242269971105, -99.33260288812403 27.446539179886773 M-99.33260288812403 27.446539179886773 C-99.71132672677216 27.21695456326996, -100.09005056542028 26.98736994665315, -101.05934938813226 26.399775304092994 M-99.33260288812403 27.446539179886773 C-99.98109033115244 27.05342228098773, -100.62957777418085 26.660305382088687, -101.05934938813226 26.399775304092994 M-101.05934938813226 26.399775304092994 C-101.62434319431297 26.005660083089, -102.1893370004937 25.611544862085008, -102.7154817104733 25.244529088840636 M-101.05934938813226 26.399775304092994 C-101.46471272459647 26.117011388471578, -101.87007606106067 25.834247472850162, -102.7154817104733 25.244529088840636 M-102.7154817104733 25.244529088840636 C-103.12517176095984 24.917812175887722, -103.5348618114464 24.591095262934807, -104.29419445219533 23.98554768862774 M-102.7154817104733 25.244529088840636 C-103.3337042589351 24.751513058035286, -103.9519268073969 24.258497027229936, -104.29419445219533 23.98554768862774 M-104.29419445219533 23.98554768862774 C-104.78587885066321 23.539012927195504, -105.2775632491311 23.09247816576327, -105.7890003440098 22.628004528078435 M-104.29419445219533 23.98554768862774 C-104.76279697474693 23.559975276189697, -105.23139949729854 23.134402863751657, -105.7890003440098 22.628004528078435 M-105.7890003440098 22.628004528078435 C-106.13342928056657 22.27235337294198, -106.47785821712334 21.916702217805526, -107.19375690787244 21.177478043231478 M-105.7890003440098 22.628004528078435 C-106.3298876068078 22.069494021569366, -106.87077486960578 21.5109835150603, -107.19375690787244 21.177478043231478 M-107.19375690787244 21.177478043231478 C-107.62491182358069 20.67101894583086, -108.05606673928895 20.16455984843024, -108.50269169774293 19.639928758550113 M-107.19375690787244 21.177478043231478 C-107.66857876347677 20.61972527350966, -108.14340061908109 20.06197250378784, -108.50269169774293 19.639928758550113 M-108.50269169774293 19.639928758550113 C-108.89731437940621 19.11117031598721, -109.29193706106948 18.582411873424302, -109.7104260198041 18.021674793848355 M-108.50269169774293 19.639928758550113 C-108.98343009788745 18.995783098525678, -109.46416849803198 18.351637438501243, -109.7104260198041 18.021674793848355 M-109.7104260198041 18.021674793848355 C-110.0142329764088 17.55494572491291, -110.3180399330135 17.088216655977465, -110.8119970346684 16.329365901781557 M-109.7104260198041 18.021674793848355 C-110.08655857177821 17.443834188283784, -110.46269112375232 16.86599358271921, -110.8119970346684 16.329365901781557 M-110.8119970346684 16.329365901781557 C-111.11604594631827 15.78949627085633, -111.42009485796815 15.249626639931101, -111.8028781507495 14.569956142586314 M-110.8119970346684 16.329365901781557 C-111.01640410755941 15.966420445402969, -111.22081118045043 15.603474989024381, -111.8028781507495 14.569956142586314 M-111.8028781507495 14.569956142586314 C-112.10305167939958 13.946639387659806, -112.40322520804966 13.323322632733298, -112.67899762499809 12.750675308355417 M-111.8028781507495 14.569956142586314 C-112.0436418822659 14.070005102573928, -112.28440561378228 13.570054062561544, -112.67899762499809 12.750675308355417 M-112.67899762499809 12.750675308355417 C-112.97507447606405 12.01935976196599, -113.27115132713001 11.288044215576564, -113.43675529456745 10.878999214271209 M-112.67899762499809 12.750675308355417 C-112.97657453502839 12.015654587322416, -113.27415144505869 11.280633866289415, -113.43675529456745 10.878999214271209 M-113.43675529456745 10.878999214271209 C-113.57512788466138 10.46224301958651, -113.71350047475532 10.04548682490181, -114.07303737065482 8.962618978877522 M-113.43675529456745 10.878999214271209 C-113.63061394779017 10.2951278379462, -113.8244726010129 9.71125646162119, -114.07303737065482 8.962618978877522 M-114.07303737065482 8.962618978877522 C-114.2509008872917 8.2843483034053, -114.4287644039286 7.60607762793308, -114.58522923372743 7.009409419623911 M-114.07303737065482 8.962618978877522 C-114.2614908368672 8.243964235960787, -114.44994430307958 7.525309493044051, -114.58522923372743 7.009409419623911 M-114.58522923372743 7.009409419623911 C-114.7126084696717 6.355343964661208, -114.83998770561595 5.701278509698505, -114.97122617755518 5.027396693551461 M-114.58522923372743 7.009409419623911 C-114.6895376230982 6.473807885790883, -114.79384601246899 5.938206351957856, -114.97122617755518 5.027396693551461 M-114.97122617755518 5.027396693551461 C-115.06719310677317 4.283096141350336, -115.16316003599117 3.5387955891492124, -115.22944205789975 3.024725316091999 M-114.97122617755518 5.027396693551461 C-115.0446340518949 4.458059716196994, -115.11804192623462 3.8887227388425263, -115.22944205789975 3.024725316091999 M-115.22944205789975 3.024725316091999 C-115.25897776099244 2.5646828996328157, -115.28851346408514 2.104640483173633, -115.35881581032167 1.0096246935071416 M-115.22944205789975 3.024725316091999 C-115.27591037282664 2.3009438025567635, -115.32237868775356 1.577162289021528, -115.35881581032167 1.0096246935071416 M-115.35881581032167 1.0096246935071416 C-115.35881581032167 0.5808558003351121, -115.35881581032167 0.15208690716308249, -115.35881581032167 -1.0096246935071262 M-115.35881581032167 1.0096246935071416 C-115.35881581032167 0.5048971009010329, -115.35881581032167 0.00016950829492423658, -115.35881581032167 -1.0096246935071262 M-115.35881581032167 -1.0096246935071262 C-115.33249008189375 -1.419669163517478, -115.30616435346583 -1.8297136335278301, -115.22944205789975 -3.024725316091956 M-115.35881581032167 -1.0096246935071262 C-115.31437247133124 -1.7018655723006626, -115.2699291323408 -2.394106451094199, -115.22944205789975 -3.024725316091956 M-115.22944205789975 -3.024725316091956 C-115.16361349553208 -3.5352786464956907, -115.09778493316439 -4.045831976899425, -114.97122617755518 -5.027396693551446 M-115.22944205789975 -3.024725316091956 C-115.17728040714253 -3.429280778881923, -115.12511875638532 -3.8338362416718894, -114.97122617755518 -5.027396693551446 M-114.97122617755518 -5.027396693551446 C-114.83084976025305 -5.748199927831609, -114.69047334295091 -6.469003162111772, -114.58522923372745 -7.009409419623896 M-114.97122617755518 -5.027396693551446 C-114.82319772918554 -5.787491490105949, -114.67516928081588 -6.547586286660452, -114.58522923372745 -7.009409419623896 M-114.58522923372745 -7.009409419623896 C-114.42537065670918 -7.619019456940115, -114.26551207969091 -8.228629494256333, -114.07303737065482 -8.962618978877506 M-114.58522923372745 -7.009409419623896 C-114.42779007301252 -7.609793173993796, -114.27035091229759 -8.210176928363696, -114.07303737065482 -8.962618978877506 M-114.07303737065482 -8.962618978877506 C-113.91657751512774 -9.433851135232445, -113.76011765960065 -9.905083291587383, -113.43675529456746 -10.878999214271168 M-114.07303737065482 -8.962618978877506 C-113.89691368756425 -9.493075450848217, -113.72079000447368 -10.023531922818929, -113.43675529456746 -10.878999214271168 M-113.43675529456746 -10.878999214271168 C-113.19909016052031 -11.4660366903104, -112.96142502647317 -12.053074166349631, -112.67899762499809 -12.750675308355401 M-113.43675529456746 -10.878999214271168 C-113.1778737350586 -11.51844167139251, -112.91899217554973 -12.157884128513853, -112.67899762499809 -12.750675308355401 M-112.67899762499809 -12.750675308355401 C-112.41948542692411 -13.289557940327532, -112.15997322885013 -13.82844057229966, -111.8028781507495 -14.5699561425863 M-112.67899762499809 -12.750675308355401 C-112.3635075178723 -13.405797266209001, -112.04801741074651 -14.060919224062603, -111.8028781507495 -14.5699561425863 M-111.8028781507495 -14.5699561425863 C-111.59217774257404 -14.94407605303173, -111.38147733439858 -15.31819596347716, -110.8119970346684 -16.329365901781546 M-111.8028781507495 -14.5699561425863 C-111.52968217607638 -15.055043259710668, -111.25648620140325 -15.54013037683504, -110.8119970346684 -16.329365901781546 M-110.8119970346684 -16.329365901781546 C-110.5048176940631 -16.801275858153797, -110.19763835345783 -17.273185814526045, -109.71042601980412 -18.021674793848344 M-110.8119970346684 -16.329365901781546 C-110.38736640202714 -16.98171258280899, -109.96273576938589 -17.634059263836434, -109.71042601980412 -18.021674793848344 M-109.71042601980412 -18.021674793848344 C-109.28537880936825 -18.59119933323493, -108.86033159893239 -19.160723872621514, -108.50269169774295 -19.639928758550102 M-109.71042601980412 -18.021674793848344 C-109.33496434764236 -18.524759229283095, -108.9595026754806 -19.02784366471785, -108.50269169774295 -19.639928758550102 M-108.50269169774295 -19.639928758550102 C-108.09017394646008 -20.124495582131967, -107.6776561951772 -20.609062405713836, -107.19375690787246 -21.177478043231467 M-108.50269169774295 -19.639928758550102 C-108.16795841273063 -20.033125521989067, -107.83322512771831 -20.426322285428036, -107.19375690787246 -21.177478043231467 M-107.19375690787246 -21.177478043231467 C-106.67740045161409 -21.7106584779717, -106.16104399535573 -22.243838912711933, -105.78900034400984 -22.628004528078403 M-107.19375690787246 -21.177478043231467 C-106.71363482088078 -21.673243516806803, -106.2335127338891 -22.169008990382135, -105.78900034400984 -22.628004528078403 M-105.78900034400984 -22.628004528078403 C-105.35827651336817 -23.019176514739108, -104.9275526827265 -23.410348501399813, -104.29419445219536 -23.98554768862771 M-105.78900034400984 -22.628004528078403 C-105.37410527115105 -23.00480125572667, -104.95921019829227 -23.381597983374935, -104.29419445219536 -23.98554768862771 M-104.29419445219536 -23.98554768862771 C-103.78223151656236 -24.393824505889143, -103.27026858092935 -24.802101323150577, -102.71548171047331 -25.244529088840626 M-104.29419445219536 -23.98554768862771 C-103.9007132953164 -24.299338440265345, -103.50723213843744 -24.613129191902974, -102.71548171047331 -25.244529088840626 M-102.71548171047331 -25.244529088840626 C-102.166240160896 -25.62765621754229, -101.61699861131866 -26.010783346243958, -101.0593493881323 -26.39977530409297 M-102.71548171047331 -25.244529088840626 C-102.1936276676757 -25.608551878398828, -101.67177362487809 -25.972574667957034, -101.0593493881323 -26.39977530409297 M-101.0593493881323 -26.39977530409297 C-100.67059497815812 -26.635440511993814, -100.28184056818394 -26.87110571989466, -99.33260288812404 -27.446539179886763 M-101.0593493881323 -26.39977530409297 C-100.44442819848783 -26.77254414293347, -99.82950700884336 -27.14531298177397, -99.33260288812404 -27.446539179886763 M-99.33260288812404 -27.446539179886763 C-98.76954014427318 -27.74028865269486, -98.20647740042232 -28.034038125502956, -97.54233778220309 -28.3805193389262 M-99.33260288812404 -27.446539179886763 C-98.81985041049325 -27.714041819033113, -98.30709793286246 -27.98154445817946, -97.54233778220309 -28.3805193389262 M-97.54233778220309 -28.3805193389262 C-96.82188068296757 -28.699444325157245, -96.10142358373206 -29.018369311388295, -95.6959106537003 -29.19787785639968 M-97.54233778220309 -28.3805193389262 C-97.11037440082538 -28.571736714123677, -96.67841101944765 -28.762954089321155, -95.6959106537003 -29.19787785639968 M-95.6959106537003 -29.19787785639968 C-95.22893600126267 -29.369728845163092, -94.76196134882505 -29.541579833926505, -93.80090886774407 -29.895256030836055 M-95.6959106537003 -29.19787785639968 C-95.07253151197833 -29.427287143006982, -94.44915237025634 -29.65669642961429, -93.80090886774407 -29.895256030836055 M-93.80090886774407 -29.895256030836055 C-93.0928673504606 -30.105399036580028, -92.3848258331771 -30.315542042324, -91.86511939314951 -30.469788185729417 M-93.80090886774407 -29.895256030836055 C-93.24434481465329 -30.06044132032907, -92.68778076156251 -30.225626609822083, -91.86511939314951 -30.469788185729417 M-91.86511939314951 -30.469788185729417 C-91.27891918963739 -30.603584556867236, -90.69271898612527 -30.737380928005056, -89.89649680409325 -30.919113445218553 M-91.86511939314951 -30.469788185729417 C-91.26271519685865 -30.60728301247805, -90.66031100056779 -30.744777839226682, -89.89649680409325 -30.919113445218553 M-89.89649680409325 -30.919113445218553 C-89.28294805436292 -31.018307248933336, -88.66939930463259 -31.117501052648116, -87.90313059306196 -31.24138543543225 M-89.89649680409325 -30.919113445218553 C-89.16974762569724 -31.036608616357565, -88.44299844730124 -31.15410378749658, -87.90313059306196 -31.24138543543225 M-87.90313059306196 -31.24138543543225 C-87.23240757955269 -31.306089277883046, -86.5616845660434 -31.370793120333847, -85.89321192939246 -31.435279871635593 M-87.90313059306196 -31.24138543543225 C-87.14609117939702 -31.314416117195403, -86.38905176573208 -31.38744679895856, -85.89321192939246 -31.435279871635593 M-85.89321192939246 -31.435279871635593 C-85.46707230634401 -31.4489453399163, -85.04093268329554 -31.462610808197006, -83.87500000000001 -31.5 M-85.89321192939246 -31.435279871635593 C-85.35602754145327 -31.452506329390822, -84.81884315351408 -31.469732787146054, -83.87500000000001 -31.5 M-83.87500000000001 -31.5 C-83.87500000000001 -31.5, -83.875 -31.5, -83.875 -31.5 M-83.87500000000001 -31.5 C-83.87500000000001 -31.5, -83.875 -31.5, -83.875 -31.5" stroke="#9370DB" stroke-width="1.3" fill="none" stroke-dasharray="0 0" style=""/></g><g class="label" style="" transform="translate(-100, -24)"><rect/><foreignObject width="200" height="48"><div xmlns="http://www.w3.org/1999/xhtml" style="display: table; white-space: break-spaces; line-height: 1.5; max-width: 200px; text-align: center; width: 200px;"><span class="nodeLabel"><p>Section 47: Animal (eff: 1872-01-01)</p></span></div></foreignObject></g></g></g></g></g><defs><filter id="my-svg-drop-shadow" height="130%" width="130%"><feDropShadow dx="4" dy="4" stdDeviation="0" flood-opacity="0.06" flood-color="#000000"/></filter></defs><defs><filter id="my-svg-drop-shadow-small" height="150%" width="150%"><feDropShadow dx="2" dy="2" stdDeviation="0" flood-opacity="0.06" flood-color="#000000"/></filter></defs></svg>