<?xml version="1.0" encoding="UTF-8"?>
<svg class="euclid-diff-svg" xmlns="http://www.w3.org/2000/svg" width="1600" height="900" viewBox="0 0 1600 900">
<rect width="100%" height="100%" fill="#111827"/>
<text x="32" y="42" fill="#f9fafb" font-size="28" font-family="monospace">Euclid diff</text>
<line x1="800.0" y1="64" x2="800.0" y2="872" stroke="#f9fafb" opacity="0.18"/>
<text x="40.0" y="72" fill="#f9fafb" font-size="18" font-family="monospace">brown_plaintiffs</text>
<rect x="32.0" y="82" width="728.0" height="784" fill="none" stroke="#f9fafb" opacity="0.14"/>
<line x1="80.0" y1="92.0" x2="752.0" y2="92.0" stroke="#f9fafb" stroke-width="2" opacity="0.3"/><text x="40.0" y="97.0" fill="#93c5fd" font-family="monospace" font-size="13">brown_case</text>
<rect x="80.0" y="130.0" width="510.8050632911393" height="24" rx="5" fill="#059669" opacity="0.9" data-narrative="board"/><text x="574.6800000000001" y="146.0" fill="#f9fafb" font-family="monospace" font-size="11">board_separate_equal_claim</text>
<rect x="590.8050632911393" y="546.0" width="16.0" height="24" rx="5" fill="#10b981" opacity="0.9"/><text x="614.8050632911393" y="562.0" fill="#f9fafb" font-family="monospace" font-size="11">brown_decision</text>
<rect x="752.0" y="702.0" width="16.0" height="24" rx="5" fill="#10b981" opacity="0.9"/><text x="744.0" y="718.0" fill="#f9fafb" font-family="monospace" font-size="11" text-anchor="end">brown_ii_decree</text>
<rect x="590.8050632911393" y="598.0" width="16.0" height="24" rx="5" fill="#10b981" opacity="0.9"/><text x="614.8050632911393" y="614.0" fill="#f9fafb" font-family="monospace" font-size="11">brown_opinion_record</text>
<rect x="156.98227848101266" y="338.0" width="16.0" height="24" rx="5" fill="#10b981" opacity="0.9"/><text x="180.98227848101266" y="354.0" fill="#f9fafb" font-family="monospace" font-size="11">district_court_denial</text>
<rect x="156.98227848101266" y="390.0" width="16.0" height="24" rx="5" fill="#10b981" opacity="0.9"/><text x="180.98227848101266" y="406.0" fill="#f9fafb" font-family="monospace" font-size="11">nps_case_history</text>
<rect x="590.8050632911393" y="650.0" width="16.0" height="24" rx="5" fill="#10b981" opacity="0.9"/><text x="614.8050632911393" y="666.0" fill="#f9fafb" font-family="monospace" font-size="11">opinion_exhibit</text>
<rect x="80.0" y="182.0" width="510.8050632911393" height="24" rx="5" fill="#059669" opacity="0.9" data-narrative="plaintiffs"/><text x="526.94" y="198.0" fill="#f9fafb" font-family="monospace" font-size="11">plaintiffs_equal_protection_claim</text>
<rect x="80.0" y="234.0" width="510.8050632911393" height="24" rx="5" fill="#059669" opacity="0.9" data-narrative="plaintiffs"/><text x="598.8050632911393" y="250.0" fill="#f9fafb" font-family="monospace" font-size="11">plaintiffs_harm_claim</text>
<rect x="367.9392405063291" y="442.0" width="16.0" height="24" rx="5" fill="#10b981" opacity="0.9"/><text x="391.9392405063291" y="458.0" fill="#f9fafb" font-family="monospace" font-size="11">supreme_court_argument</text>
<rect x="522.7544303797467" y="494.0" width="16.0" height="24" rx="5" fill="#10b981" opacity="0.9"/><text x="546.7544303797467" y="510.0" fill="#f9fafb" font-family="monospace" font-size="11">supreme_court_reargument</text>
<rect x="80.0" y="286.0" width="16.0" height="24" rx="5" fill="#10b981" opacity="0.9"/><text x="104.0" y="302.0" fill="#f9fafb" font-family="monospace" font-size="11">topeka_filing</text>
<line x1="335.40253164556964" y1="194.0" x2="335.40253164556964" y2="142.0" stroke="#dc2626" stroke-width="2.75" class="diff-relationship contradiction"/>
<line x1="335.40253164556964" y1="246.0" x2="335.40253164556964" y2="194.0" stroke="#f59e0b" stroke-width="1.2" class="diff-relationship" stroke-dasharray="4,4"/>
<line x1="590.8050632911393" y1="558.0" x2="335.40253164556964" y2="194.0" stroke="#f59e0b" stroke-width="1.2" class="diff-relationship" stroke-dasharray="4,4"/>
<line x1="590.8050632911393" y1="610.0" x2="590.8050632911393" y2="558.0" stroke="#f59e0b" stroke-width="1.2" class="diff-relationship" stroke-dasharray="4,4"/>
<line x1="590.8050632911393" y1="610.0" x2="335.40253164556964" y2="194.0" stroke="#f59e0b" stroke-width="1.2" class="diff-relationship" stroke-dasharray="4,4"/>
<line x1="590.8050632911393" y1="610.0" x2="335.40253164556964" y2="246.0" stroke="#f59e0b" stroke-width="1.2" class="diff-relationship" stroke-dasharray="4,4"/>
<line x1="163.36202531645569" y1="402.0" x2="335.40253164556964" y2="142.0" stroke="#f59e0b" stroke-width="1.2" class="diff-relationship" stroke-dasharray="4,4"/>
<line x1="590.8050632911393" y1="662.0" x2="590.8050632911393" y2="610.0" stroke="#f59e0b" stroke-width="1.2" class="diff-relationship" stroke-dasharray="4,4"/>
<line x1="590.8050632911393" y1="558.0" x2="163.36202531645569" y2="350.0" stroke="#f59e0b" stroke-width="1.2" class="diff-relationship" stroke-dasharray="4,4"/>
<line x1="752.0" y1="714.0" x2="590.8050632911393" y2="558.0" stroke="#f59e0b" stroke-width="1.2" class="diff-relationship" stroke-dasharray="4,4"/>
<text x="832.0" y="72" fill="#f9fafb" font-size="18" font-family="monospace">brown_board</text>
<rect x="824.0" y="82" width="728.0" height="784" fill="none" stroke="#f9fafb" opacity="0.14"/>
<line x1="872.0" y1="92.0" x2="1544.0" y2="92.0" stroke="#f9fafb" stroke-width="2" opacity="0.3"/><text x="832.0" y="97.0" fill="#93c5fd" font-family="monospace" font-size="13">brown_case</text>
<rect x="872.0" y="130.0" width="510.8050632911393" height="24" rx="5" fill="#059669" opacity="0.9" data-narrative="board"/><text x="1366.68" y="146.0" fill="#f9fafb" font-family="monospace" font-size="11">board_separate_equal_claim</text>
<rect x="1382.8050632911393" y="546.0" width="16.0" height="24" rx="5" fill="#10b981" opacity="0.9"/><text x="1406.8050632911393" y="562.0" fill="#f9fafb" font-family="monospace" font-size="11">brown_decision</text>
<rect x="1544.0" y="702.0" width="16.0" height="24" rx="5" fill="#10b981" opacity="0.9"/><text x="1536.0" y="718.0" fill="#f9fafb" font-family="monospace" font-size="11" text-anchor="end">brown_ii_decree</text>
<rect x="1382.8050632911393" y="598.0" width="16.0" height="24" rx="5" fill="#10b981" opacity="0.9"/><text x="1406.8050632911393" y="614.0" fill="#f9fafb" font-family="monospace" font-size="11">brown_opinion_record</text>
<rect x="948.9822784810126" y="338.0" width="16.0" height="24" rx="5" fill="#10b981" opacity="0.9"/><text x="972.9822784810126" y="354.0" fill="#f9fafb" font-family="monospace" font-size="11">district_court_denial</text>
<rect x="948.9822784810126" y="390.0" width="16.0" height="24" rx="5" fill="#10b981" opacity="0.9"/><text x="972.9822784810126" y="406.0" fill="#f9fafb" font-family="monospace" font-size="11">nps_case_history</text>
<rect x="1382.8050632911393" y="650.0" width="16.0" height="24" rx="5" fill="#10b981" opacity="0.9"/><text x="1406.8050632911393" y="666.0" fill="#f9fafb" font-family="monospace" font-size="11">opinion_exhibit</text>
<rect x="872.0" y="182.0" width="510.8050632911393" height="24" rx="5" fill="#059669" opacity="0.9" data-narrative="plaintiffs"/><text x="1318.94" y="198.0" fill="#f9fafb" font-family="monospace" font-size="11">plaintiffs_equal_protection_claim</text>
<rect x="872.0" y="234.0" width="510.8050632911393" height="24" rx="5" fill="#059669" opacity="0.9" data-narrative="plaintiffs"/><text x="1390.8050632911393" y="250.0" fill="#f9fafb" font-family="monospace" font-size="11">plaintiffs_harm_claim</text>
<rect x="1159.939240506329" y="442.0" width="16.0" height="24" rx="5" fill="#10b981" opacity="0.9"/><text x="1183.939240506329" y="458.0" fill="#f9fafb" font-family="monospace" font-size="11">supreme_court_argument</text>
<rect x="1314.7544303797467" y="494.0" width="16.0" height="24" rx="5" fill="#10b981" opacity="0.9"/><text x="1338.7544303797467" y="510.0" fill="#f9fafb" font-family="monospace" font-size="11">supreme_court_reargument</text>
<rect x="872.0" y="286.0" width="16.0" height="24" rx="5" fill="#10b981" opacity="0.9"/><text x="896.0" y="302.0" fill="#f9fafb" font-family="monospace" font-size="11">topeka_filing</text>
<line x1="955.3620253164556" y1="350.0" x2="1127.4025316455695" y2="142.0" stroke="#f59e0b" stroke-width="1.2" class="diff-relationship" stroke-dasharray="4,4"/>
<line x1="955.3620253164556" y1="350.0" x2="1127.4025316455695" y2="194.0" stroke="#dc2626" stroke-width="2.75" class="diff-relationship contradiction"/>
<line x1="1382.8050632911393" y1="610.0" x2="1382.8050632911393" y2="558.0" stroke="#f59e0b" stroke-width="1.2" class="diff-relationship" stroke-dasharray="4,4"/>
<line x1="1382.8050632911393" y1="610.0" x2="1127.4025316455695" y2="142.0" stroke="#f59e0b" stroke-width="1.2" class="diff-relationship" stroke-dasharray="4,4"/>
<line x1="1382.8050632911393" y1="610.0" x2="1127.4025316455695" y2="194.0" stroke="#f59e0b" stroke-width="1.2" class="diff-relationship" stroke-dasharray="4,4"/>
<line x1="1382.8050632911393" y1="610.0" x2="1127.4025316455695" y2="246.0" stroke="#f59e0b" stroke-width="1.2" class="diff-relationship" stroke-dasharray="4,4"/>
<line x1="955.3620253164556" y1="402.0" x2="1127.4025316455695" y2="142.0" stroke="#f59e0b" stroke-width="1.2" class="diff-relationship" stroke-dasharray="4,4"/>
<line x1="1382.8050632911393" y1="662.0" x2="1382.8050632911393" y2="610.0" stroke="#f59e0b" stroke-width="1.2" class="diff-relationship" stroke-dasharray="4,4"/>
<line x1="1382.8050632911393" y1="558.0" x2="955.3620253164556" y2="350.0" stroke="#f59e0b" stroke-width="1.2" class="diff-relationship" stroke-dasharray="4,4"/>
<line x1="1544.0" y1="714.0" x2="1382.8050632911393" y2="558.0" stroke="#f59e0b" stroke-width="1.2" class="diff-relationship" stroke-dasharray="4,4"/>
</svg>
